<?xml version="1.0" encoding="utf-8"?>
<!-- Generator: Adobe Illustrator 26.2.1, SVG Export Plug-In . SVG Version: 6.00 Build 0)  -->
<svg version="1.1" id="图层_1" xmlns="http://www.w3.org/2000/svg" xmlns:xlink="http://www.w3.org/1999/xlink" x="0px" y="0px"
	 viewBox="0 0 1920 140.1" style="enable-background:new 0 0 1920 140.1;" xml:space="preserve">
<style type="text/css">
	.st0{fill:#FCF0C7;}
</style>
<path class="st0" d="M1921.2,138.1V11.3h-30c-2.2-1-4.1,0.1-5.8,0.7c-0.2,0.1-0.5,0.2-0.8,0.2c-8.6,0.4,5.9,3.5,0.4,5.9
	c-2.6,1.1-5.2,1.4-8.8,0.8c-2.8-0.5-6-0.6-8.9-1c-4.6-0.7-9.5-1.2-13.5-2.3c-12.7-3.5-23.4-2.8-32.9,2.3c-5.4,2.9-10.7,5.8-16.5,8.6
	c-5.6,2.6-7.8,2.3-12.2-0.7c-2.4-1.5-5.2-2.8-8.3-4c-5.3-2.1-10.7-4.1-16.4-6c-5.3-1.8-10.8-3.4-16.4-4.9c-5.4-1.4-11-1.2-16.7,0.2
	c-2.5,0.5-5.4,0.6-8.1,0.3c-4.8-0.7-9.2-1.9-14-2.6s-9.7-1-14.6-1.6c-2.9-0.3-5.8-0.7-8.6-1.2c-4.9-0.9-9.6-2.1-14.6-3
	c-5.9-1-11.2-0.9-17.2,0.8c-11.8,3.3-25.5,4.5-39.2,5.5c-4.8,0.3-8.2-0.5-11.6-2.2c-7.7-3.7-16.9-5.9-29-4.9
	c-10.5,0.9-21.3,1.3-31.8,2.1c-3.2,0.2-6,1.4-9.2,1.7c-3.7,0.4-7.8,0.8-11.4,0.5c-10.8-0.9-21.6-1.1-32.3-0.2
	c-3.7,0.4-7,1.3-9.5,2.5c-9.7,5.2-22.6,6-36.3,5.6c-3.2-0.1-6.3-1.3-9.5-1.9c-3.7-0.6-7.6-1.2-11.5-1.7c-4.2-0.5-8.7-0.8-12.9-1.5
	c-10.7-1.6-21.3-3.4-32-5.2c-2.8-0.4-4.2-0.3-6.7,0.9c-3.3,1.5-7.8,2.4-12.5,2.5c-17.5,0.3-33.7,2.6-49.7,5.6
	c-0.8,0.1-1.7,0.1-2.5,0.1s-1.6-0.2-2.4-0.4c-7.8-2.2-15.3-4.6-23.2-6.7c-5.5-1.5-11.4-2.7-17.4-3.7c-3-0.5-6.7-0.1-10.1,0
	c-1.5,0-3.1,0.4-4.5,0.3c-8.8-0.8-17.5-1.8-26.3-2.7h-9.2c-0.8,0.6-1.4,1.4-2.5,1.6c-5.1,0.9-6.9,3-9,4.9c-3,3-7.9,5.6-14.2,7.3
	c-7.2,1.9-13.5,4.5-20.5,6.6c-5.3,1.6-10.9,3-16.7,4.3c-7.4,1.5-15.2,1-22.4-0.3c-18.1-3.2-35.3-1.4-52.4,1.4
	c-3.6,0.6-6.5,2-9.5,3.1c-4.5,1.6-8.6,3.5-13.4,5c-5.5,1.6-8.7,0.8-11.3-1.9c-1.5-1.5-3.7-3.2-6.6-4c-10.1-3-20.6-5.6-31.1-8.3
	c-0.9-0.2-2.8,0.2-4,0.5c-0.9,0.2-1.6,0.7-2.5,0.8c-11.2,2.1-22.4,4.2-33.7,6.2c-2.4,0.4-5.1,0.8-7.6,0.7s-5.6-0.7-6.7-1.5
	c-2.8-2.1-7.2-3.6-12.3-4.4c-3-0.5-6.3-0.8-6-3c0.2-1.4-5.9-2-9-1.5c-4.6,0.8-6.9,2.1-9.1,4.1c-3.5,3.2-8.3,3.5-14.8,1.4
	c-4-1.3-7.4-1.1-11.2,0.2c-5.3,1.8-10.9,3.5-16.7,5.1c-4.8,1.3-6.7,0.7-8.4-1.6c-0.8-1.4-1.9-2.7-3.3-4c-4-3.5-11.1-4.7-19.4-4.9
	c-13.2-0.2-25.9,1-38.5,2.5c-3.9,0.6-8.2,0.5-12-0.2c-4.3-0.8-8.8-1.3-13-2.1c-2.7-0.6-5.7-0.9-8.7-0.9s-6,0.3-8.7,0.8
	c-7.7,1.5-15.3,3.1-22.9,4.8c-1.5,0.3-2.9,0.8-3.9,1.4s-1.8,1.3-2.2,2c-2.8,4.4-15.7,7.3-27.5,6.3c-12.8-1.1-25.5-2.3-37-5.3
	c-5.5-1.4-11.8-2.2-17.8-3.2c-1.3-0.2-3.3-0.4-4.3-0.1c-8.1,2.3-17.4,2.1-26.3,2.4c-12.8,0.5-25.7,0.4-38.5,0.8
	c-5.9,0.2-11.8,0.6-17.5,1.3c-5.4,0.6-9.6-0.1-13.8-1.4c-10.6-3.4-22.6-4.8-35.3-5.1c-7.3-0.2-14.1,0.4-20.1,2.8
	c-3.7,1.5-8.7,2.3-13.1,3.4c-0.8-0.6-1.1-0.7-1-0.8c2.8-2.8-1.8-3.5-6.1-4.4c-15.2-3.1-31.4-3.8-47.8-4.7
	c-19.7-1.1-39.2-3.1-58.8-4.6c-7.3-0.6-13.6-1.6-18.9-4.2c-3.4-1.6-6.4-1.2-8.4,0.8c-1.3,1.3-3.3,1.7-6.2,1.5c-0.5,0-0.9,0-1.4-0.1
	c-14.3-2.9-28-0.4-41.5,1.2c-6.1,0.7-10.3,0.4-14.9-1.5s-10.1-3.5-15.6-4.9c-3.6-1-7.4-0.3-11.3,0.4c-8.6,1.6-17.4,2.9-26.4,4
	c-4.5,0.6-8.7-0.5-12.2-1.8c-6.4-2.6-14.3-4-22.5-4.9c-2.6-0.3-5.8,0-8.4,0.5c-18,2.9-35.9,6-53.8,8.9c-3,0.5-7,1.7-8.8-0.9
	c-0.1-0.1-0.3-0.2-0.5-0.2c-0.2-0.1-0.4-0.1-0.6-0.1c-6.3-0.2-10.9-1.6-15.4-3.5c-2-0.8-6.6-0.7-9.9-0.5c-4.1,0.2-8,0.9-12.1,1.2
	C74.4,9.7,71,9.8,67.5,8.2C65.8,7.4,61.7,7.6,59,7c-4.1-1-7-0.6-10.6,0.6c-2,0.6-4.2,1.2-6.4,1.6V8.7H30.6c0-0.2-0.1-0.4-0.1-0.6
	L26,8.7H-0.7v129.4L1921.2,138.1L1921.2,138.1z"/>
</svg>
