<svg width="51" height="51" viewBox="0 0 51 51" fill="none" xmlns="http://www.w3.org/2000/svg">
<g clip-path="url(#clip0_396_728)">
<path d="M35.9166 43.0035C36.1639 43.7875 36.3734 44.4037 36.5467 45.0293C36.6336 45.3032 36.6605 45.5925 36.6255 45.8776C36.5814 46.1316 36.3908 46.3621 36.2647 46.6035C36.0316 46.4765 35.7118 46.4075 35.5779 46.2115C34.8627 45.183 34.2263 44.0995 33.5017 43.0757C32.9959 42.3809 32.4148 41.7436 31.7689 41.1753C31.9737 42.1914 32.2871 43.1995 32.358 44.225C32.4762 45.9607 32.4982 47.7089 32.4494 49.4477C32.4195 50.4528 31.8744 51.0862 31.2238 50.9874C30.2487 50.8416 29.1759 50.7475 28.3584 50.2725C25.4583 48.5932 22.5928 46.823 20.2819 44.3535C18.6924 42.6523 17.188 40.8649 16.5012 38.571C16.4271 38.3249 16.457 38.0364 16.3436 37.8137C16.1861 37.5001 15.9923 37.1426 15.7135 36.9341C14.9259 36.3399 14.0642 35.8366 13.2655 35.2533C9.98103 32.8496 7.39598 29.7655 4.82196 26.6642C3.68775 25.2969 2.42594 24.0363 1.22557 22.7224C0.957306 22.4382 0.705884 22.1388 0.472585 21.8255C0.0409558 21.2156 -0.215816 20.5289 0.269373 19.8641C0.723056 19.2369 1.36262 18.9954 2.19595 19.1507C6.10582 19.8797 9.792 21.1184 13.056 23.4687C15.1811 24.999 17.418 26.3757 19.5147 27.9373C20.6615 28.7903 21.6398 29.869 22.6653 30.8741C23.119 31.3162 23.5364 31.7568 24.2406 31.785C24.4816 31.796 24.7131 31.9418 24.951 32.0186L24.9132 32.2068L23.883 32.1049C24.6454 32.7618 25.337 33.3749 26.0521 33.9597C26.1225 34.0063 26.2033 34.0348 26.2874 34.0428C26.3715 34.0507 26.4563 34.0378 26.5342 34.0052C26.6271 33.9315 26.6476 33.6712 26.5972 33.5348C26.5216 33.32 26.3577 33.135 26.3073 32.834L26.9375 33.3937C27.1281 32.2319 27.1942 31.0011 27.5502 29.8596C27.9708 28.5081 28.6214 27.2239 29.209 25.9257C29.6816 24.9003 29.5871 23.8874 29.1917 22.8902C29.0342 22.5076 28.7286 22.1877 28.5773 21.8052C28.4749 21.5465 28.5269 21.2266 28.5096 20.935C28.7853 21.0682 29.2011 21.1341 29.3083 21.3505C29.6312 22.0074 29.8328 22.7224 30.1227 23.5252C30.496 21.9353 30.8489 20.4207 31.2096 18.9076C32.4336 13.7586 34.0908 8.75686 36.5656 4.06405C37.1768 2.90849 38.0684 1.84857 39.012 0.928196C40.5669 -0.589558 42.684 -0.183465 43.6213 1.78429C44.0388 2.66076 44.2515 3.6658 44.3885 4.63321C44.5374 5.71944 44.599 6.81576 44.5728 7.91175C44.5319 10.0347 45.0533 12.0464 45.8409 13.9969C47.0555 16.9979 47.6509 20.0036 46.0441 23.0344C49.4625 24.2982 50.362 27.1565 50.8677 30.2469C51.2899 32.8183 50.5731 35.2831 49.9776 37.7322C49.6815 38.952 49.2294 40.2158 48.5205 41.2334C47.7407 42.3544 46.7136 43.4285 45.5558 44.1325C44.3476 44.8678 42.8274 44.769 41.4175 44.4272C39.9005 44.0588 38.3851 43.6652 36.8618 43.2748C36.5956 43.2074 36.3278 43.118 35.9166 43.0035ZM29.5131 26.5591L29.2626 26.5168C28.1599 28.5551 27.41 30.6687 27.7598 33.0503C27.7802 33.1883 27.9661 33.3028 28.0748 33.4282C28.2323 33.251 28.5112 33.0927 28.5474 32.8935C28.8892 30.7863 29.1948 28.6727 29.5131 26.5591Z" fill="#121212"/>
</g>
<defs>
<clipPath id="clip0_396_728">
<rect width="51" height="51" fill="white"/>
</clipPath>
</defs>
</svg>
