<svg width="143" height="110" viewBox="0 0 143 110" fill="none" xmlns="http://www.w3.org/2000/svg">
<g clip-path="url(#clip0_396_732)">
<path d="M73.8881 84.4359C73.8881 85.2099 73.9315 85.9918 73.8881 86.7618C73.821 87.6239 73.8526 88.5743 73.4934 89.3122C73.0631 90.1944 72.2697 90.8921 71.6342 91.6701C71.0619 90.7237 70.0869 89.8174 69.9922 88.8229C69.6567 85.2139 69.5974 81.6048 69.4672 77.9757H68.9106C68.9106 79.5557 68.9106 81.1397 68.9106 82.7196C68.9106 85.0856 68.5159 87.1628 66.7831 89.0636C64.4582 91.6019 62.6464 94.6175 60.3846 97.224C57.2742 100.833 54.0059 104.282 50.6902 107.686C49.2613 109.154 47.4377 109.9 45.2983 109.29C44.8626 109.144 44.392 109.144 43.9563 109.29C41.1182 110.598 38.5367 109.98 35.8842 108.589C33.9787 107.601 31.9701 106.835 29.8963 106.303C27.4727 105.673 25.728 104.298 24.1215 102.417C22.515 100.536 20.5256 99.1168 18.9467 97.2842C17.532 95.5909 16.279 93.7648 15.2047 91.8305C14.0986 89.8805 13.1482 87.8436 12.3627 85.7392C11.2338 82.6835 9.86806 79.6199 9.47334 76.4519C9.22466 74.4188 10.1444 71.9125 11.2812 70.1C13.2225 67.1027 15.4503 64.3075 17.9322 61.755C19.9493 59.6137 22.3965 57.8893 24.6149 56.0126C22.0137 55.5234 19.294 54.9379 16.5468 54.5369C10.4878 53.6868 7.43262 47.5995 6.07083 42.5789C5.47875 40.4055 5.01692 38.1959 4.49194 35.9984C4.34195 35.2886 4.01433 34.5708 4.08143 33.8811C4.50773 29.4901 3.38277 25.3437 2.3407 21.1612C1.85865 19.0935 1.52228 16.9936 1.33416 14.8774C0.840759 10.0814 0.449983 5.27331 0 0.284796C7.87076 0.0321616 15.5678 -0.858072 22.4084 2.69083C29.1463 6.20365 35.525 10.5265 41.7103 15.0057C46.6562 18.6148 51.1836 22.8133 55.6637 27.0359C59.8443 30.9238 63.2786 35.5657 65.7923 40.7263C66.0859 41.2662 66.4102 41.7884 66.7633 42.2902C67.7422 41.3759 68.2909 40.6421 67.7304 39.1944C67.4699 38.5207 68.3106 37.4099 68.6541 36.4957H69.3369C66.5147 31.7758 63.6766 27.064 60.8741 22.3281C58.411 18.1576 55.9519 13.9792 53.5954 9.74854C53.3309 9.27134 53.7533 8.39715 53.8599 7.70742C54.3651 8.00817 55.2059 8.20868 55.3282 8.62572C57.7439 16.9306 63.5779 23.2945 67.4462 30.7653C68.3935 32.5939 69.4869 34.3463 70.3553 35.854L73.8802 36.1267C76.8367 31.2304 80.0892 26.0655 83.0891 20.7642C85.2008 17.0348 86.9494 13.0889 88.9033 9.26332C89.2504 8.65448 89.6992 8.11169 90.2296 7.6593C90.3283 7.57108 91.1098 7.94802 91.1374 8.16457C91.2277 8.72613 91.1479 9.3023 90.9085 9.81671C88.277 14.4283 85.6113 19.0211 82.9114 23.5953C80.5431 27.6053 78.1234 31.5713 75.8341 35.6255C75.4985 36.223 75.7077 37.1653 75.7433 37.9473C75.7788 38.7293 75.9998 39.4631 75.9801 40.221C75.9109 41.1115 75.795 41.9977 75.6327 42.8757L76.1735 43.016C76.5394 42.6575 76.859 42.2532 77.1248 41.813C81.1391 32.9548 87.6797 26.1738 95.0373 20.279C101.1 15.4228 107.589 11.0759 114.098 6.83323C119.084 3.60914 124.622 1.26325 130.491 0.401087C134.47 -0.176362 138.595 0.288806 142.925 0.288806C142.925 2.69484 143.114 5.00464 142.882 7.29037C142.44 11.6533 141.792 15.9962 141.157 20.3351C140.916 22.0554 140.403 23.7076 140.126 25.4078C139.12 31.5432 138.69 37.7789 137.103 43.818C135.299 50.6752 131.056 54.2121 123.56 55.1825C121.91 55.3991 120.276 55.7399 119.111 55.9404C122.226 58.8718 125.589 61.9114 128.814 65.1034C131.668 67.9105 132.99 71.6358 134.123 75.4133C134.257 75.7934 134.275 76.2057 134.174 76.5963C132.844 80.1171 131.494 83.6339 130.093 87.1267C129.133 89.5327 128.237 91.9749 127.01 94.2325C126.287 95.5639 125.001 96.5904 123.923 97.7052C122.459 99.213 120.852 100.584 119.49 102.176C117.911 104.033 116.218 105.529 113.806 106.243C111.387 106.969 109.026 107.885 106.745 108.982C104.404 110.096 102.127 110.337 99.7187 109.383C99.3635 109.242 98.9293 109.046 98.5937 109.154C95.2149 110.301 93.0676 108.216 91.0348 106.106C87.7902 102.718 84.6048 99.2611 81.5615 95.6802C79.2563 92.9613 77.1722 90.042 75.1196 87.1227C74.6144 86.4009 74.6144 85.3182 74.3815 84.3998L73.8881 84.4359Z" fill="#121212"/>
</g>
<defs>
<clipPath id="clip0_396_732">
<rect width="143" height="110" fill="white"/>
</clipPath>
</defs>
</svg>
