<?xml version="1.0" encoding="utf-8"?>
<!-- Generator: Adobe Illustrator 26.2.1, SVG Export Plug-In . SVG Version: 6.00 Build 0)  -->
<svg version="1.1" id="图层_1" xmlns="http://www.w3.org/2000/svg" xmlns:xlink="http://www.w3.org/1999/xlink" x="0px" y="0px"
	 viewBox="0 0 1920 375.3" style="enable-background:new 0 0 1920 375.3;" xml:space="preserve">
<style type="text/css">
	.st0{fill:url(#SVGID_1_);}
</style>
<linearGradient id="SVGID_1_" gradientUnits="userSpaceOnUse" x1="954.46" y1="241.5166" x2="954.46" y2="-201.0426" gradientTransform="matrix(1 0 0 -1 0 267.89)">
	<stop  offset="0.6771" style="stop-color:#A597FF"/>
	<stop  offset="1" style="stop-color:#57118E"/>
</linearGradient>
<path class="st0" d="M1922.1,8.9c-53.3,1.9-105.8,21.2-158.5,25c-120.5,8.6-241-3.8-362-3.1c-146.6,0.8-293.3-6.2-439.9-6.2
	c-82.1,0-164.1,0-246.2,0C602.1,25,489.2-0.8,375.5,0c-75,0.6-148.2,21.5-223.3,7.6C119.4,1.6,84.9,5,52,9.4
	c-30.9,4.3-62.7,14.7-92.5,17.3h-0.9h-0.8c-3,0.4-5.9,0.9-8.8,1.7v477.9h2010.9V172.8c0-25.5,0-51.1,0-76.6
	c0-13.2-9.4-86.5-9.1-86.5C1941.2,8.8,1931.7,8.5,1922.1,8.9z"/>
</svg>
