<?xml version="1.0" encoding="utf-8"?>
<!-- Generator: Adobe Illustrator 26.3.1, SVG Export Plug-In . SVG Version: 6.00 Build 0)  -->
<svg version="1.1" id="圖層_1" xmlns="http://www.w3.org/2000/svg" xmlns:xlink="http://www.w3.org/1999/xlink" x="0px" y="0px"
	 viewBox="0 0 196 14" style="enable-background:new 0 0 196 14;" xml:space="preserve">
<style type="text/css">
	.st0{clip-path:url(#SVGID_00000103229031677853452790000000336574740727231167_);}
	.st1{fill:#121212;}
</style>
<g>
	<defs>
		<rect id="SVGID_1_" width="196" height="13.6"/>
	</defs>
	<clipPath id="SVGID_00000093171967369671929990000010505725217336942491_">
		<use xlink:href="#SVGID_1_"  style="overflow:visible;"/>
	</clipPath>
	<g style="clip-path:url(#SVGID_00000093171967369671929990000010505725217336942491_);">
		<path class="st1" d="M79.1,4.2c-0.9-0.5-2.3-0.3-3.7-0.3c-2,0.1-4-0.1-6-0.5c-0.9-0.2-1.8-0.5-2.6-1c-0.6-0.4-2.1-1.3-2.1-1.3
			c0.1,1,0.4,2,0.8,3c0.3,0.9,0.9,1.8,1.7,2.3c1,0.5,2.1,0.6,3.1,0.4c1.4-0.1,2.7-0.9,4-1c0.3,0,0.6,0,0.8,0.1
			c0.3,0.1,0.5,0.3,0.7,0.5C76,6.8,76,8.2,75.5,8.3c-2.1,0.3-4.1-0.5-6.1-0.6s-3.3,0.8-4.3,2.6c-0.4,1.1-0.6,2.2-0.5,3.4
			c0,0,1.5-1.1,1.5-1.2c0.6-0.5,1.3-1,2.1-1.2c3.2-1.3,8.8,0.1,11.3-1.7C81.1,8.5,80.5,5,79.1,4.2z M70.2,5.6
			c-0.8-0.1-1.6-0.4-2.3-0.8c-0.6-0.4-1.1-1-1.4-1.6c2.7,1.2,5.6,1.7,8.5,1.7C73.5,5.7,71.8,5.9,70.2,5.6z M66.1,11.1
			c0.3-0.6,0.7-1.2,1.3-1.7c1.3-0.7,2.8-0.9,4.2-0.6c0.6,0.1,1.3,0.2,1.9,0.4c0.2,0.1,0.7,0.6,0.8,0.6C71.1,9.6,68.7,10.5,66.1,11.1
			z M78.7,8.3c-0.1,0.2-1.6,1.2-1.6,0.7c-0.2-1.1,1.3-2.1,0.1-3.6C78.7,5.7,79.5,7,78.7,8.3z"/>
		<path class="st1" d="M62.8,5.1c-0.5,0-0.9,0.1-1.3,0.4c-0.4,0.3-0.7,0.6-0.9,1.1C60.4,7,60.4,7.5,60.5,8c0.1,0.5,0.3,0.9,0.7,1.2
			c0.3,0.3,0.8,0.6,1.2,0.7c0.5,0.1,0.9,0,1.4-0.1c0.4-0.2,0.8-0.5,1.1-0.9c0.3-0.4,0.4-0.9,0.4-1.3c0-0.6-0.3-1.2-0.7-1.7
			S63.5,5.1,62.8,5.1z"/>
		<path class="st1" d="M83.8,4.9c-0.5,0-1,0.2-1.5,0.4c-0.4,0.3-0.8,0.7-1,1.2s-0.3,1-0.2,1.5c0.1,0.5,0.4,1,0.7,1.4
			s0.8,0.6,1.4,0.7c0.5,0.1,1,0,1.5-0.2c0.5-0.2,0.9-0.5,1.2-1s0.4-1,0.4-1.5c0-0.7-0.3-1.4-0.8-1.9S84.5,4.9,83.8,4.9z"/>
		<path class="st1" d="M58,6.1c0,0-58,0.5-58,1.3s58,1.3,58,1.3c0.2-0.2,0.3-0.4,0.3-0.6c0.1-0.2,0.1-0.5,0.1-0.7
			C58.4,6.4,58,6.1,58,6.1z"/>
		<path class="st1" d="M138,8.7c0,0,58-0.5,58-1.3c0-0.8-58-1.3-58-1.3s-0.4,0.3-0.4,1.3c0,0.2,0,0.5,0.1,0.7
			C137.7,8.4,137.8,8.6,138,8.7z"/>
		<path class="st1" d="M116.5,9.6c2.6,1.8,8.1,0.4,11.3,1.6c0.8,0.3,1.5,0.7,2.1,1.2c0.1,0.1,1.5,1.2,1.5,1.2
			c0.1-1.1-0.1-2.3-0.5-3.4c-1-1.8-2.1-2.8-4.3-2.6c-2.2,0.1-4,1-6.1,0.7c-0.5-0.1-0.5-1.5-0.3-1.8c0.2-0.2,0.4-0.4,0.7-0.5
			c0.3-0.1,0.5-0.1,0.8-0.1c1.4,0.1,2.7,0.9,4,1c1.1,0.2,2.2,0,3.2-0.4c0.8-0.6,1.4-1.4,1.7-2.4c0.4-1,0.6-2,0.8-3
			c0,0-1.6,0.9-2.1,1.3c-0.8,0.5-1.7,0.8-2.6,1c-2,0.4-4,0.6-6,0.5c-1.3,0-2.7-0.2-3.7,0.3C115.5,5,114.9,8.5,116.5,9.6z M121,4.9
			c2.9,0,5.9-0.6,8.6-1.7c-0.3,0.6-0.8,1.2-1.4,1.6c-0.7,0.4-1.5,0.7-2.3,0.8C124.2,5.9,122.5,5.7,121,4.9z M121.7,9.9
			c0.2,0,0.6-0.5,0.8-0.6c0.6-0.2,1.2-0.3,1.9-0.4c1.4-0.3,2.9-0.1,4.2,0.6c0.5,0.5,1,1,1.3,1.7C127.3,10.5,125,9.6,121.7,9.9
			L121.7,9.9z M118.9,5.5c-1.2,1.4,0.2,2.4,0.1,3.6c-0.1,0.5-1.5-0.5-1.6-0.7C116.5,7,117.3,5.7,118.9,5.5L118.9,5.5z"/>
		<path class="st1" d="M133.2,5.1c0.5,0,0.9,0.1,1.3,0.4c0.4,0.3,0.7,0.6,0.9,1.1c0.2,0.4,0.2,0.9,0.1,1.4c-0.1,0.5-0.3,0.9-0.7,1.2
			c-0.3,0.3-0.8,0.6-1.2,0.7c-0.5,0.1-0.9,0-1.4-0.1c-0.4-0.2-0.8-0.5-1.1-0.9c-0.3-0.4-0.4-0.9-0.4-1.3c0-0.6,0.3-1.2,0.7-1.7
			S132.5,5.1,133.2,5.1z"/>
		<path class="st1" d="M112.2,4.9c0.5,0,1,0.2,1.5,0.4c0.4,0.3,0.8,0.7,1,1.2c0.2,0.5,0.3,1,0.2,1.5c-0.1,0.5-0.4,1-0.7,1.4
			s-0.8,0.6-1.4,0.7c-0.5,0.1-1,0-1.5-0.2c-0.5-0.2-0.9-0.5-1.2-1c-0.3-0.4-0.4-1-0.4-1.5c0-0.7,0.3-1.4,0.8-1.9
			S111.5,4.9,112.2,4.9z"/>
		<path class="st1" d="M108.1,7.7c-0.9-1.1-4.4-3.3-5.3-2.8c-1.1,0.6-2.2,1.1-3.4,1.5c-0.2-1.4,2.1-2.6,2-3.7c0-0.7-2.9-2.4-3.5-2.7
			c-0.6,0.3-3.4,2-3.5,2.7c-0.1,1.2,2.2,2.3,2,3.7c-1.2-0.4-2.3-1-3.4-1.5c-0.9-0.5-4.4,1.7-5.3,2.8c1.5,0.7,2.9,1.4,4.4,2.1
			c1.3-1,2.8-1.8,4.5-2.2c-0.6,1.5-1.6,2.3-1.6,3s1.6,2,2.8,2.9c1.3-0.9,2.8-2.4,2.8-2.9s-1-1.5-1.6-3c1.6,0.4,3.2,1.2,4.5,2.2
			C105.2,9.1,106.6,8.3,108.1,7.7z"/>
	</g>
</g>
</svg>
