<svg width="37" height="13" viewBox="0 0 37 13" fill="none" xmlns="http://www.w3.org/2000/svg">
<path d="M2.55997 5.93997C4.34997 5.86997 14.07 5.84997 11.68 1.93997C11.99 2.43997 10.42 3.17997 9.45998 2.38997C8.28998 1.38997 9.45998 -0.140026 10.86 -0.0300263C12.59 0.139974 13 1.81997 13 3.21997C12.95 4.44997 11.91 5.74997 11.21 5.45997C13.5919 5.92514 16.0449 5.88425 18.41 5.33997C20.3 4.99997 22.19 3.59997 24.16 3.65997C25.08 3.65997 26.24 4.43997 27.16 4.65997C28.3088 4.95944 29.4789 5.17007 30.66 5.28997C31.92 5.39997 33.19 5.43997 34.44 5.64997C34.57 5.64997 37.95 6.06997 36.07 6.74997C35.35 6.99997 31.14 7.31997 30.07 7.61997C28.23 8.12997 25.89 9.42997 23.97 9.29997C22.05 9.16997 20.2 8.19997 18.46 7.74997C16.1969 7.04709 13.8255 6.75913 11.46 6.89997C12.0693 7.13991 12.5891 7.56323 12.9474 8.11141C13.3057 8.6596 13.4848 9.30556 13.46 9.95997C13.4788 10.3005 13.43 10.6414 13.3163 10.9629C13.2025 11.2844 13.0262 11.5802 12.7974 11.8332C12.5687 12.0861 12.292 12.2912 11.9835 12.4365C11.675 12.5819 11.3407 12.6646 11 12.68C9.73997 12.68 8.36998 11.32 9.22997 10.13C10.23 8.70997 12.16 10.13 11.96 10.38C13.4 8.18997 9.36998 6.64997 7.99998 6.66997C6.07998 6.66997 1.61997 7.41997 0.0799748 6.49997C-0.530025 6.11997 1.75997 5.99997 2.55997 5.93997Z" fill="#FFECC6"/>
</svg>
