<svg width="196" height="14" viewBox="0 0 196 14" fill="none" xmlns="http://www.w3.org/2000/svg">
<g clip-path="url(#clip0_386_2070)">
<path d="M79.07 4.21992C78.15 3.76992 76.75 3.94992 75.42 3.92992C73.4084 4.01074 71.3944 3.85297 69.42 3.45992C68.5168 3.27171 67.6515 2.93371 66.86 2.45992C66.29 2.02992 64.72 1.16992 64.72 1.16992C64.8685 2.19668 65.1336 3.20317 65.51 4.16992C65.8267 5.11217 66.4276 5.93314 67.23 6.51992C68.2074 6.99461 69.3098 7.14859 70.38 6.95992C71.77 6.81992 73.05 6.06992 74.38 5.95992C74.6513 5.90998 74.9311 5.93582 75.1887 6.03462C75.4463 6.13342 75.6716 6.30134 75.84 6.51992C76.04 6.83992 76.02 8.22992 75.52 8.31992C73.43 8.65992 71.44 7.78992 69.39 7.66992C67.34 7.54992 66.09 8.47992 65.07 10.3099C64.6786 11.3917 64.5086 12.5411 64.57 13.6899C64.57 13.6899 66.06 12.5599 66.11 12.5099C66.7242 11.9657 67.4418 11.5508 68.22 11.2899C71.44 9.99992 77 11.3699 79.54 9.59992C81.14 8.50992 80.54 4.99992 79.07 4.21992ZM70.18 5.55992C69.362 5.46517 68.5723 5.20307 67.86 4.78992C67.2829 4.3562 66.8055 3.80378 66.46 3.16992C69.1556 4.33247 72.0645 4.91835 75 4.88992C73.5251 5.68251 71.8151 5.92022 70.18 5.55992ZM66.11 11.1299C66.4077 10.4882 66.845 9.92103 67.39 9.46992C68.7042 8.81334 70.2005 8.61617 71.64 8.90992C72.2755 9.0021 72.9037 9.1391 73.52 9.31992C73.73 9.40992 74.19 9.86992 74.36 9.88992C71.05 9.57992 68.73 10.4999 66.11 11.1299ZM78.68 8.32992C78.57 8.52992 77.12 9.53992 77.05 9.01992C76.89 7.89992 78.31 6.87992 77.14 5.46992C78.65 5.67992 79.51 6.99992 78.68 8.32992Z" fill="#EFE2B9"/>
<path d="M62.83 5.13991C62.3585 5.13794 61.897 5.27609 61.504 5.53685C61.1111 5.7976 60.8045 6.1692 60.6231 6.6045C60.4418 7.03979 60.3938 7.51916 60.4853 7.98176C60.5768 8.44437 60.8037 8.86936 61.1372 9.20281C61.4706 9.53626 61.8956 9.76313 62.3582 9.85465C62.8208 9.94616 63.3002 9.89819 63.7355 9.71681C64.1708 9.53544 64.5424 9.22884 64.8031 8.83592C65.0639 8.443 65.202 7.98148 65.2 7.50991C65.1974 6.88216 64.9469 6.28087 64.503 5.83698C64.0591 5.39309 63.4578 5.14255 62.83 5.13991Z" fill="#EFE2B9"/>
<path d="M83.85 4.86989C83.3251 4.86791 82.8113 5.0219 82.374 5.31233C81.9367 5.60275 81.5955 6.01652 81.3937 6.50115C81.1919 6.98578 81.1386 7.51944 81.2405 8.03442C81.3424 8.54939 81.595 9.0225 81.9662 9.39371C82.3374 9.76492 82.8105 10.0175 83.3255 10.1194C83.8405 10.2214 84.3742 10.168 84.8588 9.96624C85.3434 9.76443 85.7572 9.42322 86.0476 8.9859C86.338 8.54858 86.492 8.03486 86.49 7.50989C86.4874 6.81053 86.2084 6.14057 85.7139 5.64604C85.2194 5.15151 84.5494 4.87253 83.85 4.86989Z" fill="#EFE2B9"/>
<path d="M58 6.11011C58 6.11011 0 6.64011 0 7.42011C0 8.20011 58 8.74011 58 8.74011C58.1557 8.56058 58.2719 8.35022 58.3408 8.12277C58.4097 7.89532 58.4299 7.65589 58.4 7.42011C58.4 6.42011 58 6.11011 58 6.11011Z" fill="#EFE2B9"/>
<path d="M138 8.74011C138 8.74011 196 8.21011 196 7.42011C196 6.63011 138 6.11011 138 6.11011C138 6.11011 137.6 6.42011 137.6 7.42011C137.57 7.65589 137.59 7.89532 137.659 8.12277C137.728 8.35022 137.844 8.56058 138 8.74011Z" fill="#EFE2B9"/>
<path d="M116.46 9.60011C119.05 11.3701 124.56 9.99011 127.78 11.2301C128.558 11.4909 129.276 11.9059 129.89 12.4501C129.94 12.5001 131.43 13.6301 131.43 13.6301C131.491 12.4813 131.321 11.3319 130.93 10.2501C129.93 8.42011 128.8 7.48011 126.61 7.61011C124.42 7.74011 122.61 8.61011 120.49 8.26011C119.98 8.17011 119.96 6.78011 120.16 6.46011C120.328 6.24153 120.554 6.07361 120.811 5.97481C121.069 5.87601 121.349 5.85016 121.62 5.90011C123 6.02011 124.29 6.77011 125.62 6.90011C126.69 7.08878 127.793 6.93479 128.77 6.46011C129.572 5.87332 130.173 5.05235 130.49 4.11011C130.866 3.14335 131.131 2.13686 131.28 1.11011C131.28 1.11011 129.71 1.97011 129.14 2.40011C128.348 2.87389 127.483 3.21189 126.58 3.40011C124.606 3.79316 122.592 3.95093 120.58 3.87011C119.25 3.87011 117.85 3.71011 116.93 4.16011C115.46 5.00011 114.86 8.51011 116.46 9.60011ZM121 4.89011C123.949 4.92413 126.872 4.33814 129.58 3.17011C129.235 3.80397 128.757 4.35638 128.18 4.79011C127.471 5.20196 126.685 5.46402 125.87 5.56011C124.219 5.93287 122.489 5.69485 121 4.89011ZM121.68 9.89011C121.85 9.89011 122.31 9.41011 122.52 9.32011C123.136 9.1403 123.765 9.00331 124.4 8.91011C125.839 8.61636 127.336 8.81353 128.65 9.47011C129.195 9.92122 129.632 10.4884 129.93 11.1301C127.27 10.5001 125 9.58011 121.64 9.89011H121.68ZM118.9 5.47011C117.73 6.88011 119.15 7.90011 118.99 9.02011C118.92 9.54011 117.47 8.53011 117.36 8.33011C116.49 7.00011 117.35 5.68011 118.86 5.47011H118.9Z" fill="#EFE2B9"/>
<path d="M133.17 5.13991C133.642 5.13794 134.103 5.27609 134.496 5.53685C134.889 5.7976 135.196 6.1692 135.377 6.6045C135.558 7.03979 135.606 7.51916 135.515 7.98176C135.423 8.44437 135.196 8.86936 134.863 9.20281C134.53 9.53626 134.105 9.76313 133.642 9.85465C133.179 9.94616 132.7 9.89819 132.265 9.71681C131.829 9.53544 131.458 9.22884 131.197 8.83592C130.936 8.443 130.798 7.98148 130.8 7.50991C130.803 6.88216 131.053 6.28087 131.497 5.83698C131.941 5.39309 132.542 5.14255 133.17 5.13991Z" fill="#EFE2B9"/>
<path d="M112.16 4.86989C112.685 4.86791 113.199 5.0219 113.636 5.31233C114.073 5.60275 114.415 6.01652 114.616 6.50115C114.818 6.98578 114.872 7.51944 114.77 8.03442C114.668 8.54939 114.415 9.0225 114.044 9.39371C113.673 9.76492 113.2 10.0175 112.685 10.1194C112.17 10.2214 111.636 10.168 111.151 9.96624C110.667 9.76443 110.253 9.42322 109.962 8.9859C109.672 8.54858 109.518 8.03486 109.52 7.50989C109.52 6.80972 109.798 6.13823 110.293 5.64313C110.788 5.14803 111.46 4.86989 112.16 4.86989Z" fill="#EFE2B9"/>
<path d="M108.13 7.68C107.23 6.59 103.74 4.4 102.85 4.89C101.762 5.47087 100.64 5.98515 99.49 6.43C99.32 5 101.6 3.87 101.49 2.69C101.45 2 98.57 0.34 98 0C97.43 0.34 94.55 2 94.5 2.69C94.4 3.87 96.68 5 96.5 6.43C95.3498 5.98515 94.2278 5.47087 93.14 4.89C92.25 4.4 88.76 6.59 87.86 7.68C89.39 8.33 90.81 9.08 92.28 9.79C93.6034 8.74323 95.1285 7.98068 96.76 7.55C96.21 9.04 95.13 9.89 95.17 10.55C95.21 11.21 96.73 12.55 97.99 13.49C99.25 12.55 100.78 11.05 100.81 10.55C100.84 10.05 99.81 9.09 99.22 7.6C100.851 8.03068 102.377 8.79323 103.7 9.84C105.18 9.08 106.6 8.33 108.13 7.68Z" fill="#EFE2B9"/>
</g>
<defs>
<clipPath id="clip0_386_2070">
<rect width="196" height="13.63" fill="white"/>
</clipPath>
</defs>
</svg>
