<?xml version="1.0" encoding="utf-8"?>
<!-- Generator: Adobe Illustrator 26.2.1, SVG Export Plug-In . SVG Version: 6.00 Build 0)  -->
<svg version="1.1" id="图层_1" xmlns="http://www.w3.org/2000/svg" xmlns:xlink="http://www.w3.org/1999/xlink" x="0px" y="0px"
	 viewBox="0 0 555 1068" style="enable-background:new 0 0 555 1068;" xml:space="preserve">
<style type="text/css">
	.st0{fill:#121212;}
	.st1{fill:#121212;stroke:#F3E6BC;stroke-width:2;}
</style>
<path class="st0" d="M29.6,0C28,7.2,24.3,13.9,19.1,19.1C13.8,24.3,7.2,28,0,29.6l1.1,1008.7c7.2,1.6,13.9,5.3,19.1,10.5
	c5.2,5.3,8.9,11.9,10.5,19.1h494.8c1.6-7.2,5.2-13.9,10.5-19.1c5.2-5.2,11.9-8.9,19.1-10.5L553.9,29.6c-7.2-1.6-13.9-5.3-19.1-10.5
	c-5.2-5.2-8.9-11.9-10.5-19.1L29.6,0z"/>
<path class="st1" d="M47.3,35.3C45.8,42,42.5,48.1,37.6,53c-4.8,4.9-11,8.2-17.7,9.7l1,936c6.7,1.5,12.8,4.9,17.7,9.8
	c4.8,4.9,8.2,11,9.7,17.8h458.2c1.5-6.7,4.9-12.9,9.7-17.7c4.8-4.9,11-8.2,17.7-9.7l-1-936.1c-6.7-1.5-12.8-4.9-17.7-9.7
	c-4.8-4.9-8.2-11-9.7-17.7L47.3,35.3z"/>
</svg>
