<svg width="200" height="71" viewBox="0 0 200 71" fill="none" xmlns="http://www.w3.org/2000/svg">
<g clip-path="url(#clip0_386_2060)">
<path fill-rule="evenodd" clip-rule="evenodd" d="M87.7691 24.1741C87.4471 22.1246 83.2846 24.5217 82.6287 25.1449C80.8237 26.9772 79.7538 29.4135 79.6231 31.9884C79.2773 37.8851 83.8333 42.9908 88.771 45.4597C99.1711 50.6733 115.702 47.4612 119.53 35.1645C119.995 33.8668 120.162 32.4805 120.019 31.1089C119.877 29.7373 119.428 28.4156 118.707 27.2423C118.069 26.1531 117.161 25.2488 116.071 24.6175C115.475 24.3059 114.187 23.9224 113.686 24.6175C113.436 25.0131 113.758 25.3007 113.901 25.6603C114 25.8981 114.044 26.1555 114.029 26.413C114.015 26.6705 113.942 26.9212 113.817 27.1464C113.644 27.4744 113.402 27.7605 113.107 27.9847C112.813 28.2089 112.473 28.3658 112.112 28.4446C111.751 28.5233 111.377 28.5219 111.016 28.4406C110.656 28.3592 110.317 28.1997 110.024 27.9734C107.878 26.3913 109.082 23.3471 111.217 22.676C117.181 20.8542 123.883 25.9719 128.678 28.6685C135.178 32.2641 141.463 36.2072 147.761 40.1982C158.495 47.0657 173.141 54.2928 186.081 49.4628C190.912 47.665 196.816 43.3024 197.615 37.8132C197.972 35.4162 197.376 32.0963 195.229 30.6221C193.679 29.5554 190.208 29.3037 188.98 31.0536C188.431 31.8446 189.051 32.7794 188.682 33.6064C188.169 34.8049 186.869 33.5465 186.463 33.0311C186.06 32.5596 185.764 32.0056 185.596 31.4076C185.428 30.8096 185.391 30.1819 185.489 29.5682C185.587 28.9546 185.816 28.3696 186.161 27.8541C186.507 27.3386 186.96 26.9049 187.489 26.5831C192.057 23.5029 198.128 26.4872 199.559 31.509C200.99 36.5308 198.366 41.8042 195.11 45.4238C191.581 49.0419 186.976 51.4064 181.991 52.1594C178.778 52.7457 175.506 52.9388 172.246 52.7347C170.369 52.6216 168.507 52.3205 166.689 51.8358C164.935 51.3684 162.299 50.9729 160.833 49.8583C161.238 50.1699 163.874 57.2411 163.874 57.2411C163.874 57.2411 154.118 54.0051 148.846 49.3189C145.852 46.6582 142.787 43.6619 140.271 40.9293C140.798 43.0822 141.149 45.2748 141.32 47.4852C139.865 47.4852 137.742 44.6927 136.764 43.7578C134.939 41.8736 133.238 39.8719 131.672 37.7653C128.274 33.6113 124.488 29.7945 120.365 26.3674C121.748 27.5659 121.784 30.8618 121.701 32.5757C121.464 35.8652 120.166 38.9874 118.003 41.4687C113.376 46.7421 106.924 49.1392 100.054 49.4987C96.6072 49.6497 93.1704 49.0291 89.9918 47.6818C86.8132 46.3345 83.9723 44.2941 81.6745 41.7084C79.8775 39.5187 78.6811 36.8952 78.2038 34.0978C77.7387 30.9217 79.1699 28.3809 80.1956 25.4925C75.6992 26.0558 71.6918 31.4251 69.378 34.9248C67.8991 37.142 66.4321 39.3952 64.7743 41.4926C63.5816 43.0387 61.8403 45.6994 59.8724 46.3586C59.5862 44.3211 60.3495 42.2477 60.5284 40.2222C59.2045 40.5338 57.6302 42.3795 56.6999 43.3264C51.6668 48.42 45.8942 54.113 39.4418 57.4568C39.7418 55.0402 40.2649 52.6569 41.0043 50.3377C34.2537 52.9145 28.0518 55.0359 20.7287 54.7122C14.0378 54.4246 7.6093 51.8478 3.54227 46.3226C0.155068 41.8522 -1.68166 34.0259 2.11106 29.2798C3.74502 27.2423 6.13038 25.6842 8.82583 26.1516C11.2112 26.5951 13.68 28.6565 13.5369 31.3292C13.5369 32.2041 13.0956 33.6424 11.9983 33.6543C11.0919 33.6543 10.5433 32.5397 10.0543 31.9525C8.34876 29.867 4.77073 32.2281 3.57805 33.8341C0.0596533 38.2566 3.49456 45.5436 7.15608 48.492C17.4727 56.8816 31.7014 51.9677 42.018 46.3826C54.5769 39.551 65.5972 30.1427 78.4662 24.0782C81.4837 22.664 91.2398 19.4639 91.9554 25.2168C92.1026 26.0392 91.9226 26.8868 91.4542 27.5772C90.9858 28.2675 90.2664 28.7455 89.4508 28.9082C88.8644 28.9913 88.267 28.8822 87.7471 28.5973C87.2272 28.3123 86.8125 27.8666 86.5645 27.3262C86.3978 27.0541 86.3095 26.7408 86.3095 26.4213C86.3095 26.1018 86.3978 25.7885 86.5645 25.5164C86.9342 25.073 87.8645 24.7734 87.7691 24.1741Z" fill="#EBDFB6"/>
<path fill-rule="evenodd" clip-rule="evenodd" d="M101.222 25.8401C100.912 24.9292 100.71 24.5337 100.03 24.5337C99.35 24.5337 98.9922 25.2408 98.7298 25.912C98.4674 26.5832 93.5655 39.9586 91.204 42.7631C91.5618 42.8829 91.7884 43.0388 92.17 42.8949C95.1637 41.7923 98.8371 33.3068 98.8371 33.3068C98.8371 33.3068 98.7178 42.4755 99.4931 45.4118C99.6362 45.9631 99.8151 45.9991 100.03 45.9991C100.244 45.9991 100.435 45.9991 100.578 45.3998C101.354 42.4635 101.222 33.4147 101.222 33.4147C101.222 33.4147 104.944 41.8043 107.842 43.0028C108.259 43.1706 108.486 43.0028 108.856 42.7871C106.148 39.9226 101.604 26.9187 101.222 25.8401Z" fill="#EBDFB6"/>
<path fill-rule="evenodd" clip-rule="evenodd" d="M70.7734 48.7437C71.1551 48.2283 70.0221 47.5452 69.6881 47.4852C69.0953 47.3179 68.4681 47.3179 67.8752 47.4852C66.6455 47.8214 65.5884 48.6138 64.9174 49.7025C64.529 50.4697 64.3143 51.3137 64.2886 52.1741C64.263 53.0345 64.427 53.8899 64.7689 54.6791C65.1109 55.4683 65.6223 56.1718 66.2666 56.739C66.9108 57.3063 67.672 57.7233 68.4954 57.9603C73.8267 59.818 79.1222 56.6659 82.891 53.0943C84.0002 52.0396 84.9782 50.877 86.0039 49.7385C86.3617 49.3429 86.7315 48.9355 87.125 48.5399C87.5186 48.1444 87.5544 48.0246 87.9241 48.0845C88.7709 48.2163 88.3297 48.8995 88.0553 49.283C87.781 49.6665 87.292 50.3737 86.8627 50.901C86.0571 51.9701 85.1805 52.9831 84.2388 53.9333C80.7919 57.4209 74.912 60.8127 69.8551 60.4532C68.3949 60.369 66.9795 59.9155 65.7403 59.1348C63.2238 57.2891 61.4825 54.3408 62.2339 51.1887C63.4266 46.1789 70.5826 42.7991 73.3019 48.6718C74.4111 51.0688 72.2881 54.3887 69.545 53.5617C69.0001 53.3543 68.5323 52.9827 68.2057 52.4978C67.879 52.013 67.7094 51.4385 67.7202 50.8531C67.7083 50.4954 67.8014 50.1421 67.9881 49.8373C68.1748 49.5325 68.4466 49.2897 68.7697 49.1392C69.0916 48.9909 69.433 48.89 69.7835 48.8396C69.9624 48.8396 70.6661 48.8755 70.7734 48.7437Z" fill="#EBDFB6"/>
<path fill-rule="evenodd" clip-rule="evenodd" d="M129.227 48.7437C128.845 48.2283 129.978 47.5452 130.3 47.4852C130.893 47.3173 131.52 47.3173 132.113 47.4852C133.346 47.8208 134.407 48.613 135.083 49.7025C135.471 50.4697 135.686 51.3137 135.711 52.1741C135.737 53.0345 135.573 53.8899 135.231 54.6791C134.889 55.4683 134.378 56.1718 133.733 56.739C133.089 57.3063 132.328 57.7233 131.505 57.9603C126.173 59.818 120.878 56.6659 117.097 53.0943C115.988 52.0396 115.022 50.877 113.996 49.7385C113.626 49.3429 113.257 48.9355 112.875 48.5399C112.493 48.1444 112.446 48.0246 112.076 48.0845C111.229 48.2163 111.67 48.8995 111.945 49.283C112.219 49.6665 112.696 50.3737 113.137 50.901C113.939 51.9699 114.811 52.983 115.749 53.9333C119.208 57.4209 125.088 60.8127 130.145 60.4532C131.601 60.3691 133.013 59.9155 134.248 59.1348C136.776 57.2891 138.506 54.3408 137.826 51.1887C136.633 46.1789 129.477 42.7991 126.758 48.6718C125.649 51.0688 127.772 54.3887 130.515 53.5617C131.058 53.3538 131.525 52.9818 131.849 52.4967C132.174 52.0117 132.341 51.4375 132.328 50.8531C132.336 50.4852 132.232 50.1236 132.029 49.8171C131.827 49.5107 131.535 49.274 131.195 49.1392C130.872 48.9924 130.531 48.8916 130.181 48.8396C130.002 48.8396 129.334 48.8755 129.227 48.7437Z" fill="#EBDFB6"/>
<path fill-rule="evenodd" clip-rule="evenodd" d="M103.214 19.0805C103.217 19.721 103.03 20.3478 102.677 20.8815C102.325 21.4153 101.823 21.8319 101.235 22.0787C100.646 22.3254 99.9986 22.3912 99.3731 22.2677C98.7477 22.1442 98.1728 21.837 97.7212 21.3849C97.2697 20.9328 96.9618 20.3562 96.8366 19.7282C96.7113 19.1001 96.7744 18.4489 97.0178 17.8569C97.2612 17.2649 97.6739 16.7588 98.2037 16.4027C98.7335 16.0466 99.3566 15.8565 99.994 15.8565C100.416 15.8549 100.835 15.9371 101.225 16.0984C101.616 16.2597 101.971 16.497 102.27 16.7965C102.57 17.096 102.807 17.452 102.969 17.8439C103.131 18.2359 103.214 18.6561 103.214 19.0805Z" fill="#EBDFB6"/>
<path fill-rule="evenodd" clip-rule="evenodd" d="M112.756 69.0344C112.016 65.9183 109.726 63.5212 107.663 61.3399C105.328 59.0586 103.361 56.4264 101.831 53.5376C101.378 52.7346 101.103 51.5361 99.994 51.2964C98.8848 51.5001 98.5748 52.6747 98.1573 53.5376C96.6317 56.426 94.6681 59.0583 92.3371 61.3399C90.2379 63.5212 87.9719 65.9183 87.2443 69.0344C87.1728 69.2275 87.1426 69.4335 87.1559 69.6391C87.1691 69.8447 87.2254 70.0452 87.3212 70.2274C87.4169 70.4096 87.5498 70.5694 87.7113 70.6963C87.8728 70.8233 88.0591 70.9145 88.2581 70.964C90.2737 71.4075 92.5756 67.9198 93.5536 66.5655C95.0444 64.504 96.249 62.2508 97.6325 60.1175C98.2408 59.1826 98.7059 58.1639 100.018 58.1639C101.33 58.1639 101.747 59.1826 102.403 60.1175C103.763 62.2508 104.956 64.504 106.423 66.5655C107.401 67.9198 109.702 71.3595 111.718 70.964C111.918 70.9155 112.106 70.8253 112.269 70.6991C112.432 70.573 112.567 70.4137 112.665 70.2317C112.763 70.0497 112.822 69.849 112.837 69.6427C112.853 69.4365 112.825 69.2292 112.756 69.0344Z" fill="#EBDFB6"/>
<path fill-rule="evenodd" clip-rule="evenodd" d="M91.2278 0.347525C90.8654 0.13337 90.4553 0.0138761 90.0351 -4.3837e-05C89.5685 -0.00573325 89.1084 0.109867 88.6993 0.33554C88.2502 0.627058 87.9079 1.05785 87.7245 1.56255C87.5411 2.06725 87.5265 2.6183 87.683 3.13207C87.8395 3.64584 88.1585 4.0943 88.5916 4.40937C89.0247 4.72445 89.5483 4.88895 90.0828 4.87791C85.664 11.4435 78.9133 16.0617 71.2147 17.7859C64.4045 19.4878 60.3017 14.3821 57.2484 19.332C58.942 20.2189 62.21 20.2668 62.1384 22.7238C62.1384 24.4616 59.2879 26.0676 58.0237 26.7508C55.9723 27.8534 53.086 28.8842 50.7603 28.1291C46.0969 26.607 47.5878 19.308 51.3685 21.8728C51.2135 21.765 49.663 24.0661 51.3685 24.7613C52.3823 25.1688 53.9566 23.9702 54.3264 23.1073C54.6555 22.1839 54.6663 21.1762 54.357 20.2459C54.0477 19.3156 53.4362 18.5168 52.6209 17.9777C45.3217 13.9027 40.4078 27.2062 46.4309 31.401C53.4319 36.267 62.5559 31.4849 72.312 25.0609C76.379 22.3762 90.2021 12.4405 92.826 3.87116C92.9675 3.18936 92.8888 2.47999 92.6013 1.84625C92.3139 1.21251 91.8327 0.687469 91.2278 0.347525Z" fill="#EBDFB6"/>
<path fill-rule="evenodd" clip-rule="evenodd" d="M109.953 5.82257e-05C110.419 -0.00297386 110.879 0.112461 111.289 0.335642C111.739 0.627665 112.082 1.05955 112.265 1.56549C112.448 2.07143 112.462 2.62369 112.304 3.13815C112.146 3.6526 111.825 4.10104 111.389 4.41514C110.954 4.72924 110.429 4.89179 109.893 4.87801C114.325 11.4519 121.094 16.0708 128.809 17.786C135.619 19.4879 139.722 14.3942 142.751 19.3321C141.058 20.219 137.79 20.2669 137.85 22.7239C137.85 24.4617 140.712 26.0677 141.976 26.7509C144.028 27.8535 146.902 28.8843 149.24 28.1292C153.891 26.6071 152.412 19.3081 148.631 21.8729C148.786 21.7651 150.325 24.0662 148.631 24.7614C147.63 25.1689 146.043 23.9704 145.685 23.1074C145.351 22.1857 145.336 21.1775 145.643 20.2463C145.951 19.3151 146.563 18.5157 147.379 17.9778C154.654 13.8789 159.592 27.1824 153.557 31.3772C146.568 36.2431 137.432 31.4611 127.688 25.037C123.621 22.3524 109.798 12.4167 107.162 3.84729C107.03 3.16923 107.113 2.46654 107.4 1.83854C107.686 1.21054 108.162 0.688998 108.76 0.347627C109.123 0.135324 109.533 0.0159676 109.953 5.82257e-05Z" fill="#EBDFB6"/>
<path fill-rule="evenodd" clip-rule="evenodd" d="M97.6444 68.639C97.7638 68.7551 97.906 68.845 98.0619 68.9027C98.8967 69.2143 99.6601 68.3513 100.054 67.7042C100.376 68.4233 101.139 69.3941 101.926 69.0465C103.441 68.3633 102.713 66.4697 102.129 65.4509C101.831 64.9116 100.614 62.2869 99.9702 62.2869C99.3261 62.2869 98.1931 64.6 97.7995 65.6787C97.4059 66.7573 96.7022 67.836 97.6444 68.639Z" fill="#EBDFB6"/>
</g>
<defs>
<clipPath id="clip0_386_2060">
<rect width="200" height="71" fill="white"/>
</clipPath>
</defs>
</svg>
