<?xml version="1.0" encoding="utf-8"?>
<!-- Generator: Adobe Illustrator 26.2.1, SVG Export Plug-In . SVG Version: 6.00 Build 0)  -->
<svg version="1.1" id="图层_1" xmlns="http://www.w3.org/2000/svg" xmlns:xlink="http://www.w3.org/1999/xlink" x="0px" y="0px"
	 viewBox="0 0 123 132" style="enable-background:new 0 0 123 132;" xml:space="preserve">
<style type="text/css">
	.st0{fill:#121212;}
</style>
<path class="st0" d="M118.9,73.5c0-0.2-0.1-0.4-0.3-0.6c-0.1-0.2-0.3-0.3-0.5-0.4s-0.4-0.1-0.6-0.1h-21c-0.2,0-0.4,0-0.6,0.1
	c-0.2,0.1-0.3,0.2-0.5,0.4c-0.1,0.2-0.2,0.3-0.3,0.5c0,0.1,0,0.2,0,0.2c0,0.1,0,0.2,0,0.3l0.5,2.8l-4.1,1.7v-0.3
	c0-0.1-0.1-0.1-0.1-0.2c-0.1-0.1-0.1-0.1-0.2-0.1c-0.1,0-0.1-0.1-0.2-0.1c-0.1,0-0.2,0-0.2,0l0,0l-3.3-9.2l1.2-1l0.4-0.3l0.4-0.4
	l0.6-0.4l0.4-0.4l0.9-0.9l0.4-0.4l0.4-0.4l0.4-0.4v-0.1l0.3-0.4c0-0.1,0.2-0.3,0.3-0.4c0-0.1,0.2-0.3,0.3-0.4c0.3-0.3,0.5-0.6,0.8-1
	l0,0c0.1-0.1,0.1-0.3,0.2-0.4l0,0c0.1-0.1,0.1-0.3,0.1-0.4l0,0c0-0.1,0-0.3,0-0.4c0-0.1,0-0.2,0-0.3v-0.3c0-0.1,0-0.1,0-0.2
	c0-0.3-0.2-0.5-0.3-0.7c-0.5-0.6-1.6-1.2-5.5-1.3c-0.2-0.3-0.4-0.5-0.6-0.6c-0.3-0.2-0.6-0.2-0.9-0.2c-2.9,0.1-5.7,0.3-8.6,0.7
	c-0.4,0.1-0.8,0.3-1.1,0.6c-0.3,0.3-0.4,0.8-0.4,1.2c0,0.4,0.2,0.9,0.5,1.2c0.3,0.3,0.7,0.5,1.2,0.5h0.2c0,0,4.3-0.6,8.2-0.6
	c0.3,0,0.6-0.1,0.9-0.3c0.3-0.2,0.5-0.4,0.6-0.6c1.1,0,2.3,0.1,3.4,0.3h0.3l0.3,0.1c0,0.1-0.1,0.3-0.1,0.4v0.1c0,0.2,0,0.3,0,0.5
	c0,0.1-0.1,0.1-0.1,0.2l-0.2,0.3c0,0.1-0.1,0.1-0.1,0.2c-0.1,0.1-0.1,0.2-0.2,0.3c0,0.1-0.1,0.2-0.2,0.2l-0.2,0.3l-0.2,0.2l-0.2,0.3
	L91,63.1l-0.2,0.2l-0.3,0.3l-0.2,0.2c0,0-0.2,0.2-0.3,0.3l-0.2,0.2l-0.4,0.4L89.3,65l-0.4,0.4l-0.1,0.1l-0.5,0.4l-0.5,0.4l-0.5,0.4
	l-1.2,0.9c-0.1,0.1-0.2,0.3-0.3,0.5c-0.1,0.2,0,0.4,0,0.5l3.4,9.7c-0.1,0-0.1,0.1-0.2,0.1c-0.1,0.1-0.1,0.1-0.1,0.2
	c0,0.1-0.1,0.1-0.1,0.2c0,0.1,0,0.2,0,0.2l0.4,1.2l-20.2,23c-1.7,1.9-4,3.2-6.6,3.5l-5.8,0.7l-3.3-10.5l-4.5-13.4
	c-0.1-0.2-0.2-0.3-0.3-0.5l1.9-2.1c2.8-0.9,5.6-1.6,5.6-1.6h0.1c0,0,0.1,0,0.1,0l0,0c0.1-0.1,0.2-0.2,0.2-0.3l0,0c0,0,0,0,0-0.2
	c0-0.3-0.1-0.5-0.2-0.8c-0.1-0.2-0.3-0.4-0.5-0.6c-1.5-1.5-5.8,0.1-8.1,0.2s-4.7-2.5-8.1-1.9c-0.8,0.1-1.5,0.5-2.1,1.1
	c-0.6,0.6-0.9,1.3-1,2.1l0,0c-0.1,0.3-0.1,0.7-0.1,1c1.5-0.1,3,0.3,4.2,1.1l-1.5,0.7C39,82,39,82,39,82.1c0,0.1,0,0.1,0,0.2
	c0,0.1,0,0.1,0.1,0.2c0,0,0.1,0.1,0.2,0.1l2.4,0.1l-2.1,0.9c-0.1,0-0.1,0.1-0.1,0.1c0,0.1,0,0.1,0,0.2c0,0.1,0,0.1,0.1,0.2
	c0.1,0,0.1,0.1,0.2,0.1h3.9c0.1,0,0.1,0,0.2,0l0.7-0.5h2.1c-0.1,0.3-0.1,0.5,0,0.8l4.1,12.8l-0.7,0.5l-12.3-9.6h-0.2h-0.5l2.1-3.5
	c0-0.1,0-0.1,0-0.2c0-0.1-0.1-0.1-0.1-0.2c-0.1,0-0.2,0-0.2,0c-0.1,0-0.1,0.1-0.2,0.1l-2.1,3.6L9.2,87.2c-0.1,0-0.1,0.1-0.2,0.1
	C9,87.4,9,87.4,9,87.5c0,0.1,0,0.1,0.1,0.2c0,0.1,0.1,0.1,0.2,0.1h2.2L14,92c-1.2,0.6-2.4,1.3-3.5,2.1l0,0c-4.6,3-8.2,7.3-10.4,12.3
	c0,0,0,0.1,0,0.1c0,0,0,0.1,0.1,0.1c0,0,0.1,0.1,0.1,0.1c0,0,0.1,0,0.1,0l1.3-0.5c0.4-0.1,0.7-0.4,0.8-0.8c2.3-4.3,5.8-7.8,10-10.3
	l0.8-0.4l0.8-0.4c0.3-0.1,0.5-0.3,0.8-0.4l0,0H15l9.6,15.8l0.3,3.2c-1.2,0.2-2.2,0.9-2.9,1.8c-0.7,0.9-1.1,2.1-1,3.3
	c0.1,1.2,0.6,2.3,1.4,3.1c0.8,0.8,1.9,1.3,3.1,1.4l30.1,7.4c1.3,0.8,2.7,1.2,4.2,1.2c1.5,0,2.9-0.4,4.2-1.1c1.3-0.7,2.3-1.8,3-3.1
	c0.7-1.3,1.1-2.7,1.1-4.2c0-2-0.7-3.9-2.1-5.4l26.2-28.1c0,0.1,0.1,0.1,0.1,0.2c0.1,0.1,0.1,0.1,0.2,0.1l1.5,3.8l-0.3,0.2h-0.1
	c-0.9,0.6-1.9,1.2-2.7,1.8l0,0l-1.2,1l-0.2,0.1c-5.5,4.8-8.9,11.5-9.5,18.8c-0.1,1-0.1,2,0,3c0,0.1,0,0.1,0,0.2c0,0,0.1,0.1,0.1,0.1
	c0,0,0.1,0,0.2,0c0.1,0,0.1,0,0.2,0l0.9-0.6c0.2-0.1,0.3-0.3,0.4-0.5c0.1-0.2,0.2-0.4,0.2-0.6c0.2-6.1,2.5-12,6.6-16.5l0,0
	c0.8-0.8,1.6-1.6,2.4-2.4h0.1c0.6-0.5,1.2-1,1.9-1.4l0.2-0.1l0.6-0.4l0.3-0.2l0.8-0.5l6,15.6l5.7,8.2c0.1,0.1,0.2,0.3,0.4,0.4
	c0.1,0.1,0.3,0.2,0.5,0.2c0.2,0,0.3,0,0.5,0c0.2,0,0.3-0.1,0.5-0.2l0,0c0.1-0.1,0.3-0.2,0.4-0.4c0.1-0.1,0.2-0.3,0.2-0.5
	c0-0.2,0-0.3,0-0.5c0-0.2-0.1-0.3-0.2-0.5l-0.8-1L107.5,92h0.2c0.2,0,0.4,0,0.6-0.1c0.2-0.1,0.4-0.2,0.5-0.4l1-1c0,0,0-0.1,0.1-0.1
	c0,0,0-0.1,0-0.1c0,0,0-0.1-0.1-0.1c0,0-0.1,0-0.1,0c-0.4,0-0.9,0-1.3,0c-0.3,0-0.7,0-1,0v-1.9h6.8c0.2,0,0.4,0,0.5,0l0,0
	c0.5-0.1,1-0.4,1.4-0.8c0.4-0.4,0.6-0.9,0.7-1.4l2.1-12C119,73.8,119,73.6,118.9,73.5L118.9,73.5z M117.3,80h-0.2l0.4-1.4L117.3,80z
	 M118.2,73.2c0.1,0.1,0.1,0.2,0.1,0.3l-1.8,6.5h-1.5l1.6-7h1c0.1,0,0.2,0,0.3,0.1C118.1,73.1,118.2,73.1,118.2,73.2L118.2,73.2z
	 M111.1,87.6l1.3-7.1h2.1l-1.7,7.1H111.1z M106.8,87.6h-1l-0.9-7.1h1.9V87.6z M96.6,78.7l0.3,1.3h-0.1L96.6,78.7z M97.1,80.5
	l1.9,6.8c-0.3-0.1-0.6-0.4-0.8-0.6c-0.2-0.3-0.3-0.6-0.4-0.9l-0.9-5.3H97.1z M99.7,87.6l-2.1-7h1.5l1.7,7H99.7L99.7,87.6z
	 M101.4,87.6l-1.6-7.1h2.1l1.2,7.1H101.4z M101.7,79.9h-2.1l-1.6-7h2.4L101.7,79.9z M101,72.9h2.4l0.9,7h-2.1L101,72.9z M103.7,87.6
	l-1.2-7h1.9l0.8,7H103.7z M104.8,79.9l-0.9-7h2.8v7H104.8z M107.4,72.9h2.8l-0.9,7h-1.9V72.9z M110.8,72.9h2.4l-1.3,7h-2.1
	L110.8,72.9z M111.8,80.5l-1.3,7.1H109l0.9-7.1H111.8z M112.5,79.9l1.3-7h2.3l-1.6,7H112.5z M96.5,72.9h1l1.6,7h-1.5l-1.8-6.4
	c0-0.1,0.1-0.2,0.2-0.3c0.1-0.1,0.2-0.2,0.3-0.2C96.3,73,96.4,72.9,96.5,72.9L96.5,72.9z M91.8,79.1l3.9-1.8l1.5,8.6
	c0.1,0.5,0.3,1,0.7,1.4c0.4,0.4,0.8,0.7,1.4,0.8l0,0h0.5h6.9V90c-3.6,0.1-7.1,0.9-10.4,2.3L95,88.9c0,0,0-0.1,0-0.1c0,0,0-0.1,0-0.1
	L91.6,79L91.8,79.1z M28.5,91.7H29l0.8,0.1h0.5l0.7,0.1l0.6,0.1l0.7,0.2l0.6,0.1l0.7,0.2l0.5,0.2c4.7,1.5,8.8,4.2,12.1,7.8
	l-17.5,13.3c-0.6-0.4-1.3-0.6-2.1-0.7l1.3-21.5L28.5,91.7z M57.7,119.2l0.6,1.8l-2.1-0.2C56.5,120.2,57,119.6,57.7,119.2L57.7,119.2
	z M31,114.1l16.1-12.2c2.8,3.7,4.6,8,5.2,12.6l-19.6-0.4H31L31,114.1z M30.7,117.1l1.5,0.1c2.1,0.2,7.5,0.7,11.9,1.2
	c1.7,0.2,3.3,0.8,4.6,1.9l-18-1.4c0.1-0.3,0.1-0.7,0.1-1C30.7,117.6,30.7,117.4,30.7,117.1z M60.5,119.5l-0.3-0.9
	c0.3,0,0.6,0.1,0.9,0.2L60.5,119.5z M40.5,82l0.8-0.4l0.8,0.5L40.5,82z M44.2,83c0,0-0.1,0-0.1,0l-0.7,0.5H41l2.1-0.9
	c0,0,0.1,0,0.1-0.1c0,0,0-0.1,0.1-0.1h0.2c1.8,0.3,2.5,0,5.7-1.1l0,0.1L48,82.7c-0.3-0.1-0.6-0.1-0.9,0c-0.2,0.1-0.3,0.2-0.5,0.3
	L44.2,83z M56.1,114.5H54c-0.6-5-2.5-9.7-5.5-13.7L51,99L56.1,114.5z M49.3,98.1l-1.8,1.4c-2.9-3.4-6.5-6.1-10.6-7.8l0,0
	c-1.3-0.5-2.6-0.9-3.9-1.3l0,0l-1.3-0.3h-0.2l-1.2-0.2H30l-1.2-0.2h-0.6h-0.3v-1.1l9.4,0.3L49.3,98.1z M12.1,87.9l15.3,0.5v1.1H26
	h-1.5h-0.6h-0.6h-0.5h-0.7h-0.3l-0.8,0.1h-0.3L20,89.8h-0.2L18.9,90h-0.2l-0.9,0.2L17,90.6l-0.9,0.3l-1.2,0.8l-0.3,0.1L12.1,87.9z
	 M25.2,109.7c0,0,0-0.1,0-0.1l-9.7-16.1l0.8-0.3l0.7-0.3h0.1l0.7-0.2h0.1l0.7-0.2H19l0.7-0.2h0.2l0.6-0.1h0.3l0.6-0.1h0.3h0.6h0.4
	h0.5h0.5h0.5h0.6h2.5l-1.3,21.5h-0.4L25.2,109.7z M27.8,122.4c0.8-0.4,1.5-1,2.1-1.7l20.5,1.6c0.5,0.8,1,1.7,1.2,2.6
	c0,0.2,0.1,0.4,0.1,0.6l0,0c0.4,1.3,1.1,2.4,2.1,3.4L27.8,122.4z M64.2,123c-0.1,1.1-0.6,2.1-1.4,2.8c-0.8,0.7-1.8,1.2-2.9,1.2
	c-1.1,0-2.1-0.4-2.9-1.2c-0.8-0.7-1.3-1.8-1.4-2.8c0,0,0-0.2,0-0.3l3.2,0.2l0.1,0.3l1-0.3l0.4,0.8l3.1-3.4c0.5,0.7,0.8,1.6,0.8,2.5
	V123z M64,115.8c-1.1-0.7-2.4-1.1-3.7-1.1h-1.4l-1.6-4.6l5.3-0.6c3.2-0.4,6.1-2,8.2-4.4l19.3-21.9l1.1,3.3L64,115.8z M107.4,115.8
	l-4.2-5.9l-6-15.6l0.5-0.2l0.5-0.2l0.6-0.2l0.5-0.2c2.5-0.9,5.1-1.4,7.8-1.4L107.4,115.8z M107.4,86.8v-6.2h1.9l-0.9,6.9h-1
	L107.4,86.8z M113.4,87.7l1.6-7.1h1.5l-1.9,6.9h-1.1L113.4,87.7z M116.3,85.9c-0.1,0.3-0.2,0.7-0.4,0.9c-0.2,0.3-0.5,0.5-0.8,0.6
	l1.9-6.8h0.2L116.3,85.9z"/>
<path d="M111.7,83.5c0.9,3.2,2.5,4.9,5,4.5c0.8-0.1,1.6-0.9,1.4-2.4c0.6-0.2,1.1-0.3,1.6-0.5c0.8-0.3,1-1,0.4-1.9
	c-0.3-0.5-0.8-1-1.2-1.1c-0.9-0.3-1.1-1.1-1.1-2.1c0-2.3,0-4.6,0-6.8c0-2,0.4-3.9,1.2-5.7c2.1-4.9,2.9-10.1,2.4-15.8
	c0-0.8,0.1-1.7,0.3-2.5c0.6-2,0.4-3.8-0.1-5.7c-0.1-0.6-0.2-1.3-0.1-2c0-2.3,0.1-4.6,0-6.9c0-0.5-0.5-1-0.8-1.5
	c-0.4,0.4-0.8,0.8-1.1,1.3c-0.2,0.3-0.2,0.9-0.4,1.2c-0.8,1.6-1.6,3.2-3.3,2.9c-0.3-0.1-0.6,0-0.9,0.1c-1.3,0.8-2.1-0.4-2.8-1.5
	c-0.7-1-1.4-1.9-2-2.9l-0.3,0.2c0,0.9-0.2,1.9-0.1,2.8c0.2,1.9,0.4,3.7,0.6,5.5c0,0.4,0,0.8,0,1.2c-0.1,0.5-0.3,1.1-0.3,1.6
	c0.2,2.1-0.4,3.8-1.3,5.5c-0.4,0.8-0.8,1.2-1.4,1.3c-1,0.1-2,0.1-3,0.4c-5.6,1.9-8.6,7.2-9.9,14.4c-0.7,3.8,0.9,3,0.6,6.9
	c0,0.4,3.2-2.7,1.1,2c5.9-4.8,11-6,10.2-5.9c-1.5,0-3-0.1-4.5-0.3c-2.5-0.3-4.7,0.6-6.8,2.2c-1.4,1,1.2,0.5,1.5,2.1
	c0.3,1.7-2,4.3-0.4,4.5c0.5,0.1,0.9,0.2,1.4,0.2c0.7-0.1,1.5,0.1,1.9-0.4c0.3-0.4,0.1-1.6,0.1-2.8c0.8-0.1,1.8-0.3,2.9-0.3
	c1.4,0,10.7-2.6-3.6,8.4c2.6,0.3,0.4,1.6,3,2c3.6,0.5,4.2,1.6,7.8,1.6c0.3,0,0.5,0,0.8-0.1c1-0.3,1.3-1.2,1-2.5
	c-0.1-0.3-0.1-0.7-0.1-1L111.7,83.5z"/>
<path d="M117.2,65.8l-22.7-0.3c-3.2,0-5.4,2.4-4.2,4.7l8.4,15.3c0.7,1.3,2.3,2.1,4.1,2.1h14.1c2.5,0,4.5-1.5,4.5-3.3l0.2-15
	C121.6,67.3,119.7,65.8,117.2,65.8z"/>
</svg>
