<?xml version="1.0" encoding="utf-8"?>
<!-- Generator: Adobe Illustrator 26.2.1, SVG Export Plug-In . SVG Version: 6.00 Build 0)  -->
<svg version="1.1" id="图层_1" xmlns="http://www.w3.org/2000/svg" xmlns:xlink="http://www.w3.org/1999/xlink" x="0px" y="0px"
	 viewBox="0 0 22.8 39.4" style="enable-background:new 0 0 22.8 39.4;" xml:space="preserve">
<path d="M14.1,18.2c-0.5,0.9-1,1.6-0.3,2.7c0.2,0.3-0.2,1.3-0.6,1.7c-1.1,1.2-2.5,2.4-1.6,4.2c2,3.9,4.2,7.7,8.6,9.6c0,0,0,0,0,0
	c0.8,0.4,0.9,1.6,0.1,2c-0.1,0.1-0.2,0.1-0.3,0.1c-3,1.1-5.7-0.1-8.1-1.7C8.4,34.5,5,32,1.6,29.5c-1.6-1.2-1.5-2.2-0.5-3.9
	C2.7,23,4,20.2,5.5,17.3c0.2-0.5,0.8-0.7,1.3-0.6l0.5,0.1c0.5,0.1,1-0.2,1.3-0.6l6-11.6C15,3.6,15.5,2.7,16,1.7
	c0.9-1.9,3.6-2.3,4.8-0.6c1.3,1.6,0.4,4.3-1.1,7C17.4,12.5,16.4,13.9,14.1,18.2z"/>
</svg>
