<?xml version="1.0" encoding="utf-8"?>
<!-- Generator: Adobe Illustrator 26.2.1, SVG Export Plug-In . SVG Version: 6.00 Build 0)  -->
<svg version="1.1" id="图层_1" xmlns="http://www.w3.org/2000/svg" xmlns:xlink="http://www.w3.org/1999/xlink" x="0px" y="0px"
	 viewBox="0 0 7 24" style="enable-background:new 0 0 7 24;" xml:space="preserve">
<style type="text/css">
	.st0{fill:#121212;}
</style>
<path class="st0" d="M3,22.8c-0.3-0.1-0.5-0.2-0.7-0.5C2.1,22.1,2,21.8,2,21.5l0.4-6.3c0.1-0.8,0.1-1.7,0-2.5L2,8.7
	c0-0.2,0-0.4,0.1-0.5C2.2,8,2.3,7.8,2.4,7.7c0.1-0.1,0.3-0.2,0.5-0.3s0.4-0.1,0.5-0.1c0.2,0,0.3,0,0.5,0.1c0.2,0.1,0.3,0.2,0.4,0.3
	C4.5,7.8,4.6,8,4.6,8.1c0.1,0.2,0.1,0.3,0.1,0.5l-0.5,4.2c0,0.7-0.1,1.4,0,2.1l0.5,6.6c0,0.3-0.2,0.7-0.4,0.9
	c-0.2,0.2-0.6,0.4-0.9,0.4C3.2,22.8,3.1,22.8,3,22.8L3,22.8z"/>
<path class="st0" d="M5.2,23.9H1.7c-0.3,0-0.5-0.1-0.8-0.2c-0.2-0.1-0.5-0.3-0.6-0.5c-0.2-0.2-0.3-0.4-0.4-0.7
	c-0.1-0.2-0.1-0.5-0.1-0.8l0,0c0-0.5,0.2-1,0.6-1.3c0.4-0.4,0.8-0.6,1.3-0.6h3.5c0.5,0,1,0.2,1.3,0.6c0.4,0.4,0.6,0.8,0.6,1.3
	c0,0.3,0,0.5-0.1,0.8c-0.1,0.2-0.2,0.5-0.4,0.7c-0.2,0.2-0.4,0.3-0.6,0.5S5.5,23.9,5.2,23.9z"/>
</svg>
