<svg width="53" height="53" viewBox="0 0 53 53" fill="none" xmlns="http://www.w3.org/2000/svg">
<path d="M26.3689 26.9187C26.3117 26.9158 26.2564 26.897 26.2093 26.8644C26.1622 26.8318 26.1252 26.7867 26.1023 26.7342L17.0599 5.40953C17.03 5.33884 17.0294 5.25915 17.0582 5.18802C17.087 5.11688 17.143 5.06011 17.2136 5.0302C17.2843 5.00029 17.364 4.99969 17.4352 5.02853C17.5063 5.05737 17.5631 5.11329 17.593 5.18398L26.6765 26.5086C26.7041 26.5822 26.7025 26.6636 26.672 26.7361C26.6415 26.8085 26.5844 26.8666 26.5124 26.8982L26.3689 26.9187Z" fill="#121212"/>
<path d="M26.3688 26.9185C26.3243 26.917 26.2807 26.905 26.2415 26.8837C26.2024 26.8623 26.1687 26.8321 26.1433 26.7955L11.8722 8.46451C11.8449 8.43778 11.8232 8.40588 11.8084 8.37067C11.7936 8.33546 11.786 8.29766 11.786 8.25947C11.786 8.22128 11.7936 8.18347 11.8084 8.14826C11.8232 8.11305 11.8449 8.08115 11.8722 8.05442C11.8989 8.02714 11.9308 8.00547 11.966 7.99068C12.0012 7.97588 12.039 7.96826 12.0772 7.96826C12.1154 7.96826 12.1532 7.97588 12.1884 7.99068C12.2236 8.00547 12.2555 8.02714 12.2823 8.05442L26.6354 26.3034C26.6918 26.3609 26.7233 26.4382 26.7233 26.5187C26.7233 26.5992 26.6918 26.6765 26.6354 26.734C26.6147 26.788 26.5782 26.8346 26.5307 26.8675C26.4831 26.9004 26.4267 26.9182 26.3688 26.9185Z" fill="#121212"/>
<path d="M26.3689 26.9186C26.3162 26.9392 26.2576 26.9392 26.2049 26.9186L7.75083 12.9756C7.72355 12.9488 7.70188 12.9169 7.68709 12.8817C7.67229 12.8465 7.66467 12.8087 7.66467 12.7705C7.66467 12.7323 7.67229 12.6945 7.68709 12.6593C7.70188 12.6241 7.72355 12.5922 7.75083 12.5655C7.77585 12.5354 7.80719 12.5111 7.84263 12.4945C7.87806 12.4779 7.91673 12.4692 7.95588 12.4692C7.99503 12.4692 8.03369 12.4779 8.06913 12.4945C8.10457 12.5111 8.13591 12.5354 8.16092 12.5655L26.615 26.5085C26.6422 26.5353 26.6639 26.5672 26.6787 26.6024C26.6935 26.6376 26.7011 26.6754 26.7011 26.7136C26.7011 26.7518 26.6935 26.7896 26.6787 26.8248C26.6639 26.86 26.6422 26.8919 26.615 26.9186C26.5765 26.9369 26.5345 26.9463 26.4919 26.9463C26.4494 26.9463 26.4074 26.9369 26.3689 26.9186Z" fill="#121212"/>
<path d="M26.369 26.9183L4.77777 18.2244C4.70582 18.1927 4.64873 18.1347 4.61822 18.0623C4.58771 17.9898 4.58611 17.9084 4.61373 17.8348C4.62716 17.7974 4.64821 17.7632 4.67554 17.7344C4.70287 17.7055 4.73589 17.6827 4.77251 17.6673C4.80913 17.6519 4.84855 17.6442 4.88828 17.6448C4.92801 17.6454 4.96718 17.6543 5.00332 17.6708L26.492 26.3442C26.564 26.3759 26.6211 26.4339 26.6516 26.5063C26.6821 26.5788 26.6837 26.6602 26.6561 26.7338C26.628 26.7866 26.5869 26.8313 26.5367 26.8636C26.4864 26.8959 26.4286 26.9147 26.369 26.9183Z" fill="#121212"/>
<path d="M26.3684 26.9185L3.3419 24.0889C3.30404 24.0839 3.26756 24.0714 3.2346 24.0521C3.20164 24.0328 3.17286 24.0071 3.14994 23.9766C3.12703 23.946 3.11044 23.9112 3.10115 23.8742C3.09186 23.8371 3.09006 23.7986 3.09584 23.7608C3.1061 23.6829 3.14582 23.6118 3.20683 23.5623C3.26784 23.5127 3.34552 23.4884 3.42392 23.4943L26.4094 26.3239C26.4874 26.3342 26.5584 26.3739 26.608 26.4349C26.6576 26.4959 26.6819 26.5736 26.676 26.652C26.666 26.7262 26.6292 26.7943 26.5726 26.8434C26.516 26.8925 26.4434 26.9192 26.3684 26.9185V26.9185Z" fill="#121212"/>
<path d="M3.44496 30.1377C3.37199 30.1436 3.2995 30.1215 3.24232 30.0757C3.18515 30.03 3.14761 29.9641 3.1374 29.8916C3.13094 29.8109 3.1546 29.7306 3.20382 29.6662C3.25303 29.6019 3.32432 29.558 3.40395 29.5431L26.328 26.3239C26.4066 26.3118 26.4869 26.3307 26.5519 26.3766C26.6169 26.4225 26.6615 26.4918 26.6765 26.5699C26.683 26.6507 26.6593 26.731 26.6101 26.7953C26.5609 26.8597 26.4896 26.9035 26.41 26.9185L3.48597 30.1377H3.44496Z" fill="#121212"/>
<path d="M5.04435 35.961C4.9865 35.9607 4.9301 35.9429 4.88253 35.9099C4.83496 35.877 4.79846 35.8305 4.7778 35.7764C4.75017 35.7028 4.75177 35.6215 4.78228 35.549C4.81279 35.4765 4.86988 35.4185 4.94183 35.3869L26.2665 26.3444C26.3026 26.3278 26.3418 26.319 26.3815 26.3184C26.4213 26.3178 26.4607 26.3254 26.4973 26.3409C26.5339 26.3563 26.5669 26.3791 26.5943 26.408C26.6216 26.4368 26.6427 26.471 26.6561 26.5084C26.6837 26.582 26.6821 26.6634 26.6516 26.7358C26.6211 26.8083 26.564 26.8663 26.492 26.898L5.16738 35.9405L5.04435 35.961Z" fill="#121212"/>
<path d="M8.22228 41.2715C8.13659 41.2682 8.05563 41.2314 7.99673 41.169C7.94038 41.1115 7.90881 41.0342 7.90881 40.9537C7.90881 40.8732 7.94038 40.7959 7.99673 40.7384L26.2457 26.3853C26.3032 26.3289 26.3805 26.2974 26.461 26.2974C26.5415 26.2974 26.6188 26.3289 26.6763 26.3853C26.7327 26.4428 26.7642 26.5201 26.7642 26.6006C26.7642 26.6811 26.7327 26.7584 26.6763 26.8159L8.42733 41.169C8.37353 41.2267 8.30074 41.2631 8.22228 41.2715Z" fill="#121212"/>
<path d="M12.4256 45.3726C12.3919 45.3805 12.3568 45.3805 12.3231 45.3726C12.2958 45.3459 12.2741 45.314 12.2594 45.2788C12.2446 45.2436 12.2369 45.2058 12.2369 45.1676C12.2369 45.1294 12.2446 45.0916 12.2594 45.0564C12.2741 45.0212 12.2958 44.9893 12.3231 44.9626L26.2661 26.5085C26.2929 26.4812 26.3248 26.4596 26.36 26.4448C26.3952 26.43 26.433 26.4224 26.4712 26.4224C26.5094 26.4224 26.5472 26.43 26.5824 26.4448C26.6176 26.4596 26.6495 26.4812 26.6762 26.5085C26.7035 26.5353 26.7252 26.5672 26.74 26.6024C26.7548 26.6376 26.7624 26.6754 26.7624 26.7136C26.7624 26.7518 26.7548 26.7896 26.74 26.8248C26.7252 26.86 26.7035 26.8919 26.6762 26.9186L12.7332 45.3726C12.6872 45.4018 12.6339 45.4173 12.5794 45.4173C12.5249 45.4173 12.4716 45.4018 12.4256 45.3726V45.3726Z" fill="#121212"/>
<path d="M17.6953 48.3867C17.6579 48.3733 17.6237 48.3522 17.5949 48.3249C17.566 48.2976 17.5432 48.2645 17.5277 48.2279C17.5123 48.1913 17.5047 48.1519 17.5053 48.1121C17.5059 48.0724 17.5147 48.0332 17.5313 47.9971L26.1021 26.5084C26.1156 26.471 26.1366 26.4368 26.1639 26.408C26.1913 26.3791 26.2243 26.3563 26.2609 26.3409C26.2975 26.3254 26.337 26.3178 26.3767 26.3184C26.4164 26.319 26.4556 26.3278 26.4917 26.3444C26.5637 26.376 26.6208 26.4341 26.6513 26.5065C26.6818 26.579 26.6834 26.6604 26.6558 26.734L17.9824 48.2022C17.9581 48.2578 17.9179 48.305 17.8668 48.3379C17.8157 48.3707 17.756 48.3877 17.6953 48.3867V48.3867Z" fill="#121212"/>
<path d="M23.5597 49.904C23.4817 49.8938 23.4107 49.854 23.3611 49.793C23.3115 49.732 23.2872 49.6543 23.2931 49.5759L26.1227 26.5904C26.1107 26.5449 26.1092 26.4972 26.1185 26.451C26.1278 26.4048 26.1476 26.3614 26.1763 26.3241C26.205 26.2868 26.2419 26.2565 26.2842 26.2357C26.3265 26.2149 26.3729 26.2041 26.42 26.2041C26.4671 26.2041 26.5136 26.2149 26.5559 26.2357C26.5981 26.2565 26.6351 26.2868 26.6638 26.3241C26.6925 26.3614 26.7123 26.4048 26.7216 26.451C26.7309 26.4972 26.7294 26.5449 26.7174 26.5904L23.8467 49.6375C23.8415 49.71 23.809 49.7778 23.7557 49.8273C23.7024 49.8768 23.6324 49.9042 23.5597 49.904Z" fill="#121212"/>
<path d="M29.6087 49.863C29.5338 49.8637 29.4612 49.837 29.4045 49.7879C29.3479 49.7388 29.3111 49.6707 29.3011 49.5964L26.0819 26.6519C26.0761 26.6142 26.0779 26.5756 26.0872 26.5386C26.0965 26.5016 26.1131 26.4667 26.136 26.4362C26.1589 26.4056 26.1877 26.38 26.2207 26.3607C26.2536 26.3414 26.2901 26.3289 26.328 26.3239C26.4066 26.3118 26.4869 26.3307 26.5519 26.3766C26.6169 26.4225 26.6616 26.4918 26.6766 26.5699L29.8958 49.4734C29.9023 49.5488 29.8808 49.6239 29.8354 49.6844C29.79 49.745 29.7239 49.7866 29.6497 49.8015L29.6087 49.863Z" fill="#121212"/>
<path d="M35.4315 48.2429C35.3718 48.2393 35.3141 48.2205 35.2638 48.1882C35.2135 48.1558 35.1724 48.1111 35.1444 48.0584L26.1019 26.7337C26.072 26.6576 26.0736 26.5727 26.1063 26.4977C26.1389 26.4227 26.2001 26.3638 26.2762 26.3339C26.3523 26.3039 26.4372 26.3055 26.5122 26.3382C26.5872 26.3709 26.6461 26.432 26.676 26.5081L35.698 47.8328C35.7256 47.9064 35.724 47.9878 35.6935 48.0602C35.663 48.1327 35.6059 48.1907 35.534 48.2224L35.4315 48.2429Z" fill="#121212"/>
<path d="M40.6401 45.1674C40.5926 45.1659 40.546 45.1542 40.5035 45.1329C40.461 45.1117 40.4237 45.0815 40.394 45.0444L26.0409 26.7954C26.0136 26.7686 25.9919 26.7367 25.9771 26.7015C25.9623 26.6663 25.9547 26.6285 25.9547 26.5903C25.9547 26.5521 25.9623 26.5143 25.9771 26.4791C25.9919 26.4439 26.0136 26.412 26.0409 26.3853C26.0984 26.3289 26.1757 26.2974 26.2562 26.2974C26.3367 26.2974 26.414 26.3289 26.4715 26.3853L40.8246 44.6548C40.8519 44.6815 40.8736 44.7134 40.8884 44.7486C40.9031 44.7838 40.9108 44.8216 40.9108 44.8598C40.9108 44.898 40.9031 44.9358 40.8884 44.971C40.8736 45.0062 40.8519 45.0381 40.8246 45.0649C40.7761 45.1184 40.7112 45.1545 40.6401 45.1674Z" fill="#121212"/>
<path d="M44.884 40.8615C44.8241 40.8818 44.7593 40.8818 44.6994 40.8615L26.2454 26.9184C26.2144 26.8955 26.1883 26.8668 26.1684 26.8338C26.1486 26.8008 26.1354 26.7642 26.1297 26.7261C26.124 26.688 26.1258 26.6492 26.1351 26.6118C26.1444 26.5745 26.161 26.5393 26.1839 26.5083C26.2068 26.4774 26.2355 26.4512 26.2685 26.4314C26.3015 26.4115 26.3381 26.3984 26.3762 26.3926C26.4143 26.3869 26.4531 26.3888 26.4905 26.3981C26.5278 26.4074 26.563 26.4239 26.594 26.4468L45.048 40.3899C45.0781 40.4149 45.1024 40.4462 45.119 40.4817C45.1356 40.5171 45.1442 40.5558 45.1442 40.5949C45.1442 40.6341 45.1356 40.6727 45.119 40.7082C45.1024 40.7436 45.0781 40.7749 45.048 40.8C45.0011 40.8371 44.9437 40.8586 44.884 40.8615V40.8615Z" fill="#121212"/>
<path d="M47.8575 35.5917H47.7345L26.2663 26.9183C26.1943 26.8866 26.1373 26.8286 26.1067 26.7561C26.0762 26.6837 26.0746 26.6023 26.1023 26.5287C26.1157 26.4913 26.1367 26.4571 26.1641 26.4282C26.1914 26.3994 26.2244 26.3765 26.261 26.3611C26.2977 26.3457 26.3371 26.3381 26.3768 26.3387C26.4165 26.3393 26.4557 26.3481 26.4918 26.3646L47.96 35.1201C47.9974 35.1335 48.0316 35.1545 48.0605 35.1819C48.0893 35.2092 48.1122 35.2422 48.1276 35.2788C48.143 35.3154 48.1507 35.3549 48.1501 35.3946C48.1495 35.4343 48.1406 35.4735 48.1241 35.5096C48.0915 35.5466 48.0494 35.5738 48.0024 35.5883C47.9553 35.6028 47.9052 35.6039 47.8575 35.5917V35.5917Z" fill="#121212"/>
<path d="M49.3745 29.7274L26.348 26.9183C26.2701 26.908 26.199 26.8683 26.1494 26.8073C26.0999 26.7463 26.0755 26.6686 26.0814 26.5902C26.0917 26.5122 26.1314 26.4412 26.1924 26.3916C26.2534 26.342 26.3311 26.3177 26.4095 26.3236L49.395 29.1532C49.473 29.1635 49.544 29.2032 49.5936 29.2642C49.6432 29.3252 49.6675 29.4029 49.6616 29.4813C49.6517 29.5501 49.6171 29.613 49.5643 29.6583C49.5115 29.7035 49.4441 29.7281 49.3745 29.7274V29.7274Z" fill="#121212"/>
<path d="M26.369 26.9187C26.2963 26.9189 26.2262 26.8915 26.1729 26.842C26.1196 26.7925 26.0871 26.7247 26.0819 26.6522C26.0761 26.6144 26.0779 26.5759 26.0872 26.5388C26.0965 26.5018 26.1131 26.467 26.136 26.4364C26.1589 26.4059 26.1877 26.3802 26.2207 26.3609C26.2536 26.3416 26.2901 26.3291 26.328 26.3241L49.2315 23.1049C49.2692 23.0991 49.3078 23.1009 49.3448 23.1102C49.3819 23.1195 49.4167 23.1361 49.4472 23.159C49.4778 23.1819 49.5034 23.2107 49.5227 23.2436C49.542 23.2766 49.5545 23.3131 49.5596 23.3509C49.5686 23.389 49.5692 23.4286 49.5613 23.467C49.5533 23.5053 49.537 23.5414 49.5135 23.5727C49.49 23.604 49.4599 23.6298 49.4254 23.6482C49.3908 23.6665 49.3526 23.6771 49.3135 23.679L26.41 26.9187H26.369Z" fill="#121212"/>
<path d="M26.3687 26.9183C26.3115 26.9154 26.2563 26.8966 26.2092 26.864C26.1621 26.8314 26.125 26.7863 26.1022 26.7338C26.0857 26.6976 26.0768 26.6585 26.0762 26.6187C26.0756 26.579 26.0832 26.5396 26.0987 26.503C26.1141 26.4663 26.1369 26.4333 26.1658 26.406C26.1946 26.3787 26.2288 26.3576 26.2662 26.3442L47.5909 17.3017C47.6257 17.2846 47.6637 17.2748 47.7024 17.2728C47.7412 17.2709 47.78 17.2767 47.8164 17.2902C47.8528 17.3036 47.8861 17.3242 47.9143 17.3509C47.9425 17.3775 47.965 17.4096 47.9805 17.4452C48.0081 17.5188 48.0065 17.6002 47.976 17.6727C47.9455 17.7451 47.8884 17.8032 47.8164 17.8348L26.4918 26.9183H26.3687Z" fill="#121212"/>
<path d="M26.3687 26.9187C26.3241 26.9171 26.2806 26.9052 26.2414 26.8838C26.2023 26.8625 26.1686 26.8323 26.1432 26.7957C26.1159 26.7689 26.0942 26.737 26.0794 26.7018C26.0646 26.6666 26.057 26.6288 26.057 26.5906C26.057 26.5524 26.0646 26.5146 26.0794 26.4794C26.0942 26.4442 26.1159 26.4123 26.1432 26.3856L44.4127 12.0324C44.4394 12.0052 44.4713 11.9835 44.5065 11.9687C44.5417 11.9539 44.5795 11.9463 44.6177 11.9463C44.6559 11.9463 44.6937 11.9539 44.7289 11.9687C44.7641 11.9835 44.796 12.0052 44.8228 12.0324C44.85 12.0592 44.8717 12.0911 44.8865 12.1263C44.9013 12.1615 44.9089 12.1993 44.9089 12.2375C44.9089 12.2757 44.9013 12.3135 44.8865 12.3487C44.8717 12.3839 44.85 12.4158 44.8228 12.4425L26.5738 26.7957C26.5504 26.8297 26.52 26.8583 26.4847 26.8796C26.4493 26.9008 26.4097 26.9141 26.3687 26.9187Z" fill="#121212"/>
<path d="M26.369 26.9189C26.3162 26.9394 26.2577 26.9394 26.2049 26.9189C26.1777 26.8921 26.156 26.8602 26.1412 26.825C26.1264 26.7898 26.1188 26.752 26.1188 26.7138C26.1188 26.6756 26.1264 26.6378 26.1412 26.6026C26.156 26.5674 26.1777 26.5355 26.2049 26.5088L40.148 8.05474C40.2021 8.01133 40.2693 7.98749 40.3386 7.98707C40.408 7.98665 40.4754 8.00967 40.53 8.05242C40.5846 8.09516 40.6232 8.15511 40.6395 8.22253C40.6557 8.28994 40.6487 8.36088 40.6196 8.42382L26.6765 26.8779C26.6346 26.9134 26.5833 26.9362 26.5288 26.9435C26.4742 26.9508 26.4188 26.9422 26.369 26.9189Z" fill="#121212"/>
<path d="M26.3691 26.9185C26.2971 26.8869 26.24 26.8288 26.2095 26.7564C26.179 26.6839 26.1774 26.6026 26.205 26.529L34.8784 5.01975C34.9188 4.96381 34.9767 4.92306 35.043 4.90403C35.1093 4.885 35.1801 4.8888 35.2439 4.91482C35.3078 4.94084 35.3611 4.98757 35.3952 5.0475C35.4293 5.10744 35.4423 5.1771 35.4321 5.2453L26.6766 26.734C26.6469 26.7897 26.6026 26.8364 26.5484 26.8689C26.4942 26.9014 26.4323 26.9185 26.3691 26.9185Z" fill="#121212"/>
<path d="M26.3687 26.9183C26.2908 26.908 26.2198 26.8683 26.1702 26.8073C26.1206 26.7463 26.0963 26.6686 26.1022 26.5902L28.9113 3.58418C28.9113 3.50805 28.9415 3.43503 28.9954 3.3812C29.0492 3.32736 29.1222 3.29712 29.1984 3.29712C29.2745 3.29712 29.3475 3.32736 29.4014 3.3812C29.4552 3.43503 29.4854 3.50805 29.4854 3.58418L26.6763 26.6517C26.6663 26.726 26.6296 26.7941 26.5729 26.8432C26.5163 26.8922 26.4437 26.919 26.3687 26.9183V26.9183Z" fill="#121212"/>
<path d="M26.3687 26.9182C26.296 26.9184 26.2259 26.891 26.1726 26.8415C26.1193 26.792 26.0868 26.7242 26.0816 26.6516L22.8624 3.72762C22.8504 3.64898 22.8693 3.56873 22.9152 3.50373C22.9611 3.43873 23.0303 3.39404 23.1085 3.37905C23.1869 3.37313 23.2646 3.39746 23.3256 3.44703C23.3866 3.49661 23.4263 3.56766 23.4366 3.6456L26.6763 26.5696C26.6827 26.6504 26.6591 26.7307 26.6098 26.795C26.5606 26.8594 26.4893 26.9033 26.4097 26.9182H26.3687Z" fill="#121212"/>
<path d="M26.3689 26.9183C26.2909 26.9131 26.2178 26.8784 26.1645 26.8212C26.1112 26.7641 26.0816 26.6888 26.0818 26.6107V3.46113C26.0816 3.38299 26.1112 3.30771 26.1645 3.25059C26.2178 3.19346 26.2909 3.15877 26.3689 3.15356C26.4504 3.15356 26.5287 3.18597 26.5863 3.24365C26.644 3.30133 26.6764 3.37956 26.6764 3.46113V26.6107C26.6764 26.6923 26.644 26.7705 26.5863 26.8282C26.5287 26.8859 26.4504 26.9183 26.3689 26.9183V26.9183Z" fill="#121212"/>
<path d="M26.3688 26.9186C26.3032 26.9166 26.2399 26.8936 26.1882 26.8531C26.1366 26.8125 26.0993 26.7564 26.0818 26.6931L20.0945 4.3637C20.082 4.32604 20.0775 4.28619 20.0812 4.2467C20.0849 4.2072 20.0968 4.1689 20.1161 4.13422C20.1353 4.09954 20.1616 4.06923 20.1932 4.04521C20.2247 4.02118 20.2609 4.00396 20.2995 3.99462C20.3756 3.97525 20.4562 3.98569 20.5248 4.02381C20.5934 4.06193 20.6448 4.12485 20.6686 4.19967L26.6764 26.5496C26.6951 26.623 26.6841 26.7008 26.6457 26.7661C26.6073 26.8314 26.5446 26.8788 26.4713 26.8981L26.3688 26.9186Z" fill="#121212"/>
<path d="M26.3689 26.9184C26.3189 26.9179 26.2699 26.9045 26.2268 26.8793C26.1836 26.8541 26.1478 26.8181 26.1228 26.7749L14.5378 6.70097C14.4874 6.64458 14.4595 6.57157 14.4595 6.49592C14.4595 6.42027 14.4874 6.34727 14.5378 6.29088C14.6087 6.25409 14.6912 6.24636 14.7678 6.26932C14.8443 6.29228 14.9089 6.34414 14.9479 6.4139L26.6764 26.4673C26.7104 26.5368 26.7188 26.616 26.7 26.691C26.6813 26.7661 26.6366 26.8321 26.5739 26.8774L26.3689 26.9184Z" fill="#121212"/>
<path d="M26.3686 26.9188C26.3013 26.9353 26.2309 26.9353 26.1636 26.9188L9.76 10.5152C9.69474 10.4472 9.65916 10.3561 9.66108 10.2619C9.66301 10.1677 9.70228 10.0781 9.77025 10.0128C9.83823 9.94755 9.92935 9.91197 10.0236 9.91389C10.1178 9.91582 10.2074 9.95508 10.2726 10.0231L26.6762 26.4266C26.7413 26.492 26.7779 26.5805 26.7779 26.6727C26.7779 26.7649 26.7413 26.8534 26.6762 26.9188C26.5772 26.9566 26.4677 26.9566 26.3686 26.9188V26.9188Z" fill="#121212"/>
<path d="M26.3685 26.9184H26.225L6.17159 15.2924C6.10183 15.2534 6.04997 15.1888 6.02701 15.1122C6.00405 15.0357 6.01178 14.9532 6.04857 14.8823C6.10496 14.8318 6.17796 14.804 6.25361 14.804C6.32927 14.804 6.40227 14.8318 6.45866 14.8823L26.5325 26.4673C26.5952 26.5126 26.6399 26.5786 26.6587 26.6536C26.6774 26.7287 26.6691 26.8079 26.6351 26.8774C26.5956 26.9016 26.5517 26.9177 26.5059 26.9247C26.4601 26.9318 26.4134 26.9296 26.3685 26.9184V26.9184Z" fill="#121212"/>
<path d="M26.3688 26.9186L3.91634 20.9108C3.84152 20.887 3.77861 20.8356 3.74049 20.767C3.70237 20.6984 3.69192 20.6178 3.7113 20.5417C3.71935 20.498 3.73745 20.4567 3.76416 20.4212C3.79087 20.3857 3.82547 20.3568 3.86523 20.3369C3.90499 20.3171 3.94882 20.3067 3.99327 20.3066C4.03773 20.3066 4.08158 20.3169 4.12139 20.3366L26.4918 26.324C26.5303 26.3333 26.5665 26.3505 26.5981 26.3745C26.6297 26.3986 26.6559 26.4289 26.6752 26.4636C26.6945 26.4982 26.7063 26.5365 26.7101 26.576C26.7138 26.6155 26.7093 26.6554 26.6968 26.693C26.6921 26.7303 26.6796 26.7662 26.66 26.7983C26.6405 26.8305 26.6144 26.8581 26.5834 26.8794C26.5524 26.9007 26.5172 26.9152 26.4803 26.9219C26.4433 26.9287 26.4053 26.9276 26.3688 26.9186V26.9186Z" fill="#121212"/>
<path d="M26.3685 26.9184H3.21894C3.13737 26.9184 3.05914 26.886 3.00146 26.8283C2.94378 26.7706 2.91138 26.6924 2.91138 26.6108C2.91659 26.5328 2.95128 26.4598 3.0084 26.4064C3.06553 26.3531 3.1408 26.3236 3.21894 26.3237H26.3685C26.4466 26.3236 26.5219 26.3531 26.5791 26.4064C26.6362 26.4598 26.6709 26.5328 26.6761 26.6108C26.6761 26.6924 26.6437 26.7706 26.586 26.8283C26.5283 26.886 26.4501 26.9184 26.3685 26.9184V26.9184Z" fill="#121212"/>
<path d="M3.99816 32.9062C3.9325 32.9042 3.8692 32.8812 3.81755 32.8406C3.76589 32.8 3.72859 32.7439 3.7111 32.6806C3.69737 32.6076 3.71058 32.532 3.74828 32.4679C3.78597 32.4038 3.84561 32.3556 3.91614 32.332L26.307 26.3242C26.3448 26.3152 26.384 26.314 26.4222 26.3206C26.4605 26.3271 26.497 26.3414 26.5296 26.3625C26.5621 26.3835 26.5901 26.411 26.6118 26.4432C26.6334 26.4754 26.6484 26.5117 26.6556 26.5498C26.6743 26.6232 26.6633 26.701 26.6249 26.7663C26.5865 26.8316 26.5238 26.8791 26.4506 26.8984L4.12119 32.9062H3.99816Z" fill="#121212"/>
<path d="M6.31553 38.5036C6.26095 38.5006 6.20798 38.4841 6.16143 38.4554C6.11488 38.4268 6.07622 38.3869 6.04897 38.3396C6.03122 38.306 6.02033 38.2692 6.01691 38.2313C6.01349 38.1935 6.01763 38.1553 6.02907 38.1191C6.04052 38.0828 6.05904 38.0492 6.08358 38.0202C6.10811 37.9912 6.13817 37.9673 6.172 37.95L26.2254 26.3649C26.2818 26.3145 26.3548 26.2866 26.4304 26.2866C26.5061 26.2866 26.5791 26.3145 26.6355 26.3649C26.6695 26.4344 26.6778 26.5137 26.6591 26.5887C26.6403 26.6637 26.5956 26.7297 26.533 26.775L6.45906 38.4626L6.31553 38.5036Z" fill="#121212"/>
<path d="M9.98576 43.322C9.91917 43.3439 9.84731 43.3439 9.78071 43.322C9.73028 43.2656 9.70239 43.1926 9.70239 43.117C9.70239 43.0413 9.73028 42.9683 9.78071 42.9119L26.1843 26.5083C26.2418 26.452 26.3191 26.4204 26.3996 26.4204C26.4801 26.4204 26.5574 26.452 26.6149 26.5083C26.6677 26.5611 26.7022 26.6294 26.7133 26.7032C26.7243 26.7771 26.7114 26.8525 26.6764 26.9184L10.2728 43.322C10.2281 43.3438 10.179 43.3551 10.1293 43.3551C10.0796 43.3551 10.0305 43.3438 9.98576 43.322V43.322Z" fill="#121212"/>
<path d="M14.7836 46.9715C14.7371 46.9871 14.6867 46.9871 14.6401 46.9715C14.5897 46.9151 14.5618 46.8421 14.5618 46.7664C14.5618 46.6908 14.5897 46.6178 14.6401 46.5614L26.2251 26.508C26.2815 26.4576 26.3545 26.4297 26.4302 26.4297C26.5058 26.4297 26.5788 26.4576 26.6352 26.508C26.6979 26.5533 26.7426 26.6193 26.7613 26.6943C26.7801 26.7694 26.7717 26.8486 26.7377 26.9181L15.0502 46.8279C15.0219 46.8728 14.9825 46.9096 14.9358 46.9348C14.8891 46.9599 14.8367 46.9726 14.7836 46.9715V46.9715Z" fill="#121212"/>
<path d="M20.3818 49.2886C20.307 49.2649 20.2441 49.2135 20.2059 49.1448C20.1678 49.0762 20.1574 48.9956 20.1768 48.9196L26.1641 26.5492C26.1835 26.4706 26.2332 26.4028 26.3023 26.3606C26.3714 26.3183 26.4543 26.3051 26.5331 26.3236C26.5717 26.333 26.6079 26.3502 26.6395 26.3742C26.671 26.3982 26.6973 26.4285 26.7166 26.4632C26.7358 26.4979 26.7477 26.5362 26.7514 26.5757C26.7551 26.6152 26.7506 26.655 26.7382 26.6927L20.6689 49.0631C20.6514 49.1264 20.6141 49.1825 20.5624 49.2231C20.5108 49.2637 20.4475 49.2866 20.3818 49.2886V49.2886Z" fill="#121212"/>
<path d="M26.3689 50.0884C26.2909 50.0832 26.2178 50.0485 26.1645 49.9914C26.1112 49.9343 26.0816 49.859 26.0818 49.7809V26.6108C26.0818 26.5347 26.112 26.4616 26.1659 26.4078C26.2197 26.354 26.2927 26.3237 26.3689 26.3237C26.447 26.3236 26.5223 26.3531 26.5794 26.4064C26.6365 26.4598 26.6712 26.5328 26.6764 26.6108V49.7809C26.6764 49.8624 26.644 49.9407 26.5863 49.9983C26.5287 50.056 26.4504 50.0884 26.3689 50.0884V50.0884Z" fill="#121212"/>
<path d="M32.3768 49.2893C32.3092 49.2952 32.2419 49.2752 32.1886 49.2333C32.1353 49.1914 32.0999 49.1308 32.0897 49.0637L26.0819 26.6933C26.0634 26.6145 26.0766 26.5315 26.1189 26.4624C26.1611 26.3933 26.2289 26.3437 26.3075 26.3242C26.3452 26.3152 26.3844 26.314 26.4226 26.3206C26.4609 26.3271 26.4974 26.3414 26.53 26.3625C26.5626 26.3835 26.5905 26.411 26.6122 26.4432C26.6339 26.4754 26.6488 26.5117 26.656 26.5498L32.6639 48.9202C32.6824 48.999 32.6692 49.082 32.6269 49.1511C32.5847 49.2202 32.5169 49.2698 32.4383 49.2893H32.3768Z" fill="#121212"/>
<path d="M37.9537 46.9716C37.9029 46.9761 37.8519 46.9648 37.8078 46.9391C37.7637 46.9133 37.7287 46.8745 37.7076 46.8281L26.1226 26.7747C26.1021 26.7088 26.1042 26.638 26.1288 26.5736C26.1533 26.5091 26.1988 26.4548 26.258 26.4193C26.3171 26.3838 26.3864 26.3693 26.4549 26.3779C26.5233 26.3866 26.5868 26.418 26.6352 26.4671L38.2203 46.5205C38.257 46.5914 38.2648 46.6739 38.2418 46.7505C38.2188 46.827 38.167 46.8916 38.0972 46.9306C38.0783 46.9483 38.0553 46.9612 38.0304 46.9684C38.0054 46.9755 37.9792 46.9766 37.9537 46.9716V46.9716Z" fill="#121212"/>
<path d="M42.7519 43.322C42.6859 43.3472 42.6129 43.3472 42.5469 43.322L26.1433 26.9184C26.0989 26.8591 26.0773 26.7859 26.0826 26.712C26.0878 26.6382 26.1195 26.5687 26.1719 26.5164C26.2242 26.464 26.2937 26.4323 26.3676 26.427C26.4414 26.4218 26.5147 26.4434 26.5739 26.4878L42.9775 42.8914C43.0076 42.9164 43.0318 42.9477 43.0485 42.9832C43.0651 43.0186 43.0737 43.0573 43.0737 43.0964C43.0737 43.1356 43.0651 43.1742 43.0485 43.2097C43.0318 43.2451 43.0076 43.2764 42.9775 43.3015C42.9443 43.3227 42.9065 43.3356 42.8672 43.3392C42.828 43.3428 42.7884 43.3369 42.7519 43.322Z" fill="#121212"/>
<path d="M46.4428 38.5035H46.2788L26.2254 26.9184C26.1763 26.87 26.1449 26.8065 26.1362 26.7381C26.1276 26.6697 26.1421 26.6003 26.1776 26.5412C26.2131 26.482 26.2674 26.4365 26.3319 26.412C26.3963 26.3874 26.4671 26.3853 26.533 26.4058L46.5864 37.9908C46.6512 38.0293 46.6983 38.0917 46.7174 38.1646C46.7366 38.2375 46.7264 38.315 46.6889 38.3804C46.6629 38.4214 46.6263 38.4545 46.583 38.4761C46.5396 38.4978 46.4911 38.5073 46.4428 38.5035V38.5035Z" fill="#121212"/>
<path d="M48.7599 32.9058L26.3075 26.9185C26.2694 26.9112 26.2331 26.8963 26.2009 26.8747C26.1687 26.853 26.1412 26.825 26.1201 26.7924C26.0991 26.7599 26.0848 26.7233 26.0782 26.6851C26.0717 26.6469 26.0729 26.6077 26.0819 26.5699C26.1014 26.4913 26.151 26.4235 26.2201 26.3813C26.2892 26.3391 26.3722 26.3258 26.451 26.3444L48.8214 32.3317C48.8595 32.3389 48.8958 32.3539 48.928 32.3755C48.9602 32.3972 48.9876 32.4252 49.0087 32.4577C49.0298 32.4903 49.0441 32.5268 49.0506 32.5651C49.0572 32.6033 49.0559 32.6425 49.0469 32.6803C49.0295 32.7436 48.9922 32.7996 48.9405 32.8402C48.8888 32.8808 48.8255 32.9038 48.7599 32.9058V32.9058Z" fill="#121212"/>
<path d="M49.5389 26.9184H26.3689C26.2909 26.9132 26.2178 26.8785 26.1645 26.8213C26.1112 26.7642 26.0816 26.6889 26.0818 26.6108C26.0818 26.5347 26.112 26.4616 26.1659 26.4078C26.2197 26.354 26.2927 26.3237 26.3689 26.3237H49.5389C49.6171 26.3236 49.6923 26.3531 49.7495 26.4064C49.8066 26.4598 49.8413 26.5328 49.8465 26.6108C49.8465 26.6924 49.8141 26.7706 49.7564 26.8283C49.6987 26.886 49.6205 26.9184 49.5389 26.9184V26.9184Z" fill="#121212"/>
<path d="M26.369 26.9184C26.3033 26.9164 26.24 26.8934 26.1884 26.8528C26.1367 26.8122 26.0994 26.7561 26.0819 26.6928C26.0634 26.614 26.0766 26.531 26.1189 26.4619C26.1611 26.3928 26.2289 26.3432 26.3075 26.3237L48.6779 20.3364C48.7539 20.317 48.8345 20.3275 48.9031 20.3656C48.9718 20.4037 49.0232 20.4666 49.0469 20.5415C49.0655 20.6203 49.0522 20.7033 49.01 20.7724C48.9678 20.8414 48.9 20.8911 48.8214 20.9105L26.451 26.9184H26.369Z" fill="#121212"/>
<path d="M26.3688 26.9185C26.3189 26.918 26.2699 26.9046 26.2267 26.8794C26.1836 26.8542 26.1477 26.8182 26.1228 26.775C26.0723 26.7186 26.0444 26.6456 26.0444 26.5699C26.0444 26.4943 26.0723 26.4213 26.1228 26.3649L46.1761 14.7798C46.242 14.7593 46.3128 14.7615 46.3772 14.786C46.4417 14.8106 46.496 14.8561 46.5315 14.9152C46.567 14.9743 46.5816 15.0437 46.5729 15.1121C46.5642 15.1805 46.5328 15.244 46.4837 15.2924L26.5328 26.9185H26.3688Z" fill="#121212"/>
<path d="M26.369 26.9181C26.3017 26.9346 26.2313 26.9346 26.164 26.9181C26.1334 26.8912 26.109 26.8581 26.0922 26.8209C26.0754 26.7838 26.0668 26.7435 26.0668 26.7028C26.0668 26.6621 26.0754 26.6218 26.0922 26.5847C26.109 26.5476 26.1334 26.5145 26.164 26.4875L42.5675 10.0839C42.6239 10.0335 42.6969 10.0056 42.7726 10.0056C42.8482 10.0056 42.9212 10.0335 42.9776 10.0839C43.034 10.1414 43.0656 10.2187 43.0656 10.2992C43.0656 10.3797 43.034 10.457 42.9776 10.5145L26.5741 26.9181C26.5067 26.9346 26.4364 26.9346 26.369 26.9181V26.9181Z" fill="#121212"/>
<path d="M26.3687 26.9188H26.2252C26.1747 26.8624 26.1469 26.7894 26.1469 26.7137C26.1469 26.6381 26.1747 26.5651 26.2252 26.5087L37.7077 6.41431C37.725 6.38048 37.7489 6.35042 37.7779 6.32589C37.8069 6.30135 37.8405 6.28283 37.8768 6.27138C37.913 6.25994 37.9512 6.2558 37.989 6.25922C38.0269 6.26263 38.0637 6.27353 38.0973 6.29128C38.167 6.33026 38.2189 6.39486 38.2418 6.47141C38.2648 6.54795 38.2571 6.63043 38.2203 6.70137L26.6763 26.7753C26.6415 26.8234 26.595 26.8619 26.5411 26.887C26.4873 26.9121 26.428 26.9231 26.3687 26.9188Z" fill="#121212"/>
<path d="M26.3684 26.9183C26.3303 26.911 26.294 26.8961 26.2618 26.8745C26.2296 26.8528 26.2021 26.8248 26.1811 26.7923C26.16 26.7597 26.1457 26.7232 26.1392 26.6849C26.1326 26.6467 26.1338 26.6075 26.1428 26.5697L32.0891 4.15833C32.1126 4.08779 32.1609 4.02816 32.225 3.99046C32.2891 3.95277 32.3646 3.93956 32.4377 3.95329C32.5163 3.97272 32.5841 4.02238 32.6263 4.09148C32.6686 4.16058 32.6818 4.24354 32.6633 4.32237L26.676 26.6928C26.671 26.7279 26.659 26.7618 26.6407 26.7923C26.6225 26.8228 26.5983 26.8493 26.5697 26.8703C26.541 26.8913 26.5084 26.9064 26.4739 26.9146C26.4393 26.9229 26.4034 26.9241 26.3684 26.9183V26.9183Z" fill="#121212"/>
<path d="M26.3688 0.262703C21.1526 0.262705 16.0537 1.80972 11.7169 4.70807C7.38017 7.60641 4.00044 11.7259 2.00525 16.5453C0.0100657 21.3648 -0.510925 26.6677 0.508182 31.7833C1.52729 36.8989 4.04071 41.5973 7.7305 45.2843C11.4203 48.9712 16.1207 51.4809 21.2371 52.4961C26.3535 53.5112 31.656 52.9861 36.4739 50.9871C41.2918 48.9882 45.4086 45.6053 48.3036 41.2663C51.1985 36.9272 52.7416 31.8271 52.7375 26.611C52.7375 23.1491 52.0553 19.7212 50.7299 16.5232C49.4045 13.3251 47.4619 10.4196 45.0131 7.97268C42.5642 5.52575 39.6572 3.58538 36.4581 2.26246C33.259 0.939539 29.8306 0.260009 26.3688 0.262703V0.262703ZM26.3688 50.8678C21.5712 50.8678 16.8814 49.4451 12.8924 46.7798C8.9034 44.1144 5.79435 40.326 3.95841 35.8936C2.12246 31.4613 1.6421 26.5841 2.57805 21.8787C3.51401 17.1733 5.82424 12.8512 9.21662 9.45881C12.609 6.06644 16.9311 3.7562 21.6365 2.82025C26.3419 1.88429 31.2191 2.36466 35.6514 4.2006C40.0838 6.03654 43.8722 9.1456 46.5376 13.1346C49.2029 17.1236 50.6256 21.8134 50.6256 26.611C50.6256 33.0443 48.07 39.2141 43.5209 43.7631C38.9719 48.3121 32.8021 50.8678 26.3688 50.8678V50.8678Z" fill="#121212"/>
<path d="M26.3686 2.31299C21.558 2.31299 16.8555 3.73975 12.856 6.41279C8.85638 9.08583 5.73945 12.885 3.89946 17.3298C2.05947 21.7746 1.57909 26.6653 2.51908 31.3831C3.45907 36.101 5.7772 40.434 9.18023 43.8342C12.5833 47.2344 16.9183 49.5488 21.6369 50.4849C26.3556 51.4209 31.2458 50.9364 35.689 49.0926C40.1323 47.2489 43.9289 44.1287 46.5985 40.1269C49.2682 36.1251 50.691 31.4214 50.6869 26.6108C50.6815 20.1647 48.117 13.9845 43.557 9.42841C38.997 4.87227 32.8147 2.31299 26.3686 2.31299V2.31299ZM26.3686 49.7809C21.786 49.7809 17.3063 48.422 13.496 45.876C9.68572 43.3301 6.71595 39.7114 4.96226 35.4776C3.20857 31.2438 2.74973 26.5851 3.64375 22.0905C4.53777 17.596 6.74451 13.4675 9.9849 10.2271C13.2253 6.9867 17.3538 4.77996 21.8484 3.88594C26.3429 2.99192 31.0016 3.45076 35.2354 5.20445C39.4692 6.95814 43.0879 9.9279 45.6338 13.7382C48.1798 17.5485 49.5387 22.0282 49.5387 26.6108C49.5414 29.6543 48.9439 32.6685 47.7805 35.4808C46.617 38.2931 44.9104 40.8485 42.7583 43.0005C40.6063 45.1526 38.0509 46.8592 35.2386 48.0226C32.4263 49.1861 29.4121 49.7836 26.3686 49.7809V49.7809Z" fill="#121212"/>
</svg>
