<?xml version="1.0" encoding="utf-8"?>
<!-- Generator: Adobe Illustrator 26.2.1, SVG Export Plug-In . SVG Version: 6.00 Build 0)  -->
<svg version="1.1" id="图层_1" xmlns="http://www.w3.org/2000/svg" xmlns:xlink="http://www.w3.org/1999/xlink" x="0px" y="0px"
	 viewBox="0 0 83.8 95.7" style="enable-background:new 0 0 83.8 95.7;" xml:space="preserve">
<path d="M10.7,6.4c3.6,0.4,6.9-0.2,9.5-2.9c0.4-0.3,0.8-0.6,1.2-0.9c3.2-2.6,6.9-3,10.9-2.2c6.2,1.3,11.3,5.2,17,7.6
	c1.3,0.6,2.4,1,3.7,0.6c4.9-1.4,9.7-2.9,14.6-4.4c0.6-0.2,1.1-0.5,1.7-0.6c1.9-0.5,2.7,0,2.9,1.9c0.4,4.3-0.7,8.2-3.7,11.3
	c-1.6,1.6-3.4,2.9-5.1,4.4c-0.7,0.6-1.4,1.2-1.8,1.9c-0.2,0.6-0.6,1-1.1,1.4c-0.5,0.4-1,0.6-1.6,0.8c-2.1,0.5-2.2,0.8-1.7,3
	c0.3,1.4,0.8,2.9,0.5,4.3c-0.5,2.5-4.2,5.2-6.8,5.5c-0.5,0.1-1,0.5-1.5,0.7l0.1,0.6c0.9,0.1,1.9,0.3,2.8,0.3c3,0.1,7.3,3.3,7.8,6.1
	c0.4,2.1,1.5,3.5,3.1,4.6c1.9,1.3,3.9,2.6,6,3.6c2.7,1.3,5.9,1.9,8.4,3.6c1.4,0.9,2.6,1.1,3.7,0.9c0.9,0.6,1.8,1.3,2.6,2.1l0,0
	c0,0.1,0.1,0.3,0.1,0.4c-0.6,1.1-1.7,2.3-3.8,3.2l-0.1,0c-0.2,0-0.4,0.1-0.6,0.2c-1.4,1.3-2.9,2-4.9,1.4c0,0-0.1,0-0.1,0l-2.9-1.8
	c0-0.1,0-0.2,0-0.3l-3.8-1.7c-4.2-1.3-8.5-2.5-12.9-3.9c0.5,1.6,0.9,3,1.3,4.4c0.3,0.9,0.8,1.2,1.8,1.3c2.3,0.2,4.7,0.5,7,0.8H65
	l1.3,0.1c3,0.4,5.1,1,6.5,1.6h0c0.3,0.1,0.6,0.2,0.9,0.4l0.1,0.1c2,1.1,2.9,2.7,3.4,4.5c1.7,5.2,3.4,10.5,5,15.8
	c1,3.4,0.6,4.2-2.7,5.5c-4.9,1.8-10,2.2-15.1,2.6c-0.7,0.1-21.6-1.4-24.7-2.1l8.7-15.4c0,0-4.9,0-8.2-2.1c-2.7-2.4-3.3-5.1-2.4-7.9
	c1.1-3.5,2.6-6.8,3.8-10.2c0.3-0.8,0.4-1.6,0.3-2.5c-0.4-2.9-1.3-5.6-3.9-7.5c-0.5-0.4-0.9-0.9-1.5-1.5C36,50,35.1,51,32.8,51.4
	c-0.5-0.8-0.8-1.7-1.4-2.1c-2.7-2-2.8-2.1-1.5-5l-1-0.6c1.7-0.8,1.7-1.7,0.4-2.8c-1-0.8-1.8-1.7-2.7-2.5l0.3-0.5h-3.8
	c0.6-0.7,1.1-1.1,1.4-1.6c2.9-4.4,6.8-8.5,5.9-14.5c-0.3-2.1-0.7-4.2-1.5-6.1c-0.4-0.9-0.9-1.5,0.2-2.6c-1.8,0.2-0.9-0.8-0.9-1.3
	c-1-0.5-2.7,0.3-2.3-1.8c-1.3,0.4-2.5,0.7-3.6,1.1C19,12.4,15.9,12.1,13,10c-2.1-1.5-4.2-2.9-7-3.3C7.6,6.4,9.1,6.2,10.7,6.4z
	 M64,56.9l0.1-0.2l-7.7-4.9l-1.6,1.8L64,56.9z M43.5,36.4l1.3-1.5h-2.5c-0.1,1.6-0.3,3.1-0.4,4.8C44.3,38.6,44.3,38.6,43.5,36.4
	L43.5,36.4z"/>
</svg>
