<?xml version="1.0" encoding="utf-8"?>
<!-- Generator: Adobe Illustrator 26.2.1, SVG Export Plug-In . SVG Version: 6.00 Build 0)  -->
<svg version="1.1" id="图层_1" xmlns="http://www.w3.org/2000/svg" xmlns:xlink="http://www.w3.org/1999/xlink" x="0px" y="0px"
	 viewBox="0 0 370 754" style="enable-background:new 0 0 370 754;" xml:space="preserve">
<style type="text/css">
	.st0{fill:#FFFFFF;filter:url(#Adobe_OpacityMaskFilter);}
	
		.st1{mask:url(#path-1-inside-1_753_1773_00000142865691303078884570000009831592173073000363_);fill:#FFE600;stroke:#121212;stroke-width:2;}
	.st2{fill:#FFE600;stroke:#121212;}
	.st3{fill:#FFE600;stroke:#121212;stroke-width:2;}
	.st4{fill:#121212;}
</style>
<defs>
	<filter id="Adobe_OpacityMaskFilter" filterUnits="userSpaceOnUse" x="-1.4" y="4.9" width="62.4" height="62.1">
		<feColorMatrix  type="matrix" values="1 0 0 0 0  0 1 0 0 0  0 0 1 0 0  0 0 0 1 0"/>
	</filter>
</defs>
<mask maskUnits="userSpaceOnUse" x="-1.4" y="4.9" width="62.4" height="62.1" id="path-1-inside-1_753_1773_00000142865691303078884570000009831592173073000363_">
	<path class="st0" d="M59.9,33.9c-1.8,1.5-3.6,1.1-5.2-0.1c-0.5-0.3-1-0.7-1.5-1.1c-2.3-2.2-4.8-3.2-7.8-1.1c-0.2-0.5-0.2-1.1,0-1.6
		c0.2-0.5,0.6-0.9,1.1-1.1c1.4-0.6,2.8-1.1,4.3-1.4c1.1-0.2,2.1-0.7,3-1.5c0.8-0.8,1.4-1.8,1.7-2.9c0.2-0.6,0.3-1.3,0.1-2
		c-0.1-0.7-0.4-1.3-0.8-1.8c-1.1,2.8-3.3,2.8-5.6,2.5c-0.5-0.1-0.9-0.2-1.4-0.3c-2.8-0.6-5.3,0-6.7,2.8c0,0-0.1,0.1-0.3,0.1
		c-0.4-0.4-0.6-0.9-0.6-1.5c0-0.5,0.2-1.1,0.5-1.5c0.8-1.1,1.6-2.1,2.6-2.9c0.7-0.6,1.3-1.3,1.6-2.1c0.4-0.8,0.6-1.7,0.7-2.6
		c0.1-0.9-0.1-1.9-0.6-2.7c-0.5-0.8-1.2-1.5-2-1.9c0.4,2.8-1.4,4-3.5,4.8c-0.7,0.3-1.5,0.5-2.2,0.8c-1.1,0.3-2.1,1-2.7,2
		c-0.7,0.9-1,2.1-0.9,3.2c0,0.2,0,0.4-0.1,0.5c-0.6-0.2-1.1-0.6-1.4-1.1c-0.3-0.5-0.4-1.2-0.3-1.8c0.2-1.3,0.5-2.5,1-3.7
		c0.4-1.3,0.4-2.6,0-3.9c-0.4-1.3-1.3-2.3-2.4-3.1C29.8,6.5,29,6.2,28.1,6l-0.2,0.3c1.7,2.2,0.8,4.1-0.6,5.8
		c-0.3,0.4-0.6,0.7-0.9,1.1c-2.3,2.6-2.6,4.2-1.1,7.4c0,0,0,0.1-0.1,0.3c-0.5,0.1-1.1,0.1-1.5-0.2c-0.5-0.2-0.8-0.7-1-1.1
		c-0.6-1.3-1-2.7-1.3-4c-0.2-1-0.6-2-1.3-2.8c-0.7-0.8-1.5-1.4-2.5-1.8c-0.7-0.3-1.5-0.4-2.3-0.4c-0.8,0.1-1.5,0.3-2.2,0.7
		c2.5,1.1,2.9,3,2.6,5.1c-0.1,0.7-0.2,1.3-0.3,1.9c-0.7,3.2,0,4.9,2.8,6.6c0,0,0.1,0.1,0.1,0.2c-0.4,0.4-0.9,0.7-1.5,0.7
		c-0.6,0-1.1-0.2-1.6-0.5c-1-0.8-1.9-1.8-2.9-2.7C11.8,22,11,21.5,10.2,21c-1.2-0.7-2.6-0.8-3.9-0.4C5,21,3.9,21.9,3.2,23.1
		c2.5-0.3,3.8,1.2,4.7,3.2c0.2,0.5,0.4,0.9,0.5,1.4c0.9,3,2.6,5,6.1,4.8c-0.1,0.3-0.2,0.6-0.4,0.8c-0.2,0.2-0.4,0.5-0.7,0.6
		c-0.3,0.2-0.5,0.3-0.8,0.3c-0.3,0-0.6,0-0.9,0c-1.3-0.2-2.7-0.6-4-1c-1.3-0.4-2.6-0.4-3.9,0.1s-2.3,1.3-3,2.4
		c-0.4,0.8-0.7,1.7-0.9,2.6c2.9-1.3,3.9-1.2,6,0.4c0.7,0.5,1.3,1.1,1.9,1.6c0.8,0.8,1.9,1.3,3.1,1.5c1.2,0.1,2.3-0.2,3.3-0.8
		c0.2-0.1,0.4-0.1,0.6-0.1c0.1,0.6,0,1.2-0.2,1.7c-0.3,0.5-0.7,0.9-1.3,1.1c-1.3,0.5-2.6,0.9-4,1.2c-1.1,0.2-2.1,0.7-2.9,1.5
		s-1.4,1.7-1.6,2.8c-0.2,0.6-0.3,1.3-0.2,1.9c0.1,0.7,0.3,1.3,0.7,1.8c1.7-2.1,2.1-2.5,3.7-2.5c1.2,0,2.3,0.2,3.4,0.4
		c2.7,0.5,5.2,0,6.4-2.6c0.1-0.1,0.2-0.2,0.3-0.3c0.4,0.5,0.7,1.1,0.7,1.8c0,0.7-0.3,1.3-0.7,1.7c-0.8,0.9-1.6,1.8-2.5,2.6
		c-0.7,0.6-1.3,1.4-1.7,2.3c-0.4,0.9-0.5,1.8-0.5,2.8c0.1,1.9,1.2,3.6,2.6,4c-0.3-2.5,1.1-3.7,3.2-4.6c0.8-0.3,1.7-0.6,2.5-1
		c1.1-0.3,2.1-1,2.7-2c0.7-0.9,1-2.1,0.9-3.2c0-0.2,0-0.4,0.1-0.6c0.5,0.1,0.9,0.4,1.2,0.9c0.3,0.4,0.4,0.9,0.3,1.4
		c-0.1,1.5-0.4,2.9-0.8,4.3c-0.5,1.5-0.5,3.1,0.1,4.6c0.9,2.1,2.9,3.5,4.9,3.1c-0.6-0.7-0.9-1.6-0.9-2.5c0-0.9,0.3-1.8,0.9-2.5
		c0.5-0.7,1-1.4,1.6-2c1.9-2.2,2.8-4.5,1-7.2c0-0.1,0-0.2,0-0.4c0.5-0.1,1-0.1,1.5,0.1c0.5,0.2,0.8,0.6,1,1.1c0.6,1.1,1,2.3,1.3,3.6
		c0.5,2.7,1.8,4.5,4.4,5.3c0.7,0.2,1.4,0.3,2.1,0.2c0.7-0.1,1.3-0.4,1.9-0.8c-2.6-1-2.8-3.1-2.5-5.3c0.1-0.8,0.3-1.7,0.4-2.5
		c0.3-1.1,0.2-2.2-0.3-3.3s-1.2-1.9-2.2-2.4c-0.2-0.1-0.4-0.3-0.7-0.5c0.4-0.4,1-0.6,1.5-0.6c0.6,0,1.1,0.2,1.6,0.5
		c1,0.7,1.9,1.5,2.7,2.4c1.1,1.4,2.6,2.3,4.3,2.5c2.2,0.3,4.5-0.8,5.1-2.5c-2.9-0.5-3.5-0.9-4.5-3.3c-0.3-0.8-0.6-1.6-0.9-2.4
		c-0.3-0.9-0.8-1.8-1.5-2.5c-0.7-0.7-1.6-1.1-2.6-1.3c-0.6-0.1-1.2-0.1-1.7-0.1c0.4-1.2,1-1.7,2.1-1.7c1.5,0.1,3,0.4,4.4,0.8
		c1.2,0.4,2.6,0.5,3.8,0.1c1.3-0.4,2.4-1.1,3.1-2.2c0.3-0.4,0.6-0.9,0.7-1.4C60,34.9,60,34.4,59.9,33.9z M30,46.7
		c-2.1,0-4.2-0.6-5.9-1.8c-1.8-1.2-3.1-2.8-3.9-4.8c-0.8-2-1-4.1-0.6-6.2c0.4-2.1,1.4-4,2.9-5.5c1.5-1.5,3.4-2.5,5.5-2.9
		c2.1-0.4,4.2-0.2,6.2,0.6c2,0.8,3.6,2.2,4.8,3.9c1.2,1.8,1.8,3.8,1.8,5.9c0,2.8-1.1,5.6-3.1,7.6C35.6,45.6,32.8,46.7,30,46.7z"/>
</mask>
<path class="st1" d="M59.9,33.9c-1.8,1.5-3.6,1.1-5.2-0.1c-0.5-0.3-1-0.7-1.5-1.1c-2.3-2.2-4.8-3.2-7.8-1.1c-0.2-0.5-0.2-1.1,0-1.6
	c0.2-0.5,0.6-0.9,1.1-1.1c1.4-0.6,2.8-1.1,4.3-1.4c1.1-0.2,2.1-0.7,3-1.5c0.8-0.8,1.4-1.8,1.7-2.9c0.2-0.6,0.3-1.3,0.1-2
	c-0.1-0.7-0.4-1.3-0.8-1.8c-1.1,2.8-3.3,2.8-5.6,2.5c-0.5-0.1-0.9-0.2-1.4-0.3c-2.8-0.6-5.3,0-6.7,2.8c0,0-0.1,0.1-0.3,0.1
	c-0.4-0.4-0.6-0.9-0.6-1.5c0-0.5,0.2-1.1,0.5-1.5c0.8-1.1,1.6-2.1,2.6-2.9c0.7-0.6,1.3-1.3,1.6-2.1c0.4-0.8,0.6-1.7,0.7-2.6
	c0.1-0.9-0.1-1.9-0.6-2.7c-0.5-0.8-1.2-1.5-2-1.9c0.4,2.8-1.4,4-3.5,4.8c-0.7,0.3-1.5,0.5-2.2,0.8c-1.1,0.3-2.1,1-2.7,2
	c-0.7,0.9-1,2.1-0.9,3.2c0,0.2,0,0.4-0.1,0.5c-0.6-0.2-1.1-0.6-1.4-1.1c-0.3-0.5-0.4-1.2-0.3-1.8c0.2-1.3,0.5-2.5,1-3.7
	c0.4-1.3,0.4-2.6,0-3.9c-0.4-1.3-1.3-2.3-2.4-3.1C29.8,6.5,29,6.2,28.1,6l-0.2,0.3c1.7,2.2,0.8,4.1-0.6,5.8
	c-0.3,0.4-0.6,0.7-0.9,1.1c-2.3,2.6-2.6,4.2-1.1,7.4c0,0,0,0.1-0.1,0.3c-0.5,0.1-1.1,0.1-1.5-0.2c-0.5-0.2-0.8-0.7-1-1.1
	c-0.6-1.3-1-2.7-1.3-4c-0.2-1-0.6-2-1.3-2.8c-0.7-0.8-1.5-1.4-2.5-1.8c-0.7-0.3-1.5-0.4-2.3-0.4c-0.8,0.1-1.5,0.3-2.2,0.7
	c2.5,1.1,2.9,3,2.6,5.1c-0.1,0.7-0.2,1.3-0.3,1.9c-0.7,3.2,0,4.9,2.8,6.6c0,0,0.1,0.1,0.1,0.2c-0.4,0.4-0.9,0.7-1.5,0.7
	c-0.6,0-1.1-0.2-1.6-0.5c-1-0.8-1.9-1.8-2.9-2.7C11.8,22,11,21.5,10.2,21c-1.2-0.7-2.6-0.8-3.9-0.4C5,21,3.9,21.9,3.2,23.1
	c2.5-0.3,3.8,1.2,4.7,3.2c0.2,0.5,0.4,0.9,0.5,1.4c0.9,3,2.6,5,6.1,4.8c-0.1,0.3-0.2,0.6-0.4,0.8c-0.2,0.2-0.4,0.5-0.7,0.6
	c-0.3,0.2-0.5,0.3-0.8,0.3c-0.3,0-0.6,0-0.9,0c-1.3-0.2-2.7-0.6-4-1c-1.3-0.4-2.6-0.4-3.9,0.1s-2.3,1.3-3,2.4
	c-0.4,0.8-0.7,1.7-0.9,2.6c2.9-1.3,3.9-1.2,6,0.4c0.7,0.5,1.3,1.1,1.9,1.6c0.8,0.8,1.9,1.3,3.1,1.5c1.2,0.1,2.3-0.2,3.3-0.8
	c0.2-0.1,0.4-0.1,0.6-0.1c0.1,0.6,0,1.2-0.2,1.7c-0.3,0.5-0.7,0.9-1.3,1.1c-1.3,0.5-2.6,0.9-4,1.2c-1.1,0.2-2.1,0.7-2.9,1.5
	s-1.4,1.7-1.6,2.8c-0.2,0.6-0.3,1.3-0.2,1.9c0.1,0.7,0.3,1.3,0.7,1.8c1.7-2.1,2.1-2.5,3.7-2.5c1.2,0,2.3,0.2,3.4,0.4
	c2.7,0.5,5.2,0,6.4-2.6c0.1-0.1,0.2-0.2,0.3-0.3c0.4,0.5,0.7,1.1,0.7,1.8c0,0.7-0.3,1.3-0.7,1.7c-0.8,0.9-1.6,1.8-2.5,2.6
	c-0.7,0.6-1.3,1.4-1.7,2.3c-0.4,0.9-0.5,1.8-0.5,2.8c0.1,1.9,1.2,3.6,2.6,4c-0.3-2.5,1.1-3.7,3.2-4.6c0.8-0.3,1.7-0.6,2.5-1
	c1.1-0.3,2.1-1,2.7-2c0.7-0.9,1-2.1,0.9-3.2c0-0.2,0-0.4,0.1-0.6c0.5,0.1,0.9,0.4,1.2,0.9c0.3,0.4,0.4,0.9,0.3,1.4
	c-0.1,1.5-0.4,2.9-0.8,4.3c-0.5,1.5-0.5,3.1,0.1,4.6c0.9,2.1,2.9,3.5,4.9,3.1c-0.6-0.7-0.9-1.6-0.9-2.5c0-0.9,0.3-1.8,0.9-2.5
	c0.5-0.7,1-1.4,1.6-2c1.9-2.2,2.8-4.5,1-7.2c0-0.1,0-0.2,0-0.4c0.5-0.1,1-0.1,1.5,0.1c0.5,0.2,0.8,0.6,1,1.1c0.6,1.1,1,2.3,1.3,3.6
	c0.5,2.7,1.8,4.5,4.4,5.3c0.7,0.2,1.4,0.3,2.1,0.2c0.7-0.1,1.3-0.4,1.9-0.8c-2.6-1-2.8-3.1-2.5-5.3c0.1-0.8,0.3-1.7,0.4-2.5
	c0.3-1.1,0.2-2.2-0.3-3.3s-1.2-1.9-2.2-2.4c-0.2-0.1-0.4-0.3-0.7-0.5c0.4-0.4,1-0.6,1.5-0.6c0.6,0,1.1,0.2,1.6,0.5
	c1,0.7,1.9,1.5,2.7,2.4c1.1,1.4,2.6,2.3,4.3,2.5c2.2,0.3,4.5-0.8,5.1-2.5c-2.9-0.5-3.5-0.9-4.5-3.3c-0.3-0.8-0.6-1.6-0.9-2.4
	c-0.3-0.9-0.8-1.8-1.5-2.5c-0.7-0.7-1.6-1.1-2.6-1.3c-0.6-0.1-1.2-0.1-1.7-0.1c0.4-1.2,1-1.7,2.1-1.7c1.5,0.1,3,0.4,4.4,0.8
	c1.2,0.4,2.6,0.5,3.8,0.1c1.3-0.4,2.4-1.1,3.1-2.2c0.3-0.4,0.6-0.9,0.7-1.4C60,34.9,60,34.4,59.9,33.9z M30,46.7
	c-2.1,0-4.2-0.6-5.9-1.8c-1.8-1.2-3.1-2.8-3.9-4.8c-0.8-2-1-4.1-0.6-6.2c0.4-2.1,1.4-4,2.9-5.5c1.5-1.5,3.4-2.5,5.5-2.9
	c2.1-0.4,4.2-0.2,6.2,0.6c2,0.8,3.6,2.2,4.8,3.9c1.2,1.8,1.8,3.8,1.8,5.9c0,2.8-1.1,5.6-3.1,7.6C35.6,45.6,32.8,46.7,30,46.7z"/>
<path class="st2" d="M347.9,61.4c-10.9,1.7-21.6-3.3-26.6-12.2c10.6,2.3,20.1,0.1,27.9-7.7c7.8-7.8,10-17.2,7.7-27.9
	c9,5.3,14,16.2,12.2,26.6C367.1,51.1,358.3,59.9,347.9,61.4z"/>
<path class="st3" d="M316.5,667.4v2.2h-0.4l0.3,1.2c0.8,3.4,1.2,6.8,1.2,10.2v0.5c0,20.9-13.7,37.4-30.1,37.4H84.6
	c-16.4,0-30.1-16.6-30.1-37.4v-0.5c0-3.6,0.4-7.2,1.3-10.7l0-0.1v-0.1v-3v-1.6l-1.4,0.7c-3.4,1.7-7.1,2.6-10.9,2.6h-0.4
	c-16.4,0-30.1-16.6-30.1-37.4V123.6c0-20.9,13.7-37.4,30.1-37.4h0.4c4.7,0,9.3,1.4,13.3,3.9l2.7,1.7l-1.3-3
	c-2.4-5.6-3.7-11.7-3.6-17.9v0v-0.5C54.6,49.6,68.2,33,84.7,33h202.8c16.4,0,30.1,16.6,30.1,37.4v0.5v0c0,6.1-1.2,12.2-3.6,17.7
	l-1.2,2.9l2.7-1.6c4-2.4,8.5-3.7,13.1-3.7h0.4c16.4,0,30.1,16.5,30,37.4v0v507.8c0,20.9-13.7,37.4-30.1,37.4h-0.4
	c-3.6,0-7.2-0.8-10.5-2.4l-1.4-0.7V667.4z"/>
<path class="st4" d="M275.8,732.4c0.2,0,0.3,0.1,0.5,0.1c0.1,0.1,0.2,0.2,0.3,0.4c0.1,0.4,0.3,0.8,0.3,1.3c0.1,0.5,0.3,1,0.7,1.4
	c0.4,0.4,0.8,0.7,1.4,0.8c0.3,0.1,0.6,0.2,0.9,0.3c0.2,0.1,0.3,0.2,0.4,0.3c0.1,0.2,0.1,0.3,0.1,0.5c0,0.2-0.1,0.3-0.2,0.5
	s-0.3,0.2-0.4,0.3l-0.6,0.1c-0.6,0.1-1.1,0.4-1.5,0.8c-0.4,0.4-0.7,0.9-0.8,1.5c-0.1,0.5-0.2,0.9-0.4,1.4c-0.1,0.2-0.2,0.3-0.3,0.4
	c-0.1,0.1-0.3,0.1-0.5,0.1c-0.2,0-0.3,0-0.5-0.1c-0.1-0.1-0.2-0.2-0.3-0.4c-0.2-0.4-0.3-0.9-0.4-1.4c-0.1-0.6-0.4-1.1-0.8-1.5
	c-0.4-0.4-0.9-0.7-1.5-0.8l-0.6-0.1c-0.2,0-0.3-0.1-0.4-0.3s-0.2-0.3-0.2-0.5c0-0.2,0-0.3,0.1-0.5c0.1-0.1,0.2-0.3,0.4-0.3
	c0.3-0.1,0.6-0.2,0.9-0.3c0.5-0.1,1-0.4,1.4-0.8c0.4-0.4,0.6-0.9,0.7-1.4c0.1-0.4,0.2-0.9,0.3-1.3c0.1-0.2,0.2-0.3,0.3-0.4
	S275.7,732.4,275.8,732.4z M277.3,737.5c-0.6-0.4-1.1-0.9-1.5-1.6c-0.4,0.6-0.9,1.2-1.5,1.6c0.6,0.4,1.1,0.9,1.5,1.6
	C276.2,738.4,276.7,737.9,277.3,737.5z"/>
<path class="st4" d="M348.9,740.2c0.2,0,0.3,0,0.5,0.1c0.1,0.1,0.2,0.2,0.3,0.4c0.2,0.4,0.3,0.8,0.4,1.3c0.1,0.5,0.3,1,0.7,1.4
	c0.4,0.4,0.8,0.7,1.4,0.8c0.3,0.1,0.6,0.2,0.9,0.3c0.2,0.1,0.3,0.2,0.4,0.3s0.1,0.3,0.1,0.5c0,0.2-0.1,0.3-0.2,0.5
	c-0.1,0.1-0.3,0.2-0.4,0.3l-0.6,0.1c-0.6,0.1-1.1,0.4-1.5,0.8c-0.4,0.4-0.7,0.9-0.8,1.5c-0.1,0.5-0.2,0.9-0.4,1.4
	c-0.1,0.2-0.2,0.3-0.3,0.4c-0.1,0.1-0.3,0.1-0.5,0.1c-0.2,0-0.3-0.1-0.5-0.1c-0.1-0.1-0.2-0.2-0.3-0.4c-0.2-0.4-0.3-0.9-0.4-1.4
	c-0.1-0.6-0.4-1.1-0.8-1.5c-0.4-0.4-0.9-0.7-1.5-0.8l-0.6-0.1c-0.2,0-0.3-0.1-0.4-0.3c-0.1-0.1-0.2-0.3-0.2-0.5c0-0.2,0-0.4,0.1-0.5
	c0.1-0.1,0.2-0.3,0.4-0.3c0.3-0.1,0.6-0.2,0.9-0.3c0.5-0.1,1-0.4,1.4-0.8c0.4-0.4,0.6-0.9,0.7-1.4c0.1-0.4,0.2-0.9,0.4-1.3
	c0.1-0.2,0.2-0.3,0.3-0.4S348.7,740.2,348.9,740.2z M350.4,745.3c-0.6-0.4-1.1-0.9-1.5-1.6c-0.4,0.6-0.9,1.2-1.5,1.6
	c0.6,0.4,1.1,0.9,1.5,1.6C349.3,746.2,349.8,745.7,350.4,745.3z"/>
<path class="st4" d="M241.5,733.7c0.2,0,0.3,0.1,0.5,0.1c0.1,0.1,0.2,0.2,0.3,0.4c0.2,0.6,0.4,1.3,0.5,2c0.2,1,0.6,1.9,1.3,2.6
	c0.7,0.7,1.5,1.2,2.5,1.5c0.5,0.1,0.9,0.3,1.4,0.4c0.2,0.1,0.3,0.2,0.4,0.3c0.1,0.2,0.1,0.3,0.1,0.5c0,0.2-0.1,0.3-0.2,0.5
	c-0.1,0.1-0.3,0.2-0.4,0.3l-1,0.2c-1,0.2-1.9,0.7-2.6,1.4c-0.7,0.7-1.2,1.7-1.4,2.7c-0.1,0.7-0.3,1.4-0.5,2.1
	c-0.1,0.2-0.2,0.3-0.3,0.4c-0.1,0.1-0.3,0.1-0.5,0.1c-0.2,0-0.3,0-0.5-0.1c-0.1-0.1-0.2-0.2-0.3-0.4c-0.3-0.7-0.4-1.4-0.6-2.1
	c-0.2-1-0.7-1.9-1.4-2.7s-1.6-1.2-2.6-1.4l-1-0.2c-0.2,0-0.3-0.1-0.4-0.3c-0.1-0.1-0.2-0.3-0.2-0.5c0-0.2,0-0.4,0.1-0.5
	c0.1-0.2,0.2-0.3,0.4-0.3c0.5-0.2,0.9-0.3,1.4-0.4c0.9-0.2,1.8-0.8,2.5-1.5c0.7-0.7,1.1-1.6,1.3-2.6c0.1-0.7,0.3-1.4,0.5-2
	c0.1-0.1,0.2-0.3,0.3-0.4C241.2,733.7,241.4,733.7,241.5,733.7z M244.9,741.4c-1.6-0.8-2.8-2.1-3.4-3.7c-0.6,1.6-1.8,3-3.4,3.7
	c1.6,0.8,2.8,2.1,3.4,3.7C242.1,743.5,243.4,742.2,244.9,741.4L244.9,741.4z"/>
<path class="st4" d="M206.2,742.1h6.3c0.2,0,0.4,0.1,0.6,0.2c0.2,0.2,0.2,0.4,0.2,0.6c0,0.2-0.1,0.4-0.3,0.6
	c-0.2,0.1-0.4,0.2-0.6,0.2h-6.4c-0.2,0-0.4-0.1-0.6-0.2s-0.2-0.4-0.2-0.6c0-0.2,0.1-0.4,0.3-0.6C205.8,742.2,206,742.1,206.2,742.1z
	"/>
<path class="st4" d="M196.9,742.1h6.4c0.1,0,0.2,0,0.3,0.1c0.1,0,0.2,0.1,0.3,0.2c0.1,0.1,0.1,0.2,0.2,0.3c0,0.1,0.1,0.2,0.1,0.3
	c0,0.2-0.1,0.4-0.2,0.6c-0.2,0.2-0.4,0.2-0.6,0.2h-6.4c-0.2,0-0.4-0.1-0.6-0.2c-0.2-0.2-0.2-0.4-0.2-0.6c0-0.2,0.1-0.4,0.2-0.6
	C196.5,742.2,196.7,742.1,196.9,742.1z"/>
<path class="st4" d="M204.7,744c0.2,0,0.4,0.1,0.6,0.3c0.1,0.2,0.2,0.4,0.2,0.6v5.9c0,0.2-0.1,0.4-0.2,0.6c-0.2,0.2-0.4,0.2-0.6,0.2
	c-0.2,0-0.4-0.1-0.6-0.2c-0.2-0.2-0.2-0.4-0.2-0.6v-5.9c0-0.1,0-0.2,0.1-0.3c0-0.1,0.1-0.2,0.2-0.3c0.1-0.1,0.2-0.1,0.3-0.2
	C204.5,744,204.6,744,204.7,744z"/>
<path class="st4" d="M204.7,734.3c0.2,0,0.4,0.1,0.6,0.2c0.2,0.2,0.2,0.4,0.2,0.6v5.9c0,0.2-0.1,0.4-0.2,0.6
	c-0.2,0.2-0.4,0.2-0.6,0.2c-0.2,0-0.4-0.1-0.6-0.2c-0.2-0.2-0.2-0.4-0.2-0.6v-5.9c0-0.2,0.1-0.4,0.2-0.6
	C204.3,734.4,204.5,734.3,204.7,734.3z"/>
<path class="st4" d="M204.7,737.6c0.2,0,0.4,0.1,0.6,0.2c0.2,0.2,0.2,0.4,0.2,0.6c0,3.6,0,3.6,3.1,3.6c0.2,0,0.4,0.1,0.6,0.2
	c0.2,0.2,0.2,0.4,0.2,0.6c0,0.2-0.1,0.4-0.2,0.6c-0.2,0.2-0.4,0.2-0.6,0.2c-3.2,0-3.2,0-3.2,3.6c0,0.2-0.1,0.4-0.2,0.6
	c-0.2,0.2-0.4,0.2-0.6,0.2c-0.2,0-0.4-0.1-0.6-0.2c-0.2-0.2-0.2-0.4-0.2-0.6c0-3.6,0-3.6-3.1-3.6c-0.2,0-0.4-0.1-0.6-0.2
	c-0.2-0.2-0.2-0.4-0.2-0.6c0-0.2,0.1-0.4,0.2-0.6c0.2-0.2,0.4-0.2,0.6-0.2c3.1,0,3.1,0,3.1-3.6c0-0.1,0-0.2,0.1-0.3
	c0-0.1,0.1-0.2,0.2-0.3c0.1-0.1,0.2-0.1,0.3-0.2C204.5,737.6,204.6,737.6,204.7,737.6z M204.8,742.9L204.8,742.9
	C204.7,742.9,204.7,742.9,204.8,742.9L204.8,742.9L204.8,742.9z"/>
<path class="st4" d="M311.9,727c0.2,0,0.4,0.1,0.5,0.2c0.1,0.1,0.2,0.3,0.3,0.5l1.7,8.4l8.1-2.7c0.2-0.1,0.4-0.1,0.6,0
	c0.2,0.1,0.3,0.2,0.4,0.4c0.1,0.2,0.1,0.4,0.1,0.6c0,0.2-0.1,0.4-0.3,0.5l-6.4,5.6l6.4,5.6c0.1,0.1,0.2,0.3,0.2,0.5
	c0,0.2,0,0.4-0.1,0.5c-0.1,0.2-0.2,0.3-0.4,0.4c-0.2,0.1-0.4,0.1-0.5,0l-8.1-2.7l-1.7,8.3c0,0.2-0.1,0.4-0.3,0.5
	c-0.1,0.1-0.3,0.2-0.5,0.2c-0.2,0-0.4-0.1-0.5-0.2c-0.1-0.1-0.3-0.3-0.3-0.5l-1.7-8.3l-8.1,2.7c-0.2,0.1-0.4,0-0.5,0
	s-0.3-0.2-0.4-0.4c-0.1-0.2-0.1-0.4-0.1-0.5c0-0.2,0.1-0.4,0.3-0.5l6.4-5.6l-6.4-5.6c-0.1-0.1-0.2-0.3-0.3-0.5c0-0.2,0-0.4,0.1-0.5
	c0.1-0.2,0.2-0.3,0.4-0.4c0.2-0.1,0.4-0.1,0.6,0l8.1,2.7l1.7-8.4c0-0.2,0.1-0.4,0.3-0.5C311.6,727.1,311.7,727,311.9,727z
	 M313.8,737.9c-0.1,0-0.3,0-0.4-0.1c-0.1-0.1-0.2-0.1-0.3-0.2c-0.1-0.1-0.1-0.2-0.1-0.3l-1.1-5.2l-1.1,5.2c0,0.1-0.1,0.2-0.1,0.3
	c-0.1,0.1-0.2,0.2-0.3,0.2c-0.1,0.1-0.2,0.1-0.3,0.1c-0.1,0-0.2,0-0.3,0l-5.1-1.7l4,3.5c0.1,0.1,0.2,0.2,0.2,0.3s0.1,0.2,0.1,0.3
	c0,0.1,0,0.2-0.1,0.3c0,0.1-0.1,0.2-0.2,0.3l-4,3.5l5.1-1.7c0.1,0,0.2-0.1,0.3,0c0.1,0,0.2,0,0.3,0.1c0.1,0.1,0.2,0.1,0.3,0.2
	c0.1,0.1,0.1,0.2,0.1,0.3l1.1,5.3l1.1-5.2c0-0.1,0.1-0.2,0.1-0.3c0.1-0.1,0.2-0.2,0.3-0.2c0.1-0.1,0.2-0.1,0.3-0.1
	c0.1,0,0.2,0,0.3,0l5.1,1.7l-4-3.5c-0.1-0.1-0.2-0.2-0.2-0.3s-0.1-0.2-0.1-0.3c0-0.1,0-0.2,0.1-0.3c0-0.1,0.1-0.2,0.2-0.3l4-3.5
	l-5.1,1.7C314,737.9,313.9,737.9,313.8,737.9z"/>
<path class="st4" d="M99.7,732.4c0.2,0,0.3,0,0.5,0.1c0.1,0.1,0.2,0.2,0.3,0.4c0.2,0.4,0.3,0.8,0.3,1.3c0.1,0.5,0.3,1,0.7,1.4
	c0.4,0.4,0.8,0.7,1.4,0.8c0.3,0.1,0.6,0.2,0.9,0.3c0.2,0.1,0.3,0.2,0.4,0.3c0.1,0.2,0.1,0.3,0.1,0.5c0,0.2-0.1,0.3-0.2,0.5
	s-0.3,0.2-0.4,0.3l-0.6,0.1c-0.6,0.1-1.1,0.4-1.5,0.8c-0.4,0.4-0.7,0.9-0.8,1.5c-0.1,0.5-0.2,0.9-0.4,1.4c-0.1,0.2-0.2,0.3-0.3,0.4
	c-0.1,0.1-0.3,0.1-0.5,0.1c-0.2,0-0.3-0.1-0.5-0.1s-0.2-0.2-0.3-0.4c-0.2-0.4-0.3-0.9-0.4-1.4c-0.1-0.6-0.4-1.1-0.8-1.5
	c-0.4-0.4-0.9-0.7-1.5-0.8l-0.6-0.1c-0.2,0-0.3-0.1-0.4-0.3c-0.1-0.1-0.2-0.3-0.2-0.5c0-0.2,0-0.4,0.1-0.5c0.1-0.1,0.2-0.3,0.4-0.3
	c0.3-0.1,0.6-0.2,0.9-0.3c0.5-0.1,1-0.4,1.4-0.8c0.4-0.4,0.6-0.9,0.7-1.4c0.1-0.4,0.2-0.9,0.3-1.3c0.1-0.2,0.2-0.3,0.3-0.4
	C99.4,732.4,99.5,732.3,99.7,732.4L99.7,732.4z M101.2,737.5c-0.6-0.4-1.1-0.9-1.5-1.6c-0.4,0.6-0.9,1.2-1.5,1.6
	c0.6,0.4,1.1,0.9,1.5,1.6C100.1,738.4,100.6,737.9,101.2,737.5z"/>
<path class="st4" d="M172.8,740.2c0.2,0,0.3,0.1,0.4,0.2c0.1,0.1,0.2,0.2,0.3,0.4c0.2,0.4,0.3,0.8,0.4,1.3c0.1,0.5,0.3,1,0.7,1.4
	s0.8,0.7,1.4,0.8c0.3,0.1,0.6,0.2,0.9,0.3c0.2,0.1,0.3,0.2,0.4,0.3c0.1,0.2,0.1,0.3,0.1,0.5c0,0.2-0.1,0.3-0.2,0.5
	c-0.1,0.1-0.3,0.2-0.4,0.3l-0.6,0.1c-0.6,0.1-1.1,0.4-1.5,0.8c-0.4,0.4-0.7,0.9-0.8,1.5c-0.1,0.5-0.2,0.9-0.4,1.4
	c-0.1,0.2-0.2,0.3-0.3,0.4s-0.3,0.1-0.5,0.1c-0.2,0-0.3,0-0.5-0.1s-0.2-0.2-0.3-0.4c-0.2-0.4-0.3-0.9-0.4-1.4
	c-0.1-0.6-0.4-1.1-0.8-1.5s-0.9-0.7-1.5-0.8l-0.6-0.1c-0.2,0-0.3-0.1-0.4-0.3c-0.1-0.1-0.2-0.3-0.2-0.5c0-0.2,0-0.4,0.1-0.5
	c0.1-0.2,0.2-0.3,0.4-0.3c0.3-0.1,0.6-0.2,0.9-0.3c0.5-0.1,1-0.4,1.4-0.8c0.4-0.4,0.6-0.9,0.7-1.4c0.1-0.4,0.2-0.9,0.4-1.3
	c0.1-0.2,0.2-0.3,0.3-0.4C172.5,740.2,172.6,740.2,172.8,740.2z M174.3,745.3c-0.6-0.4-1.1-0.9-1.5-1.6c-0.4,0.6-0.9,1.2-1.5,1.6
	c0.6,0.4,1.1,0.9,1.5,1.6C173.2,746.2,173.7,745.7,174.3,745.3z"/>
<path class="st4" d="M65.4,733.7c0.2,0,0.3,0.1,0.5,0.1c0.1,0.1,0.2,0.2,0.3,0.4c0.2,0.6,0.4,1.3,0.5,2c0.2,1,0.6,1.9,1.3,2.6
	c0.7,0.7,1.5,1.2,2.5,1.5c0.5,0.1,0.9,0.3,1.4,0.4c0.2,0.1,0.3,0.2,0.4,0.3c0.1,0.2,0.1,0.3,0.1,0.5c0,0.2-0.1,0.3-0.2,0.5
	c-0.1,0.1-0.3,0.2-0.4,0.3l-1,0.2c-1,0.2-1.9,0.7-2.6,1.4c-0.7,0.7-1.2,1.7-1.4,2.7c-0.1,0.7-0.3,1.4-0.5,2.1
	c-0.1,0.2-0.2,0.3-0.3,0.4c-0.1,0.1-0.3,0.1-0.5,0.1c-0.2,0-0.3,0-0.5-0.1c-0.1-0.1-0.2-0.2-0.3-0.4c-0.3-0.7-0.4-1.4-0.6-2.1
	c-0.2-1-0.7-1.9-1.4-2.7c-0.7-0.7-1.6-1.2-2.6-1.4l-1-0.2c-0.2,0-0.3-0.1-0.4-0.3c-0.1-0.1-0.2-0.3-0.2-0.5c0-0.2,0-0.4,0.1-0.5
	c0.1-0.1,0.2-0.3,0.4-0.3c0.5-0.2,0.9-0.3,1.4-0.4c0.9-0.2,1.8-0.8,2.5-1.5c0.7-0.7,1.1-1.6,1.3-2.6c0.1-0.7,0.3-1.4,0.5-2
	c0.1-0.2,0.2-0.3,0.3-0.4C65.1,733.7,65.3,733.7,65.4,733.7z M68.8,741.4c-1.6-0.8-2.8-2.1-3.4-3.7c-0.6,1.6-1.8,3-3.4,3.7
	c1.6,0.8,2.8,2.1,3.4,3.8C66,743.5,67.3,742.2,68.8,741.4L68.8,741.4z"/>
<path class="st4" d="M30.1,742.1h6.4c0.2,0,0.4,0.1,0.6,0.2c0.2,0.2,0.2,0.4,0.2,0.6c0,0.2-0.1,0.4-0.2,0.6
	c-0.2,0.2-0.4,0.2-0.6,0.2h-6.4c-0.2,0-0.4-0.1-0.6-0.2c-0.2-0.2-0.2-0.4-0.2-0.6c0-0.2,0.1-0.4,0.2-0.6
	C29.7,742.2,29.9,742.1,30.1,742.1z"/>
<path class="st4" d="M20.8,742.1h6.4c0.2,0,0.4,0.1,0.6,0.2c0.2,0.2,0.2,0.4,0.2,0.6c0,0.2-0.1,0.4-0.2,0.6
	c-0.2,0.2-0.4,0.2-0.6,0.2h-6.4c-0.2,0-0.4-0.1-0.6-0.2c-0.2-0.2-0.2-0.4-0.2-0.6c0-0.2,0.1-0.4,0.2-0.6
	C20.4,742.2,20.6,742.1,20.8,742.1z"/>
<path class="st4" d="M28.6,744c0.2,0,0.4,0.1,0.6,0.2c0.2,0.2,0.2,0.4,0.2,0.6v5.9c0,0.2-0.1,0.4-0.2,0.6c-0.2,0.2-0.4,0.2-0.6,0.2
	c-0.2,0-0.4-0.1-0.6-0.2c-0.2-0.2-0.2-0.4-0.2-0.6v-5.9c0-0.2,0.1-0.4,0.2-0.6C28.2,744.1,28.4,744,28.6,744z"/>
<path class="st4" d="M28.6,734.3c0.2,0,0.4,0.1,0.6,0.2c0.2,0.2,0.2,0.4,0.2,0.6v5.9c0,0.2-0.1,0.4-0.2,0.6
	c-0.2,0.2-0.4,0.2-0.6,0.2c-0.2,0-0.4-0.1-0.6-0.2c-0.2-0.2-0.2-0.4-0.2-0.6v-5.9c0-0.2,0.1-0.4,0.2-0.6
	C28.2,734.4,28.4,734.3,28.6,734.3z"/>
<path class="st4" d="M28.6,737.6c0.2,0,0.4,0.1,0.6,0.2c0.2,0.2,0.2,0.4,0.2,0.6c0,3.6,0,3.6,3.1,3.6c0.2,0,0.4,0.1,0.6,0.2
	c0.2,0.2,0.2,0.4,0.2,0.6c0,0.2-0.1,0.4-0.3,0.6c-0.2,0.1-0.4,0.2-0.6,0.2c-3.1,0-3.1,0-3.1,3.6c0,0.2-0.1,0.4-0.2,0.6
	c-0.2,0.2-0.4,0.2-0.6,0.2c-0.2,0-0.4-0.1-0.6-0.2c-0.2-0.2-0.2-0.4-0.2-0.6c0-3.6,0-3.6-3.1-3.6c-0.2,0-0.4-0.1-0.6-0.2
	c-0.2-0.2-0.2-0.4-0.2-0.6c0-0.2,0.1-0.4,0.2-0.6c0.2-0.2,0.4-0.2,0.6-0.2c3.1,0,3.1,0,3.1-3.6c0-0.1,0-0.2,0.1-0.3
	c0-0.1,0.1-0.2,0.2-0.3c0.1-0.1,0.2-0.1,0.3-0.2C28.4,737.6,28.5,737.6,28.6,737.6z M28.6,742.9L28.6,742.9L28.6,742.9L28.6,742.9
	L28.6,742.9z"/>
<path class="st4" d="M135.8,727c0.2,0,0.4,0.1,0.5,0.2c0.1,0.1,0.3,0.3,0.3,0.5l1.7,8.4l8.1-2.7c0.2-0.1,0.4-0.1,0.6,0
	c0.2,0.1,0.3,0.2,0.4,0.4c0.1,0.2,0.1,0.4,0.1,0.6c0,0.2-0.1,0.4-0.3,0.5l-6.4,5.6l6.4,5.6c0.1,0.1,0.2,0.3,0.3,0.5
	c0,0.2,0,0.4-0.1,0.5c-0.1,0.2-0.2,0.3-0.4,0.4c-0.2,0.1-0.4,0.1-0.6,0l-8.1-2.7l-1.7,8.3c0,0.2-0.1,0.4-0.3,0.5
	c-0.1,0.1-0.3,0.2-0.5,0.2c-0.2,0-0.4-0.1-0.5-0.2c-0.1-0.1-0.2-0.3-0.3-0.5l-1.7-8.3l-8.1,2.7c-0.2,0.1-0.4,0-0.6,0
	c-0.2-0.1-0.3-0.2-0.4-0.4c-0.1-0.2-0.1-0.4-0.1-0.5c0-0.2,0.1-0.4,0.3-0.5l6.4-5.6l-6.4-5.6c-0.1-0.1-0.2-0.3-0.3-0.5
	c0-0.2,0-0.4,0.1-0.6c0.1-0.2,0.2-0.3,0.4-0.4s0.4-0.1,0.6,0l8.1,2.7l1.7-8.3c0-0.2,0.1-0.3,0.3-0.5
	C135.5,727.1,135.6,727,135.8,727z M137.7,737.9c-0.1,0-0.3,0-0.4-0.1c-0.1-0.1-0.2-0.1-0.3-0.2c-0.1-0.1-0.1-0.2-0.1-0.3l-1.1-5.2
	l-1.1,5.2c0,0.1-0.1,0.2-0.1,0.3c-0.1,0.1-0.2,0.2-0.3,0.2c-0.1,0.1-0.2,0.1-0.3,0.1c-0.1,0-0.2,0-0.3,0l-5.1-1.7l4,3.5
	c0.1,0.1,0.2,0.2,0.2,0.3c0,0.1,0.1,0.2,0.1,0.3c0,0.1,0,0.2-0.1,0.3s-0.1,0.2-0.2,0.3l-4,3.5l5.1-1.7c0.1,0,0.2-0.1,0.3,0
	c0.1,0,0.2,0,0.3,0.1c0.1,0.1,0.2,0.1,0.3,0.2c0.1,0.1,0.1,0.2,0.1,0.3l1.1,5.3l1.1-5.2c0-0.1,0.1-0.2,0.1-0.3s0.2-0.2,0.3-0.2
	c0.1-0.1,0.2-0.1,0.3-0.1c0.1,0,0.2,0,0.3,0l5.1,1.7l-4-3.5c-0.1-0.1-0.2-0.2-0.2-0.3c0-0.1-0.1-0.2-0.1-0.3c0-0.1,0-0.2,0.1-0.3
	s0.1-0.2,0.2-0.3l4-3.5l-5.1,1.7C137.9,737.9,137.8,737.9,137.7,737.9z"/>
<path class="st4" d="M177.7,22.3c-0.2,0-0.3-0.1-0.5-0.1c-0.1-0.1-0.2-0.2-0.3-0.4c-0.1-0.4-0.3-0.8-0.3-1.3c-0.1-0.5-0.3-1-0.7-1.4
	c-0.4-0.4-0.9-0.7-1.4-0.8c-0.3-0.1-0.6-0.2-0.9-0.3c-0.2-0.1-0.3-0.2-0.4-0.3s-0.1-0.3-0.1-0.5c0-0.2,0.1-0.3,0.2-0.5
	s0.3-0.2,0.4-0.3l0.6-0.1c0.6-0.1,1.1-0.4,1.4-0.8c0.4-0.4,0.7-0.9,0.8-1.5c0.1-0.5,0.2-0.9,0.4-1.4c0.1-0.2,0.2-0.3,0.3-0.4
	c0.1-0.1,0.3-0.1,0.5-0.1c0.2,0,0.3,0,0.5,0.1c0.1,0.1,0.2,0.2,0.3,0.4c0.2,0.4,0.3,0.9,0.4,1.4c0.1,0.6,0.4,1.1,0.8,1.5
	c0.4,0.4,0.9,0.7,1.5,0.8l0.6,0.1c0.2,0,0.3,0.1,0.4,0.3c0.1,0.1,0.2,0.3,0.2,0.5c0,0.2,0,0.3-0.1,0.5c-0.1,0.1-0.2,0.3-0.4,0.3
	c-0.3,0.1-0.6,0.2-0.9,0.3c-0.5,0.1-1,0.4-1.4,0.8c-0.4,0.4-0.6,0.9-0.7,1.4c-0.1,0.4-0.2,0.9-0.3,1.3c-0.1,0.2-0.2,0.3-0.3,0.4
	C178,22.3,177.9,22.3,177.7,22.3z M176.3,17.2c0.6,0.4,1.1,0.9,1.5,1.6c0.4-0.6,0.9-1.2,1.5-1.6c-0.6-0.4-1.1-0.9-1.5-1.6
	C177.4,16.3,176.9,16.8,176.3,17.2z"/>
<path class="st4" d="M104.6,14.5c-0.2,0-0.3,0-0.5-0.1c-0.1-0.1-0.2-0.2-0.3-0.4c-0.2-0.4-0.3-0.8-0.3-1.3c-0.1-0.5-0.3-1-0.7-1.4
	c-0.4-0.4-0.8-0.7-1.4-0.8c-0.3-0.1-0.6-0.2-0.9-0.3c-0.2-0.1-0.3-0.2-0.4-0.3C100,9.7,100,9.5,100,9.3c0-0.2,0.1-0.3,0.2-0.5
	c0.1-0.1,0.3-0.2,0.4-0.3l0.6-0.1c0.6-0.1,1.1-0.4,1.5-0.8s0.7-0.9,0.8-1.5c0.1-0.5,0.2-0.9,0.4-1.4c0.1-0.2,0.2-0.3,0.3-0.4
	c0.1-0.1,0.3-0.1,0.5-0.1c0.2,0,0.3,0.1,0.5,0.1c0.1,0.1,0.2,0.2,0.3,0.4c0.2,0.4,0.3,0.9,0.4,1.4c0.1,0.6,0.4,1.1,0.8,1.5
	c0.4,0.4,0.9,0.7,1.5,0.8l0.6,0.1c0.2,0,0.3,0.1,0.4,0.3c0.1,0.1,0.2,0.3,0.2,0.5c0,0.2,0,0.4-0.1,0.5c-0.1,0.2-0.2,0.3-0.4,0.3
	c-0.3,0.1-0.6,0.2-0.9,0.3c-0.5,0.1-1,0.4-1.4,0.8c-0.4,0.4-0.6,0.9-0.7,1.4c-0.1,0.4-0.2,0.9-0.3,1.3c-0.1,0.2-0.2,0.3-0.3,0.4
	C105,14.5,104.8,14.5,104.6,14.5z M103.2,9.4c0.6,0.4,1.1,0.9,1.5,1.6c0.4-0.6,0.9-1.2,1.5-1.6c-0.6-0.4-1.1-0.9-1.5-1.6
	C104.3,8.5,103.8,9,103.2,9.4z"/>
<path class="st4" d="M212,21c-0.2,0-0.3-0.1-0.5-0.1c-0.1-0.1-0.2-0.2-0.3-0.4c-0.2-0.6-0.4-1.3-0.5-2c-0.2-1-0.6-1.9-1.3-2.6
	c-0.7-0.7-1.5-1.2-2.5-1.5c-0.5-0.1-0.9-0.3-1.4-0.4c-0.2-0.1-0.3-0.2-0.4-0.3c-0.1-0.2-0.1-0.3-0.1-0.5c0-0.2,0.1-0.3,0.2-0.5
	c0.1-0.1,0.3-0.2,0.4-0.3l1-0.2c1-0.2,1.9-0.7,2.6-1.4c0.7-0.7,1.2-1.7,1.4-2.7c0.1-0.7,0.3-1.4,0.5-2.1c0.1-0.2,0.2-0.3,0.3-0.4
	c0.1-0.1,0.3-0.1,0.5-0.1c0.2,0,0.3,0,0.5,0.1c0.1,0.1,0.2,0.2,0.3,0.4c0.3,0.7,0.4,1.4,0.6,2.1c0.2,1,0.7,1.9,1.4,2.7
	c0.7,0.7,1.6,1.2,2.6,1.4l1,0.2c0.2,0,0.3,0.1,0.4,0.3c0.1,0.1,0.2,0.3,0.2,0.5c0,0.2,0,0.4-0.1,0.5c-0.1,0.2-0.2,0.3-0.4,0.3
	c-0.5,0.2-0.9,0.3-1.4,0.4c-0.9,0.2-1.8,0.8-2.5,1.5c-0.7,0.7-1.1,1.6-1.3,2.6c-0.1,0.7-0.3,1.4-0.5,2c-0.1,0.1-0.2,0.3-0.3,0.4
	C212.3,21,212.2,21,212,21z M208.6,13.3c1.6,0.8,2.8,2.1,3.4,3.7c0.6-1.6,1.8-3,3.4-3.7c-1.6-0.8-2.8-2.1-3.4-3.7
	C211.4,11.2,210.2,12.5,208.6,13.3L208.6,13.3z"/>
<path class="st4" d="M247.4,12.6H241c-0.2,0-0.4-0.1-0.6-0.2c-0.2-0.2-0.2-0.4-0.2-0.6c0-0.2,0.1-0.4,0.3-0.6
	c0.2-0.1,0.4-0.2,0.6-0.2h6.4c0.2,0,0.4,0.1,0.6,0.2c0.2,0.2,0.2,0.4,0.2,0.6c0,0.2-0.1,0.4-0.3,0.6
	C247.8,12.5,247.6,12.6,247.4,12.6z"/>
<path class="st4" d="M256.6,12.6h-6.4c-0.1,0-0.2,0-0.3-0.1c-0.1,0-0.2-0.1-0.3-0.2c-0.1-0.1-0.1-0.2-0.2-0.3c0-0.1-0.1-0.2-0.1-0.3
	c0-0.2,0.1-0.4,0.2-0.6c0.2-0.2,0.4-0.2,0.6-0.2h6.4c0.2,0,0.4,0.1,0.6,0.2c0.2,0.2,0.2,0.4,0.2,0.6c0,0.2-0.1,0.4-0.2,0.6
	C257,12.5,256.8,12.6,256.6,12.6z"/>
<path class="st4" d="M248.8,10.7c-0.2,0-0.4-0.1-0.6-0.3c-0.1-0.2-0.2-0.4-0.2-0.6V4c0-0.2,0.1-0.4,0.2-0.6c0.2-0.2,0.4-0.2,0.6-0.2
	c0.2,0,0.4,0.1,0.6,0.2c0.2,0.2,0.2,0.4,0.2,0.6v5.9c0,0.1,0,0.2-0.1,0.3c0,0.1-0.1,0.2-0.2,0.3c-0.1,0.1-0.2,0.1-0.3,0.2
	C249,10.7,248.9,10.7,248.8,10.7z"/>
<path class="st4" d="M248.8,20.4c-0.2,0-0.4-0.1-0.6-0.2c-0.2-0.2-0.2-0.4-0.2-0.6v-5.9c0-0.2,0.1-0.4,0.2-0.6
	c0.2-0.2,0.4-0.2,0.6-0.2c0.2,0,0.4,0.1,0.6,0.2c0.2,0.2,0.2,0.4,0.2,0.6v5.9c0,0.2-0.1,0.4-0.2,0.6C249.2,20.3,249,20.4,248.8,20.4
	z"/>
<path class="st4" d="M248.8,17.1c-0.2,0-0.4-0.1-0.6-0.2c-0.2-0.2-0.2-0.4-0.2-0.6c0-3.6,0-3.6-3.1-3.6c-0.2,0-0.4-0.1-0.6-0.2
	c-0.2-0.2-0.2-0.4-0.2-0.6c0-0.2,0.1-0.4,0.2-0.6c0.2-0.2,0.4-0.2,0.6-0.2C248,11,248,11,248,7.3c0-0.2,0.1-0.4,0.2-0.6
	c0.2-0.2,0.4-0.2,0.6-0.2c0.2,0,0.4,0.1,0.6,0.2c0.2,0.2,0.2,0.4,0.2,0.6c0,3.6,0,3.6,3.1,3.6c0.2,0,0.4,0.1,0.6,0.2
	c0.2,0.2,0.2,0.4,0.2,0.6c0,0.2-0.1,0.4-0.2,0.6c-0.2,0.2-0.4,0.2-0.6,0.2c-3.1,0-3.1,0-3.1,3.6c0,0.1,0,0.2-0.1,0.3
	c0,0.1-0.1,0.2-0.2,0.3c-0.1,0.1-0.2,0.1-0.3,0.2C249,17.1,248.9,17.1,248.8,17.1z M248.8,11.8L248.8,11.8
	C248.8,11.8,248.8,11.8,248.8,11.8L248.8,11.8L248.8,11.8z"/>
<path class="st4" d="M141.6,27.7c-0.2,0-0.4-0.1-0.5-0.2c-0.1-0.1-0.2-0.3-0.3-0.5l-1.7-8.3l-8.1,2.7c-0.2,0.1-0.4,0.1-0.6,0
	c-0.2-0.1-0.3-0.2-0.4-0.4c-0.1-0.2-0.1-0.4-0.1-0.6c0-0.2,0.1-0.4,0.3-0.5l6.4-5.6l-6.4-5.6c-0.1-0.1-0.2-0.3-0.2-0.5
	c0-0.2,0-0.4,0.1-0.5c0.1-0.2,0.2-0.3,0.4-0.4c0.2-0.1,0.4-0.1,0.5,0l8.1,2.7l1.7-8.3c0-0.2,0.1-0.4,0.3-0.5
	c0.1-0.1,0.3-0.2,0.5-0.2c0.2,0,0.4,0.1,0.5,0.2c0.1,0.1,0.3,0.3,0.3,0.5l1.7,8.3l8.1-2.7c0.2,0,0.4,0,0.5,0
	c0.2,0.1,0.3,0.2,0.4,0.4c0.1,0.2,0.1,0.4,0.1,0.5c0,0.2-0.1,0.4-0.3,0.5l-6.4,5.6L153,20c0.1,0.1,0.2,0.3,0.3,0.5
	c0,0.2,0,0.4-0.1,0.5c-0.1,0.2-0.2,0.3-0.4,0.4c-0.2,0.1-0.4,0.1-0.6,0l-8.1-2.7l-1.7,8.3c0,0.2-0.1,0.4-0.3,0.5
	C142,27.6,141.8,27.7,141.6,27.7z M139.7,16.8c0.1,0,0.3,0,0.4,0.1c0.1,0.1,0.2,0.1,0.3,0.2s0.1,0.2,0.1,0.3l1.1,5.2l1.1-5.2
	c0-0.1,0.1-0.2,0.1-0.3c0.1-0.1,0.2-0.2,0.3-0.2c0.1-0.1,0.2-0.1,0.3-0.1c0.1,0,0.2,0,0.3,0l5.1,1.7l-4-3.5
	c-0.1-0.1-0.2-0.2-0.2-0.3c0-0.1-0.1-0.2-0.1-0.3c0-0.1,0-0.2,0.1-0.3c0-0.1,0.1-0.2,0.2-0.3l4-3.5l-5.1,1.7c-0.1,0-0.2,0.1-0.3,0
	c-0.1,0-0.2,0-0.3-0.1c-0.1-0.1-0.2-0.1-0.3-0.2s-0.1-0.2-0.1-0.3L141.6,6l-1.1,5.2c0,0.1-0.1,0.2-0.1,0.3c-0.1,0.1-0.2,0.2-0.3,0.2
	c-0.1,0.1-0.2,0.1-0.3,0.1c-0.1,0-0.2,0-0.3,0l-5.1-1.7l4,3.5c0.1,0.1,0.2,0.2,0.2,0.3c0,0.1,0.1,0.2,0.1,0.3c0,0.1,0,0.2-0.1,0.3
	c0,0.1-0.1,0.2-0.2,0.3l-4,3.5l5.1-1.7C139.6,16.8,139.6,16.8,139.7,16.8z"/>
<path class="st4" d="M280.7,14.5c-0.2,0-0.3-0.1-0.4-0.2c-0.1-0.1-0.2-0.2-0.3-0.4c-0.2-0.4-0.3-0.8-0.4-1.3c-0.1-0.5-0.3-1-0.7-1.4
	c-0.4-0.4-0.8-0.7-1.4-0.8c-0.3-0.1-0.6-0.2-0.9-0.3c-0.2-0.1-0.3-0.2-0.4-0.3c-0.1-0.2-0.1-0.3-0.1-0.5c0-0.2,0.1-0.3,0.2-0.5
	c0.1-0.1,0.3-0.2,0.4-0.3l0.6-0.1c0.6-0.1,1.1-0.4,1.5-0.8c0.4-0.4,0.7-0.9,0.8-1.5c0.1-0.5,0.2-0.9,0.4-1.4
	c0.1-0.2,0.2-0.3,0.3-0.4c0.1-0.1,0.3-0.1,0.5-0.1c0.2,0,0.3,0,0.5,0.1c0.1,0.1,0.2,0.2,0.3,0.4c0.2,0.4,0.3,0.9,0.4,1.4
	c0.1,0.6,0.4,1.1,0.8,1.5c0.4,0.4,0.9,0.7,1.5,0.8l0.6,0.1c0.2,0,0.3,0.1,0.4,0.3c0.1,0.1,0.2,0.3,0.2,0.5c0,0.2,0,0.4-0.1,0.5
	c-0.1,0.2-0.2,0.3-0.4,0.3c-0.3,0.1-0.6,0.2-0.9,0.3c-0.5,0.1-1,0.4-1.4,0.8c-0.4,0.4-0.6,0.9-0.7,1.4c-0.1,0.4-0.2,0.9-0.4,1.3
	c-0.1,0.2-0.2,0.3-0.3,0.4C281.1,14.5,280.9,14.5,280.7,14.5z M279.3,9.4c0.6,0.4,1.1,0.9,1.5,1.6c0.4-0.6,0.9-1.2,1.5-1.6
	c-0.6-0.4-1.1-0.9-1.5-1.6C280.4,8.5,279.9,9,279.3,9.4z"/>
<path class="st2" d="M331.5,19.5l5.4,3.8c0.1,0.1,0.2,0.1,0.3,0l6.2-2.3c0.3-0.1,0.5,0.1,0.4,0.4l-1.9,6.4c0,0.1,0,0.2,0.1,0.3
	l4.1,5.2c0.2,0.2,0,0.5-0.3,0.6l-6.6,0.1c-0.1,0-0.2,0.1-0.3,0.2l-3.7,5.5c-0.2,0.2-0.5,0.2-0.6-0.1l-2.2-6.3c0-0.1-0.1-0.2-0.2-0.2
	l-6.4-1.8c-0.3-0.1-0.3-0.4-0.1-0.6l5.3-4c0.1-0.1,0.1-0.2,0.1-0.3l-0.3-6.6C331,19.5,331.3,19.3,331.5,19.5z"/>
<path class="st2" d="M308,14.6l4.6,2.1c0.1,0,0.2,0,0.2,0l4.3-2.6c0.2-0.1,0.4,0,0.4,0.3l-0.6,5c0,0.1,0,0.2,0.1,0.2l3.8,3.3
	c0.2,0.1,0.1,0.4-0.1,0.4l-4.9,1c-0.1,0-0.2,0.1-0.2,0.2l-2,4.6c-0.1,0.2-0.4,0.2-0.5,0l-2.5-4.4c0-0.1-0.1-0.1-0.2-0.1l-5-0.5
	c-0.2,0-0.3-0.3-0.2-0.4l3.4-3.7c0.1-0.1,0.1-0.1,0.1-0.2l-1.1-4.9C307.6,14.7,307.8,14.5,308,14.6z"/>
<path class="st2" d="M335.9,3.2l2.5,2.2c0,0,0.1,0.1,0.2,0l3.2-0.8c0.1,0,0.3,0.1,0.2,0.2l-1.3,3c0,0.1,0,0.1,0,0.2l1.7,2.8
	c0.1,0.1,0,0.3-0.2,0.3l-3.3-0.3c-0.1,0-0.1,0-0.1,0.1l-2.1,2.5c-0.1,0.1-0.3,0.1-0.3-0.1l-0.7-3.2c0-0.1,0-0.1-0.1-0.1l-3.1-1.2
	c-0.1-0.1-0.1-0.2,0-0.3l2.8-1.7c0,0,0.1-0.1,0.1-0.1l0.2-3.3C335.6,3.2,335.8,3.1,335.9,3.2z"/>
</svg>
