<svg width="684" height="657" viewBox="0 0 684 657" fill="none" xmlns="http://www.w3.org/2000/svg">
<path d="M557.95 455.883L339.504 579.397L123.284 451.92L125.478 200.871L343.924 77.3569L560.177 204.892L557.95 455.883ZM339.587 571.675L551.291 451.974L553.492 208.672L343.841 85.0786L132.08 204.813L129.969 448.14L339.587 571.675Z" fill="#FCFEB1"/>
<path d="M568.774 462.273L339.4 591.965L338.846 591.664L112.356 458.099L112.318 457.353L114.687 194.539L344.062 64.8464L344.325 65.3116L571.105 198.713L571.368 199.178L568.774 462.273ZM339.444 589.331L566.494 460.953L568.78 200.028L344.017 67.481L116.968 195.859L114.507 456.882L339.444 589.331Z" fill="#FCFEB1"/>
<path d="M555.212 454.975C555.096 455.118 554.93 455.212 554.747 455.238L126.626 451.181C126.473 451.146 126.329 451.079 126.204 450.984C126.078 450.89 125.974 450.771 125.896 450.635C125.819 450.498 125.771 450.347 125.755 450.191C125.739 450.035 125.756 449.877 125.804 449.728L342.925 80.6084C343.026 80.4367 343.17 80.2946 343.344 80.1966C343.517 80.0985 343.714 80.0478 343.913 80.0496C344.11 80.0644 344.301 80.1278 344.468 80.2341C344.636 80.3404 344.774 80.4864 344.871 80.659L555.642 453.428C555.736 453.592 555.786 453.778 555.785 453.967C555.784 454.156 555.733 454.342 555.637 454.505C555.546 454.701 555.398 454.865 555.212 454.975ZM128.574 448.929L552.679 452.801L343.848 83.463L128.574 448.929Z" fill="#FCFEB1"/>
<path d="M340.08 576.616L339.615 576.879C339.42 576.884 339.227 576.839 339.055 576.748C338.883 576.657 338.737 576.524 338.631 576.36L127.762 203.417C127.673 203.234 127.629 203.032 127.635 202.829C127.64 202.626 127.694 202.427 127.792 202.249C127.893 202.077 128.038 201.935 128.211 201.837C128.385 201.739 128.581 201.688 128.78 201.69L557 205.921C557.198 205.935 557.389 205.998 557.557 206.104C557.725 206.21 557.864 206.356 557.961 206.529C558.059 206.702 558.113 206.896 558.117 207.094C558.121 207.293 558.077 207.489 557.987 207.666L340.537 576.203C340.428 576.383 340.269 576.526 340.08 576.616ZM130.626 203.869L339.523 573.324L554.83 207.916L130.626 203.869Z" fill="#FCFEB1"/>
<path d="M129.335 201.867L128.182 203.824L554.039 454.937L555.191 452.981L129.335 201.867Z" fill="#FCFEB1"/>
<path d="M556.246 205.81L126.039 449.058L127.157 451.035L557.364 207.787L556.246 205.81Z" fill="#FCFEB1"/>
<path d="M342.6 81.2636L338.68 575.628L340.95 575.647L344.87 81.2825L342.6 81.2636Z" fill="#FCFEB1"/>
<path d="M402.762 437.567C381.348 449.735 356.804 455.274 332.236 453.483C307.669 451.692 284.182 442.651 264.748 427.505C245.314 412.359 230.807 391.788 223.064 368.396C215.32 345.005 214.688 319.843 221.247 296.098C227.806 272.352 241.262 251.089 259.91 234.999C278.559 218.91 301.563 208.719 326.01 205.714C350.458 202.71 375.249 207.027 397.247 218.121C419.246 229.215 437.461 246.585 449.589 268.035C465.768 296.756 469.924 330.71 461.15 362.478C452.375 394.245 431.383 421.242 402.762 437.567ZM281.297 222.745C260.258 234.64 243.221 252.511 232.34 274.096C221.458 295.68 217.222 320.01 220.166 344.009C223.11 368.007 233.102 390.596 248.879 408.92C264.656 427.243 285.509 440.477 308.801 446.949C332.093 453.421 356.778 452.839 379.735 445.278C402.691 437.717 422.888 423.517 437.771 404.471C452.654 385.426 461.555 362.392 463.349 338.282C465.142 314.172 459.747 290.069 447.845 269.021C431.848 240.836 405.336 220.139 374.118 211.465C342.9 202.791 309.522 206.847 281.297 222.745Z" fill="#FCFEB1"/>
<path d="M385.893 407.733C370.378 416.567 352.588 420.596 334.778 419.311C316.968 418.025 299.937 411.482 285.843 400.511C271.748 389.54 261.224 374.634 255.602 357.68C249.98 340.726 249.513 322.486 254.261 305.271C259.008 288.055 268.757 272.638 282.272 260.97C295.787 249.303 312.461 241.91 330.183 239.729C347.904 237.547 365.877 240.674 381.824 248.715C397.772 256.755 410.978 269.346 419.769 284.895C431.51 305.696 434.538 330.299 428.189 353.32C421.84 376.341 406.633 395.906 385.893 407.733ZM298.133 252.52C282.958 261.039 270.653 273.871 262.776 289.391C254.898 304.911 251.802 322.421 253.879 339.706C255.956 356.99 263.113 373.272 274.444 386.49C285.775 399.708 300.77 409.268 317.532 413.959C334.295 418.651 352.07 418.264 368.608 412.846C385.146 407.429 399.703 397.225 410.438 383.527C421.172 369.828 427.601 353.25 428.91 335.892C430.219 318.533 426.35 301.175 417.793 286.013C406.328 265.735 387.297 250.825 364.87 244.547C342.442 238.269 318.445 241.136 298.133 252.52Z" fill="#FCFEB1"/>
<path d="M380.139 397.556C366.635 405.252 351.15 408.766 335.645 407.653C320.14 406.54 305.312 400.85 293.039 391.303C280.766 381.756 271.6 368.782 266.701 354.024C261.803 339.266 261.393 323.388 265.523 308.4C269.652 293.412 278.136 279.989 289.9 269.83C301.664 259.671 316.179 253.233 331.606 251.332C347.033 249.431 362.68 252.152 376.563 259.151C390.447 266.15 401.943 277.111 409.597 290.647C419.812 308.749 422.447 330.157 416.927 350.19C411.407 370.224 398.18 387.254 380.139 397.556ZM303.92 262.755C290.755 270.138 280.078 281.263 273.241 294.722C266.404 308.182 263.715 323.369 265.514 338.361C267.313 353.353 273.52 367.476 283.347 378.94C293.175 390.405 306.182 398.696 320.722 402.763C335.261 406.83 350.678 406.491 365.021 401.788C379.364 397.085 391.987 388.23 401.292 376.344C410.597 364.458 416.166 350.077 417.292 335.02C418.419 319.963 415.053 304.909 407.62 291.764C397.659 274.218 381.166 261.32 361.739 255.886C342.312 250.451 321.528 252.92 303.92 262.755Z" fill="#FCFEB1"/>
<path d="M351.643 323.415C352.82 325.498 353.349 327.885 353.162 330.27C352.976 332.654 352.082 334.929 350.596 336.803C349.11 338.676 347.099 340.064 344.819 340.788C342.54 341.511 340.097 341.539 337.801 340.866C335.506 340.193 333.463 338.851 331.934 337.011C330.405 335.171 329.46 332.917 329.218 330.537C328.976 328.157 329.45 325.759 330.578 323.651C331.707 321.542 333.438 319.818 335.552 318.699C338.319 317.235 341.549 316.908 344.554 317.789C347.559 318.67 350.102 320.688 351.643 323.415Z" fill="#FCFEB1"/>
<path d="M150.504 312.968C151.076 313.98 151.335 315.139 151.249 316.298C151.163 317.458 150.735 318.566 150.019 319.481C149.304 320.397 148.332 321.08 147.228 321.444C146.125 321.807 144.938 321.835 143.817 321.524C142.697 321.213 141.695 320.576 140.936 319.695C140.177 318.814 139.697 317.728 139.555 316.574C139.414 315.42 139.617 314.25 140.141 313.212C140.664 312.174 141.483 311.315 142.495 310.743C143.164 310.354 143.905 310.103 144.673 310.004C145.441 309.906 146.221 309.962 146.967 310.169C147.713 310.376 148.41 310.731 149.018 311.211C149.625 311.692 150.13 312.289 150.504 312.968Z" fill="#FCFEB1"/>
<path d="M250.707 152.09C251.279 153.102 251.539 154.261 251.453 155.421C251.366 156.58 250.938 157.688 250.223 158.604C249.507 159.519 248.536 160.202 247.432 160.566C246.328 160.929 245.141 160.957 244.021 160.646C242.901 160.335 241.898 159.699 241.139 158.817C240.381 157.936 239.9 156.85 239.759 155.696C239.617 154.542 239.821 153.372 240.344 152.334C240.867 151.296 241.687 150.437 242.698 149.865C244.055 149.098 245.661 148.901 247.163 149.319C248.665 149.736 249.94 150.733 250.707 152.09Z" fill="#FCFEB1"/>
<path d="M447.636 153.329C448.209 154.341 448.468 155.5 448.382 156.659C448.296 157.819 447.868 158.927 447.152 159.842C446.436 160.758 445.465 161.441 444.361 161.805C443.257 162.168 442.07 162.196 440.95 161.885C439.83 161.574 438.827 160.937 438.069 160.056C437.31 159.175 436.829 158.089 436.688 156.935C436.546 155.781 436.75 154.611 437.273 153.573C437.797 152.535 438.616 151.676 439.627 151.104C440.984 150.336 442.59 150.14 444.092 150.557C445.594 150.975 446.869 151.972 447.636 153.329Z" fill="#FCFEB1"/>
<path d="M545.96 321.526C546.532 322.539 546.792 323.698 546.706 324.857C546.619 326.016 546.191 327.124 545.476 328.04C544.76 328.956 543.789 329.639 542.685 330.002C541.581 330.366 540.394 330.394 539.274 330.082C538.154 329.771 537.151 329.135 536.392 328.254C535.634 327.373 535.153 326.286 535.012 325.132C534.87 323.978 535.074 322.808 535.597 321.77C536.12 320.732 536.94 319.873 537.951 319.301C538.623 318.921 539.363 318.678 540.129 318.584C540.895 318.49 541.672 318.548 542.416 318.755C543.16 318.961 543.855 319.313 544.463 319.788C545.072 320.264 545.58 320.854 545.96 321.526Z" fill="#FCFEB1"/>
<path d="M240.786 494.077C241.359 495.09 241.618 496.249 241.532 497.408C241.446 498.567 241.018 499.675 240.302 500.591C239.586 501.507 238.615 502.19 237.511 502.553C236.407 502.917 235.22 502.945 234.1 502.634C232.98 502.322 231.977 501.686 231.218 500.805C230.46 499.924 229.979 498.837 229.838 497.683C229.696 496.529 229.9 495.359 230.423 494.321C230.946 493.283 231.766 492.424 232.777 491.852C233.449 491.472 234.189 491.229 234.955 491.135C235.721 491.041 236.498 491.099 237.242 491.306C237.986 491.512 238.681 491.864 239.29 492.339C239.898 492.815 240.406 493.405 240.786 494.077Z" fill="#FCFEB1"/>
<path d="M446.092 498.869C446.859 500.226 447.056 501.833 446.64 503.335C446.223 504.837 445.227 506.112 443.87 506.879C442.514 507.646 440.908 507.843 439.406 507.425C437.904 507.008 436.629 506.011 435.861 504.654C435.094 503.296 434.897 501.69 435.314 500.188C435.73 498.686 436.726 497.411 438.083 496.644C439.44 495.877 441.046 495.68 442.548 496.098C444.05 496.515 445.325 497.512 446.092 498.869Z" fill="#FCFEB1"/>
<path d="M121.408 192.044C121.77 193.465 121.654 194.966 121.079 196.314C120.503 197.663 119.5 198.784 118.224 199.506C116.948 200.227 115.47 200.509 114.018 200.307C112.566 200.104 111.22 199.43 110.189 198.387C109.467 197.657 108.923 196.771 108.599 195.796C108.275 194.822 108.18 193.786 108.321 192.769C108.462 191.753 108.836 190.782 109.413 189.933C109.99 189.084 110.754 188.38 111.648 187.875C112.541 187.37 113.539 187.077 114.564 187.021C115.589 186.964 116.613 187.144 117.557 187.547C118.501 187.951 119.339 188.566 120.007 189.346C120.675 190.126 121.154 191.049 121.408 192.044Z" fill="#FCFEB1"/>
<path d="M349.561 63.0414C349.923 64.4625 349.808 65.9632 349.232 67.3117C348.657 68.6603 347.654 69.7818 346.378 70.5033C345.102 71.2249 343.624 71.5062 342.172 71.3041C340.719 71.1019 339.374 70.4274 338.343 69.3847C337.621 68.6547 337.077 67.7681 336.753 66.7938C336.429 65.8196 336.334 64.7838 336.475 63.767C336.616 62.7502 336.989 61.7796 337.566 60.9308C338.143 60.082 338.908 59.3776 339.802 58.8725C340.695 58.3674 341.693 58.075 342.718 58.0182C343.742 57.9614 344.767 58.1416 345.711 58.5449C346.655 58.9481 347.493 59.5635 348.161 60.3434C348.829 61.1232 349.308 62.0464 349.561 63.0414Z" fill="#FCFEB1"/>
<path d="M575.96 196.582C576.611 197.732 576.905 199.049 576.807 200.367C576.709 201.684 576.223 202.943 575.41 203.984C574.596 205.024 573.493 205.8 572.238 206.214C570.984 206.627 569.635 206.659 568.362 206.305C567.089 205.951 565.95 205.228 565.088 204.227C564.226 203.226 563.68 201.991 563.519 200.68C563.358 199.368 563.589 198.039 564.184 196.859C564.779 195.68 565.71 194.703 566.859 194.053C568.401 193.182 570.226 192.958 571.933 193.433C573.639 193.907 575.088 195.04 575.96 196.582Z" fill="#FCFEB1"/>
<path d="M118.665 455.146C119.315 456.296 119.61 457.613 119.512 458.93C119.414 460.248 118.928 461.507 118.114 462.547C117.301 463.588 116.197 464.364 114.943 464.777C113.688 465.19 112.34 465.222 111.067 464.868C109.794 464.515 108.654 463.792 107.792 462.79C106.93 461.789 106.384 460.555 106.223 459.243C106.062 457.932 106.294 456.602 106.889 455.423C107.483 454.243 108.414 453.267 109.564 452.617C111.105 451.745 112.93 451.522 114.637 451.996C116.344 452.47 117.793 453.603 118.665 455.146Z" fill="#FCFEB1"/>
<path d="M344.537 587.756C345.188 588.906 345.483 590.223 345.385 591.541C345.287 592.858 344.8 594.117 343.987 595.158C343.174 596.198 342.07 596.974 340.815 597.387C339.561 597.801 338.212 597.832 336.939 597.479C335.667 597.125 334.527 596.402 333.665 595.401C332.803 594.399 332.257 593.165 332.096 591.854C331.935 590.542 332.166 589.213 332.761 588.033C333.356 586.854 334.287 585.877 335.436 585.227C336.978 584.355 338.803 584.132 340.51 584.606C342.217 585.081 343.665 586.213 344.537 587.756Z" fill="#FCFEB1"/>
<path d="M572.691 458.753C573.342 459.903 573.636 461.221 573.538 462.538C573.44 463.856 572.954 465.114 572.141 466.155C571.327 467.196 570.224 467.972 568.969 468.385C567.715 468.798 566.366 468.83 565.093 468.476C563.82 468.122 562.681 467.399 561.819 466.398C560.957 465.397 560.411 464.162 560.25 462.851C560.089 461.54 560.32 460.21 560.915 459.031C561.51 457.851 562.441 456.875 563.59 456.225C565.132 455.353 566.957 455.13 568.664 455.604C570.37 456.078 571.819 457.211 572.691 458.753Z" fill="#FCFEB1"/>
<path d="M150.185 237.784C143.183 241.742 135.165 243.535 127.143 242.935C119.121 242.335 111.456 239.369 105.118 234.413C98.7792 229.456 94.0518 222.732 91.5333 215.09C89.0148 207.447 88.8182 199.23 90.9685 191.478C93.1188 183.726 97.5193 176.786 103.614 171.537C109.708 166.288 117.222 162.965 125.206 161.988C133.191 161.011 141.286 162.424 148.469 166.049C155.652 169.674 161.6 175.347 165.56 182.352C170.871 191.745 172.235 202.862 169.351 213.257C166.468 223.653 159.573 232.475 150.185 237.784ZM111.253 168.929C104.642 172.667 99.2891 178.282 95.8701 185.064C92.4511 191.846 91.12 199.491 92.045 207.031C92.97 214.572 96.1096 221.669 101.067 227.426C106.024 233.184 112.576 237.342 119.895 239.376C127.213 241.409 134.97 241.226 142.183 238.851C149.396 236.475 155.742 232.013 160.418 226.029C165.095 220.045 167.891 212.807 168.455 205.232C169.018 197.656 167.323 190.083 163.584 183.469C158.557 174.614 150.226 168.112 140.418 165.386C130.609 162.661 120.122 163.935 111.253 168.929Z" fill="#FCFEB1"/>
<path d="M363.574 117.129C356.572 121.088 348.554 122.881 340.532 122.281C332.51 121.681 324.845 118.715 318.507 113.759C312.168 108.802 307.441 102.078 304.922 94.4354C302.404 86.7931 302.207 78.5762 304.358 70.8239C306.508 63.0716 310.908 56.1321 317.003 50.8829C323.097 45.6336 330.611 42.3104 338.596 41.3336C346.58 40.3567 354.675 41.77 361.858 45.3947C369.041 49.0195 374.989 54.6929 378.949 61.6975C384.26 71.0904 385.624 82.2074 382.74 92.6029C379.857 102.998 372.963 111.821 363.574 117.129ZM324.642 48.2747C318.032 52.0125 312.678 57.6274 309.259 64.4095C305.84 71.1917 304.509 78.8363 305.434 86.3768C306.359 93.9173 309.499 101.015 314.456 106.772C319.413 112.53 325.965 116.688 333.284 118.721C340.603 120.755 348.359 120.572 355.572 118.196C362.785 115.821 369.131 111.359 373.807 105.375C378.484 99.3905 381.281 92.153 381.844 84.5775C382.407 77.0019 380.712 69.4285 376.973 62.8149C371.946 53.9599 363.615 47.4574 353.807 44.732C343.998 42.0066 333.511 43.2806 324.642 48.2747Z" fill="#FCFEB1"/>
<path d="M146.944 485.894C139.942 489.853 131.923 491.646 123.901 491.046C115.88 490.446 108.215 487.48 101.876 482.524C95.538 477.567 90.8106 470.843 88.2921 463.201C85.7736 455.558 85.577 447.341 87.7273 439.589C89.8776 431.837 94.2781 424.897 100.372 419.648C106.467 414.399 113.981 411.076 121.965 410.099C129.949 409.122 138.045 410.535 145.228 414.16C152.411 417.785 158.358 423.458 162.319 430.463C167.63 439.855 168.994 450.972 166.11 461.368C163.227 471.763 156.332 480.586 146.944 485.894ZM108.012 417.04C101.401 420.778 96.0479 426.393 92.6289 433.175C89.2099 439.957 87.8788 447.601 88.8038 455.142C89.7288 462.682 92.8684 469.78 97.8257 475.537C102.783 481.295 109.335 485.453 116.654 487.486C123.972 489.52 131.729 489.337 138.942 486.962C146.155 484.586 152.501 480.124 157.177 474.14C161.853 468.156 164.65 460.918 165.214 453.343C165.777 445.767 164.082 438.194 160.343 431.58C155.315 422.725 146.985 416.223 137.176 413.497C127.368 410.772 116.88 412.046 108.012 417.04Z" fill="#FCFEB1"/>
<path d="M575.757 243.436C568.735 247.33 560.718 249.058 552.715 248.401C544.712 247.745 537.081 244.734 530.784 239.747C524.488 234.761 519.807 228.022 517.332 220.381C514.857 212.739 514.698 204.537 516.877 196.807C519.055 189.077 523.472 182.166 529.571 176.945C535.671 171.724 543.18 168.426 551.152 167.467C559.124 166.508 567.202 167.931 574.368 171.556C581.535 175.182 587.469 180.847 591.423 187.839C594.066 192.515 595.759 197.667 596.402 202.999C597.045 208.331 596.626 213.737 595.17 218.906C593.713 224.075 591.248 228.903 587.916 233.113C584.584 237.323 580.452 240.832 575.757 243.436ZM536.825 174.581C530.214 178.319 524.861 183.934 521.442 190.716C518.023 197.498 516.692 205.143 517.617 212.683C518.542 220.224 521.682 227.321 526.639 233.078C531.596 238.836 538.148 242.994 545.467 245.028C552.785 247.061 560.542 246.878 567.755 244.503C574.968 242.127 581.314 237.665 585.99 231.681C590.667 225.697 593.463 218.459 594.027 210.884C594.59 203.308 592.895 195.735 589.156 189.121C584.129 180.266 575.798 173.764 565.99 171.038C556.181 168.313 545.694 169.587 536.825 174.581Z" fill="#FCFEB1"/>
<path d="M360.733 608.53C353.733 612.503 345.711 614.308 337.682 613.718C329.654 613.127 321.981 610.167 315.634 605.213C309.287 600.258 304.552 593.531 302.028 585.884C299.505 578.238 299.306 570.015 301.458 562.257C303.61 554.499 308.015 547.556 314.116 542.305C320.217 537.055 327.739 533.734 335.729 532.763C343.72 531.792 351.82 533.214 359.003 536.851C366.187 540.487 372.131 546.173 376.083 553.189C381.349 562.574 382.69 573.661 379.815 584.029C376.939 594.397 370.079 603.205 360.733 608.53ZM321.801 539.675C315.19 543.413 309.837 549.028 306.418 555.81C302.999 562.592 301.668 570.237 302.593 577.777C303.518 585.318 306.657 592.415 311.615 598.173C316.572 603.93 323.124 608.088 330.443 610.122C337.761 612.155 345.518 611.973 352.731 609.597C359.944 607.221 366.29 602.759 370.966 596.775C375.643 590.791 378.439 583.553 379.003 575.978C379.566 568.402 377.871 560.829 374.132 554.215C369.107 545.366 360.779 538.87 350.973 536.155C341.168 533.44 330.688 534.727 321.834 539.733L321.801 539.675Z" fill="#FCFEB1"/>
<path d="M572.029 489.059C565.028 493.017 557.009 494.81 548.987 494.21C540.965 493.61 533.3 490.645 526.962 485.688C520.623 480.732 515.896 474.007 513.378 466.365C510.859 458.722 510.662 450.506 512.813 442.753C514.963 435.001 519.364 428.061 525.458 422.812C531.552 417.563 539.067 414.24 547.051 413.263C555.035 412.286 563.13 413.699 570.313 417.324C577.496 420.949 583.444 426.622 587.404 433.627C592.697 443.024 594.051 454.134 591.169 464.525C588.287 474.915 581.404 483.737 572.029 489.059ZM533.097 420.204C526.471 423.92 521.097 429.519 517.655 436.293C514.212 443.066 512.856 450.709 513.759 458.256C514.661 465.802 517.781 472.911 522.724 478.685C527.667 484.458 534.21 488.636 541.526 490.689C548.842 492.743 556.602 492.579 563.823 490.22C571.045 487.861 577.404 483.411 582.095 477.435C586.786 471.459 589.599 464.225 590.177 456.647C590.756 449.07 589.074 441.491 585.345 434.868C580.342 426.02 572.037 419.514 562.25 416.776C552.463 414.039 541.992 415.292 533.13 420.262L533.097 420.204Z" fill="#FCFEB1"/>
</svg>
