<svg width="337" height="679" viewBox="0 0 337 679" fill="none" xmlns="http://www.w3.org/2000/svg">
<path d="M294.885 627.12V629.23H294.464L294.738 630.45C295.484 633.763 295.86 637.156 295.86 640.562V641.062C295.86 661.693 282.633 678 266.766 678H70.3528C54.4989 678 41.2581 661.693 41.2581 641.062V640.563C41.2616 637.012 41.6689 633.475 42.4712 630.026L42.4972 629.915V629.8V626.87V625.248L41.0481 625.976C37.7473 627.636 34.1403 628.5 30.4878 628.508H30.0947C14.2281 628.508 1 612.187 1 591.57V90.4297C1 69.7578 14.2273 53.4914 30.0947 53.4914H30.487C35.0154 53.5218 39.4545 54.8477 43.3302 57.3326L46.0562 59.0803L44.7904 56.0999C42.4327 50.5484 41.2279 44.5282 41.2581 38.4431V38.4382V37.9382C41.2581 17.3085 54.4982 1 70.3923 1H266.805C282.659 1 295.9 17.3078 295.926 37.9395V38.4382V38.4417C295.948 44.4726 294.761 50.439 292.445 55.9506L291.222 58.8625L293.898 57.1854C297.731 54.7837 302.1 53.5098 306.552 53.4914H306.945C322.812 53.4914 336.039 69.7575 336 90.4278V90.4297V591.625C336 612.243 322.772 628.564 306.905 628.564H306.512C302.996 628.555 299.521 627.756 296.318 626.218L294.885 625.53V627.12Z" fill="url(#paint0_linear_753_1682)" stroke="#121212" stroke-width="2"/>
<defs>
<linearGradient id="paint0_linear_753_1682" x1="168.5" y1="0" x2="168.5" y2="679" gradientUnits="userSpaceOnUse">
<stop stop-color="#FF6FC9"/>
<stop offset="1" stop-color="#FF26C2"/>
</linearGradient>
</defs>
</svg>
