<?xml version="1.0" encoding="utf-8"?>
<!-- Generator: Adobe Illustrator 26.2.1, SVG Export Plug-In . SVG Version: 6.00 Build 0)  -->
<svg version="1.1" id="图层_1" xmlns="http://www.w3.org/2000/svg" xmlns:xlink="http://www.w3.org/1999/xlink" x="0px" y="0px"
	 viewBox="0 0 60 649" style="enable-background:new 0 0 60 649;" xml:space="preserve">
<style type="text/css">
	.st0{clip-path:url(#SVGID_00000027585021586796064120000016600980100462610577_);}
	.st1{fill:#FFD37D;}
	.st2{clip-path:url(#SVGID_00000049214845003442383460000006232731193252904081_);}
</style>
<g>
	<g>
		<defs>
			<rect id="SVGID_1_" x="17.9" y="35" width="41" height="287.7"/>
		</defs>
		<clipPath id="SVGID_00000149349114657602342890000010255812810607722375_">
			<use xlink:href="#SVGID_1_"  style="overflow:visible;"/>
		</clipPath>
		<g style="clip-path:url(#SVGID_00000149349114657602342890000010255812810607722375_);">
			<path class="st1" d="M24.9,167.8c0.1,0,0.2,0,0.3-0.1c0.1,0,0.2-0.1,0.2-0.2l4.9-4.9c0.1-0.1,0.1-0.1,0.2-0.2
				c0-0.1,0.1-0.2,0.1-0.3c0-0.1,0-0.2-0.1-0.3c0-0.1-0.1-0.2-0.2-0.2c-0.1-0.1-0.3-0.2-0.5-0.2s-0.4,0.1-0.5,0.2l-4.9,4.9
				c-0.1,0.1-0.1,0.1-0.2,0.2c0,0.1-0.1,0.2-0.1,0.3c0,0.1,0,0.2,0.1,0.3c0,0.1,0.1,0.2,0.2,0.2c0.1,0.1,0.1,0.1,0.2,0.2
				C24.7,167.8,24.8,167.8,24.9,167.8z"/>
			<path class="st1" d="M48.3,144.4c0.1,0,0.2,0,0.3-0.1c0.1,0,0.2-0.1,0.2-0.2l4.9-4.9c0.1-0.1,0.1-0.1,0.2-0.2
				c0-0.1,0.1-0.2,0.1-0.3s0-0.2-0.1-0.3c0-0.1-0.1-0.2-0.2-0.2c-0.1-0.1-0.3-0.2-0.5-0.2s-0.4,0.1-0.5,0.2l-4.9,5
				c-0.1,0.1-0.1,0.1-0.2,0.2c0,0.1-0.1,0.2-0.1,0.3s0,0.2,0.1,0.3c0.1,0.1,0.1,0.2,0.2,0.2C47.9,144.4,48.1,144.4,48.3,144.4z"/>
			<path class="st1" d="M53.2,167.8c0.1,0,0.3,0,0.4-0.1c0.1-0.1,0.2-0.2,0.3-0.3c0.1-0.1,0.1-0.3,0-0.4c0-0.1-0.1-0.3-0.2-0.4
				l-4.9-4.9c-0.1-0.1-0.1-0.1-0.2-0.2c-0.1,0-0.2-0.1-0.3-0.1s-0.2,0-0.3,0.1c-0.1,0-0.2,0.1-0.2,0.2c-0.1,0.1-0.1,0.1-0.2,0.2
				c0,0.1-0.1,0.2-0.1,0.3c0,0.1,0,0.2,0.1,0.3c0,0.1,0.1,0.2,0.2,0.2l4.9,4.9C52.8,167.7,53,167.8,53.2,167.8z"/>
			<path class="st1" d="M29.8,144.4c0.1,0,0.3,0,0.4-0.1c0.1-0.1,0.2-0.2,0.3-0.3c0.1-0.1,0.1-0.3,0-0.4c0-0.1-0.1-0.3-0.2-0.4
				l-4.9-4.9c-0.1-0.1-0.3-0.2-0.5-0.2s-0.4,0.1-0.5,0.2c-0.1,0.1-0.2,0.3-0.2,0.5s0.1,0.4,0.2,0.5l4.9,4.9
				C29.5,144.4,29.6,144.4,29.8,144.4z"/>
			<path class="st1" d="M39.1,175.3c0.1,0,0.3,0,0.4-0.1c0.1-0.1,0.2-0.2,0.3-0.3c1.1-2.7,1.9-6.8,2.5-12.1c0.1-1.1,0.5-2.2,1.1-3.2
				c1,0.8,2.2,1.5,3.3,2c0.1,0.1,0.3,0.1,0.4,0c0.1,0,0.3-0.1,0.4-0.2c0.1-0.1,0.2-0.2,0.2-0.4c0-0.1,0-0.3,0-0.4
				c-0.6-1.2-1.2-2.3-2-3.4c1-0.6,2-1,3.2-1.2c3.3-0.4,6.5-1.2,9.6-2.3c0.2,0,0.3-0.1,0.4-0.3c0.1-0.1,0.1-0.3,0.1-0.5
				s-0.1-0.3-0.2-0.4c-0.1-0.1-0.2-0.2-0.4-0.2c-0.1,0-5.2-1.2-10-2.1c-1.1-0.2-2.1-0.6-3-1.3c0.9-1.1,1.6-2.3,2.3-3.6
				c0.1-0.1,0.1-0.3,0-0.5c0-0.2-0.1-0.3-0.3-0.4c-0.1-0.1-0.3-0.2-0.4-0.2c-0.2,0-0.3,0.1-0.4,0.1c0,0-1.6,1.1-3.2,2.3
				c-0.6-1-1-2.1-1.1-3.2c-0.6-5.5-1.4-9.8-2.5-12.5c-0.1-0.1-0.1-0.3-0.3-0.3c-0.1-0.1-0.3-0.1-0.4-0.1c-0.1,0-0.3,0-0.4,0.1
				c-0.1,0.1-0.2,0.2-0.3,0.3c-1.1,2.8-1.9,7-2.5,12.5c-0.1,1-0.4,2-0.9,2.9c-1.1-0.8-2.3-1.5-3.5-2.1c-0.1-0.1-0.3-0.1-0.4,0
				c-0.1,0-0.3,0.1-0.4,0.2c-0.1,0.1-0.2,0.2-0.2,0.4c0,0.1,0,0.3,0,0.4c0.6,1.3,1.3,2.5,2.1,3.7c-0.9,0.6-1.9,1-2.9,1.2
				c-4.8,0.9-9.9,2.1-10,2.1c-0.2,0-0.3,0.1-0.4,0.2c-0.1,0.1-0.2,0.3-0.2,0.4c0,0.2,0,0.3,0.1,0.4s0.2,0.2,0.3,0.3
				c3.1,1.1,6.3,1.9,9.6,2.3c1.2,0.2,2.4,0.6,3.4,1.4c-1.1,1.6-2.2,3.1-2.2,3.1c-0.1,0.1-0.1,0.3-0.1,0.4c0,0.2,0.1,0.3,0.1,0.4
				c0.1,0.1,0.2,0.2,0.4,0.3c0.2,0,0.3,0,0.5,0c1.2-0.6,2.3-1.3,3.3-2.1c0.6,1,1,2.1,1.2,3.3c0.6,5.3,1.4,9.4,2.4,12.1
				c0.1,0.2,0.2,0.3,0.3,0.4C38.7,175.2,38.9,175.3,39.1,175.3z M43.1,157.7c-0.1,0-0.2,0-0.3,0.1c-0.1,0-0.2,0.1-0.3,0.2
				c-1,1.3-1.6,2.9-1.8,4.5c-0.3,3.3-0.9,6.5-1.7,9.7c-0.8-3.2-1.4-6.4-1.7-9.7c-0.2-1.7-0.8-3.3-1.9-4.6c-0.1-0.1-0.3-0.2-0.5-0.3
				c-0.2,0-0.4,0-0.5,0.1l-0.6,0.4l0.4-0.6c0.1-0.1,0.2-0.3,0.1-0.5c0-0.2-0.1-0.3-0.3-0.5c-1.3-1.1-3-1.9-4.7-2.1
				c-2.3-0.3-4.6-0.8-6.9-1.4c1.9-0.4,4.7-1,7.4-1.5c1.5-0.3,2.9-0.9,4.1-1.9c0.1-0.1,0.2-0.3,0.3-0.5c0-0.2,0-0.4-0.1-0.5
				c-0.5-0.6-0.9-1.2-1.2-1.7c0.5,0.3,1,0.7,1.6,1.2c0.1,0.1,0.2,0.1,0.3,0.1s0.2,0,0.3,0s0.2,0,0.3-0.1s0.2-0.1,0.2-0.2
				c0.9-1.3,1.4-2.7,1.6-4.3c0.3-3.4,0.9-6.8,1.7-10.1c0.9,3.3,1.4,6.7,1.7,10.1c0.2,1.6,0.8,3.2,1.8,4.5c0.1,0.1,0.3,0.2,0.5,0.3
				c0.2,0,0.4,0,0.5-0.1l0.8-0.5l-0.6,0.8c-0.1,0.1-0.2,0.3-0.1,0.5c0,0.2,0.1,0.4,0.3,0.5c1.2,1,2.7,1.7,4.2,2
				c2.6,0.5,5.4,1.1,7.4,1.5c-2.3,0.6-4.6,1.1-6.9,1.4c-1.6,0.2-3.2,0.9-4.4,1.9c-0.2,0.1-0.2,0.3-0.3,0.5c0,0.2,0,0.4,0.1,0.5
				c0.4,0.5,0.7,1,1,1.5c-0.5-0.3-1-0.7-1.5-1C43.5,157.8,43.3,157.7,43.1,157.7z"/>
			<path class="st1" d="M39.1,86.8c0.2,0,0.3-0.1,0.5-0.2c0.1-0.1,0.2-0.3,0.3-0.4l2-9.8l9.5,3.2c0.2,0.1,0.3,0.1,0.5,0
				s0.3-0.2,0.4-0.3c0.1-0.1,0.1-0.3,0.1-0.5s-0.1-0.3-0.2-0.4l-7.5-6.7l7.5-6.6c0.1-0.1,0.2-0.3,0.2-0.4c0-0.2,0-0.3-0.1-0.5
				c-0.1-0.1-0.2-0.2-0.4-0.3c-0.1-0.1-0.3-0.1-0.5,0l-9.5,3.2l-2-9.8c0-0.2-0.1-0.3-0.3-0.4c-0.1-0.1-0.3-0.2-0.5-0.2
				s-0.3,0.1-0.5,0.2c-0.1,0.1-0.2,0.2-0.3,0.4l-2,9.8l-9.5-3.2c-0.2-0.1-0.3-0.1-0.5,0s-0.3,0.2-0.4,0.3c-0.1,0.1-0.1,0.3-0.1,0.5
				s0.1,0.3,0.2,0.4l7.5,6.7L26,78.4c-0.1,0.1-0.2,0.3-0.2,0.4c0,0.2,0,0.3,0.1,0.5c0.1,0.1,0.2,0.2,0.4,0.3s0.3,0.1,0.5,0l9.5-3.2
				l2,9.8c0,0.2,0.1,0.3,0.3,0.4C38.7,86.7,38.9,86.8,39.1,86.8z M41.2,74.7c-0.1,0-0.3,0-0.4,0.1c-0.1,0.1-0.2,0.1-0.2,0.2
				c-0.1,0.1-0.1,0.2-0.1,0.3l-1.4,7.1l-1.4-7.1c0-0.1-0.1-0.2-0.1-0.3s-0.1-0.2-0.2-0.2c-0.1-0.1-0.2-0.1-0.3-0.1s-0.2,0-0.3,0
				L29.9,77l5.4-4.8c0.1-0.1,0.1-0.2,0.2-0.2c0-0.1,0.1-0.2,0.1-0.3s0-0.2-0.1-0.3c0-0.1-0.1-0.2-0.2-0.2l-5.4-4.8l6.9,2.3
				c0.1,0,0.2,0,0.3,0s0.2,0,0.3-0.1s0.2-0.1,0.2-0.2c0.1-0.1,0.1-0.2,0.1-0.3l1.4-7.1l1.5,7.1c0,0.1,0.1,0.2,0.1,0.3
				s0.1,0.2,0.2,0.2c0.1,0.1,0.2,0.1,0.3,0.1s0.2,0,0.3,0l6.9-2.3L43,71.2c-0.1,0.1-0.1,0.2-0.2,0.2c0,0.1-0.1,0.2-0.1,0.3
				s0,0.2,0.1,0.3c0,0.1,0.1,0.2,0.2,0.2l5.4,4.8l-6.9-2.3C41.4,74.7,41.3,74.7,41.2,74.7z"/>
			<path class="st1" d="M40.2,280.9c0.2,0,0.3-0.1,0.5-0.2c0.1-0.1,0.2-0.3,0.3-0.4l2-9.8l9.5,3.2c0.2,0.1,0.3,0.1,0.5,0
				s0.3-0.2,0.4-0.3c0.1-0.2,0.1-0.3,0.1-0.5s-0.1-0.3-0.3-0.4l-7.5-6.6l7.5-6.6c0.1-0.1,0.2-0.3,0.2-0.4c0-0.2,0-0.3-0.1-0.5
				c-0.1-0.1-0.2-0.3-0.4-0.3c-0.2-0.1-0.3-0.1-0.5,0l-9.5,3.2l-2-9.8c0-0.2-0.1-0.3-0.3-0.4c-0.1-0.1-0.3-0.2-0.5-0.2
				s-0.3,0.1-0.5,0.2c-0.1,0.1-0.2,0.2-0.3,0.4l-2,9.8l-9.5-3.2c-0.2-0.1-0.3-0.1-0.5,0s-0.3,0.2-0.4,0.3c-0.1,0.1-0.1,0.3-0.1,0.5
				s0.1,0.3,0.2,0.4l7.5,6.6l-7.5,6.6c-0.1,0.1-0.2,0.3-0.2,0.4c0,0.2,0,0.3,0.1,0.5c0.1,0.1,0.2,0.3,0.4,0.3c0.2,0.1,0.3,0.1,0.5,0
				l9.5-3.2l2,9.8c0,0.2,0.1,0.3,0.2,0.4C39.9,280.9,40,280.9,40.2,280.9z M42.4,268.8c-0.1,0-0.3,0-0.4,0.1
				c-0.1,0.1-0.2,0.1-0.2,0.2c-0.1,0.1-0.1,0.2-0.1,0.3l-1.4,7.1l-1.4-7.1c0-0.1-0.1-0.2-0.1-0.3c-0.1-0.1-0.1-0.2-0.2-0.2
				c-0.1,0-0.2-0.1-0.3-0.1s-0.2,0-0.3,0l-6.9,2.3l5.5-4.8c0.1-0.1,0.1-0.2,0.2-0.2c0-0.1,0.1-0.2,0.1-0.3c0-0.1,0-0.2-0.1-0.3
				c0-0.1-0.1-0.2-0.2-0.2l-5.5-4.8l6.9,2.3c0.1,0,0.2,0,0.3,0s0.2,0,0.3-0.1s0.2-0.1,0.2-0.2c0.1-0.1,0.1-0.2,0.1-0.3l1.4-7.1
				l1.4,7.1c0,0.1,0.1,0.2,0.1,0.3c0.1,0.1,0.1,0.2,0.2,0.2c0.1,0.1,0.2,0.1,0.3,0.1s0.2,0,0.3,0l6.9-2.3l-5.4,4.8
				c-0.1,0.1-0.1,0.2-0.2,0.2s-0.1,0.2-0.1,0.3c0,0.1,0,0.2,0.1,0.3c0,0.1,0.1,0.2,0.2,0.2l5.4,4.8l-6.9-2.3
				C42.5,268.8,42.4,268.8,42.4,268.8z"/>
			<path class="st1" d="M23.1,103.5c0.1,0,0.3,0,0.4-0.1c0.1-0.1,0.2-0.2,0.3-0.3c0.1-0.4,0.2-0.7,0.3-1.1c0.1-0.5,0.3-0.9,0.6-1.3
				s0.7-0.6,1.2-0.7c0.3-0.1,0.5-0.1,0.8-0.2c0.1-0.1,0.3-0.2,0.4-0.3c0.1-0.1,0.1-0.3,0.1-0.4c0-0.2-0.1-0.3-0.2-0.4
				c-0.1-0.1-0.2-0.2-0.4-0.2l-0.5-0.1c-0.5-0.1-0.9-0.3-1.3-0.7c-0.3-0.4-0.6-0.8-0.7-1.3c-0.1-0.4-0.2-0.8-0.3-1.2
				c-0.1-0.1-0.1-0.2-0.3-0.3c-0.1-0.1-0.3-0.1-0.4-0.1c-0.1,0-0.3,0-0.4,0.1c-0.1,0.1-0.2,0.2-0.3,0.3c-0.1,0.4-0.2,0.8-0.3,1.2
				c-0.1,0.5-0.3,0.9-0.7,1.3c-0.3,0.4-0.8,0.6-1.3,0.7l-0.5,0.1c-0.1,0-0.3,0.1-0.4,0.2C19.1,98.8,19,99,19,99.1
				c0,0.2,0,0.3,0.1,0.4c0.1,0.1,0.2,0.2,0.3,0.3c0.3,0.1,0.5,0.2,0.8,0.2c0.5,0.1,0.9,0.4,1.2,0.7c0.3,0.4,0.5,0.8,0.6,1.3
				c0,0.4,0.1,0.8,0.3,1.2c0.1,0.1,0.2,0.2,0.3,0.3C22.7,103.5,22.9,103.5,23.1,103.5L23.1,103.5z M24.3,99c-0.5,0.3-1,0.8-1.3,1.4
				c-0.3-0.6-0.7-1-1.3-1.4c0.5-0.4,1-0.8,1.3-1.4C23.4,98.2,23.8,98.7,24.3,99L24.3,99z"/>
			<path class="st1" d="M47.6,117.7c0.1,0,0.3,0,0.4-0.1c0.1-0.1,0.2-0.2,0.3-0.3c0.2-0.6,0.4-1.3,0.5-2c0.2-1,0.6-1.9,1.3-2.7
				s1.6-1.3,2.6-1.6c0.5-0.1,0.9-0.3,1.4-0.4c0.1-0.1,0.3-0.2,0.4-0.3c0.1-0.1,0.1-0.3,0.1-0.4c0-0.1-0.1-0.3-0.2-0.4
				c-0.1-0.1-0.2-0.2-0.4-0.2l-1-0.2c-1-0.2-2-0.7-2.7-1.5s-1.2-1.7-1.4-2.8c-0.1-0.7-0.3-1.5-0.6-2.1c-0.1-0.1-0.2-0.2-0.3-0.3
				s-0.3-0.1-0.4-0.1c-0.1,0-0.3,0-0.4,0.1c-0.1,0.1-0.2,0.2-0.3,0.3c-0.3,0.7-0.4,1.4-0.6,2.1c-0.2,1-0.7,2-1.4,2.8
				s-1.7,1.3-2.7,1.5l-1,0.3c-0.2,0-0.3,0.1-0.4,0.2c-0.1,0.1-0.2,0.3-0.2,0.4c0,0.2,0,0.3,0.1,0.4c0.1,0.1,0.2,0.2,0.4,0.3
				c0.5,0.2,0.9,0.3,1.4,0.4c1,0.3,1.9,0.8,2.6,1.6c0.7,0.8,1.2,1.7,1.3,2.7c0.1,0.7,0.3,1.4,0.5,2c0.1,0.1,0.1,0.3,0.3,0.3
				C47.4,117.7,47.5,117.7,47.6,117.7L47.6,117.7z M51.4,109.9c-0.9,0.4-1.7,1-2.3,1.7s-1.1,1.6-1.4,2.5c-0.3-0.9-0.8-1.8-1.4-2.5
				c-0.6-0.7-1.4-1.3-2.3-1.7c0.9-0.4,1.7-1,2.3-1.7s1.1-1.6,1.4-2.5c0.3,0.9,0.8,1.8,1.4,2.5C49.7,108.9,50.5,109.5,51.4,109.9z"/>
			<path class="st1" d="M26.7,43.2h5.6c0.2,0,0.4-0.1,0.5-0.2c0.1-0.1,0.2-0.3,0.2-0.5s-0.1-0.4-0.2-0.5s-0.3-0.2-0.5-0.2h-5.6
				c-0.2,0-0.4,0.1-0.5,0.2c-0.1,0.1-0.2,0.3-0.2,0.5s0.1,0.4,0.2,0.5C26.3,43.2,26.5,43.2,26.7,43.2z"/>
			<path class="st1" d="M18.6,43.2h5.6c0.2,0,0.4-0.1,0.5-0.2c0.1-0.1,0.2-0.3,0.2-0.5s-0.1-0.4-0.2-0.5c-0.1-0.1-0.3-0.2-0.5-0.2
				h-5.6c-0.2,0-0.4,0.1-0.5,0.2s-0.2,0.3-0.2,0.5s0.1,0.4,0.2,0.5C18.2,43.2,18.4,43.2,18.6,43.2z"/>
			<path class="st1" d="M25.4,41.6c0.2,0,0.4-0.1,0.5-0.2c0.1-0.1,0.2-0.3,0.2-0.5v-5.2c0-0.2-0.1-0.4-0.2-0.5S25.6,35,25.4,35
				s-0.4,0.1-0.5,0.2c-0.1,0.1-0.2,0.3-0.2,0.5v5.2c0,0.2,0.1,0.4,0.2,0.5C25,41.5,25.2,41.6,25.4,41.6z"/>
			<path class="st1" d="M25.4,50.1c0.2,0,0.4-0.1,0.5-0.2c0.1-0.1,0.2-0.3,0.2-0.5v-5.2c0-0.2-0.1-0.4-0.2-0.5s-0.3-0.2-0.5-0.2
				s-0.4,0.1-0.5,0.2c-0.1,0.1-0.2,0.3-0.2,0.5v5.2c0,0.2,0.1,0.4,0.2,0.5C25,50,25.2,50.1,25.4,50.1z"/>
			<path class="st1" d="M25.4,47.2c0.2,0,0.4-0.1,0.5-0.2c0.1-0.1,0.2-0.3,0.2-0.5c0-3.2,0-3.2,2.7-3.2c0.2,0,0.4-0.1,0.5-0.2
				c0.1-0.1,0.2-0.3,0.2-0.5s-0.1-0.4-0.2-0.5c-0.1-0.1-0.3-0.2-0.5-0.2c-2.7,0-2.7,0-2.7-3.2c0-0.2-0.1-0.4-0.2-0.5
				c-0.1-0.1-0.3-0.2-0.5-0.2s-0.4,0.1-0.5,0.2c-0.1,0.1-0.2,0.3-0.2,0.5c0,3.2,0,3.2-2.7,3.2c-0.2,0-0.4,0.1-0.5,0.2
				s-0.2,0.3-0.2,0.5s0.1,0.4,0.2,0.5c0.1,0.1,0.3,0.2,0.5,0.2c2.7,0,2.7,0,2.7,3.2c0,0.2,0.1,0.4,0.2,0.5
				C25,47.1,25.2,47.2,25.4,47.2z M25.4,42.6L25.4,42.6L25.4,42.6L25.4,42.6C25.4,42.5,25.4,42.5,25.4,42.6L25.4,42.6z"/>
			<path class="st1" d="M27.8,234.6c0.1,0,0.3,0,0.4-0.1c0.1-0.1,0.2-0.2,0.3-0.3c0.1-0.4,0.2-0.7,0.3-1.1c0.1-0.5,0.3-0.9,0.6-1.3
				s0.7-0.6,1.2-0.7c0.3-0.1,0.5-0.1,0.8-0.2c0.1-0.1,0.3-0.2,0.3-0.3c0.1-0.1,0.1-0.3,0.1-0.4c0-0.2-0.1-0.3-0.2-0.4
				c-0.1-0.1-0.2-0.2-0.4-0.2l-0.5-0.1c-0.5-0.1-0.9-0.3-1.3-0.7c-0.3-0.4-0.6-0.8-0.7-1.3c-0.1-0.4-0.2-0.8-0.3-1.2
				c-0.1-0.1-0.1-0.3-0.3-0.3c-0.1-0.1-0.3-0.1-0.4-0.1c-0.1,0-0.3,0-0.4,0.1c-0.1,0.1-0.2,0.2-0.3,0.3c-0.1,0.4-0.2,0.8-0.3,1.2
				c-0.1,0.5-0.3,0.9-0.7,1.3s-0.8,0.6-1.3,0.7l-0.6,0.1c-0.2,0-0.3,0.1-0.4,0.2c-0.1,0.1-0.2,0.3-0.2,0.4c0,0.2,0,0.3,0.1,0.4
				s0.2,0.2,0.3,0.3c0.3,0.1,0.5,0.2,0.8,0.2c0.5,0.1,0.9,0.4,1.2,0.7c0.3,0.4,0.5,0.8,0.6,1.3c0.1,0.4,0.2,0.8,0.3,1.1
				c0.1,0.1,0.2,0.3,0.3,0.3C27.5,234.5,27.6,234.6,27.8,234.6z M29.1,230.1c-0.5,0.3-1,0.8-1.3,1.4c-0.3-0.6-0.7-1-1.3-1.4
				c0.5-0.3,1-0.8,1.3-1.4C28.1,229.3,28.5,229.8,29.1,230.1z"/>
			<path class="st1" d="M29.9,304.8c0.1,0,0.3,0,0.4-0.1c0.1-0.1,0.2-0.2,0.3-0.3c0.1-0.4,0.2-0.7,0.3-1.1c0.1-0.5,0.3-0.9,0.6-1.3
				s0.7-0.6,1.2-0.7c0.3-0.1,0.5-0.1,0.8-0.3c0.1-0.1,0.3-0.2,0.4-0.3c0.1-0.1,0.1-0.3,0.1-0.4c0-0.2-0.1-0.3-0.2-0.4
				c-0.1-0.1-0.2-0.2-0.4-0.2l-0.5-0.1c-0.5-0.1-0.9-0.4-1.3-0.7c-0.3-0.4-0.6-0.8-0.7-1.3c-0.1-0.4-0.2-0.8-0.3-1.2
				c-0.1-0.1-0.1-0.3-0.3-0.3c-0.1-0.1-0.3-0.1-0.4-0.1c-0.1,0-0.3,0-0.4,0.1c-0.1,0.1-0.2,0.2-0.3,0.3c-0.1,0.4-0.2,0.8-0.3,1.2
				c-0.1,0.5-0.3,0.9-0.7,1.3c-0.3,0.4-0.8,0.6-1.3,0.7l-0.5,0.1c-0.2,0-0.3,0.1-0.4,0.2c-0.1,0.1-0.2,0.3-0.2,0.4
				c0,0.2,0,0.3,0.1,0.4s0.2,0.2,0.3,0.3c0.3,0.1,0.5,0.2,0.8,0.3c0.5,0.1,0.9,0.4,1.2,0.7c0.3,0.4,0.5,0.8,0.6,1.3
				c0.1,0.4,0.2,0.8,0.3,1.1c0,0.1,0.1,0.3,0.2,0.3C29.6,304.7,29.7,304.7,29.9,304.8z M31.2,300.3c-0.5,0.4-1,0.8-1.3,1.4
				c-0.3-0.6-0.7-1-1.3-1.4c0.5-0.4,1-0.8,1.3-1.4C30.2,299.5,30.6,299.9,31.2,300.3L31.2,300.3z"/>
			<path class="st1" d="M40.2,201.7h5.5c0.2,0,0.4-0.1,0.5-0.2s0.2-0.3,0.2-0.5s-0.1-0.4-0.2-0.5c-0.1-0.1-0.3-0.2-0.5-0.2h-5.6
				c-0.2,0-0.4,0.1-0.5,0.2s-0.2,0.3-0.2,0.5c0,0.1,0,0.2,0.1,0.3c0,0.1,0.1,0.2,0.2,0.2c0.1,0.1,0.2,0.1,0.2,0.2
				C40,201.7,40.1,201.7,40.2,201.7z"/>
			<path class="st1" d="M32.1,201.7h5.6c0.2,0,0.4-0.1,0.5-0.2s0.2-0.3,0.2-0.5s-0.1-0.4-0.2-0.5c-0.1-0.1-0.3-0.2-0.5-0.2h-5.6
				c-0.1,0-0.2,0-0.3,0.1s-0.2,0.1-0.2,0.2c-0.1,0.1-0.1,0.1-0.2,0.2c0,0.1-0.1,0.2-0.1,0.3c0,0.2,0.1,0.4,0.2,0.5
				C31.8,201.6,31.9,201.7,32.1,201.7z"/>
			<path class="st1" d="M39,200c0.2,0,0.4-0.1,0.5-0.2s0.2-0.3,0.2-0.5v-5.2c0-0.1,0-0.2-0.1-0.3c0-0.1-0.1-0.2-0.2-0.2
				c-0.1-0.1-0.1-0.1-0.2-0.2c-0.1,0-0.2-0.1-0.3-0.1c-0.2,0-0.4,0.1-0.5,0.2s-0.2,0.3-0.2,0.5v5.2c0,0.2,0.1,0.4,0.2,0.5
				C38.6,199.9,38.8,200,39,200z"/>
			<path class="st1" d="M39,208.5c0.1,0,0.2,0,0.3-0.1c0.1,0,0.2-0.1,0.2-0.2c0.1-0.1,0.1-0.1,0.2-0.2c0-0.1,0.1-0.2,0.1-0.3v-5.2
				c0-0.2-0.1-0.4-0.2-0.5c-0.1-0.1-0.3-0.2-0.5-0.2s-0.4,0.1-0.5,0.2s-0.2,0.3-0.2,0.5v5.2c0,0.2,0.1,0.4,0.2,0.5
				C38.6,208.4,38.8,208.5,39,208.5z"/>
			<path class="st1" d="M39,205.6c0.2,0,0.4-0.1,0.5-0.2s0.2-0.3,0.2-0.5c0-3.2,0-3.2,2.7-3.2c0.2,0,0.4-0.1,0.5-0.2
				s0.2-0.3,0.2-0.5s-0.1-0.4-0.2-0.5c-0.1-0.1-0.3-0.2-0.5-0.2c-2.7,0-2.7,0-2.7-3.2c0-0.1,0-0.2-0.1-0.3c0-0.1-0.1-0.2-0.2-0.2
				c-0.1-0.1-0.1-0.1-0.2-0.2c-0.1,0-0.2-0.1-0.3-0.1c-0.2,0-0.4,0.1-0.5,0.2s-0.2,0.3-0.2,0.5c0,3.2,0,3.2-2.7,3.2
				c-0.2,0-0.4,0.1-0.5,0.2s-0.2,0.3-0.2,0.5s0.1,0.4,0.2,0.5c0.1,0.1,0.3,0.2,0.5,0.2c2.7,0,2.7,0,2.7,3.2c0,0.2,0.1,0.4,0.2,0.5
				C38.6,205.5,38.8,205.6,39,205.6z M39,200.9L39,200.9L39,200.9L39,200.9L39,200.9z"/>
			<path class="st1" d="M50.7,315.8h5.5c0.2,0,0.4-0.1,0.5-0.2s0.2-0.3,0.2-0.5c0-0.1,0-0.2-0.1-0.3c0-0.1-0.1-0.2-0.2-0.2
				c-0.1-0.1-0.1-0.1-0.2-0.2c-0.1,0-0.2-0.1-0.3-0.1h-5.5c-0.2,0-0.4,0.1-0.5,0.2s-0.2,0.3-0.2,0.5c0,0.1,0,0.2,0.1,0.3
				c0,0.1,0.1,0.2,0.2,0.2c0.1,0.1,0.1,0.1,0.2,0.2C50.5,315.8,50.6,315.8,50.7,315.8z"/>
			<path class="st1" d="M42.6,315.8h5.6c0.2,0,0.4-0.1,0.5-0.2s0.2-0.3,0.2-0.5s-0.1-0.4-0.2-0.5c-0.1-0.1-0.3-0.2-0.5-0.2h-5.6
				c-0.2,0-0.4,0.1-0.5,0.2s-0.2,0.3-0.2,0.5s0.1,0.4,0.2,0.5C42.2,315.7,42.4,315.8,42.6,315.8z"/>
			<path class="st1" d="M49.4,314.2c0.2,0,0.3-0.1,0.5-0.2c0.1-0.1,0.2-0.3,0.2-0.5v-5.2c0-0.2-0.1-0.4-0.2-0.5
				c-0.1-0.1-0.3-0.2-0.5-0.2s-0.4,0.1-0.5,0.2s-0.2,0.3-0.2,0.5v5.2c0,0.1,0,0.2,0.1,0.3s0.1,0.2,0.2,0.2c0.1,0.1,0.2,0.1,0.2,0.1
				C49.2,314.2,49.3,314.2,49.4,314.2z"/>
			<path class="st1" d="M49.4,322.6c0.2,0,0.4-0.1,0.5-0.2s0.2-0.3,0.2-0.5v-5.2c0-0.2-0.1-0.4-0.2-0.5c-0.1-0.1-0.3-0.2-0.5-0.2
				s-0.4,0.1-0.5,0.2s-0.2,0.3-0.2,0.5v5.2c0,0.2,0.1,0.4,0.2,0.5C49.1,322.6,49.2,322.6,49.4,322.6z"/>
			<path class="st1" d="M49.4,319.7c0.2,0,0.4-0.1,0.5-0.2s0.2-0.3,0.2-0.5c0-3.2,0-3.2,2.7-3.2c0.2,0,0.4-0.1,0.5-0.2
				s0.2-0.3,0.2-0.5s-0.1-0.4-0.2-0.5c-0.1-0.1-0.3-0.2-0.5-0.2c-2.8,0-2.8,0-2.8-3.2c0-0.2-0.1-0.4-0.2-0.5
				c-0.1-0.1-0.3-0.2-0.5-0.2s-0.4,0.1-0.5,0.2s-0.2,0.3-0.2,0.5c0,3.2,0,3.2-2.7,3.2c-0.2,0-0.4,0.1-0.5,0.2s-0.2,0.3-0.2,0.5
				s0.1,0.4,0.2,0.5c0.1,0.1,0.3,0.2,0.5,0.2c2.7,0,2.7,0,2.7,3.2c0,0.1,0,0.2,0.1,0.3c0,0.1,0.1,0.2,0.2,0.2
				c0.1,0.1,0.2,0.1,0.3,0.2C49.2,319.7,49.3,319.7,49.4,319.7z M49.4,315.1L49.4,315.1L49.4,315.1L49.4,315.1z"/>
		</g>
	</g>
</g>
<g>
	<g>
		<defs>
			<rect id="SVGID_00000092429000604979337040000009728345982663881862_" x="13" y="472" width="38" height="111"/>
		</defs>
		<clipPath id="SVGID_00000153700640614884511530000011358148018695933826_">
			<use xlink:href="#SVGID_00000092429000604979337040000009728345982663881862_"  style="overflow:visible;"/>
		</clipPath>
		<g style="clip-path:url(#SVGID_00000153700640614884511530000011358148018695933826_);">
			<path class="st1" d="M39.5,549.3c0.2,0,0.3-0.1,0.5-0.1c0.1-0.1,0.3-0.2,0.3-0.4c0.2-0.4,0.3-0.8,0.3-1.3c0.1-0.5,0.4-1,0.7-1.4
				c0.4-0.4,0.9-0.7,1.4-0.8c0.3-0.1,0.6-0.2,0.9-0.3c0.2-0.1,0.3-0.2,0.4-0.3c0.1-0.1,0.1-0.3,0.1-0.5s-0.1-0.3-0.2-0.5
				c-0.1-0.1-0.3-0.2-0.4-0.3l-0.7-0.2c-0.6-0.1-1.1-0.4-1.5-0.8c-0.4-0.4-0.7-0.9-0.8-1.5c-0.1-0.5-0.2-0.9-0.4-1.4
				c-0.1-0.2-0.2-0.3-0.3-0.4c-0.1-0.1-0.3-0.1-0.5-0.1s-0.3,0.1-0.5,0.1c-0.1,0.1-0.3,0.2-0.3,0.4c-0.2,0.5-0.3,0.9-0.4,1.4
				c-0.1,0.6-0.4,1.1-0.8,1.5c-0.4,0.4-0.9,0.7-1.5,0.8l-0.6,0.1c-0.2,0-0.3,0.1-0.4,0.3c-0.1,0.1-0.2,0.3-0.2,0.5s0,0.4,0.1,0.5
				c0.1,0.2,0.2,0.3,0.4,0.3c0.3,0.1,0.6,0.2,0.9,0.3c0.5,0.1,1,0.4,1.4,0.8c0.4,0.4,0.6,0.9,0.7,1.4c0.1,0.4,0.2,0.9,0.3,1.3
				c0.1,0.2,0.2,0.3,0.3,0.4C39.1,549.2,39.3,549.3,39.5,549.3z M41,544.1c-0.6,0.4-1.1,0.9-1.5,1.6c-0.4-0.6-0.9-1.2-1.5-1.6
				c0.6-0.4,1.1-0.9,1.5-1.6C39.9,543.2,40.4,543.7,41,544.1z"/>
			<path class="st1" d="M27.2,583c0.2,0,0.3,0,0.5-0.1c0.1-0.1,0.2-0.2,0.3-0.4c0.3-0.7,0.5-1.5,0.6-2.3c0.2-1.2,0.7-2.2,1.6-3.1
				c0.8-0.9,1.9-1.5,3-1.8c0.6-0.1,1.1-0.3,1.6-0.5c0.2-0.1,0.3-0.2,0.4-0.3c0.1-0.2,0.1-0.3,0.1-0.5s-0.1-0.3-0.2-0.5
				c-0.1-0.1-0.3-0.2-0.4-0.3l-1.2-0.3c-1.2-0.3-2.3-0.9-3.2-1.7c-0.9-0.9-1.4-2-1.7-3.2c-0.1-0.8-0.4-1.7-0.7-2.5
				c-0.1-0.2-0.2-0.3-0.3-0.4c-0.1-0.1-0.3-0.1-0.5-0.1s-0.3,0.1-0.5,0.1c-0.1,0.1-0.3,0.2-0.3,0.4c-0.3,0.8-0.5,1.6-0.7,2.5
				c-0.2,1.2-0.8,2.3-1.7,3.2s-2,1.5-3.2,1.7l-1.2,0.3c-0.2,0-0.3,0.1-0.5,0.3c-0.1,0.1-0.2,0.3-0.2,0.5s0,0.4,0.1,0.5
				c0.1,0.2,0.2,0.3,0.4,0.3c0.5,0.2,1.1,0.4,1.6,0.5c1.2,0.3,2.2,0.9,3,1.8c0.8,0.9,1.4,1.9,1.6,3.1c0.1,0.8,0.3,1.6,0.6,2.3
				c0.1,0.2,0.2,0.3,0.3,0.4C26.8,583,27,583,27.2,583z M31.6,574.1c-1,0.5-2,1.1-2.7,2c-0.8,0.8-1.3,1.8-1.7,2.9
				c-0.3-1.1-0.9-2-1.7-2.9c-0.8-0.8-1.7-1.5-2.7-1.9c1-0.5,2-1.1,2.7-2c0.8-0.8,1.3-1.8,1.7-2.9c0.3,1.1,0.9,2.1,1.6,2.9
				C29.6,572.9,30.5,573.6,31.6,574.1z"/>
			<path class="st1" d="M46.3,482.3c0.2,0,0.3,0,0.5-0.1c0.1-0.1,0.2-0.2,0.3-0.4c0.2-0.4,0.3-0.9,0.4-1.3c0.1-0.5,0.3-1,0.7-1.4
				s0.9-0.7,1.4-0.8c0.3-0.1,0.6-0.2,0.9-0.3c0.2-0.1,0.3-0.2,0.4-0.3c0.1-0.1,0.1-0.3,0.1-0.5s-0.1-0.3-0.2-0.5
				c-0.1-0.1-0.3-0.2-0.4-0.3l-0.7-0.2c-0.6-0.1-1.1-0.4-1.5-0.8c-0.4-0.4-0.7-0.9-0.8-1.5c-0.1-0.5-0.2-0.9-0.4-1.4
				c-0.1-0.2-0.2-0.3-0.3-0.4c-0.1-0.1-0.3-0.1-0.5-0.1s-0.3,0.1-0.5,0.1c-0.1,0.1-0.3,0.2-0.3,0.4c-0.2,0.4-0.3,0.9-0.4,1.4
				c-0.1,0.6-0.4,1.1-0.8,1.5c-0.4,0.4-0.9,0.7-1.5,0.8l-0.6,0.1c-0.2,0-0.3,0.1-0.5,0.3c-0.1,0.1-0.2,0.3-0.2,0.5s0,0.4,0.1,0.5
				c0.1,0.2,0.2,0.3,0.4,0.3c0.3,0.1,0.6,0.2,0.9,0.3c0.5,0.1,1,0.4,1.4,0.8c0.4,0.4,0.6,0.9,0.7,1.4c0.1,0.4,0.2,0.9,0.3,1.3
				c0.1,0.2,0.2,0.3,0.3,0.4C45.9,482.3,46.1,482.3,46.3,482.3z M47.8,477.2c-0.6,0.4-1.1,0.9-1.5,1.6c-0.4-0.6-0.9-1.2-1.5-1.6
				c0.6-0.4,1.1-0.9,1.5-1.6C46.6,476.2,47.1,476.8,47.8,477.2z"/>
		</g>
	</g>
</g>
</svg>
