<svg width="99" height="50" viewBox="0 0 99 50" fill="none" xmlns="http://www.w3.org/2000/svg">
<path d="M98.5685 49.7062H0.10757L0.0367618 48.5024C-0.264179 43.6696 1.29363 39.1732 4.30305 36.1815C7.33016 33.1721 11.0654 31.3133 14.6236 30.9593C12.8356 25.3653 14.4996 18.6561 18.8544 14.6908C23.3863 10.5661 30.5557 9.62787 36.0612 12.2655C40.5045 5.30848 48.1874 0.688148 56.4367 0.0685631C65.1286 -0.568724 73.8205 3.27268 79.1843 10.0881C84.1587 16.4079 85.9643 24.8874 84.1056 32.6764C87.6992 32.4994 91.3105 33.7209 94.0721 36.0576C97.5417 38.9962 98.6747 44.5548 98.5862 48.4316L98.5508 49.6885L98.5685 49.7062ZM2.56821 47.1393H96.0193C95.8423 43.8113 94.7448 40.0052 92.4257 38.0403C89.7881 35.7921 86.0175 34.8007 82.6009 35.4557L80.4766 35.8629L81.1316 33.8094C83.5037 26.4629 81.9282 17.7887 77.1662 11.7168C72.3866 5.64483 64.3497 2.08662 56.6137 2.6531C48.9132 3.21958 41.4604 7.92843 37.619 14.6377L36.964 15.7706L35.8488 15.0979C31.1753 12.2832 24.6077 12.9382 20.5716 16.6026C16.5354 20.2847 15.2785 26.7638 17.633 31.6674L18.5889 33.6501L16.3938 33.4907C12.9772 33.2429 9.18892 34.9423 6.1087 37.9872C3.86049 40.2177 2.60361 43.4926 2.55051 47.1216L2.56821 47.1393Z" fill="url(#paint0_linear_749_1673)"/>
<defs>
<linearGradient id="paint0_linear_749_1673" x1="-158.17" y1="-304.484" x2="302.925" y2="474.476" gradientUnits="userSpaceOnUse">
<stop stop-color="#A66B32"/>
<stop offset="0.07" stop-color="#B17739"/>
<stop offset="0.19" stop-color="#CE974C"/>
<stop offset="0.35" stop-color="#FFCD6B"/>
<stop offset="0.4" stop-color="#FFCE6F"/>
<stop offset="0.47" stop-color="#FFD37D"/>
<stop offset="0.53" stop-color="#FFDA93"/>
<stop offset="0.6" stop-color="#FFE5B3"/>
<stop offset="0.62" stop-color="#FFEAC1"/>
<stop offset="0.68" stop-color="#FFDE9E"/>
<stop offset="0.76" stop-color="#FFCD6B"/>
<stop offset="0.79" stop-color="#EBB75E"/>
<stop offset="0.85" stop-color="#CD964B"/>
<stop offset="0.91" stop-color="#B77E3D"/>
<stop offset="0.96" stop-color="#AA6F34"/>
<stop offset="1" stop-color="#A66B32"/>
</linearGradient>
</defs>
</svg>
