<svg width="96" height="43" viewBox="0 0 96 43" fill="none" xmlns="http://www.w3.org/2000/svg">
<path d="M95.5816 42.5678H1.28076L0.96213 41.7535C0.838213 41.4526 -1.88798 34.2831 2.43141 29.2202C4.71502 26.5471 8.75118 25.5912 12.2032 26.6179C11.2649 18.8997 15.4781 10.7919 22.5591 7.37538C29.8171 3.8703 39.0223 5.78218 44.4393 11.624C47.8027 5.33962 54.4234 0.807778 61.5221 0.0996808C69.3112 -0.679226 77.4543 3.16221 81.8091 9.6767C85.6682 15.4654 86.4472 23.2191 83.9688 29.6981C86.6773 29.468 89.4565 30.2292 91.6339 31.8933C94.3955 33.9998 95.9002 37.5403 95.6524 41.364L95.5816 42.5678ZM3.08642 40.001H93.1032C92.9616 37.5049 91.8818 35.2921 90.0761 33.929C87.881 32.265 84.7654 31.7693 82.1632 32.6722L79.0475 33.752L80.6053 30.8488C83.8803 24.7769 83.4908 16.8285 79.6494 11.0752C75.808 5.33959 68.6562 1.94075 61.7523 2.63114C54.8837 3.32154 48.5108 8.08348 45.8909 14.4564L45.0235 16.5806L43.6781 14.7219C39.3233 8.70308 30.3481 6.43717 23.6566 9.65901C16.9651 12.8809 13.1591 21.3249 15.1595 28.4767L16.1154 31.8755L13.2122 29.8929C10.5214 28.0518 6.37907 28.5121 4.36099 30.8665C1.75874 33.9113 2.57303 38.1953 3.0687 39.9832L3.08642 40.001Z" fill="url(#paint0_linear_743_1547)"/>
<defs>
<linearGradient id="paint0_linear_743_1547" x1="-202.722" y1="-386.575" x2="258.373" y2="392.385" gradientUnits="userSpaceOnUse">
<stop stop-color="#A66B32"/>
<stop offset="0.07" stop-color="#B17739"/>
<stop offset="0.19" stop-color="#CE974C"/>
<stop offset="0.35" stop-color="#FFCD6B"/>
<stop offset="0.4" stop-color="#FFCE6F"/>
<stop offset="0.47" stop-color="#FFD37D"/>
<stop offset="0.53" stop-color="#FFDA93"/>
<stop offset="0.6" stop-color="#FFE5B3"/>
<stop offset="0.62" stop-color="#FFEAC1"/>
<stop offset="0.68" stop-color="#FFDE9E"/>
<stop offset="0.76" stop-color="#FFCD6B"/>
<stop offset="0.79" stop-color="#EBB75E"/>
<stop offset="0.85" stop-color="#CD964B"/>
<stop offset="0.91" stop-color="#B77E3D"/>
<stop offset="0.96" stop-color="#AA6F34"/>
<stop offset="1" stop-color="#A66B32"/>
</linearGradient>
</defs>
</svg>
