<?xml version="1.0" encoding="utf-8"?>
<!-- Generator: Adobe Illustrator 26.3.1, SVG Export Plug-In . SVG Version: 6.00 Build 0)  -->
<svg version="1.1" id="_層_2" xmlns="http://www.w3.org/2000/svg" xmlns:xlink="http://www.w3.org/1999/xlink" x="0px" y="0px"
	 viewBox="0 0 198.6 205.9" style="enable-background:new 0 0 198.6 205.9;" xml:space="preserve">
<style type="text/css">
	.st0{fill:#FF18B1;}
</style>
<g id="_層_1-2">
	<g>
		<g>
			<path class="st0" d="M67.5,196.6c-19.6-8.5-38.1-19.8-53.2-35c-8.9-8.3-15.2-19-12.6-31.5c1.9-9.4,7.6-18.5,16.6-22.6
				c7.9-3.9,16.8-2.7,25.1-4.3c4.1-1,7.9-3.1,11-6.1c3.1-2.9,6-6.1,9.5-8.6c10.4-7.8,25.7-7.9,36.3-0.4c7.1,5,11.9,12.8,14.1,21.1
				c0.9,3.1,1,6.4,1,9.6c0.3,3.2,2.6,5.5,4.8,7.7c4.3,4.5,9.3,9.2,13.3,13.8c5.8,6.3,10.6,14,11.6,22.7c1.3,12.9-5.3,26.2-16,33.5
				C109,209.4,87.9,205.1,67.5,196.6L67.5,196.6z M67.5,196.5c20.4,8.1,41.5,12.3,61-0.8c10.4-7.1,16.7-20.1,15.5-32.7
				c-1-8.5-5.8-15.9-11.4-22.1c-4-4.6-9-9.4-13.2-13.8c-2.2-2.3-4.8-4.9-5-8.3c0-3.2-0.1-6.3-1-9.4c-2.1-8.1-6.7-15.8-13.6-20.7
				c-10.4-7.4-25.4-7.4-35.7,0.2c-3.5,2.4-6.4,5.6-9.5,8.5c-7.2,7.1-14.5,6.9-23.8,7.6c-12.4,0.8-22.3,7.4-26.6,19.2
				c-5.8,14.3,0,26.9,10.6,36.9C29.7,176.3,48.2,187.5,67.5,196.5L67.5,196.5z"/>
		</g>
		<g>
			<path class="st0" d="M108.7,52.8c-2,3.1-3.8,6.6-6.4,9.5c-3.1,3.6-7.4,6.4-12.2,7.4c-7.1,1.2-13.6-2-18-7.5
				c-7.1-9.3-9.3-21.4-7.3-32.8c1.2-8,4.2-16.1,10.1-21.9c6.6-6.8,16.6-8.8,24.6-3.1c4.9,3.6,8.3,8.9,10.5,14.6
				C114.1,29.9,112.4,42.2,108.7,52.8L108.7,52.8z M108.7,52.7c1.8-7,3.7-14.8,2.9-22.5c-1-18-17.3-37.9-35-23.2
				C70,12.7,66.5,21,65.2,29.4c-2.2,11.2,0.4,23.3,7.6,32.2c3.2,4,7.9,6.9,13,7.4c0.8,0,2,0.1,2.8,0c0,0,1.4-0.1,1.4-0.1l1.4-0.3
				c0,0,0.7-0.2,0.7-0.2s0.7-0.2,0.7-0.2C100.2,65.7,104.5,59,108.7,52.7L108.7,52.7z"/>
		</g>
		<g>
			<path class="st0" d="M167.5,68.4c-4.8,10.4-12.9,19.5-23.6,24c-3.5,1.5-7.3,2.7-11.1,3c-13.3,0.7-22.2-7.9-21.6-21.2
				c0.2-7.8,3.9-14.9,8.4-21c6.8-9.3,17.4-16,29-17.2c3.9-0.4,7.9,0.2,11.4,1.9C172.1,44.1,171.9,57.6,167.5,68.4L167.5,68.4z
				 M167.5,68.3C167.5,68.3,167.5,68.4,167.5,68.3l-0.1,0.2L167.5,68.3c1-3.6,2.3-7.2,2.5-11.1c0.5-7.5-3.3-15.3-10.3-18.5
				c-6.9-3.3-14.9-1.7-21.8,1.1c-7,2.8-13,7.8-17.7,13.7c-4.6,5.9-8.4,12.9-8.7,20.6c-0.8,13.2,8.2,21.3,21.1,20.4
				c3.7-0.3,7.4-1.5,10.9-2.9C154.3,87.2,162.4,78.6,167.5,68.3L167.5,68.3z"/>
		</g>
		<g>
			<path class="st0" d="M139.9,115.8c8.6-18.8,38.6-27.5,53.2-10.9c4.6,5.4,5.4,13.5,2.4,19.9c-3,6.4-8.6,11.3-14.5,14.9
				c-6.1,3.6-13.3,5.1-20.4,4.5c-3.4-0.3-7.1-1-10.3-2.2C139.6,137.9,135.1,126,139.9,115.8L139.9,115.8z M140,115.8
				c-2.9,6.3-2.3,14.2,2.3,19.5c4.5,5.4,11.7,7.2,18.4,7.8c6.8,0.6,13.9-0.8,19.8-4.3c7.2-4.3,14.4-10.6,16.1-19.3
				c1.9-8.8-3.9-17.5-12.1-20.5C168.8,93,147.4,100.4,140,115.8L140,115.8z"/>
		</g>
		<g>
			<path class="st0" d="M50.8,72C36.5,98.8,11.3,81.9,9.3,57.6c-0.4-7,0-14.2,2.9-20.7c5-11.3,17.2-18.2,28.3-10.5
				c5.1,3.6,8.9,8.9,11.1,14.7C55.7,50.9,54.6,62.4,50.8,72L50.8,72z M50.7,71.9c3.6-9.4,4.2-20.9,0-30.5
				c-2.2-5.6-5.9-10.7-10.8-14.2c-10.6-7.4-22.3-0.7-27.2,9.9c-3,6.3-3.6,13.5-3.1,20.4c0.9,10.3,6.6,20.4,15.7,25.5
				c6.2,3.3,14.1,2,19.1-2.8C47.1,77.9,48.8,74.8,50.7,71.9L50.7,71.9z"/>
		</g>
	</g>
</g>
<g id="_層_1-2_00000022555616440201323360000000628863537664134535_">
	<g>
		<g>
			<path class="st0" d="M68.8,193c-18.8-8-37.2-18.4-51.7-33.2c-11.3-10.6-16.5-23.6-9.9-38.5c4.7-11,14.5-17,26.2-17.8
				c8.6-0.7,15.7-0.3,22.3-6.9c1.6-1.5,5.1-5.1,6.7-6.4c10.3-9.4,26.9-10.4,38.3-2.3c6.9,4.9,11.6,12.6,13.7,20.7
				c0.8,2.9,1,6.3,1,9.3c0.3,3,2.4,5,4.4,7.1c0,0,4.3,4.4,4.3,4.4c8.6,8.7,18.4,18.2,19.9,31.1c0.9,8.4-1.8,17-6.6,24
				c-4.9,6.9-12.3,11.7-20.3,14.4C100.9,204.3,83.9,199.5,68.8,193L68.8,193z M68.8,193c7.7,2.7,15.5,5.5,23.7,6.4
				c15.7,2.1,33.6-2.9,43.2-16c6.9-9.9,8.8-23.1,2.5-33.8c-3.9-7.1-9.9-12.8-15.6-18.6c0,0-4.3-4.4-4.3-4.4c-2.1-2.2-4.8-4.9-5-8.3
				c0-3.2-0.1-6-0.9-9c-2.9-11.5-11.8-22-23.8-24.2c-8.3-1.7-17.2,0.5-23.8,5.8c-2.1,1.7-5.8,5.3-7.8,7.3c-3,3-6.9,5.2-11.1,6.2
				c-4.1,1-8.3,0.8-12.4,1.3c-13.1,0.9-22.4,8.2-26.1,20.8c-3.9,12.6,2,23.5,11.1,32.1C33,172.9,50.3,184.2,68.8,193L68.8,193z"/>
		</g>
		<g>
			<path class="st0" d="M108.5,54.5c-1.9,3.1-3.5,6.5-5.9,9.4c-3.2,3.9-8,7.3-13.3,7.7c-6.4,0.7-12.6-2.8-16.4-7.7
				c-7.1-9-9.4-21-7.4-32.1c1.2-7.9,4.3-15.7,10.1-21.4c6.6-6.7,16.5-8.6,24.4-3c4.8,3.5,8.2,8.7,10.3,14.2
				C114.6,32.4,112.3,44.2,108.5,54.5L108.5,54.5z M108.5,54.5c0.7-3.6,1.7-7.2,2.1-10.8c0.6-7.2,0.3-14.5-2.2-21.3
				c-1.9-4.9-4.8-9.7-9.1-12.9C91.7,3.6,82.2,5.9,76,12.8c-5,5.3-7.5,12.2-8.6,19.3c-2,10.6,0.3,22,7,30.5
				c7.5,9.5,19.3,8.8,27.4,0.5C104.3,60.6,106.3,57.4,108.5,54.5L108.5,54.5z"/>
		</g>
		<g>
			<path class="st0" d="M165.1,69.5c-5.2,10.6-11.2,19.2-22.5,23.7c-3.5,1.4-7.1,2.6-10.9,2.9c-13.2,0.8-22.4-7.7-21.6-21.1
				c0.3-7.6,3.9-14.7,8.5-20.6c4.6-6,10.5-11,17.5-13.8c6.9-2.8,15.1-4.5,22.2-1C170.6,46.1,169.5,58.3,165.1,69.5L165.1,69.5z
				 M165.1,69.5c3.2-8.5,3.2-18.3-3.5-25c-9.6-9-24.8-3.7-34,3.5c-2.8,2.2-5.3,4.9-7.5,7.7c-4.3,5.7-7.8,12.3-8.1,19.5
				c-0.7,12.2,7.5,19.7,19.5,19c3.5-0.3,7-1.4,10.3-2.8C151.7,86.9,160.2,79.4,165.1,69.5L165.1,69.5z"/>
		</g>
		<g>
			<path class="st0" d="M138.6,115.2c5.8-12.9,19.2-20.3,33.3-19.5c6.9,0.4,14.1,2.9,18.5,8.4c4.7,5.4,5.4,13.6,2.3,20
				c-3,6.3-8.5,11-14.4,14.6c-6,3.5-13.1,4.9-20,4.3c0,0-2.6-0.3-2.6-0.3c-1.3-0.2-3.7-0.7-5-1C138.3,138.6,133.4,126.8,138.6,115.2
				L138.6,115.2z M138.6,115.2c-4.8,10.2,2.2,22.1,12.8,24.5c0,0,2.4,0.6,2.4,0.6l2.4,0.4c0,0,2.4,0.3,2.4,0.3c9.9,1,19.7-3,26.6-10
				c3.5-3.3,6.4-7.4,7.2-12.3C195,101.8,176,95,162.1,98.6c-1.4,0.3-3.3,1-4.7,1.4C150,103.1,142.1,107.5,138.6,115.2L138.6,115.2z"
				/>
		</g>
		<g>
			<path class="st0" d="M52.7,73c-2.6,4.3-5.2,9-9.7,11.7c-8.3,5.1-17.9,0.6-23.4-6.4c-6.9-8-8.8-19.1-7.4-29.3
				c1.3-16.6,18-31.6,33-18.6c4,3.4,6.9,7.9,8.8,12.7C58.5,53.2,56.5,63,52.7,73L52.7,73z M52.7,73c3.5-9.3,3-20-0.5-29.2
				c-2.1-5.3-5.5-10.1-10.2-13.4c-13.7-9.2-26.8,5.2-27.8,18.8c-0.4,3.3-0.5,6.6-0.2,9.9c0.8,9.7,5.9,19.3,14.5,24.1
				c5.8,3,13,1.7,18-2.4C49.1,78.8,50.9,75.8,52.7,73L52.7,73z"/>
		</g>
	</g>
</g>
</svg>
