<svg width="129" height="151" viewBox="0 0 129 151" fill="none" xmlns="http://www.w3.org/2000/svg">
<path d="M75.2493 151C60.4116 151.022 45.8997 146.635 33.5431 138.394C21.1865 130.153 11.5383 118.426 5.81501 104.691C0.0916935 90.9565 -1.45061 75.8293 1.38254 61.2166C4.21569 46.6038 11.2975 33.1597 21.7351 22.5792C28.7135 15.4391 37.0395 9.76511 46.2272 5.88842C55.4149 2.01174 65.2803 0.0099952 75.2474 3.73362e-05C85.2146 -0.00992053 95.0839 1.9721 104.279 5.83042C113.475 9.68874 121.812 15.3461 128.805 22.4722C128.912 22.5945 128.972 22.7512 128.974 22.9141C128.976 23.077 128.92 23.2353 128.816 23.3604C128.712 23.4855 128.567 23.5693 128.407 23.5965C128.247 23.6238 128.083 23.5927 127.943 23.509C116.323 15.2781 102.28 11.2084 88.0753 11.9547C73.8702 12.7009 60.3282 18.2197 49.6281 27.6232C43.5508 32.9717 41.1396 41.6115 43.3376 50.2185C43.6346 51.3431 43.5539 52.5346 43.1079 53.6086C42.3945 55.0014 41.4391 56.2553 40.2867 57.3114C40.5181 59.6824 41.5446 61.9046 43.1982 63.6144C46.4787 67.2513 50.7271 77.7426 49.9971 79.3883C49.2672 81.034 47.1676 81.8568 43.436 81.8568C43.0915 82.5151 42.4354 84.0373 43.1654 84.9178C44.3956 86.3989 44.5924 87.5015 43.7641 88.6535C44.8548 89.5915 45.9702 91.122 45.1173 92.6278L44.2889 93.9526C45.6258 95.5983 50.0299 101.317 48.5127 104.765C48.1436 105.588 49.8167 112.384 56.4516 119.527C76.7091 141.332 110.015 133.819 128.058 127.401C128.204 127.347 128.364 127.345 128.512 127.395C128.659 127.445 128.785 127.544 128.869 127.676C128.952 127.808 128.988 127.964 128.97 128.119C128.953 128.274 128.883 128.419 128.772 128.528C121.794 135.665 113.465 141.33 104.273 145.189C95.0815 149.048 85.2133 151.024 75.2493 151ZM75.2493 1.37448H73.0267C58.6481 1.80286 44.7068 6.43296 32.9134 14.6967C21.12 22.9605 11.9874 34.4984 6.63606 47.895C1.28477 61.2915 -0.0524373 75.9639 2.7885 90.112C5.62944 104.26 12.525 117.268 22.629 127.541C36.1377 141.295 54.4634 149.217 73.7055 149.619C92.9476 150.022 111.587 142.874 125.655 129.697C84.6891 143.323 64.0872 129.804 55.3773 120.358C48.9966 113.429 46.5197 105.974 47.2907 104.213C48.4307 101.654 44.5596 96.3224 42.9685 94.4874C42.8683 94.3772 42.8069 94.2371 42.7935 94.0885C42.7802 93.9399 42.8157 93.791 42.8947 93.6646L43.8625 91.9613C44.4858 90.8752 42.3452 89.3611 42.3288 89.3447C42.2434 89.2898 42.1716 89.216 42.119 89.129C42.0664 89.042 42.0344 88.9441 42.0254 88.8427C42.0148 88.7419 42.027 88.64 42.0611 88.5445C42.0951 88.4491 42.1502 88.3626 42.2222 88.2914C42.9357 87.5756 43.1982 87.2053 42.05 85.8229C40.4097 83.8892 42.3124 80.9517 42.3944 80.8282C42.4563 80.732 42.5413 80.6529 42.6416 80.5983C42.742 80.5437 42.8544 80.5152 42.9685 80.5156C46.2491 80.5156 48.2338 79.9478 48.7095 78.8287C48.9227 77.6932 45.3223 68.0659 42.1484 64.5359C38.7038 60.7015 38.8678 57.1304 38.8678 56.974C38.8772 56.7945 38.9568 56.626 39.0893 56.505C39.0893 56.505 41.197 54.5713 41.7793 53.0984C42.1214 52.2948 42.1821 51.3985 41.9515 50.5558C39.6305 41.5046 42.1976 32.2887 48.6767 26.5946C58.6539 17.8181 71.0784 12.3298 84.2677 10.8727C97.457 9.41567 110.774 12.0603 122.416 18.4485C109.207 7.35689 92.5146 1.30903 75.2903 1.37448H75.2493Z" fill="#FFD37D"/>
<path d="M34.2178 68.6747H34.1193C34.0266 68.6609 33.9377 68.6284 33.858 68.5789C33.7783 68.5295 33.7094 68.4643 33.6557 68.3873C33.6019 68.3103 33.5644 68.223 33.5454 68.131C33.5265 68.0389 33.5264 67.9439 33.5452 67.8518C33.6259 67.2797 33.504 66.6974 33.2008 66.2061C33.0823 66.0845 32.9386 65.9905 32.7798 65.9308C32.6211 65.8711 32.4512 65.8471 32.2822 65.8606C29.8218 65.8606 23.1623 63.392 22.8834 63.2686C22.7574 63.2114 22.6517 63.1169 22.5805 62.9979C22.5093 62.8789 22.4759 62.741 22.4848 62.6024C22.4937 62.4639 22.5445 62.3314 22.6303 62.2226C22.7162 62.1137 22.8331 62.0337 22.9654 61.9932C23.0392 61.9932 30.7568 59.8291 32.4791 59.2531C33.5698 58.8911 33.9799 56.9821 34.0455 56.2827C34.0642 56.1014 34.1527 55.9347 34.2921 55.8179C34.4315 55.7011 34.6108 55.6435 34.7919 55.6573C34.9719 55.676 35.1373 55.7651 35.2524 55.9052C35.3675 56.0453 35.423 56.2252 35.407 56.4061C35.407 56.546 35.0707 59.8373 32.9465 60.5203C31.7491 60.9153 27.8945 62.0096 25.4505 62.6926C27.7879 63.5155 30.9946 64.4782 32.3396 64.4782C32.7055 64.4609 33.0706 64.5258 33.4083 64.6682C33.746 64.8105 34.0478 65.0267 34.2916 65.301C34.8639 66.0973 35.1024 67.0869 34.9559 68.0575C34.9372 68.2366 34.8496 68.4013 34.7118 68.5165C34.5739 68.6318 34.3967 68.6885 34.2178 68.6747Z" fill="#FFD37D"/>
<path d="M39.483 91.0562C37.1691 90.9463 34.8851 90.4858 32.7086 89.6903C32.5368 89.6335 32.3944 89.5106 32.3129 89.3486C32.2314 89.1866 32.2174 88.9987 32.2739 88.8263C32.3305 88.6539 32.453 88.5111 32.6145 88.4293C32.776 88.3475 32.9632 88.3335 33.1351 88.3902C37.7771 89.9289 40.9264 90.1429 41.7548 88.9909L42.1484 88.4396C42.2006 88.3654 42.2671 88.3023 42.3438 88.2542C42.4206 88.2061 42.5061 88.1738 42.5955 88.1592C42.6848 88.1447 42.7762 88.1481 42.8642 88.1694C42.9522 88.1907 43.0351 88.2294 43.108 88.2832C43.2538 88.3917 43.3517 88.5531 43.3808 88.7328C43.4099 88.9126 43.3679 89.0967 43.2638 89.246L42.862 89.7973C42.2386 90.6201 41.1233 91.0562 39.483 91.0562Z" fill="#FFD37D"/>
<path d="M32.8071 65.8277C31.5195 65.8277 30.5107 64.396 30.5107 62.5364C30.5107 60.6767 31.5195 59.2861 32.8071 59.2861C34.0948 59.2861 35.0953 60.7179 35.0953 62.5364C35.0953 64.3548 34.1112 65.8277 32.8071 65.8277ZM32.8071 60.7014C32.4217 60.7014 31.8722 61.4338 31.8722 62.5775C31.8722 63.7213 32.4217 64.4536 32.8071 64.4536C33.1926 64.4536 33.7339 63.7213 33.7339 62.5775C33.7339 61.4338 33.2008 60.7179 32.8071 60.7179V60.7014Z" fill="#FFD37D"/>
<path d="M39.1138 82.5561C37.5227 82.5561 36.3909 82.087 35.7512 81.1572C34.644 79.5527 35.5544 77.2652 35.5872 77.1664C35.666 77.0131 35.7992 76.895 35.9605 76.8351C36.1217 76.7753 36.2995 76.7781 36.4588 76.8431C36.6181 76.9081 36.7474 77.0304 36.8213 77.1862C36.8953 77.3419 36.9085 77.5198 36.8584 77.6848C36.6698 78.1538 36.3007 79.5609 36.8584 80.3837C37.2521 80.9433 38.064 81.2066 39.3188 81.2066C39.5001 81.2044 39.675 81.274 39.8055 81.4003C39.936 81.5266 40.0116 81.6994 40.0159 81.8813C40.0181 81.971 40.0027 82.0603 39.9705 82.144C39.9382 82.2277 39.8899 82.3042 39.8282 82.3691C39.7665 82.4341 39.6927 82.4862 39.6109 82.5225C39.5291 82.5588 39.441 82.5786 39.3516 82.5807L39.1138 82.5561Z" fill="#FFD37D"/>
<path d="M20.2587 54.9333C20.105 54.93 19.9568 54.8752 19.8377 54.7776C19.7186 54.68 19.6354 54.5453 19.6015 54.3949C19.5675 54.2444 19.5847 54.0869 19.6503 53.9474C19.7159 53.8078 19.8261 53.6943 19.9635 53.6249C20.0947 53.5591 20.2341 53.4768 20.3981 53.3781C22.0405 52.391 23.8129 51.6404 25.6634 51.1482C33.3236 48.7866 36.1202 52.1356 36.2351 52.2837C36.313 52.4266 36.3375 52.5927 36.3041 52.7521C36.2707 52.9115 36.1816 53.0536 36.053 53.1529C35.9243 53.2522 35.7645 53.3021 35.6024 53.2936C35.4403 53.2851 35.2865 53.2188 35.1689 53.1065C35.1689 53.1065 32.7659 50.3582 26.0653 52.4318C24.3368 52.8935 22.6806 53.5941 21.1445 54.5136C20.9651 54.6292 20.7789 54.7337 20.5868 54.8263C20.4894 54.8918 20.3758 54.9288 20.2587 54.9333Z" fill="#FFD37D"/>
<path d="M37.8181 88.7274C37.6755 88.7258 37.537 88.6798 37.4216 88.5959C37.3061 88.512 37.2195 88.3942 37.1736 88.2588C37.1277 88.1234 37.1249 87.977 37.1654 87.8399C37.2059 87.7027 37.2878 87.5816 37.3998 87.4931C38.0562 87.0297 38.7634 86.6432 39.5075 86.3412C40.1013 86.0636 40.7677 85.9829 41.4103 86.1108L41.9762 85.074C42.0645 84.916 42.2104 84.7986 42.3833 84.7465C42.5561 84.6943 42.7424 84.7114 42.9029 84.7942C43.0605 84.8827 43.1771 85.0297 43.2278 85.2036C43.2784 85.3775 43.2589 85.5644 43.1736 85.724L42.3534 87.2957C42.3076 87.3817 42.2438 87.4569 42.1666 87.5162C42.0893 87.5755 42.0002 87.6175 41.9054 87.6393C41.8106 87.6611 41.7122 87.6623 41.6169 87.6428C41.5216 87.6233 41.4315 87.5834 41.3529 87.5261C41.1468 87.4392 40.9237 87.4008 40.7005 87.4136C40.4774 87.4265 40.2601 87.4902 40.0652 87.6001C39.424 87.8611 38.8134 88.1922 38.2445 88.5875C38.1222 88.6812 37.9719 88.7305 37.8181 88.7274Z" fill="#FFD37D"/>
<path d="M40.2702 94.8494C37.7114 94.8494 34.4062 92.1257 34.2668 92.0105C34.1287 91.8923 34.0421 91.7248 34.0252 91.5434C34.0084 91.3621 34.0627 91.1814 34.1766 91.0396C34.293 90.9016 34.4586 90.8149 34.638 90.798C34.8173 90.781 34.9962 90.8353 35.1362 90.9491C36.0219 91.6896 38.7038 93.5822 40.3851 93.4752C40.4751 93.4697 40.5654 93.4821 40.6507 93.5119C40.7359 93.5417 40.8144 93.5882 40.8815 93.6487C40.9487 93.7092 41.0032 93.7824 41.0419 93.8643C41.0805 93.9461 41.1026 94.0348 41.1068 94.1253C41.1135 94.2148 41.102 94.3048 41.0732 94.3898C41.0444 94.4748 40.9987 94.5531 40.939 94.6199C40.8792 94.6868 40.8066 94.7409 40.7255 94.7789C40.6444 94.8169 40.5565 94.8381 40.4671 94.8411L40.2702 94.8494Z" fill="#FFD37D"/>
<path d="M19.2829 61.7134C19.121 61.7069 18.9665 61.6432 18.8468 61.5337C18.727 61.4242 18.6495 61.2759 18.6279 61.1147C18.6064 60.9536 18.6422 60.79 18.7289 60.6527C18.8157 60.5154 18.948 60.4131 19.1025 60.364C19.1435 60.364 23.0227 59.2861 25.5078 58.4221C27.3367 57.8269 29.2137 57.3919 31.1175 57.122C31.2064 57.1101 31.2967 57.1159 31.3833 57.139C31.4699 57.1621 31.5512 57.2022 31.6224 57.2568C31.6936 57.3114 31.7534 57.3796 31.7983 57.4574C31.8433 57.5352 31.8725 57.6212 31.8844 57.7103C31.8962 57.7995 31.8904 57.8901 31.8674 57.977C31.8443 58.0639 31.8044 58.1454 31.75 58.2168C31.6955 58.2883 31.6276 58.3483 31.55 58.3934C31.4725 58.4385 31.3868 58.4678 31.298 58.4797C29.486 58.7394 27.6997 59.1551 25.9588 59.7222C23.4246 60.6026 19.5043 61.7134 19.4633 61.7134C19.4034 61.7215 19.3428 61.7215 19.2829 61.7134Z" fill="#FFD37D"/>
<path d="M28.9114 91.0562C28.7591 91.0556 28.6114 91.0044 28.4912 90.9106C28.371 90.8168 28.2851 90.6857 28.2471 90.5378C27.5418 87.7648 29.5019 85.0988 29.5839 84.9918C29.6927 84.8456 29.8549 84.7487 30.0348 84.7225C30.2148 84.6962 30.3977 84.7428 30.5435 84.8519C30.6892 84.961 30.7858 85.1238 30.8119 85.3043C30.8381 85.4849 30.7917 85.6684 30.6829 85.8147C30.6829 85.8147 29.0426 88.0775 29.5757 90.2086C29.6158 90.383 29.587 90.5662 29.4952 90.7197C29.4034 90.8732 29.2559 90.9849 29.0836 91.0315C29.0276 91.0477 28.9697 91.0561 28.9114 91.0562Z" fill="#FFD37D"/>
</svg>
