<svg width="178" height="178" viewBox="0 0 178 178" fill="none" xmlns="http://www.w3.org/2000/svg">
<path d="M88.6699 127.2C81.0446 127.202 73.5899 124.943 67.2489 120.707C60.9078 116.472 55.9652 110.452 53.0462 103.407C50.1272 96.3627 49.363 88.6107 50.8501 81.1318C52.3373 73.6529 56.009 66.7831 61.4009 61.3911C66.7928 55.9992 73.6627 52.3275 81.1416 50.8404C88.6205 49.3532 96.3724 50.1175 103.417 53.0365C110.461 55.9555 116.482 60.8981 120.717 67.2391C124.952 73.5802 127.212 81.0348 127.21 88.6601C127.197 98.8775 123.132 108.673 115.907 115.897C108.682 123.122 98.8873 127.187 88.6699 127.2ZM88.6699 51.7701C81.3733 51.7681 74.24 53.93 68.1722 57.9823C62.1043 62.0347 57.3745 67.7954 54.5808 74.536C51.7872 81.2766 51.0552 88.6943 52.4775 95.8509C53.8998 103.007 57.4124 109.582 62.5712 114.742C67.7299 119.902 74.3031 123.416 81.4593 124.841C88.6156 126.265 96.0334 125.535 102.775 122.743C109.516 119.951 115.278 115.223 119.332 109.156C123.386 103.089 125.55 95.9567 125.55 88.6601C125.539 78.8813 121.651 69.5058 114.737 62.5902C107.823 55.6745 98.4487 51.7833 88.6699 51.7701Z" fill="#FFD37D"/>
<path d="M83.46 52.14C83.2522 52.1403 83.052 52.0617 82.9 51.92C82.8066 51.8404 82.7327 51.7404 82.6842 51.6277C82.6356 51.515 82.6136 51.3926 82.62 51.27C83.1904 37.1348 84.5257 23.0409 86.62 9.05005L87.8399 0.710046C87.869 0.511309 87.9691 0.329838 88.1217 0.199281C88.2743 0.0687238 88.4691 -0.00206281 88.67 4.57854e-05C88.8691 0.000352771 89.0614 0.0722319 89.212 0.20257C89.3625 0.332909 89.4612 0.51302 89.49 0.710046L90.74 9.05005C92.8343 23.0409 94.1695 37.1348 94.74 51.27C94.7453 51.3916 94.7239 51.5128 94.6773 51.6251C94.6306 51.7374 94.5598 51.8381 94.47 51.92C94.3801 52.0045 94.2721 52.0673 94.1543 52.1037C94.0364 52.1401 93.9118 52.1491 93.79 52.13C90.4095 51.6601 86.9804 51.6601 83.6 52.13L83.46 52.14ZM88.67 50.14C90.1169 50.1397 91.5627 50.2232 93 50.39C92.4303 36.6301 91.1251 22.9105 89.0899 9.29005L88.67 6.46005L88.24 9.29005C86.2103 22.9012 84.9052 36.6105 84.33 50.36C85.7706 50.1932 87.2197 50.1097 88.67 50.11V50.14Z" fill="#FFD37D"/>
<path d="M88.6701 177.34C88.471 177.34 88.2786 177.268 88.1281 177.138C87.9775 177.007 87.8789 176.827 87.8501 176.63L86.6001 168.29C84.5004 154.297 83.165 140.199 82.6001 126.06C82.5961 125.939 82.6181 125.818 82.6646 125.706C82.7112 125.594 82.7813 125.493 82.8701 125.41C82.9622 125.329 83.0704 125.269 83.1876 125.232C83.3048 125.196 83.4283 125.185 83.5501 125.2C86.9298 125.68 90.3604 125.68 93.7401 125.2C93.8605 125.184 93.983 125.194 94.099 125.231C94.215 125.267 94.3215 125.328 94.4112 125.41C94.5008 125.492 94.5714 125.593 94.6179 125.705C94.6643 125.818 94.6856 125.939 94.6801 126.06C94.1151 140.199 92.7798 154.297 90.6801 168.29L89.4401 176.63C89.4094 176.817 89.317 176.989 89.1774 177.118C89.0379 177.246 88.8593 177.325 88.6701 177.34ZM84.3301 127C84.9091 140.75 86.2176 154.459 88.2501 168.07L88.6701 170.9L89.1001 168.07C91.1219 154.458 92.4237 140.749 93.0001 127C90.1195 127.329 87.2107 127.329 84.3301 127Z" fill="#FFD37D"/>
<path d="M126 94.7101C125.884 94.7093 125.769 94.685 125.662 94.6386C125.556 94.5922 125.46 94.5247 125.38 94.4401C125.299 94.3482 125.239 94.2397 125.205 94.1222C125.17 94.0048 125.162 93.8812 125.18 93.7601C125.647 90.3795 125.647 86.9507 125.18 83.5701C125.162 83.4506 125.17 83.3285 125.205 83.2127C125.24 83.0969 125.299 82.9901 125.38 82.9001C125.461 82.8084 125.561 82.7358 125.674 82.6873C125.786 82.6389 125.908 82.616 126.03 82.6201C140.169 83.19 154.266 84.5253 168.26 86.6201L176.6 87.8701C176.803 87.8925 176.991 87.9891 177.127 88.1413C177.264 88.2935 177.339 88.4907 177.339 88.6951C177.339 88.8995 177.264 89.0967 177.127 89.2489C176.991 89.4011 176.803 89.4977 176.6 89.5201L168.26 90.7701C154.266 92.8653 140.169 94.2006 126.03 94.7701L126 94.7101ZM127 84.3301C127.333 87.2105 127.333 90.1197 127 93.0001C140.75 92.4254 154.459 91.1202 168.07 89.0901L170.9 88.6701L168.07 88.2401C154.459 86.2109 140.75 84.9058 127 84.3301Z" fill="#FFD37D"/>
<path d="M51.31 94.7099C37.1446 94.1619 23.0201 92.8365 9 90.7399L0.71 89.4999C0.513 89.467 0.333871 89.3658 0.204041 89.2141C0.0742117 89.0623 0.00197336 88.8696 0 88.6699C0.000306986 88.4708 0.0721861 88.2784 0.202525 88.1279C0.332863 87.9774 0.512974 87.8787 0.71 87.8499L9 86.5999C22.9935 84.5002 37.0911 83.1649 51.23 82.5999C51.3515 82.5946 51.4727 82.616 51.585 82.6626C51.6974 82.7093 51.7981 82.7801 51.88 82.8699C51.9651 82.9594 52.0283 83.0673 52.0648 83.1853C52.1012 83.3033 52.1098 83.4281 52.09 83.5499C51.6099 86.9296 51.6099 90.3602 52.09 93.7399C52.1056 93.857 52.0962 93.976 52.0621 94.089C52.0281 94.2021 51.9704 94.3066 51.8928 94.3956C51.8152 94.4845 51.7195 94.5559 51.6121 94.605C51.5047 94.654 51.3881 94.6796 51.27 94.6799L51.31 94.7099ZM6.46 88.7099L9.29 89.1399C22.9021 91.1524 36.6113 92.4408 50.36 92.9999C50.0267 90.1162 50.0267 87.2037 50.36 84.3199C36.61 84.9013 22.9007 86.2131 9.29 88.2499L6.46 88.7099Z" fill="#FFD37D"/>
<path d="M65.3501 59.8501C65.2289 59.8501 65.1091 59.8243 64.9987 59.7743C64.8883 59.7243 64.7899 59.6512 64.7101 59.5601C64.5895 59.4249 64.5164 59.2541 64.5019 59.0735C64.4875 58.893 64.5325 58.7126 64.6301 58.5601C65.6459 56.6689 66.1524 54.5461 66.1001 52.4001C66.1001 48.0601 62.4701 44.1901 58.6301 40.1001C55.3401 36.6001 55.9101 31.9201 56.4201 27.7901C56.5801 26.4801 56.7301 25.2501 56.7601 24.0701C56.9701 17.4101 50.9201 13.3901 50.8501 13.3501C50.7034 13.25 50.5917 13.1065 50.5307 12.9397C50.4697 12.7729 50.4625 12.5912 50.5101 12.4201C50.5568 12.2497 50.6567 12.0986 50.7952 11.9889C50.9336 11.8792 51.1035 11.8165 51.2801 11.8101H51.6801C59.6801 11.8101 61.4501 20.2601 62.6801 25.8801C63.6901 31.0001 68.4001 36.5801 73.8401 39.1901C80.8401 42.5201 84.2901 50.9301 84.2901 51.3101C84.2916 51.5113 84.2191 51.706 84.0863 51.8572C83.9535 52.0084 83.7698 52.1055 83.5701 52.1301C77.109 53.0297 71.0035 55.632 65.8801 59.6701L65.7001 59.7801C65.5898 59.8282 65.4704 59.8521 65.3501 59.8501ZM54.0001 13.8501C55.4084 15.169 56.5289 16.7647 57.2912 18.5372C58.0536 20.3097 58.4413 22.2206 58.4301 24.1501C58.4301 25.3901 58.2301 26.7301 58.0701 28.0201C57.5901 31.9601 57.0701 36.0201 59.8401 39.0201C63.9201 43.3601 67.7701 47.4601 67.7701 52.4601C67.7746 53.8855 67.5863 55.3051 67.2101 56.6801C71.7276 53.6382 76.8409 51.5929 82.2101 50.6801C81.1501 48.4901 78.1501 43.1501 73.0801 40.6801C67.2101 37.8701 62.0801 31.7901 60.9501 26.2301C60.0001 21.5501 58.7301 15.3701 54.0001 13.8501Z" fill="#FFD37D"/>
<path d="M112 59.8601C111.883 59.861 111.767 59.8371 111.66 59.7901L111.46 59.6701C106.334 55.6304 100.225 53.028 93.7599 52.1301C93.6358 52.1143 93.517 52.0699 93.4129 52.0005C93.3088 51.9311 93.2222 51.8386 93.1599 51.7301C93.0968 51.6203 93.0587 51.498 93.0483 51.3718C93.0379 51.2456 93.0555 51.1187 93.0999 51.0001C93.2399 50.6501 96.5499 42.5101 103.5 39.1901C108.93 36.5801 113.65 30.9901 114.71 25.9001C115.88 20.2801 117.64 11.8301 125.71 11.8301H126.11C126.286 11.8381 126.455 11.9013 126.593 12.0108C126.732 12.1203 126.832 12.2705 126.88 12.4401C126.928 12.6122 126.92 12.7951 126.857 12.9624C126.794 13.1296 126.68 13.2725 126.53 13.3701C126.47 13.3701 120.42 17.4601 120.62 24.0901C120.62 25.2701 120.81 26.5001 120.97 27.8101C121.48 31.9401 122.05 36.6201 118.76 40.1201C114.91 44.2101 111.28 48.1201 111.28 52.4201C111.228 54.5673 111.738 56.6909 112.76 58.5801C112.856 58.7332 112.9 58.9132 112.886 59.0933C112.871 59.2735 112.799 59.4442 112.68 59.5801C112.596 59.6765 112.491 59.752 112.373 59.8006C112.255 59.8492 112.127 59.8696 112 59.8601ZM95.0899 50.6501C100.459 51.5629 105.572 53.6082 110.09 56.6501C109.714 55.2751 109.525 53.8556 109.53 52.4301C109.53 47.4301 113.38 43.3301 117.45 38.9901C120.21 36.0601 119.71 31.9901 119.23 27.9901C119.07 26.7001 118.91 25.3601 118.87 24.1201C118.857 22.1914 119.244 20.2809 120.004 18.5085C120.765 16.736 121.883 15.1399 123.29 13.8201C118.57 15.3401 117.29 21.5201 116.29 26.2101C115.13 31.7701 110.03 37.8501 104.17 40.6601C99.1299 43.1301 96.1399 48.4501 95.0899 50.6501Z" fill="#FFD37D"/>
<path d="M125.66 165.45C117.66 165.45 115.88 157 114.66 151.38C113.6 146.28 108.88 140.7 103.44 138.09C96.53 134.75 93 126.35 93 126C93.0003 125.798 93.0733 125.603 93.2055 125.451C93.3377 125.299 93.5203 125.199 93.72 125.17C100.184 124.276 106.293 121.677 111.42 117.64C111.472 117.592 111.533 117.555 111.6 117.53C111.768 117.451 111.957 117.43 112.137 117.47C112.318 117.51 112.481 117.608 112.6 117.75C112.724 117.883 112.799 118.055 112.813 118.236C112.828 118.418 112.781 118.599 112.68 118.75C111.669 120.643 111.163 122.765 111.21 124.91C111.21 129.25 114.84 133.11 118.69 137.2C121.98 140.71 121.4 145.39 120.9 149.51C120.74 150.82 120.59 152.06 120.55 153.23C120.34 159.89 126.4 163.92 126.46 163.96C126.61 164.056 126.726 164.197 126.79 164.364C126.853 164.531 126.862 164.713 126.813 164.885C126.765 165.056 126.663 165.208 126.522 165.317C126.381 165.426 126.208 165.487 126.03 165.49L125.66 165.45ZM95.09 126.63C96.09 128.81 99.15 134.16 104.21 136.63C110.08 139.44 115.21 145.52 116.34 151.08C117.34 155.77 118.61 161.95 123.34 163.47C121.936 162.148 120.818 160.551 120.056 158.78C119.294 157.008 118.904 155.099 118.91 153.17C118.91 151.92 119.12 150.59 119.27 149.3C119.76 145.35 120.27 141.3 117.5 138.3C113.42 133.96 109.57 129.87 109.57 124.87C109.568 123.441 109.76 122.018 110.14 120.64C105.603 123.679 100.474 125.72 95.09 126.63Z" fill="#FFD37D"/>
<path d="M51.6699 165.45H51.2799C51.1029 165.445 50.9323 165.383 50.7935 165.273C50.6547 165.163 50.5552 165.011 50.5099 164.84C50.4615 164.67 50.4684 164.49 50.5295 164.324C50.5906 164.159 50.7029 164.017 50.8499 163.92C50.9099 163.92 56.9699 159.83 56.7599 153.19C56.7599 152.02 56.5699 150.78 56.4099 149.47C55.9099 145.34 55.3399 140.67 58.6299 137.16C62.4699 133.07 66.0999 129.16 66.0999 124.87C66.1468 122.725 65.6406 120.603 64.6299 118.71C64.5397 118.563 64.4978 118.391 64.5101 118.218C64.5223 118.046 64.5881 117.882 64.6982 117.748C64.8083 117.615 64.9573 117.519 65.1243 117.475C65.2914 117.43 65.4681 117.439 65.6299 117.5C65.706 117.528 65.7769 117.569 65.8399 117.62C70.9632 121.657 77.0691 124.256 83.5299 125.15C83.6554 125.17 83.775 125.217 83.8803 125.287C83.9857 125.358 84.0743 125.451 84.1399 125.56C84.1963 125.673 84.2256 125.798 84.2256 125.925C84.2256 126.052 84.1963 126.177 84.1399 126.29C84.0099 126.63 80.7299 134.75 73.7499 138.1C68.3099 140.71 63.5899 146.29 62.5299 151.39C61.4499 157 59.6899 165.45 51.6699 165.45ZM67.1999 120.63C67.5848 122.007 67.7767 123.43 67.7699 124.86C67.7699 129.86 63.9199 133.95 59.8399 138.29C57.0799 141.23 57.5799 145.29 58.0699 149.29C58.2299 150.58 58.3899 151.91 58.4299 153.16C58.437 155.084 58.0473 156.99 57.2851 158.757C56.5229 160.524 55.4045 162.115 53.9999 163.43C58.7299 161.91 59.9999 155.73 60.9999 151.04C62.1599 145.48 67.2599 139.4 73.1299 136.59C78.1299 134.17 81.1899 128.82 82.2599 126.59C76.8748 125.691 71.7417 123.66 67.1999 120.63Z" fill="#FFD37D"/>
<path d="M58.5599 66.7699C58.3456 66.7549 58.1452 66.6582 57.9999 66.4999C48.38 56.1102 39.3332 45.204 30.8999 33.8299L25.8999 27.0599C25.7746 26.9008 25.7117 26.7013 25.7233 26.4991C25.7348 26.2968 25.8199 26.1058 25.9625 25.9619C26.1051 25.8181 26.2955 25.7314 26.4976 25.7181C26.6997 25.7048 26.8997 25.766 27.0599 25.8899L33.8399 30.8899C45.2091 39.329 56.1119 48.3789 66.4999 57.9999C66.5903 58.081 66.6608 58.1818 66.7059 58.2946C66.751 58.4073 66.7695 58.5289 66.7599 58.6499C66.755 58.7714 66.7228 58.8902 66.6656 58.9976C66.6085 59.1049 66.528 59.198 66.4299 59.2699C65.0731 60.2992 63.7869 61.4184 62.5799 62.6199C61.3759 63.8281 60.2566 65.1178 59.2299 66.4799C59.1556 66.5755 59.062 66.6543 58.9552 66.7111C58.8483 66.768 58.7307 66.8017 58.6099 66.8099L58.5599 66.7699ZM30.5599 30.5399L32.2599 32.8399C40.44 43.901 49.2023 54.5194 58.5099 64.6499C59.4104 63.5123 60.3754 62.4272 61.3999 61.3999C62.426 60.3778 63.5077 59.413 64.6399 58.5099C54.5108 49.1985 43.8959 40.4295 32.8399 32.2399L30.5599 30.5399Z" fill="#FFD37D"/>
<path d="M150.78 151.61C150.601 151.611 150.426 151.555 150.28 151.45L143.51 146.45C132.136 138.034 121.23 129.004 110.84 119.4C110.751 119.318 110.68 119.217 110.634 119.105C110.587 118.992 110.565 118.871 110.57 118.75C110.578 118.629 110.611 118.511 110.668 118.404C110.725 118.297 110.804 118.204 110.9 118.13C112.262 117.103 113.552 115.984 114.76 114.78C115.962 113.57 117.081 112.28 118.11 110.92C118.182 110.823 118.276 110.742 118.383 110.685C118.49 110.628 118.609 110.596 118.73 110.59C118.853 110.585 118.975 110.607 119.089 110.653C119.203 110.7 119.306 110.77 119.39 110.86C128.99 121.25 138.02 132.152 146.44 143.52L151.44 150.3C151.557 150.462 151.613 150.66 151.598 150.86C151.584 151.059 151.499 151.247 151.36 151.39C151.202 151.535 150.994 151.613 150.78 151.61ZM112.69 118.82C122.82 128.135 133.438 136.904 144.5 145.09L146.8 146.8L145.1 144.5C136.913 133.439 128.144 122.821 118.83 112.69C117.927 113.822 116.962 114.904 115.94 115.93C114.918 116.96 113.832 117.925 112.69 118.82Z" fill="#FFD37D"/>
<path d="M118.77 66.7699C118.649 66.7662 118.531 66.7355 118.424 66.6801C118.317 66.6248 118.223 66.5461 118.15 66.4499C117.123 65.0878 116.004 63.7981 114.8 62.5899C113.59 61.3883 112.3 60.2691 110.94 59.2399C110.842 59.1666 110.761 59.0724 110.704 58.9642C110.647 58.856 110.614 58.7365 110.608 58.6141C110.602 58.4917 110.624 58.3696 110.671 58.2565C110.718 58.1434 110.789 58.0422 110.88 57.9599C121.256 48.3563 132.145 39.323 143.5 30.8999L150.28 25.8999C150.439 25.7746 150.639 25.7117 150.841 25.7233C151.043 25.7348 151.234 25.8199 151.378 25.9625C151.522 26.1051 151.609 26.2955 151.622 26.4976C151.635 26.6997 151.574 26.8997 151.45 27.0599L146.45 33.8399C138.027 45.2107 128.991 56.1135 119.38 66.4999C119.302 66.5842 119.208 66.6517 119.103 66.6981C118.998 66.7445 118.885 66.769 118.77 66.7699ZM112.69 58.5099C113.822 59.413 114.904 60.3778 115.93 61.3999C116.955 62.4235 117.92 63.5053 118.82 64.6399C128.138 54.5134 136.91 43.8984 145.1 32.8399L146.8 30.5399L144.49 32.2399C133.433 40.4285 122.818 49.1975 112.69 58.5099Z" fill="#FFD37D"/>
<path d="M26.5601 151.61C26.4068 151.61 26.2564 151.568 26.1258 151.487C25.9951 151.407 25.8892 151.292 25.8199 151.156C25.7505 151.019 25.7203 150.866 25.7327 150.713C25.7451 150.56 25.7996 150.414 25.8901 150.29L30.8901 143.51C39.3263 132.136 48.3764 121.229 58.0001 110.84C58.0811 110.749 58.1817 110.678 58.2942 110.631C58.4067 110.584 58.5284 110.563 58.6501 110.57C58.7711 110.577 58.8892 110.61 58.9962 110.667C59.1032 110.724 59.1966 110.804 59.2701 110.9C61.3214 113.631 63.7488 116.059 66.4801 118.11C66.5775 118.183 66.6577 118.276 66.7148 118.383C66.7719 118.49 66.8044 118.609 66.8101 118.73C66.8149 118.853 66.7933 118.976 66.7467 119.089C66.7001 119.203 66.6296 119.306 66.5401 119.39C56.149 128.993 45.2429 138.023 33.8701 146.44L27.1001 151.44C26.9448 151.557 26.7542 151.617 26.5601 151.61ZM58.5601 112.69C49.2339 122.824 40.4483 133.442 32.2401 144.5L30.5401 146.8L32.8401 145.1C43.9016 136.914 54.52 128.145 64.6501 118.83C63.5146 117.927 62.4296 116.962 61.4001 115.94C60.3803 114.908 59.4156 113.823 58.5101 112.69H58.5601Z" fill="#FFD37D"/>
<path d="M126 84.2601C125.798 84.2619 125.602 84.1897 125.449 84.0571C125.296 83.9245 125.197 83.7406 125.17 83.5401C124.274 77.0798 121.675 70.9743 117.64 65.8501C117.589 65.7874 117.548 65.7164 117.52 65.6401C117.444 65.4711 117.426 65.282 117.467 65.1015C117.509 64.921 117.608 64.7589 117.75 64.6401C117.885 64.5195 118.056 64.4464 118.237 64.4319C118.417 64.4175 118.598 64.4625 118.75 64.5601C120.639 65.582 122.763 66.0922 124.91 66.0401C129.24 66.0401 133.11 62.4001 137.2 58.5601C140.71 55.2701 145.38 55.8401 149.51 56.3501C150.82 56.5101 152.06 56.6601 153.23 56.7001C159.85 56.9301 163.92 50.8501 163.96 50.7801C164.06 50.636 164.202 50.5266 164.366 50.4671C164.531 50.4077 164.71 50.4012 164.879 50.4486C165.047 50.4959 165.197 50.5948 165.306 50.7313C165.416 50.8679 165.48 51.0353 165.49 51.2101C165.77 59.5701 157.14 61.3701 151.43 62.5601C146.33 63.6201 140.75 68.3301 138.14 73.7701C134.78 80.7801 126.38 84.2601 126 84.2601ZM120.66 67.1801C123.697 71.7 125.742 76.8123 126.66 82.1801C128.84 81.1201 134.19 78.1201 136.66 73.0501C139.47 67.1801 145.55 62.0501 151.11 60.9201C155.8 59.9201 161.98 58.6601 163.5 53.9201C162.178 55.3241 160.581 56.4417 158.81 57.2037C157.038 57.9658 155.129 58.3559 153.2 58.3501C151.95 58.3501 150.62 58.1501 149.33 57.9901C145.38 57.5101 141.33 56.9901 138.33 59.7701C133.99 63.8401 129.89 67.6901 124.9 67.6901C123.47 67.7118 122.044 67.5402 120.66 67.1801Z" fill="#FFD37D"/>
<path d="M164.64 126.83C164.501 126.83 164.364 126.795 164.242 126.728C164.12 126.662 164.016 126.566 163.94 126.45C163.94 126.39 159.81 120.34 153.21 120.54C152.04 120.54 150.8 120.73 149.49 120.89C145.36 121.4 140.69 121.97 137.18 118.68C133.09 114.83 129.18 111.2 124.89 111.2C122.743 111.148 120.619 111.658 118.73 112.68C118.579 112.779 118.4 112.826 118.22 112.816C118.04 112.805 117.868 112.736 117.73 112.62C117.583 112.505 117.48 112.343 117.436 112.162C117.393 111.98 117.412 111.79 117.49 111.62C117.517 111.532 117.561 111.451 117.62 111.38C121.655 106.256 124.254 100.15 125.15 93.6901C125.184 93.4916 125.289 93.3121 125.445 93.1851C125.602 93.0582 125.799 92.9924 126 93.0001C126.38 93.0001 134.78 96.4801 138.12 103.45C140.73 108.88 146.31 113.6 151.41 114.66C157.12 115.85 165.75 117.66 165.47 126.01C165.462 126.225 165.371 126.428 165.217 126.578C165.062 126.727 164.855 126.81 164.64 126.81V126.83ZM153.56 118.83C155.421 118.881 157.253 119.298 158.952 120.058C160.651 120.818 162.183 121.906 163.46 123.26C161.94 118.54 155.76 117.26 151.07 116.26C145.51 115.11 139.43 110.01 136.62 104.14C134.19 99.0701 128.84 96.0701 126.62 95.0101C125.702 100.378 123.657 105.49 120.62 110.01C121.998 109.634 123.421 109.446 124.85 109.45C129.85 109.45 133.94 113.3 138.28 117.37C141.22 120.13 145.28 119.63 149.28 119.15C150.57 118.99 151.9 118.83 153.15 118.79L153.56 118.83Z" fill="#FFD37D"/>
<path d="M12.6999 126.83C12.6236 126.84 12.5463 126.84 12.4699 126.83C12.2995 126.78 12.149 126.678 12.0396 126.538C11.9302 126.398 11.8674 126.227 11.8599 126.05C11.5799 117.7 20.2199 115.9 25.9299 114.71C31.0199 113.65 36.6099 108.93 39.2199 103.49C42.5499 96.5 50.9999 93 51.3399 93C51.5399 93.0027 51.7324 93.0767 51.8827 93.2087C52.0331 93.3407 52.1313 93.522 52.1599 93.72C53.0578 100.185 55.6602 106.294 59.6999 111.42C59.7461 111.477 59.7832 111.541 59.8099 111.61C59.8853 111.778 59.9046 111.966 59.8649 112.146C59.8253 112.326 59.7289 112.489 59.5899 112.61C59.4536 112.729 59.2822 112.8 59.1017 112.813C58.9211 112.826 58.7414 112.779 58.5899 112.68C56.696 111.671 54.5751 111.165 52.4299 111.21C48.0899 111.21 44.2199 114.84 40.1299 118.69C36.6299 121.98 31.9499 121.4 27.8199 120.9C26.5099 120.74 25.2799 120.59 24.0999 120.55C17.4499 120.34 13.4099 126.4 13.3799 126.46C13.304 126.571 13.2027 126.663 13.0845 126.727C12.9663 126.791 12.8345 126.827 12.6999 126.83ZM50.6999 95.06C48.5099 96.12 43.1699 99.12 40.6999 104.18C37.8899 110.05 31.8099 115.18 26.2499 116.31C21.5599 117.31 15.3799 118.58 13.8599 123.31C15.1785 121.905 16.7731 120.787 18.5437 120.026C20.3143 119.266 22.2229 118.879 24.1499 118.89C25.3999 118.89 26.7399 119.09 28.0299 119.25C31.9699 119.73 36.0299 120.25 39.0299 117.47C43.3699 113.39 47.4699 109.54 52.4699 109.54C53.8959 109.538 55.3155 109.73 56.6899 110.11C53.6396 105.578 51.5907 100.447 50.6799 95.06H50.6999Z" fill="#FFD37D"/>
<path d="M51.3399 84.2599C50.9499 84.2599 42.5499 80.7699 39.2199 73.8099C36.6099 68.3699 30.9999 63.6499 25.9299 62.5899C20.2199 61.3999 11.5799 59.5899 11.8599 51.2499C11.8664 51.0733 11.9291 50.9034 12.0388 50.765C12.1485 50.6265 12.2995 50.5266 12.4699 50.4799C12.6395 50.4315 12.8201 50.4383 12.9855 50.4995C13.1509 50.5606 13.2926 50.6728 13.3899 50.8199C13.3899 50.8799 17.4999 56.9699 24.1199 56.7299C25.2999 56.7299 26.5299 56.5399 27.8399 56.3799C31.9699 55.8799 36.6499 55.3099 40.1499 58.5999C44.2399 62.4399 48.1499 66.0699 52.4499 66.0699C54.5951 66.1145 56.716 65.6084 58.6099 64.5999C58.7603 64.4976 58.9406 64.4489 59.122 64.4616C59.3034 64.4743 59.4753 64.5477 59.6099 64.6699C59.758 64.7842 59.8625 64.9457 59.9062 65.1276C59.9498 65.3095 59.93 65.5008 59.8499 65.6699C59.8169 65.752 59.7732 65.8293 59.7199 65.8999C55.6819 71.0233 53.0795 77.1288 52.1799 83.5899C52.1402 83.7821 52.0345 83.9544 51.881 84.0768C51.7276 84.1992 51.5361 84.2639 51.3399 84.2599ZM13.8799 53.9999C15.3999 58.7299 21.5799 59.9999 26.2699 60.9999C31.8299 62.1599 37.9099 67.2599 40.7199 73.1299C43.1499 78.1899 48.4899 81.1999 50.7199 82.2599C51.6339 76.8911 53.6791 71.778 56.7199 67.2599C55.3465 67.6448 53.9262 67.8366 52.4999 67.8299C47.4999 67.8299 43.3999 63.9799 39.0599 59.8999C36.1299 57.1499 32.0599 57.6499 28.0599 58.1299C26.7699 58.2899 25.4299 58.4499 24.1799 58.4899C22.2474 58.4851 20.3363 58.0842 18.5648 57.3119C16.7932 56.5396 15.1988 55.4124 13.8799 53.9999Z" fill="#FFD37D"/>
<path d="M96.3699 84.4999C96.1965 84.4995 96.0275 84.4455 95.8861 84.3452C95.7446 84.2449 95.6377 84.1034 95.5799 83.9399C95.5088 83.7303 95.5224 83.5012 95.6176 83.3013C95.7129 83.1015 95.8823 82.9467 96.0899 82.8699C96.7649 82.6402 97.3612 82.2241 97.8099 81.6699C98.7099 80.3299 101.53 79.1599 103.81 79.1599C106.09 79.1599 108.96 80.3299 109.81 81.6699C110.268 82.2209 110.865 82.6388 111.54 82.8799C111.643 82.9157 111.738 82.9717 111.819 83.0447C111.9 83.1176 111.966 83.2061 112.013 83.3048C112.059 83.4035 112.086 83.5105 112.09 83.6196C112.095 83.7287 112.078 83.8376 112.04 83.9399C112.004 84.0431 111.948 84.1383 111.875 84.2198C111.802 84.3014 111.714 84.3677 111.616 84.4151C111.517 84.4625 111.41 84.49 111.301 84.4959C111.192 84.5019 111.083 84.4863 110.98 84.4499C109.97 84.09 109.085 83.4479 108.43 82.5999C107.96 81.8999 105.76 80.8299 103.77 80.8299C101.78 80.8299 99.6599 81.8999 99.1999 82.5999C98.5433 83.4511 97.6541 84.0937 96.6399 84.4499C96.5531 84.4809 96.462 84.4978 96.3699 84.4999Z" fill="#FFD37D"/>
<path d="M103.85 85.4499C103.227 85.4499 102.617 85.2649 102.099 84.9183C101.581 84.5718 101.177 84.0792 100.939 83.503C100.701 82.9269 100.639 82.293 100.761 81.6817C100.884 81.0704 101.185 80.5091 101.626 80.069C102.068 79.6288 102.63 79.3296 103.242 79.2092C103.853 79.0888 104.487 79.1526 105.062 79.3926C105.638 79.6325 106.129 80.0378 106.474 80.5571C106.819 81.0765 107.002 81.6865 107 82.3099C106.997 83.1436 106.664 83.9422 106.074 84.5308C105.483 85.1194 104.684 85.4499 103.85 85.4499ZM103.85 80.8299C103.557 80.8299 103.271 80.9167 103.028 81.0793C102.784 81.2419 102.595 81.4731 102.483 81.7435C102.371 82.014 102.341 82.3115 102.398 82.5986C102.455 82.8857 102.596 83.1494 102.803 83.3564C103.01 83.5634 103.274 83.7044 103.561 83.7615C103.848 83.8186 104.146 83.7893 104.416 83.6772C104.687 83.5652 104.918 83.3755 105.081 83.1321C105.243 82.8888 105.33 82.6026 105.33 82.3099C105.33 81.9174 105.174 81.5409 104.896 81.2634C104.619 80.9858 104.242 80.8299 103.85 80.8299Z" fill="#FFD37D"/>
<path d="M95.6501 82.23C95.5318 82.238 95.4131 82.2217 95.3014 82.1821C95.1896 82.1426 95.0871 82.0806 95.0001 82C94.8564 81.8327 94.7834 81.616 94.7964 81.3958C94.8095 81.1756 94.9076 80.9692 95.0701 80.82C96.4169 79.604 97.8398 78.475 99.3301 77.44C100.84 76.55 104.73 76.13 106.49 76.95C108.08 77.68 110.69 80.56 110.99 80.89C111.102 81.0548 111.15 81.2542 111.127 81.4519C111.104 81.6495 111.01 81.8323 110.864 81.9668C110.717 82.1014 110.527 82.1787 110.328 82.1848C110.129 82.1909 109.935 82.1253 109.78 82C108.606 80.6516 107.261 79.4617 105.78 78.46C104.57 77.9 101.26 78.24 100.16 78.88C98.757 79.8527 97.4206 80.9184 96.1601 82.07C96.0117 82.1768 95.8329 82.2329 95.6501 82.23Z" fill="#FFD37D"/>
<path d="M88.19 103.62H88.05C87.0898 103.591 86.1786 103.19 85.51 102.5C85.163 102.142 84.7175 101.895 84.23 101.79H83.7C82.33 101.79 80.02 101.7 79.56 99.2199C79.4585 98.4122 79.5558 97.592 79.8433 96.8304C80.1309 96.0688 80.6 95.389 81.21 94.8499C81.3771 94.7054 81.5948 94.6331 81.8151 94.6491C82.0355 94.665 82.2405 94.7678 82.385 94.9349C82.5296 95.102 82.6018 95.3197 82.5859 95.54C82.5699 95.7604 82.4671 95.9654 82.3 96.1099C81.9127 96.462 81.612 96.8988 81.4212 97.3862C81.2304 97.8736 81.1547 98.3985 81.2 98.9199C81.39 99.9199 82.12 100.08 83.75 100.13H84.32C85.1625 100.233 85.9469 100.613 86.55 101.21C86.9441 101.631 87.4763 101.898 88.05 101.96C88.64 101.96 89.05 101.69 89.64 101.21C90.2418 100.611 91.0269 100.231 91.87 100.13H92.44C94.06 100.13 94.8 99.9599 94.99 98.9199C95.0346 98.3985 94.9585 97.8739 94.7678 97.3866C94.577 96.8994 94.2767 96.4625 93.89 96.1099C93.8053 96.037 93.7358 95.9482 93.6854 95.8484C93.6351 95.7487 93.6048 95.64 93.5965 95.5286C93.5881 95.4171 93.6018 95.3052 93.6367 95.199C93.6716 95.0929 93.7271 94.9946 93.8 94.9099C93.8729 94.8252 93.9617 94.7557 94.0615 94.7053C94.1612 94.655 94.2699 94.6248 94.3814 94.6164C94.4928 94.608 94.6048 94.6217 94.7109 94.6566C94.8171 94.6916 94.9153 94.747 95 94.8199C95.61 95.359 96.0791 96.0388 96.3667 96.8004C96.6542 97.562 96.7515 98.3822 96.65 99.1899C96.19 101.67 93.88 101.73 92.5 101.76H91.98C91.4902 101.865 91.0438 102.116 90.7 102.48C90.0249 103.145 89.1353 103.549 88.19 103.62Z" fill="#FFD37D"/>
<path d="M86.33 100.41C86.2123 100.407 86.0965 100.38 85.99 100.33C85.91 100.33 83.86 99.3299 84.61 95.9599C84.7754 95.1908 85.027 94.4427 85.36 93.7299C85.74 92.8999 86.04 92.2399 86.04 89.6399V79.9999C86.04 79.7798 86.1275 79.5687 86.2831 79.413C86.4388 79.2574 86.6499 79.1699 86.87 79.1699C87.0902 79.1699 87.3013 79.2574 87.4569 79.413C87.6126 79.5687 87.7 79.7798 87.7 79.9999V89.6499C87.7 92.6499 87.32 93.4599 86.88 94.4299C86.5937 95.0372 86.3757 95.6745 86.23 96.3299C85.79 98.3299 86.67 98.8199 86.7 98.8399C86.863 98.9272 86.9926 99.0659 87.0688 99.2344C87.1449 99.4029 87.1634 99.5918 87.1212 99.7719C87.079 99.9519 86.9786 100.113 86.8356 100.23C86.6926 100.347 86.5148 100.414 86.33 100.42V100.41Z" fill="#FFD37D"/>
<path d="M88.12 110.14C87.6297 110.136 87.1483 110.009 86.72 109.77C86.2659 109.526 85.7555 109.405 85.24 109.42C84.8824 109.415 84.5258 109.459 84.18 109.55C83.6705 109.667 83.1519 109.741 82.63 109.77C81.5407 109.79 80.4513 109.734 79.37 109.6C79.1512 109.575 78.9513 109.464 78.8144 109.291C78.6775 109.119 78.6148 108.899 78.64 108.68C78.6652 108.461 78.7763 108.261 78.9488 108.125C79.1213 107.988 79.3412 107.925 79.56 107.95C80.5559 108.063 81.5577 108.117 82.56 108.11C82.9913 108.083 83.4195 108.02 83.84 107.92C84.3233 107.796 84.8212 107.739 85.32 107.75C86.0757 107.747 86.8206 107.929 87.49 108.28C87.6809 108.404 87.9023 108.473 88.13 108.48C88.3406 108.466 88.5439 108.397 88.72 108.28C89.3894 107.929 90.1343 107.747 90.89 107.75C91.3849 107.75 91.8782 107.807 92.36 107.92C92.7808 108.018 93.2089 108.082 93.64 108.11C94.6423 108.116 95.644 108.063 96.64 107.95C96.7483 107.938 96.8581 107.947 96.9629 107.977C97.0678 108.006 97.1657 108.057 97.2512 108.125C97.3366 108.192 97.4078 108.276 97.4608 108.372C97.5138 108.467 97.5475 108.572 97.56 108.68C97.5725 108.788 97.5635 108.898 97.5335 109.003C97.5036 109.108 97.4533 109.206 97.3855 109.291C97.3177 109.377 97.2338 109.448 97.1385 109.501C97.0431 109.554 96.9383 109.588 96.83 109.6C95.7453 109.733 94.6526 109.79 93.56 109.77C93.0381 109.74 92.5196 109.667 92.01 109.55C91.6837 109.463 91.3476 109.42 91.01 109.42C90.4914 109.406 89.978 109.527 89.52 109.77C89.0933 110.013 88.6108 110.14 88.12 110.14Z" fill="#FFD37D"/>
<path d="M88.09 108.81C87.9137 108.811 87.7419 108.755 87.6 108.65C86.9957 108.197 86.3608 107.786 85.7 107.42C85.0455 107.598 84.4145 107.853 83.82 108.18C83.7228 108.231 83.6166 108.262 83.5075 108.271C83.3984 108.281 83.2884 108.268 83.184 108.236C83.0795 108.203 82.9825 108.149 82.8987 108.079C82.8148 108.008 82.7455 107.922 82.695 107.825C82.6444 107.728 82.6135 107.622 82.604 107.513C82.5945 107.403 82.6065 107.293 82.6395 107.189C82.6725 107.085 82.7257 106.988 82.7961 106.904C82.8665 106.82 82.9528 106.751 83.05 106.7C84.51 105.94 85.54 105.64 86.11 105.8C86.822 106.099 87.4939 106.485 88.11 106.95C88.7277 106.487 89.3993 106.101 90.11 105.8C90.6833 105.64 91.7033 105.94 93.17 106.7C93.3662 106.802 93.5139 106.978 93.5805 107.189C93.6471 107.4 93.6271 107.629 93.525 107.825C93.4229 108.021 93.247 108.169 93.036 108.236C92.825 108.302 92.5963 108.282 92.4 108.18C91.8055 107.853 91.1745 107.598 90.52 107.42C89.857 107.788 89.219 108.199 88.61 108.65C88.4615 108.764 88.2769 108.821 88.09 108.81Z" fill="#FFD37D"/>
<path d="M88.0901 113.16C85.5001 113.16 81.9701 110.83 81.8301 110.73C81.7387 110.67 81.6601 110.593 81.5985 110.503C81.537 110.413 81.4939 110.312 81.4716 110.205C81.4493 110.098 81.4483 109.988 81.4686 109.881C81.489 109.773 81.5302 109.671 81.5901 109.58C81.7125 109.395 81.9032 109.266 82.1206 109.221C82.3379 109.176 82.5642 109.219 82.7501 109.34C83.6501 109.94 86.3601 111.5 88.0901 111.5C89.8201 111.5 92.5401 109.94 93.4401 109.34C93.5313 109.28 93.6336 109.238 93.741 109.217C93.8485 109.196 93.959 109.197 94.0662 109.218C94.1735 109.24 94.2754 109.283 94.3661 109.344C94.4569 109.405 94.5347 109.484 94.5951 109.575C94.6555 109.666 94.6973 109.769 94.7182 109.876C94.7391 109.984 94.7386 110.094 94.7168 110.201C94.6949 110.309 94.6522 110.41 94.591 110.501C94.5298 110.592 94.4513 110.67 94.3601 110.73C94.2101 110.83 90.6801 113.16 88.0901 113.16Z" fill="#FFD37D"/>
<path d="M112 74.21C111.859 74.2078 111.722 74.1699 111.6 74.1C100.72 68.1 94.73 73.73 94.48 73.97C94.4018 74.0468 94.3093 74.1075 94.2077 74.1486C94.1061 74.1896 93.9975 74.2103 93.8879 74.2094C93.7783 74.2084 93.67 74.1859 93.5691 74.1432C93.4682 74.1004 93.3768 74.0381 93.3 73.96C93.2231 73.8818 93.1625 73.7893 93.1214 73.6878C93.0803 73.5862 93.0596 73.4775 93.0606 73.3679C93.0615 73.2583 93.084 73.15 93.1268 73.0492C93.1696 72.9483 93.2318 72.8568 93.31 72.78C93.6 72.5 100.39 66 112.4 72.65C112.496 72.7023 112.581 72.7731 112.65 72.8582C112.718 72.9434 112.769 73.0413 112.8 73.1464C112.831 73.2514 112.84 73.3614 112.828 73.4702C112.816 73.5789 112.783 73.6842 112.73 73.78C112.657 73.9099 112.551 74.0182 112.423 74.0938C112.295 74.1693 112.149 74.2094 112 74.21Z" fill="#FFD37D"/>
<path d="M66 84.4999C65.8284 84.4975 65.6616 84.4425 65.5221 84.3423C65.3827 84.2422 65.2772 84.1018 65.22 83.9399C65.1823 83.8369 65.1656 83.7274 65.1709 83.6179C65.1762 83.5083 65.2034 83.401 65.251 83.3021C65.2985 83.2033 65.3654 83.115 65.4477 83.0425C65.53 82.9699 65.626 82.9147 65.73 82.8799C66.401 82.6372 66.9949 82.2194 67.45 81.6699C68.34 80.3299 71.16 79.1599 73.45 79.1599C75.74 79.1599 78.6 80.3299 79.45 81.6699C79.9052 82.2194 80.499 82.6372 81.17 82.8799C81.3782 82.9528 81.5489 83.1055 81.6446 83.3043C81.7402 83.5031 81.753 83.7317 81.68 83.9399C81.6071 84.1481 81.4544 84.3188 81.2557 84.4144C81.0569 84.5101 80.8282 84.5228 80.62 84.4499C79.6058 84.0937 78.7166 83.4511 78.06 82.5999C77.6 81.8999 75.39 80.8299 73.41 80.8299C71.43 80.8299 69.22 81.8999 68.76 82.5999C68.0995 83.447 67.2116 84.0887 66.2 84.4499C66.1354 84.474 66.0684 84.4908 66 84.4999Z" fill="#FFD37D"/>
<path d="M73.4801 85.4499C72.8562 85.4519 72.2458 85.2686 71.7263 84.9232C71.2067 84.5778 70.8014 84.086 70.5618 83.51C70.3221 82.934 70.2589 82.2998 70.3801 81.6878C70.5013 81.0758 70.8015 80.5137 71.2427 80.0725C71.6838 79.6314 72.246 79.3312 72.858 79.2099C73.47 79.0887 74.1041 79.1519 74.6801 79.3916C75.2561 79.6313 75.748 80.0365 76.0934 80.5561C76.4387 81.0756 76.622 81.686 76.6201 82.3099C76.6174 83.1419 76.2857 83.939 75.6975 84.5273C75.1092 85.1156 74.312 85.4473 73.4801 85.4499ZM73.4801 80.8299C73.1892 80.8378 72.9071 80.9312 72.669 81.0985C72.4309 81.2659 72.2475 81.4997 72.1416 81.7707C72.0357 82.0417 72.012 82.338 72.0735 82.6224C72.1351 82.9068 72.2791 83.1667 72.4876 83.3697C72.6961 83.5727 72.9598 83.7098 73.2457 83.7637C73.5317 83.8176 73.8272 83.7861 74.0953 83.673C74.3634 83.5599 74.5922 83.3703 74.7531 83.1278C74.9141 82.8854 74.9999 82.6009 75.0001 82.3099C75.0001 82.1121 74.9606 81.9163 74.8837 81.7341C74.8068 81.5519 74.6942 81.3869 74.5525 81.249C74.4108 81.111 74.2429 81.0028 74.0587 80.9309C73.8745 80.8589 73.6778 80.8245 73.4801 80.8299Z" fill="#FFD37D"/>
<path d="M66.93 82.2299C66.7252 82.2297 66.5284 82.151 66.38 82.0099C66.2982 81.9377 66.2317 81.8498 66.1843 81.7516C66.137 81.6533 66.1097 81.5465 66.1041 81.4375C66.0985 81.3286 66.1147 81.2196 66.1518 81.117C66.1889 81.0144 66.246 80.9202 66.32 80.8399C66.61 80.5099 69.23 77.6299 70.81 76.8999C72.57 76.0799 76.46 76.4999 77.98 77.3899C79.4656 78.427 80.8851 79.5559 82.23 80.7699C82.3204 80.8427 82.3946 80.9337 82.4477 81.037C82.5008 81.1402 82.5316 81.2535 82.5382 81.3694C82.5448 81.4853 82.527 81.6013 82.486 81.7099C82.4449 81.8186 82.3816 81.9174 82.3 81.9999C82.1508 82.1624 81.9443 82.2606 81.7241 82.2736C81.5039 82.2867 81.2873 82.2137 81.12 82.0699C79.8549 80.9237 78.5189 79.8583 77.12 78.8799C76.03 78.2399 72.72 77.8799 71.51 78.4599C70.0247 79.4563 68.6794 80.6468 67.51 81.9999C67.3517 82.1457 67.1451 82.2276 66.93 82.2299Z" fill="#FFD37D"/>
<path d="M65.3299 74.21C65.1448 74.2111 64.9646 74.1503 64.8181 74.0373C64.6715 73.9243 64.5669 73.7655 64.5209 73.5862C64.4749 73.4068 64.4902 73.2173 64.5643 73.0477C64.6384 72.8781 64.7671 72.7381 64.9299 72.65C76.9999 66 83.7399 72.5 83.9999 72.78C84.08 72.8555 84.1445 72.946 84.1896 73.0465C84.2347 73.1469 84.2596 73.2552 84.2629 73.3652C84.2661 73.4753 84.2476 73.5849 84.2085 73.6878C84.1694 73.7907 84.1104 73.8849 84.0349 73.965C83.9594 74.0451 83.8689 74.1095 83.7685 74.1547C83.668 74.1998 83.5597 74.2247 83.4497 74.2279C83.3396 74.2312 83.23 74.2127 83.1271 74.1736C83.0242 74.1345 82.93 74.0755 82.8499 74C82.5999 73.76 76.6099 68.12 65.7299 74.13C65.6058 74.1908 65.4679 74.2183 65.3299 74.21Z" fill="#FFD37D"/>
</svg>
