<?xml version="1.0" encoding="utf-8"?>
<!-- Generator: Adobe Illustrator 26.2.1, SVG Export Plug-In . SVG Version: 6.00 Build 0)  -->
<svg version="1.1" id="图层_1" xmlns="http://www.w3.org/2000/svg" xmlns:xlink="http://www.w3.org/1999/xlink" x="0px" y="0px"
	 viewBox="0 0 359 96" style="enable-background:new 0 0 359 96;" xml:space="preserve">
<style type="text/css">
	.st0{fill:#FCCA4C;stroke:#121212;stroke-width:2;}
	.st1{fill:#121212;stroke:#121212;stroke-width:2;}
	.st2{fill:url(#SVGID_1_);stroke:#121212;stroke-width:2;}
	.st3{fill:url(#SVGID_00000096034688623844382350000006131922777725620103_);stroke:#121212;stroke-width:2;}
	.st4{fill:url(#SVGID_00000148625104756097347910000017400278467783116697_);stroke:#121212;stroke-width:2;}
	.st5{fill:url(#SVGID_00000182502408935903567790000001522167877700880788_);}
	.st6{fill:url(#SVGID_00000051384202851842135320000008997113165057014966_);stroke:#121212;stroke-width:2;}
	.st7{fill:url(#SVGID_00000106851776707564631640000014275968075019917747_);}
	.st8{fill:#121212;}
</style>
<path class="st0" d="M314.8,31.3l-1.3-0.4v1.4v40.4h-1.5l0.6,0.6c-4.3,1.5-7.8,2.9-11.3,4.8c-3.9,2.2-7.6,5.2-12.1,10l1.1,1.6
	c4.6-2,9.2-3,13.9-3c6.5,0,12.4,1.9,18.2,3.7l0,0c5.8,1.8,11.4,3.6,17.7,3.6c5.1,0,10.1-1.3,15.2-3.8l1.2-0.6l-0.9-1
	c-5.5-6.2-8.9-11.4-15.2-22.3c0,0,0,0,0,0l-0.3-0.5l0.3-0.5l0,0c5.9-9.7,9.2-15.4,14.6-26.6l1-2.2l-2.3,0.8c-3.7,1.3-7.3,1.9-11,1.9
	c-7.6,0-14.2-2.7-20.9-5.3C319.6,33.1,317.2,32.1,314.8,31.3z"/>
<path class="st0" d="M36.9,34c-6.7,2.6-13.3,5.3-20.9,5.3c-3.7,0-7.3-0.6-11-1.9l-2.3-0.8l1,2.2c5.4,11.2,8.7,17,14.6,26.6l0,0
	l0.3,0.5l-0.3,0.5c0,0,0,0,0,0C12,77.3,8.7,82.5,3.1,88.7l-0.9,1l1.2,0.6c5.1,2.6,10.1,3.8,15.2,3.8c6.2,0,11.9-1.8,17.7-3.6l0,0
	c5.9-1.9,11.8-3.7,18.2-3.7c4.7,0,9.3,1,13.9,3l1.1-1.6c-4.6-4.9-8.3-7.8-12.1-10c-3.4-2-7-3.3-11.3-4.8l0.6-0.6h-1.5V32.3v-1.4
	L44,31.3C41.7,32.1,39.3,33.1,36.9,34z"/>
<path class="st1" d="M311.2,74l-0.3-0.9l0.7-0.7l0,0l-0.5-0.4l0,0c-0.2-0.2-0.4-0.3-0.5-0.5l-0.2-0.1l-0.2-0.1
	c-6.1-1.9-13.3-3.6-21.5-5.2l-1.2-0.2V67v20.7v2.5l1.7-1.9c4.2-4.5,7.6-7.3,11-9.4C303.7,76.8,307,75.5,311.2,74z"/>
<path class="st1" d="M48.4,74.2c1.1,0.4,2.1,0.8,3.1,1.2l0,0l0.8,0.3l0,0c0.3,0.1,0.5,0.2,0.7,0.3l0,0l0,0c0.1,0,0.2,0.1,0.3,0.1
	c0.2,0.1,0.3,0.1,0.5,0.2c0.3,0.1,0.6,0.3,0.9,0.4c0.1,0.1,0.2,0.1,0.3,0.2c0.4,0.2,0.7,0.4,1,0.5l0,0l0,0c0.3,0.1,0.5,0.3,0.8,0.4
	l0,0l0,0c0.8,0.4,1.6,0.9,2.4,1.4c0.5,0.3,1,0.6,1.5,1l0,0l0,0c0.3,0.2,0.5,0.4,0.8,0.6l0,0l0,0c0.3,0.2,0.5,0.4,0.8,0.6l0,0l0,0
	c0.4,0.3,0.8,0.6,1.2,1c0.1,0.1,0.2,0.2,0.4,0.3c0.3,0.2,0.5,0.5,0.8,0.7l0,0c1.1,1,2.3,2.1,3.5,3.3l0,0l0,0
	c0.3,0.3,0.6,0.6,0.9,0.9l0,0l0,0c0,0,0.1,0.1,0.1,0.1c0.1,0.1,0.3,0.3,0.5,0.5l1.7,1.6v-2.3V67v-1.2L70.4,66
	c-8.2,1.6-15.4,3.3-21.5,5.2l-0.2,0.1l-0.2,0.2c-0.2,0.1-0.3,0.3-0.5,0.4l-0.8-0.3V73v0"/>
<g>
	<linearGradient id="SVGID_1_" gradientUnits="userSpaceOnUse" x1="313" y1="36.7099" x2="46.0002" y2="36.7099">
		<stop  offset="0" style="stop-color:#FFD25E"/>
		<stop  offset="0.5104" style="stop-color:#FFF0A4"/>
		<stop  offset="1" style="stop-color:#FFDC5E"/>
	</linearGradient>
	<path class="st2" d="M306.1,70.1c0.7,0.2,1.5,0.4,2.2,0.6l0,0l0,0c0.8,0.2,1.5,0.4,2.2,0.7l0.2,0.1h0c0.5,0.2,1.1,0.3,1.6,0.5
		l1.3,0.4V71V16.9v-0.7l-0.7-0.2C285.9,6.7,235.1,1,179.5,1C123.9,1,73.1,6.7,46.1,15.9l-0.7,0.2v0.7v14.8V71v1.4l1.3-0.4
		c0.5-0.2,1.1-0.4,1.7-0.5l0,0l0,0c0.6-0.2,1.3-0.4,2-0.6l0,0l0.1,0c0.7-0.2,1.5-0.4,2.2-0.6l0,0c5.3-1.5,11.3-2.9,17.9-4.1l0,0
		c0.2,0,0.3-0.1,0.5-0.1l0,0c0.2,0,0.3-0.1,0.5-0.1c0.1,0,0.3-0.1,0.5-0.1l0,0c0.2,0,0.3-0.1,0.5-0.1c28.2-5.2,66.3-8.3,106.8-8.3
		c40.6,0,78.7,3,106.9,8.3l1,0.2l0,0l0,0c0.3,0,0.5,0.1,0.8,0.2c0,0,0.1,0,0.1,0l0,0C294.8,67.2,300.8,68.6,306.1,70.1"/>
	
		<linearGradient id="SVGID_00000153678262704747475720000000175804186563580309_" gradientUnits="userSpaceOnUse" x1="50.508" y1="71.6141" x2="45.4252" y2="71.6141">
		<stop  offset="0" style="stop-color:#FFD25E"/>
		<stop  offset="0.5104" style="stop-color:#FFF0A4"/>
		<stop  offset="1" style="stop-color:#FFDC5E"/>
	</linearGradient>
	<polyline style="fill:url(#SVGID_00000153678262704747475720000000175804186563580309_);stroke:#121212;stroke-width:2;" points="
		50.5,70.8 50.5,70.8 50.5,70.8 45.4,72.4 	"/>
	
		<linearGradient id="SVGID_00000077324371887952727630000007971250956430231991_" gradientUnits="userSpaceOnUse" x1="313" y1="71.6141" x2="46.0002" y2="71.6141">
		<stop  offset="0" style="stop-color:#FFD25E"/>
		<stop  offset="0.5104" style="stop-color:#FFF0A4"/>
		<stop  offset="1" style="stop-color:#FFDC5E"/>
	</linearGradient>
	<path style="fill:url(#SVGID_00000077324371887952727630000007971250956430231991_);stroke:#121212;stroke-width:2;" d="M48.5,71.4
		L48.5,71.4L48.5,71.4c-0.6,0.2-1.2,0.4-1.7,0.6l-1.3,0.4l5.1-1.6C49.8,71,49.1,71.2,48.5,71.4z"/>
	
		<linearGradient id="SVGID_00000061471127648331623430000007005982929203735688_" gradientUnits="userSpaceOnUse" x1="50.4818" y1="71.6141" x2="45.4251" y2="71.6141">
		<stop  offset="0" style="stop-color:#FFD25E"/>
		<stop  offset="0.5104" style="stop-color:#FFF0A4"/>
		<stop  offset="1" style="stop-color:#FFDC5E"/>
	</linearGradient>
	<path style="fill:url(#SVGID_00000061471127648331623430000007005982929203735688_);" d="M48.5,71.4L48.5,71.4L48.5,71.4
		c-0.6,0.2-1.2,0.4-1.7,0.6l-1.3,0.4l5.1-1.6C49.8,71,49.1,71.2,48.5,71.4z"/>
	
		<linearGradient id="SVGID_00000171701156141389949120000007783649188806284167_" gradientUnits="userSpaceOnUse" x1="313" y1="70.8084" x2="103.0391" y2="70.8084">
		<stop  offset="0" style="stop-color:#FFD25E"/>
		<stop  offset="0.5104" style="stop-color:#FFF0A4"/>
		<stop  offset="1" style="stop-color:#FFDC5E"/>
	</linearGradient>
	<polygon style="fill:url(#SVGID_00000171701156141389949120000007783649188806284167_);stroke:#121212;stroke-width:2;" points="
		50.5,70.8 50.5,70.8 50.5,70.8 	"/>
	
		<linearGradient id="SVGID_00000037656689199181149620000008849437437162196885_" gradientUnits="userSpaceOnUse" x1="305.5275" y1="25.0816" x2="95.5666" y2="25.0816" gradientTransform="matrix(1 0 0 -1 0 95.89)">
		<stop  offset="0" style="stop-color:#FFD25E"/>
		<stop  offset="0.5104" style="stop-color:#FFF0A4"/>
		<stop  offset="1" style="stop-color:#FFDC5E"/>
	</linearGradient>
	<polygon style="fill:url(#SVGID_00000037656689199181149620000008849437437162196885_);" points="50.5,70.8 50.5,70.8 50.5,70.8 	
		"/>
</g>
<path class="st8" d="M109.6,40.9l-2.3,7.1h-1.9l3.2-8.5h1.2L109.6,40.9z M111.5,48l-2.3-7.1l-0.2-1.5h1.2l3.2,8.5H111.5z
	 M111.4,44.8v1.4h-4.5v-1.4H111.4z"/>
<path class="st8" d="M123.6,39.5V48h-1.8l-3.4-5.7V48h-1.8v-8.5h1.8l3.4,5.7v-5.7H123.6z"/>
<path class="st8" d="M129.4,39.5V48h-1.8v-8.5H129.4z"/>
<path class="st8" d="M134.2,39.5h1.5l2.2,6.3l2.2-6.3h1.5l-3.1,8.5h-1.2L134.2,39.5z M133.4,39.5h1.5l0.3,6.1V48h-1.8V39.5z
	 M140.9,39.5h1.5V48h-1.8v-2.4L140.9,39.5z"/>
<path class="st8" d="M149.9,40.9l-2.3,7.1h-1.9l3.2-8.5h1.2L149.9,40.9z M151.8,48l-2.3-7.1l-0.2-1.5h1.2l3.2,8.5H151.8z
	 M151.7,44.8v1.4h-4.5v-1.4H151.7z"/>
<path class="st8" d="M162.4,46.6V48h-4.3v-1.4H162.4z M158.6,39.5V48h-1.8v-8.5H158.6z"/>
<path class="st8" d="M173.2,46.6l1.7-7.2h0.9l0.2,1.2l-1.8,7.3h-1L173.2,46.6z M172.3,39.5l1.4,7.2l-0.1,1.4h-1.1l-1.9-8.5H172.3z
	 M177.6,46.6l1.4-7.1h1.7l-1.9,8.5h-1.1L177.6,46.6z M176.4,39.5l1.7,7.2l0,1.3h-1l-1.8-7.3l0.2-1.2H176.4z"/>
<path class="st8" d="M189.8,42.9v1.4h-4.5v-1.4H189.8z M185.8,39.5V48h-1.8v-8.5H185.8z M191,39.5V48h-1.8v-8.5H191z"/>
<path class="st8" d="M196.8,39.5V48h-1.8v-8.5H196.8z"/>
<path class="st8" d="M205.3,45.8c0-0.2,0-0.3-0.1-0.4c0-0.1-0.1-0.2-0.2-0.3c-0.1-0.1-0.3-0.2-0.5-0.3c-0.2-0.1-0.5-0.2-0.8-0.3
	c-0.4-0.1-0.8-0.3-1.1-0.4c-0.3-0.2-0.6-0.3-0.9-0.5c-0.3-0.2-0.5-0.5-0.6-0.7c-0.1-0.3-0.2-0.6-0.2-1c0-0.4,0.1-0.7,0.2-1
	c0.2-0.3,0.4-0.5,0.7-0.8c0.3-0.2,0.6-0.4,1-0.5c0.4-0.1,0.8-0.2,1.3-0.2c0.6,0,1.2,0.1,1.6,0.3c0.5,0.2,0.8,0.5,1.1,0.9
	c0.3,0.4,0.4,0.8,0.4,1.4h-1.7c0-0.2-0.1-0.5-0.2-0.7c-0.1-0.2-0.3-0.3-0.5-0.5c-0.2-0.1-0.5-0.2-0.8-0.2c-0.3,0-0.6,0-0.8,0.1
	c-0.2,0.1-0.4,0.2-0.5,0.4c-0.1,0.2-0.2,0.3-0.2,0.5c0,0.1,0,0.3,0.1,0.4c0.1,0.1,0.2,0.2,0.3,0.3c0.1,0.1,0.3,0.2,0.5,0.3
	c0.2,0.1,0.5,0.2,0.7,0.3c0.5,0.1,0.9,0.3,1.2,0.5c0.4,0.2,0.7,0.4,0.9,0.6c0.2,0.2,0.4,0.5,0.5,0.7s0.2,0.6,0.2,0.9
	c0,0.4-0.1,0.7-0.2,1c-0.1,0.3-0.4,0.5-0.6,0.7c-0.3,0.2-0.6,0.4-1,0.5s-0.8,0.2-1.3,0.2c-0.4,0-0.8-0.1-1.2-0.2
	c-0.4-0.1-0.8-0.3-1.1-0.5c-0.3-0.2-0.6-0.5-0.8-0.9c-0.2-0.4-0.3-0.8-0.3-1.2h1.8c0,0.3,0,0.5,0.1,0.7c0.1,0.2,0.2,0.3,0.3,0.4
	c0.2,0.1,0.3,0.2,0.5,0.2c0.2,0.1,0.4,0.1,0.7,0.1c0.3,0,0.6,0,0.8-0.1c0.2-0.1,0.3-0.2,0.4-0.4C205.2,46.1,205.3,46,205.3,45.8z"/>
<path class="st8" d="M214,45h-2.2v-1.4h2.2c0.3,0,0.6-0.1,0.8-0.2c0.2-0.1,0.4-0.3,0.5-0.5c0.1-0.2,0.1-0.4,0.1-0.7
	c0-0.3,0-0.5-0.1-0.7c-0.1-0.2-0.3-0.4-0.5-0.5c-0.2-0.1-0.5-0.2-0.8-0.2h-1.6V48h-1.8v-8.5h3.3c0.7,0,1.2,0.1,1.7,0.4
	c0.5,0.2,0.8,0.6,1.1,1c0.3,0.4,0.4,0.9,0.4,1.4c0,0.6-0.1,1-0.4,1.4c-0.3,0.4-0.6,0.7-1.1,0.9C215.2,44.8,214.6,45,214,45z"/>
<path class="st8" d="M226.5,46.6V48H222v-1.4H226.5z M222.5,39.5V48h-1.8v-8.5H222.5z M225.9,42.9v1.3H222v-1.3H225.9z M226.5,39.5
	v1.4H222v-1.4H226.5z"/>
<path class="st8" d="M229.9,39.5h3.2c0.7,0,1.2,0.1,1.7,0.3c0.5,0.2,0.8,0.5,1.1,0.9c0.3,0.4,0.4,0.9,0.4,1.4c0,0.5-0.1,0.8-0.2,1.2
	c-0.2,0.3-0.4,0.6-0.7,0.8c-0.3,0.2-0.6,0.4-1,0.5l-0.6,0.3h-2.8l0-1.4h2.1c0.3,0,0.6-0.1,0.8-0.2c0.2-0.1,0.4-0.3,0.5-0.5
	c0.1-0.2,0.2-0.4,0.2-0.7c0-0.3-0.1-0.5-0.2-0.7c-0.1-0.2-0.3-0.4-0.5-0.5c-0.2-0.1-0.5-0.2-0.8-0.2h-1.4V48h-1.8V39.5z M234.7,48
	l-1.9-3.8l1.9,0l2,3.7V48H234.7z"/>
<path class="st8" d="M245.7,46.6V48h-4.5v-1.4H245.7z M241.8,39.5V48H240v-8.5H241.8z M245.1,42.9v1.3h-3.9v-1.3H245.1z M245.7,39.5
	v1.4h-4.5v-1.4H245.7z"/>
<path class="st8" d="M249.2,39.5h3.2c0.7,0,1.2,0.1,1.7,0.3c0.5,0.2,0.8,0.5,1.1,0.9c0.3,0.4,0.4,0.9,0.4,1.4c0,0.5-0.1,0.8-0.2,1.2
	c-0.2,0.3-0.4,0.6-0.6,0.8c-0.3,0.2-0.6,0.4-1,0.5l-0.6,0.3h-2.8l0-1.4h2.1c0.3,0,0.6-0.1,0.8-0.2c0.2-0.1,0.4-0.3,0.5-0.5
	c0.1-0.2,0.2-0.4,0.2-0.7c0-0.3-0.1-0.5-0.2-0.7c-0.1-0.2-0.3-0.4-0.5-0.5c-0.2-0.1-0.5-0.2-0.8-0.2h-1.4V48h-1.8V39.5z M253.9,48
	l-1.9-3.8l1.9,0l2,3.7V48H253.9z"/>
<path class="st8" d="M129.8,12v2.6h2.4V12H129.8z M125.8,15.9v2.3h2.1v-2.3H125.8z M131.8,15.9v4h2.2v-4H131.8z M122.3,13.3v3.2h2.1
	v-1.3h13v1.3h2.3v-3.2H122.3z M122.4,16.9v1.6h8.8v-1.6H122.4z M132.4,16.9v1.5h7.1v-1.5H132.4z M133.2,23.3v1.2h5.7v-1.2H133.2z
	 M133.2,25.1v1.2h5.6v-1.2H133.2z M133.2,26.9v1.2h6.1v-1.2H133.2z M124.1,24.6v1.3h5.4v-1.3H124.1z M124.1,26.7V28h5.4v-1.3H124.1z
	 M122,19.9v1.7h9.4v-1.7H122z M123.5,18.6c0.2,0.6,0.4,1.4,0.5,1.9l2-0.4c-0.1-0.5-0.3-1.3-0.6-1.8L123.5,18.6z M128.1,18.2
	c-0.1,0.6-0.4,1.4-0.6,1.9l1.8,0.4c0.2-0.5,0.5-1.1,0.8-1.9L128.1,18.2z M123.1,22.3v8.5h2.1v-6.9h4.2v-1.6H123.1z M128.5,22.3v6.6
	c0,0.2-0.1,0.3-0.3,0.3c-0.2,0-0.9,0-1.5,0c0.2,0.5,0.5,1.1,0.6,1.6c1.1,0,2,0,2.6-0.2c0.6-0.3,0.8-0.7,0.8-1.6v-6.6H128.5z
	 M131.8,21.3v1.4h7.5v-3.6h-7.5v1.4h5.3v0.8H131.8z M131.8,21.8v6.4c0,2,0.7,2.5,2.9,2.5c0.5,0,2.7,0,3.2,0c1.7,0,2.3-0.5,2.5-2.4
	c-0.6-0.1-1.4-0.4-1.9-0.7c-0.1,1.1-0.2,1.3-0.9,1.3c-0.5,0-2.3,0-2.7,0c-0.9,0-1-0.1-1-0.8v-6.4H131.8z"/>
<path class="st8" d="M155.3,12c-0.6,3-1.7,5.8-3.3,7.6c0.5,0.3,1.4,1,1.8,1.3c1.6-2,2.9-5.2,3.7-8.5L155.3,12z M162,15.1v0.5
	c-0.3,8.5-0.7,11.6-1.3,12.3c-0.2,0.3-0.4,0.4-0.7,0.4c-0.4,0-1.1,0-1.8-0.1c0.4,0.7,0.6,1.7,0.7,2.4c0.9,0,1.7,0,2.3-0.1
	c0.7-0.1,1.1-0.4,1.6-1c0.8-1,1.1-4.3,1.5-13.3c0-0.3,0-1.1,0-1.1H162z M155.9,15.1l-1.1,2.2h8.2v-2.2H155.9z M157.3,15.9
	c-0.8,3.4-2.5,7.1-4.8,8.9c0.6,0.3,1.4,0.9,1.8,1.4c2.2-2,3.9-6,4.7-9.4L157.3,15.9z M160.1,16.1c-0.9,5.1-3,10.4-6.5,12.9
	c0.7,0.3,1.5,0.9,2,1.4c3.3-2.8,5.4-8.2,6.4-13.4L160.1,16.1z M145.5,22.9l0.6,2.3c2.1-0.6,4.9-1.4,7.4-2.2l-0.3-2.1
	C150.4,21.7,147.5,22.5,145.5,22.9z M149.1,12v18.8h2.2V12H149.1z M146.5,13.2c-0.2,2.4-0.5,4.9-1.2,6.5c0.5,0.2,1.3,0.8,1.7,1.1
	c0.7-1.8,1.2-4.6,1.5-7.2L146.5,13.2z M147,15.9l-0.4,2.3h6.4v-2.3H147z"/>
<path class="st8" d="M175.7,13.3V15h12.1v-1.7H175.7z M174.9,18.2v1.9h13.5v-1.9H174.9z M174.8,25.9v1.9h13.6v-1.9H174.8z M176,15.8
	v1.6h11.4v-1.6H176z M177.6,23.4V25h7.8v-1.6H177.6z M178.1,12v7.2h2.3V12H178.1z M182.8,12v7.2h2.3V12H182.8z M180.5,19.5v7.3h2.2
	v-7.3H180.5z M184.9,20.8v7.7c0,0.3-0.1,0.3-0.4,0.4c-0.3,0-1.3,0-2.1,0c0.3,0.5,0.6,1.3,0.8,1.9c1.4,0,2.4,0,3.1-0.3
	c0.7-0.3,0.9-0.8,0.9-1.8v-7.8H184.9z M176.3,20.8v9.9h2.2v-8.2h7.1v-1.7H176.3z M170.6,13.9c1.2,0.5,2.7,1.4,3.4,2.1l1.4-2
	c-0.8-0.7-2.3-1.5-3.5-1.9L170.6,13.9z M169.6,19.3c1.2,0.5,2.7,1.4,3.4,2l1.4-2c-0.8-0.6-2.3-1.4-3.5-1.8L169.6,19.3z M170.1,29.2
	l2.2,1.4c1-2,2.1-4.3,3-6.5l-1.9-1.4C172.3,25.1,171,27.6,170.1,29.2z"/>
<path class="st8" d="M198.5,19.8h-4.8V22h2.6v5.1h2.3V19.8z M198.5,26.2h-2.1c-1,0.7-2.1,1.5-3,2l1.1,2.4c1.1-0.8,2.1-1.6,3-2.4
	c1.2,1.5,2.8,2.1,5.2,2.2c2.5,0.1,6.7,0.1,9.2,0c0.1-0.7,0.5-1.8,0.7-2.3c-2.8,0.2-7.5,0.3-9.9,0.2
	C200.7,28.1,199.3,27.6,198.5,26.2z M193.9,14c1.2,0.9,2.7,2.3,3.4,3.3l1.8-1.7c-0.7-1-2.3-2.3-3.5-3.1L193.9,14z M202,15.9
	c1.8,0.7,4.3,1.9,5.5,2.6l1.6-1.4c-1.4-0.8-3.9-1.9-5.7-2.5L202,15.9z M200.2,17v10.4h2.3v-8.6h7.9V17H200.2z M209.3,17v8.3
	c0,0.2-0.1,0.3-0.3,0.3c-0.2,0-0.9,0-1.5,0c0.3,0.5,0.5,1.3,0.6,1.9c1.2,0,2.1,0,2.7-0.3c0.7-0.3,0.8-0.8,0.8-1.8V17H209.3z
	 M200.4,12.7v1.8h9.5v-1.8H200.4z M201.5,19.9v1.7h8.6v-1.7H201.5z M201.5,22.7v1.7h8.6v-1.7H201.5z M204.8,17.9v9.5h2.1v-9.5H204.8
	z M209.1,12.7v0.4c-0.8,0.9-2.5,2.2-4,2.9c0.3,0.3,0.9,0.9,1.2,1.3c1.8-0.9,3.8-2.3,5.2-3.6l-1.4-1.2l-0.5,0.1H209.1z"/>
<path class="st8" d="M219.3,15v2h3.4v2h-3.4v2h5.5V15H219.3z M219.4,22.4v2h3.5v2.4h-3.5v2h5.6v-6.5H219.4z M218.4,15v15.1h2.1V15
	H218.4z M225.3,12.9v2.2h10.9v-2.2H225.3z M220.7,12c-0.1,1-0.4,2.5-0.7,3.5l1.9,0.4c0.5-0.9,1-2.3,1.5-3.6L220.7,12z M229.7,14
	v16.8h2.3V14H229.7z M226,16.9v10.8h2.2v-8.6h6.5v-2.1H226z M233.5,16.9v8.6c0,0.2-0.1,0.3-0.2,0.3c-0.2,0-0.7,0-1.2,0
	c0.3,0.6,0.6,1.5,0.6,2.1c1,0,1.7,0,2.3-0.4c0.6-0.4,0.7-0.9,0.7-1.9v-8.7H233.5z"/>
</svg>
