<svg width="248" height="205" viewBox="0 0 248 205" fill="none" xmlns="http://www.w3.org/2000/svg">
<path d="M0 172.198C4.522 169.297 9.84199 167.437 15.7096 169.565C25.1761 173.049 33.5786 168.021 37.8502 159.823C28.2429 167.768 15.6314 167.264 6.44658 159.003C41.9654 163.969 39.1333 116.991 71.5383 116.864C64.2312 112.23 53.732 96.4493 46.5813 109.597C47.3167 89.7809 78.0632 112.734 85.4486 99.8072C89.11 93.6905 94.9464 90.0489 100.939 86.6753C106.948 75.7189 100.72 55.4771 100.845 42.6132C95.9478 22.7499 69.426 42.7709 55.9226 28.3148C48.4433 22.4346 41.0109 16.4756 32.8432 9.98055C48.3807 11.5728 63.5583 18.7299 77.5155 8.46715C107.714 -13.1934 137.053 11.3994 161.243 29.8282C170.741 36.9222 180.301 42.8812 193.1 40.3431C207.37 37.5213 221.828 35.7084 236.13 32.9968C245.894 31.1524 248.913 33.4225 247.771 43.2438C245.534 70.8476 218.151 85.1934 197.435 98.278C185.684 96.6069 184.401 110.622 191.27 115.603C190.253 117.18 188.625 118.315 186.826 118.835C186.81 118.945 187.17 120.333 187.139 120.443C189.251 120.758 187.139 123.501 185.371 123.486C185.292 123.722 184.698 123.281 184.604 123.517C187.092 124.936 183.743 126.434 182.116 126.607C178.314 127.08 176.561 133.275 173.025 135.12C167.33 138.099 162.135 136.87 156.345 135.877C151.542 135.057 147.082 139.597 146.363 144.452C145.173 152.382 150.54 158.814 154.39 165.041C158.599 171.851 161.712 179.718 161.04 187.868C158.176 196.05 152.027 201.126 144.391 204.279C138.461 205.067 132.468 205.209 126.491 204.705C115.726 202.608 103.896 199.455 94.8994 192.881C82.7729 184.022 70.9281 169.849 56.4702 186.812C59.5683 183.17 64.106 180.585 62.8542 174.137C52.4333 184.983 36.5359 190.627 21.9685 187.285C30.1519 186.323 38.3353 185.44 44.8914 179.576C29.6199 181.515 15.2246 173.916 0.0156403 172.119L0 172.198ZM118.495 139.439C128.681 140.417 124.285 120.017 122.689 115.304C123.377 117.322 120.482 123.927 120.044 126.229C119.324 129.996 118.495 134.048 118.464 137.926C118.464 138.43 118.464 138.935 118.495 139.439Z" fill="#FCFEB1"/>
<path fill-rule="evenodd" clip-rule="evenodd" d="M3.30235 172.594C2.24068 172.415 1.17558 172.258 0.106476 172.13C0.103592 172.132 0.100708 172.134 0.0978241 172.136C0.0674591 172.155 0.0371399 172.174 0.0068512 172.194C0.00456238 172.195 0.00228882 172.197 0 172.198L0.0156403 172.119C0.0459137 172.123 0.0762024 172.126 0.106476 172.13C1.03551 171.539 1.99796 170.993 2.99167 170.517C6.81012 168.687 11.0902 167.89 15.7096 169.565C23.2898 172.355 30.1878 169.687 34.829 164.304C35.9839 162.964 36.9991 161.456 37.8502 159.823C36.4745 160.961 35.0371 161.925 33.557 162.718C25.7651 166.895 16.7892 166.325 9.38458 161.307C8.37363 160.622 7.39195 159.853 6.44658 159.003C7.69626 159.178 8.89845 159.288 10.0564 159.339C26.1237 160.038 33.6675 149.186 41.2504 138.277C48.1283 128.383 55.0382 118.443 68.3697 117.034C69.3875 116.927 70.4428 116.869 71.5383 116.864C70.7286 116.351 69.8797 115.7 69.0005 114.968C67.9624 114.102 66.8821 113.122 65.7741 112.117C60.3731 107.218 54.3164 101.724 49.3013 106.034C48.3536 106.848 47.4431 108.012 46.5813 109.597C46.6558 107.588 47.0387 106.019 47.6743 104.808C50.4309 99.5526 57.9419 101.022 65.673 102.535C73.7457 104.115 82.0584 105.741 85.4486 99.8072C89.11 93.6905 94.9464 90.0489 100.939 86.6753C104.973 79.3193 103.492 67.778 102.12 57.094C101.449 51.8646 100.804 46.8405 100.845 42.6132C98.2361 32.0308 89.4891 32.7689 79.843 33.583C71.3832 34.2969 62.2319 35.0692 55.9226 28.3148C50.6981 24.2073 45.4965 20.0613 40.0511 15.7211C38.6679 14.6186 37.2689 13.5035 35.8498 12.3734C34.8579 11.5834 33.8562 10.7861 32.8432 9.98055C34.1234 10.1117 35.4011 10.2807 36.676 10.4746C39.2212 10.8617 41.7547 11.3482 44.2728 11.8316C55.8008 14.045 67.0043 16.1961 77.5155 8.46715C106.349 -12.2143 134.399 9.2707 157.932 27.2963C159.046 28.1496 160.15 28.9952 161.243 29.8282C170.741 36.9222 180.301 42.8812 193.1 40.3431C200.655 38.8493 208.262 37.6382 215.87 36.4268C222.634 35.35 229.399 34.2729 236.13 32.9968C245.894 31.1524 248.913 33.4225 247.771 43.2438C245.736 68.3517 222.898 82.4907 203.194 94.6888C201.236 95.9014 199.308 97.0949 197.435 98.278C185.684 96.6069 184.401 110.622 191.27 115.603C191.129 115.821 190.978 116.029 190.816 116.229C190.555 116.55 190.268 116.848 189.959 117.122C189.299 117.706 188.538 118.178 187.721 118.519C187.618 118.563 187.513 118.604 187.407 118.643C187.216 118.714 187.022 118.778 186.826 118.835C186.819 118.886 186.891 119.206 186.968 119.548C187.054 119.931 187.146 120.342 187.14 120.432C187.14 120.436 187.14 120.44 187.139 120.443C187.195 120.451 187.249 120.462 187.3 120.473C187.404 120.498 187.497 120.53 187.577 120.567C187.631 120.593 187.679 120.621 187.723 120.651C188.404 121.13 187.834 122.223 186.92 122.903C186.453 123.251 185.897 123.49 185.371 123.486C185.332 123.603 185.165 123.553 184.996 123.502C184.841 123.455 184.684 123.408 184.621 123.488C184.614 123.496 184.608 123.506 184.604 123.517C184.986 123.735 185.23 123.955 185.365 124.171C185.552 124.473 185.524 124.769 185.357 125.044C185.278 125.174 185.168 125.299 185.035 125.419C184.992 125.457 184.948 125.494 184.901 125.531C184.171 126.104 182.929 126.52 182.116 126.607C180 126.87 178.518 128.906 177.011 130.978C175.81 132.629 174.593 134.302 173.025 135.12C167.748 137.88 162.901 137.028 157.613 136.098C157.194 136.024 156.771 135.95 156.345 135.877C151.542 135.057 147.082 139.597 146.363 144.452C145.358 151.151 149.032 156.781 152.518 162.122C153.158 163.103 153.792 164.075 154.39 165.041C158.599 171.851 161.712 179.718 161.04 187.868C158.176 196.05 152.027 201.126 144.391 204.279C138.461 205.067 132.468 205.209 126.491 204.705C115.726 202.608 103.896 199.455 94.8994 192.881C93.1668 191.615 91.4399 190.241 89.7103 188.865C81.5733 182.389 73.3766 175.865 64.241 180.365C62.6106 181.168 60.9503 182.323 59.2551 183.891C59.0054 184.148 58.7523 184.403 58.499 184.659C57.8185 185.345 57.1362 186.034 56.5108 186.764C57.436 185.682 58.3505 184.728 59.2551 183.891C60.6772 182.427 61.9927 180.904 62.6425 178.942C62.8638 178.274 63.0079 177.555 63.0526 176.77C63.0983 175.967 63.0401 175.094 62.8542 174.137C62.2728 174.742 61.6743 175.331 61.06 175.903C52.6307 183.753 41.2145 188.43 29.865 188.237C27.2162 188.192 24.5711 187.882 21.9685 187.285L22.337 187.242C24.8082 186.952 27.2773 186.662 29.6993 186.233C34.0071 185.47 38.1661 184.267 41.924 181.84C42.9444 181.181 43.9352 180.431 44.8914 179.576C43.6842 179.729 42.4825 179.823 41.2854 179.865C33.1114 180.149 25.1538 178.008 17.1468 175.854C12.5648 174.621 7.96654 173.384 3.30235 172.594ZM6.73666 171.21C9.37241 170.454 12.1333 170.397 15.022 171.444C25.6904 175.368 35.0277 169.568 39.6239 160.747L36.5756 158.282C29.5819 164.066 20.9007 164.987 13.3812 161.319C19.2881 160.986 24.0958 159.071 28.2006 156.164C33.7568 152.229 37.9224 146.539 41.7997 140.989C42.123 140.526 42.4445 140.064 42.7648 139.604C50.3038 128.776 57.1658 118.92 71.5461 118.864L78.3835 118.838L72.6096 115.176C70.9921 114.15 69.15 112.479 67.0237 110.551L66.9052 110.443C64.8044 108.538 62.4652 106.429 60.0912 104.885C59.0649 104.218 57.9642 103.611 56.8126 103.173C58.6813 103.297 60.8101 103.641 63.1496 104.084C63.8301 104.212 64.5263 104.349 65.233 104.488C68.9033 105.207 72.8559 105.982 76.3509 106.004C80.5676 106.03 84.7954 104.963 87.1743 100.818C90.5382 95.2093 95.9323 91.789 101.92 88.4181L102.418 88.1378L102.693 87.6369C106.028 81.5556 105.876 73.1681 105.089 65.1639C104.815 62.3788 104.451 59.5446 104.099 56.8022C103.94 55.559 103.783 54.3346 103.637 53.1423C103.166 49.2713 102.815 45.7069 102.845 42.6327L102.848 42.3799L102.787 42.1345C102.115 39.4089 101.039 37.2378 99.5618 35.5649C98.0773 33.8839 96.2729 32.8032 94.2981 32.137C90.4635 30.8436 85.8595 31.0896 81.4515 31.4427C80.8518 31.4907 80.2535 31.541 79.6569 31.5912C75.7064 31.9233 71.8318 32.2491 68.1577 31.8651C64.0102 31.4317 60.333 30.1065 57.3841 26.9495L57.2794 26.8374L57.1587 26.7425C51.9395 22.6392 46.746 18.4997 41.3031 14.1614C40.8376 13.7904 40.3702 13.4179 39.9009 13.0438C41.2397 13.2858 42.5837 13.5439 43.9361 13.8035L44.0383 13.8231C47.8486 14.5547 51.7324 15.2974 55.5842 15.6606C63.3441 16.3924 71.1792 15.6043 78.6903 10.0858C93.0952 -0.241783 107.217 0.414043 120.879 5.96697C133.47 11.0841 145.486 20.2859 156.74 28.9033C157.844 29.749 158.941 30.5891 160.031 31.4191L160.038 31.4248L160.046 31.4305C169.572 38.5453 179.768 45.0258 193.489 42.3049C200.583 40.9023 207.73 39.7489 214.918 38.6037C215.342 38.5361 215.767 38.4685 216.192 38.4008C222.949 37.3251 229.741 36.2438 236.501 34.9621C238.875 34.5137 240.704 34.3435 242.098 34.4344C243.483 34.5248 244.266 34.8609 244.742 35.2667C245.201 35.6591 245.616 36.3243 245.837 37.5861C246.064 38.8754 246.061 40.6388 245.785 43.0128L245.781 43.0475L245.778 43.0822C244.716 56.1854 237.7 66.2338 228.201 74.7136C220.386 81.6895 211.064 87.4625 202.197 92.953C200.43 94.0471 198.682 95.1299 196.967 96.2087C193.952 95.9213 191.397 96.5547 189.407 97.9369C187.269 99.4218 185.982 101.633 185.424 103.983C184.488 107.921 185.521 112.606 188.46 115.772C187.831 116.286 187.08 116.68 186.27 116.914L185.027 117.273L184.846 118.554C184.821 118.731 184.825 118.873 184.827 118.924C184.829 118.993 184.835 119.05 184.839 119.086C184.847 119.159 184.857 119.224 184.864 119.267C184.879 119.355 184.899 119.449 184.916 119.53C184.945 119.668 184.982 119.835 185.017 119.99L185.037 120.077C185.057 120.168 185.076 120.252 185.093 120.328L184.776 121.445C184.665 121.443 184.522 121.448 184.358 121.476L183.93 121.473L183.883 121.615C183.877 121.618 183.871 121.62 183.864 121.623C183.635 121.723 183.4 121.873 183.192 122.087C182.985 122.301 182.839 122.541 182.745 122.779L182.104 124.394L182.347 124.532C182.17 124.578 182.016 124.606 181.904 124.618L181.887 124.62L181.869 124.622C180.379 124.808 179.192 125.547 178.254 126.388C177.333 127.213 176.543 128.238 175.861 129.162C175.689 129.396 175.524 129.622 175.364 129.843C174.85 130.549 174.383 131.19 173.879 131.782C173.229 132.547 172.653 133.058 172.1 133.347L172.098 133.348C167.445 135.782 163.252 135.05 157.85 134.108C157.467 134.041 157.079 133.973 156.684 133.905L156.682 133.905C153.53 133.367 150.618 134.612 148.478 136.556C146.346 138.492 144.816 141.254 144.385 144.156C143.707 148.673 144.919 152.691 146.695 156.273C147.903 158.711 149.469 161.112 150.921 163.338C151.543 164.292 152.145 165.213 152.688 166.092C156.745 172.656 159.604 179.992 159.066 187.449C156.437 194.723 150.946 199.356 143.867 202.331C138.201 203.065 132.477 203.195 126.767 202.721C116.069 200.632 104.667 197.541 96.0793 191.266C94.345 189.999 92.704 188.692 91.0251 187.354C89.733 186.325 88.4184 185.278 87.0216 184.217C83.9465 181.882 80.7043 179.676 77.3061 178.308C73.8697 176.924 70.1968 176.367 66.3377 177.43C65.8729 177.558 65.409 177.709 64.9458 177.882C65.1334 176.649 65.1142 175.284 64.8176 173.756L64.0829 169.972L61.412 172.751C55.7074 178.689 48.3089 182.978 40.4441 184.979C42.4579 183.973 44.3991 182.7 46.2248 181.067L51.0142 176.782L44.6395 177.592C37.3945 178.512 30.2827 177.18 22.9224 175.31C21.2233 174.879 19.503 174.416 17.7648 173.948C14.1566 172.977 10.4712 171.985 6.73666 171.21ZM183.782 125.366C183.783 125.366 183.776 125.359 183.76 125.347C183.773 125.36 183.781 125.366 183.782 125.366ZM116.605 141.267L118.304 141.43C119.911 141.584 121.375 141.326 122.637 140.624C123.892 139.927 124.796 138.875 125.433 137.691C126.669 135.395 127.023 132.38 127.01 129.497C126.984 123.674 125.437 117.189 124.586 114.672C124.585 114.667 124.583 114.663 124.581 114.658L120.794 115.945C120.788 115.927 120.786 115.916 120.785 115.916C120.784 115.917 120.799 115.994 120.792 116.184C120.783 116.424 120.743 116.748 120.664 117.159C120.505 117.982 120.222 118.981 119.882 120.057C119.653 120.781 119.414 121.494 119.18 122.189C119.065 122.533 118.951 122.872 118.84 123.206C118.526 124.155 118.218 125.126 118.08 125.853C118.03 126.116 117.979 126.382 117.927 126.65C117.252 130.16 116.495 134.101 116.464 137.91L116.464 137.918V137.951C116.464 138.439 116.464 138.996 116.499 139.563L116.605 141.267ZM120.044 126.229C120.189 125.466 120.604 124.232 121.068 122.849C121.348 122.017 121.646 121.13 121.914 120.26C122.545 118.21 123.012 116.251 122.689 115.304C123.043 116.35 123.535 118.168 123.975 120.354C125.518 128.018 126.421 140.2 118.495 139.439C118.464 138.935 118.464 138.43 118.464 137.926C118.493 134.308 119.217 130.54 119.898 126.991C119.947 126.736 119.996 126.482 120.044 126.229Z" fill="#121212"/>
</svg>
