<svg width="1920" height="290" fill="none" xmlns="http://www.w3.org/2000/svg"><path d="M1784 39h-9l2-3 8-14 3-6-15 18-1 3 3-15-6 8-2 6-1 3h-5l3-7 9-18 3-7c-6 7-12 14-16 22l-2 4v-1-2c4-7 9-12 15-18l-2 1-8 7-3 3 2-7-3 4 5-7h-1c-7 6-12 14-14 23l-1 4h-3l3-4c3-7 4-13 4-20l-1 1c-2 6-3 12-6 17l-4 7 2-12c4-9 10-18 18-25-1 0-3 0-2 1l-3 2-7 3-4 3 5-9h-1l-10 13-5 4c2-4 2-8 3-13h-2l-7 21-3 7-1 2 1-9 3-9c2-4 2-7 5-9v-1l-5 5-2 4v-1h-1l-1 4-3 6-4 12h-2l1-6 1-9 6-5-5 2-1 1 2-10 1-1 11-8-7 3-3 2V7l2-4-8 10-6 6-5-6 3-5-4 4-4-1 2 2-2 5-3-3-3-1c0-3 1-7 3-9l1-5c-3 4-7 8-8 13h-2 1l-3 8c-1-4-4-8-7-10l-5-1c5 4 8 10 9 15v2h-1l-2-4c-2-4-5-7-9-9l-7-2h-3c4 1 7 3 9 6l-9 10-3-4-4-3 3-5 3-6-9 9 5-6-2 1-5 5-3 2-3 3 3-7-4 4 5-7h-1c-6 6-11 14-13 23l-1 4h-13l1-5 5-14 1-5c-4 5-8 11-10 18l-1 2V24l-4 7v10h-5l1-8 5-17 2-6c-5 6-9 14-11 22l-1 3v-1-2c2-7 5-13 10-18-1 0-2 0-1 1l-7 7-2 3 1-7-2 4 3-7h-1c-5 6-9 14-9 23v4h-3l2-5V19h-1l-2 17-3 6-1-11c2-9 6-18 12-26l-2 1c1 1-1 1-2 2-1 2-4 3-6 4l-3 2 2-8h-1c-2 4-5 8-6 13l-4 4-1-13-2 1-2 20-2 7v2l-1-8 1-9c1-3 0-7 3-9-2 1-3 2-4 5l-1 3-1-1c0-1 0 0 0 0l-1 4-1 6-1 11h-2v-5l-1-9 4-5-4 2v-9l1-1 8-8-6 4-2 1v-1l1-5-6 10-4 6-6-6 2-4-3 3h-3l2 2-1 4-3-1-4-2 1-9V5l-6 12h-1l1 1-1 7c-2-4-5-7-9-10l-4-1c5 4 9 9 12 15v2l-1-1h-1l-2-3c-2-4-6-6-11-8l-7-2h-2c3 2 7 3 9 6-2 3-5 6-6 10l-4-4v1l-4-3 1-5 2-6-3 4-1 1-5 4-3 3-2 3 1-7-2 4 2-7h-1c-4 7-7 14-7 23v1h-2l1-2V32l4-3-4 2v-6h-1l-1 8-2 2-3 3c2-9 6-18 11-25l-1 1-2 2-6 3-4 3 3-8h-1c-3 4-5 8-6 13l-4 4-1-12h-1l-2 11c-2 3-3 8-3 11v-1-1l1-9c0-3 0-7 2-9v-1l-3 5-1 4-1-2h-1v5l-1 4-2-1-3-1v-5c2-5 4-9 8-13l9-10-6 4-7 6-2 3v-1-5c-3 4-5 9-6 14l-2 3-1 1-3-4 1-4c0-3 0-9 2-11v-1l-4 5-2 8-1-1-5-1 5 4v3l-6-3 1-19 1-5c-5 6-7 14-8 22-2-4-6-6-9-9l-5-1c6 5 11 10 13 17l2 5-5-7c-3-4-7-7-11-9l-9-3h-2c9 4 17 12 21 21l-6-2 5 3-2 7h-3v-4l-1 4h-3l1-11v-5l-5 13-2-2-2-2v-3l-1 2-4-3 1-6v-6l-4 10h-1l3-6c-1 0-2 0-1 1l-4 4h-3l2 1v1l-2 3v-6l-2 4 2-8h-1c-4 6-5 13-4 20h-1l-4-16-1 1 1 16h-2l-1-4c0-9 2-17 6-25l-1 1-2 2-5 3-3 3 1-8h-1l-3 12-3 5-3-13-1 1 2 19v4h-1l-2-3-1-8c0-3-1-7 1-9l-3 4v4l-1-1v9l1 5h-3l-3-7 3-5-3 2v1l-2-9v-1h1l6-9-5 3-1 3v-2-4l-4 10-3 5-7-5c0-1 0-2 2-3v-1l-3 4-3-1 3 2-1 4-3-1-4-2v-8l-1-4c-2 3-3 8-3 11h-2l2 1v7c-3-3-6-7-11-9l-4-1c6 4 10 9 14 14l1 2-1-1-3-3c-3-3-7-6-11-7l-7-3h-3c4 1 7 4 10 6l-4 9-5-3v1l-4-3 1-4v-6l-4 10c0-2 1-4 3-5l-2 1-3 4-1 2-2 3v-6l-1 4 1-7h-1c-3 5-4 11-3 17h-2l-1-7 3-3-3 2-2-6-1 1 1 7-1 1-2 3c0-8 2-16 6-24l-1 1-2 2-5 4-2 2 1-7h-1l-4 12-2 4-4-11h-1l2 11c-1 3-2 7-1 10l-1-1-1-1-1-8c0-3-1-7 1-9-2 1-3 2-3 4l-1 4v-2h-1l1 4v4l-2-2h-3l-1-5c1-5 2-9 5-13l7-10-6 4-5 6-2 3v-1-4c-3 4-4 9-4 13l-1 3v1l-3-4-1-4c0-2-2-8 1-10v-1l-4 5v7l-1-1h-5l6 3v4l-6-3c-2-6-3-11-3-17l-1-5c-3 7-4 14-2 21h-2l-10-9-5-1c7 5 12 10 16 16l2 5-6-7c-4-4-8-7-13-9l-8-2h-3c7 3 14 7 19 13l-4 13h-2l-1-9-2 7-1-2-2-2 1-10v-6l-5 14-1-1 4-9-1 1-5 6v1l-1-1-1-3-1 3 1-6h-1l-2 5c-1 5-2 9-1 14l-10 1-9-15-1 1c2 5 5 9 6 15h-2l-3-4c-3-7-3-15-2-23l-1 1-1 2-4 3-1 3-2-8h-1v12l-1 4-7-11-1 1c3 5 6 11 8 18l1 4h-1l-2-3-4-8c-1-3-3-7-2-8l-1 4 1 4-1-1h-1l3 4 1 5 2 5h-2l-5-6v-1l2-5-3 2v1l-5-8v-2l3-8-4 4-1 2-1-2-2-4v10l-1 5-8-4v-4l-1 4-4-1 4 2 1 3-4-1-4-1c-2-2-3-5-3-8l-2-3 1 11h-1 2l3 7c-4-4-9-6-14-8l-4-1c7 3 13 7 18 12l1 2-1-1h-1l-4-2c-4-3-9-5-13-6l-8-2h-2c4 1 8 2 12 5l-1 9-5-3v-1l-5-2v-4l-2-6v9h-1l1-5-1 1-2 4v5l-3-6v4l-1-7h-1c-1 6 0 12 3 17h-1l-4-6 2-4-2 3-3-6-2 1 4 6-1 2-1 2c-3-7-3-15-2-22l-1 1-1 2-3 3-2 3-1-8h-1l1 12-1 4-7-11-1 1 4 10c0 4 1 7 3 10l3 2-1-1-4-8c-1-3-3-6-2-8v-1l-1 4 1 4-1-1 2 4 1 4-3-1h-2l-3-5V60l3-9-4 4-2 7-1 2-1-1-1-4c-1 5-1 9 1 13v3l-5-3-2-3c-1-3-3-8-2-11l-1 5 1 7-1-1h-5l6 3 1 3-6-2c-4-6-6-11-8-17l-3-4c0 6 1 13 5 19h-2l-12-7-5-1 9 6-2 2-6-3-8-2h-3l15 7-4 3h-2l2 1-1 1-2 3 1-7-2 4 2-6h-1c-3 5-5 11-5 17l-6 1-5-12-1 1 3 11h-3v-1c-2-7-3-15-1-23v1l-2 2-3 3-2 2-1-7h-1v11l-1 4-6-10h-1c2 6 5 11 6 18h-2l-3-8c-1-2-2-6-1-8l-2 5 1 3-2-1 2 5 1 4h-4l-1-1 2-5c0 2-1 2-2 3h-1l-4-8v-1l4-7-4 3-1 1-1-1-1-4v9l-2 5-7-4v-4l-1 4-4-1 3 2 1 3-4-1-3-1c-1-2-3-5-3-8l-2-3v11h-1 2l2 7-11-8-4-1 16 11h-2l-1-1-12-6-7-2h-2l11 5-2 5-4 1-5-2v-4l-1-6-2 9 1-6-1 2-1 3-1 2v2h-1l-2-5v4l-1-6h-1v7l-10 4 1-7v1l-2 1-3 3-1 2h-1l-1-6h-1l-1 6h-5l-1-2-1 1 1 1h-1l-2 4 1 3-1-1h-1l2 4 1 3-3-1h-2l-2-4 1-10v-1l3-8-3 3c-2 2-4 5-4 8v-1l-1-3v14l-5-3-1-3c0-2-3-6-1-9l-2 5 1 6-1-1-4-1 6 4v2l-6-2c-2-4-5-9-6-14l-1-4c-1 6-1 12 2 17h-2c-3-3-6-5-10-6l-5-1c7 3 13 8 18 13l3 4-6-5v-1l-13-7-8-1h-2l11 5v12l-1-1c-1-3 0-7 1-10l-1 1c1 1-2 5-3 6v2l-2-5-1 3v-5h-2v6l-4-1-2-2-1 1 5 11-2 1-3-3v-20 1l-1 2-4 2-1 2-1-6h-1v10l-1 3-5-9h-1l5 15 1 4h-2l-1-3-3-7c0-2-2-6-1-7v-1l-2 4 1 3-1-1 2 4 1 4 1 4-1 1-4-6 2-4-2 2-1 1-3-7v-1l3-6-3 2-1 2-1-1-1-3v8l-2 4-6-4v-3l-2 3h-2l2 1 1 3-3-1h-4l-2-7-1-3v9h-1l1 1 2 5-11-7h-3c5 2 10 6 14 10l1 1h-1l-3-2-11-6-7-1h-2l10 4-1 8-5-3-4-2-1-4-1-5-1 8 1-5-1 1-1 4-1 1-1 3-2-5v3l-1-6h-1c-1 6 0 12 2 17h-1l-3-8 2-3-3 2-2-4-1 1 2 5-1 2-1 2v-19 1l-1 1-4 3-1 2-1-6h-1v9l-1 4-6-9h-1l4 9c-1 3 0 6 1 8h-1v-1l-3-7c-1-2-2-5-1-7l-2 4 1 3-1-1 1 4 1 3-2-1-3-1-2-4 1-10 4-8-4 4-3 5-1 2v-1l-1-3v13l-4-3-1-3c-1-2-3-7-2-9l-1 4 1 5h-1l-4-1 5 3v2l-5-2c-3-4-4-9-6-13l-2-4c-1 6 0 12 2 16h-1l-10-6-4-1 17 13 2 3-5-4-1-1c-4-3-8-5-13-6l-7-2h-2-1v1l-1 1-3 3-3 2 1-6h-1l-2 10-3 3-2-10-1 1 1 15v5h-1l-1-5v-7-7l-2 4-1 3v-1h-1l1 4v10h-1l-1-2-2-6 3-4-3 1-1 1-1-7 1-1 5-6-4 2-1 1v-1-3c-2 2-2 5-3 8l-3 4-4-4 1-3v-1l-3 4-2-1 2 2-1 3-2-1-3-1-1-7v-3l-2 9h-1 1v5l-8-6-3-1c4 3 8 6 10 11l1 1h-1l-3-3c-2-3-5-5-8-6l-6-1h-2l8 4-4 7-3-2v-1l-3-2v-3-5l-3 7 2-4-1 1-2 3-2 2-1 2v-6l-1 4 1-6h-1l-2 7-2 1-1-4h-1v6l-2 1-2 2c2-7 4-13 9-19l-1 1-2 2-4 2-3 2c1-2 1-5 3-6h-2l-4 9-3 4-1-10-1 1v8c-2 3-3 5-3 9v-1-1-7c1-2 0-5 2-6v-1l-3 3-1 4v-1 3l-1 3-1-1h-3v-4l6-9v-1l6-7-5 3-5 5-2 2v-1-3l-4 10-1 2v1l-3-3v-4c0-2 0-6 2-8l-3 4-1 5h-1l-3-1 3 4-1 2-4-2 1-14v-4c-3 5-5 11-5 16h-1l-7-7-3-1 10 13 1 4-4-6c-2-3-5-5-9-7l-5-2h-2c4 2 9 5 12 10l-5 10h-2l1-7c-2 1-3 4-3 5l-1-1-1-2 2-7 1-5-5 10h-1l5-7h-1l-5 5v1l-1-1v-2l-1 2 2-5h-1l-2 4c-2 3-2 7-2 10h-2v-13l-1 1-1 12h-2l-1-3c1-7 4-14 7-20l-1 1-1 2-4 2-2 2 1-6h-1l-4 10-2 3-1-10-1 1-1 16v2h-2v-2l1-7c1-2 0-5 2-7l-3 4-1 3v10h-3l-2-5v-1l4-3-3 1-1 1v-8l1-1 5-6-4 3-2 1v-5l-3 8-3 5-4-5 1-3-2 3h-2l9 4-1 3-2-1-3-1 1-7v-3c-3 2-4 6-4 9l1 1-1 6c-1-4-3-6-6-8l-3-1 8 11 1 2h-1l-1-3c-2-3-5-5-8-6l-5-2h-2l8 5-5 8-3-3v-1l-2-2 1-4 1-4-4 6h-1l3-4-1 1-3 3-1 2-1 2v-6l-2 4 2-6h-1c-3 4-4 9-4 13h-1v-4l2-3-2 1-1-5-1 1v6l-1 1-2 2c1-6 4-13 7-19l-1 1-1 1-4 3-2 2 1-6h-1l-3 9-3 4-1-10-1 1v9l-1 7h-1v-1l1-6 1-7-3 3v6l-1 3-1-1-3-1-1-4 5-10 1-1 5-7-4 3-5 6-2 2v-1-4c-2 4-3 7-3 11l-1 2v1l-3-3v-3l1-9-2 4v6l-1-1h-3l4 3-1 3-4-3v-14-5c-3 6-4 12-4 17h-2l-6-8-3-2c4 4 8 9 9 14l1 4-3-6c-2-3-5-6-8-7l-5-3h-3c6 3 10 7 13 13l-1 2-1 5h-1v-6l-2 5v1h-1l2-6 1-3c-3 3-4 6-5 10l-1-2-1-1v-3l-1 2-3-3 1-5 1-4-1 3h-1l-3 4-1 1-1 2 1-5-2 3 2-5h-1l-4 14-2-11-1 1v10h-2v-2c1-7 3-13 6-19l-1 1-1 2-4 2-2 2 2-6h-1l-4 9-2 3-1-9h-1l-1 16v1h-1v-1l1-7 1-7-2 4-1 4v2l-1 4v3h-2l-1-4v-1l3-4-3 2v-8l5-6-4 2-1 1v-1-3l-4 7-3 5-4-5 1-3-2 3-2-1 1 2v3l-2-1-3-1v-7-3l-3 10h-1 1v6l-6-8h-3c4 4 7 7 9 12v1l-2-3c-2-3-4-5-7-6l-5-2h-2l7 5-4 7-3-3-2-2 1-4v-5l-4 8 2-4s-1 0 0 0l-3 3-1 2-1 3v-6l-1 3 2-5h-1c-3 5-4 10-4 15h-1v-6l2-4-3 2v-4h-1v6l-2 1-1 2c0-6 3-13 6-19l-1 1-1 2-4 2-2 2 1-6c0-1 0-1 0 0l-4 9-2 4-1-10-1 1v8c-2 3-2 6-2 9l-1-1v-1-7l1-7-2 3v2h-1v7l-2-1v-1l-1-4 5-10 6-8-5 4-4 4-1 3v-2-3c-2 3-3 7-3 10l-1 2v1l-3-3v-3c0-2 0-7 2-9l-3 4-1 5h-1l-3-1 4 3-1 3-4-3v-14-4c-2 6-4 11-3 17h-2c-1-3-3-5-6-7l-3-1c4 3 7 8 9 13l1 4-3-6v-1l-7-7-6-2h-1l7 5-5 12-1 1c1-3 2-6 5-9h-1l-4 5-1 2v-5l-1 3 2-5h-1l-2 5-3-1v-2h-1l-1 13h-2v-3c1-7 3-13 6-19l-1 1-1 2-3 2-2 1 1-6-3 9-3 4-1-10-1 1v15l-1 3h-1v-3-7l1-6-2 3-1 3v10h-2l-1-5 3-4-3 2v-7-1l5-5-4 2-1 1v-1-3c-2 2-3 5-3 7l-3 5-4-4 1-3v-1l-2 3-2-1 2 2-1 3-1-1-3-1v-6-4l-3 9h-1l1 1v5l-6-7-3-1c3 3 6 7 7 11l1 1h-1l-1-3c-2-3-4-5-7-6l-4-2h-2c3 1 5 3 6 5l-3 7-3-3-2-2 1-3v-5l-3 7 2-4v1l-3 3-1 1-1 2v-4l-1 3 2-5h-1c-2 3-4 8-4 12v-4l2-4-3 2-1-4c0-1 0 0 0 0v6l-1 1-1 2c0-7 2-13 4-19l-1 1c1 1 0 1-1 2l-3 2-2 1 1-5h-1l-2 10-2 3-2-9-1 1 1 8-1 7h-1v-7-6l-1 3v3l-1-1 1 3v3l-2-1h-2v-4l3-9 1-1c0-2 1-5 3-7l-4 3c-2 2-3 3-3 5l-1 2v-1l-1-3c-2 3-2 6-2 10l-1 2v1c0-2-1-3-2-3l-1-3c0-2-1-7 1-8v-1l-3 4v6l-1-1h-2l3 3v3l-4-3-2-13v-4c-2 5-3 10-2 16h-1c-1-3-4-5-6-7l-4-1c5 4 8 8 11 13l1 4-3-5c-3-3-5-6-9-7l-4-3h-2c6 4 12 9 16 16l-4-2 4 3h-1v-1l-1 1-5 1v-8l-3 8h-1v-1l-1-1v-2l-1 1-3-2 1-5v-4l-3 8v-1l1-5v1l-2 4v1l-1 2-1-4-1 2 1-5h-1l-2 12h-1l-2-9h-1l1 9h-2c0-7 1-13 4-19l-1 2-1 1-3 2-2 2 1-6h-1l-2 9-2 3-2-9v1l1 14v1h-2l-1-7 1-6-2 3v3l-1-1 1 3v5h-2l-1-3 2-4-2 2h-1l-1-7v-1l4-6-4 3-1 1v-1-4l-2 8-2 4-4-4v-2l-1 2h-3l2 2-1 3-2-1-2-1-1-7-1-3c-1 3-2 6-1 9h-1l1 1v5c-1-3-3-5-6-7l-3-1c4 3 7 7 9 11v1h-1l2-2-7-6-4-1h-2l6 4-2 7-3-2-3-3 1-3v-4l-2 6h-1l2-4-1 1-2 3-1 1-1 3-1-5v3l1-5h-1l-2 14h-1l-1-6 2-3-3 2-1-5v6l-1 1-1 2c0-6 1-12 4-18l-1 1-1 2-2 2-2 2v-6c0-1 0-1 0 0l-2 9-2 3-2-9-1 1 1 8v8l-1-1v-1-6-7l-1 3v9l-1-1v-3l3-11v-1l4-6-3 3-3 5-4 9v-8-3c-2 3-2 6-2 9l-1-3c0-2-1-6 1-8l-2 4-1 9-4-4-1-11-1-4c-2 6-3 12-2 17-1-3-4-5-7-7l-2-2 7 8h-1-2l4 1 1 4 2 3-4-5-7-7-5-1H3c7 3 12 8 15 14l4 9-2-2-2-3c-1-2-4-4-7-5 4 1 6 7 7 10l1 1c-13 4-27 6-40 7v68l-1 18c1 5 3 8 8 9h1370l570-2V56l10-17c-42-8-109 0-152 0z" fill="#0B0B17"/></svg>