<svg width="259" height="83" viewBox="0 0 259 83" fill="none" xmlns="http://www.w3.org/2000/svg">
<g clip-path="url(#clip0_175_255)">
<path d="M129.082 57.381C127.025 57.1956 125.04 56.531 123.285 55.4401C121.53 54.3492 120.054 52.8624 118.976 51.0984C116.771 47.7255 115.518 43.8178 115.351 39.7897C115.189 37.7589 115.306 35.7153 115.7 33.7166C115.898 31.5109 116.888 29.4521 118.488 27.9226C119.134 27.5131 119.883 27.2958 120.648 27.2958C121.413 27.2958 122.162 27.5131 122.809 27.9226C123.11 28.0431 123.392 28.2078 123.645 28.4113C124.072 28.9306 124.446 29.492 124.76 30.0866C125.221 31.1926 125.457 32.3788 125.457 33.577C125.457 34.7751 125.221 35.9613 124.76 37.0673C123.866 39.0283 122.5 40.7368 120.785 42.0402C119.07 43.3436 117.06 44.2013 114.933 44.5366C111.017 45.269 107 45.269 103.084 44.5366C99.2037 43.8492 95.4307 42.6521 91.8628 40.9764C88.6828 39.2739 85.6922 37.2381 82.9413 34.9033C79.7822 32.5786 77.027 29.7484 74.7866 26.5265C73.66 24.835 72.8783 22.9371 72.4866 20.942C72.224 19.7175 72.2511 18.4484 72.5658 17.2363C72.8805 16.0242 73.4739 14.9026 74.2987 13.9613C74.6565 13.5513 75.0533 13.1772 75.4836 12.8444C75.9963 12.483 76.5601 12.2007 77.1564 12.0067C78.2694 11.5952 79.4689 11.4751 80.6413 11.6577C82.7664 12.0524 84.7707 12.9366 86.496 14.2405C89.7012 16.6452 92.4813 19.5711 94.7204 22.8965C99.1642 29.4679 102.485 36.7339 104.548 44.397C106.691 51.94 107.839 59.7314 107.963 67.5728C107.963 67.8505 107.853 68.1168 107.657 68.3132C107.461 68.5095 107.195 68.6198 106.918 68.6198C106.74 68.6119 106.566 68.5638 106.409 68.4792C106.252 68.3946 106.116 68.2756 106.012 68.1312C103.949 65.1527 101.616 62.3718 99.0417 59.8242C96.7959 57.2861 93.9056 55.4045 90.6779 54.3793C89.9644 54.24 89.2307 54.24 88.5172 54.3793C87.7849 54.5603 87.0812 54.8422 86.4263 55.217C85.8575 55.5892 85.3615 56.0623 84.9626 56.6131C84.6222 57.1592 84.4301 57.7848 84.405 58.4281C84.4568 59.9946 84.9391 61.5164 85.799 62.8259C86.6881 64.3089 87.7658 65.6699 89.0051 66.8747L87.4718 68.201C86.0414 66.3879 84.2937 64.8504 82.3141 63.6636C80.3819 62.442 78.2628 61.5459 76.0412 61.0109C73.7621 60.4467 71.4183 60.1885 69.0713 60.2431C66.7241 60.2602 64.3861 60.5412 62.1015 61.0807C57.6193 62.5428 53.2799 64.4121 49.1375 66.6653C44.8859 68.8991 40.6343 71.3423 36.2433 73.6459C31.8053 75.9566 27.1318 77.7821 22.3036 79.0908C19.8594 79.6716 17.3578 79.976 14.8458 79.9983C12.3116 80.0346 9.78283 79.7532 7.31837 79.1606C4.61216 78.5772 2.16709 77.1323 0.348513 75.042C-0.582155 73.875 -1.15623 72.4635 -1.30462 70.9773C-1.453 69.4912 -1.16937 67.9937 -0.48787 66.6653C-0.0760403 65.7458 0.529679 64.9265 1.28766 64.2638C2.04564 63.601 2.93791 63.1105 3.90314 62.8259C5.43447 62.2714 7.11131 62.2714 8.64265 62.8259C9.2735 63.0449 9.84399 63.4096 10.3079 63.8905C10.7718 64.3714 11.1162 64.955 11.313 65.594C11.5098 66.233 11.5536 66.9094 11.4409 67.5685C11.3281 68.2276 11.0619 68.8508 10.6639 69.3877C10.3884 69.8287 9.99256 70.1814 9.52318 70.4041C9.05381 70.6268 8.53055 70.7101 8.01536 70.6442C7.85545 70.6371 7.69895 70.5956 7.55649 70.5224C7.41404 70.4493 7.28897 70.3464 7.18978 70.2205C7.0906 70.0947 7.01962 69.949 6.98168 69.7932C6.94373 69.6375 6.93971 69.4754 6.96988 69.3179C7.03012 69.0838 7.16461 68.8755 7.35314 68.7245C7.54166 68.5734 7.77404 68.4877 8.01536 68.4802C8.01536 68.4802 8.71234 67.7124 8.57295 66.9445C8.57983 66.6362 8.47921 66.3351 8.2884 66.093C8.09759 65.8509 7.82852 65.683 7.52747 65.6182C6.67829 65.4316 5.7908 65.5452 5.01577 65.9396C4.24073 66.3341 3.62595 66.9852 3.27585 67.7822C2.85134 68.6527 2.66025 69.6189 2.72135 70.5857C2.78245 71.5526 3.09364 72.4869 3.62435 73.2969C4.95294 75.0328 6.814 76.2836 8.92144 76.857C11.1838 77.5337 13.5303 77.8862 15.8913 77.9041C18.2546 77.8518 20.5996 77.476 22.8612 76.7872C27.463 75.4378 31.8683 73.4899 35.9645 70.9933C40.2161 68.6198 44.3283 65.9672 48.789 63.524C53.1414 60.7933 57.8264 58.6348 62.7288 57.1018C64.9856 56.3731 67.3297 55.9505 69.6986 55.8452C72.3469 55.8388 74.9723 56.3363 77.4352 57.3112C79.962 58.2111 82.3186 59.5328 84.405 61.2204C86.4671 62.7977 88.2769 64.6808 89.7718 66.8049C89.9634 67.0006 90.0707 67.2638 90.0707 67.5378C90.0707 67.8119 89.9634 68.0751 89.7718 68.2708C89.585 68.4239 89.3511 68.5076 89.1097 68.5076C88.8683 68.5076 88.6343 68.4239 88.4475 68.2708C87.0865 66.9444 85.85 65.4957 84.7535 63.9428C83.5457 62.2831 82.8001 60.3317 82.5929 58.2885C82.5459 57.1051 82.8621 55.9357 83.4989 54.9378C84.1128 53.9825 84.9502 53.1918 85.9384 52.6341C86.8621 52.0841 87.8774 51.7057 88.9354 51.5172C89.994 51.3084 91.083 51.3084 92.1416 51.5172C95.8361 52.7335 99.1187 54.9575 101.621 57.9394C104.199 60.6595 106.531 63.6029 108.59 66.7351L106.639 67.2935C106.443 59.6492 105.224 52.0657 103.015 44.746C100.879 37.4479 97.5842 30.5418 93.2567 24.2927C91.1619 21.2306 88.5705 18.5408 85.5899 16.3347C84.2076 15.2984 82.6125 14.5831 80.9201 14.2405C80.1869 14.0655 79.4229 14.0655 78.6897 14.2405L77.8533 14.6594C77.8533 14.6594 76.9473 15.4272 76.9473 15.4971C74.7169 17.8007 75.6927 21.7098 77.5049 24.7813C79.3862 27.9351 81.7365 30.7834 84.4747 33.2279C87.3742 35.672 90.5567 37.7579 93.9537 39.4407C97.2538 41.2875 100.832 42.5842 104.548 43.2801C108.259 43.8108 112.041 43.525 115.63 42.4424C117.317 42.0829 118.891 41.3163 120.215 40.2093C121.539 39.1022 122.573 37.6882 123.227 36.09C123.522 35.3824 123.674 34.6231 123.674 33.8562C123.674 33.0893 123.522 32.33 123.227 31.6224L122.67 30.8545H122.251C122.088 30.7404 121.893 30.6792 121.694 30.6792C121.494 30.6792 121.3 30.7404 121.136 30.8545C119.951 31.9292 119.124 33.3425 118.766 34.9033C118.251 36.6761 117.947 38.5038 117.86 40.3482C117.697 44.0836 118.722 47.7743 120.788 50.889C121.73 52.4395 123.064 53.714 124.654 54.5841C126.245 55.4542 128.037 55.8892 129.848 55.8452C129.986 55.8358 130.124 55.8536 130.254 55.8976C130.385 55.9416 130.505 56.011 130.609 56.1018C130.712 56.1926 130.797 56.3031 130.858 56.4267C130.919 56.5504 130.955 56.6849 130.964 56.8225C130.973 56.9601 130.955 57.0982 130.911 57.2289C130.867 57.3596 130.798 57.4803 130.707 57.584C130.617 57.6878 130.507 57.7726 130.383 57.8336C130.26 57.8946 130.125 57.9306 129.988 57.9394L129.082 57.381Z" fill="url(#paint0_linear_175_255)"/>
<path d="M129.221 76.7872C127.406 76.7705 125.602 76.5122 123.854 76.0194C121.957 75.5761 120.19 74.6912 118.697 73.4365C117.854 72.6292 117.189 71.6543 116.745 70.5744C116.351 69.4318 116.231 68.2119 116.397 67.0143C116.476 65.7767 116.912 64.5887 117.651 63.5938C118.037 63.0424 118.547 62.5905 119.141 62.275C119.735 61.9595 120.395 61.7895 121.066 61.7788C121.662 61.639 122.283 61.639 122.879 61.7788H123.645L124.412 62.1977C124.904 62.4956 125.331 62.8906 125.666 63.3585C126.002 63.8265 126.239 64.3577 126.364 64.9201C126.624 65.818 126.522 66.7825 126.079 67.6054C125.635 68.4283 124.886 69.0435 123.994 69.3179C123.432 69.5264 122.814 69.5264 122.251 69.3179H121.763C121.66 69.2262 121.576 69.1134 121.52 68.9871C121.463 68.8607 121.433 68.7236 121.433 68.585C121.433 68.4463 121.463 68.3092 121.52 68.1829C121.576 68.0565 121.66 67.9437 121.763 67.852C121.854 67.7591 121.963 67.6853 122.082 67.635C122.202 67.5846 122.331 67.5587 122.46 67.5587C122.59 67.5587 122.719 67.5846 122.838 67.635C122.958 67.6853 123.067 67.7591 123.157 67.852C123.157 67.852 123.157 67.852 123.645 67.852C123.944 67.6675 124.173 67.39 124.299 67.0622C124.425 66.7344 124.44 66.3742 124.342 66.037C124.286 65.7581 124.169 65.4949 124.001 65.2659C123.832 65.0368 123.616 64.8473 123.367 64.7107H122.948H122.391H121.276C120.922 64.736 120.577 64.8362 120.265 65.0047C119.952 65.1731 119.679 65.406 119.463 65.688C119.061 66.0678 118.731 66.5171 118.488 67.0143C118.323 67.8816 118.377 68.7762 118.645 69.6173C118.912 70.4584 119.385 71.2193 120.021 71.831C121.284 72.979 122.783 73.8367 124.412 74.344C126.005 74.9103 127.672 75.2396 129.361 75.3213C129.44 75.3207 129.519 75.3371 129.591 75.3694C129.664 75.4017 129.729 75.4492 129.782 75.5087C129.835 75.5682 129.874 75.6383 129.898 75.7143C129.921 75.7904 129.928 75.8706 129.918 75.9495C129.919 76.0863 129.87 76.2187 129.78 76.3217C129.69 76.4246 129.566 76.4909 129.43 76.508L129.221 76.7872Z" fill="url(#paint1_linear_175_255)"/>
<path d="M77.017 53.1228C75.2807 49.9209 73.0981 46.9828 70.535 44.397C69.2957 43.1464 67.8593 42.1087 66.2834 41.3255C65.5177 41.0481 64.7224 40.8607 63.9136 40.767C63.1312 40.6127 62.3263 40.6127 61.5439 40.767C60.8299 41.0154 60.2014 41.4625 59.7323 42.056C59.2632 42.6495 58.9728 43.3647 58.8953 44.1177C58.7854 44.8089 58.8944 45.5172 59.2069 46.1432C59.5194 46.7691 60.0198 47.2814 60.6378 47.6081H61.1257H61.6833C62.0286 47.6741 62.3834 47.6741 62.7287 47.6081C63.396 47.5656 64.0208 47.2653 64.4712 46.7704C64.6879 46.5687 64.8521 46.3169 64.9493 46.037C65.0465 45.7572 65.0738 45.4577 65.0288 45.1648C64.9874 44.9056 64.874 44.6633 64.7014 44.4658C64.5288 44.2682 64.304 44.1234 64.053 44.0479C63.9345 43.9867 63.803 43.9548 63.6697 43.9548C63.5363 43.9548 63.4049 43.9867 63.2863 44.0479C63.4344 44.0849 63.5727 44.1539 63.6913 44.25C63.8099 44.3462 63.9061 44.4672 63.9731 44.6046C64.0401 44.7419 64.0762 44.8923 64.0789 45.0451C64.0817 45.198 64.051 45.3496 63.989 45.4892C63.927 45.6289 63.8352 45.7533 63.7201 45.8537C63.605 45.9541 63.4693 46.028 63.3227 46.0703C63.176 46.1125 63.0219 46.1221 62.8711 46.0983C62.7203 46.0746 62.5766 46.018 62.4499 45.9327C62.1113 45.7791 61.8215 45.5349 61.6125 45.227C61.4034 44.9191 61.2832 44.5594 61.2651 44.1875C61.2682 43.5721 61.4906 42.9779 61.8924 42.5122C62.2496 42.0852 62.7234 41.772 63.2557 41.6108C63.7881 41.4496 64.3559 41.4475 64.8894 41.6047C65.5145 41.8196 66.0705 42.1985 66.4996 42.7019C66.9286 43.2053 67.215 43.8148 67.3288 44.4668C67.4092 45.0948 67.351 45.7329 67.1583 46.336C66.9656 46.9391 66.6432 47.4924 66.2137 47.9571C65.8752 48.6308 65.3836 49.2155 64.7783 49.6641C64.173 50.1127 63.471 50.4127 62.7287 50.5399C62.1737 50.6147 61.6111 50.6147 61.056 50.5399H60.5681H59.7317C58.7202 49.9877 57.9072 49.1316 57.4071 48.0922C56.9069 47.0528 56.7449 45.8825 56.9438 44.746C57.0945 43.6346 57.5532 42.5877 58.2677 41.7241C58.9822 40.8604 59.924 40.2145 60.9863 39.8595C62.0182 39.6209 63.0908 39.6209 64.1227 39.8595C65.1612 39.9233 66.1782 40.1839 67.1198 40.6274C68.8924 41.5321 70.4958 42.7365 71.8593 44.1875C74.4386 46.9515 76.599 50.0796 78.2715 53.4718C78.3309 53.5242 78.3784 53.5887 78.4109 53.6609C78.4435 53.7331 78.4603 53.8114 78.4603 53.8907C78.4603 53.9699 78.4435 54.0482 78.4109 54.1204C78.3784 54.1926 78.3309 54.2571 78.2715 54.3095C78.1565 54.4125 78.0076 54.4695 77.8533 54.4695C77.699 54.4695 77.5501 54.4125 77.4351 54.3095L77.017 53.1228Z" fill="url(#paint2_linear_175_255)"/>
<path d="M74.4381 81.9529C74.2326 81.6597 74.0901 81.3269 74.0199 80.9756C73.7417 80.0895 73.7417 79.1392 74.0199 78.2531C74.2678 77.5978 74.6596 77.0066 75.1663 76.5233C75.673 76.04 76.2816 75.6769 76.9473 75.4609L77.923 75.1119H78.9685C79.6853 75.0124 80.4124 75.0124 81.1292 75.1119C83.5725 75.6636 85.787 76.9554 87.4718 78.8116C88.1799 79.6273 88.8319 80.4902 89.4233 81.3944C89.5366 81.532 89.5986 81.7048 89.5986 81.8831C89.5986 82.0614 89.5366 82.2342 89.4233 82.3717C89.3648 82.433 89.2944 82.4817 89.2166 82.515C89.1387 82.5483 89.0549 82.5654 88.9703 82.5654C88.8856 82.5654 88.8018 82.5483 88.724 82.515C88.6461 82.4817 88.5758 82.433 88.5172 82.3717C87.851 81.684 87.1282 81.0535 86.3566 80.487C84.8255 79.1547 82.9769 78.241 80.9898 77.8343C80.5076 77.7284 80.0083 77.7284 79.5261 77.8343H78.8291H78.1321C77.7886 77.9109 77.4637 78.0552 77.1765 78.259C76.8893 78.4628 76.6455 78.7218 76.4594 79.021C76.1805 79.5136 76.0139 80.0619 75.9715 80.6266V81.3246C75.9715 81.5283 75.8907 81.7236 75.7469 81.8676C75.6031 82.0116 75.4081 82.0925 75.2048 82.0925C75.08 82.1592 74.9364 82.1817 74.7972 82.1564C74.658 82.1311 74.5315 82.0593 74.4381 81.9529Z" fill="url(#paint3_linear_175_255)"/>
<path d="M95.975 82.1623L94.9992 81.0454C94.2243 79.9828 93.6784 78.7704 93.3961 77.4853C93.0872 76.5325 93.0872 75.5062 93.3961 74.5534C93.7964 73.429 94.5884 72.4871 95.6265 71.9008H96.1144H96.7417C97.2738 71.8313 97.8126 71.8313 98.3447 71.9008C98.921 71.7975 99.5109 71.7975 100.087 71.9008C100.643 71.8335 101.204 71.8335 101.76 71.9008C103.762 72.4016 105.622 73.357 107.196 74.693C109.887 76.7631 112.138 79.3499 113.818 82.3019C113.926 82.4284 113.985 82.5893 113.985 82.7557C113.985 82.9221 113.926 83.083 113.818 83.2094C113.759 83.2706 113.689 83.3194 113.611 83.3527C113.533 83.386 113.449 83.4031 113.365 83.4031C113.28 83.4031 113.196 83.386 113.118 83.3527C113.041 83.3194 112.97 83.2706 112.912 83.2094C111.901 82.016 110.806 80.8963 109.636 79.8587C108.508 78.7369 107.27 77.7313 105.942 76.857C104.562 75.845 103 75.1101 101.342 74.693C100.95 74.6253 100.549 74.6253 100.157 74.693C99.7886 74.6214 99.41 74.6214 99.0417 74.693C98.6235 74.693 97.1599 75.2515 96.8811 75.3911C96.3774 75.6373 95.9808 76.0593 95.7659 76.5778C95.6167 77.1025 95.6167 77.6586 95.7659 78.1833C95.8704 79.2166 96.1288 80.2284 96.5326 81.185L97.0205 82.3019C97.1482 82.4324 97.2197 82.6078 97.2197 82.7906C97.2197 82.9733 97.1482 83.1487 97.0205 83.2792C96.8698 83.3998 96.6793 83.4592 96.4869 83.4453C96.2945 83.4315 96.1144 83.3455 95.9824 83.2046C95.8505 83.0637 95.7765 82.8781 95.7751 82.6849C95.7737 82.4917 95.8451 82.3051 95.975 82.1623Z" fill="url(#paint4_linear_175_255)"/>
<path d="M129.779 55.2868C131.591 55.3307 133.382 54.8957 134.973 54.0256C136.563 53.1555 137.897 51.8811 138.84 50.3305C140.905 47.2158 141.93 43.5251 141.767 39.7897C141.681 37.9453 141.376 36.1176 140.861 34.3448C140.448 32.8065 139.63 31.4079 138.491 30.296C138.317 30.176 138.11 30.1117 137.899 30.1117C137.687 30.1117 137.481 30.176 137.306 30.296C137.192 30.3256 137.072 30.3256 136.958 30.296L136.47 31.0639C135.91 32.5003 135.91 34.0951 136.47 35.5315C137.131 37.1382 138.175 38.5577 139.512 39.6653C140.849 40.7729 142.437 41.5348 144.137 41.8839C147.726 42.9665 151.508 43.2524 155.219 42.7216C158.954 42.1939 162.579 41.0623 165.952 39.3709C169.368 37.7213 172.555 35.6328 175.431 33.1581C178.308 30.7548 180.779 27.9027 182.75 24.7115C184.562 21.64 185.538 17.7309 183.307 15.4272L182.401 14.5896C182.401 14.5896 181.913 14.5896 181.495 14.1707C180.786 13.9905 180.043 13.9905 179.334 14.1707C177.625 14.527 176.01 15.2406 174.595 16.2649C171.648 18.509 169.062 21.1929 166.928 24.2229C162.595 30.459 159.321 37.3701 157.24 44.6762C154.905 52.0951 153.592 59.7983 153.337 67.5727L151.385 67.0143C153.422 63.8653 155.756 60.9199 158.355 58.2187C160.704 55.3197 163.784 53.1024 167.277 51.7965C168.335 51.5858 169.424 51.5858 170.483 51.7965C171.537 51.9974 172.551 52.375 173.48 52.9134C174.453 53.4916 175.286 54.2783 175.919 55.217C176.526 56.228 176.84 57.3882 176.825 58.5677C176.594 60.6169 175.825 62.568 174.595 64.222C173.523 65.7736 172.31 67.2225 170.971 68.55C170.879 68.654 170.766 68.7373 170.64 68.7943C170.514 68.8514 170.377 68.8809 170.239 68.8809C170.1 68.8809 169.964 68.8514 169.837 68.7943C169.711 68.7373 169.599 68.654 169.507 68.55C169.34 68.3695 169.248 68.1327 169.248 67.8869C169.248 67.6411 169.34 67.4043 169.507 67.2237C172.404 62.9348 176.467 59.5675 181.216 57.5206C183.709 56.4564 186.383 55.8874 189.092 55.8452C191.709 55.8106 194.316 56.1635 196.829 56.8923C201.733 58.4203 206.419 60.579 210.769 63.3145C215.02 65.7578 219.132 68.4104 223.314 70.7838C227.393 73.2659 231.774 75.2131 236.348 76.5778C238.611 77.2599 240.955 77.6355 243.318 77.6947C245.678 77.6712 248.024 77.3188 250.288 76.6476C252.395 76.0741 254.256 74.8233 255.585 73.0875C256.082 72.254 256.345 71.3011 256.345 70.3301C256.345 69.3591 256.082 68.4062 255.585 67.5727C255.259 66.7725 254.659 66.1149 253.892 65.7183C253.126 65.3216 252.243 65.2118 251.403 65.4087C251.095 65.4715 250.817 65.6367 250.615 65.8775C250.412 66.1182 250.297 66.4205 250.288 66.7351C250.288 67.5029 250.288 68.2708 250.915 68.2708C251.055 68.2604 251.195 68.2803 251.327 68.3292C251.459 68.3782 251.578 68.455 251.677 68.5544C251.777 68.6537 251.853 68.7734 251.902 68.9052C251.951 69.0369 251.971 69.1777 251.96 69.3179C251.953 69.5596 251.867 69.7923 251.717 69.9811C251.566 70.17 251.358 70.3047 251.124 70.365C250.609 70.4309 250.086 70.3475 249.616 70.1248C249.147 69.9022 248.751 69.5495 248.476 69.1085C247.933 68.4367 247.638 67.5988 247.639 66.7351C247.592 65.82 247.847 64.9148 248.363 64.1583C248.879 63.4018 249.629 62.8356 250.497 62.5467C252.028 61.9922 253.705 61.9922 255.236 62.5467C256.603 63.2896 257.683 64.4691 258.303 65.8974C258.952 67.2343 259.217 68.7254 259.069 70.2044C258.921 71.6834 258.367 73.0923 257.467 74.2742C255.648 76.3644 253.203 77.8093 250.497 78.3928C248.032 78.981 245.503 79.2624 242.969 79.2304C240.457 79.2166 237.954 78.9121 235.512 78.323C230.683 77.0142 226.01 75.1887 221.572 72.878C217.181 70.714 212.929 68.2708 208.608 65.8974C204.478 63.6192 200.136 61.7489 195.644 60.3129C193.474 59.7899 191.254 59.5089 189.023 59.4752C186.676 59.431 184.334 59.6891 182.053 60.243C179.839 60.8005 177.723 61.6951 175.78 62.8957C173.835 64.1023 172.113 65.6375 170.692 67.4331L169.089 66.1068C170.402 65.1616 171.596 64.0599 172.643 62.8259C173.615 61.5326 174.174 59.9753 174.246 58.3583C174.221 57.715 174.029 57.0894 173.689 56.5433C173.283 55.9733 172.761 55.4972 172.156 55.1472C171.53 54.7631 170.848 54.4804 170.134 54.3095C169.397 54.1714 168.641 54.1714 167.904 54.3095C164.704 55.3522 161.841 57.2319 159.61 59.7544C157.136 62.299 154.918 65.0814 152.988 68.0614C152.832 68.2921 152.595 68.4558 152.324 68.5204C152.053 68.585 151.768 68.5457 151.525 68.4104C151.372 68.3141 151.247 68.18 151.162 68.021C151.076 67.8619 151.033 67.6835 151.037 67.5029C151.161 59.6616 152.309 51.8702 154.452 44.3272C156.585 36.7426 159.927 29.553 164.349 23.0362C166.613 19.7084 169.417 16.7828 172.643 14.3801C174.348 13.086 176.328 12.2023 178.428 11.7973C180.256 11.5686 182.105 11.9885 183.656 12.984C184.019 13.2934 184.368 13.6195 184.701 13.9613C185.46 14.8429 186.01 15.8843 186.312 17.0082C186.614 18.1321 186.659 19.3096 186.444 20.4533C186.113 22.5413 185.354 24.538 184.213 26.3171C181.991 29.6137 179.235 32.5156 176.059 34.9033C172.951 37.3173 169.585 39.3776 166.022 41.0462C162.454 42.7219 158.681 43.919 154.801 44.6064C150.885 45.3388 146.868 45.3388 142.952 44.6064C140.814 44.2763 138.793 43.4127 137.076 42.0952C135.358 40.7778 133.999 39.0487 133.124 37.0673C132.664 35.9613 132.427 34.7751 132.427 33.5769C132.427 32.3788 132.664 31.1926 133.124 30.0866C133.413 29.4771 133.789 28.9128 134.239 28.4113C134.483 28.194 134.767 28.0279 135.076 27.9226C135.722 27.5131 136.472 27.2958 137.237 27.2958C138.001 27.2958 138.751 27.5131 139.397 27.9226C141.079 29.4818 142.164 31.5807 142.464 33.8562C142.858 35.855 142.975 37.8985 142.812 39.9293C142.645 43.9574 141.393 47.8651 139.188 51.238C138.105 52.9983 136.628 54.4823 134.875 55.5727C133.121 56.663 131.137 57.3299 129.082 57.5206C128.944 57.5301 128.807 57.5123 128.676 57.4682C128.546 57.4242 128.425 57.3548 128.321 57.264C128.218 57.1732 128.133 57.0628 128.072 56.9391C128.011 56.8154 127.975 56.6809 127.967 56.5433C127.947 56.4038 127.957 56.2615 127.997 56.1263C128.037 55.9911 128.105 55.8662 128.198 55.7601C128.291 55.654 128.405 55.5692 128.534 55.5116C128.662 55.454 128.802 55.425 128.942 55.4264L129.779 55.2868Z" fill="url(#paint5_linear_175_255)"/>
<path d="M129.709 75.3213C131.42 75.2424 133.111 74.9131 134.727 74.344C136.342 73.8513 137.821 72.9912 139.049 71.831C139.662 71.1751 140.119 70.3882 140.385 69.5296C140.651 68.671 140.718 67.7632 140.582 66.8747C140.466 65.9925 140.047 65.1782 139.397 64.5711C139.159 64.303 138.87 64.0848 138.547 63.9291C138.224 63.7733 137.873 63.6831 137.515 63.6636H136.47H135.912H135.494C134.995 63.9623 134.623 64.4343 134.449 64.9899C134.379 65.3346 134.415 65.6923 134.552 66.0162C134.688 66.34 134.92 66.6149 135.215 66.8049H135.633C135.841 66.6085 136.115 66.4991 136.4 66.4991C136.685 66.4991 136.96 66.6085 137.167 66.8049C137.338 66.9969 137.433 67.2454 137.433 67.503C137.433 67.7605 137.338 68.009 137.167 68.201H136.679C136.116 68.4035 135.5 68.4035 134.936 68.201C134.26 67.9756 133.664 67.5591 133.218 67.0018C132.773 66.4444 132.498 65.7699 132.427 65.0597C132.758 63.9596 133.477 63.0172 134.449 62.4071L135.215 61.9882H135.982C136.581 61.8811 137.195 61.8811 137.794 61.9882C138.451 62.0029 139.096 62.1604 139.686 62.4496C140.275 62.7389 140.795 63.1531 141.209 63.6636C141.97 64.6996 142.407 65.9387 142.464 67.2237C142.542 68.4084 142.376 69.5964 141.976 70.7141C141.596 71.8099 140.949 72.7935 140.094 73.5761C138.641 74.8803 136.896 75.8142 135.006 76.2986C133.728 76.631 132.421 76.8413 131.103 76.9268H129.57C129.421 76.897 129.286 76.8195 129.186 76.7062C129.085 76.5928 129.024 76.4498 129.012 76.2986C128.931 76.1918 128.886 76.0617 128.883 75.9273C128.881 75.793 128.922 75.6615 129 75.5521C129.078 75.4428 129.189 75.3614 129.317 75.3198C129.444 75.2783 129.582 75.2788 129.709 75.3213Z" fill="url(#paint6_linear_175_255)"/>
<path d="M181.216 52.4945C182.889 49.1023 185.049 45.9742 187.629 43.2103C188.967 41.7604 190.547 40.5556 192.298 39.6501C193.202 39.2379 194.168 38.9784 195.156 38.8823C196.166 38.6542 197.213 38.6542 198.223 38.8823C199.294 39.2335 200.246 39.8768 200.973 40.7399C201.699 41.6031 202.171 42.6519 202.335 43.7687C202.539 44.9135 202.371 46.0936 201.857 47.1362C201.343 48.1788 200.509 49.0291 199.477 49.5627H198.711H198.223H197.874C197.319 49.6358 196.757 49.6358 196.202 49.5627C195.039 49.748 193.848 49.4996 192.856 48.8646C192.427 48.3999 192.104 47.8465 191.911 47.2435C191.719 46.6404 191.661 46.0023 191.741 45.3743C191.842 44.7275 192.115 44.1201 192.532 43.6163C192.949 43.1124 193.495 42.731 194.111 42.5122C194.655 42.3493 195.234 42.3484 195.779 42.5095C196.323 42.6706 196.809 42.9868 197.177 43.4197C197.579 43.8854 197.802 44.4796 197.805 45.095C197.789 45.4769 197.662 45.8458 197.439 46.156C197.216 46.4661 196.907 46.704 196.55 46.8402C196.422 46.9329 196.274 46.9952 196.118 47.0225C195.962 47.0497 195.802 47.0411 195.65 46.9974C195.498 46.9536 195.358 46.8759 195.24 46.77C195.122 46.6641 195.03 46.5328 194.97 46.386C194.911 46.2392 194.885 46.0808 194.895 45.9226C194.906 45.7644 194.952 45.6107 195.03 45.4729C195.108 45.3352 195.217 45.217 195.347 45.1274C195.478 45.0377 195.627 44.9789 195.783 44.9554C195.653 44.8933 195.51 44.8611 195.365 44.8611C195.221 44.8611 195.078 44.8933 194.947 44.9554C194.692 45.023 194.462 45.1654 194.289 45.3644C194.115 45.5634 194.004 45.8099 193.971 46.0723C193.926 46.3652 193.954 46.6647 194.051 46.9445C194.148 47.2244 194.312 47.4762 194.529 47.6779C194.979 48.1728 195.604 48.4731 196.271 48.5156C196.617 48.5799 196.971 48.5799 197.317 48.5156H197.805H198.362C198.98 48.1889 199.481 47.6766 199.793 47.0507C200.106 46.4247 200.215 45.7164 200.105 45.0252C199.997 44.2825 199.696 43.5814 199.231 42.993C198.765 42.4046 198.153 41.9497 197.456 41.6745C196.65 41.5216 195.823 41.5216 195.017 41.6745C194.231 41.7692 193.459 41.9566 192.717 42.233C191.13 42.9986 189.691 44.0384 188.465 45.3045C185.881 47.8719 183.696 50.8133 181.983 54.0303C181.78 54.1321 181.544 54.1489 181.329 54.0769C181.113 54.0049 180.935 53.85 180.833 53.6463C180.731 53.4427 180.715 53.2069 180.787 52.9909C180.858 52.7749 181.013 52.5964 181.216 52.4945Z" fill="url(#paint7_linear_175_255)"/>
<path d="M200.593 71.6215C199.893 70.8321 199.006 70.2319 198.014 69.8764C197.576 69.6601 197.104 69.5185 196.62 69.4575H195.923H195.156C194.268 69.3515 193.367 69.4611 192.53 69.777C191.693 70.0929 190.944 70.6058 190.347 71.2725C189.875 71.8902 189.569 72.6191 189.459 73.3893C189.349 74.1594 189.439 74.9449 189.72 75.6703C189.916 76.2272 190.239 76.7311 190.662 77.1428C191.085 77.5545 191.597 77.8628 192.159 78.0437C193.021 78.3123 193.945 78.3123 194.808 78.0437C194.964 78.0469 195.12 78.0147 195.263 77.9495C195.405 77.8844 195.531 77.7879 195.632 77.6672C195.732 77.5465 195.804 77.4048 195.843 77.2524C195.881 77.1001 195.884 76.9411 195.853 76.7872C195.837 76.6512 195.792 76.5201 195.722 76.4025C195.652 76.2848 195.559 76.1832 195.447 76.1042C195.335 76.0252 195.208 75.9706 195.074 75.944C194.94 75.9173 194.802 75.9192 194.668 75.9495C194.115 76.0504 193.548 76.0504 192.995 75.9495C192.725 75.8688 192.476 75.7257 192.271 75.5318C192.065 75.3378 191.907 75.0984 191.811 74.8326C191.627 74.4765 191.531 74.0816 191.531 73.6808C191.531 73.2801 191.627 72.8852 191.811 72.529C192.222 72.1312 192.718 71.8306 193.26 71.6494C193.803 71.4682 194.379 71.411 194.947 71.4819H195.435H195.923H197.038C197.69 71.7615 198.281 72.1644 198.78 72.6686C199.319 73.2485 199.688 73.9652 199.847 74.7406C200.007 75.5161 199.952 76.3205 199.686 77.0664C199.324 77.9167 198.749 78.6589 198.016 79.2214C197.284 79.7839 196.418 80.1477 195.505 80.2775C193.187 80.5108 190.852 80.5108 188.535 80.2775H69.6986C67.3809 80.5062 65.0464 80.5062 62.7287 80.2775C61.8273 80.1365 60.9766 79.7677 60.2571 79.2058C59.5375 78.6439 58.9729 77.9076 58.6165 77.0664C58.3514 76.3205 58.2958 75.5161 58.4555 74.7406C58.6153 73.9652 58.9844 73.2485 59.5226 72.6686C60.0102 72.1507 60.6049 71.7456 61.265 71.4819C61.6112 71.4246 61.9644 71.4246 62.3105 71.4819H62.8681H63.356C63.9132 71.4062 64.4804 71.4614 65.0127 71.6431C65.545 71.8249 66.0277 72.1282 66.4227 72.529C66.657 72.8588 66.8105 73.2391 66.8711 73.6392C66.9316 74.0394 66.8974 74.4482 66.7712 74.8326C66.6743 75.0984 66.5167 75.3378 66.311 75.5318C66.1053 75.7257 65.8571 75.8688 65.5864 75.9495C65.0333 76.0504 64.4666 76.0504 63.9136 75.9495C63.7802 75.9192 63.642 75.9173 63.5079 75.944C63.3737 75.9706 63.2467 76.0252 63.135 76.1042C63.0232 76.1832 62.9293 76.2848 62.8594 76.4025C62.7894 76.5201 62.7449 76.6512 62.7287 76.7872C62.7091 76.9249 62.7171 77.0651 62.7523 77.1997C62.7874 77.3342 62.8489 77.4604 62.9333 77.5709C63.0176 77.6814 63.1231 77.7739 63.2435 77.8431C63.364 77.9123 63.497 77.9568 63.6348 77.9739C64.4722 78.2509 65.3763 78.2509 66.2136 77.9739C66.7832 77.7928 67.3046 77.4853 67.739 77.0744C68.1734 76.6634 68.5097 76.1596 68.7228 75.6005C68.9905 74.8728 69.0733 74.0899 68.9638 73.3223C68.8543 72.5546 68.5559 71.8262 68.0955 71.2027C67.4945 70.5406 66.7451 70.0309 65.9091 69.7153C65.073 69.3998 64.1741 69.2875 63.2863 69.3877H62.7287H62.0317C61.5719 69.4605 61.1256 69.6016 60.7075 69.8066C59.6982 70.1278 58.8028 70.7337 58.1286 71.5517C57.3187 72.3984 56.7645 73.4573 56.5302 74.6062C56.2959 75.755 56.3909 76.9467 56.8043 78.0437C57.2715 79.2127 58.0288 80.243 59.0045 81.037C59.9802 81.831 61.1421 82.3625 62.3802 82.5812C64.6842 82.9484 67.021 83.0654 69.3501 82.9302H189.023C191.352 83.0704 193.689 82.9534 195.992 82.5812C197.243 82.3735 198.419 81.847 199.408 81.0524C200.397 80.2577 201.165 79.2216 201.638 78.0437C202.058 76.9783 202.183 75.8189 201.999 74.6884C201.815 73.5578 201.329 72.4981 200.593 71.6215Z" fill="url(#paint8_linear_175_255)"/>
<path d="M183.238 81.4643V80.7662C183.195 80.2015 183.029 79.6532 182.75 79.1606C182.341 78.5886 181.752 78.1707 181.077 77.9739H180.38H179.683C179.201 77.868 178.701 77.868 178.219 77.9739C176.228 78.3683 174.376 79.2835 172.853 80.6266C172.07 81.2065 171.325 81.836 170.622 82.5113C170.563 82.5842 170.489 82.643 170.405 82.6834C170.32 82.7238 170.228 82.7447 170.134 82.7447C170.041 82.7447 169.948 82.7238 169.864 82.6834C169.78 82.643 169.705 82.5842 169.646 82.5113C169.567 82.3734 169.525 82.2169 169.525 82.0576C169.525 81.8983 169.567 81.7418 169.646 81.6039C170.208 80.6792 170.862 79.8139 171.598 79.021C173.271 77.1502 175.49 75.8556 177.941 75.3213C178.657 75.2191 179.385 75.2191 180.101 75.3213H181.216L182.192 75.6703C182.858 75.8863 183.466 76.2494 183.973 76.7327C184.48 77.2161 184.872 77.8072 185.119 78.4626C185.445 79.3407 185.445 80.3069 185.119 81.185C185.052 81.5261 184.934 81.8554 184.771 82.1623C184.641 82.2902 184.466 82.3619 184.283 82.3619C184.101 82.3619 183.926 82.2902 183.795 82.1623C183.69 82.094 183.604 82.001 183.543 81.8915C183.482 81.782 183.449 81.6593 183.447 81.5341L183.238 81.4643Z" fill="url(#paint9_linear_175_255)"/>
<path d="M161.91 81.2548L162.398 80.1379C162.801 79.1813 163.06 78.1695 163.164 77.1362C163.28 76.6073 163.28 76.0597 163.164 75.5307C163.056 75.2638 162.895 75.0214 162.692 74.8176C162.488 74.6138 162.246 74.4528 161.98 74.344C161.323 73.9467 160.583 73.7078 159.819 73.6459C159.474 73.5702 159.118 73.5702 158.773 73.6459C158.382 73.5738 157.98 73.5738 157.589 73.6459C155.908 74.0612 154.323 74.7959 152.919 75.8099C151.612 76.6842 150.397 77.69 149.294 78.8116C148.124 79.8492 147.03 80.9689 146.019 82.1623C145.888 82.2902 145.713 82.3619 145.531 82.3619C145.348 82.3619 145.173 82.2902 145.043 82.1623C144.952 82.0415 144.903 81.8945 144.903 81.7435C144.903 81.5924 144.952 81.4455 145.043 81.3246C145.929 79.9123 146.907 78.5598 147.97 77.2759C149.099 75.9871 150.335 74.7961 151.664 73.7157C153.268 72.3846 155.15 71.4305 157.17 70.9235C157.726 70.8511 158.288 70.8511 158.843 70.9235C159.419 70.8217 160.009 70.8217 160.586 70.9235H162.189H162.816H163.304H163.652C164.69 71.5098 165.482 72.4517 165.883 73.5761C166.192 74.5289 166.192 75.5552 165.883 76.508C165.613 77.81 165.04 79.0298 164.21 80.0681C163.938 80.4637 163.635 80.8371 163.304 81.185C163.155 81.304 162.971 81.3688 162.781 81.3688C162.591 81.3688 162.407 81.304 162.258 81.185C162.15 81.2381 162.03 81.2621 161.91 81.2548Z" fill="url(#paint10_linear_175_255)"/>
<path d="M129.5 20.942C130.007 19.7527 130.613 18.6085 131.312 17.5215C131.874 16.5096 132.527 15.5516 133.264 14.6594C133.652 14.1878 134.097 13.7659 134.588 13.4029C135.054 13.0115 135.57 12.6829 136.121 12.4256V14.1707L133.612 11.3785C132.808 10.4248 132.063 9.42232 131.382 8.37679C130.711 7.34587 130.105 6.27335 129.57 5.16569C128.99 4.01005 128.635 2.75446 128.524 1.46594L129.709 2.58285L130.894 1.53575C130.573 2.76863 130.177 3.98084 129.709 5.16569C129.227 6.30888 128.643 7.40684 127.967 8.4466L125.876 11.5181C125.183 12.5506 124.309 13.4493 123.297 14.1707V12.4256C125.349 13.6487 127.053 15.3794 128.245 17.4516C128.73 18.5902 129.148 19.7556 129.5 20.942ZM129.5 25.2002H129.082C128.957 25.2005 128.833 25.175 128.718 25.1251C128.603 25.0752 128.5 25.002 128.415 24.9102C128.33 24.8184 128.265 24.7099 128.224 24.5916C128.182 24.4733 128.166 24.3478 128.176 24.2229C128.105 22.1167 127.531 20.0581 126.503 18.2195C125.97 17.3174 125.313 16.495 124.551 15.7763C123.878 14.9731 123.015 14.3495 122.042 13.9613C121.811 13.8962 121.616 13.7421 121.498 13.5327C121.381 13.3233 121.351 13.0758 121.415 12.8444C121.383 12.6831 121.383 12.5171 121.415 12.3558L124.064 10.3314C124.972 9.59133 125.709 8.66242 126.224 7.60892C127.52 5.69053 128.223 3.43271 128.245 1.11691C128.226 0.988392 128.232 0.857236 128.263 0.731122C128.295 0.605009 128.351 0.486473 128.429 0.382459C128.507 0.278444 128.605 0.191041 128.717 0.125369C128.829 0.0596977 128.953 0.0170772 129.082 4.23472e-06H129.57C129.816 -0.0251856 130.064 0.0381983 130.268 0.178846C130.472 0.319493 130.62 0.528254 130.685 0.767876V1.11691C130.685 1.67536 130.685 2.23381 130.685 2.72246C130.651 3.28041 130.651 3.83987 130.685 4.39782C130.877 5.52252 131.254 6.60757 131.8 7.60892C132.356 8.61977 133.035 9.55767 133.821 10.4012C134.621 11.2207 135.567 11.8835 136.609 12.3558C136.82 12.4613 136.985 12.6396 137.075 12.8577C137.165 13.0758 137.173 13.319 137.097 13.5425C136.976 13.699 136.835 13.8397 136.679 13.9613C135.789 14.3799 134.948 14.8949 134.17 15.4971C133.326 16.1254 132.635 16.9368 132.149 17.8705C131.2 19.7582 130.677 21.8313 130.615 23.9437C130.597 24.2091 130.48 24.4578 130.285 24.6393C130.091 24.8209 129.835 24.9215 129.57 24.9209L129.5 25.2002Z" fill="url(#paint11_linear_175_255)"/>
</g>
<defs>
<linearGradient id="paint0_linear_175_255" x1="-8.57291" y1="45.7931" x2="277.052" y2="45.7931" gradientUnits="userSpaceOnUse">
<stop stop-color="#806643"/>
<stop offset="0.09" stop-color="#8A7350"/>
<stop offset="0.25" stop-color="#978461"/>
<stop offset="0.37" stop-color="#9C8A67"/>
<stop offset="0.51" stop-color="#87704D"/>
<stop offset="0.62" stop-color="#7B613E"/>
<stop offset="0.85" stop-color="#927D5A"/>
<stop offset="1" stop-color="#9C8A67"/>
</linearGradient>
<linearGradient id="paint1_linear_175_255" x1="-8.57284" y1="68.9689" x2="277.052" y2="68.9689" gradientUnits="userSpaceOnUse">
<stop stop-color="#806643"/>
<stop offset="0.09" stop-color="#8A7350"/>
<stop offset="0.25" stop-color="#978461"/>
<stop offset="0.37" stop-color="#9C8A67"/>
<stop offset="0.51" stop-color="#87704D"/>
<stop offset="0.62" stop-color="#7B613E"/>
<stop offset="0.85" stop-color="#927D5A"/>
<stop offset="1" stop-color="#9C8A67"/>
</linearGradient>
<linearGradient id="paint2_linear_175_255" x1="-8.57293" y1="46.1421" x2="277.052" y2="46.1421" gradientUnits="userSpaceOnUse">
<stop stop-color="#806643"/>
<stop offset="0.09" stop-color="#8A7350"/>
<stop offset="0.25" stop-color="#978461"/>
<stop offset="0.37" stop-color="#9C8A67"/>
<stop offset="0.51" stop-color="#87704D"/>
<stop offset="0.62" stop-color="#7B613E"/>
<stop offset="0.85" stop-color="#927D5A"/>
<stop offset="1" stop-color="#9C8A67"/>
</linearGradient>
<linearGradient id="paint3_linear_175_255" x1="-8.57293" y1="78.7418" x2="277.052" y2="78.7418" gradientUnits="userSpaceOnUse">
<stop stop-color="#806643"/>
<stop offset="0.09" stop-color="#8A7350"/>
<stop offset="0.25" stop-color="#978461"/>
<stop offset="0.37" stop-color="#9C8A67"/>
<stop offset="0.51" stop-color="#87704D"/>
<stop offset="0.62" stop-color="#7B613E"/>
<stop offset="0.85" stop-color="#927D5A"/>
<stop offset="1" stop-color="#9C8A67"/>
</linearGradient>
<linearGradient id="paint4_linear_175_255" x1="-8.57291" y1="76.6476" x2="277.052" y2="76.6476" gradientUnits="userSpaceOnUse">
<stop stop-color="#806643"/>
<stop offset="0.09" stop-color="#8A7350"/>
<stop offset="0.25" stop-color="#978461"/>
<stop offset="0.37" stop-color="#9C8A67"/>
<stop offset="0.51" stop-color="#87704D"/>
<stop offset="0.62" stop-color="#7B613E"/>
<stop offset="0.85" stop-color="#927D5A"/>
<stop offset="1" stop-color="#9C8A67"/>
</linearGradient>
<linearGradient id="paint5_linear_175_255" x1="-8.57294" y1="45.7931" x2="277.052" y2="45.7931" gradientUnits="userSpaceOnUse">
<stop stop-color="#806643"/>
<stop offset="0.09" stop-color="#8A7350"/>
<stop offset="0.25" stop-color="#978461"/>
<stop offset="0.37" stop-color="#9C8A67"/>
<stop offset="0.51" stop-color="#87704D"/>
<stop offset="0.62" stop-color="#7B613E"/>
<stop offset="0.85" stop-color="#927D5A"/>
<stop offset="1" stop-color="#9C8A67"/>
</linearGradient>
<linearGradient id="paint6_linear_175_255" x1="-8.57297" y1="68.9689" x2="277.052" y2="68.9689" gradientUnits="userSpaceOnUse">
<stop stop-color="#806643"/>
<stop offset="0.09" stop-color="#8A7350"/>
<stop offset="0.25" stop-color="#978461"/>
<stop offset="0.37" stop-color="#9C8A67"/>
<stop offset="0.51" stop-color="#87704D"/>
<stop offset="0.62" stop-color="#7B613E"/>
<stop offset="0.85" stop-color="#927D5A"/>
<stop offset="1" stop-color="#9C8A67"/>
</linearGradient>
<linearGradient id="paint7_linear_175_255" x1="-8.57292" y1="46.1421" x2="277.052" y2="46.1421" gradientUnits="userSpaceOnUse">
<stop stop-color="#806643"/>
<stop offset="0.09" stop-color="#8A7350"/>
<stop offset="0.25" stop-color="#978461"/>
<stop offset="0.37" stop-color="#9C8A67"/>
<stop offset="0.51" stop-color="#87704D"/>
<stop offset="0.62" stop-color="#7B613E"/>
<stop offset="0.85" stop-color="#927D5A"/>
<stop offset="1" stop-color="#9C8A67"/>
</linearGradient>
<linearGradient id="paint8_linear_175_255" x1="-8.57295" y1="76.159" x2="277.052" y2="76.159" gradientUnits="userSpaceOnUse">
<stop stop-color="#806643"/>
<stop offset="0.09" stop-color="#8A7350"/>
<stop offset="0.25" stop-color="#978461"/>
<stop offset="0.37" stop-color="#9C8A67"/>
<stop offset="0.51" stop-color="#87704D"/>
<stop offset="0.62" stop-color="#7B613E"/>
<stop offset="0.85" stop-color="#927D5A"/>
<stop offset="1" stop-color="#9C8A67"/>
</linearGradient>
<linearGradient id="paint9_linear_175_255" x1="-8.57279" y1="78.7418" x2="277.052" y2="78.7418" gradientUnits="userSpaceOnUse">
<stop stop-color="#806643"/>
<stop offset="0.09" stop-color="#8A7350"/>
<stop offset="0.25" stop-color="#978461"/>
<stop offset="0.37" stop-color="#9C8A67"/>
<stop offset="0.51" stop-color="#87704D"/>
<stop offset="0.62" stop-color="#7B613E"/>
<stop offset="0.85" stop-color="#927D5A"/>
<stop offset="1" stop-color="#9C8A67"/>
</linearGradient>
<linearGradient id="paint10_linear_175_255" x1="-8.57286" y1="76.6476" x2="277.052" y2="76.6476" gradientUnits="userSpaceOnUse">
<stop stop-color="#806643"/>
<stop offset="0.09" stop-color="#8A7350"/>
<stop offset="0.25" stop-color="#978461"/>
<stop offset="0.37" stop-color="#9C8A67"/>
<stop offset="0.51" stop-color="#87704D"/>
<stop offset="0.62" stop-color="#7B613E"/>
<stop offset="0.85" stop-color="#927D5A"/>
<stop offset="1" stop-color="#9C8A67"/>
</linearGradient>
<linearGradient id="paint11_linear_175_255" x1="-8.57291" y1="12.5652" x2="277.052" y2="12.5652" gradientUnits="userSpaceOnUse">
<stop stop-color="#806643"/>
<stop offset="0.09" stop-color="#8A7350"/>
<stop offset="0.25" stop-color="#978461"/>
<stop offset="0.37" stop-color="#9C8A67"/>
<stop offset="0.51" stop-color="#87704D"/>
<stop offset="0.62" stop-color="#7B613E"/>
<stop offset="0.85" stop-color="#927D5A"/>
<stop offset="1" stop-color="#9C8A67"/>
</linearGradient>
<clipPath id="clip0_175_255">
<rect width="259" height="83" fill="white"/>
</clipPath>
</defs>
</svg>
