<?xml version="1.0" encoding="UTF-8"?><svg id="_層_1" xmlns="http://www.w3.org/2000/svg" viewBox="0 0 380 537"><defs><style>.cls-1{fill:#ff43bf;}.cls-2{fill:#121212;}</style></defs><path class="cls-1" d="M179.72,530c-4.88,0-9.74-1.04-14.04-2.98-1.44-.66-2.38-2.1-2.36-3.68,.02-6.73,1.7-13.27,3.54-19-1.38-1.98-2.32-4.4-2.72-7.05-.5-3.3-.18-6.47,.12-9.51l.28-2.8c.78-7.77,1.94-19.52-1.36-25.91-3.92-7.59-5.04-16.18-5.68-24.35-1.98-25.89-11.12-51.45-21.98-79.74l-1.5-2.46c-1.44-2.38-2.94-4.85-4.54-7.25-7.42-11.21-12.12-24.25-13.7-37.46-.6,.34-1.28,.52-2,.52-.34,0-.7-.04-1.04-.14-1.86-.5-3.1-2.22-2.98-4.15,.18-3.06-.72-5.63-1.88-8.85-.32-.88-.64-1.78-.94-2.7-1.4-4.26-2.32-9.19-2.76-14.65-.8-9.97,.56-20.08,3.92-29.23,2.24-6.11,5.38-12.01,8.56-17.76h-.28c-.7,0-1.42-.18-2.06-.56-1.5-.9-2.26-2.66-1.88-4.36,1.18-5.19,4.24-10.21,9.36-15.42,1.64-1.66,3.34-3.2,4.98-4.71,2.3-2.1,4.48-4.08,6.42-6.27,5.32-5.99,9.28-14.01,11.8-23.85,2.08-8.19,2.96-16.54,3.82-25.79-.04-1.28,.08-2.54,.32-3.74,.62-2.96,1.6-5.75,2.54-8.45,.42-1.2,.84-2.4,1.22-3.6,.36-1.12,.7-2.14,1.04-3.08-.94-.3-2.42-.58-4.74-.72-.9-.04-1.78-.06-2.68-.06h-2.92c-1.06,0-2.44,0-3.86-.1-8.78-.66-17.2-4.79-23.1-11.33-.88-.98-1.24-2.34-.94-3.62,.3-1.28,1.22-2.34,2.46-2.82l.66-.26c3.76-1.46,7.6-2.96,11.58-3.84-3.64-1.4-7.34-2.56-11.16-3.3-6.44-1.24-13-1.32-19.94-1.38-3.38-.04-6.88-.08-10.36-.26-6.86,1.18-13.74,3.72-20.4,6.21l-2.3,.84c-8.82,3.24-18.26,6.43-28.23,6.43h-1.22c-10.94-.3-20.76-4.96-26.26-12.51-.9-1.22-1.04-3.02-.36-4.38,.72-1.42,2.16-2.32,3.76-2.32,1.04,0,2.18,.46,2.92,1.18,3.68,3.6,9.96,5.67,17.24,5.67,.62,0,1.24,0,1.86-.04,7.68-.38,15.04-3.18,23.16-6.55,0,0,1.66-.68,2.04-.84-8.84-3.76-16.96-9.09-23.86-15.72-3.3-3.14-6.98-6.07-10.46-8.73-8.1-6.21-14.2-12.45-18.6-19.1C3.05,45.51,.19,36.88,0,28.51-.13,21.24,1.99,10.61,8.43,4.46c.94-.9,2.2-1.42,3.44-1.42,1.68,0,3.18,.94,3.92,2.44,.5,1.04,.58,2.16,.24,3.34-.18,.66-.38,1.32-.58,1.98-.68,2.3-1.34,4.48-1.66,6.67-.52,3.46-.6,7.01-.22,10.55,.5,4.73,1.8,9.27,3.78,13.41-.36-5.81,.64-12.17,2.92-18.88C23.59,12.75,30.91,4.54,39.81,.6c.6-.26,1.24-.4,1.88-.4,1.94,0,3.68,1.24,4.34,3.08,.66,1.84,.08,3.9-1.44,5.13-11.26,9.15-15.44,25.77-10.38,41.36,2.98,9.23,9.04,17.28,17.06,22.7,3.78,2.56,7.5,4.64,11.24,6.31-.74-1.08-1.42-2.22-2.02-3.38-4.36-8.33-5.72-18.86-3.84-29.65,1.28-7.33,3.8-13.55,7.46-18.54,3.6-4.89,8.5-8.61,13.76-10.47,.52-.18,1.06-.28,1.6-.28,1.94,0,3.68,1.18,4.4,3,.72,1.8,.28,3.86-1.12,5.21-7.9,7.57-12.68,17.78-13.12,27.97,0,.36,.06,.62,.14,.76,.68-.04,1.66-.4,2.12-.56,4.3-1.58,8.76-3.2,12.6-5.51,3.34-2,5.9-4.36,7.62-6.99,.84-1.3,2.28-2.08,3.82-2.08,1.34,0,2.62,.58,3.48,1.6,.86,1.02,1.24,2.36,1.02,3.7-.9,5.51-4.6,10.89-10.16,14.82-3.52,2.48-7.36,4.2-11.06,5.89-1.7,.76-3.4,1.52-5.04,2.36-.1,.04-.18,.1-.26,.14,.58,1.32,2.2,3.74,4.1,5.75,2.28,2.4,5.38,4.48,9.24,6.19,3.06,1.34,6.24,2.36,9.6,3.46,2.54,.82,5.16,1.66,7.74,2.66l1.2,.04c4.5,.12,9.72,.28,14.92,.72,2.24,.2,4.38,.6,6.46,1,.66,.12,1.32,.26,1.96,.36-7.18-13.41,.12-28.59,8.54-37.54,.92-.98,2.16-1.5,3.48-1.5,1.5,0,2.94,.72,3.84,1.9,.92,1.2,1.22,2.72,.82,4.18-1.94,7.27-2.58,13.73-1.94,19.72,.82,7.79,3.92,14.64,8.7,19.32,2.6,2.54,5.78,4.54,9.12,6.67,1.38,.88,2.78,1.76,4.12,2.68,5.02,3.4,8.5,6.83,10.74,10.59,2.54-.28,5.26-.42,7.98-.42s5.42,.14,7.94,.42c2.24-3.64,5.64-6.97,10.5-10.29,1.36-.92,2.74-1.8,4.12-2.68,3.34-2.14,6.5-4.16,9.1-6.71,4.78-4.71,7.84-11.57,8.64-19.36,.6-6.01-.06-12.45-2.02-19.72-.4-1.46-.1-3,.82-4.18,.92-1.2,2.36-1.9,3.84-1.9,1.32,0,2.56,.52,3.48,1.5,8.48,8.91,15.82,24.05,8.7,37.5,.64-.12,1.3-.24,1.96-.38,2.08-.4,4.22-.82,6.46-1.02,5.2-.46,10.42-.64,14.92-.78l1.2-.04c2.58-1.02,5.2-1.86,7.74-2.7,3.36-1.1,6.54-2.14,9.6-3.5,3.84-1.7,6.94-3.8,9.22-6.23,1.9-2.02,3.52-4.42,4.08-5.77-.08-.04-.16-.08-.26-.14-1.66-.82-3.36-1.58-5.06-2.34-3.7-1.66-7.54-3.36-11.08-5.85-5.58-3.9-9.3-9.29-10.22-14.78-.22-1.34,.14-2.68,1.02-3.72,.88-1.04,2.14-1.62,3.5-1.62,1.54,0,2.96,.78,3.8,2.06,1.72,2.62,4.28,4.95,7.64,6.95,3.84,2.28,8.3,3.9,12.62,5.47,.46,.16,1.5,.54,2.1,.56,.1-.18,.16-.44,.14-.76-.48-10.19-5.3-20.38-13.22-27.91-1.42-1.34-1.88-3.4-1.14-5.21,.72-1.82,2.46-3,4.4-3,.54,0,1.08,.1,1.58,.28,5.28,1.84,10.18,5.55,13.8,10.43,3.7,4.97,6.24,11.19,7.54,18.52,1.94,10.79,.62,21.32-3.72,29.67-.6,1.16-1.28,2.3-2,3.38,3.74-1.66,7.44-3.76,11.22-6.35,8-5.47,14.02-13.55,16.96-22.78,4.98-15.62,.74-32.21-10.56-41.32-1.52-1.24-2.12-3.3-1.46-5.15,.66-1.86,2.4-3.1,4.34-3.1,.64,0,1.28,.14,1.86,.4,8.92,3.92,16.26,12.11,19.64,21.88,2.32,6.71,3.34,13.05,3,18.88,1.96-4.16,3.22-8.71,3.72-13.43,.36-3.54,.28-7.09-.26-10.55-.34-2.16-1-4.34-1.7-6.65-.2-.66-.4-1.32-.6-2-.34-1.18-.28-2.3,.22-3.34,.72-1.5,2.22-2.44,3.92-2.44,1.24,0,2.48,.52,3.44,1.42,6.46,6.11,8.62,16.74,8.5,23.99-.14,8.39-2.98,17.02-8.2,24.99-4.38,6.67-10.44,12.93-18.52,19.18-3.48,2.68-7.16,5.61-10.44,8.77-6.88,6.65-14.98,12.01-23.8,15.8l2.04,.84c8.14,3.32,15.5,6.11,23.18,6.45,.56,.02,1.14,.04,1.7,.04,7.34,0,13.66-2.08,17.34-5.73,.76-.74,1.9-1.22,2.96-1.22,1.6,0,3.04,.88,3.76,2.3,.68,1.34,.54,3.14-.34,4.38-5.48,7.57-15.28,12.27-26.23,12.61-.48,0-.94,.02-1.42,.02-9.9,0-19.28-3.12-28.06-6.31l-2.28-.84c-6.66-2.44-13.56-4.97-20.42-6.13-3.48,.2-6.96,.26-10.36,.3-6.94,.1-13.5,.2-19.94,1.46-3.84,.76-7.6,1.94-11.26,3.38,3.66,.88,7.2,2.26,10.66,3.62l.64,.26c1.24,.48,2.16,1.54,2.46,2.82,.3,1.28-.04,2.64-.94,3.62-5.9,6.53-14.32,10.67-23.1,11.33-1.42,.1-2.82,.12-3.86,.12h-2.92c-.9,0-1.78,0-2.68,.04-1.92,.1-3.26,.32-4.2,.56,.42,1.06,.8,2.14,1.14,3.24,.38,1.2,.8,2.4,1.22,3.6,.96,2.7,1.94,5.51,2.54,8.45,.26,1.28,.38,2.6,.32,3.9,1.14,4.85,2.58,9.59,4.3,14.13,1.28,3.36,2.74,6.73,4.34,9.97,.64,1.28,1.42,2.52,2.24,3.82,.8,1.26,1.62,2.56,2.38,4,3.08,5.93,5.62,12.19,7.54,18.62,.96,3.22,1.78,6.51,2.44,9.75,.28,1.38,.42,2.8,.56,4.17,.18,1.7,.34,3.32,.74,4.58,.66,2.12-.52,4.38-2.64,5.05-.2,.06-.4,.12-.6,.14,.1,1.34,.18,2.64,.24,3.94,4.9,5.71,8.24,11.55,10,17.42,2.78,1,5.9,1.6,9.34,1.82,2.14,.12,4.56,.28,6.9,.28,3.9,0,6.92-.42,9.5-1.3,11.62-4.02,22.16-7.45,33.51-8.45,1.14-.1,2.32-.16,3.48-.16,8.3,0,16.26,2.48,23.96,4.87,2.32,.72,4.62,1.44,6.92,2.08,6.84,1.9,11.94,4.3,16.06,7.53,5.48,4.28,9.02,10.21,9.74,16.24,.14,1.14-.22,2.26-.94,3.1,4.12,11.11,6.5,23,6.92,34.8,.16,4.7,1.26,9.47,3.16,13.79,.7,1.6,.3,3.48-1.02,4.64-.76,.66-1.7,1-2.66,1-.72,0-1.42-.18-2.08-.58-.38-.22-.76-.46-1.12-.72-.32,9.81-3.04,19.58-7.98,28.07-.74,1.26-2.08,2-3.48,2-.18,0-.38,0-.56-.04,1.22,9.09,2.84,18.82,7.1,25.79,6.44,10.49,2.14,20.94-1.66,30.17-.38,.92-.76,1.84-1.12,2.76-3.06,7.63-6.66,15.1-10.14,22.32-1.26,2.6-2.5,5.21-3.74,7.83-3.9,8.27-7.88,17.18-10.62,26.37l-.4,1.32c-1.18,3.9-2.5,8.31-2.62,12.07-.04,1,.42,2.34,.88,3.76,.82,2.46,1.82,5.52,.94,8.87-.8,3.06-3.42,5.2-6.36,5.2h-.44c-.22,0-.42-.04-.62-.08,.26,1.92,.5,3.95,.74,5.93,.3,2.6,.62,5.31,.98,7.61,.32,2-.9,3.9-2.84,4.48-4.2,1.24-8.42,1.88-12.54,1.88-3.02,0-6.04-.34-8.98-1.02-1.68-.38-2.94-1.8-3.1-3.52-.8-7.77,.56-15.96,3.72-22.87-1.08-2.1-1.34-4.71-.64-7.31,.68-2.44,2-4.39,3.16-6.11l.42-.6c2.66-3.96,4.32-8.29,6.1-12.87,.9-2.34,1.84-4.74,2.92-7.15,2.78-6.15,4.4-12.41,5.1-19.76l.22-2.16c.42-4.36,.84-8.49,.82-12.73,0-.34,0-.94,.04-1.7,.16-6.21,.04-9.11-.16-10.45-.28-.16-.58-.34-.88-.52-.08,.18-.14,.38-.22,.56-2.94,7.59-6.38,15.02-9.72,22.2-1.2,2.58-2.4,5.18-3.58,7.79-3.74,8.21-7.54,17.08-10.16,26.25l-.38,1.32c-1.12,3.88-2.4,8.27-2.5,12.03-.02,1.02,.4,2.36,.84,3.78,.78,2.44,1.74,5.46,.9,8.77-.78,3.08-3.36,5.23-6.26,5.23h-.44c-.14,0-.26-.02-.38-.04,.24,1.9,.48,3.9,.7,5.87,.3,2.58,.6,5.27,.94,7.59,.3,1.98-.9,3.86-2.8,4.44-4.06,1.24-8.12,1.88-12.1,1.88-2.92,0-5.84-.34-8.66-1.02-1.66-.4-2.9-1.82-3.08-3.52-.76-7.73,.54-15.88,3.58-22.74-1.04-2.08-1.3-4.66-.62-7.23,.64-2.42,1.9-4.36,3.02-6.07l.38-.6c2.54-3.94,4.14-8.25,5.84-12.81,.86-2.32,1.76-4.73,2.8-7.11,2.66-6.13,4.22-12.39,4.88-19.68l.2-2.1c.42-4.36,.8-8.49,.8-12.71,0-.34,0-.94,.04-1.72,.16-6.19,.02-9.09-.16-10.41-14.12-8.51-25.73-21.44-33.13-36.82-6.54,3.96-13.32,7.87-20.56,10.95l-.54,.7c-6.36,8.41-11.76,17.58-16.04,27.23-.26,.6-.62,1.3-1,2.04-.56,1.06-1.58,3.06-1.6,3.78,.04,.32,.52,1.38,.8,2.02,.46,1.06,1,2.26,1.26,3.5,1.2,5.75,.62,11.63,0,16.68-.66,5.19,.88,11.23,2.12,16.1,1.28,5.05,3.06,9.87,5.3,14.38,.52,1.04,1,2.2,1.48,3.38,.52,1.28,1.08,2.6,1.6,3.5,.24,.42,.8,.98,1.4,1.54,1.02,1,2.3,2.26,3.16,4.05,1.58,3.26,1.06,7.95-2.56,10.13-.02,0-.06,.04-.08,.04,.3,.56,.64,1.2,.98,1.94,.14,.28,.28,.58,.46,.9,1.42,2.82,4.06,8.09,.4,12.33-3.9,4.5-10.34,7.67-15.7,7.67-4.1,0-7.48-1.76-9.48-4.97-2.32-3.68-2.74-7.87-3.1-11.55-.32-3.06-.6-5.95-1.9-8.05-4.9-7.95-5.12-11.87-3.3-21.22,2.14-11.07,1.36-18.38-2.64-24.47-7-10.63-8.6-24.57-4.08-35.5,3.34-8.09,5.24-14.26,6.14-20.16-.34-.02-.68-.06-1.02-.08-.62,1.48-2.08,2.46-3.7,2.46h-.36c-3.16-.28-6.3-.82-9.42-1.6-1.28,9.55-2.18,19.16-2.68,28.69-.1,1.78-.34,3.52-.58,5.2-.4,2.78-.76,5.41-.36,7.73,.42,2.46,1.2,4.83,2.02,7.33,1.4,4.24,2.86,8.65,2.64,13.92-.1,2.12-.44,4.12-.76,6.05-.4,2.38-.78,4.62-.64,6.75,.26,3.88,2.78,8.99,5.14,12.01,3.2,4.12,4.8,8.85,6.16,13.37,.04,.14,3.62,14.27,1.4,17.26-.52,.7-1.28,1.22-2.1,1.48,.22,3.64,.16,7.33-.62,11.51-.26,1.34-1.16,2.46-2.4,2.98-4.14,1.72-8.76,2.64-13.34,2.64l.08,.08Z"/><path class="cls-2" d="M180.3,537c-4.84,0-9.67-1.05-13.93-3-1.43-.66-2.36-2.11-2.34-3.71,.02-6.76,1.69-13.35,3.51-19.11-1.37-1.99-2.3-4.43-2.7-7.09-.5-3.32-.18-6.5,.12-9.56l.28-2.82c.77-7.81,1.93-19.63-1.35-26.05-3.89-7.63-5-16.27-5.64-24.48-1.96-26.03-11.03-51.75-21.81-80.2l-1.49-2.48c-1.43-2.4-2.92-4.87-4.5-7.29-7.36-11.27-12.03-24.38-13.59-37.67-.6,.34-1.27,.52-1.99,.52-.34,0-.69-.04-1.03-.14-1.85-.5-3.08-2.23-2.96-4.17,.18-3.08-.71-5.66-1.86-8.9-.32-.89-.64-1.79-.93-2.72-1.39-4.29-2.3-9.24-2.74-14.74-.79-10.03,.56-20.2,3.89-29.4,2.22-6.14,5.34-12.08,8.49-17.86h-.28c-.69,0-1.41-.18-2.04-.56-1.49-.91-2.24-2.68-1.86-4.39,1.17-5.21,4.21-10.27,9.29-15.5,1.63-1.67,3.31-3.22,4.94-4.73,2.28-2.11,4.45-4.11,6.37-6.3,5.28-6.02,9.21-14.09,11.71-23.98,2.06-8.23,2.94-16.63,3.79-25.93-.04-1.29,.08-2.56,.32-3.76,.62-2.98,1.59-5.78,2.52-8.5,.42-1.21,.83-2.42,1.21-3.62,.36-1.13,.7-2.15,1.03-3.1-.93-.3-2.4-.58-4.7-.72-.89-.04-1.77-.06-2.66-.06h-2.9c-1.05,0-2.42,0-3.83-.1-8.71-.66-17.07-4.81-22.92-11.4-.87-.99-1.23-2.36-.93-3.64,.3-1.29,1.21-2.36,2.44-2.84l.65-.26c3.73-1.47,7.54-2.98,11.49-3.87-3.61-1.41-7.28-2.58-11.07-3.32-6.39-1.25-12.9-1.33-19.79-1.39-3.35-.04-6.83-.08-10.28-.26-6.81,1.19-13.63,3.75-20.24,6.24l-2.28,.85c-8.75,3.26-18.12,6.46-28,6.46h-1.21c-10.86-.3-20.6-4.99-26.06-12.58-.89-1.23-1.03-3.04-.36-4.41,.71-1.43,2.14-2.34,3.73-2.34,1.03,0,2.16,.46,2.9,1.19,3.65,3.62,9.88,5.7,17.11,5.7,.62,0,1.23,0,1.85-.04,7.62-.38,14.92-3.2,22.98-6.58,0,0,1.65-.68,2.02-.85-8.77-3.78-16.83-9.14-23.68-15.81-3.27-3.16-6.93-6.1-10.38-8.78-8.04-6.24-14.09-12.52-18.46-19.21-5.12-7.97-7.96-16.65-8.14-25.07-.14-7.31,1.96-18,8.36-24.18,.93-.91,2.18-1.43,3.41-1.43,1.67,0,3.16,.95,3.89,2.46,.5,1.05,.58,2.17,.24,3.36-.18,.66-.38,1.33-.58,1.99-.67,2.32-1.33,4.51-1.65,6.7-.52,3.48-.6,7.05-.22,10.61,.5,4.75,1.79,9.32,3.75,13.49-.36-5.84,.64-12.24,2.9-18.99,3.29-9.87,10.56-18.12,19.39-22.09,.6-.26,1.23-.4,1.87-.4,1.93,0,3.65,1.25,4.31,3.1,.65,1.85,.08,3.93-1.43,5.15-11.17,9.2-15.32,25.91-10.3,41.6,2.96,9.28,8.97,17.38,16.93,22.83,3.75,2.58,7.44,4.67,11.15,6.34-.73-1.09-1.41-2.23-2-3.4-4.33-8.38-5.68-18.97-3.81-29.82,1.27-7.37,3.77-13.63,7.4-18.64,3.57-4.91,8.43-8.66,13.65-10.53,.52-.18,1.05-.28,1.59-.28,1.93,0,3.65,1.19,4.37,3.02,.71,1.81,.28,3.89-1.11,5.24-7.84,7.61-12.58,17.88-13.02,28.13,0,.36,.06,.62,.14,.77,.67-.04,1.65-.4,2.1-.56,4.27-1.59,8.69-3.22,12.5-5.54,3.31-2.01,5.85-4.39,7.56-7.03,.83-1.31,2.26-2.09,3.79-2.09,1.33,0,2.6,.58,3.45,1.61,.85,1.03,1.23,2.38,1.01,3.72-.89,5.54-4.56,10.95-10.08,14.9-3.49,2.5-7.3,4.23-10.97,5.92-1.69,.77-3.37,1.53-5,2.38-.1,.04-.18,.1-.26,.14,.58,1.33,2.18,3.77,4.07,5.78,2.26,2.42,5.34,4.51,9.17,6.22,3.04,1.35,6.19,2.38,9.53,3.48,2.52,.83,5.12,1.67,7.68,2.68l1.19,.04c4.46,.12,9.64,.28,14.81,.72,2.22,.2,4.35,.6,6.41,1.01,.65,.12,1.31,.26,1.95,.36-7.12-13.49,.12-28.75,8.47-37.75,.91-.99,2.14-1.51,3.45-1.51,1.49,0,2.92,.72,3.81,1.91,.91,1.21,1.21,2.74,.81,4.21-1.93,7.31-2.56,13.81-1.93,19.83,.81,7.83,3.89,14.72,8.63,19.43,2.58,2.56,5.74,4.57,9.05,6.71,1.37,.89,2.76,1.77,4.09,2.7,4.98,3.42,8.43,6.87,10.66,10.65,2.52-.28,5.22-.42,7.92-.42s5.38,.14,7.88,.42c2.22-3.67,5.6-7.01,10.42-10.35,1.35-.93,2.72-1.81,4.09-2.7,3.32-2.15,6.45-4.19,9.03-6.75,4.74-4.73,7.78-11.64,8.57-19.47,.6-6.04-.06-12.52-2.01-19.83-.4-1.47-.1-3.02,.81-4.21,.91-1.21,2.34-1.91,3.81-1.91,1.31,0,2.54,.52,3.45,1.51,8.41,8.96,15.7,24.18,8.63,37.71,.64-.12,1.29-.24,1.94-.38,2.06-.4,4.19-.83,6.41-1.03,5.16-.46,10.34-.64,14.8-.79l1.19-.04c2.56-1.03,5.16-1.87,7.68-2.72,3.33-1.11,6.49-2.15,9.53-3.52,3.81-1.71,6.89-3.83,9.15-6.26,1.89-2.03,3.49-4.45,4.05-5.8-.08-.04-.16-.08-.26-.14-1.65-.83-3.33-1.59-5.02-2.36-3.67-1.67-7.48-3.38-10.99-5.88-5.54-3.93-9.23-9.34-10.14-14.86-.22-1.35,.14-2.7,1.01-3.75,.87-1.05,2.12-1.63,3.47-1.63,1.53,0,2.94,.79,3.77,2.07,1.71,2.64,4.25,4.97,7.58,6.99,3.81,2.3,8.24,3.93,12.52,5.5,.46,.16,1.49,.54,2.08,.56,.1-.18,.16-.44,.14-.77-.48-10.25-5.26-20.5-13.12-28.07-1.41-1.35-1.87-3.42-1.13-5.24,.71-1.83,2.44-3.02,4.37-3.02,.54,0,1.07,.1,1.57,.28,5.24,1.85,10.1,5.58,13.69,10.49,3.67,4.99,6.19,11.26,7.48,18.62,1.92,10.85,.61,21.44-3.69,29.84-.6,1.17-1.27,2.32-1.98,3.4,3.71-1.67,7.38-3.79,11.13-6.38,7.94-5.5,13.91-13.63,16.83-22.91,4.94-15.7,.74-32.4-10.48-41.56-1.51-1.25-2.1-3.32-1.45-5.17,.65-1.87,2.38-3.12,4.31-3.12,.64,0,1.27,.14,1.85,.4,8.85,3.95,16.14,12.18,19.49,22.01,2.3,6.75,3.31,13.13,2.98,18.99,1.95-4.19,3.2-8.76,3.69-13.51,.36-3.56,.28-7.13-.26-10.61-.34-2.17-.99-4.37-1.69-6.68-.2-.66-.4-1.33-.6-2.01-.34-1.19-.28-2.32,.22-3.36,.71-1.51,2.2-2.46,3.89-2.46,1.23,0,2.46,.52,3.41,1.43,6.41,6.14,8.55,16.83,8.43,24.12-.14,8.44-2.96,17.11-8.14,25.13-4.35,6.7-10.36,13.01-18.38,19.29-3.45,2.7-7.1,5.64-10.36,8.82-6.83,6.68-14.86,12.08-23.62,15.89l2.02,.85c8.08,3.34,15.38,6.14,23,6.48,.56,.02,1.13,.04,1.69,.04,7.28,0,13.55-2.09,17.21-5.76,.76-.75,1.89-1.23,2.94-1.23,1.59,0,3.02,.89,3.73,2.32,.67,1.35,.54,3.16-.34,4.41-5.44,7.61-15.16,12.34-26.02,12.68-.48,0-.93,.02-1.41,.02-9.82,0-19.13-3.14-27.84-6.34l-2.26-.85c-6.61-2.46-13.46-4.99-20.26-6.16-3.45,.2-6.91,.26-10.28,.3-6.89,.1-13.4,.2-19.79,1.47-3.81,.76-7.54,1.95-11.17,3.4,3.63,.89,7.14,2.28,10.58,3.64l.64,.26c1.23,.48,2.14,1.55,2.44,2.84,.3,1.29-.04,2.66-.93,3.64-5.86,6.56-14.21,10.73-22.92,11.4-1.41,.1-2.8,.12-3.83,.12h-2.9c-.89,0-1.77,0-2.66,.04-1.9,.1-3.23,.32-4.17,.56,.42,1.07,.79,2.15,1.13,3.26,.38,1.21,.79,2.42,1.21,3.62,.95,2.72,1.93,5.54,2.52,8.5,.26,1.29,.38,2.62,.32,3.93,1.13,4.87,2.56,9.64,4.27,14.21,1.27,3.38,2.72,6.76,4.31,10.03,.63,1.29,1.41,2.54,2.22,3.85,.79,1.27,1.61,2.58,2.36,4.03,3.06,5.96,5.58,12.26,7.48,18.73,.95,3.24,1.77,6.54,2.42,9.81,.28,1.39,.42,2.82,.56,4.19,.18,1.71,.34,3.34,.74,4.61,.65,2.13-.52,4.41-2.62,5.07-.2,.06-.4,.12-.6,.14,.1,1.35,.18,2.66,.24,3.97,4.86,5.74,8.18,11.62,9.92,17.52,2.76,1.01,5.85,1.61,9.27,1.83,2.12,.12,4.52,.28,6.85,.28,3.87,0,6.87-.42,9.43-1.31,11.53-4.05,21.99-7.49,33.24-8.5,1.13-.1,2.3-.16,3.45-.16,8.24,0,16.13,2.5,23.77,4.89,2.3,.72,4.58,1.45,6.87,2.09,6.79,1.91,11.85,4.33,15.94,7.57,5.44,4.31,8.95,10.27,9.66,16.33,.14,1.15-.22,2.27-.93,3.12,4.09,11.17,6.45,23.13,6.87,34.99,.16,4.73,1.25,9.52,3.14,13.87,.69,1.61,.3,3.5-1.01,4.67-.75,.67-1.69,1.01-2.64,1.01-.71,0-1.41-.18-2.06-.58-.38-.22-.75-.46-1.11-.72-.32,9.87-3.02,19.69-7.92,28.23-.73,1.27-2.06,2.01-3.45,2.01-.18,0-.38,0-.56-.04,1.21,9.14,2.82,18.93,7.05,25.93,6.39,10.55,2.12,21.06-1.65,30.34-.38,.93-.75,1.85-1.11,2.78-3.04,7.67-6.61,15.18-10.06,22.45-1.25,2.62-2.48,5.23-3.71,7.87-3.87,8.32-7.82,17.27-10.54,26.52l-.4,1.33c-1.17,3.93-2.48,8.36-2.6,12.14-.04,1.01,.42,2.36,.87,3.79,.81,2.48,1.81,5.56,.93,8.92-.79,3.08-3.39,5.23-6.31,5.23h-.44c-.22,0-.42-.04-.62-.08,.26,1.93,.5,3.97,.73,5.96,.3,2.62,.62,5.34,.97,7.65,.32,2.01-.89,3.93-2.82,4.51-4.17,1.25-8.36,1.89-12.44,1.89-3,0-5.99-.34-8.91-1.03-1.67-.38-2.92-1.81-3.08-3.54-.79-7.81,.56-16.05,3.69-22.99-1.07-2.11-1.33-4.73-.64-7.35,.67-2.46,1.98-4.41,3.14-6.14l.42-.6c2.64-3.99,4.29-8.34,6.05-12.95,.89-2.36,1.83-4.77,2.9-7.19,2.76-6.18,4.37-12.48,5.06-19.87l.22-2.17c.42-4.39,.83-8.54,.81-12.81,0-.34,0-.95,.04-1.71,.16-6.24,.04-9.16-.16-10.51-.28-.16-.58-.34-.87-.52-.08,.18-.14,.38-.22,.56-2.92,7.63-6.33,15.1-9.65,22.33-1.19,2.6-2.38,5.21-3.55,7.83-3.71,8.26-7.48,17.17-10.08,26.4l-.38,1.33c-1.11,3.91-2.38,8.32-2.48,12.1-.02,1.03,.4,2.38,.83,3.81,.77,2.46,1.73,5.5,.89,8.82-.77,3.1-3.33,5.25-6.21,5.25h-.44c-.14,0-.26-.02-.38-.04,.24,1.91,.48,3.93,.69,5.9,.3,2.6,.6,5.3,.93,7.63,.3,1.99-.89,3.89-2.78,4.47-4.03,1.25-8.06,1.89-12.01,1.89-2.9,0-5.79-.34-8.59-1.03-1.65-.4-2.88-1.83-3.06-3.54-.75-7.77,.54-15.97,3.55-22.87-1.03-2.09-1.29-4.69-.62-7.27,.64-2.44,1.89-4.39,3-6.1l.38-.6c2.52-3.97,4.11-8.29,5.8-12.89,.85-2.34,1.75-4.75,2.78-7.15,2.64-6.16,4.19-12.46,4.84-19.79l.2-2.11c.42-4.39,.79-8.54,.79-12.79,0-.34,0-.95,.04-1.73,.16-6.22,.02-9.14-.16-10.47-14.01-8.56-25.52-21.56-32.86-37.03-6.49,3.99-13.22,7.91-20.4,11.01l-.54,.7c-6.31,8.46-11.67,17.68-15.92,27.38-.26,.6-.62,1.31-.99,2.05-.56,1.07-1.57,3.08-1.59,3.81,.04,.32,.52,1.39,.79,2.03,.46,1.07,.99,2.28,1.25,3.52,1.19,5.78,.62,11.7,0,16.77-.65,5.21,.87,11.29,2.1,16.19,1.27,5.07,3.04,9.93,5.26,14.46,.52,1.05,.99,2.21,1.47,3.4,.52,1.29,1.07,2.62,1.59,3.52,.24,.42,.79,.99,1.39,1.55,1.01,1.01,2.28,2.28,3.14,4.07,1.57,3.28,1.05,7.99-2.54,10.19-.02,0-.06,.04-.08,.04,.3,.56,.63,1.21,.97,1.95,.14,.28,.28,.58,.46,.91,1.41,2.84,4.03,8.13,.4,12.4-3.87,4.53-10.26,7.71-15.58,7.71-4.07,0-7.42-1.77-9.41-4.99-2.3-3.71-2.72-7.91-3.08-11.62-.32-3.08-.6-5.98-1.89-8.09-4.86-7.99-5.08-11.94-3.27-21.34,2.12-11.14,1.35-18.48-2.62-24.61-6.95-10.69-8.53-24.7-4.05-35.7,3.32-8.13,5.2-14.34,6.09-20.27-.34-.02-.68-.06-1.01-.08-.61,1.49-2.06,2.48-3.67,2.48h-.36c-3.14-.28-6.25-.83-9.35-1.61-1.27,9.6-2.16,19.27-2.66,28.85-.1,1.79-.34,3.54-.57,5.24-.4,2.8-.75,5.44-.36,7.77,.42,2.48,1.19,4.85,2,7.37,1.39,4.27,2.84,8.7,2.62,13.99-.1,2.13-.44,4.15-.75,6.08-.4,2.4-.77,4.65-.64,6.79,.26,3.91,2.76,9.04,5.1,12.08,3.18,4.15,4.76,8.9,6.11,13.45,.04,.14,3.59,14.36,1.39,17.36-.52,.71-1.27,1.23-2.08,1.49,.22,3.66,.16,7.37-.62,11.58-.26,1.35-1.15,2.48-2.38,3-4.11,1.73-8.69,2.66-13.24,2.66l.08,.08Z"/></svg>