<?xml version="1.0" encoding="utf-8"?>
<!-- Generator: Adobe Illustrator 26.3.1, SVG Export Plug-In . SVG Version: 6.00 Build 0)  -->
<svg version="1.1" id="圖層_1" xmlns="http://www.w3.org/2000/svg" xmlns:xlink="http://www.w3.org/1999/xlink" x="0px" y="0px"
	 viewBox="0 0 379 84" style="enable-background:new 0 0 379 84;" xml:space="preserve">
<style type="text/css">
	.st0{fill:url(#SVGID_1_);}
	.st1{fill:url(#SVGID_00000154400760965057772810000009661901517757044415_);}
	.st2{fill:url(#SVGID_00000168091821627945005730000005130065888958954368_);}
	.st3{fill:url(#SVGID_00000100353816403888596540000008605635906146914483_);}
	.st4{fill:#F2F2F2;}
</style>
<linearGradient id="SVGID_1_" gradientUnits="userSpaceOnUse" x1="0.4843" y1="36.503" x2="32.0243" y2="36.033" gradientTransform="matrix(1 0 0 -1 0 86)">
	<stop  offset="0" style="stop-color:#FF18B1"/>
	<stop  offset="1" style="stop-color:#7D0454"/>
</linearGradient>
<path class="st0" d="M30.9,17l-17.2,0H2l3.8,4.7L7,23.3l-1.2,1.6l-5.7,7.2l5.7,7.2L7,40.9l-1.2,1.6L0,49.7L5.8,57L7,58.6l-1.2,1.6
	l-5.7,7.2l5.7,7.2L7,76.2l-1.2,1.6L2,82.5l28.9,0V17z"/>
<linearGradient id="SVGID_00000044168857530799684820000009829840435400791471_" gradientUnits="userSpaceOnUse" x1="378.4057" y1="35.0271" x2="346.8657" y2="35.4971" gradientTransform="matrix(1 0 0 -1 0 86)">
	<stop  offset="0" style="stop-color:#FF18B1"/>
	<stop  offset="1" style="stop-color:#7D0454"/>
</linearGradient>
<path style="fill:url(#SVGID_00000044168857530799684820000009829840435400791471_);" d="M348,83.5h17.2h11.7l-3.8-4.7l-1.2-1.6
	l1.2-1.6l5.7-7.2l-5.7-7.2l-1.2-1.6l1.2-1.6l5.8-7.3l-5.8-7.3l-1.2-1.6l1.2-1.6l5.7-7.2l-5.7-7.2l-1.2-1.6l1.2-1.6l3.8-4.7H348V83.5
	z"/>
<linearGradient id="SVGID_00000104701277902865081790000008032817808937997740_" gradientUnits="userSpaceOnUse" x1="31.1836" y1="52.5073" x2="348.024" y2="52.5073" gradientTransform="matrix(1 0 0 -1 0 86)">
	<stop  offset="4.166670e-02" style="stop-color:#FF18B1"/>
	<stop  offset="0.49" style="stop-color:#FF91D7"/>
	<stop  offset="1" style="stop-color:#FF18AF"/>
</linearGradient>
<path style="fill:url(#SVGID_00000104701277902865081790000008032817808937997740_);" d="M348,0H31.2v67H348V0z"/>
<linearGradient id="SVGID_00000181086180824740333580000001262483296381600132_" gradientUnits="userSpaceOnUse" x1="59.3195" y1="75.7502" x2="319.888" y2="75.7502" gradientTransform="matrix(1 0 0 -1 0 86)">
	<stop  offset="0" style="stop-color:#F2F2F2"/>
	<stop  offset="0.83" style="stop-color:#EDEDED"/>
	<stop  offset="0.99" style="stop-color:#EBEBEB"/>
</linearGradient>
<path style="fill:url(#SVGID_00000181086180824740333580000001262483296381600132_);" d="M318.6,11.6H60.9c-0.4,0-0.8-0.1-1.1-0.4
	c-0.3-0.3-0.5-0.6-0.5-1c0-0.4,0.2-0.7,0.5-1c0.3-0.3,0.7-0.4,1.1-0.4h257.7c0.2,0,0.4,0,0.6,0.1c0.2,0.1,0.4,0.2,0.5,0.3
	c0.1,0.1,0.3,0.3,0.3,0.4c0.1,0.2,0.1,0.3,0.1,0.5c0,0.2,0,0.4-0.1,0.5c-0.1,0.2-0.2,0.3-0.3,0.4c-0.1,0.1-0.3,0.2-0.5,0.3
	C319.1,11.6,318.9,11.6,318.6,11.6z"/>
<path class="st4" d="M318.6,58.1H60.9c-0.2,0-0.4,0-0.6-0.1c-0.2-0.1-0.4-0.2-0.5-0.3c-0.1-0.1-0.3-0.3-0.3-0.4
	c-0.1-0.2-0.1-0.3-0.1-0.5c0-0.2,0-0.4,0.1-0.5c0.1-0.2,0.2-0.3,0.3-0.4c0.1-0.1,0.3-0.2,0.5-0.3c0.2-0.1,0.4-0.1,0.6-0.1h257.7
	c0.4,0,0.8,0.1,1.1,0.4c0.3,0.3,0.5,0.6,0.5,1c0,0.4-0.2,0.7-0.5,1C319.5,58,319.1,58.1,318.6,58.1z"/>
</svg>
