<?xml version="1.0" encoding="utf-8"?>
<!-- Generator: Adobe Illustrator 26.3.1, SVG Export Plug-In . SVG Version: 6.00 Build 0)  -->
<svg version="1.1" id="圖層_1" xmlns="http://www.w3.org/2000/svg" xmlns:xlink="http://www.w3.org/1999/xlink" x="0px" y="0px"
	 viewBox="0 0 150.8 84" style="enable-background:new 0 0 150.8 84;" xml:space="preserve">
<style type="text/css">
	.st0{fill:url(#SVGID_1_);}
	.st1{fill:url(#SVGID_00000175309733470505508870000010067187964099813283_);}
	.st2{fill:url(#SVGID_00000163795605234703458210000000392054212284566427_);}
	.st3{fill:#F2F2F2;}
</style>
<linearGradient id="SVGID_1_" gradientUnits="userSpaceOnUse" x1="195.9448" y1="1044.9384" x2="164.3993" y2="1044.4683" gradientTransform="matrix(-1 0 0 1 196.4 -994)">
	<stop  offset="0" style="stop-color:#FF18B1"/>
	<stop  offset="1" style="stop-color:#7D0454"/>
</linearGradient>
<path class="st0" d="M30.9,17.9H2l3.8,4.7L7,24.2l-1.2,1.6L0.1,33l5.7,7.2L7,41.8l-1.2,1.6L0,50.7L5.8,58L7,59.6l-1.2,1.6l-5.7,7.2
	l5.7,7.2L7,77.2l-1.2,1.6L2,83.5h11.7h17.2V17.9z"/>
<linearGradient id="SVGID_00000163038705509719402320000016409043206094333362_" gradientUnits="userSpaceOnUse" x1="45.6" y1="1027.5" x2="165.6" y2="1027.5" gradientTransform="matrix(-1 0 0 1 196.4 -994)">
	<stop  offset="4.166670e-02" style="stop-color:#FF18B1"/>
	<stop  offset="0.49" style="stop-color:#FF91D7"/>
	<stop  offset="1" style="stop-color:#FF18AF"/>
</linearGradient>
<path style="fill:url(#SVGID_00000163038705509719402320000016409043206094333362_);" d="M30.8,67h120V0l-120,0V67z"/>
<linearGradient id="SVGID_00000024722480876608850490000010101244414007784605_" gradientUnits="userSpaceOnUse" x1="73.7" y1="1004.2" x2="137.7" y2="1004.2" gradientTransform="matrix(-1 0 0 1 196.4 -994)">
	<stop  offset="0" style="stop-color:#F2F2F2"/>
	<stop  offset="0.83" style="stop-color:#EDEDED"/>
	<stop  offset="0.99" style="stop-color:#EBEBEB"/>
</linearGradient>
<path style="fill:url(#SVGID_00000024722480876608850490000010101244414007784605_);" d="M59.6,11.3c-0.2-0.1-0.4-0.2-0.5-0.3
	c-0.1-0.1-0.2-0.2-0.3-0.4c-0.1-0.1-0.1-0.3-0.1-0.5s0-0.3,0.1-0.5c0-0.1,0.2-0.3,0.3-0.4s0.3-0.2,0.5-0.3c0.2-0.1,0.4-0.1,0.6-0.1
	h60.9c0.4,0,0.8,0.1,1.1,0.4c0.3,0.3,0.5,0.6,0.5,1s-0.2,0.7-0.5,1c-0.3,0.3-0.7,0.4-1.1,0.4H60.2C60,11.6,59.8,11.6,59.6,11.3z"/>
<path class="st3" d="M59.1,57.9c-0.3-0.3-0.5-0.6-0.5-1s0.2-0.7,0.5-1c0.3-0.3,0.7-0.4,1.1-0.4h60.9c0.2,0,0.4,0,0.6,0.1
	c0.2,0.1,0.4,0.2,0.5,0.3c0.1,0.1,0.2,0.2,0.3,0.4c0.1,0.1,0.1,0.3,0.1,0.5s0,0.3-0.1,0.5c0,0.1-0.2,0.3-0.3,0.4s-0.3,0.2-0.5,0.3
	s-0.4,0.1-0.6,0.1H60.2C59.8,58.1,59.4,58,59.1,57.9z"/>
</svg>
