<svg width="179" height="169" viewBox="0 0 179 169" fill="none" xmlns="http://www.w3.org/2000/svg">
<path d="M45.9527 167.163C45.973 167.307 45.9595 167.454 45.9133 167.592C45.8671 167.731 45.7894 167.856 45.6865 167.959C45.5835 168.062 45.458 168.14 45.3198 168.186C45.1817 168.232 45.0347 168.246 44.8905 168.225H33.5895C33.4463 168.249 33.2995 168.238 33.1612 168.194C33.0228 168.15 32.8968 168.074 32.7933 167.972C32.6898 167.871 32.6118 167.746 32.5656 167.608C32.5194 167.471 32.5063 167.324 32.5274 167.181V148.009C32.5274 147.727 32.6393 147.457 32.8385 147.258C33.0377 147.059 33.3078 146.947 33.5895 146.947C33.8713 146.947 34.1414 147.059 34.3406 147.258C34.5398 147.457 34.6517 147.727 34.6517 148.009V166.014H44.8905C45.0434 165.989 45.1999 166.003 45.3462 166.054C45.4926 166.105 45.6241 166.191 45.7292 166.304C45.8343 166.418 45.9097 166.556 45.9486 166.706C45.9876 166.855 45.989 167.013 45.9527 167.163Z" fill="#121212"/>
<path d="M64.1838 167.164C64.2073 167.307 64.1966 167.454 64.1527 167.592C64.1088 167.73 64.0328 167.857 63.931 167.96C63.8292 168.063 63.7045 168.142 63.5669 168.188C63.4293 168.234 63.2827 168.247 63.1391 168.226H54.6416C54.3599 168.226 54.0897 168.114 53.8905 167.915C53.6913 167.716 53.5794 167.445 53.5794 167.164C53.5794 166.882 53.6913 166.612 53.8905 166.413C54.0897 166.213 54.3599 166.102 54.6416 166.102H57.8281V149.037H54.6416C54.3599 149.037 54.0897 148.925 53.8905 148.726C53.6913 148.527 53.5794 148.256 53.5794 147.975C53.5794 147.693 53.6913 147.423 53.8905 147.224C54.0897 147.025 54.3599 146.913 54.6416 146.913H63.1391C63.4208 146.913 63.6909 147.025 63.8901 147.224C64.0893 147.423 64.2013 147.693 64.2013 147.975C64.2013 148.256 64.0893 148.527 63.8901 148.726C63.6909 148.925 63.4208 149.037 63.1391 149.037H59.9525V166.015H63.1391C63.2915 165.989 63.448 166.002 63.5941 166.052C63.7403 166.103 63.8714 166.189 63.9754 166.304C64.0794 166.418 64.153 166.557 64.1894 166.707C64.2258 166.857 64.2239 167.014 64.1838 167.164Z" fill="#121212"/>
<path d="M85.9848 150.778C85.9753 151.061 85.8567 151.329 85.6539 151.527C85.5488 151.64 85.4196 151.728 85.2759 151.784C85.1321 151.84 84.9775 151.863 84.8236 151.852C84.6697 151.84 84.5204 151.794 84.3868 151.716C84.2532 151.639 84.1388 151.532 84.052 151.405L83.4599 150.691C83.0316 150.175 82.5009 149.754 81.9014 149.455C81.3019 149.155 80.6468 148.983 79.9774 148.95C79.3163 148.964 78.6654 149.115 78.0659 149.393C77.4664 149.672 76.9314 150.073 76.4948 150.569C75.5738 151.559 74.8996 152.752 74.5271 154.052C73.8123 156.318 73.8123 158.75 74.5271 161.017C74.8953 162.318 75.57 163.512 76.4948 164.499C76.9314 164.996 77.4664 165.396 78.0659 165.675C78.6654 165.954 79.3163 166.105 79.9774 166.119C80.7478 166.099 81.503 165.899 82.183 165.537C82.8631 165.174 83.4493 164.658 83.8952 164.029V157.517C83.8952 157.235 84.0072 156.965 84.2064 156.766C84.4056 156.566 84.6757 156.455 84.9574 156.455C85.2391 156.455 85.5093 156.566 85.7085 156.766C85.9077 156.965 86.0196 157.235 86.0196 157.517V164.29C86.0196 165.265 85.236 166.171 83.6689 167.024C82.5458 167.687 81.2795 168.069 79.9774 168.139C78.75 168.143 77.5432 167.824 76.4791 167.212C75.415 166.601 74.5313 165.719 73.9177 164.656C72.5873 162.548 71.8812 160.106 71.8812 157.613C71.8812 155.119 72.5873 152.677 73.9177 150.569C74.5299 149.509 75.4107 148.628 76.4715 148.017C77.5323 147.406 78.7356 147.085 79.9599 147.086C81.1167 147.099 82.2505 147.411 83.251 147.992C84.2693 148.56 85.14 149.359 85.7933 150.325C85.8928 150.458 85.9585 150.614 85.9848 150.778Z" fill="#121212"/>
<path d="M105.609 167.164C105.628 167.313 105.616 167.465 105.571 167.61C105.527 167.754 105.453 167.887 105.353 168.001C105.254 168.114 105.131 168.205 104.993 168.267C104.856 168.329 104.707 168.361 104.556 168.361C104.405 168.361 104.255 168.329 104.118 168.267C103.98 168.205 103.858 168.114 103.758 168.001C103.658 167.887 103.584 167.754 103.54 167.61C103.496 167.465 103.483 167.313 103.502 167.164V158.579H95.7708V167.164C95.7708 167.445 95.6589 167.715 95.4597 167.915C95.2605 168.114 94.9903 168.226 94.7086 168.226C94.4269 168.226 94.1567 168.114 93.9575 167.915C93.7583 167.715 93.6464 167.445 93.6464 167.164V148.009C93.6464 147.728 93.7583 147.458 93.9575 147.258C94.1567 147.059 94.4269 146.947 94.7086 146.947C94.9903 146.947 95.2605 147.059 95.4597 147.258C95.6589 147.458 95.7708 147.728 95.7708 148.009V156.489H103.554V148.009C103.535 147.86 103.548 147.708 103.592 147.563C103.636 147.419 103.711 147.286 103.81 147.172C103.91 147.059 104.033 146.968 104.17 146.906C104.308 146.844 104.457 146.812 104.608 146.812C104.759 146.812 104.908 146.844 105.046 146.906C105.183 146.968 105.306 147.059 105.405 147.172C105.505 147.286 105.58 147.419 105.624 147.563C105.668 147.708 105.681 147.86 105.661 148.009L105.609 167.164Z" fill="#121212"/>
<path d="M127.393 148.009C127.413 148.154 127.399 148.301 127.353 148.439C127.307 148.577 127.229 148.702 127.126 148.805C127.023 148.908 126.898 148.986 126.76 149.032C126.622 149.078 126.475 149.092 126.33 149.072H121.107V167.164C121.126 167.313 121.113 167.465 121.069 167.61C121.025 167.754 120.95 167.887 120.851 168.001C120.751 168.114 120.628 168.205 120.491 168.267C120.353 168.329 120.204 168.361 120.053 168.361C119.902 168.361 119.753 168.329 119.615 168.267C119.478 168.205 119.355 168.114 119.255 168.001C119.156 167.887 119.081 167.754 119.037 167.61C118.993 167.465 118.98 167.313 119 167.164V149.037H113.602C113.32 149.037 113.05 148.925 112.85 148.726C112.651 148.526 112.539 148.256 112.539 147.975C112.539 147.693 112.651 147.423 112.85 147.223C113.05 147.024 113.32 146.912 113.602 146.912H126.33C126.478 146.891 126.629 146.904 126.77 146.952C126.911 147 127.039 147.081 127.143 147.189C127.246 147.296 127.323 147.426 127.367 147.569C127.41 147.712 127.419 147.863 127.393 148.009Z" fill="#121212"/>
<path d="M45.9526 124.554C45.9688 124.832 45.8742 125.104 45.6897 125.311C45.5052 125.518 45.2459 125.644 44.9688 125.66C44.6917 125.676 44.4196 125.582 44.2122 125.397C44.0048 125.213 43.8793 124.953 43.8631 124.676L42.0348 110.99L39.597 120.393C39.4228 121.037 39.0746 121.351 38.5348 121.351C37.995 121.351 37.6467 121.037 37.4726 120.393L35.0348 110.99L33.2064 124.676C33.1903 124.953 33.0647 125.213 32.8573 125.397C32.65 125.582 32.3778 125.676 32.1007 125.66C31.8236 125.644 31.5643 125.518 31.3798 125.311C31.1953 125.104 31.1007 124.832 31.1169 124.554V124.363L33.6592 105.418C33.752 104.721 34.1003 104.373 34.7039 104.373C34.9612 104.371 35.21 104.464 35.4027 104.635C35.5955 104.805 35.7187 105.04 35.7487 105.296L38.5174 116.022L41.286 105.278C41.4601 104.686 41.791 104.373 42.3134 104.373C42.4555 104.363 42.5981 104.383 42.7321 104.432C42.8661 104.48 42.9886 104.556 43.0917 104.654C43.1949 104.752 43.2765 104.871 43.3313 105.002C43.3862 105.134 43.4131 105.275 43.4104 105.418L45.9352 124.363C45.9489 124.426 45.9547 124.49 45.9526 124.554Z" fill="#121212"/>
<path d="M65.6116 118.877C65.6116 120.66 64.9035 122.37 63.643 123.63C62.3825 124.891 60.6729 125.599 58.8903 125.599C57.1076 125.599 55.398 124.891 54.1375 123.63C52.877 122.37 52.1689 120.66 52.1689 118.877V105.435C52.1689 105.153 52.2808 104.883 52.48 104.684C52.6792 104.484 52.9494 104.373 53.2311 104.373C53.5128 104.373 53.783 104.484 53.9821 104.684C54.1813 104.883 54.2933 105.153 54.2933 105.435V118.877C54.2933 120.097 54.7776 121.266 55.6397 122.128C56.5018 122.99 57.6711 123.474 58.8903 123.474C60.1095 123.474 61.2787 122.99 62.1408 122.128C63.0029 121.266 63.4872 120.097 63.4872 118.877V105.435C63.4872 105.153 63.5992 104.883 63.7984 104.684C63.9976 104.484 64.2677 104.373 64.5494 104.373C64.8311 104.373 65.1013 104.484 65.3005 104.684C65.4997 104.883 65.6116 105.153 65.6116 105.435V118.877Z" fill="#121212"/>
<path d="M86.6637 124.519C86.6625 124.8 86.5498 125.07 86.3503 125.268C86.2556 125.373 86.1401 125.456 86.0111 125.513C85.8821 125.571 85.7426 125.6 85.6015 125.6C85.4605 125.6 85.3209 125.571 85.192 125.513C85.063 125.456 84.9475 125.373 84.8528 125.268L76.512 116.927C76.2522 116.708 76.0895 116.395 76.0593 116.057C76.0593 115.343 76.4772 114.977 77.3304 114.977H80.308C80.8655 114.989 81.4195 114.885 81.9349 114.672C82.4504 114.46 82.9162 114.142 83.303 113.741C83.8935 113.147 84.2952 112.391 84.4576 111.569C84.62 110.748 84.5359 109.896 84.2159 109.122C83.8958 108.348 83.3541 107.686 82.6588 107.219C81.9635 106.752 81.1457 106.501 80.308 106.497H75.3628V124.537C75.3628 124.818 75.2509 125.089 75.0517 125.288C74.8525 125.487 74.5823 125.599 74.3006 125.599C74.0189 125.599 73.7487 125.487 73.5495 125.288C73.3503 125.089 73.2384 124.818 73.2384 124.537V105.383C73.2156 105.241 73.2261 105.096 73.2692 104.959C73.3122 104.822 73.3865 104.697 73.4862 104.594C73.5859 104.491 73.7083 104.413 73.8436 104.365C73.9789 104.318 74.1235 104.302 74.2658 104.32H80.308C81.9384 104.406 83.4739 105.113 84.5977 106.298C85.7216 107.482 86.3481 109.052 86.3481 110.685C86.3481 112.317 85.7216 113.888 84.5977 115.072C83.4739 116.256 81.9384 116.964 80.308 117.049H79.6638L86.3503 123.736C86.456 123.836 86.5387 123.958 86.5928 124.093C86.6469 124.228 86.6711 124.374 86.6637 124.519Z" fill="#121212"/>
<path d="M107.037 124.554C107.022 124.814 106.912 125.06 106.728 125.245C106.544 125.429 106.298 125.539 106.038 125.554C105.777 125.569 105.521 125.488 105.316 125.326C105.112 125.164 104.975 124.933 104.93 124.676L103.189 110.989L100.751 120.392C100.577 121.037 100.228 121.35 99.6886 121.35C99.1488 121.35 98.8005 121.037 98.6264 120.392L96.206 110.989L94.2732 124.676C94.274 124.806 94.2471 124.936 94.1944 125.055C94.1416 125.174 94.0641 125.281 93.967 125.368C93.8699 125.456 93.7554 125.521 93.6311 125.561C93.5068 125.601 93.3755 125.614 93.2458 125.599C93.1025 125.622 92.9558 125.612 92.8174 125.568C92.6791 125.524 92.553 125.448 92.4496 125.346C92.3461 125.244 92.268 125.119 92.2218 124.982C92.1756 124.844 92.1625 124.698 92.1836 124.554C92.1758 124.49 92.1758 124.426 92.1836 124.363L94.7259 105.417C94.8188 104.721 95.167 104.373 95.7707 104.373C96.0288 104.374 96.2779 104.468 96.4728 104.637C96.6676 104.807 96.7954 105.04 96.8328 105.295L99.5841 116.022L102.353 105.278C102.39 105.027 102.516 104.798 102.708 104.632C102.899 104.466 103.144 104.374 103.397 104.373C103.539 104.363 103.681 104.383 103.814 104.431C103.947 104.48 104.068 104.556 104.17 104.654C104.272 104.753 104.352 104.872 104.405 105.003C104.458 105.135 104.482 105.276 104.477 105.417L107.019 124.363C107.019 124.363 107.037 124.502 107.037 124.554Z" fill="#121212"/>
<path d="M126.679 118.877C126.684 120.207 126.294 121.509 125.557 122.616C124.821 123.723 123.772 124.587 122.544 125.096C121.315 125.606 119.963 125.739 118.659 125.478C117.355 125.217 116.159 124.574 115.221 123.631C114.57 123.024 114.052 122.287 113.701 121.469C113.351 120.651 113.174 119.768 113.184 118.877V105.435C113.184 105.153 113.295 104.883 113.495 104.684C113.694 104.484 113.964 104.373 114.246 104.373C114.527 104.373 114.798 104.484 114.997 104.684C115.196 104.883 115.308 105.153 115.308 105.435V118.877C115.299 119.484 115.415 120.087 115.648 120.647C115.882 121.207 116.228 121.713 116.666 122.134C117.31 122.773 118.129 123.207 119.019 123.382C119.909 123.557 120.831 123.465 121.669 123.116C122.507 122.768 123.223 122.18 123.727 121.426C124.231 120.671 124.501 119.785 124.502 118.877V105.435C124.502 105.153 124.614 104.883 124.813 104.684C125.012 104.484 125.282 104.373 125.564 104.373C125.846 104.373 126.116 104.484 126.315 104.684C126.514 104.883 126.626 105.153 126.626 105.435L126.679 118.877Z" fill="#121212"/>
<path d="M147.748 124.519C147.747 124.66 147.717 124.799 147.661 124.928C147.604 125.057 147.521 125.173 147.417 125.268C147.323 125.373 147.208 125.457 147.079 125.514C146.95 125.571 146.81 125.6 146.669 125.599C146.53 125.6 146.393 125.571 146.267 125.514C146.14 125.457 146.028 125.373 145.937 125.268L137.562 116.927C137.428 116.822 137.318 116.69 137.237 116.54C137.156 116.391 137.107 116.226 137.092 116.057C137.092 115.343 137.509 114.977 138.363 114.977H141.34C141.9 114.989 142.457 114.886 142.975 114.673C143.494 114.46 143.963 114.143 144.353 113.741C144.944 113.146 145.346 112.389 145.508 111.565C145.67 110.742 145.584 109.889 145.262 109.114C144.94 108.339 144.396 107.677 143.698 107.212C143 106.746 142.179 106.497 141.34 106.497H136.43V124.537C136.43 124.818 136.318 125.089 136.119 125.288C135.92 125.487 135.649 125.599 135.368 125.599C135.086 125.599 134.816 125.487 134.617 125.288C134.417 125.089 134.305 124.818 134.305 124.537V105.383C134.282 105.239 134.293 105.092 134.337 104.954C134.381 104.816 134.456 104.69 134.558 104.586C134.66 104.483 134.785 104.405 134.922 104.359C135.06 104.312 135.207 104.299 135.35 104.32H141.375C142.239 104.275 143.103 104.406 143.914 104.706C144.726 105.005 145.468 105.467 146.095 106.062C146.723 106.657 147.222 107.374 147.564 108.169C147.905 108.964 148.081 109.82 148.081 110.685C148.081 111.55 147.905 112.406 147.564 113.2C147.222 113.995 146.723 114.712 146.095 115.307C145.468 115.903 144.726 116.364 143.914 116.664C143.103 116.963 142.239 117.094 141.375 117.049H140.748L147.417 123.736C147.529 123.832 147.617 123.953 147.675 124.089C147.732 124.225 147.757 124.372 147.748 124.519Z" fill="#121212"/>
<path d="M169.549 41.7908C167.466 41.9349 165.503 42.8231 164.02 44.2935C162.537 45.7639 161.632 47.7185 161.47 49.8007C160.825 57.5843 158.213 66.3778 151.126 70.5568C150.52 70.8692 149.867 71.081 149.193 71.1837C149.023 70.7698 148.813 70.3733 148.567 69.9996L129.012 4.30089C128.315 1.7412 125.373 0.557129 120.149 0.557129C115.935 0.557129 113.131 1.63092 111.738 3.77851L89.2932 42.0868L66.8655 3.81333C65.5073 1.7412 62.6864 0.557129 58.3331 0.557129C53.3415 0.557129 50.5032 1.80505 49.8183 4.30089L30.0721 70.4698C29.4823 71.5835 29.1498 72.8153 29.099 74.0745C29.0482 75.3337 29.2805 76.5883 29.7788 77.7459C30.277 78.9034 31.0285 79.9345 31.9779 80.7633C32.9273 81.592 34.0505 82.1972 35.2648 82.5345C36.4791 82.8717 37.7535 82.9323 38.9943 82.7118C40.2351 82.4914 41.4107 81.9955 42.4345 81.2606C43.4583 80.5257 44.3042 79.5706 44.9101 78.4655C45.5159 77.3605 45.8662 76.1336 45.9352 74.8752C46.0397 74.6837 61.0321 24.0993 61.0321 24.0993L80.8132 57.6539C82.1946 59.8479 85.0619 60.974 89.4151 61.032C93.7857 61.032 96.6415 59.9002 98.0171 57.6539L117.781 24.1167C117.781 24.1167 132.878 74.8752 133.069 75.1364C133.417 79.4896 138.641 82.9026 141.48 82.9026C141.723 82.9026 141.95 82.9026 142.194 82.9026C143.185 83.0495 144.186 83.1193 145.189 83.1115C146.647 83.1355 148.104 83.0248 149.542 82.7807L150.534 82.5369C167.268 78.3578 177.437 68.9026 178.969 51.1937C179.076 49.9306 178.905 48.6596 178.468 47.4694C178.032 46.2793 177.341 45.1987 176.444 44.3033C175.547 43.4078 174.465 42.719 173.274 42.2851C172.083 41.8511 170.812 41.6824 169.549 41.7908Z" fill="#121212"/>
<path d="M70.8356 83.3379C76.5191 83.3379 81.1266 78.7304 81.1266 73.0469C81.1266 67.3633 76.5191 62.7559 70.8356 62.7559C65.152 62.7559 60.5446 67.3633 60.5446 73.0469C60.5446 78.7304 65.152 83.3379 70.8356 83.3379Z" fill="#121212"/>
<path d="M110.694 83.0588C116.226 81.7532 119.652 76.2106 118.346 70.679C117.041 65.1475 111.498 61.7216 105.966 63.0272C100.435 64.3327 97.0089 69.8753 98.3145 75.4069C99.6201 80.9385 105.163 84.3644 110.694 83.0588Z" fill="#121212"/>
<path d="M14.4353 0C13.2512 12.485 8.28852 18.7885 0 21.1915C8.70643 22.5845 13.0596 29.8979 14.679 41.965C16.0198 29.776 20.7736 23.0895 29.0795 20.791C20.3382 19.1542 16.4726 11.301 14.4353 0Z" fill="#121212"/>
</svg>
