<svg width="1941" height="1389" viewBox="0 0 1941 1389" fill="none" xmlns="http://www.w3.org/2000/svg">
<path d="M0.0368652 143.981H42.6528C42.7173 144.643 43.8589 145.626 45.0374 145.84C46.4551 146.074 48.4805 145.663 50.1929 145.453C50.8741 145.367 51.3897 144.915 52.0342 144.882C60.1358 144.47 64.6284 141.752 69.6919 139.408C72.6655 138.03 75.7866 137.549 79.9939 138.425C82.4336 138.935 85.3887 138.923 87.9849 139.309C92.588 139.996 97.4766 140.506 101.527 141.616C114.103 145.067 125.059 144.429 134.495 139.424C140.019 136.492 145.368 133.478 151.297 130.718C156.765 128.177 158.772 128.526 163.136 131.499C165.41 133.05 168.66 134.378 171.8 135.612C177.084 137.693 182.488 139.725 188.159 141.596C193.542 143.4 199.193 145.039 205.071 146.502C210.218 147.76 215.548 147.477 220.888 146.198C223.42 145.668 226.291 145.557 228.989 145.885C233.648 146.506 237.892 147.74 242.532 148.418C247.549 149.155 252.852 149.504 257.98 150.1C260.909 150.431 263.78 150.857 266.57 151.375C271.173 152.26 275.61 153.366 280.287 154.188C286.501 155.278 292.089 155.175 298.396 153.432C310.254 150.142 323.943 148.908 337.661 148.007C342.319 147.699 345.615 148.558 348.856 150.125C356.7 153.909 365.961 156.121 378.316 155.06C388.977 154.127 399.868 153.736 410.594 152.926C413.457 152.712 415.979 151.651 418.879 151.342C422.562 150.931 426.695 150.471 430.286 150.795C440.914 151.819 451.892 151.889 462.582 151.001C466.411 150.664 470.407 149.381 473.095 148.036C483.02 143.101 495.771 142.513 509.295 142.821C510.225 142.816 511.136 142.941 511.9 143.179C520.766 146.798 532.863 146.152 543.128 147.925C553.393 149.697 563.851 151.305 574.208 153C577.155 153.481 578.674 153.279 581.297 152.083C584.363 150.676 589.813 149.706 594.315 149.636C611.393 149.368 627.191 147.139 642.584 144.141C645.199 143.631 646.754 143.94 648.789 144.52C658.999 147.399 669.218 150.318 679.584 153.103C682.611 153.919 685.922 154.504 689.38 154.834C692.335 155.105 695.557 154.834 698.66 154.76C700.317 154.719 702.057 154.349 703.594 154.476C712.248 155.299 720.856 156.203 729.483 157.084H739.61C740.56 156.382 741.592 155.704 742.703 155.052C744.599 154.032 747.306 153.218 748.558 152.07C752.683 148.229 757.764 144.964 766.418 142.755C773.286 140.995 779.491 138.68 785.687 136.443C798.061 131.977 811.465 130.274 826.803 132.939C844.635 136.052 861.548 133.716 878.229 131.018C881.47 130.492 883.946 129.016 886.754 127.971C891.1 126.351 895.16 124.541 899.837 123.147C905.103 121.58 908.399 122.361 910.884 124.932C912.284 126.384 914.18 128.053 916.96 128.872C927.299 131.911 938.071 134.658 948.787 137.434C949.606 137.644 951.346 137.29 952.469 137.051C953.39 136.862 953.97 136.323 954.891 136.151C966.386 134.004 977.91 131.882 989.46 129.785C990.909 129.561 992.392 129.385 993.898 129.258C998.446 128.781 1002.01 129.213 1004.2 131.265C1006.58 133.482 1011.33 134.349 1016.07 135.209C1018.83 135.719 1021.59 136.106 1021.48 138.006C1021.41 139.486 1027.22 140.259 1030.32 139.679C1034.73 138.857 1037.36 137.672 1039.52 135.649C1042.98 132.338 1047.81 132.042 1054.61 134.197C1058.5 135.431 1061.74 135.205 1065.46 133.983C1071.24 132.088 1077.28 130.327 1083.38 128.637C1086.73 127.712 1089.48 128.251 1090.31 129.986C1094.91 139.679 1108.85 139.967 1125.56 139.161C1134.96 138.705 1144.15 137.467 1153.5 136.735C1156.45 136.504 1159.48 136.562 1162.37 136.903C1167.82 137.57 1172.99 138.742 1178.48 139.301C1182.66 139.712 1187.61 140.095 1191.37 139.486C1200.69 137.981 1209.6 135.949 1218.53 134.004C1220.4 133.554 1221.86 132.827 1222.67 131.948C1227.03 126.659 1237.4 123.723 1250.13 124.71C1262.61 125.697 1275.17 126.68 1286.32 129.719C1290.06 130.655 1293.97 131.456 1298 132.112C1303.82 133.169 1309.1 133.712 1315.77 132.281C1321.69 131.014 1329.18 131.047 1336.02 130.858C1348.4 130.492 1360.82 130.484 1373.18 130.109C1379.68 129.88 1386.12 129.425 1392.46 128.748C1397.82 128.201 1402.08 128.946 1406.2 130.27C1416.33 133.531 1427.95 134.938 1440.18 135.328C1447.95 135.575 1455.24 135.044 1461.58 132.544C1465.26 131.08 1470.25 130.249 1474.64 129.139C1475.4 129.764 1475.72 129.924 1475.65 129.99C1472.89 132.491 1476.63 133.383 1480.8 134.206C1493.54 136.727 1506.85 138.018 1520.72 138.676C1537.76 139.498 1554.69 140.794 1571.61 142.032C1579.75 142.628 1587.81 143.406 1595.76 144.363C1598.7 144.721 1601.23 145.774 1603.86 146.564C1605.71 147.131 1607.34 147.925 1609.34 148.377C1611.84 148.941 1614.25 148.789 1615.14 147.353C1616.34 145.437 1619.56 144.952 1623 145.634C1637.57 148.513 1651.26 145.926 1664.97 144.326C1670.75 143.652 1674.69 144.022 1679.08 145.791C1684.01 147.706 1689.35 149.406 1695.01 150.865C1698.62 151.832 1702.37 151.194 1706.35 150.454C1714.97 148.89 1723.79 147.546 1732.75 146.428C1737.26 145.856 1741.51 146.872 1744.92 148.27C1751.37 150.907 1759.26 152.247 1767.46 153.115C1770.41 153.428 1774.07 152.913 1777.12 152.42C1794.82 149.541 1812.43 146.58 1830.1 143.668C1832.13 143.388 1834.18 143.16 1836.27 142.986L1835.87 143.652C1838.45 144.203 1841.09 144.717 1843.61 145.322C1846.61 146.05 1849.9 146.662 1852.34 147.674C1855.83 149.126 1859.46 149.71 1864.03 149.2C1868.04 148.752 1872.04 148.291 1876.06 147.876C1880.5 147.423 1884.14 147.51 1888.29 148.998C1891.79 150.232 1897.36 150.368 1902.05 150.923C1902.54 150.981 1903.27 150.565 1903.89 150.405C1908.59 149.266 1913.18 148.011 1918.04 147.033C1918.55 146.93 1919.02 146.843 1919.46 146.769H1923.83C1924.59 147.152 1924.85 147.917 1924.89 149.142L1941 146.782V11.2696H1911C1908.76 10.2909 1906.89 11.3231 1905.19 12.0017C1904.99 12.1062 1904.72 12.182 1904.42 12.2196C1895.81 12.6556 1891.23 15.6783 1885.7 18.0759C1883.13 19.1904 1880.46 19.5112 1876.94 18.8737C1874.18 18.3638 1870.97 18.2815 1868.08 17.8497C1863.47 17.1629 1858.6 16.6159 1854.54 15.5302C1841.82 12.0798 1831.17 12.7214 1821.61 17.7921C1816.18 20.6709 1810.94 23.6401 1805.13 26.3626C1799.54 28.9864 1797.38 28.6533 1792.98 25.6142C1790.62 24.1218 1787.82 22.7809 1784.65 21.6291C1779.35 19.5728 1773.9 17.5413 1768.25 15.6701C1763 13.9033 1757.5 12.28 1751.81 10.809C1746.38 9.42723 1740.82 9.64108 1735.15 11.0064C1732.6 11.5275 1729.72 11.6195 1727.04 11.2655C1722.24 10.6075 1717.83 9.35731 1713.08 8.64584C1708.33 7.93438 1703.34 7.62594 1698.49 7.07486C1695.55 6.76789 1692.66 6.36376 1689.86 5.86578C1684.95 4.94046 1680.26 3.76839 1675.3 2.90887C1669.38 1.88074 1664.06 2.00412 1658.05 3.67792C1646.2 6.96794 1632.53 8.22638 1618.81 9.15581C1614.01 9.4807 1610.59 8.64173 1607.21 7.00494C1599.5 3.2831 1590.34 1.0788 1578.2 2.11516C1567.67 3.01169 1556.94 3.38592 1546.37 4.17142C1543.2 4.41406 1540.4 5.52855 1537.23 5.86989C1533.55 6.28114 1529.43 6.6636 1525.79 6.36339C1514.99 5.47919 1504.19 5.22834 1493.48 6.19067C1489.77 6.56654 1486.43 7.45784 1483.93 8.73631C1474.24 13.9263 1461.35 14.7447 1447.65 14.3582C1444.42 14.2718 1441.4 13.0216 1438.15 12.4541C1434.4 11.8043 1430.55 11.2655 1426.68 10.7802C1422.43 10.2415 1418 9.95775 1413.79 9.31619C1403.07 7.67118 1392.45 5.89046 1381.79 4.16319C1379.03 3.71904 1377.56 3.81363 1375.06 5.0186C1371.72 6.49732 1367.3 7.38806 1362.6 7.52725C1345.11 7.8069 1328.86 10.0811 1312.93 13.0833C1312.12 13.1855 1311.28 13.2126 1310.44 13.1631C1309.61 13.1136 1308.8 12.9885 1308.08 12.7954C1300.28 10.6199 1292.79 8.20993 1284.87 6.12488C1279.35 4.66055 1273.52 3.43758 1267.46 2.47295C1264.46 2.00412 1260.75 2.40303 1257.34 2.47295C1255.83 2.49762 1254.23 2.88418 1252.84 2.73613C1244.04 1.91362 1235.3 0.980089 1226.52 0.0835571H1217.32C1216.49 0.646974 1215.94 1.5065 1214.78 1.72858C1209.69 2.67857 1207.84 4.71015 1205.74 6.6636C1202.76 9.67911 1197.8 12.2189 1191.51 13.9469C1184.33 15.888 1177.97 18.4296 1170.97 20.5269C1165.69 22.1453 1160.12 23.5689 1154.32 24.7834C1146.95 26.2845 1139.08 25.7951 1131.87 24.5284C1113.81 21.3536 1096.54 23.1631 1079.45 25.9226C1075.91 26.4942 1073.01 27.9336 1069.96 29.0481C1065.45 30.6931 1061.34 32.5726 1056.55 34.0119C1051.08 35.657 1047.87 34.855 1045.23 32.1531C1043.77 30.652 1041.55 28.9823 1038.67 28.1228C1028.54 25.1659 1018.05 22.4968 1007.56 19.8155C1006.69 19.5934 1004.8 20.0211 1003.56 20.2679C1002.63 20.4488 1001.96 20.9341 1001.01 21.1109C989.81 23.2124 978.597 25.3181 967.31 27.3373C964.935 27.7486 962.173 28.1598 959.733 28.0035C957.293 27.8472 954.154 27.3085 953.003 26.4737C950.165 24.423 945.826 22.8741 940.722 22.0897C937.712 21.5756 934.452 21.2466 934.701 19.0876C934.867 17.6975 928.818 17.0601 925.707 17.5824C921.103 18.3514 918.765 19.6839 916.62 21.6414C913.112 24.8328 908.334 25.1536 901.825 23.0726C897.802 21.7731 894.46 21.9746 890.621 23.2823C885.286 25.1143 879.712 26.8034 873.93 28.3408C869.143 29.5951 867.246 29.0769 865.571 26.6958C864.738 25.3098 863.638 23.9586 862.284 22.6572C858.243 19.178 851.163 17.9484 842.859 17.7962C829.666 17.5495 816.915 18.7503 804.349 20.3254C800.411 20.8835 796.161 20.8137 792.325 20.128C788.053 19.3713 783.542 18.8737 779.344 18.0512C776.621 17.4872 773.658 17.1923 770.657 17.1866C767.655 17.181 764.687 17.4646 761.953 18.0183C754.229 19.5194 746.625 21.1397 739.039 22.7724C737.513 23.083 736.165 23.5448 735.098 24.1227C734.031 24.7006 733.272 25.3794 732.88 26.1077C730.118 30.4793 717.229 33.4362 705.39 32.441C692.611 31.3676 679.934 30.1708 668.398 27.1646C662.875 25.7375 656.569 24.952 650.548 23.9527C649.231 23.7347 647.224 23.5867 646.211 23.8746C638.119 26.2023 628.793 25.9596 619.918 26.3009C607.121 26.7903 594.223 26.7122 581.389 27.0741C575.48 27.2755 569.624 27.7201 563.897 28.4025C558.539 29.0152 554.286 28.2791 550.143 26.9631C539.574 23.5908 527.569 22.1226 514.809 21.8306C507.499 21.6661 500.705 22.2419 494.758 24.5819C491.029 26.0542 486.076 26.9055 481.703 28.0282C480.948 27.4442 480.608 27.2921 480.681 27.2057C483.526 24.3845 478.84 23.673 474.596 22.8012C459.424 19.6715 443.165 19.0218 426.824 18.1211C407.104 17.0313 387.624 15.0573 368.014 13.5521C360.732 12.9928 354.38 11.9071 349.123 9.39844C345.698 7.75342 342.678 8.18524 340.69 10.1675C339.41 11.4629 337.403 11.8783 334.457 11.6439C333.998 11.6334 333.544 11.5989 333.104 11.5411C318.816 8.63761 305.153 11.1298 291.602 12.7378C285.479 13.4534 281.327 13.1244 276.697 11.2038C272.066 9.28329 266.569 7.71641 261.11 6.2688C257.492 5.31058 253.745 5.94391 249.786 6.68005C241.161 8.24565 232.342 9.5899 223.373 10.7062C218.853 11.2779 214.627 10.2538 211.193 8.86792C204.749 6.26469 196.859 4.91167 188.656 4.00691C186.088 3.72726 182.884 4.05215 180.279 4.47574C162.289 7.39975 144.374 10.4512 126.431 13.3753C123.402 13.8688 119.424 15.1066 117.675 12.4952C117.553 12.4077 117.387 12.334 117.191 12.2798C116.995 12.2255 116.773 12.1923 116.543 12.1826C110.2 12.0099 105.652 10.5582 101.104 8.6335C99.1431 7.81099 94.5029 7.95906 91.1794 8.103C87.1102 8.28395 83.1792 8.99953 79.1284 9.33676C75.0776 9.67399 71.6068 9.80148 68.2004 8.19348C66.4236 7.37098 62.3177 7.6136 59.6938 7.00494C55.597 6.04672 52.6051 6.41274 49.0698 7.60948C47.0659 8.25796 44.9038 8.80294 42.6252 9.23395V8.66229H31.2646C31.2646 8.46078 31.1911 8.25105 31.1543 8.02486L26.6982 8.66229H0L0.0368652 143.981Z" fill="#FCF0C7"/>
<rect y="109" width="1941" height="1280" fill="#FCF0C7"/>
</svg>
