<svg width="1547" height="279" viewBox="0 0 1547 279" fill="none" xmlns="http://www.w3.org/2000/svg">
<path d="M1476.42 138.932C1463.97 131.341 1452.2 123.438 1440.81 115.66C1435.05 112.177 1430.04 107.588 1426.06 102.157C1405.08 103.651 1386.1 91.019 1369.11 79.0719L1280.97 16.8471C1271.26 8.8114 1259.78 3.18281 1247.48 0.419789C1228.19 -2.3181 1209.52 8.82013 1193.58 19.7717C1170.18 35.3279 1145.96 57.6043 1120.32 68.7426C1050.79 98.9216 972.119 99.8549 897.738 116.033C873.712 121.198 854.167 140.923 831.324 151.066C802.669 163.65 772.86 173.424 742.316 180.249C724.657 184.987 706.258 186.317 688.102 184.169C680.156 181.99 671.939 180.963 663.702 181.12C650.631 182.614 638.805 193.068 625.858 190.205C619.945 188.899 614.965 184.854 608.99 183.983C592.309 180.685 577.308 200.846 560.814 196.428C557.054 195.091 553.393 193.49 549.859 191.636C540.741 188.707 531.066 187.94 521.6 189.396C497.263 191.325 470.685 190.579 446.908 195.619C429.418 199.041 414.293 207.068 395.557 207.068C372.589 209.495 349.435 210.428 326.28 211.362L296.59 212.544C197.436 216.464 98.6559 216.651 0 220.509V279H1543.64C1543.64 268.546 1550.86 176.951 1544.14 174.276C1520.59 164.455 1497.93 152.631 1476.42 138.932V138.932Z" fill="url(#paint0_linear_448_731)"/>
<defs>
<linearGradient id="paint0_linear_448_731" x1="773.313" y1="43.4793" x2="773.313" y2="489.009" gradientUnits="userSpaceOnUse">
<stop stop-color="#FF5ECC"/>
<stop offset="1" stop-color="#E9EFDB"/>
</linearGradient>
</defs>
</svg>
