<svg width="1074" height="252" viewBox="0 0 1074 252" fill="none" xmlns="http://www.w3.org/2000/svg">
<path d="M1074 243.69C1057.99 240.385 1042.92 233.586 1029.87 223.782C1024.87 219.274 1018.98 215.871 1012.57 213.797C1006.72 213.445 1000.85 214.052 995.2 215.596C978.146 218.077 961.278 210.324 945.033 202.696L872.084 168.276C856.648 161.02 840.278 153.64 824.282 158.291C810.402 162.322 798.264 175.16 784.197 176.897C764.778 179.191 747.287 160.152 728.179 157.733C707.639 155.066 686.476 171.315 666.932 162.136C654.483 155.935 645.956 141.236 635.126 131.127C622.677 119.964 610.664 123.375 597.78 115.747C588.07 109.979 581.472 97.4516 572.883 89.5133C559.741 78.7681 545.054 70.0504 529.313 63.6518C508.897 53.7909 487.921 42.6897 472.61 21.5416C467.008 13.7893 461.842 4.48662 454.248 1.26169C436.882 -6.18047 423.127 21.1695 407.815 34.4413C386.777 52.4265 359.017 43.806 335.551 54.8452C307.417 68.0551 288.309 108.119 259.241 116.491C245.112 120.584 230.298 116.491 216.169 120.398C185.733 128.833 166.375 170.571 139.113 190.541C120.44 204.309 98.5304 207.161 77.5546 212.247C50.388 218.959 24.2876 229.395 0 243.256C57.3256 258.202 120.502 249.458 178.824 249.458H947.585C971.548 249.458 995.574 248.962 1019.54 249.458C1027.69 249.458 1035.78 251.442 1043.81 251.008C1053.15 250.45 1064.85 241.643 1074 243.69Z" fill="url(#paint0_linear_448_729)"/>
<defs>
<linearGradient id="paint0_linear_448_729" x1="536.782" y1="-16.2274" x2="536.782" y2="222.418" gradientUnits="userSpaceOnUse">
<stop stop-color="#FF5ECC"/>
<stop offset="1" stop-color="#E9EFDB"/>
</linearGradient>
</defs>
</svg>
