<svg width="1770" height="228" viewBox="0 0 1770 228" fill="none" xmlns="http://www.w3.org/2000/svg">
<path d="M5.35402 35.7968C14.5679 34.1179 15.813 39.0925 23.4705 42.015C37.1353 48.6193 52.4242 51.1248 67.4855 49.2281C82.5402 48.326 97.47 45.9517 112.061 42.1394C116.294 40.8957 116.107 39.5899 119.033 37.227C122.888 34.6093 127.075 32.5181 131.485 31.0089C137.826 28.3435 143.841 24.9638 149.414 20.9355C160.137 13.6262 172.63 9.33083 185.585 8.49915C189.509 8.08741 193.464 8.89061 196.916 10.7999C201.958 13.2249 207.25 13.3493 212.417 15.3391C221.873 18.1115 230.902 22.1706 239.25 27.4023C247.328 33.8699 257.348 37.4394 267.701 37.5379C278.72 37.5379 289.553 38.7194 300.572 39.0925C304.868 39.0925 308.665 40.7092 313.023 40.8336C319.566 40.5191 326.047 39.4125 332.322 37.5379C335.898 36.847 339.518 36.4106 343.155 36.2321C347.875 35.1519 352.695 34.5684 357.536 34.491C361.179 35.2326 364.776 36.1877 368.306 37.3514C373.847 38.595 379.699 39.6521 385.302 40.647C392.189 41.8564 399.166 42.4805 406.158 42.5125C411.43 42.869 416.626 43.9573 421.598 45.7459C425.644 46.8652 429.94 47.487 434.049 48.9172C437.977 50.7276 442.19 51.8427 446.5 52.2128C452.288 52.6496 458.105 52.5246 463.869 51.8397C470.539 49.6832 476.838 46.5165 482.546 42.4503C485.97 40.647 489.145 38.8437 492.694 37.3514C498.919 34.5532 506.017 32.3769 512.616 29.7652C517.97 27.7132 523.199 25.2882 528.367 22.9253C537.394 18.8213 545.798 13.2871 554.452 8.49915C558.934 5.51443 562.296 1.28609 568.086 0.229001C579.23 -1.4499 583.65 6.44716 590.934 12.6653C604.443 23.858 624.365 25.1016 638.497 35.9212C644.449 39.6912 650.904 42.6011 657.672 44.5644C663.151 46.6164 668.007 50.1608 673.236 52.7102C678.787 54.8313 684.748 55.6607 690.668 55.1353C696.478 54.3103 702.403 55.1066 707.788 57.436C708.861 57.9556 709.962 58.4124 711.088 58.804C714.201 59.7367 717.313 60.4207 720.364 61.6644C727.38 65.1181 734.982 67.2273 742.776 67.8825C749.509 69.0164 756.427 68.1066 762.636 65.2709C768.239 61.7266 774.465 59.0527 779.819 55.0109C781.001 54.2026 781.375 52.7724 782.807 52.0884C785.38 51.5015 788.04 51.3961 790.651 51.7775C792.643 51.7775 794.386 52.7724 796.254 53.0833C799.18 53.6429 802.48 53.0833 805.157 53.7673C807.834 54.4513 811.943 57.1873 815.491 58.3066C819.475 59.9463 823.664 61.0342 827.942 61.54C834.168 61.8509 840.954 62.5971 847.553 62.908C854.152 63.2189 859.319 65.3953 865.607 66.2658C878.432 68.0069 891.693 69.9967 904.642 70.6807C920.891 71.4891 936.206 66.2036 952.33 65.7683C963.58 65.5918 974.829 66.1318 986.01 67.3851C989.401 67.5225 992.774 67.9384 996.096 68.6287C996.558 68.9246 997.036 69.1945 997.528 69.4371C1000.06 69.8709 1002.65 69.8709 1005.19 69.4371C1013.71 68.2643 1022.17 66.6453 1030.52 64.5869C1032.08 64.4257 1033.6 64.0706 1035.07 63.5298C1039.86 61.54 1044.59 58.9906 1049.32 56.8142C1052.13 55.3034 1055.19 54.3132 1058.35 53.8917C1064.2 53.3034 1070.09 54.5186 1075.22 57.3738C1080.51 60.5451 1085.68 63.592 1091.1 66.6389C1096.51 69.6858 1101.12 75.593 1107.47 76.7745C1109.71 77.0384 1111.98 76.8265 1114.13 76.1527C1121.8 75.0537 1129.55 74.6375 1137.29 74.909C1140.97 74.5849 1144.57 73.726 1148 72.3596C1153.47 71.4684 1158.88 70.2221 1164.19 68.6287C1168.67 66.6389 1172.97 63.592 1177.51 61.7887C1179.55 61.1844 1181.63 60.7067 1183.74 60.3586C1185.23 60.0476 1188.72 58.8662 1190.46 59.6124C1190.46 59.6124 1190.83 60.3586 1191.08 60.5451C1194.8 62.2733 1198.62 63.7483 1202.54 64.96C1205.47 66.9588 1208.85 68.2176 1212.37 68.6287C1214.14 68.5727 1215.89 68.8686 1217.54 69.4992C1218.54 70.0589 1219.03 70.9916 1219.97 71.4269C1222.52 72.6083 1225.38 72.1109 1227.13 74.5981C1227.69 75.4065 1227.13 76.0905 1228.06 76.961C1229 77.8316 1231.67 78.0181 1233.23 78.2668C1235.61 78.8311 1237.96 79.5371 1240.26 80.381C1244.23 80.8791 1248.25 80.8791 1252.22 80.381C1261.68 80.122 1271.03 78.2503 1279.86 74.8469C1282.47 73.9141 1285.03 72.9192 1287.7 72.1109C1293.61 70.2103 1299.7 68.9797 1305.88 68.4422C1312.11 68.1313 1318.33 66.5145 1324.56 66.5767C1326.36 66.5767 1328.48 66.5767 1330.29 66.5767C1332.65 66.1506 1334.98 65.569 1337.26 64.8356C1341.05 64.1717 1344.78 63.1729 1348.4 61.8509C1350.89 60.9182 1353.69 60.7938 1356.31 59.9233C1358.92 59.0527 1362.53 57.8713 1365.46 56.752C1372.18 54.3269 1379.03 52.0262 1385.51 49.0415C1391.98 46.0568 1397.96 45.3728 1403.62 42.4503C1408.16 40.2518 1412.56 37.8021 1416.82 35.1128C1420.73 32.1952 1424.03 28.5405 1426.53 24.3554C1428.4 21.5573 1428.96 19.754 1432.76 19.6296C1436.36 19.328 1439.98 19.4952 1443.53 20.1271C1447.48 21.1346 1451.24 22.7724 1454.67 24.9773C1458.03 26.8126 1461.75 27.8948 1465.57 28.1485C1468.76 28.8312 1472.02 29.0822 1475.28 28.8947C1478.02 28.427 1480.78 28.1156 1483.56 27.962C1491.59 27.962 1499.12 26.2209 1507.03 26.1587C1515.83 25.4399 1524.51 23.6439 1532.87 20.8111C1538.58 18.3178 1544.52 16.4013 1550.61 15.0904C1552.66 15.0904 1554.97 15.0904 1556.84 15.0904C1559.01 15.2661 1561.13 15.8794 1563.06 16.8937C1565.79 18.6903 1568.61 20.3304 1571.53 21.806C1575.57 23.1118 1579.68 23.6093 1583.61 25.226C1586.34 26.3453 1589.83 26.6562 1592.26 27.8998C1593.61 28.8921 1595.05 29.7659 1596.55 30.5114C1599.18 31.2407 1601.74 32.1764 1604.21 33.3096C1606.86 34.6434 1609.66 35.6459 1612.55 36.2943C1616.12 36.5118 1619.7 36.5118 1623.26 36.2943H1634.47C1639.11 36.0146 1643.77 36.0146 1648.41 36.2943C1649.46 36.4265 1650.47 36.7422 1651.4 37.227L1656.76 39.0925C1660.74 40.4348 1664.65 41.9916 1668.46 43.7561C1674.51 47.0768 1681.15 49.1888 1688.01 49.9742C1698.07 50.8222 1708.04 52.6126 1717.77 55.3218C1721.69 56.2546 1725.74 57.0629 1729.72 58.0578C1732.33 59.0741 1735.15 59.4577 1737.94 59.1771C1740.84 58.6794 1743.81 58.6794 1746.72 59.1771C1747.96 59.1771 1757.61 60.7316 1757.67 61.9131C1759.35 86.4126 1754.31 111.658 1754.37 136.531C1754.37 153.507 1749.89 171.974 1753.5 188.701C1756.49 202.443 1767.57 214.382 1770 228C1742.36 228 1722.06 224.767 1693.67 224.767H0L5.35402 35.7968Z" fill="url(#paint0_linear_448_728)"/>
<defs>
<linearGradient id="paint0_linear_448_728" x1="884.844" y1="-40.2512" x2="884.844" y2="196.35" gradientUnits="userSpaceOnUse">
<stop stop-color="#FF5ECC"/>
<stop offset="1" stop-color="#E9EFDB"/>
</linearGradient>
</defs>
</svg>
