<svg width="799" height="293" viewBox="0 0 799 293" fill="none" xmlns="http://www.w3.org/2000/svg">
<path d="M155.704 32.7096C174.38 17.8979 196.668 -3.4484 217.337 0.472355C238.007 4.39311 259.049 29.1623 279.594 38.4352C290.8 43.4761 300.761 42.7293 311.532 50.882C320.691 58.5477 331.267 64.3413 342.66 67.9342C363.453 72.7262 383.625 64.7602 403.36 76.8336C422.037 88.2847 442.146 92.2055 461.819 98.6778C481.492 105.15 501.912 101.914 521.336 109.507C542.877 117.908 559.873 140.624 578.425 158.485C600.112 179.717 627.267 194.518 656.868 201.24C672.121 204.476 687.561 205.16 702.751 208.832C735.685 216.674 766.315 238.082 799 248.164C767.872 263.225 734.191 256.69 701.569 253.205C536.527 235.531 371.609 299.383 206.443 292.475C177.742 291.292 149.167 287.994 120.591 284.633L1.68095 270.817C4.35798 268.826 0 208.21 0 202.36C0 163.588 3.67313 125.376 4.856 86.7289C19.7353 87.1645 33.3072 81.5634 47.813 79.7586C59.0814 78.3895 69.7273 79.7586 81.058 75.4645C105.137 66.2043 127.809 53.6367 148.42 38.124C150.848 36.6304 153.213 34.7011 155.704 32.7096Z" fill="url(#paint0_linear_448_730)"/>
<defs>
<linearGradient id="paint0_linear_448_730" x1="399.562" y1="36.6304" x2="399.562" y2="366.098" gradientUnits="userSpaceOnUse">
<stop stop-color="#FF5ECC"/>
<stop offset="1" stop-color="#E9EFDB"/>
</linearGradient>
</defs>
</svg>
