<svg width="781" height="59" viewBox="0 0 781 59" fill="none" xmlns="http://www.w3.org/2000/svg">
<mask id="path-1-outside-1_624_1110" maskUnits="userSpaceOnUse" x="0.199951" y="0.439941" width="781" height="58" fill="black">
<rect fill="white" x="0.199951" y="0.439941" width="781" height="58"/>
<path d="M9.63995 55.2399C7.34662 55.2399 5.53328 54.5733 4.19995 53.2399C2.86662 51.9066 2.19995 50.0933 2.19995 47.7999V6.43994C2.78662 6.33327 3.71995 6.19994 4.99995 6.03994C6.27995 5.82661 7.50662 5.71994 8.67995 5.71994C9.90662 5.71994 10.9733 5.82661 11.88 6.03994C12.84 6.19994 13.64 6.51994 14.28 6.99994C14.92 7.47994 15.4 8.14661 15.72 8.99994C16.04 9.85327 16.2 10.9733 16.2 12.3599V43.9599H34.52C34.8933 44.5466 35.24 45.3466 35.56 46.3599C35.88 47.3199 36.04 48.3333 36.04 49.3999C36.04 51.5333 35.5866 53.0533 34.68 53.9599C33.7733 54.8133 32.5733 55.2399 31.08 55.2399H9.63995Z"/>
<path d="M57.2156 54.6799C56.6289 54.8399 55.6956 54.9999 54.4156 55.1599C53.1889 55.3199 51.9622 55.3999 50.7356 55.3999C49.5089 55.3999 48.4156 55.2933 47.4556 55.0799C46.5489 54.9199 45.7756 54.5999 45.1356 54.1199C44.4956 53.6399 44.0156 52.9733 43.6956 52.1199C43.3756 51.2666 43.2156 50.1466 43.2156 48.7599V6.51994C43.8022 6.41327 44.7356 6.27994 46.0156 6.11994C47.2956 5.90661 48.5222 5.79994 49.6956 5.79994C50.9222 5.79994 51.9889 5.90661 52.8956 6.11994C53.8556 6.27994 54.6556 6.59994 55.2956 7.07994C55.9356 7.55994 56.4156 8.22661 56.7356 9.07994C57.0556 9.93328 57.2156 11.0533 57.2156 12.4399V54.6799Z"/>
<path d="M81.3506 35.7199C79.0039 34.9199 76.8706 34.1199 74.9506 33.3199C73.0306 32.4666 71.3772 31.4533 69.9906 30.2799C68.6039 29.1066 67.5106 27.7199 66.7106 26.1199C65.9639 24.4666 65.5906 22.4666 65.5906 20.1199C65.5906 15.5866 67.3239 11.9599 70.7906 9.23994C74.3106 6.51994 79.2172 5.15994 85.5106 5.15994C87.8039 5.15994 89.9373 5.31994 91.9106 5.63994C93.8839 5.95994 95.5639 6.46661 96.9506 7.15994C98.3906 7.79994 99.5106 8.65327 100.311 9.71994C101.111 10.7333 101.511 11.9333 101.511 13.3199C101.511 14.7066 101.191 15.9066 100.551 16.9199C99.9106 17.8799 99.1373 18.7066 98.2306 19.3999C97.0573 18.6533 95.4839 18.0133 93.5106 17.4799C91.5372 16.8933 89.3772 16.5999 87.0306 16.5999C84.6306 16.5999 82.8706 16.9466 81.7506 17.6399C80.6306 18.2799 80.0706 19.1066 80.0706 20.1199C80.0706 20.9199 80.4172 21.5866 81.1106 22.1199C81.8039 22.5999 82.8439 23.0533 84.2306 23.4799L88.4706 24.8399C93.4839 26.4399 97.3239 28.4933 99.9906 30.9999C102.711 33.4533 104.071 36.8133 104.071 41.0799C104.071 45.6133 102.284 49.2933 98.7106 52.1199C95.1372 54.8933 89.8839 56.2799 82.9506 56.2799C80.4972 56.2799 78.2039 56.0666 76.0706 55.6399C73.9906 55.2666 72.1506 54.7066 70.5506 53.9599C69.0039 53.1599 67.7772 52.1999 66.8706 51.0799C66.0172 49.9066 65.5906 48.5733 65.5906 47.0799C65.5906 45.5333 66.0439 44.2266 66.9506 43.1599C67.8572 42.0399 68.8439 41.1866 69.9106 40.5999C71.4039 41.7733 73.2172 42.7866 75.3506 43.6399C77.5372 44.4933 79.9106 44.9199 82.4706 44.9199C85.0839 44.9199 86.9239 44.5199 87.9906 43.7199C89.0572 42.9199 89.5906 41.9866 89.5906 40.9199C89.5906 39.8533 89.1639 39.0533 88.3106 38.5199C87.4572 37.9333 86.2572 37.3733 84.7106 36.8399L81.3506 35.7199Z"/>
<path d="M108.397 17.7199C108.024 17.1333 107.677 16.3333 107.357 15.3199C107.037 14.3066 106.877 13.2399 106.877 12.1199C106.877 10.0399 107.331 8.54661 108.237 7.63994C109.197 6.73327 110.424 6.27994 111.917 6.27994H146.797C147.171 6.86661 147.517 7.66661 147.837 8.67994C148.157 9.69328 148.317 10.7599 148.317 11.8799C148.317 13.9599 147.837 15.4533 146.877 16.3599C145.971 17.2666 144.771 17.7199 143.277 17.7199H134.397V54.6799C133.811 54.8399 132.877 54.9999 131.597 55.1599C130.371 55.3199 129.144 55.3999 127.917 55.3999C126.691 55.3999 125.597 55.2933 124.637 55.0799C123.731 54.9199 122.957 54.5999 122.317 54.1199C121.677 53.6399 121.197 52.9733 120.877 52.1199C120.557 51.2666 120.397 50.1466 120.397 48.7599V17.7199H108.397Z"/>
<path d="M155.091 13.9599C155.091 11.6666 155.757 9.85327 157.091 8.51994C158.424 7.18661 160.237 6.51994 162.531 6.51994H188.931C189.304 7.10661 189.624 7.87994 189.891 8.83994C190.211 9.79994 190.371 10.8133 190.371 11.8799C190.371 13.9066 189.917 15.3466 189.011 16.1999C188.157 17.0533 187.011 17.4799 185.571 17.4799H168.691V24.9199H186.691C187.064 25.5066 187.384 26.2799 187.651 27.2399C187.971 28.1466 188.131 29.1333 188.131 30.1999C188.131 32.2266 187.704 33.6666 186.851 34.5199C185.997 35.3733 184.851 35.7999 183.411 35.7999H168.691V44.1999H189.251C189.624 44.7866 189.944 45.5599 190.211 46.5199C190.531 47.4799 190.691 48.4933 190.691 49.5599C190.691 51.5866 190.237 53.0533 189.331 53.9599C188.477 54.8133 187.331 55.2399 185.891 55.2399H162.531C160.237 55.2399 158.424 54.5733 157.091 53.2399C155.757 51.9066 155.091 50.0933 155.091 47.7999V13.9599Z"/>
<path d="M242.839 53.3199C242.092 54.0666 240.999 54.6266 239.559 54.9999C238.172 55.4266 236.492 55.6399 234.519 55.6399C232.545 55.6399 230.679 55.3466 228.919 54.7599C227.159 54.1733 225.719 52.7599 224.599 50.5199L216.679 34.3599C215.879 32.7066 215.159 31.1599 214.519 29.7199C213.879 28.2266 213.185 26.5199 212.439 24.5999L211.959 24.6799C212.172 27.5599 212.279 30.4933 212.279 33.4799C212.332 36.4666 212.359 39.3999 212.359 42.2799V54.6799C211.772 54.8399 210.865 54.9999 209.639 55.1599C208.465 55.3199 207.292 55.3999 206.119 55.3999C204.945 55.3999 203.905 55.3199 202.999 55.1599C202.092 54.9999 201.345 54.6799 200.759 54.1999C200.172 53.7199 199.719 53.0799 199.399 52.2799C199.079 51.4266 198.919 50.3333 198.919 48.9999V8.99994C199.665 7.93327 200.812 7.13327 202.359 6.59994C203.905 6.06661 205.559 5.79994 207.319 5.79994C209.292 5.79994 211.159 6.11994 212.919 6.75994C214.732 7.34661 216.172 8.73327 217.239 10.9199L225.239 27.0799C226.039 28.7333 226.759 30.3066 227.399 31.7999C228.039 33.2399 228.732 34.9199 229.479 36.8399L229.879 36.7599C229.665 33.8799 229.532 30.9999 229.479 28.1199C229.425 25.2399 229.399 22.3599 229.399 19.4799V6.51994C229.985 6.35994 230.865 6.19994 232.039 6.03994C233.265 5.87994 234.465 5.79994 235.639 5.79994C237.985 5.79994 239.772 6.22661 240.999 7.07994C242.225 7.87994 242.839 9.58661 242.839 12.1999V53.3199Z"/>
<path d="M266.991 17.7199C266.618 17.1333 266.271 16.3333 265.951 15.3199C265.631 14.3066 265.471 13.2399 265.471 12.1199C265.471 10.0399 265.925 8.54661 266.831 7.63994C267.791 6.73327 269.018 6.27994 270.511 6.27994H305.391C305.765 6.86661 306.111 7.66661 306.431 8.67994C306.751 9.69328 306.911 10.7599 306.911 11.8799C306.911 13.9599 306.431 15.4533 305.471 16.3599C304.565 17.2666 303.365 17.7199 301.871 17.7199H292.991V54.6799C292.405 54.8399 291.471 54.9999 290.191 55.1599C288.965 55.3199 287.738 55.3999 286.511 55.3999C285.285 55.3999 284.191 55.2933 283.231 55.0799C282.325 54.9199 281.551 54.5999 280.911 54.1199C280.271 53.6399 279.791 52.9733 279.471 52.1199C279.151 51.2666 278.991 50.1466 278.991 48.7599V17.7199H266.991Z"/>
<path d="M309.175 30.6799C309.175 26.5199 309.815 22.8399 311.095 19.6399C312.428 16.4399 314.215 13.7733 316.455 11.6399C318.748 9.45327 321.415 7.79994 324.455 6.67994C327.548 5.55994 330.882 4.99994 334.455 4.99994C338.028 4.99994 341.335 5.55994 344.375 6.67994C347.468 7.79994 350.162 9.45327 352.455 11.6399C354.748 13.7733 356.535 16.4399 357.815 19.6399C359.148 22.8399 359.815 26.5199 359.815 30.6799C359.815 34.8399 359.175 38.5466 357.895 41.7999C356.615 44.9999 354.828 47.6933 352.535 49.8799C350.295 52.0133 347.628 53.6399 344.535 54.7599C341.442 55.8799 338.082 56.4399 334.455 56.4399C330.828 56.4399 327.468 55.8799 324.375 54.7599C321.282 53.5866 318.615 51.9066 316.375 49.7199C314.135 47.5333 312.375 44.8399 311.095 41.6399C309.815 38.4399 309.175 34.7866 309.175 30.6799ZM323.575 30.6799C323.575 35.5333 324.562 39.1599 326.535 41.5599C328.508 43.9599 331.148 45.1599 334.455 45.1599C337.815 45.1599 340.482 43.9599 342.455 41.5599C344.428 39.1599 345.415 35.5333 345.415 30.6799C345.415 25.8799 344.428 22.2799 342.455 19.8799C340.535 17.4799 337.895 16.2799 334.535 16.2799C331.228 16.2799 328.562 17.4799 326.535 19.8799C324.562 22.2266 323.575 25.8266 323.575 30.6799Z"/>
<path d="M417.361 43.0799C416.667 43.6666 415.761 44.1466 414.641 44.5199C413.574 44.8399 412.321 44.9999 410.881 44.9999C408.961 44.9999 407.361 44.7599 406.081 44.2799C404.854 43.7999 404.054 42.9733 403.681 41.7999C402.187 37.1066 400.961 33.3199 400.001 30.4399C399.041 27.5066 398.294 24.9466 397.761 22.7599H397.361C397.201 25.9066 397.067 28.7866 396.961 31.3999C396.907 33.9599 396.854 36.4666 396.801 38.9199C396.801 41.3733 396.747 43.8533 396.641 46.3599C396.587 48.8666 396.481 51.6399 396.321 54.6799C395.627 54.9466 394.721 55.1599 393.601 55.3199C392.481 55.5333 391.361 55.6399 390.241 55.6399C387.894 55.6399 386.054 55.2666 384.721 54.5199C383.441 53.7733 382.801 52.4133 382.801 50.4399L385.121 9.63994C385.547 8.94661 386.481 8.19994 387.921 7.39994C389.361 6.59994 391.387 6.19994 394.001 6.19994C396.827 6.19994 399.041 6.65328 400.641 7.55994C402.241 8.41328 403.414 9.82661 404.161 11.7999C404.641 13.0799 405.147 14.5466 405.681 16.1999C406.267 17.8533 406.827 19.5599 407.361 21.3199C407.947 23.0799 408.507 24.8399 409.041 26.5999C409.574 28.3066 410.054 29.8533 410.481 31.2399H410.881C412.161 26.7599 413.441 22.4399 414.721 18.2799C416.001 14.0666 417.174 10.5466 418.241 7.71994C419.041 7.29327 420.054 6.94661 421.281 6.67994C422.561 6.35994 423.974 6.19994 425.521 6.19994C428.134 6.19994 430.267 6.59994 431.921 7.39994C433.574 8.14661 434.534 9.23994 434.801 10.6799C435.014 11.7466 435.227 13.3999 435.441 15.6399C435.707 17.8266 435.974 20.3066 436.241 23.0799C436.507 25.8533 436.774 28.7866 437.041 31.8799C437.307 34.9733 437.547 37.9599 437.761 40.8399C438.027 43.6666 438.241 46.2799 438.401 48.6799C438.561 51.0266 438.667 52.8399 438.721 54.1199C437.814 54.6533 436.854 55.0266 435.841 55.2399C434.881 55.5066 433.627 55.6399 432.081 55.6399C430.054 55.6399 428.347 55.2933 426.961 54.5999C425.574 53.9066 424.827 52.5466 424.721 50.5199C424.401 44.7066 424.187 39.4799 424.081 34.8399C424.027 30.1999 423.921 26.3066 423.761 23.1599H423.361C422.827 25.2399 422.054 27.8533 421.041 30.9999C420.027 34.1466 418.801 38.1733 417.361 43.0799Z"/>
<path d="M470.921 54.6799C470.335 54.8399 469.428 54.9999 468.201 55.1599C466.975 55.3199 465.775 55.3999 464.601 55.3999C462.148 55.3999 460.308 54.9999 459.081 54.1999C457.855 53.3466 457.241 51.5866 457.241 48.9199V38.1199C455.908 36.1466 454.468 33.9599 452.921 31.5599C451.375 29.1599 449.855 26.7066 448.361 24.1999C446.868 21.6933 445.481 19.2399 444.201 16.8399C442.921 14.3866 441.881 12.1466 441.081 10.1199C441.775 9.15994 442.708 8.27994 443.881 7.47994C445.108 6.67994 446.601 6.27994 448.361 6.27994C450.441 6.27994 452.121 6.70661 453.401 7.55994C454.735 8.41328 455.988 10.0133 457.161 12.3599L463.801 25.7199H464.281C465.028 24.0666 465.668 22.5733 466.201 21.2399C466.788 19.8533 467.348 18.4933 467.881 17.1599C468.415 15.7733 468.975 14.3599 469.561 12.9199C470.148 11.4266 470.815 9.71994 471.561 7.79994C472.521 7.31994 473.588 6.94661 474.761 6.67994C475.935 6.41327 477.055 6.27994 478.121 6.27994C479.988 6.27994 481.561 6.78661 482.841 7.79994C484.175 8.75994 484.841 10.2266 484.841 12.1999C484.841 12.8399 484.708 13.6133 484.441 14.5199C484.175 15.4266 483.561 16.8133 482.601 18.6799C481.641 20.4933 480.228 22.9733 478.361 26.1199C476.548 29.2666 474.068 33.3733 470.921 38.4399V54.6799Z"/>
<path d="M550.794 54.6799C550.208 54.8399 549.274 54.9999 547.994 55.1599C546.768 55.3199 545.541 55.3999 544.314 55.3999C543.088 55.3999 541.994 55.2933 541.034 55.0799C540.128 54.9199 539.354 54.5999 538.714 54.1199C538.074 53.6399 537.594 52.9733 537.274 52.1199C536.954 51.2666 536.794 50.1466 536.794 48.7599V36.2799H521.434V54.6799C520.848 54.8399 519.914 54.9999 518.634 55.1599C517.408 55.3199 516.181 55.3999 514.954 55.3999C513.728 55.3999 512.634 55.2933 511.674 55.0799C510.768 54.9199 509.994 54.5999 509.354 54.1199C508.714 53.6399 508.234 52.9733 507.914 52.1199C507.594 51.2666 507.434 50.1466 507.434 48.7599V6.51994C508.021 6.41327 508.954 6.27994 510.234 6.11994C511.514 5.90661 512.741 5.79994 513.914 5.79994C515.141 5.79994 516.208 5.90661 517.114 6.11994C518.074 6.27994 518.874 6.59994 519.514 7.07994C520.154 7.55994 520.634 8.22661 520.954 9.07994C521.274 9.93328 521.434 11.0533 521.434 12.4399V25.2399H536.794V6.51994C537.381 6.41327 538.314 6.27994 539.594 6.11994C540.874 5.90661 542.101 5.79994 543.274 5.79994C544.501 5.79994 545.568 5.90661 546.474 6.11994C547.434 6.27994 548.234 6.59994 548.874 7.07994C549.514 7.55994 549.994 8.22661 550.314 9.07994C550.634 9.93328 550.794 11.0533 550.794 12.4399V54.6799Z"/>
<path d="M561.184 13.9599C561.184 11.6666 561.851 9.85327 563.184 8.51994C564.518 7.18661 566.331 6.51994 568.624 6.51994H595.024C595.398 7.10661 595.718 7.87994 595.984 8.83994C596.304 9.79994 596.464 10.8133 596.464 11.8799C596.464 13.9066 596.011 15.3466 595.104 16.1999C594.251 17.0533 593.104 17.4799 591.664 17.4799H574.784V24.9199H592.784C593.158 25.5066 593.478 26.2799 593.744 27.2399C594.064 28.1466 594.224 29.1333 594.224 30.1999C594.224 32.2266 593.798 33.6666 592.944 34.5199C592.091 35.3733 590.944 35.7999 589.504 35.7999H574.784V44.1999H595.344C595.718 44.7866 596.038 45.5599 596.304 46.5199C596.624 47.4799 596.784 48.4933 596.784 49.5599C596.784 51.5866 596.331 53.0533 595.424 53.9599C594.571 54.8133 593.424 55.2399 591.984 55.2399H568.624C566.331 55.2399 564.518 54.5733 563.184 53.2399C561.851 51.9066 561.184 50.0933 561.184 47.7999V13.9599Z"/>
<path d="M616.348 7.95994C617.255 7.42661 618.615 6.91994 620.428 6.43994C622.295 5.95994 624.161 5.71994 626.028 5.71994C628.695 5.71994 631.041 6.11994 633.068 6.91994C635.148 7.66661 636.481 8.86661 637.068 10.5199C638.028 13.2933 639.068 16.5199 640.188 20.1999C641.308 23.8799 642.428 27.6933 643.548 31.6399C644.668 35.5333 645.761 39.3999 646.828 43.2399C647.895 47.0266 648.828 50.3866 649.628 53.3199C648.988 54.0666 648.028 54.6533 646.748 55.0799C645.468 55.5599 643.948 55.7999 642.188 55.7999C640.908 55.7999 639.815 55.6933 638.908 55.4799C638.055 55.2666 637.335 54.9466 636.748 54.5199C636.215 54.0933 635.761 53.5333 635.388 52.8399C635.068 52.1466 634.775 51.3466 634.508 50.4399L633.068 44.9199H618.588C618.161 46.5199 617.735 48.1733 617.308 49.8799C616.881 51.5866 616.455 53.2399 616.028 54.8399C615.281 55.1066 614.481 55.3199 613.628 55.4799C612.828 55.6933 611.841 55.7999 610.668 55.7999C607.948 55.7999 605.921 55.3466 604.588 54.4399C603.308 53.4799 602.668 52.1733 602.668 50.5199C602.668 49.7733 602.775 49.0266 602.988 48.2799C603.201 47.5333 603.441 46.6533 603.708 45.6399C604.081 44.1999 604.588 42.4133 605.228 40.2799C605.921 38.1466 606.668 35.8533 607.468 33.3999C608.268 30.8933 609.121 28.3333 610.028 25.7199C610.935 23.1066 611.788 20.6533 612.588 18.3599C613.388 16.0133 614.108 13.9333 614.748 12.1199C615.441 10.3066 615.975 8.91994 616.348 7.95994ZM625.948 18.2799C625.201 20.5199 624.348 23.0266 623.388 25.7999C622.481 28.5199 621.655 31.2933 620.908 34.1199H630.828C630.081 31.2399 629.308 28.4399 628.508 25.7199C627.761 22.9466 627.068 20.4666 626.428 18.2799H625.948Z"/>
<path d="M670.104 39.3199V54.6799C669.518 54.8399 668.584 54.9999 667.304 55.1599C666.078 55.3199 664.851 55.3999 663.624 55.3999C662.398 55.3999 661.304 55.2933 660.344 55.0799C659.438 54.9199 658.664 54.5999 658.024 54.1199C657.438 53.6399 656.984 52.9733 656.664 52.1199C656.344 51.2666 656.184 50.1466 656.184 48.7599V11.0799C656.184 9.95994 656.478 9.1066 657.064 8.51994C657.704 7.87994 658.558 7.37327 659.624 6.99994C661.438 6.35994 663.544 5.9066 665.944 5.63994C668.344 5.31994 670.904 5.15994 673.624 5.15994C680.984 5.15994 686.531 6.70661 690.264 9.79994C693.998 12.8933 695.864 17.0799 695.864 22.3599C695.864 25.6666 695.011 28.4933 693.304 30.8399C691.598 33.1866 689.571 34.9999 687.224 36.2799C689.144 38.8933 691.038 41.3466 692.904 43.6399C694.771 45.9333 696.238 48.0133 697.304 49.8799C696.771 51.7466 695.784 53.1866 694.344 54.1999C692.958 55.1599 691.384 55.6399 689.624 55.6399C688.451 55.6399 687.438 55.5066 686.584 55.2399C685.731 54.9733 684.984 54.5999 684.344 54.1199C683.704 53.6399 683.118 53.0533 682.584 52.3599C682.051 51.6666 681.544 50.9199 681.064 50.1199L674.344 39.3199H670.104ZM675.144 28.6799C677.171 28.6799 678.771 28.1733 679.944 27.1599C681.118 26.0933 681.704 24.5466 681.704 22.5199C681.704 20.4933 681.038 18.9733 679.704 17.9599C678.424 16.8933 676.371 16.3599 673.544 16.3599C672.744 16.3599 672.104 16.3866 671.624 16.4399C671.144 16.4933 670.611 16.5733 670.024 16.6799V28.6799H675.144Z"/>
<path d="M701.522 17.7199C701.149 17.1333 700.802 16.3333 700.482 15.3199C700.162 14.3066 700.002 13.2399 700.002 12.1199C700.002 10.0399 700.456 8.54661 701.362 7.63994C702.322 6.73327 703.549 6.27994 705.042 6.27994H739.922C740.296 6.86661 740.642 7.66661 740.962 8.67994C741.282 9.69328 741.442 10.7599 741.442 11.8799C741.442 13.9599 740.962 15.4533 740.002 16.3599C739.096 17.2666 737.896 17.7199 736.402 17.7199H727.522V54.6799C726.936 54.8399 726.002 54.9999 724.722 55.1599C723.496 55.3199 722.269 55.3999 721.042 55.3999C719.816 55.3999 718.722 55.2933 717.762 55.0799C716.856 54.9199 716.082 54.5999 715.442 54.1199C714.802 53.6399 714.322 52.9733 714.002 52.1199C713.682 51.2666 713.522 50.1466 713.522 48.7599V17.7199H701.522Z"/>
<path d="M777.991 8.59994C777.991 9.82661 777.965 11.6133 777.911 13.9599C777.858 16.2533 777.751 18.7599 777.591 21.4799C777.431 24.1466 777.218 26.8399 776.951 29.5599C776.685 32.2266 776.365 34.5466 775.991 36.5199C775.778 36.6799 775.458 36.8399 775.031 36.9999C774.605 37.1599 774.151 37.2933 773.671 37.3999C773.191 37.5066 772.711 37.5866 772.231 37.6399C771.751 37.6933 771.325 37.7199 770.951 37.7199C769.405 37.7199 768.098 37.4799 767.031 36.9999C766.018 36.5199 765.378 35.5866 765.111 34.1999C764.845 32.9733 764.605 31.1066 764.391 28.5999C764.231 26.0933 764.071 23.3733 763.911 20.4399C763.751 17.5066 763.618 14.5999 763.511 11.7199C763.458 8.83994 763.431 6.38661 763.431 4.35994C764.498 3.77327 765.698 3.31994 767.031 2.99994C768.418 2.62661 769.778 2.43994 771.111 2.43994C773.298 2.43994 774.978 2.94661 776.151 3.95994C777.378 4.97327 777.991 6.51994 777.991 8.59994ZM763.271 48.9199C763.271 46.7333 763.938 44.9466 765.271 43.5599C766.658 42.1199 768.551 41.3999 770.951 41.3999C773.351 41.3999 775.218 42.1199 776.551 43.5599C777.938 44.9466 778.631 46.7333 778.631 48.9199C778.631 51.1066 777.938 52.9199 776.551 54.3599C775.218 55.7466 773.351 56.4399 770.951 56.4399C768.551 56.4399 766.658 55.7466 765.271 54.3599C763.938 52.9199 763.271 51.1066 763.271 48.9199Z"/>
</mask>
<path d="M9.63995 55.2399C7.34662 55.2399 5.53328 54.5733 4.19995 53.2399C2.86662 51.9066 2.19995 50.0933 2.19995 47.7999V6.43994C2.78662 6.33327 3.71995 6.19994 4.99995 6.03994C6.27995 5.82661 7.50662 5.71994 8.67995 5.71994C9.90662 5.71994 10.9733 5.82661 11.88 6.03994C12.84 6.19994 13.64 6.51994 14.28 6.99994C14.92 7.47994 15.4 8.14661 15.72 8.99994C16.04 9.85327 16.2 10.9733 16.2 12.3599V43.9599H34.52C34.8933 44.5466 35.24 45.3466 35.56 46.3599C35.88 47.3199 36.04 48.3333 36.04 49.3999C36.04 51.5333 35.5866 53.0533 34.68 53.9599C33.7733 54.8133 32.5733 55.2399 31.08 55.2399H9.63995Z" fill="#F6EDDE"/>
<path d="M57.2156 54.6799C56.6289 54.8399 55.6956 54.9999 54.4156 55.1599C53.1889 55.3199 51.9622 55.3999 50.7356 55.3999C49.5089 55.3999 48.4156 55.2933 47.4556 55.0799C46.5489 54.9199 45.7756 54.5999 45.1356 54.1199C44.4956 53.6399 44.0156 52.9733 43.6956 52.1199C43.3756 51.2666 43.2156 50.1466 43.2156 48.7599V6.51994C43.8022 6.41327 44.7356 6.27994 46.0156 6.11994C47.2956 5.90661 48.5222 5.79994 49.6956 5.79994C50.9222 5.79994 51.9889 5.90661 52.8956 6.11994C53.8556 6.27994 54.6556 6.59994 55.2956 7.07994C55.9356 7.55994 56.4156 8.22661 56.7356 9.07994C57.0556 9.93328 57.2156 11.0533 57.2156 12.4399V54.6799Z" fill="#F6EDDE"/>
<path d="M81.3506 35.7199C79.0039 34.9199 76.8706 34.1199 74.9506 33.3199C73.0306 32.4666 71.3772 31.4533 69.9906 30.2799C68.6039 29.1066 67.5106 27.7199 66.7106 26.1199C65.9639 24.4666 65.5906 22.4666 65.5906 20.1199C65.5906 15.5866 67.3239 11.9599 70.7906 9.23994C74.3106 6.51994 79.2172 5.15994 85.5106 5.15994C87.8039 5.15994 89.9373 5.31994 91.9106 5.63994C93.8839 5.95994 95.5639 6.46661 96.9506 7.15994C98.3906 7.79994 99.5106 8.65327 100.311 9.71994C101.111 10.7333 101.511 11.9333 101.511 13.3199C101.511 14.7066 101.191 15.9066 100.551 16.9199C99.9106 17.8799 99.1373 18.7066 98.2306 19.3999C97.0573 18.6533 95.4839 18.0133 93.5106 17.4799C91.5372 16.8933 89.3772 16.5999 87.0306 16.5999C84.6306 16.5999 82.8706 16.9466 81.7506 17.6399C80.6306 18.2799 80.0706 19.1066 80.0706 20.1199C80.0706 20.9199 80.4172 21.5866 81.1106 22.1199C81.8039 22.5999 82.8439 23.0533 84.2306 23.4799L88.4706 24.8399C93.4839 26.4399 97.3239 28.4933 99.9906 30.9999C102.711 33.4533 104.071 36.8133 104.071 41.0799C104.071 45.6133 102.284 49.2933 98.7106 52.1199C95.1372 54.8933 89.8839 56.2799 82.9506 56.2799C80.4972 56.2799 78.2039 56.0666 76.0706 55.6399C73.9906 55.2666 72.1506 54.7066 70.5506 53.9599C69.0039 53.1599 67.7772 52.1999 66.8706 51.0799C66.0172 49.9066 65.5906 48.5733 65.5906 47.0799C65.5906 45.5333 66.0439 44.2266 66.9506 43.1599C67.8572 42.0399 68.8439 41.1866 69.9106 40.5999C71.4039 41.7733 73.2172 42.7866 75.3506 43.6399C77.5372 44.4933 79.9106 44.9199 82.4706 44.9199C85.0839 44.9199 86.9239 44.5199 87.9906 43.7199C89.0572 42.9199 89.5906 41.9866 89.5906 40.9199C89.5906 39.8533 89.1639 39.0533 88.3106 38.5199C87.4572 37.9333 86.2572 37.3733 84.7106 36.8399L81.3506 35.7199Z" fill="#F6EDDE"/>
<path d="M108.397 17.7199C108.024 17.1333 107.677 16.3333 107.357 15.3199C107.037 14.3066 106.877 13.2399 106.877 12.1199C106.877 10.0399 107.331 8.54661 108.237 7.63994C109.197 6.73327 110.424 6.27994 111.917 6.27994H146.797C147.171 6.86661 147.517 7.66661 147.837 8.67994C148.157 9.69328 148.317 10.7599 148.317 11.8799C148.317 13.9599 147.837 15.4533 146.877 16.3599C145.971 17.2666 144.771 17.7199 143.277 17.7199H134.397V54.6799C133.811 54.8399 132.877 54.9999 131.597 55.1599C130.371 55.3199 129.144 55.3999 127.917 55.3999C126.691 55.3999 125.597 55.2933 124.637 55.0799C123.731 54.9199 122.957 54.5999 122.317 54.1199C121.677 53.6399 121.197 52.9733 120.877 52.1199C120.557 51.2666 120.397 50.1466 120.397 48.7599V17.7199H108.397Z" fill="#F6EDDE"/>
<path d="M155.091 13.9599C155.091 11.6666 155.757 9.85327 157.091 8.51994C158.424 7.18661 160.237 6.51994 162.531 6.51994H188.931C189.304 7.10661 189.624 7.87994 189.891 8.83994C190.211 9.79994 190.371 10.8133 190.371 11.8799C190.371 13.9066 189.917 15.3466 189.011 16.1999C188.157 17.0533 187.011 17.4799 185.571 17.4799H168.691V24.9199H186.691C187.064 25.5066 187.384 26.2799 187.651 27.2399C187.971 28.1466 188.131 29.1333 188.131 30.1999C188.131 32.2266 187.704 33.6666 186.851 34.5199C185.997 35.3733 184.851 35.7999 183.411 35.7999H168.691V44.1999H189.251C189.624 44.7866 189.944 45.5599 190.211 46.5199C190.531 47.4799 190.691 48.4933 190.691 49.5599C190.691 51.5866 190.237 53.0533 189.331 53.9599C188.477 54.8133 187.331 55.2399 185.891 55.2399H162.531C160.237 55.2399 158.424 54.5733 157.091 53.2399C155.757 51.9066 155.091 50.0933 155.091 47.7999V13.9599Z" fill="#F6EDDE"/>
<path d="M242.839 53.3199C242.092 54.0666 240.999 54.6266 239.559 54.9999C238.172 55.4266 236.492 55.6399 234.519 55.6399C232.545 55.6399 230.679 55.3466 228.919 54.7599C227.159 54.1733 225.719 52.7599 224.599 50.5199L216.679 34.3599C215.879 32.7066 215.159 31.1599 214.519 29.7199C213.879 28.2266 213.185 26.5199 212.439 24.5999L211.959 24.6799C212.172 27.5599 212.279 30.4933 212.279 33.4799C212.332 36.4666 212.359 39.3999 212.359 42.2799V54.6799C211.772 54.8399 210.865 54.9999 209.639 55.1599C208.465 55.3199 207.292 55.3999 206.119 55.3999C204.945 55.3999 203.905 55.3199 202.999 55.1599C202.092 54.9999 201.345 54.6799 200.759 54.1999C200.172 53.7199 199.719 53.0799 199.399 52.2799C199.079 51.4266 198.919 50.3333 198.919 48.9999V8.99994C199.665 7.93327 200.812 7.13327 202.359 6.59994C203.905 6.06661 205.559 5.79994 207.319 5.79994C209.292 5.79994 211.159 6.11994 212.919 6.75994C214.732 7.34661 216.172 8.73327 217.239 10.9199L225.239 27.0799C226.039 28.7333 226.759 30.3066 227.399 31.7999C228.039 33.2399 228.732 34.9199 229.479 36.8399L229.879 36.7599C229.665 33.8799 229.532 30.9999 229.479 28.1199C229.425 25.2399 229.399 22.3599 229.399 19.4799V6.51994C229.985 6.35994 230.865 6.19994 232.039 6.03994C233.265 5.87994 234.465 5.79994 235.639 5.79994C237.985 5.79994 239.772 6.22661 240.999 7.07994C242.225 7.87994 242.839 9.58661 242.839 12.1999V53.3199Z" fill="#F6EDDE"/>
<path d="M266.991 17.7199C266.618 17.1333 266.271 16.3333 265.951 15.3199C265.631 14.3066 265.471 13.2399 265.471 12.1199C265.471 10.0399 265.925 8.54661 266.831 7.63994C267.791 6.73327 269.018 6.27994 270.511 6.27994H305.391C305.765 6.86661 306.111 7.66661 306.431 8.67994C306.751 9.69328 306.911 10.7599 306.911 11.8799C306.911 13.9599 306.431 15.4533 305.471 16.3599C304.565 17.2666 303.365 17.7199 301.871 17.7199H292.991V54.6799C292.405 54.8399 291.471 54.9999 290.191 55.1599C288.965 55.3199 287.738 55.3999 286.511 55.3999C285.285 55.3999 284.191 55.2933 283.231 55.0799C282.325 54.9199 281.551 54.5999 280.911 54.1199C280.271 53.6399 279.791 52.9733 279.471 52.1199C279.151 51.2666 278.991 50.1466 278.991 48.7599V17.7199H266.991Z" fill="#F6EDDE"/>
<path d="M309.175 30.6799C309.175 26.5199 309.815 22.8399 311.095 19.6399C312.428 16.4399 314.215 13.7733 316.455 11.6399C318.748 9.45327 321.415 7.79994 324.455 6.67994C327.548 5.55994 330.882 4.99994 334.455 4.99994C338.028 4.99994 341.335 5.55994 344.375 6.67994C347.468 7.79994 350.162 9.45327 352.455 11.6399C354.748 13.7733 356.535 16.4399 357.815 19.6399C359.148 22.8399 359.815 26.5199 359.815 30.6799C359.815 34.8399 359.175 38.5466 357.895 41.7999C356.615 44.9999 354.828 47.6933 352.535 49.8799C350.295 52.0133 347.628 53.6399 344.535 54.7599C341.442 55.8799 338.082 56.4399 334.455 56.4399C330.828 56.4399 327.468 55.8799 324.375 54.7599C321.282 53.5866 318.615 51.9066 316.375 49.7199C314.135 47.5333 312.375 44.8399 311.095 41.6399C309.815 38.4399 309.175 34.7866 309.175 30.6799ZM323.575 30.6799C323.575 35.5333 324.562 39.1599 326.535 41.5599C328.508 43.9599 331.148 45.1599 334.455 45.1599C337.815 45.1599 340.482 43.9599 342.455 41.5599C344.428 39.1599 345.415 35.5333 345.415 30.6799C345.415 25.8799 344.428 22.2799 342.455 19.8799C340.535 17.4799 337.895 16.2799 334.535 16.2799C331.228 16.2799 328.562 17.4799 326.535 19.8799C324.562 22.2266 323.575 25.8266 323.575 30.6799Z" fill="#F6EDDE"/>
<path d="M417.361 43.0799C416.667 43.6666 415.761 44.1466 414.641 44.5199C413.574 44.8399 412.321 44.9999 410.881 44.9999C408.961 44.9999 407.361 44.7599 406.081 44.2799C404.854 43.7999 404.054 42.9733 403.681 41.7999C402.187 37.1066 400.961 33.3199 400.001 30.4399C399.041 27.5066 398.294 24.9466 397.761 22.7599H397.361C397.201 25.9066 397.067 28.7866 396.961 31.3999C396.907 33.9599 396.854 36.4666 396.801 38.9199C396.801 41.3733 396.747 43.8533 396.641 46.3599C396.587 48.8666 396.481 51.6399 396.321 54.6799C395.627 54.9466 394.721 55.1599 393.601 55.3199C392.481 55.5333 391.361 55.6399 390.241 55.6399C387.894 55.6399 386.054 55.2666 384.721 54.5199C383.441 53.7733 382.801 52.4133 382.801 50.4399L385.121 9.63994C385.547 8.94661 386.481 8.19994 387.921 7.39994C389.361 6.59994 391.387 6.19994 394.001 6.19994C396.827 6.19994 399.041 6.65328 400.641 7.55994C402.241 8.41328 403.414 9.82661 404.161 11.7999C404.641 13.0799 405.147 14.5466 405.681 16.1999C406.267 17.8533 406.827 19.5599 407.361 21.3199C407.947 23.0799 408.507 24.8399 409.041 26.5999C409.574 28.3066 410.054 29.8533 410.481 31.2399H410.881C412.161 26.7599 413.441 22.4399 414.721 18.2799C416.001 14.0666 417.174 10.5466 418.241 7.71994C419.041 7.29327 420.054 6.94661 421.281 6.67994C422.561 6.35994 423.974 6.19994 425.521 6.19994C428.134 6.19994 430.267 6.59994 431.921 7.39994C433.574 8.14661 434.534 9.23994 434.801 10.6799C435.014 11.7466 435.227 13.3999 435.441 15.6399C435.707 17.8266 435.974 20.3066 436.241 23.0799C436.507 25.8533 436.774 28.7866 437.041 31.8799C437.307 34.9733 437.547 37.9599 437.761 40.8399C438.027 43.6666 438.241 46.2799 438.401 48.6799C438.561 51.0266 438.667 52.8399 438.721 54.1199C437.814 54.6533 436.854 55.0266 435.841 55.2399C434.881 55.5066 433.627 55.6399 432.081 55.6399C430.054 55.6399 428.347 55.2933 426.961 54.5999C425.574 53.9066 424.827 52.5466 424.721 50.5199C424.401 44.7066 424.187 39.4799 424.081 34.8399C424.027 30.1999 423.921 26.3066 423.761 23.1599H423.361C422.827 25.2399 422.054 27.8533 421.041 30.9999C420.027 34.1466 418.801 38.1733 417.361 43.0799Z" fill="#F6EDDE"/>
<path d="M470.921 54.6799C470.335 54.8399 469.428 54.9999 468.201 55.1599C466.975 55.3199 465.775 55.3999 464.601 55.3999C462.148 55.3999 460.308 54.9999 459.081 54.1999C457.855 53.3466 457.241 51.5866 457.241 48.9199V38.1199C455.908 36.1466 454.468 33.9599 452.921 31.5599C451.375 29.1599 449.855 26.7066 448.361 24.1999C446.868 21.6933 445.481 19.2399 444.201 16.8399C442.921 14.3866 441.881 12.1466 441.081 10.1199C441.775 9.15994 442.708 8.27994 443.881 7.47994C445.108 6.67994 446.601 6.27994 448.361 6.27994C450.441 6.27994 452.121 6.70661 453.401 7.55994C454.735 8.41328 455.988 10.0133 457.161 12.3599L463.801 25.7199H464.281C465.028 24.0666 465.668 22.5733 466.201 21.2399C466.788 19.8533 467.348 18.4933 467.881 17.1599C468.415 15.7733 468.975 14.3599 469.561 12.9199C470.148 11.4266 470.815 9.71994 471.561 7.79994C472.521 7.31994 473.588 6.94661 474.761 6.67994C475.935 6.41327 477.055 6.27994 478.121 6.27994C479.988 6.27994 481.561 6.78661 482.841 7.79994C484.175 8.75994 484.841 10.2266 484.841 12.1999C484.841 12.8399 484.708 13.6133 484.441 14.5199C484.175 15.4266 483.561 16.8133 482.601 18.6799C481.641 20.4933 480.228 22.9733 478.361 26.1199C476.548 29.2666 474.068 33.3733 470.921 38.4399V54.6799Z" fill="#F6EDDE"/>
<path d="M550.794 54.6799C550.208 54.8399 549.274 54.9999 547.994 55.1599C546.768 55.3199 545.541 55.3999 544.314 55.3999C543.088 55.3999 541.994 55.2933 541.034 55.0799C540.128 54.9199 539.354 54.5999 538.714 54.1199C538.074 53.6399 537.594 52.9733 537.274 52.1199C536.954 51.2666 536.794 50.1466 536.794 48.7599V36.2799H521.434V54.6799C520.848 54.8399 519.914 54.9999 518.634 55.1599C517.408 55.3199 516.181 55.3999 514.954 55.3999C513.728 55.3999 512.634 55.2933 511.674 55.0799C510.768 54.9199 509.994 54.5999 509.354 54.1199C508.714 53.6399 508.234 52.9733 507.914 52.1199C507.594 51.2666 507.434 50.1466 507.434 48.7599V6.51994C508.021 6.41327 508.954 6.27994 510.234 6.11994C511.514 5.90661 512.741 5.79994 513.914 5.79994C515.141 5.79994 516.208 5.90661 517.114 6.11994C518.074 6.27994 518.874 6.59994 519.514 7.07994C520.154 7.55994 520.634 8.22661 520.954 9.07994C521.274 9.93328 521.434 11.0533 521.434 12.4399V25.2399H536.794V6.51994C537.381 6.41327 538.314 6.27994 539.594 6.11994C540.874 5.90661 542.101 5.79994 543.274 5.79994C544.501 5.79994 545.568 5.90661 546.474 6.11994C547.434 6.27994 548.234 6.59994 548.874 7.07994C549.514 7.55994 549.994 8.22661 550.314 9.07994C550.634 9.93328 550.794 11.0533 550.794 12.4399V54.6799Z" fill="#F6EDDE"/>
<path d="M561.184 13.9599C561.184 11.6666 561.851 9.85327 563.184 8.51994C564.518 7.18661 566.331 6.51994 568.624 6.51994H595.024C595.398 7.10661 595.718 7.87994 595.984 8.83994C596.304 9.79994 596.464 10.8133 596.464 11.8799C596.464 13.9066 596.011 15.3466 595.104 16.1999C594.251 17.0533 593.104 17.4799 591.664 17.4799H574.784V24.9199H592.784C593.158 25.5066 593.478 26.2799 593.744 27.2399C594.064 28.1466 594.224 29.1333 594.224 30.1999C594.224 32.2266 593.798 33.6666 592.944 34.5199C592.091 35.3733 590.944 35.7999 589.504 35.7999H574.784V44.1999H595.344C595.718 44.7866 596.038 45.5599 596.304 46.5199C596.624 47.4799 596.784 48.4933 596.784 49.5599C596.784 51.5866 596.331 53.0533 595.424 53.9599C594.571 54.8133 593.424 55.2399 591.984 55.2399H568.624C566.331 55.2399 564.518 54.5733 563.184 53.2399C561.851 51.9066 561.184 50.0933 561.184 47.7999V13.9599Z" fill="#F6EDDE"/>
<path d="M616.348 7.95994C617.255 7.42661 618.615 6.91994 620.428 6.43994C622.295 5.95994 624.161 5.71994 626.028 5.71994C628.695 5.71994 631.041 6.11994 633.068 6.91994C635.148 7.66661 636.481 8.86661 637.068 10.5199C638.028 13.2933 639.068 16.5199 640.188 20.1999C641.308 23.8799 642.428 27.6933 643.548 31.6399C644.668 35.5333 645.761 39.3999 646.828 43.2399C647.895 47.0266 648.828 50.3866 649.628 53.3199C648.988 54.0666 648.028 54.6533 646.748 55.0799C645.468 55.5599 643.948 55.7999 642.188 55.7999C640.908 55.7999 639.815 55.6933 638.908 55.4799C638.055 55.2666 637.335 54.9466 636.748 54.5199C636.215 54.0933 635.761 53.5333 635.388 52.8399C635.068 52.1466 634.775 51.3466 634.508 50.4399L633.068 44.9199H618.588C618.161 46.5199 617.735 48.1733 617.308 49.8799C616.881 51.5866 616.455 53.2399 616.028 54.8399C615.281 55.1066 614.481 55.3199 613.628 55.4799C612.828 55.6933 611.841 55.7999 610.668 55.7999C607.948 55.7999 605.921 55.3466 604.588 54.4399C603.308 53.4799 602.668 52.1733 602.668 50.5199C602.668 49.7733 602.775 49.0266 602.988 48.2799C603.201 47.5333 603.441 46.6533 603.708 45.6399C604.081 44.1999 604.588 42.4133 605.228 40.2799C605.921 38.1466 606.668 35.8533 607.468 33.3999C608.268 30.8933 609.121 28.3333 610.028 25.7199C610.935 23.1066 611.788 20.6533 612.588 18.3599C613.388 16.0133 614.108 13.9333 614.748 12.1199C615.441 10.3066 615.975 8.91994 616.348 7.95994ZM625.948 18.2799C625.201 20.5199 624.348 23.0266 623.388 25.7999C622.481 28.5199 621.655 31.2933 620.908 34.1199H630.828C630.081 31.2399 629.308 28.4399 628.508 25.7199C627.761 22.9466 627.068 20.4666 626.428 18.2799H625.948Z" fill="#F6EDDE"/>
<path d="M670.104 39.3199V54.6799C669.518 54.8399 668.584 54.9999 667.304 55.1599C666.078 55.3199 664.851 55.3999 663.624 55.3999C662.398 55.3999 661.304 55.2933 660.344 55.0799C659.438 54.9199 658.664 54.5999 658.024 54.1199C657.438 53.6399 656.984 52.9733 656.664 52.1199C656.344 51.2666 656.184 50.1466 656.184 48.7599V11.0799C656.184 9.95994 656.478 9.1066 657.064 8.51994C657.704 7.87994 658.558 7.37327 659.624 6.99994C661.438 6.35994 663.544 5.9066 665.944 5.63994C668.344 5.31994 670.904 5.15994 673.624 5.15994C680.984 5.15994 686.531 6.70661 690.264 9.79994C693.998 12.8933 695.864 17.0799 695.864 22.3599C695.864 25.6666 695.011 28.4933 693.304 30.8399C691.598 33.1866 689.571 34.9999 687.224 36.2799C689.144 38.8933 691.038 41.3466 692.904 43.6399C694.771 45.9333 696.238 48.0133 697.304 49.8799C696.771 51.7466 695.784 53.1866 694.344 54.1999C692.958 55.1599 691.384 55.6399 689.624 55.6399C688.451 55.6399 687.438 55.5066 686.584 55.2399C685.731 54.9733 684.984 54.5999 684.344 54.1199C683.704 53.6399 683.118 53.0533 682.584 52.3599C682.051 51.6666 681.544 50.9199 681.064 50.1199L674.344 39.3199H670.104ZM675.144 28.6799C677.171 28.6799 678.771 28.1733 679.944 27.1599C681.118 26.0933 681.704 24.5466 681.704 22.5199C681.704 20.4933 681.038 18.9733 679.704 17.9599C678.424 16.8933 676.371 16.3599 673.544 16.3599C672.744 16.3599 672.104 16.3866 671.624 16.4399C671.144 16.4933 670.611 16.5733 670.024 16.6799V28.6799H675.144Z" fill="#F6EDDE"/>
<path d="M701.522 17.7199C701.149 17.1333 700.802 16.3333 700.482 15.3199C700.162 14.3066 700.002 13.2399 700.002 12.1199C700.002 10.0399 700.456 8.54661 701.362 7.63994C702.322 6.73327 703.549 6.27994 705.042 6.27994H739.922C740.296 6.86661 740.642 7.66661 740.962 8.67994C741.282 9.69328 741.442 10.7599 741.442 11.8799C741.442 13.9599 740.962 15.4533 740.002 16.3599C739.096 17.2666 737.896 17.7199 736.402 17.7199H727.522V54.6799C726.936 54.8399 726.002 54.9999 724.722 55.1599C723.496 55.3199 722.269 55.3999 721.042 55.3999C719.816 55.3999 718.722 55.2933 717.762 55.0799C716.856 54.9199 716.082 54.5999 715.442 54.1199C714.802 53.6399 714.322 52.9733 714.002 52.1199C713.682 51.2666 713.522 50.1466 713.522 48.7599V17.7199H701.522Z" fill="#F6EDDE"/>
<path d="M777.991 8.59994C777.991 9.82661 777.965 11.6133 777.911 13.9599C777.858 16.2533 777.751 18.7599 777.591 21.4799C777.431 24.1466 777.218 26.8399 776.951 29.5599C776.685 32.2266 776.365 34.5466 775.991 36.5199C775.778 36.6799 775.458 36.8399 775.031 36.9999C774.605 37.1599 774.151 37.2933 773.671 37.3999C773.191 37.5066 772.711 37.5866 772.231 37.6399C771.751 37.6933 771.325 37.7199 770.951 37.7199C769.405 37.7199 768.098 37.4799 767.031 36.9999C766.018 36.5199 765.378 35.5866 765.111 34.1999C764.845 32.9733 764.605 31.1066 764.391 28.5999C764.231 26.0933 764.071 23.3733 763.911 20.4399C763.751 17.5066 763.618 14.5999 763.511 11.7199C763.458 8.83994 763.431 6.38661 763.431 4.35994C764.498 3.77327 765.698 3.31994 767.031 2.99994C768.418 2.62661 769.778 2.43994 771.111 2.43994C773.298 2.43994 774.978 2.94661 776.151 3.95994C777.378 4.97327 777.991 6.51994 777.991 8.59994ZM763.271 48.9199C763.271 46.7333 763.938 44.9466 765.271 43.5599C766.658 42.1199 768.551 41.3999 770.951 41.3999C773.351 41.3999 775.218 42.1199 776.551 43.5599C777.938 44.9466 778.631 46.7333 778.631 48.9199C778.631 51.1066 777.938 52.9199 776.551 54.3599C775.218 55.7466 773.351 56.4399 770.951 56.4399C768.551 56.4399 766.658 55.7466 765.271 54.3599C763.938 52.9199 763.271 51.1066 763.271 48.9199Z" fill="#F6EDDE"/>
<path d="M9.63995 55.2399C7.34662 55.2399 5.53328 54.5733 4.19995 53.2399C2.86662 51.9066 2.19995 50.0933 2.19995 47.7999V6.43994C2.78662 6.33327 3.71995 6.19994 4.99995 6.03994C6.27995 5.82661 7.50662 5.71994 8.67995 5.71994C9.90662 5.71994 10.9733 5.82661 11.88 6.03994C12.84 6.19994 13.64 6.51994 14.28 6.99994C14.92 7.47994 15.4 8.14661 15.72 8.99994C16.04 9.85327 16.2 10.9733 16.2 12.3599V43.9599H34.52C34.8933 44.5466 35.24 45.3466 35.56 46.3599C35.88 47.3199 36.04 48.3333 36.04 49.3999C36.04 51.5333 35.5866 53.0533 34.68 53.9599C33.7733 54.8133 32.5733 55.2399 31.08 55.2399H9.63995Z" stroke="black" stroke-width="4" mask="url(#path-1-outside-1_624_1110)"/>
<path d="M57.2156 54.6799C56.6289 54.8399 55.6956 54.9999 54.4156 55.1599C53.1889 55.3199 51.9622 55.3999 50.7356 55.3999C49.5089 55.3999 48.4156 55.2933 47.4556 55.0799C46.5489 54.9199 45.7756 54.5999 45.1356 54.1199C44.4956 53.6399 44.0156 52.9733 43.6956 52.1199C43.3756 51.2666 43.2156 50.1466 43.2156 48.7599V6.51994C43.8022 6.41327 44.7356 6.27994 46.0156 6.11994C47.2956 5.90661 48.5222 5.79994 49.6956 5.79994C50.9222 5.79994 51.9889 5.90661 52.8956 6.11994C53.8556 6.27994 54.6556 6.59994 55.2956 7.07994C55.9356 7.55994 56.4156 8.22661 56.7356 9.07994C57.0556 9.93328 57.2156 11.0533 57.2156 12.4399V54.6799Z" stroke="black" stroke-width="4" mask="url(#path-1-outside-1_624_1110)"/>
<path d="M81.3506 35.7199C79.0039 34.9199 76.8706 34.1199 74.9506 33.3199C73.0306 32.4666 71.3772 31.4533 69.9906 30.2799C68.6039 29.1066 67.5106 27.7199 66.7106 26.1199C65.9639 24.4666 65.5906 22.4666 65.5906 20.1199C65.5906 15.5866 67.3239 11.9599 70.7906 9.23994C74.3106 6.51994 79.2172 5.15994 85.5106 5.15994C87.8039 5.15994 89.9373 5.31994 91.9106 5.63994C93.8839 5.95994 95.5639 6.46661 96.9506 7.15994C98.3906 7.79994 99.5106 8.65327 100.311 9.71994C101.111 10.7333 101.511 11.9333 101.511 13.3199C101.511 14.7066 101.191 15.9066 100.551 16.9199C99.9106 17.8799 99.1373 18.7066 98.2306 19.3999C97.0573 18.6533 95.4839 18.0133 93.5106 17.4799C91.5372 16.8933 89.3772 16.5999 87.0306 16.5999C84.6306 16.5999 82.8706 16.9466 81.7506 17.6399C80.6306 18.2799 80.0706 19.1066 80.0706 20.1199C80.0706 20.9199 80.4172 21.5866 81.1106 22.1199C81.8039 22.5999 82.8439 23.0533 84.2306 23.4799L88.4706 24.8399C93.4839 26.4399 97.3239 28.4933 99.9906 30.9999C102.711 33.4533 104.071 36.8133 104.071 41.0799C104.071 45.6133 102.284 49.2933 98.7106 52.1199C95.1372 54.8933 89.8839 56.2799 82.9506 56.2799C80.4972 56.2799 78.2039 56.0666 76.0706 55.6399C73.9906 55.2666 72.1506 54.7066 70.5506 53.9599C69.0039 53.1599 67.7772 52.1999 66.8706 51.0799C66.0172 49.9066 65.5906 48.5733 65.5906 47.0799C65.5906 45.5333 66.0439 44.2266 66.9506 43.1599C67.8572 42.0399 68.8439 41.1866 69.9106 40.5999C71.4039 41.7733 73.2172 42.7866 75.3506 43.6399C77.5372 44.4933 79.9106 44.9199 82.4706 44.9199C85.0839 44.9199 86.9239 44.5199 87.9906 43.7199C89.0572 42.9199 89.5906 41.9866 89.5906 40.9199C89.5906 39.8533 89.1639 39.0533 88.3106 38.5199C87.4572 37.9333 86.2572 37.3733 84.7106 36.8399L81.3506 35.7199Z" stroke="black" stroke-width="4" mask="url(#path-1-outside-1_624_1110)"/>
<path d="M108.397 17.7199C108.024 17.1333 107.677 16.3333 107.357 15.3199C107.037 14.3066 106.877 13.2399 106.877 12.1199C106.877 10.0399 107.331 8.54661 108.237 7.63994C109.197 6.73327 110.424 6.27994 111.917 6.27994H146.797C147.171 6.86661 147.517 7.66661 147.837 8.67994C148.157 9.69328 148.317 10.7599 148.317 11.8799C148.317 13.9599 147.837 15.4533 146.877 16.3599C145.971 17.2666 144.771 17.7199 143.277 17.7199H134.397V54.6799C133.811 54.8399 132.877 54.9999 131.597 55.1599C130.371 55.3199 129.144 55.3999 127.917 55.3999C126.691 55.3999 125.597 55.2933 124.637 55.0799C123.731 54.9199 122.957 54.5999 122.317 54.1199C121.677 53.6399 121.197 52.9733 120.877 52.1199C120.557 51.2666 120.397 50.1466 120.397 48.7599V17.7199H108.397Z" stroke="black" stroke-width="4" mask="url(#path-1-outside-1_624_1110)"/>
<path d="M155.091 13.9599C155.091 11.6666 155.757 9.85327 157.091 8.51994C158.424 7.18661 160.237 6.51994 162.531 6.51994H188.931C189.304 7.10661 189.624 7.87994 189.891 8.83994C190.211 9.79994 190.371 10.8133 190.371 11.8799C190.371 13.9066 189.917 15.3466 189.011 16.1999C188.157 17.0533 187.011 17.4799 185.571 17.4799H168.691V24.9199H186.691C187.064 25.5066 187.384 26.2799 187.651 27.2399C187.971 28.1466 188.131 29.1333 188.131 30.1999C188.131 32.2266 187.704 33.6666 186.851 34.5199C185.997 35.3733 184.851 35.7999 183.411 35.7999H168.691V44.1999H189.251C189.624 44.7866 189.944 45.5599 190.211 46.5199C190.531 47.4799 190.691 48.4933 190.691 49.5599C190.691 51.5866 190.237 53.0533 189.331 53.9599C188.477 54.8133 187.331 55.2399 185.891 55.2399H162.531C160.237 55.2399 158.424 54.5733 157.091 53.2399C155.757 51.9066 155.091 50.0933 155.091 47.7999V13.9599Z" stroke="black" stroke-width="4" mask="url(#path-1-outside-1_624_1110)"/>
<path d="M242.839 53.3199C242.092 54.0666 240.999 54.6266 239.559 54.9999C238.172 55.4266 236.492 55.6399 234.519 55.6399C232.545 55.6399 230.679 55.3466 228.919 54.7599C227.159 54.1733 225.719 52.7599 224.599 50.5199L216.679 34.3599C215.879 32.7066 215.159 31.1599 214.519 29.7199C213.879 28.2266 213.185 26.5199 212.439 24.5999L211.959 24.6799C212.172 27.5599 212.279 30.4933 212.279 33.4799C212.332 36.4666 212.359 39.3999 212.359 42.2799V54.6799C211.772 54.8399 210.865 54.9999 209.639 55.1599C208.465 55.3199 207.292 55.3999 206.119 55.3999C204.945 55.3999 203.905 55.3199 202.999 55.1599C202.092 54.9999 201.345 54.6799 200.759 54.1999C200.172 53.7199 199.719 53.0799 199.399 52.2799C199.079 51.4266 198.919 50.3333 198.919 48.9999V8.99994C199.665 7.93327 200.812 7.13327 202.359 6.59994C203.905 6.06661 205.559 5.79994 207.319 5.79994C209.292 5.79994 211.159 6.11994 212.919 6.75994C214.732 7.34661 216.172 8.73327 217.239 10.9199L225.239 27.0799C226.039 28.7333 226.759 30.3066 227.399 31.7999C228.039 33.2399 228.732 34.9199 229.479 36.8399L229.879 36.7599C229.665 33.8799 229.532 30.9999 229.479 28.1199C229.425 25.2399 229.399 22.3599 229.399 19.4799V6.51994C229.985 6.35994 230.865 6.19994 232.039 6.03994C233.265 5.87994 234.465 5.79994 235.639 5.79994C237.985 5.79994 239.772 6.22661 240.999 7.07994C242.225 7.87994 242.839 9.58661 242.839 12.1999V53.3199Z" stroke="black" stroke-width="4" mask="url(#path-1-outside-1_624_1110)"/>
<path d="M266.991 17.7199C266.618 17.1333 266.271 16.3333 265.951 15.3199C265.631 14.3066 265.471 13.2399 265.471 12.1199C265.471 10.0399 265.925 8.54661 266.831 7.63994C267.791 6.73327 269.018 6.27994 270.511 6.27994H305.391C305.765 6.86661 306.111 7.66661 306.431 8.67994C306.751 9.69328 306.911 10.7599 306.911 11.8799C306.911 13.9599 306.431 15.4533 305.471 16.3599C304.565 17.2666 303.365 17.7199 301.871 17.7199H292.991V54.6799C292.405 54.8399 291.471 54.9999 290.191 55.1599C288.965 55.3199 287.738 55.3999 286.511 55.3999C285.285 55.3999 284.191 55.2933 283.231 55.0799C282.325 54.9199 281.551 54.5999 280.911 54.1199C280.271 53.6399 279.791 52.9733 279.471 52.1199C279.151 51.2666 278.991 50.1466 278.991 48.7599V17.7199H266.991Z" stroke="black" stroke-width="4" mask="url(#path-1-outside-1_624_1110)"/>
<path d="M309.175 30.6799C309.175 26.5199 309.815 22.8399 311.095 19.6399C312.428 16.4399 314.215 13.7733 316.455 11.6399C318.748 9.45327 321.415 7.79994 324.455 6.67994C327.548 5.55994 330.882 4.99994 334.455 4.99994C338.028 4.99994 341.335 5.55994 344.375 6.67994C347.468 7.79994 350.162 9.45327 352.455 11.6399C354.748 13.7733 356.535 16.4399 357.815 19.6399C359.148 22.8399 359.815 26.5199 359.815 30.6799C359.815 34.8399 359.175 38.5466 357.895 41.7999C356.615 44.9999 354.828 47.6933 352.535 49.8799C350.295 52.0133 347.628 53.6399 344.535 54.7599C341.442 55.8799 338.082 56.4399 334.455 56.4399C330.828 56.4399 327.468 55.8799 324.375 54.7599C321.282 53.5866 318.615 51.9066 316.375 49.7199C314.135 47.5333 312.375 44.8399 311.095 41.6399C309.815 38.4399 309.175 34.7866 309.175 30.6799ZM323.575 30.6799C323.575 35.5333 324.562 39.1599 326.535 41.5599C328.508 43.9599 331.148 45.1599 334.455 45.1599C337.815 45.1599 340.482 43.9599 342.455 41.5599C344.428 39.1599 345.415 35.5333 345.415 30.6799C345.415 25.8799 344.428 22.2799 342.455 19.8799C340.535 17.4799 337.895 16.2799 334.535 16.2799C331.228 16.2799 328.562 17.4799 326.535 19.8799C324.562 22.2266 323.575 25.8266 323.575 30.6799Z" stroke="black" stroke-width="4" mask="url(#path-1-outside-1_624_1110)"/>
<path d="M417.361 43.0799C416.667 43.6666 415.761 44.1466 414.641 44.5199C413.574 44.8399 412.321 44.9999 410.881 44.9999C408.961 44.9999 407.361 44.7599 406.081 44.2799C404.854 43.7999 404.054 42.9733 403.681 41.7999C402.187 37.1066 400.961 33.3199 400.001 30.4399C399.041 27.5066 398.294 24.9466 397.761 22.7599H397.361C397.201 25.9066 397.067 28.7866 396.961 31.3999C396.907 33.9599 396.854 36.4666 396.801 38.9199C396.801 41.3733 396.747 43.8533 396.641 46.3599C396.587 48.8666 396.481 51.6399 396.321 54.6799C395.627 54.9466 394.721 55.1599 393.601 55.3199C392.481 55.5333 391.361 55.6399 390.241 55.6399C387.894 55.6399 386.054 55.2666 384.721 54.5199C383.441 53.7733 382.801 52.4133 382.801 50.4399L385.121 9.63994C385.547 8.94661 386.481 8.19994 387.921 7.39994C389.361 6.59994 391.387 6.19994 394.001 6.19994C396.827 6.19994 399.041 6.65328 400.641 7.55994C402.241 8.41328 403.414 9.82661 404.161 11.7999C404.641 13.0799 405.147 14.5466 405.681 16.1999C406.267 17.8533 406.827 19.5599 407.361 21.3199C407.947 23.0799 408.507 24.8399 409.041 26.5999C409.574 28.3066 410.054 29.8533 410.481 31.2399H410.881C412.161 26.7599 413.441 22.4399 414.721 18.2799C416.001 14.0666 417.174 10.5466 418.241 7.71994C419.041 7.29327 420.054 6.94661 421.281 6.67994C422.561 6.35994 423.974 6.19994 425.521 6.19994C428.134 6.19994 430.267 6.59994 431.921 7.39994C433.574 8.14661 434.534 9.23994 434.801 10.6799C435.014 11.7466 435.227 13.3999 435.441 15.6399C435.707 17.8266 435.974 20.3066 436.241 23.0799C436.507 25.8533 436.774 28.7866 437.041 31.8799C437.307 34.9733 437.547 37.9599 437.761 40.8399C438.027 43.6666 438.241 46.2799 438.401 48.6799C438.561 51.0266 438.667 52.8399 438.721 54.1199C437.814 54.6533 436.854 55.0266 435.841 55.2399C434.881 55.5066 433.627 55.6399 432.081 55.6399C430.054 55.6399 428.347 55.2933 426.961 54.5999C425.574 53.9066 424.827 52.5466 424.721 50.5199C424.401 44.7066 424.187 39.4799 424.081 34.8399C424.027 30.1999 423.921 26.3066 423.761 23.1599H423.361C422.827 25.2399 422.054 27.8533 421.041 30.9999C420.027 34.1466 418.801 38.1733 417.361 43.0799Z" stroke="black" stroke-width="4" mask="url(#path-1-outside-1_624_1110)"/>
<path d="M470.921 54.6799C470.335 54.8399 469.428 54.9999 468.201 55.1599C466.975 55.3199 465.775 55.3999 464.601 55.3999C462.148 55.3999 460.308 54.9999 459.081 54.1999C457.855 53.3466 457.241 51.5866 457.241 48.9199V38.1199C455.908 36.1466 454.468 33.9599 452.921 31.5599C451.375 29.1599 449.855 26.7066 448.361 24.1999C446.868 21.6933 445.481 19.2399 444.201 16.8399C442.921 14.3866 441.881 12.1466 441.081 10.1199C441.775 9.15994 442.708 8.27994 443.881 7.47994C445.108 6.67994 446.601 6.27994 448.361 6.27994C450.441 6.27994 452.121 6.70661 453.401 7.55994C454.735 8.41328 455.988 10.0133 457.161 12.3599L463.801 25.7199H464.281C465.028 24.0666 465.668 22.5733 466.201 21.2399C466.788 19.8533 467.348 18.4933 467.881 17.1599C468.415 15.7733 468.975 14.3599 469.561 12.9199C470.148 11.4266 470.815 9.71994 471.561 7.79994C472.521 7.31994 473.588 6.94661 474.761 6.67994C475.935 6.41327 477.055 6.27994 478.121 6.27994C479.988 6.27994 481.561 6.78661 482.841 7.79994C484.175 8.75994 484.841 10.2266 484.841 12.1999C484.841 12.8399 484.708 13.6133 484.441 14.5199C484.175 15.4266 483.561 16.8133 482.601 18.6799C481.641 20.4933 480.228 22.9733 478.361 26.1199C476.548 29.2666 474.068 33.3733 470.921 38.4399V54.6799Z" stroke="black" stroke-width="4" mask="url(#path-1-outside-1_624_1110)"/>
<path d="M550.794 54.6799C550.208 54.8399 549.274 54.9999 547.994 55.1599C546.768 55.3199 545.541 55.3999 544.314 55.3999C543.088 55.3999 541.994 55.2933 541.034 55.0799C540.128 54.9199 539.354 54.5999 538.714 54.1199C538.074 53.6399 537.594 52.9733 537.274 52.1199C536.954 51.2666 536.794 50.1466 536.794 48.7599V36.2799H521.434V54.6799C520.848 54.8399 519.914 54.9999 518.634 55.1599C517.408 55.3199 516.181 55.3999 514.954 55.3999C513.728 55.3999 512.634 55.2933 511.674 55.0799C510.768 54.9199 509.994 54.5999 509.354 54.1199C508.714 53.6399 508.234 52.9733 507.914 52.1199C507.594 51.2666 507.434 50.1466 507.434 48.7599V6.51994C508.021 6.41327 508.954 6.27994 510.234 6.11994C511.514 5.90661 512.741 5.79994 513.914 5.79994C515.141 5.79994 516.208 5.90661 517.114 6.11994C518.074 6.27994 518.874 6.59994 519.514 7.07994C520.154 7.55994 520.634 8.22661 520.954 9.07994C521.274 9.93328 521.434 11.0533 521.434 12.4399V25.2399H536.794V6.51994C537.381 6.41327 538.314 6.27994 539.594 6.11994C540.874 5.90661 542.101 5.79994 543.274 5.79994C544.501 5.79994 545.568 5.90661 546.474 6.11994C547.434 6.27994 548.234 6.59994 548.874 7.07994C549.514 7.55994 549.994 8.22661 550.314 9.07994C550.634 9.93328 550.794 11.0533 550.794 12.4399V54.6799Z" stroke="black" stroke-width="4" mask="url(#path-1-outside-1_624_1110)"/>
<path d="M561.184 13.9599C561.184 11.6666 561.851 9.85327 563.184 8.51994C564.518 7.18661 566.331 6.51994 568.624 6.51994H595.024C595.398 7.10661 595.718 7.87994 595.984 8.83994C596.304 9.79994 596.464 10.8133 596.464 11.8799C596.464 13.9066 596.011 15.3466 595.104 16.1999C594.251 17.0533 593.104 17.4799 591.664 17.4799H574.784V24.9199H592.784C593.158 25.5066 593.478 26.2799 593.744 27.2399C594.064 28.1466 594.224 29.1333 594.224 30.1999C594.224 32.2266 593.798 33.6666 592.944 34.5199C592.091 35.3733 590.944 35.7999 589.504 35.7999H574.784V44.1999H595.344C595.718 44.7866 596.038 45.5599 596.304 46.5199C596.624 47.4799 596.784 48.4933 596.784 49.5599C596.784 51.5866 596.331 53.0533 595.424 53.9599C594.571 54.8133 593.424 55.2399 591.984 55.2399H568.624C566.331 55.2399 564.518 54.5733 563.184 53.2399C561.851 51.9066 561.184 50.0933 561.184 47.7999V13.9599Z" stroke="black" stroke-width="4" mask="url(#path-1-outside-1_624_1110)"/>
<path d="M616.348 7.95994C617.255 7.42661 618.615 6.91994 620.428 6.43994C622.295 5.95994 624.161 5.71994 626.028 5.71994C628.695 5.71994 631.041 6.11994 633.068 6.91994C635.148 7.66661 636.481 8.86661 637.068 10.5199C638.028 13.2933 639.068 16.5199 640.188 20.1999C641.308 23.8799 642.428 27.6933 643.548 31.6399C644.668 35.5333 645.761 39.3999 646.828 43.2399C647.895 47.0266 648.828 50.3866 649.628 53.3199C648.988 54.0666 648.028 54.6533 646.748 55.0799C645.468 55.5599 643.948 55.7999 642.188 55.7999C640.908 55.7999 639.815 55.6933 638.908 55.4799C638.055 55.2666 637.335 54.9466 636.748 54.5199C636.215 54.0933 635.761 53.5333 635.388 52.8399C635.068 52.1466 634.775 51.3466 634.508 50.4399L633.068 44.9199H618.588C618.161 46.5199 617.735 48.1733 617.308 49.8799C616.881 51.5866 616.455 53.2399 616.028 54.8399C615.281 55.1066 614.481 55.3199 613.628 55.4799C612.828 55.6933 611.841 55.7999 610.668 55.7999C607.948 55.7999 605.921 55.3466 604.588 54.4399C603.308 53.4799 602.668 52.1733 602.668 50.5199C602.668 49.7733 602.775 49.0266 602.988 48.2799C603.201 47.5333 603.441 46.6533 603.708 45.6399C604.081 44.1999 604.588 42.4133 605.228 40.2799C605.921 38.1466 606.668 35.8533 607.468 33.3999C608.268 30.8933 609.121 28.3333 610.028 25.7199C610.935 23.1066 611.788 20.6533 612.588 18.3599C613.388 16.0133 614.108 13.9333 614.748 12.1199C615.441 10.3066 615.975 8.91994 616.348 7.95994ZM625.948 18.2799C625.201 20.5199 624.348 23.0266 623.388 25.7999C622.481 28.5199 621.655 31.2933 620.908 34.1199H630.828C630.081 31.2399 629.308 28.4399 628.508 25.7199C627.761 22.9466 627.068 20.4666 626.428 18.2799H625.948Z" stroke="black" stroke-width="4" mask="url(#path-1-outside-1_624_1110)"/>
<path d="M670.104 39.3199V54.6799C669.518 54.8399 668.584 54.9999 667.304 55.1599C666.078 55.3199 664.851 55.3999 663.624 55.3999C662.398 55.3999 661.304 55.2933 660.344 55.0799C659.438 54.9199 658.664 54.5999 658.024 54.1199C657.438 53.6399 656.984 52.9733 656.664 52.1199C656.344 51.2666 656.184 50.1466 656.184 48.7599V11.0799C656.184 9.95994 656.478 9.1066 657.064 8.51994C657.704 7.87994 658.558 7.37327 659.624 6.99994C661.438 6.35994 663.544 5.9066 665.944 5.63994C668.344 5.31994 670.904 5.15994 673.624 5.15994C680.984 5.15994 686.531 6.70661 690.264 9.79994C693.998 12.8933 695.864 17.0799 695.864 22.3599C695.864 25.6666 695.011 28.4933 693.304 30.8399C691.598 33.1866 689.571 34.9999 687.224 36.2799C689.144 38.8933 691.038 41.3466 692.904 43.6399C694.771 45.9333 696.238 48.0133 697.304 49.8799C696.771 51.7466 695.784 53.1866 694.344 54.1999C692.958 55.1599 691.384 55.6399 689.624 55.6399C688.451 55.6399 687.438 55.5066 686.584 55.2399C685.731 54.9733 684.984 54.5999 684.344 54.1199C683.704 53.6399 683.118 53.0533 682.584 52.3599C682.051 51.6666 681.544 50.9199 681.064 50.1199L674.344 39.3199H670.104ZM675.144 28.6799C677.171 28.6799 678.771 28.1733 679.944 27.1599C681.118 26.0933 681.704 24.5466 681.704 22.5199C681.704 20.4933 681.038 18.9733 679.704 17.9599C678.424 16.8933 676.371 16.3599 673.544 16.3599C672.744 16.3599 672.104 16.3866 671.624 16.4399C671.144 16.4933 670.611 16.5733 670.024 16.6799V28.6799H675.144Z" stroke="black" stroke-width="4" mask="url(#path-1-outside-1_624_1110)"/>
<path d="M701.522 17.7199C701.149 17.1333 700.802 16.3333 700.482 15.3199C700.162 14.3066 700.002 13.2399 700.002 12.1199C700.002 10.0399 700.456 8.54661 701.362 7.63994C702.322 6.73327 703.549 6.27994 705.042 6.27994H739.922C740.296 6.86661 740.642 7.66661 740.962 8.67994C741.282 9.69328 741.442 10.7599 741.442 11.8799C741.442 13.9599 740.962 15.4533 740.002 16.3599C739.096 17.2666 737.896 17.7199 736.402 17.7199H727.522V54.6799C726.936 54.8399 726.002 54.9999 724.722 55.1599C723.496 55.3199 722.269 55.3999 721.042 55.3999C719.816 55.3999 718.722 55.2933 717.762 55.0799C716.856 54.9199 716.082 54.5999 715.442 54.1199C714.802 53.6399 714.322 52.9733 714.002 52.1199C713.682 51.2666 713.522 50.1466 713.522 48.7599V17.7199H701.522Z" stroke="black" stroke-width="4" mask="url(#path-1-outside-1_624_1110)"/>
<path d="M777.991 8.59994C777.991 9.82661 777.965 11.6133 777.911 13.9599C777.858 16.2533 777.751 18.7599 777.591 21.4799C777.431 24.1466 777.218 26.8399 776.951 29.5599C776.685 32.2266 776.365 34.5466 775.991 36.5199C775.778 36.6799 775.458 36.8399 775.031 36.9999C774.605 37.1599 774.151 37.2933 773.671 37.3999C773.191 37.5066 772.711 37.5866 772.231 37.6399C771.751 37.6933 771.325 37.7199 770.951 37.7199C769.405 37.7199 768.098 37.4799 767.031 36.9999C766.018 36.5199 765.378 35.5866 765.111 34.1999C764.845 32.9733 764.605 31.1066 764.391 28.5999C764.231 26.0933 764.071 23.3733 763.911 20.4399C763.751 17.5066 763.618 14.5999 763.511 11.7199C763.458 8.83994 763.431 6.38661 763.431 4.35994C764.498 3.77327 765.698 3.31994 767.031 2.99994C768.418 2.62661 769.778 2.43994 771.111 2.43994C773.298 2.43994 774.978 2.94661 776.151 3.95994C777.378 4.97327 777.991 6.51994 777.991 8.59994ZM763.271 48.9199C763.271 46.7333 763.938 44.9466 765.271 43.5599C766.658 42.1199 768.551 41.3999 770.951 41.3999C773.351 41.3999 775.218 42.1199 776.551 43.5599C777.938 44.9466 778.631 46.7333 778.631 48.9199C778.631 51.1066 777.938 52.9199 776.551 54.3599C775.218 55.7466 773.351 56.4399 770.951 56.4399C768.551 56.4399 766.658 55.7466 765.271 54.3599C763.938 52.9199 763.271 51.1066 763.271 48.9199Z" stroke="black" stroke-width="4" mask="url(#path-1-outside-1_624_1110)"/>
</svg>
