<svg id="图层_1" data-name="图层 1" xmlns="http://www.w3.org/2000/svg" viewBox="0 0 152.83 261.35"><path d="M7.2,123.31c-.41-.15-1-.08-1.2-.5a38.81,38.81,0,0,1-2.48-5.73L5,118.57l-1.15-4.76,1.47.16-.21-2.19c.84.29,1.74.15,2.15.82,2,3.26,3.83,6.74,5.72,10.14l-2.76-3.65-.19.37,2.16,7.31.6-.51L11.68,123l1.29-.3A89.34,89.34,0,0,0,17.61,131a55.2,55.2,0,0,0,5.33,5.82l.55-.91-3.8-12.09c-.87.86-1.53,3.1-2.06-.13-.14-.84-1.39-1.19-2.33-1.92L17,119.54c.31-3.3-1.72-4.31-2.91-6.78l-.39,5.31-3.6-3.67c-2.21.8-1.8-4.84-4.05-4.43l.37-1.1c1.29.46,2.59.85,3.85,1.44.23.11.25,1.16.48,1.63s.66,1.09.9,1a1.92,1.92,0,0,0,.71-1.39c-.14-1.61-.44-3.18-.69-4.81,2.06-.53.89,2.88,2,4.17l-.19-6.51,2.12.89.24-4.79,1,.82.58-6.43h.55l.27,2,2.32-5.15,2.12-2.55.4,1.57.65-2.19.15,2,.25.08.7-5.28.74,9.77c.12.15-.06-.09-.25-.33l-.35.24,1.9,6.52.5-1.86,2.11,5.84.66-2.37L37.41,116l-1.34,3.93.46.45L37.7,118Q48,138.69,58.09,159.14l.47.1c0-2.66,0-5.32,0-8-.05-10.4-.22-20.81-.11-31.21q.16-16.45.8-32.91c.33-8.41,1.14-16.76,1.58-25.16.22-4.31,0-8.67.17-13,.27-5.72.81-11.41,1.19-17.13.33-4.88.58-9.78.9-14.67.16-2.36.39-4.71.64-7.63l4.38,3.95.19,3.39.54.51c1.39-2.54,2.75-5.12,4.19-7.58.4-.68,1.07-.92,1.59-1.45C76,7,78,6.78,77.68,2.82c-.06-.68.47-1.5.92-2.82.57,1.78,1,3.19,1.47,4.63s1,2.13,1.93,1S83.61,4,84.28,5.9a1.28,1.28,0,0,0,.23.42c1,1,5,.07,6-1.63l.24,2.23c.21-.17.35-.2.4-.34a46.24,46.24,0,0,1,2.2-5.22c.84-1.45,1.58-.23,2.18,1a24.53,24.53,0,0,1,1.31,2.36,3.33,3.33,0,0,1,0,1.9c-1.14,2.43-2.44,4.66-3.54,7.12-.73,1.62-1.66,3.33-.48,5.6a36.06,36.06,0,0,1,1.59,4.39l-3.06,6.05c2.42-2.55,2.64,1.44,3.56,3,.49-.19,1.19-.69,1.31-.44a4.48,4.48,0,0,1,.4,2.32c-.24,1.48-.75,2.83-1.1,4.26a20.86,20.86,0,0,0-.73,3.53c-.38,4.92-.75,9.85-1,14.8-.14,3.32.11,6.69,0,10-.19,5.65.93,11.26-.13,17-.49,2.67-.05,5.78-.07,8.68,0,6.54-.09,13.08-.2,19.61-.17,10.51-.47,21-.54,31.52,0,2.63.86,5.27.94,7.93a53.46,53.46,0,0,1-.67,6.85c-.2,2-.37,4-.65,6.92a22.16,22.16,0,0,0,1.68-2.49c5.67-11.84,10.66-24.42,15.49-37.18,2.26-6,4.78-11.65,7.18-17.47l.48.42-.54,2.45h1.52l0,.4L115,114.35l1.26,2.4-2.22,4.3-.26-.15.87-3.24c-2.62,3.77-3.26,8.92-4,14.12l-.73-2.18c-.18,1.05-.33,1.87-.52,3l2.28,1-.43,1.87c.32-.1.53-.06.63-.21a13.48,13.48,0,0,0,2.43-6.05c.43-2.62,1.51-5,2.36-7.62.89,4-.35,7-1.39,10l.4.45,2-4.92.51.47c-.45,1.63-.91,3.25-1.36,4.88l.51.49c.43-1.13.86-2.27,1.3-3.39a14.23,14.23,0,0,1,1.87-3.64l-.43,2.72c.88-1.73,1.46-2.85,2.17-4.24l-1.67-.58,2.82-2.47,0-.08.27,1.2a28.69,28.69,0,0,0-1.55,4.41,26.78,26.78,0,0,0,0,4.4l.73.22c.34-.69.69-1.38,1-2.07a14.36,14.36,0,0,1,1.13-2.14c1.24-1.63,2.54-3.15,3.69-4.57l-1-2.71c1.55-.93,1.31-2.93.73-5.71l2.25,2.64c2-.37,2.12-3.78,3.27-6.32l-2.91.75-.63-2.07c.32-.24.81-.36.91-.75.3-1.12.44-2.34.71-3.86l-.53-.64c.84-2.13,1.66-4.24,2.69-6.87.12,2.6.26,4.73.28,6.86,0,.35-.61.63-.82,1.09a13.3,13.3,0,0,0-.5,1.84c.47.16,1,.6,1.39.4a13.41,13.41,0,0,0,2.23-1.73l.37.93L134.81,109l.09.4,3.67-2v3.75a7.55,7.55,0,0,1,2-.71c.33,0,.68.67,1.29,1.34l3.35-.64.12.9-.71.73,5.65,4.93L149,119.16l1.31.19.08.38-1,.57v.4l3.38-.36c-2.92,2.53-6.21,1.76-8.2,6.53l1.49-.5-3.93,6.08,1.18,1.43-5.73,14.65L135,146.09l-.4.75,1.75,2.49a4.6,4.6,0,0,1-.22,1.39c-1.3,2.56-2.69,5-4,7.6-.54,1.09-.84,2.49-1.33,3.65-2.43,5.7-4.77,11.51-7.37,17-3,6.27-6.17,12.22-9.22,18.36-2.17,4.35-4.33,8.72-6.36,13.24-5.21,11.65-10.79,22.76-17.38,32.48-2.1,3.1-3.94,6.7-6.06,9.79-1.91,2.78-4,5.18-6,7.69L77,257.8c-1.6,1.38-3,3.51-4.38,3.55-2.13.06-4-2.17-5.39-5C63.17,248.25,59,240.2,55,231.9,50.58,222.58,46.34,213,42,203.57,38.45,196,35,188.21,31.31,180.88c-5-9.73-10.2-19.11-15.32-28.64-2.61-4.86-5-10.12-7.92-14.43-1.66-2.45-2.42-5.75-4.07-8.16s-2.86-5.94-4-9.54l3.15,3,.2-2.66,2.21,3.36-.22.54-1.33-1c.09,2.13.4,3.77,1.89,3.82l-.05-.07,1.23,4.09-.24.2-1.11-2.1c.66,4.83,3.23,6.29,5.06,7.84l.87,5.9,1.79-1.07a19.72,19.72,0,0,0,.69,2.42,17.64,17.64,0,0,0,1.17,2l-.3.43-1.62-2.14-.3.64c1.9,4.43,4.7,7,7.7,9.3l-1.79.49,1.93,1.61L22,153.35l1,1a11,11,0,0,0-1.45-4.56c-1.76-2.54-3.67-4.82-5.88-7.66,2.83.46,4.65,2.32,6.14,5.21l.38-.63-2.49-4.4.44-.67,2.67,3.43.41-.7c-1.26-2.18-2.53-4.36-3.79-6.55l.24-.42,1.17,1.13c-1.34-4.32-6.95-12.54-7.73-11.34l.35,2-.47.42-1-2.4-1.51.31.19,1.31-.29.25-2.75-4.58Zm66,45.26c-.12-.19-.6-.66-.58-1.07.09-2.16.36-4.29.47-6.44a20.41,20.41,0,0,0-.19-3.41,1,1,0,0,0-.69-.7c-.23,0-.63.37-.67.68-.29,2.12-1,4.6-.61,6.33a21.31,21.31,0,0,1,.14,7.41c-.34,3.21,0,5.68,2.3,7.9-.23-2.12-.39-3.56-.55-5l-.54.14Zm36.14-28.4c1.89-2.76,1.89-2.76,1.12-5.46C108.38,136.27,108.08,137.75,109.3,140.17ZM22.42,155.44c.42,3.68.88,4.21,3,3.56C24.78,157.1,24.54,154.36,22.42,155.44ZM69.74,18.3l-.59-.07-.36,7,.64.07Zm1.65,169.51c.89.87,1.78,1.73,2.68,2.62C74.48,188.52,73.35,187.13,71.39,187.81Z"/></svg>