<svg width="150" height="150" viewBox="0 0 150 150" fill="none" xmlns="http://www.w3.org/2000/svg">
<path d="M40.9091 0H36.3636V4.54545H40.9091V0Z" fill="#1E3138"/>
<path d="M45.4545 0H40.9091V4.54545H45.4545V0Z" fill="#1E3138"/>
<path d="M50 0H45.4545V4.54545H50V0Z" fill="#1E3138"/>
<path d="M59.0909 0H54.5455V4.54545H59.0909V0Z" fill="#1E3138"/>
<path d="M63.6364 0H59.0909V4.54545H63.6364V0Z" fill="#1E3138"/>
<path d="M68.1818 0H63.6364V4.54545H68.1818V0Z" fill="#1E3138"/>
<path d="M72.7273 0H68.1818V4.54545H72.7273V0Z" fill="#1E3138"/>
<path d="M77.2727 0H72.7273V4.54545H77.2727V0Z" fill="#1E3138"/>
<path d="M81.8182 0H77.2727V4.54545H81.8182V0Z" fill="#1E3138"/>
<path d="M86.3636 0H81.8182V4.54545H86.3636V0Z" fill="#1E3138"/>
<path d="M100 0H95.4546V4.54545H100V0Z" fill="#1E3138"/>
<path d="M109.091 0H104.545V4.54545H109.091V0Z" fill="#1E3138"/>
<path d="M113.636 0H109.091V4.54545H113.636V0Z" fill="#1E3138"/>
<path d="M40.9091 4.54547H36.3636V9.09093H40.9091V4.54547Z" fill="#1E3138"/>
<path d="M63.6364 4.54547H59.0909V9.09093H63.6364V4.54547Z" fill="#1E3138"/>
<path d="M72.7273 4.54547H68.1818V9.09093H72.7273V4.54547Z" fill="#1E3138"/>
<path d="M86.3636 4.54547H81.8182V9.09093H86.3636V4.54547Z" fill="#1E3138"/>
<path d="M113.636 4.54547H109.091V9.09093H113.636V4.54547Z" fill="#1E3138"/>
<path d="M40.9091 9.09088H36.3636V13.6363H40.9091V9.09088Z" fill="#1E3138"/>
<path d="M50 9.09088H45.4545V13.6363H50V9.09088Z" fill="#1E3138"/>
<path d="M63.6364 9.09088H59.0909V13.6363H63.6364V9.09088Z" fill="#1E3138"/>
<path d="M68.1818 9.09088H63.6364V13.6363H68.1818V9.09088Z" fill="#1E3138"/>
<path d="M72.7273 9.09088H68.1818V13.6363H72.7273V9.09088Z" fill="#1E3138"/>
<path d="M81.8182 9.09088H77.2727V13.6363H81.8182V9.09088Z" fill="#1E3138"/>
<path d="M86.3636 9.09088H81.8182V13.6363H86.3636V9.09088Z" fill="#1E3138"/>
<path d="M95.4545 9.09088H90.9091V13.6363H95.4545V9.09088Z" fill="#1E3138"/>
<path d="M100 9.09088H95.4546V13.6363H100V9.09088Z" fill="#1E3138"/>
<path d="M104.545 9.09088H100V13.6363H104.545V9.09088Z" fill="#1E3138"/>
<path d="M109.091 9.09088H104.545V13.6363H109.091V9.09088Z" fill="#1E3138"/>
<path d="M113.636 9.09088H109.091V13.6363H113.636V9.09088Z" fill="#1E3138"/>
<path d="M45.4545 13.6364H40.9091V18.1818H45.4545V13.6364Z" fill="#1E3138"/>
<path d="M59.0909 13.6364H54.5455V18.1818H59.0909V13.6364Z" fill="#1E3138"/>
<path d="M72.7273 13.6364H68.1818V18.1818H72.7273V13.6364Z" fill="#1E3138"/>
<path d="M81.8182 13.6364H77.2727V18.1818H81.8182V13.6364Z" fill="#1E3138"/>
<path d="M95.4545 13.6364H90.9091V18.1818H95.4545V13.6364Z" fill="#1E3138"/>
<path d="M104.545 13.6364H100V18.1818H104.545V13.6364Z" fill="#1E3138"/>
<path d="M109.091 13.6364H104.545V18.1818H109.091V13.6364Z" fill="#1E3138"/>
<path d="M45.4545 18.1818H40.9091V22.7273H45.4545V18.1818Z" fill="#1E3138"/>
<path d="M54.5455 18.1818H50V22.7273H54.5455V18.1818Z" fill="#1E3138"/>
<path d="M68.1818 18.1818H63.6364V22.7273H68.1818V18.1818Z" fill="#1E3138"/>
<path d="M72.7273 18.1818H68.1818V22.7273H72.7273V18.1818Z" fill="#1E3138"/>
<path d="M77.2727 18.1818H72.7273V22.7273H77.2727V18.1818Z" fill="#1E3138"/>
<path d="M81.8182 18.1818H77.2727V22.7273H81.8182V18.1818Z" fill="#1E3138"/>
<path d="M86.3636 18.1818H81.8182V22.7273H86.3636V18.1818Z" fill="#1E3138"/>
<path d="M90.9091 18.1818H86.3636V22.7273H90.9091V18.1818Z" fill="#1E3138"/>
<path d="M95.4545 18.1818H90.9091V22.7273H95.4545V18.1818Z" fill="#1E3138"/>
<path d="M113.636 18.1818H109.091V22.7273H113.636V18.1818Z" fill="#1E3138"/>
<path d="M40.9091 22.7273H36.3636V27.2727H40.9091V22.7273Z" fill="#1E3138"/>
<path d="M45.4545 22.7273H40.9091V27.2727H45.4545V22.7273Z" fill="#1E3138"/>
<path d="M59.0909 22.7273H54.5455V27.2727H59.0909V22.7273Z" fill="#1E3138"/>
<path d="M81.8182 22.7273H77.2727V27.2727H81.8182V22.7273Z" fill="#1E3138"/>
<path d="M95.4545 22.7273H90.9091V27.2727H95.4545V22.7273Z" fill="#1E3138"/>
<path d="M100 22.7273H95.4546V27.2727H100V22.7273Z" fill="#1E3138"/>
<path d="M104.545 22.7273H100V27.2727H104.545V22.7273Z" fill="#1E3138"/>
<path d="M40.9091 27.2727H36.3636V31.8182H40.9091V27.2727Z" fill="#1E3138"/>
<path d="M50 27.2727H45.4545V31.8182H50V27.2727Z" fill="#1E3138"/>
<path d="M59.0909 27.2727H54.5455V31.8182H59.0909V27.2727Z" fill="#1E3138"/>
<path d="M68.1818 27.2727H63.6364V31.8182H68.1818V27.2727Z" fill="#1E3138"/>
<path d="M77.2727 27.2727H72.7273V31.8182H77.2727V27.2727Z" fill="#1E3138"/>
<path d="M86.3636 27.2727H81.8182V31.8182H86.3636V27.2727Z" fill="#1E3138"/>
<path d="M95.4545 27.2727H90.9091V31.8182H95.4545V27.2727Z" fill="#1E3138"/>
<path d="M104.545 27.2727H100V31.8182H104.545V27.2727Z" fill="#1E3138"/>
<path d="M113.636 27.2727H109.091V31.8182H113.636V27.2727Z" fill="#1E3138"/>
<path d="M40.9091 31.8182H36.3636V36.3636H40.9091V31.8182Z" fill="#1E3138"/>
<path d="M45.4545 31.8182H40.9091V36.3636H45.4545V31.8182Z" fill="#1E3138"/>
<path d="M50 31.8182H45.4545V36.3636H50V31.8182Z" fill="#1E3138"/>
<path d="M54.5455 31.8182H50V36.3636H54.5455V31.8182Z" fill="#1E3138"/>
<path d="M68.1818 31.8182H63.6364V36.3636H68.1818V31.8182Z" fill="#1E3138"/>
<path d="M72.7273 31.8182H68.1818V36.3636H72.7273V31.8182Z" fill="#1E3138"/>
<path d="M77.2727 31.8182H72.7273V36.3636H77.2727V31.8182Z" fill="#1E3138"/>
<path d="M86.3636 31.8182H81.8182V36.3636H86.3636V31.8182Z" fill="#1E3138"/>
<path d="M90.9091 31.8182H86.3636V36.3636H90.9091V31.8182Z" fill="#1E3138"/>
<path d="M95.4545 31.8182H90.9091V36.3636H95.4545V31.8182Z" fill="#1E3138"/>
<path d="M100 31.8182H95.4546V36.3636H100V31.8182Z" fill="#1E3138"/>
<path d="M104.545 31.8182H100V36.3636H104.545V31.8182Z" fill="#1E3138"/>
<path d="M113.636 31.8182H109.091V36.3636H113.636V31.8182Z" fill="#1E3138"/>
<path d="M13.6364 36.3636H9.09091V40.9091H13.6364V36.3636Z" fill="#1E3138"/>
<path d="M18.1818 36.3636H13.6364V40.9091H18.1818V36.3636Z" fill="#1E3138"/>
<path d="M22.7273 36.3636H18.1818V40.9091H22.7273V36.3636Z" fill="#1E3138"/>
<path d="M31.8182 36.3636H27.2727V40.9091H31.8182V36.3636Z" fill="#1E3138"/>
<path d="M40.9091 36.3636H36.3636V40.9091H40.9091V36.3636Z" fill="#1E3138"/>
<path d="M45.4545 36.3636H40.9091V40.9091H45.4545V36.3636Z" fill="#1E3138"/>
<path d="M63.6364 36.3636H59.0909V40.9091H63.6364V36.3636Z" fill="#1E3138"/>
<path d="M72.7273 36.3636H68.1818V40.9091H72.7273V36.3636Z" fill="#1E3138"/>
<path d="M113.636 36.3636H109.091V40.9091H113.636V36.3636Z" fill="#1E3138"/>
<path d="M118.182 36.3636H113.636V40.9091H118.182V36.3636Z" fill="#1E3138"/>
<path d="M122.727 36.3636H118.182V40.9091H122.727V36.3636Z" fill="#1E3138"/>
<path d="M127.273 36.3636H122.727V40.9091H127.273V36.3636Z" fill="#1E3138"/>
<path d="M140.909 36.3636H136.364V40.9091H140.909V36.3636Z" fill="#1E3138"/>
<path d="M145.455 36.3636H140.909V40.9091H145.455V36.3636Z" fill="#1E3138"/>
<path d="M150 36.3636H145.455V40.9091H150V36.3636Z" fill="#1E3138"/>
<path d="M4.54545 40.9091H0V45.4546H4.54545V40.9091Z" fill="#1E3138"/>
<path d="M9.09091 40.9091H4.54546V45.4546H9.09091V40.9091Z" fill="#1E3138"/>
<path d="M18.1818 40.9091H13.6364V45.4546H18.1818V40.9091Z" fill="#1E3138"/>
<path d="M22.7273 40.9091H18.1818V45.4546H22.7273V40.9091Z" fill="#1E3138"/>
<path d="M27.2727 40.9091H22.7273V45.4546H27.2727V40.9091Z" fill="#1E3138"/>
<path d="M45.4545 40.9091H40.9091V45.4546H45.4545V40.9091Z" fill="#1E3138"/>
<path d="M72.7273 40.9091H68.1818V45.4546H72.7273V40.9091Z" fill="#1E3138"/>
<path d="M77.2727 40.9091H72.7273V45.4546H77.2727V40.9091Z" fill="#1E3138"/>
<path d="M109.091 40.9091H104.545V45.4546H109.091V40.9091Z" fill="#1E3138"/>
<path d="M118.182 40.9091H113.636V45.4546H118.182V40.9091Z" fill="#1E3138"/>
<path d="M122.727 40.9091H118.182V45.4546H122.727V40.9091Z" fill="#1E3138"/>
<path d="M136.364 40.9091H131.818V45.4546H136.364V40.9091Z" fill="#1E3138"/>
<path d="M145.455 40.9091H140.909V45.4546H145.455V40.9091Z" fill="#1E3138"/>
<path d="M150 40.9091H145.455V45.4546H150V40.9091Z" fill="#1E3138"/>
<path d="M4.54545 45.4545H0V50H4.54545V45.4545Z" fill="#1E3138"/>
<path d="M22.7273 45.4545H18.1818V50H22.7273V45.4545Z" fill="#1E3138"/>
<path d="M27.2727 45.4545H22.7273V50H27.2727V45.4545Z" fill="#1E3138"/>
<path d="M31.8182 45.4545H27.2727V50H31.8182V45.4545Z" fill="#1E3138"/>
<path d="M36.3636 45.4545H31.8182V50H36.3636V45.4545Z" fill="#1E3138"/>
<path d="M40.9091 45.4545H36.3636V50H40.9091V45.4545Z" fill="#1E3138"/>
<path d="M54.5455 45.4545H50V50H54.5455V45.4545Z" fill="#1E3138"/>
<path d="M59.0909 45.4545H54.5455V50H59.0909V45.4545Z" fill="#1E3138"/>
<path d="M68.1818 45.4545H63.6364V50H68.1818V45.4545Z" fill="#1E3138"/>
<path d="M72.7273 45.4545H68.1818V50H72.7273V45.4545Z" fill="#1E3138"/>
<path d="M81.8182 45.4545H77.2727V50H81.8182V45.4545Z" fill="#1E3138"/>
<path d="M86.3636 45.4545H81.8182V50H86.3636V45.4545Z" fill="#1E3138"/>
<path d="M90.9091 45.4545H86.3636V50H90.9091V45.4545Z" fill="#1E3138"/>
<path d="M95.4545 45.4545H90.9091V50H95.4545V45.4545Z" fill="#1E3138"/>
<path d="M104.545 45.4545H100V50H104.545V45.4545Z" fill="#1E3138"/>
<path d="M118.182 45.4545H113.636V50H118.182V45.4545Z" fill="#1E3138"/>
<path d="M122.727 45.4545H118.182V50H122.727V45.4545Z" fill="#1E3138"/>
<path d="M127.273 45.4545H122.727V50H127.273V45.4545Z" fill="#1E3138"/>
<path d="M136.364 45.4545H131.818V50H136.364V45.4545Z" fill="#1E3138"/>
<path d="M145.455 45.4545H140.909V50H145.455V45.4545Z" fill="#1E3138"/>
<path d="M18.1818 50H13.6364V54.5455H18.1818V50Z" fill="#1E3138"/>
<path d="M22.7273 50H18.1818V54.5455H22.7273V50Z" fill="#1E3138"/>
<path d="M40.9091 50H36.3636V54.5455H40.9091V50Z" fill="#1E3138"/>
<path d="M50 50H45.4545V54.5455H50V50Z" fill="#1E3138"/>
<path d="M59.0909 50H54.5455V54.5455H59.0909V50Z" fill="#1E3138"/>
<path d="M63.6364 50H59.0909V54.5455H63.6364V50Z" fill="#1E3138"/>
<path d="M72.7273 50H68.1818V54.5455H72.7273V50Z" fill="#1E3138"/>
<path d="M77.2727 50H72.7273V54.5455H77.2727V50Z" fill="#1E3138"/>
<path d="M81.8182 50H77.2727V54.5455H81.8182V50Z" fill="#1E3138"/>
<path d="M109.091 50H104.545V54.5455H109.091V50Z" fill="#1E3138"/>
<path d="M122.727 50H118.182V54.5455H122.727V50Z" fill="#1E3138"/>
<path d="M136.364 50H131.818V54.5455H136.364V50Z" fill="#1E3138"/>
<path d="M140.909 50H136.364V54.5455H140.909V50Z" fill="#1E3138"/>
<path d="M145.455 50H140.909V54.5455H145.455V50Z" fill="#1E3138"/>
<path d="M150 50H145.455V54.5455H150V50Z" fill="#1E3138"/>
<path d="M9.09091 54.5455H4.54546V59.0909H9.09091V54.5455Z" fill="#1E3138"/>
<path d="M13.6364 54.5455H9.09091V59.0909H13.6364V54.5455Z" fill="#1E3138"/>
<path d="M22.7273 54.5455H18.1818V59.0909H22.7273V54.5455Z" fill="#1E3138"/>
<path d="M27.2727 54.5455H22.7273V59.0909H27.2727V54.5455Z" fill="#1E3138"/>
<path d="M31.8182 54.5455H27.2727V59.0909H31.8182V54.5455Z" fill="#1E3138"/>
<path d="M54.5455 54.5455H50V59.0909H54.5455V54.5455Z" fill="#1E3138"/>
<path d="M59.0909 54.5455H54.5455V59.0909H59.0909V54.5455Z" fill="#1E3138"/>
<path d="M63.6364 54.5455H59.0909V59.0909H63.6364V54.5455Z" fill="#1E3138"/>
<path d="M68.1818 54.5455H63.6364V59.0909H68.1818V54.5455Z" fill="#1E3138"/>
<path d="M77.2727 54.5455H72.7273V59.0909H77.2727V54.5455Z" fill="#1E3138"/>
<path d="M86.3636 54.5455H81.8182V59.0909H86.3636V54.5455Z" fill="#1E3138"/>
<path d="M95.4545 54.5455H90.9091V59.0909H95.4545V54.5455Z" fill="#1E3138"/>
<path d="M100 54.5455H95.4546V59.0909H100V54.5455Z" fill="#1E3138"/>
<path d="M104.545 54.5455H100V59.0909H104.545V54.5455Z" fill="#1E3138"/>
<path d="M109.091 54.5455H104.545V59.0909H109.091V54.5455Z" fill="#1E3138"/>
<path d="M113.636 54.5455H109.091V59.0909H113.636V54.5455Z" fill="#1E3138"/>
<path d="M118.182 54.5455H113.636V59.0909H118.182V54.5455Z" fill="#1E3138"/>
<path d="M131.818 54.5455H127.273V59.0909H131.818V54.5455Z" fill="#1E3138"/>
<path d="M145.455 54.5455H140.909V59.0909H145.455V54.5455Z" fill="#1E3138"/>
<path d="M4.54545 59.0909H0V63.6363H4.54545V59.0909Z" fill="#1E3138"/>
<path d="M9.09091 59.0909H4.54546V63.6363H9.09091V59.0909Z" fill="#1E3138"/>
<path d="M18.1818 59.0909H13.6364V63.6363H18.1818V59.0909Z" fill="#1E3138"/>
<path d="M50 59.0909H45.4545V63.6363H50V59.0909Z" fill="#1E3138"/>
<path d="M54.5455 59.0909H50V63.6363H54.5455V59.0909Z" fill="#1E3138"/>
<path d="M63.6364 59.0909H59.0909V63.6363H63.6364V59.0909Z" fill="#1E3138"/>
<path d="M81.8182 59.0909H77.2727V63.6363H81.8182V59.0909Z" fill="#1E3138"/>
<path d="M109.091 59.0909H104.545V63.6363H109.091V59.0909Z" fill="#1E3138"/>
<path d="M122.727 59.0909H118.182V63.6363H122.727V59.0909Z" fill="#1E3138"/>
<path d="M140.909 59.0909H136.364V63.6363H140.909V59.0909Z" fill="#1E3138"/>
<path d="M150 59.0909H145.455V63.6363H150V59.0909Z" fill="#1E3138"/>
<path d="M4.54545 63.6364H0V68.1818H4.54545V63.6364Z" fill="#1E3138"/>
<path d="M18.1818 63.6364H13.6364V68.1818H18.1818V63.6364Z" fill="#1E3138"/>
<path d="M22.7273 63.6364H18.1818V68.1818H22.7273V63.6364Z" fill="#1E3138"/>
<path d="M31.8182 63.6364H27.2727V68.1818H31.8182V63.6364Z" fill="#1E3138"/>
<path d="M45.4545 63.6364H40.9091V68.1818H45.4545V63.6364Z" fill="#1E3138"/>
<path d="M68.1818 63.6364H63.6364V68.1818H68.1818V63.6364Z" fill="#1E3138"/>
<path d="M72.7273 63.6364H68.1818V68.1818H72.7273V63.6364Z" fill="#1E3138"/>
<path d="M90.9091 63.6364H86.3636V68.1818H90.9091V63.6364Z" fill="#1E3138"/>
<path d="M95.4545 63.6364H90.9091V68.1818H95.4545V63.6364Z" fill="#1E3138"/>
<path d="M104.545 63.6364H100V68.1818H104.545V63.6364Z" fill="#1E3138"/>
<path d="M118.182 63.6364H113.636V68.1818H118.182V63.6364Z" fill="#1E3138"/>
<path d="M122.727 63.6364H118.182V68.1818H122.727V63.6364Z" fill="#1E3138"/>
<path d="M136.364 63.6364H131.818V68.1818H136.364V63.6364Z" fill="#1E3138"/>
<path d="M145.455 63.6364H140.909V68.1818H145.455V63.6364Z" fill="#1E3138"/>
<path d="M22.7273 68.1818H18.1818V72.7273H22.7273V68.1818Z" fill="#1E3138"/>
<path d="M27.2727 68.1818H22.7273V72.7273H27.2727V68.1818Z" fill="#1E3138"/>
<path d="M50 68.1818H45.4545V72.7273H50V68.1818Z" fill="#1E3138"/>
<path d="M59.0909 68.1818H54.5455V72.7273H59.0909V68.1818Z" fill="#1E3138"/>
<path d="M68.1818 68.1818H63.6364V72.7273H68.1818V68.1818Z" fill="#1E3138"/>
<path d="M77.2727 68.1818H72.7273V72.7273H77.2727V68.1818Z" fill="#1E3138"/>
<path d="M100 68.1818H95.4546V72.7273H100V68.1818Z" fill="#1E3138"/>
<path d="M104.545 68.1818H100V72.7273H104.545V68.1818Z" fill="#1E3138"/>
<path d="M113.636 68.1818H109.091V72.7273H113.636V68.1818Z" fill="#1E3138"/>
<path d="M122.727 68.1818H118.182V72.7273H122.727V68.1818Z" fill="#1E3138"/>
<path d="M131.818 68.1818H127.273V72.7273H131.818V68.1818Z" fill="#1E3138"/>
<path d="M136.364 68.1818H131.818V72.7273H136.364V68.1818Z" fill="#1E3138"/>
<path d="M140.909 68.1818H136.364V72.7273H140.909V68.1818Z" fill="#1E3138"/>
<path d="M150 68.1818H145.455V72.7273H150V68.1818Z" fill="#1E3138"/>
<path d="M4.54545 72.7273H0V77.2727H4.54545V72.7273Z" fill="#1E3138"/>
<path d="M22.7273 72.7273H18.1818V77.2727H22.7273V72.7273Z" fill="#1E3138"/>
<path d="M27.2727 72.7273H22.7273V77.2727H27.2727V72.7273Z" fill="#1E3138"/>
<path d="M31.8182 72.7273H27.2727V77.2727H31.8182V72.7273Z" fill="#1E3138"/>
<path d="M40.9091 72.7273H36.3636V77.2727H40.9091V72.7273Z" fill="#1E3138"/>
<path d="M50 72.7273H45.4545V77.2727H50V72.7273Z" fill="#1E3138"/>
<path d="M54.5455 72.7273H50V77.2727H54.5455V72.7273Z" fill="#1E3138"/>
<path d="M59.0909 72.7273H54.5455V77.2727H59.0909V72.7273Z" fill="#1E3138"/>
<path d="M63.6364 72.7273H59.0909V77.2727H63.6364V72.7273Z" fill="#1E3138"/>
<path d="M77.2727 72.7273H72.7273V77.2727H77.2727V72.7273Z" fill="#1E3138"/>
<path d="M86.3636 72.7273H81.8182V77.2727H86.3636V72.7273Z" fill="#1E3138"/>
<path d="M95.4545 72.7273H90.9091V77.2727H95.4545V72.7273Z" fill="#1E3138"/>
<path d="M118.182 72.7273H113.636V77.2727H118.182V72.7273Z" fill="#1E3138"/>
<path d="M127.273 72.7273H122.727V77.2727H127.273V72.7273Z" fill="#1E3138"/>
<path d="M131.818 72.7273H127.273V77.2727H131.818V72.7273Z" fill="#1E3138"/>
<path d="M136.364 72.7273H131.818V77.2727H136.364V72.7273Z" fill="#1E3138"/>
<path d="M145.455 72.7273H140.909V77.2727H145.455V72.7273Z" fill="#1E3138"/>
<path d="M150 72.7273H145.455V77.2727H150V72.7273Z" fill="#1E3138"/>
<path d="M9.09091 77.2727H4.54546V81.8182H9.09091V77.2727Z" fill="#1E3138"/>
<path d="M13.6364 77.2727H9.09091V81.8182H13.6364V77.2727Z" fill="#1E3138"/>
<path d="M18.1818 77.2727H13.6364V81.8182H18.1818V77.2727Z" fill="#1E3138"/>
<path d="M22.7273 77.2727H18.1818V81.8182H22.7273V77.2727Z" fill="#1E3138"/>
<path d="M27.2727 77.2727H22.7273V81.8182H27.2727V77.2727Z" fill="#1E3138"/>
<path d="M36.3636 77.2727H31.8182V81.8182H36.3636V77.2727Z" fill="#1E3138"/>
<path d="M50 77.2727H45.4545V81.8182H50V77.2727Z" fill="#1E3138"/>
<path d="M54.5455 77.2727H50V81.8182H54.5455V77.2727Z" fill="#1E3138"/>
<path d="M59.0909 77.2727H54.5455V81.8182H59.0909V77.2727Z" fill="#1E3138"/>
<path d="M72.7273 77.2727H68.1818V81.8182H72.7273V77.2727Z" fill="#1E3138"/>
<path d="M86.3636 77.2727H81.8182V81.8182H86.3636V77.2727Z" fill="#1E3138"/>
<path d="M95.4545 77.2727H90.9091V81.8182H95.4545V77.2727Z" fill="#1E3138"/>
<path d="M100 77.2727H95.4546V81.8182H100V77.2727Z" fill="#1E3138"/>
<path d="M109.091 77.2727H104.545V81.8182H109.091V77.2727Z" fill="#1E3138"/>
<path d="M113.636 77.2727H109.091V81.8182H113.636V77.2727Z" fill="#1E3138"/>
<path d="M122.727 77.2727H118.182V81.8182H122.727V77.2727Z" fill="#1E3138"/>
<path d="M127.273 77.2727H122.727V81.8182H127.273V77.2727Z" fill="#1E3138"/>
<path d="M145.455 77.2727H140.909V81.8182H145.455V77.2727Z" fill="#1E3138"/>
<path d="M150 77.2727H145.455V81.8182H150V77.2727Z" fill="#1E3138"/>
<path d="M4.54545 81.8182H0V86.3636H4.54545V81.8182Z" fill="#1E3138"/>
<path d="M9.09091 81.8182H4.54546V86.3636H9.09091V81.8182Z" fill="#1E3138"/>
<path d="M18.1818 81.8182H13.6364V86.3636H18.1818V81.8182Z" fill="#1E3138"/>
<path d="M22.7273 81.8182H18.1818V86.3636H22.7273V81.8182Z" fill="#1E3138"/>
<path d="M27.2727 81.8182H22.7273V86.3636H27.2727V81.8182Z" fill="#1E3138"/>
<path d="M31.8182 81.8182H27.2727V86.3636H31.8182V81.8182Z" fill="#1E3138"/>
<path d="M40.9091 81.8182H36.3636V86.3636H40.9091V81.8182Z" fill="#1E3138"/>
<path d="M45.4545 81.8182H40.9091V86.3636H45.4545V81.8182Z" fill="#1E3138"/>
<path d="M54.5455 81.8182H50V86.3636H54.5455V81.8182Z" fill="#1E3138"/>
<path d="M59.0909 81.8182H54.5455V86.3636H59.0909V81.8182Z" fill="#1E3138"/>
<path d="M63.6364 81.8182H59.0909V86.3636H63.6364V81.8182Z" fill="#1E3138"/>
<path d="M68.1818 81.8182H63.6364V86.3636H68.1818V81.8182Z" fill="#1E3138"/>
<path d="M81.8182 81.8182H77.2727V86.3636H81.8182V81.8182Z" fill="#1E3138"/>
<path d="M86.3636 81.8182H81.8182V86.3636H86.3636V81.8182Z" fill="#1E3138"/>
<path d="M100 81.8182H95.4546V86.3636H100V81.8182Z" fill="#1E3138"/>
<path d="M104.545 81.8182H100V86.3636H104.545V81.8182Z" fill="#1E3138"/>
<path d="M122.727 81.8182H118.182V86.3636H122.727V81.8182Z" fill="#1E3138"/>
<path d="M131.818 81.8182H127.273V86.3636H131.818V81.8182Z" fill="#1E3138"/>
<path d="M140.909 81.8182H136.364V86.3636H140.909V81.8182Z" fill="#1E3138"/>
<path d="M145.455 81.8182H140.909V86.3636H145.455V81.8182Z" fill="#1E3138"/>
<path d="M9.09091 86.3636H4.54546V90.9091H9.09091V86.3636Z" fill="#1E3138"/>
<path d="M18.1818 86.3636H13.6364V90.9091H18.1818V86.3636Z" fill="#1E3138"/>
<path d="M22.7273 86.3636H18.1818V90.9091H22.7273V86.3636Z" fill="#1E3138"/>
<path d="M45.4545 86.3636H40.9091V90.9091H45.4545V86.3636Z" fill="#1E3138"/>
<path d="M50 86.3636H45.4545V90.9091H50V86.3636Z" fill="#1E3138"/>
<path d="M54.5455 86.3636H50V90.9091H54.5455V86.3636Z" fill="#1E3138"/>
<path d="M59.0909 86.3636H54.5455V90.9091H59.0909V86.3636Z" fill="#1E3138"/>
<path d="M63.6364 86.3636H59.0909V90.9091H63.6364V86.3636Z" fill="#1E3138"/>
<path d="M72.7273 86.3636H68.1818V90.9091H72.7273V86.3636Z" fill="#1E3138"/>
<path d="M86.3636 86.3636H81.8182V90.9091H86.3636V86.3636Z" fill="#1E3138"/>
<path d="M90.9091 86.3636H86.3636V90.9091H90.9091V86.3636Z" fill="#1E3138"/>
<path d="M100 86.3636H95.4546V90.9091H100V86.3636Z" fill="#1E3138"/>
<path d="M104.545 86.3636H100V90.9091H104.545V86.3636Z" fill="#1E3138"/>
<path d="M109.091 86.3636H104.545V90.9091H109.091V86.3636Z" fill="#1E3138"/>
<path d="M113.636 86.3636H109.091V90.9091H113.636V86.3636Z" fill="#1E3138"/>
<path d="M122.727 86.3636H118.182V90.9091H122.727V86.3636Z" fill="#1E3138"/>
<path d="M127.273 86.3636H122.727V90.9091H127.273V86.3636Z" fill="#1E3138"/>
<path d="M131.818 86.3636H127.273V90.9091H131.818V86.3636Z" fill="#1E3138"/>
<path d="M136.364 86.3636H131.818V90.9091H136.364V86.3636Z" fill="#1E3138"/>
<path d="M140.909 86.3636H136.364V90.9091H140.909V86.3636Z" fill="#1E3138"/>
<path d="M150 86.3636H145.455V90.9091H150V86.3636Z" fill="#1E3138"/>
<path d="M4.54545 90.9091H0V95.4545H4.54545V90.9091Z" fill="#1E3138"/>
<path d="M9.09091 90.9091H4.54546V95.4545H9.09091V90.9091Z" fill="#1E3138"/>
<path d="M18.1818 90.9091H13.6364V95.4545H18.1818V90.9091Z" fill="#1E3138"/>
<path d="M22.7273 90.9091H18.1818V95.4545H22.7273V90.9091Z" fill="#1E3138"/>
<path d="M27.2727 90.9091H22.7273V95.4545H27.2727V90.9091Z" fill="#1E3138"/>
<path d="M31.8182 90.9091H27.2727V95.4545H31.8182V90.9091Z" fill="#1E3138"/>
<path d="M36.3636 90.9091H31.8182V95.4545H36.3636V90.9091Z" fill="#1E3138"/>
<path d="M54.5455 90.9091H50V95.4545H54.5455V90.9091Z" fill="#1E3138"/>
<path d="M59.0909 90.9091H54.5455V95.4545H59.0909V90.9091Z" fill="#1E3138"/>
<path d="M95.4545 90.9091H90.9091V95.4545H95.4545V90.9091Z" fill="#1E3138"/>
<path d="M104.545 90.9091H100V95.4545H104.545V90.9091Z" fill="#1E3138"/>
<path d="M113.636 90.9091H109.091V95.4545H113.636V90.9091Z" fill="#1E3138"/>
<path d="M127.273 90.9091H122.727V95.4545H127.273V90.9091Z" fill="#1E3138"/>
<path d="M131.818 90.9091H127.273V95.4545H131.818V90.9091Z" fill="#1E3138"/>
<path d="M136.364 90.9091H131.818V95.4545H136.364V90.9091Z" fill="#1E3138"/>
<path d="M4.54545 95.4545H0V100H4.54545V95.4545Z" fill="#1E3138"/>
<path d="M22.7273 95.4545H18.1818V100H22.7273V95.4545Z" fill="#1E3138"/>
<path d="M27.2727 95.4545H22.7273V100H27.2727V95.4545Z" fill="#1E3138"/>
<path d="M40.9091 95.4545H36.3636V100H40.9091V95.4545Z" fill="#1E3138"/>
<path d="M45.4545 95.4545H40.9091V100H45.4545V95.4545Z" fill="#1E3138"/>
<path d="M59.0909 95.4545H54.5455V100H59.0909V95.4545Z" fill="#1E3138"/>
<path d="M63.6364 95.4545H59.0909V100H63.6364V95.4545Z" fill="#1E3138"/>
<path d="M68.1818 95.4545H63.6364V100H68.1818V95.4545Z" fill="#1E3138"/>
<path d="M72.7273 95.4545H68.1818V100H72.7273V95.4545Z" fill="#1E3138"/>
<path d="M77.2727 95.4545H72.7273V100H77.2727V95.4545Z" fill="#1E3138"/>
<path d="M127.273 95.4545H122.727V100H127.273V95.4545Z" fill="#1E3138"/>
<path d="M136.364 95.4545H131.818V100H136.364V95.4545Z" fill="#1E3138"/>
<path d="M140.909 95.4545H136.364V100H140.909V95.4545Z" fill="#1E3138"/>
<path d="M150 95.4545H145.455V100H150V95.4545Z" fill="#1E3138"/>
<path d="M4.54545 100H0V104.545H4.54545V100Z" fill="#1E3138"/>
<path d="M18.1818 100H13.6364V104.545H18.1818V100Z" fill="#1E3138"/>
<path d="M22.7273 100H18.1818V104.545H22.7273V100Z" fill="#1E3138"/>
<path d="M27.2727 100H22.7273V104.545H27.2727V100Z" fill="#1E3138"/>
<path d="M31.8182 100H27.2727V104.545H31.8182V100Z" fill="#1E3138"/>
<path d="M36.3636 100H31.8182V104.545H36.3636V100Z" fill="#1E3138"/>
<path d="M50 100H45.4545V104.545H50V100Z" fill="#1E3138"/>
<path d="M77.2727 100H72.7273V104.545H77.2727V100Z" fill="#1E3138"/>
<path d="M86.3636 100H81.8182V104.545H86.3636V100Z" fill="#1E3138"/>
<path d="M104.545 100H100V104.545H104.545V100Z" fill="#1E3138"/>
<path d="M109.091 100H104.545V104.545H109.091V100Z" fill="#1E3138"/>
<path d="M113.636 100H109.091V104.545H113.636V100Z" fill="#1E3138"/>
<path d="M131.818 100H127.273V104.545H131.818V100Z" fill="#1E3138"/>
<path d="M136.364 100H131.818V104.545H136.364V100Z" fill="#1E3138"/>
<path d="M145.455 100H140.909V104.545H145.455V100Z" fill="#1E3138"/>
<path d="M4.54545 104.545H0V109.091H4.54545V104.545Z" fill="#1E3138"/>
<path d="M36.3636 104.545H31.8182V109.091H36.3636V104.545Z" fill="#1E3138"/>
<path d="M50 104.545H45.4545V109.091H50V104.545Z" fill="#1E3138"/>
<path d="M54.5455 104.545H50V109.091H54.5455V104.545Z" fill="#1E3138"/>
<path d="M59.0909 104.545H54.5455V109.091H59.0909V104.545Z" fill="#1E3138"/>
<path d="M72.7273 104.545H68.1818V109.091H72.7273V104.545Z" fill="#1E3138"/>
<path d="M77.2727 104.545H72.7273V109.091H77.2727V104.545Z" fill="#1E3138"/>
<path d="M86.3636 104.545H81.8182V109.091H86.3636V104.545Z" fill="#1E3138"/>
<path d="M100 104.545H95.4546V109.091H100V104.545Z" fill="#1E3138"/>
<path d="M104.545 104.545H100V109.091H104.545V104.545Z" fill="#1E3138"/>
<path d="M109.091 104.545H104.545V109.091H109.091V104.545Z" fill="#1E3138"/>
<path d="M136.364 104.545H131.818V109.091H136.364V104.545Z" fill="#1E3138"/>
<path d="M140.909 104.545H136.364V109.091H140.909V104.545Z" fill="#1E3138"/>
<path d="M150 104.545H145.455V109.091H150V104.545Z" fill="#1E3138"/>
<path d="M4.54545 109.091H0V113.636H4.54545V109.091Z" fill="#1E3138"/>
<path d="M27.2727 109.091H22.7273V113.636H27.2727V109.091Z" fill="#1E3138"/>
<path d="M31.8182 109.091H27.2727V113.636H31.8182V109.091Z" fill="#1E3138"/>
<path d="M36.3636 109.091H31.8182V113.636H36.3636V109.091Z" fill="#1E3138"/>
<path d="M40.9091 109.091H36.3636V113.636H40.9091V109.091Z" fill="#1E3138"/>
<path d="M45.4545 109.091H40.9091V113.636H45.4545V109.091Z" fill="#1E3138"/>
<path d="M50 109.091H45.4545V113.636H50V109.091Z" fill="#1E3138"/>
<path d="M54.5455 109.091H50V113.636H54.5455V109.091Z" fill="#1E3138"/>
<path d="M72.7273 109.091H68.1818V113.636H72.7273V109.091Z" fill="#1E3138"/>
<path d="M81.8182 109.091H77.2727V113.636H81.8182V109.091Z" fill="#1E3138"/>
<path d="M86.3636 109.091H81.8182V113.636H86.3636V109.091Z" fill="#1E3138"/>
<path d="M104.545 109.091H100V113.636H104.545V109.091Z" fill="#1E3138"/>
<path d="M109.091 109.091H104.545V113.636H109.091V109.091Z" fill="#1E3138"/>
<path d="M113.636 109.091H109.091V113.636H113.636V109.091Z" fill="#1E3138"/>
<path d="M118.182 109.091H113.636V113.636H118.182V109.091Z" fill="#1E3138"/>
<path d="M122.727 109.091H118.182V113.636H122.727V109.091Z" fill="#1E3138"/>
<path d="M127.273 109.091H122.727V113.636H127.273V109.091Z" fill="#1E3138"/>
<path d="M131.818 109.091H127.273V113.636H131.818V109.091Z" fill="#1E3138"/>
<path d="M136.364 109.091H131.818V113.636H136.364V109.091Z" fill="#1E3138"/>
<path d="M40.9091 113.636H36.3636V118.182H40.9091V113.636Z" fill="#1E3138"/>
<path d="M63.6364 113.636H59.0909V118.182H63.6364V113.636Z" fill="#1E3138"/>
<path d="M77.2727 113.636H72.7273V118.182H77.2727V113.636Z" fill="#1E3138"/>
<path d="M81.8182 113.636H77.2727V118.182H81.8182V113.636Z" fill="#1E3138"/>
<path d="M90.9091 113.636H86.3636V118.182H90.9091V113.636Z" fill="#1E3138"/>
<path d="M100 113.636H95.4546V118.182H100V113.636Z" fill="#1E3138"/>
<path d="M113.636 113.636H109.091V118.182H113.636V113.636Z" fill="#1E3138"/>
<path d="M131.818 113.636H127.273V118.182H131.818V113.636Z" fill="#1E3138"/>
<path d="M136.364 113.636H131.818V118.182H136.364V113.636Z" fill="#1E3138"/>
<path d="M145.455 113.636H140.909V118.182H145.455V113.636Z" fill="#1E3138"/>
<path d="M150 113.636H145.455V118.182H150V113.636Z" fill="#1E3138"/>
<path d="M54.5455 118.182H50V122.727H54.5455V118.182Z" fill="#1E3138"/>
<path d="M68.1818 118.182H63.6364V122.727H68.1818V118.182Z" fill="#1E3138"/>
<path d="M72.7273 118.182H68.1818V122.727H72.7273V118.182Z" fill="#1E3138"/>
<path d="M77.2727 118.182H72.7273V122.727H77.2727V118.182Z" fill="#1E3138"/>
<path d="M95.4545 118.182H90.9091V122.727H95.4545V118.182Z" fill="#1E3138"/>
<path d="M100 118.182H95.4546V122.727H100V118.182Z" fill="#1E3138"/>
<path d="M109.091 118.182H104.545V122.727H109.091V118.182Z" fill="#1E3138"/>
<path d="M113.636 118.182H109.091V122.727H113.636V118.182Z" fill="#1E3138"/>
<path d="M122.727 118.182H118.182V122.727H122.727V118.182Z" fill="#1E3138"/>
<path d="M131.818 118.182H127.273V122.727H131.818V118.182Z" fill="#1E3138"/>
<path d="M136.364 118.182H131.818V122.727H136.364V118.182Z" fill="#1E3138"/>
<path d="M145.455 118.182H140.909V122.727H145.455V118.182Z" fill="#1E3138"/>
<path d="M50 122.727H45.4545V127.273H50V122.727Z" fill="#1E3138"/>
<path d="M59.0909 122.727H54.5455V127.273H59.0909V122.727Z" fill="#1E3138"/>
<path d="M63.6364 122.727H59.0909V127.273H63.6364V122.727Z" fill="#1E3138"/>
<path d="M72.7273 122.727H68.1818V127.273H72.7273V122.727Z" fill="#1E3138"/>
<path d="M77.2727 122.727H72.7273V127.273H77.2727V122.727Z" fill="#1E3138"/>
<path d="M81.8182 122.727H77.2727V127.273H81.8182V122.727Z" fill="#1E3138"/>
<path d="M90.9091 122.727H86.3636V127.273H90.9091V122.727Z" fill="#1E3138"/>
<path d="M100 122.727H95.4546V127.273H100V122.727Z" fill="#1E3138"/>
<path d="M104.545 122.727H100V127.273H104.545V122.727Z" fill="#1E3138"/>
<path d="M109.091 122.727H104.545V127.273H109.091V122.727Z" fill="#1E3138"/>
<path d="M113.636 122.727H109.091V127.273H113.636V122.727Z" fill="#1E3138"/>
<path d="M131.818 122.727H127.273V127.273H131.818V122.727Z" fill="#1E3138"/>
<path d="M136.364 122.727H131.818V127.273H136.364V122.727Z" fill="#1E3138"/>
<path d="M140.909 122.727H136.364V127.273H140.909V122.727Z" fill="#1E3138"/>
<path d="M145.455 122.727H140.909V127.273H145.455V122.727Z" fill="#1E3138"/>
<path d="M150 122.727H145.455V127.273H150V122.727Z" fill="#1E3138"/>
<path d="M40.9091 127.273H36.3636V131.818H40.9091V127.273Z" fill="#1E3138"/>
<path d="M45.4545 127.273H40.9091V131.818H45.4545V127.273Z" fill="#1E3138"/>
<path d="M50 127.273H45.4545V131.818H50V127.273Z" fill="#1E3138"/>
<path d="M59.0909 127.273H54.5455V131.818H59.0909V127.273Z" fill="#1E3138"/>
<path d="M63.6364 127.273H59.0909V131.818H63.6364V127.273Z" fill="#1E3138"/>
<path d="M68.1818 127.273H63.6364V131.818H68.1818V127.273Z" fill="#1E3138"/>
<path d="M72.7273 127.273H68.1818V131.818H72.7273V127.273Z" fill="#1E3138"/>
<path d="M77.2727 127.273H72.7273V131.818H77.2727V127.273Z" fill="#1E3138"/>
<path d="M100 127.273H95.4546V131.818H100V127.273Z" fill="#1E3138"/>
<path d="M113.636 127.273H109.091V131.818H113.636V127.273Z" fill="#1E3138"/>
<path d="M118.182 127.273H113.636V131.818H118.182V127.273Z" fill="#1E3138"/>
<path d="M122.727 127.273H118.182V131.818H122.727V127.273Z" fill="#1E3138"/>
<path d="M127.273 127.273H122.727V131.818H127.273V127.273Z" fill="#1E3138"/>
<path d="M131.818 127.273H127.273V131.818H131.818V127.273Z" fill="#1E3138"/>
<path d="M145.455 127.273H140.909V131.818H145.455V127.273Z" fill="#1E3138"/>
<path d="M150 127.273H145.455V131.818H150V127.273Z" fill="#1E3138"/>
<path d="M40.9091 131.818H36.3636V136.364H40.9091V131.818Z" fill="#1E3138"/>
<path d="M45.4545 131.818H40.9091V136.364H45.4545V131.818Z" fill="#1E3138"/>
<path d="M50 131.818H45.4545V136.364H50V131.818Z" fill="#1E3138"/>
<path d="M59.0909 131.818H54.5455V136.364H59.0909V131.818Z" fill="#1E3138"/>
<path d="M63.6364 131.818H59.0909V136.364H63.6364V131.818Z" fill="#1E3138"/>
<path d="M68.1818 131.818H63.6364V136.364H68.1818V131.818Z" fill="#1E3138"/>
<path d="M81.8182 131.818H77.2727V136.364H81.8182V131.818Z" fill="#1E3138"/>
<path d="M95.4545 131.818H90.9091V136.364H95.4545V131.818Z" fill="#1E3138"/>
<path d="M104.545 131.818H100V136.364H104.545V131.818Z" fill="#1E3138"/>
<path d="M109.091 131.818H104.545V136.364H109.091V131.818Z" fill="#1E3138"/>
<path d="M118.182 131.818H113.636V136.364H118.182V131.818Z" fill="#1E3138"/>
<path d="M131.818 131.818H127.273V136.364H131.818V131.818Z" fill="#1E3138"/>
<path d="M136.364 131.818H131.818V136.364H136.364V131.818Z" fill="#1E3138"/>
<path d="M140.909 131.818H136.364V136.364H140.909V131.818Z" fill="#1E3138"/>
<path d="M145.455 131.818H140.909V136.364H145.455V131.818Z" fill="#1E3138"/>
<path d="M40.9091 136.364H36.3636V140.909H40.9091V136.364Z" fill="#1E3138"/>
<path d="M50 136.364H45.4545V140.909H50V136.364Z" fill="#1E3138"/>
<path d="M59.0909 136.364H54.5455V140.909H59.0909V136.364Z" fill="#1E3138"/>
<path d="M63.6364 136.364H59.0909V140.909H63.6364V136.364Z" fill="#1E3138"/>
<path d="M68.1818 136.364H63.6364V140.909H68.1818V136.364Z" fill="#1E3138"/>
<path d="M72.7273 136.364H68.1818V140.909H72.7273V136.364Z" fill="#1E3138"/>
<path d="M81.8182 136.364H77.2727V140.909H81.8182V136.364Z" fill="#1E3138"/>
<path d="M100 136.364H95.4546V140.909H100V136.364Z" fill="#1E3138"/>
<path d="M113.636 136.364H109.091V140.909H113.636V136.364Z" fill="#1E3138"/>
<path d="M118.182 136.364H113.636V140.909H118.182V136.364Z" fill="#1E3138"/>
<path d="M122.727 136.364H118.182V140.909H122.727V136.364Z" fill="#1E3138"/>
<path d="M140.909 136.364H136.364V140.909H140.909V136.364Z" fill="#1E3138"/>
<path d="M50 140.909H45.4545V145.455H50V140.909Z" fill="#1E3138"/>
<path d="M81.8182 140.909H77.2727V145.455H81.8182V140.909Z" fill="#1E3138"/>
<path d="M90.9091 140.909H86.3636V145.455H90.9091V140.909Z" fill="#1E3138"/>
<path d="M100 140.909H95.4546V145.455H100V140.909Z" fill="#1E3138"/>
<path d="M118.182 140.909H113.636V145.455H118.182V140.909Z" fill="#1E3138"/>
<path d="M127.273 140.909H122.727V145.455H127.273V140.909Z" fill="#1E3138"/>
<path d="M136.364 140.909H131.818V145.455H136.364V140.909Z" fill="#1E3138"/>
<path d="M140.909 140.909H136.364V145.455H140.909V140.909Z" fill="#1E3138"/>
<path d="M54.5455 145.455H50V150H54.5455V145.455Z" fill="#1E3138"/>
<path d="M59.0909 145.455H54.5455V150H59.0909V145.455Z" fill="#1E3138"/>
<path d="M63.6364 145.455H59.0909V150H63.6364V145.455Z" fill="#1E3138"/>
<path d="M77.2727 145.455H72.7273V150H77.2727V145.455Z" fill="#1E3138"/>
<path d="M81.8182 145.455H77.2727V150H81.8182V145.455Z" fill="#1E3138"/>
<path d="M90.9091 145.455H86.3636V150H90.9091V145.455Z" fill="#1E3138"/>
<path d="M100 145.455H95.4546V150H100V145.455Z" fill="#1E3138"/>
<path d="M109.091 145.455H104.545V150H109.091V145.455Z" fill="#1E3138"/>
<path d="M113.636 145.455H109.091V150H113.636V145.455Z" fill="#1E3138"/>
<path d="M122.727 145.455H118.182V150H122.727V145.455Z" fill="#1E3138"/>
<path d="M145.455 145.455H140.909V150H145.455V145.455Z" fill="#1E3138"/>
<path d="M27.0455 0H0V31.8182H31.8182V0H27.0455ZM27.0455 27.0455H4.77273V4.77273H27.0455V27.0455Z" fill="#1E3138"/>
<path d="M145.227 0H118.182V31.8182H150V0H145.227ZM145.227 27.0455H122.955V4.77273H145.227V27.0455Z" fill="#1E3138"/>
<path d="M27.0455 118.182H0V150H31.8182V118.182H27.0455ZM27.0455 145.227H4.77273V122.955H27.0455V145.227Z" fill="#1E3138"/>
<path d="M22.7273 9.09088H9.09091V22.7272H22.7273V9.09088Z" fill="#1E3138"/>
<path d="M140.909 9.09088H127.273V22.7272H140.909V9.09088Z" fill="#1E3138"/>
<path d="M22.7273 127.273H9.09091V140.909H22.7273V127.273Z" fill="#1E3138"/>
</svg>
