<?xml version="1.0" encoding="utf-8"?>
<!-- Generator: Adobe Illustrator 26.2.1, SVG Export Plug-In . SVG Version: 6.00 Build 0)  -->
<svg version="1.1" id="图层_1" xmlns="http://www.w3.org/2000/svg" xmlns:xlink="http://www.w3.org/1999/xlink" x="0px" y="0px"
	 viewBox="0 0 137.3 164.9" style="enable-background:new 0 0 137.3 164.9;" xml:space="preserve">
<style type="text/css">
	.st0{fill:#FCF0C7;}
</style>
<g>
	<path class="st0" d="M108.2,66.3v25.8c0,19.9-10.3,33.2-29.7,37.7c-14.8,3.5-28.4,0.7-40.2-9.2C31.1,114.4,27,106.4,27,96.7
		c-0.1-20.3-0.3-40.6,0-60.9C27.2,20.1,37.9,7.5,54.7,2.9C69-1,82.4,1,94.5,9.9c9.1,6.7,13.7,15.8,13.7,27.2
		C108.2,46.8,108.2,56.6,108.2,66.3z M35.1,66c0,9.8,0.1,19.5,0,29.3c-0.2,9.9,4.4,17.1,12.4,22.3c8.6,5.6,18.1,6.9,28,4.9
		c16.5-3.4,24.6-13.7,24.6-30.5c0-18-0.2-36,0.1-54c0.2-11.9-5.6-19.7-15.6-24.8c-8.2-4.2-17.7-5.1-26.5-2.7
		C42.7,14.3,35.1,24,35.1,39.7C35,48.4,35,57.2,35.1,66L35.1,66z"/>
	<path class="st0" d="M67.3,152.1c3.7-3.9,6.2-7.1,9.4-9.6c1.3-1,3.9-0.4,5.9-0.6c-0.1,2,0.6,4.7-0.4,5.9
		c-4.3,5.2-9.2,9.9-14.3,15.2c-5.5-5.5-10.6-10.4-15.4-15.7c-0.9-1-0.8-4.4,0-5c1.3-0.9,4.3-1.2,5.4-0.3
		C61.1,144.7,63.8,148.2,67.3,152.1z"/>
	<path class="st0" d="M67.6,48.7c-7.8,0.1-14.1-6.1-14.3-13.9c-0.1-7.8,6.1-14.1,13.9-14.3c7.8-0.1,14.1,6.1,14.3,13.9
		c0,0.1,0,0.2,0,0.2C81.6,42.3,75.4,48.6,67.6,48.7C67.7,48.7,67.7,48.7,67.6,48.7z M73.5,33.9c-0.3-3-2.4-5-5.9-5.2
		c-3.2-0.1-5.9,2.5-6,5.7c0,0.2,0,0.3,0,0.5c0.2,3.6,2.4,5.6,5.9,5.8C70.8,40.9,73.6,37.8,73.5,33.9L73.5,33.9z"/>
</g>
</svg>
