<?xml version="1.0" encoding="utf-8"?>
<!-- Generator: Adobe Illustrator 26.2.1, SVG Export Plug-In . SVG Version: 6.00 Build 0)  -->
<svg version="1.1" id="图层_1" xmlns="http://www.w3.org/2000/svg" xmlns:xlink="http://www.w3.org/1999/xlink" x="0px" y="0px"
	 viewBox="0 0 137.3 164.9" style="enable-background:new 0 0 137.3 164.9;" xml:space="preserve">
<style type="text/css">
	.st0{fill:#FCF0C7;}
</style>
<g>
	<path class="st0" d="M17,4.4c2.2,0.7,2.7,2.4,2.7,4.5c0,13.9,0,27.7,0,41.6c0,0.6,0,1.1,0,2c0.5-0.4,0.8-0.6,1.1-0.8
		c2.1-2.1,4.2-4.3,6.4-6.3c1.3-1.3,2.8-1.4,4.1-0.6c1.3,0.8,1.9,2,1.5,3.4c-0.2,0.8-0.7,1.6-1.3,2.2c-4.1,4.2-8.3,8.4-12.5,12.5
		c-1.7,1.7-3.5,1.7-5.2,0c-4.2-4.2-8.4-8.4-12.6-12.6c-1.4-1.4-1.7-2.9-0.9-4.2c1.1-2.1,3.6-2.4,5.5-0.6c2,1.9,4,3.9,5.9,5.9
		c0.4,0.4,0.7,0.7,1.4,1.3c0-0.9,0-1.5,0-2.1c0-13.9,0-27.7,0-41.6c0-2.1,0.6-3.8,2.7-4.5C16.2,4.4,16.6,4.4,17,4.4z"/>
	<path class="st0" d="M46.2,100.3c0-0.9,0-1.5,0-2c0-17.8,0-35.7,0-53.5c0-5.6,2.3-9.9,7.3-12.5c3.9-2,8-1.9,11.9,0
		c0.4,0.2,0.8,0.4,1.3,0.7c1.2-2.9,3.1-5.3,5.8-6.9c8.3-5,19.5,0.7,19.8,10.4c0.3,10.8,0.1,21.7,0.1,32.6c0,1,0,2,0,3.2
		c3.7-1.8,7.4-2.2,11.2-0.8c3.8,1.4,6.3,4.1,7.9,8c2.8-1.7,5.6-2.4,8.8-2.1c5.9,0.5,11.2,5.7,11.6,11.7c0.2,2.5,0.1,5.1,0.1,7.6
		c0,10.3,0.1,20.7-0.1,31c-0.2,16.7-12.2,31.2-28.4,34.7c-2.8,0.6-5.6,0.8-8.5,0.9c-4.8,0.1-9.6,0-14.4,0c-8.6,0-15.9-3-22-9.1
		c-15.4-15.4-30.9-30.8-46.3-46.3c-5.4-5.4-4.3-12.9,2.4-16.8c6.9-4,13.6-3.6,20,1C38.7,94.7,42.3,97.4,46.2,100.3z M52.8,75.5
		c0,8.7,0,17.4,0,26.1c0,1.8,0.1,3.6,0,5.4c-0.1,2.8-2.8,4.1-5.1,2.6c-0.7-0.4-1.3-1-2-1.5c-4.8-3.6-9.7-7.3-14.5-10.9
		c-4.4-3.2-9.7-3.1-13.6,0.1c-2.1,1.8-2.2,3.7-0.3,5.7c15.6,15.6,31.1,31.2,46.7,46.7c4.2,4.1,9.2,6.5,15.1,6.7
		c5.8,0.2,11.6,0.2,17.4,0c3-0.1,6-0.6,8.8-1.5c12.5-4.2,20.3-15.3,20.4-28.5c0-11.8,0-23.6,0-35.4c0-0.5,0-0.9-0.1-1.4
		c-0.4-3.3-3.2-5.9-6.5-5.9c-3.3,0-6.1,2.4-6.5,5.7c-0.2,1.5-0.1,3.1-0.2,4.6c-0.2,1.6-1.4,2.7-3,2.9c-1.6,0.1-2.9-0.8-3.4-2.4
		c-0.2-0.6-0.2-1.2-0.2-1.8c0-3.1,0.1-6.1,0-9.2c-0.1-3.5-2.8-6.2-6.2-6.4c-3.6-0.2-6.4,2.2-6.9,5.7c-0.1,0.7-0.1,1.4-0.1,2.2
		c0,2.9,0,5.8-0.1,8.7c-0.1,1.9-1.4,3.1-3.2,3.2c-1.7,0-3.1-1.2-3.3-3c-0.1-0.6,0-1.1,0-1.7c0-17.8,0-35.7,0-53.5c0-0.6,0-1.2,0-1.9
		c-0.3-3.3-2.8-5.7-6.1-6c-2.9-0.3-5.9,1.7-6.7,4.6c-0.3,1.1-0.4,2.2-0.4,3.4c0,17.8,0,35.6,0,53.4c0,0.7,0,1.4-0.1,2
		c-0.2,1.5-1.4,2.6-2.9,2.7c-1.5,0.1-2.9-0.8-3.3-2.2C66.1,94,66,93.2,66,92.4c0-15.7,0-31.3,0-47c0-0.7,0-1.3-0.1-2
		c-0.3-2.9-2.5-5.3-5.2-5.8c-2.8-0.6-5.8,0.7-7,3.3c-0.6,1.3-0.9,2.9-0.9,4.3C52.7,55.3,52.8,65.4,52.8,75.5z"/>
</g>
</svg>
