<?xml version="1.0" encoding="utf-8"?>
<!-- Generator: Adobe Illustrator 26.2.1, SVG Export Plug-In . SVG Version: 6.00 Build 0)  -->
<svg version="1.1" id="图层_1" xmlns="http://www.w3.org/2000/svg" xmlns:xlink="http://www.w3.org/1999/xlink" x="0px" y="0px"
	 viewBox="0 0 93 116" style="enable-background:new 0 0 93 116;" xml:space="preserve">
<style type="text/css">
	.st0{fill:#121212;}
</style>
<path class="st0" d="M85.2,50.7c-19.5-15-40.4-31-61.3-46.9c-1.9-1.4-4.6-2.5-7.6-3.1c-5.7-1-12,2.1-13.9,6.9
	c-1.7,4.3-0.2,7.6,5.5,12c10.3,7.9,20.6,15.8,30.9,23.7c4.5,3.5,9,6.9,13.6,10.5l5.4,4.2l-0.5,0.4c-0.6,0.5-1.1,0.9-1.6,1.3
	C50.3,63.8,45,67.9,39.6,72C28.5,80.6,17.3,89.1,6.2,97.7c-3.2,2.4-4.8,5.7-4.3,8.9c0.4,3.2,2.8,6,6.5,7.5c2.2,0.9,4.4,1.4,6.5,1.4
	c3.1,0,6.1-1,8.8-3.1c19.7-15,40.4-30.9,61.5-47.1c2.9-2.2,4.4-4.7,4.4-7.3C89.5,55.4,88,52.9,85.2,50.7z M10.6,101.5
	c7.3-5.8,14.8-11.5,22-17.1c2.3-1.8,4.7-3.6,7-5.4l8.4-6.5c4.8-3.7,9.7-7.4,14.5-11.1c2-1.6,3-2.4,3-3.5s-1.1-2-2.9-3.4
	C45.4,41.4,28.2,28.2,11.1,15.1L11,15c-2.1-1.6-3.8-2.9-2.8-5.5C9,7.2,11,5.9,13.6,5.9c0.2,0,0.4,0,0.7,0c2.2,0.2,4.4,0.9,5.8,2
	l60.8,46.5c1.8,1.4,2.6,2.5,2.6,3.6s-0.8,2.2-2.6,3.6c-19.5,15-40.4,31-61,46.7c-1,0.8-2.3,1.2-3.4,1.6c-0.4,0.2-0.8,0.3-1.2,0.5
	c-0.5-0.1-0.9-0.1-1.3-0.2c-0.7-0.1-1.2-0.1-1.4-0.3c-0.4-0.3-0.7-0.5-1.1-0.8c-1.4-1-2.8-2-3.2-3.1C7.9,104.9,9.3,102.5,10.6,101.5
	z"/>
</svg>
