<svg width="69" height="75" viewBox="0 0 69 75" fill="none" xmlns="http://www.w3.org/2000/svg">
<g clip-path="url(#clip0_585_518)">
<path d="M39.1947 74.7065L37.2522 74.5572C34.3066 74.3747 31.4027 73.7686 28.6303 72.7576C26.8595 72.1421 25.2469 71.1424 23.9084 69.8303C23.5183 69.408 23.1682 68.9506 22.8624 68.4638C22.3723 67.7059 22.1391 66.8105 22.1975 65.91C22.3245 63.2591 22.4515 60.6007 22.6084 57.9497C22.6831 56.5608 22.8176 55.1719 22.9297 53.7904C22.9297 53.6187 22.967 53.4469 22.9969 53.2229C34.1097 56.6168 45.9833 56.6168 57.096 53.2229C57.1782 53.9696 57.2679 54.6716 57.3276 55.366C57.634 59.0997 57.9254 62.8932 57.9328 66.6716C57.9249 66.8918 57.8794 67.109 57.7983 67.3138C56.6851 70.1141 54.3839 71.5852 51.7391 72.6306C49.2373 73.5791 46.6229 74.1991 43.9614 74.4751C43.2143 74.5721 42.4672 74.6319 41.6827 74.7065H39.1947Z" fill="#121212"/>
<path d="M4.17662 74.7065C3.68278 74.5793 3.1964 74.4247 2.71972 74.2436C1.95971 73.9797 1.3002 73.4868 0.831923 72.8329C0.363643 72.179 0.109603 71.3962 0.104752 70.592C0.10835 70.1816 0.200073 69.7767 0.373719 69.4047C2.07718 65.574 3.77317 61.7357 5.54388 57.9274C10.2409 47.8464 14.9727 37.7779 19.7394 27.7218C20.2699 26.6017 20.9199 25.5413 21.4578 24.4212C22.4888 22.308 24.4463 22.2706 25.9406 22.756C26.7392 22.9519 27.4614 23.3811 28.015 23.9889C28.5685 24.5967 28.9284 25.3555 29.0487 26.1686C29.1079 26.7391 29.0016 27.3146 28.7423 27.8264C27.6665 30.2757 26.613 32.7474 25.4848 35.1743C20.225 46.455 14.9528 57.7282 9.66805 68.994C9.16 70.0842 8.57724 71.1446 8.06919 72.2274C7.82505 72.8483 7.43138 73.3994 6.92311 73.8319C6.41483 74.2644 5.80763 74.5648 5.15537 74.7065H4.17662ZM27.1958 26.7137C27.2008 26.4362 27.149 26.1606 27.0436 25.9038C26.9383 25.647 26.7816 25.4144 26.5831 25.2202C26.1425 24.8262 25.5979 24.567 25.0142 24.4735C24.7986 24.3908 24.5687 24.3523 24.3379 24.3603C24.1072 24.3684 23.8805 24.4228 23.6713 24.5204C23.4621 24.618 23.2747 24.7567 23.1203 24.9283C22.966 25.0998 22.8477 25.3007 22.7728 25.5189C21.0693 29.1257 19.321 32.71 17.5951 36.3168C17.2813 36.9664 17.3037 36.9739 17.9836 37.2203C19.1483 37.608 20.2544 38.1532 21.271 38.8407C21.5176 39.02 21.6595 38.9677 21.794 38.6914C22.4664 37.2577 23.1837 35.8389 23.8412 34.3902C24.8871 32.0977 25.8958 29.7977 26.9119 27.4978C27.0217 27.2422 27.1165 26.9804 27.1958 26.7137V26.7137Z" fill="#121212"/>
<path d="M49.819 0.943848C50.0207 1.43669 50.2374 1.92954 50.4316 2.43732C50.4995 2.61801 50.6095 2.77995 50.7524 2.90979C50.8953 3.03963 51.067 3.13364 51.2535 3.18406L52.3219 3.53503C52.4638 3.5873 52.5908 3.66197 52.7925 3.75158C52.4563 4.05774 52.1799 4.34897 51.8661 4.58046C51.6188 4.73936 51.4189 4.96191 51.2875 5.22471C51.156 5.48752 51.0978 5.78087 51.119 6.07394C51.1219 6.55807 51.0944 7.04191 51.0368 7.52261C50.6996 7.35888 50.3772 7.16651 50.073 6.94762C49.8041 6.69114 49.4632 6.52293 49.096 6.46554C48.7288 6.40815 48.3528 6.46432 48.0184 6.62652C47.7754 6.71444 47.5255 6.78188 47.2712 6.82814C46.935 6.91775 46.8379 6.82814 46.9051 6.50704C46.9896 6.02734 47.1044 5.55346 47.2488 5.08824C47.2994 4.96329 47.3129 4.82643 47.2877 4.69401C47.2626 4.56159 47.1998 4.43921 47.1069 4.3415C46.7557 3.89346 46.4344 3.42302 46.0385 2.84803C46.3373 2.78082 46.5465 2.70615 46.7856 2.68375C47.164 2.70083 47.5431 2.69834 47.9212 2.67628C48.2021 2.6446 48.4647 2.52125 48.6684 2.32531C49.0494 1.8922 49.3557 1.40683 49.6994 0.943848H49.819Z" fill="#121212"/>
<path d="M31.6487 29.4991C32.0406 28.4035 32.1927 27.2365 32.0948 26.0771C31.9968 24.9177 31.6511 23.7928 31.0809 22.7784C31.955 22.6664 32.7619 22.5768 33.5614 22.4648C37.7028 21.9645 41.8895 21.9645 46.031 22.4648C51.7213 22.8895 57.2246 24.6829 62.0719 27.692C63.9506 28.8237 65.5412 30.3752 66.7191 32.2247C67.6209 33.5493 68.095 35.1182 68.0776 36.7203C68.0602 38.3224 67.5522 39.8807 66.622 41.1855C65.3165 43.099 63.6111 44.7066 61.6237 45.8974C58.5673 47.7547 55.225 49.0945 51.7316 49.8626C47.8583 50.7169 43.9007 51.1302 39.9344 51.0947C34.5441 51.1838 29.1793 50.3348 24.0802 48.5857C23.8561 48.5036 23.6394 48.4065 23.4078 48.3393C23.1762 48.2721 23.0343 48.0928 23.1687 47.7867C24.013 45.9572 24.7601 44.1202 25.6044 42.2907C26.1573 41.0586 26.7624 39.8489 27.3228 38.6167C27.3425 38.5401 27.3784 38.4685 27.4281 38.4069C27.4779 38.3453 27.5403 38.2951 27.6111 38.2597C27.682 38.2243 27.7596 38.2045 27.8388 38.2017C27.9179 38.1989 27.9968 38.2131 28.0699 38.2434C28.959 38.4973 29.8556 38.7288 30.7596 38.9453C33.5727 39.5956 36.4494 39.9312 39.3367 39.9459C43.0045 40.0544 46.6693 39.6446 50.2224 38.7288C51.9141 38.348 53.5121 37.632 54.9219 36.623C56.6851 35.249 56.715 33.636 54.9891 32.2097C53.8407 31.3296 52.531 30.6827 51.1339 30.3055C48.645 29.5674 46.0814 29.1091 43.4907 28.939C41.0496 28.7299 38.595 28.7299 36.1539 28.939C34.9062 29.0585 33.666 29.2601 32.4182 29.4169C32.2315 29.4617 31.955 29.4767 31.6487 29.4991Z" fill="#121212"/>
<path d="M31.5665 9.01603C31.9326 8.74721 32.2613 8.50078 32.5976 8.2693C33.143 7.87352 33.6958 7.48522 34.2487 7.09692C34.3737 7.01429 34.4778 6.90388 34.553 6.77434C34.6282 6.64479 34.6723 6.49962 34.6821 6.35018C34.7717 5.37942 34.8763 4.40866 34.9734 3.4379C34.9734 3.34083 34.9734 3.24375 35.0183 3.07947L35.5039 3.4155C36.251 3.97555 36.9982 4.53561 37.7453 5.11059C37.8664 5.20741 38.0091 5.27357 38.1613 5.30347C38.3135 5.33337 38.4707 5.32613 38.6194 5.28234C39.5907 5.05086 40.5695 4.84924 41.608 4.61775C41.5884 4.81628 41.5559 5.01333 41.5108 5.20767C41.212 6.13363 40.8907 7.05958 40.5993 7.98554C40.5547 8.15802 40.5733 8.34077 40.6516 8.50078C41.085 9.24752 41.5482 9.99426 41.989 10.741C42.1011 10.9351 42.1982 11.1368 42.3327 11.3981C42.1557 11.4362 41.9757 11.4587 41.7948 11.4653C40.8459 11.4653 39.8896 11.4205 38.9407 11.3683C38.837 11.3591 38.7327 11.3763 38.6374 11.418C38.5421 11.4598 38.4589 11.5248 38.3953 11.6072C37.7827 12.2867 37.1551 12.9513 36.5349 13.6234C36.393 13.7728 36.2212 13.9072 36.012 14.1013C35.87 13.6533 35.743 13.265 35.6309 12.8767C35.4441 12.227 35.2499 11.5773 35.093 10.9202C35.0655 10.7954 35.0064 10.6798 34.9213 10.5843C34.8363 10.4889 34.7282 10.4168 34.6073 10.3751C33.7033 10.0017 32.8142 9.62836 31.9177 9.21018C31.7971 9.15204 31.6799 9.08722 31.5665 9.01603V9.01603Z" fill="#121212"/>
<path d="M56.2144 10.9725L56.8495 14.1835L60.1742 13.84L57.9851 16.4237L60.1742 18.7013H57.0064L56.5133 21.972C56.0874 21.397 55.7661 20.8668 55.3253 20.3814C54.3242 19.1568 54.7276 19.2987 53.4351 19.9931C52.9943 20.2246 52.5684 20.5009 52.1351 20.7399L51.7092 20.9564L52.5385 17.8201L49.4828 16.6253C49.8339 16.4536 50.0805 16.3192 50.3345 16.2072C50.8201 15.9981 51.3058 15.8114 51.7839 15.5948C52.2621 15.3783 52.3742 15.1617 52.2173 14.639C52.0155 13.9371 51.7989 13.2501 51.5897 12.5556C51.5662 12.4623 51.5487 12.3675 51.5374 12.2719C51.7341 12.333 51.9264 12.4079 52.1127 12.4959C52.7029 12.7871 53.2782 13.0858 53.861 13.3845C54.4437 13.6832 54.369 13.6384 54.6828 13.1829L55.8932 11.3982L56.2144 10.9725Z" fill="#121212"/>
<path d="M23.094 20.3068C22.7952 19.9409 22.4963 19.5601 22.19 19.2166C21.7118 18.6565 21.7044 18.664 21.017 18.9253L19.8515 19.351C19.7869 19.3573 19.7218 19.3573 19.6572 19.351C19.6572 19.1344 19.6572 18.9403 19.717 18.7461C19.7768 18.552 19.7992 18.3802 19.844 18.1935C20.0457 17.275 19.986 17.163 19.1492 16.7001C18.8802 16.5582 18.6262 16.3939 18.402 16.2445L18.1555 16.0952C18.5365 15.8712 18.8279 15.692 19.1268 15.5277C20.1204 15.005 20.1204 15.005 19.9561 13.9222C19.8963 13.5414 19.844 13.1755 19.7768 12.6901L20.9796 13.2875C21.2934 13.4368 21.6446 13.728 21.921 13.6758C22.1975 13.6235 22.3618 13.2053 22.586 12.929L23.4153 11.9508C23.5274 12.3914 23.617 12.7648 23.7216 13.1456C23.8262 13.5264 23.8113 13.8923 24.0279 14.1163C24.2446 14.3404 24.6705 14.1985 24.9992 14.2358C25.328 14.2732 25.7463 14.3254 26.2245 14.3852C26.0452 14.654 25.9182 14.8631 25.7762 15.0572C25.5372 15.3783 25.2981 15.6994 25.0291 16.0056C24.9999 16.0328 24.9767 16.0658 24.9607 16.1024C24.9448 16.139 24.9366 16.1785 24.9366 16.2184C24.9366 16.2583 24.9448 16.2978 24.9607 16.3344C24.9767 16.371 24.9999 16.404 25.0291 16.4312C25.4027 16.939 25.7762 17.4692 26.1722 18.0591C25.5073 18.0591 24.9021 18.1338 24.2969 18.1338C24.2339 18.1244 24.1696 18.1278 24.108 18.144C24.0463 18.1601 23.9886 18.1886 23.9383 18.2277C23.888 18.2668 23.8462 18.3157 23.8154 18.3715C23.7845 18.4272 23.7654 18.4886 23.759 18.552C23.617 19.1195 23.4228 19.6721 23.2509 20.2321L23.094 20.3068Z" fill="#121212"/>
</g>
<defs>
<clipPath id="clip0_585_518">
<rect width="67.9741" height="73.7628" fill="white" transform="translate(0.104752 0.943848)"/>
</clipPath>
</defs>
</svg>
