<svg width="43" height="54" viewBox="0 0 43 54" fill="none" xmlns="http://www.w3.org/2000/svg">
<g clip-path="url(#clip0_585_617)">
<path d="M23.8781 53.7335H20.13C19.9976 53.7199 19.863 53.6971 19.7283 53.6926C18.1367 53.6728 16.5485 53.5397 14.9759 53.2945C12.7709 52.9191 10.607 52.4004 8.56861 51.4563C7.63091 51.0646 6.7823 50.4881 6.07372 49.7614C5.84111 49.5268 5.66355 49.2438 5.55383 48.9326C5.44411 48.6215 5.40494 48.29 5.43915 47.9619C5.50992 47.2362 5.51676 46.5059 5.57839 45.778C5.77698 43.3824 5.98698 40.9846 6.1947 38.589C6.22209 38.2751 6.26546 37.9612 6.30426 37.6154C6.38872 37.6791 6.43437 37.7086 6.47318 37.7428C7.9797 39.0645 9.76698 39.8357 11.6707 40.3703C14.6289 41.1769 17.6795 41.5975 20.7463 41.6216C24.0109 41.7179 27.274 41.3867 30.452 40.6365C32.6593 40.0928 34.7752 39.3375 36.5694 37.877C36.6778 37.8009 36.7914 37.7325 36.9095 37.6722C36.9232 37.7951 36.9369 37.8724 36.9414 37.9498C36.984 38.4715 37.0259 38.9925 37.067 39.5127C37.2952 42.2881 37.487 45.0636 37.7335 47.8345C37.7678 48.1695 37.7284 48.5079 37.618 48.8262C37.5076 49.1444 37.3289 49.4349 37.0944 49.6773C36.0877 50.8147 34.8118 51.4972 33.3965 51.9932C30.7985 52.8884 28.0929 53.4369 25.3503 53.6243C24.8642 53.663 24.3688 53.6926 23.8781 53.7335Z" fill="#121212"/>
<path d="M16.277 0.726685C17.4479 1.05201 18.0323 1.96199 18.4934 2.97436C19.0996 4.3347 19.4694 5.78789 19.5868 7.27178C19.8949 10.7161 19.8401 14.1672 19.8561 17.6183C19.8675 20.1777 19.8561 22.737 19.8561 25.2964V25.5512C19.6484 25.5512 19.4521 25.5512 19.2581 25.5512C18.6349 25.5148 18.014 25.4715 17.3909 25.4351C17.3435 25.4374 17.2962 25.4298 17.2519 25.4129C17.2076 25.3961 17.1673 25.3703 17.1334 25.3372C17.0995 25.3041 17.0729 25.2644 17.0552 25.2206C17.0374 25.1768 17.0289 25.1298 17.0302 25.0825C16.8294 23.5378 16.5988 21.9977 16.4002 20.453C16.1309 18.3623 15.8821 16.2693 15.6241 14.1786C15.615 14.1296 15.6013 14.0816 15.5831 14.0353C15.3776 14.0171 15.1722 13.9875 14.9645 13.9852C14.6518 13.9852 14.5719 14.0603 14.6015 14.3697C14.7157 15.5345 14.8298 16.7015 14.9599 17.864C15.1882 19.9115 15.4484 21.9408 15.6949 23.9792C15.7314 24.284 15.7702 24.5866 15.7976 24.8892C15.825 25.1917 15.7976 25.2531 15.4621 25.2213C15.0056 25.1803 14.565 25.1121 14.1176 25.0484C13.8232 25.0052 13.531 24.9324 13.2365 24.9074C13.1 24.9029 12.9687 24.8537 12.863 24.7673C12.7574 24.6809 12.6833 24.5622 12.6522 24.4296C12.4239 23.6993 12.1957 22.9714 11.9674 22.2365C11.3674 20.2267 10.8947 18.1813 10.5522 16.1123C10.2281 13.9898 10.066 11.8513 10.4358 9.7424C10.922 6.93963 11.9606 4.34389 13.741 2.08257C14.2106 1.42029 14.8964 0.941045 15.6812 0.726685L16.277 0.726685Z" fill="#121212"/>
<path d="M42.5955 26.1449C42.5201 26.4111 42.4608 26.6841 42.3672 26.9434C41.9632 28.0581 41.1665 28.8567 40.233 29.5323C38.7082 30.638 36.9825 31.3227 35.1998 31.871C32.8529 32.5674 30.4456 33.0427 28.0096 33.2906C24.7843 33.6523 21.5498 33.6 18.3153 33.5181C15.225 33.4285 12.155 32.9889 9.16437 32.2077C7.11002 31.6776 5.14013 30.9815 3.3597 29.8167C2.35079 29.1569 1.456 28.3744 0.949263 27.2482C0.809898 26.8876 0.691762 26.5192 0.595459 26.1449L0.595459 26.038C1.15698 26.4748 1.70252 26.9366 2.28231 27.3483C3.76829 28.4108 5.45513 29.0523 7.18079 29.6006C10.4091 30.6023 13.7483 31.2066 17.1238 31.4001C20.2278 31.612 23.3428 31.6067 26.446 31.3841C30.2443 31.102 33.9786 30.4332 37.544 29.075C39.287 28.4366 40.8978 27.4851 42.2964 26.2677C42.39 26.1836 42.495 26.113 42.5955 26.0402V26.1449Z" fill="#121212"/>
<path d="M9.49762 17.0132C9.59349 17.3908 9.69849 17.7616 9.78523 18.137C9.95871 18.8991 10.1185 19.6658 10.2965 20.4302C10.3142 20.4738 10.3227 20.5206 10.3215 20.5676C10.3202 20.6147 10.3093 20.6609 10.2894 20.7036C10.2695 20.7463 10.2411 20.7844 10.2058 20.8156C10.1705 20.8469 10.1291 20.8705 10.0843 20.8852C9.8286 20.9967 9.57523 21.1127 9.31958 21.2264C8.65348 21.4916 8.06037 21.9112 7.58936 22.4504C7.19904 22.9167 7.19675 23.2216 7.56197 23.7084C7.96164 24.1895 8.47447 24.5647 9.0548 24.8004C10.4271 25.406 11.8764 25.8209 13.3621 26.0334C17.1695 26.6773 21.0043 26.7842 24.8527 26.5908C27.3989 26.499 29.9262 26.1174 32.3853 25.4533C33.263 25.2341 34.1025 24.8843 34.8757 24.4159C35.1903 24.2071 35.4745 23.956 35.7202 23.6697C35.8446 23.5403 35.9177 23.3704 35.9261 23.1914C35.9345 23.0124 35.8776 22.8365 35.7659 22.6961C35.5148 22.3457 35.2386 22.0136 34.9556 21.6519C35.4137 20.8549 35.7463 19.9924 35.9416 19.0948C36.0123 18.7603 36.0588 18.4212 36.0809 18.0801C36.1014 17.8526 36.1996 17.7776 36.4141 17.8526C38.1558 18.4714 39.8563 19.2108 41.2259 20.5189C41.6432 20.9293 41.9936 21.4021 42.2645 21.9203C42.4918 22.3347 42.599 22.804 42.574 23.2757C42.549 23.7474 42.3928 24.2028 42.1229 24.5911C41.5562 25.4323 40.8034 26.1327 39.9225 26.6386C38.2471 27.6896 36.4073 28.3562 34.5173 28.8863C31.8143 29.6243 29.0465 30.1027 26.252 30.3149C23.0519 30.5796 19.8346 30.5621 16.6376 30.2626C13.8082 30.0386 11.0068 29.545 8.27186 28.7884C6.34762 28.2311 4.48501 27.5145 2.83925 26.3497C2.299 25.9739 1.8102 25.5296 1.38523 25.0279C0.40371 23.8472 0.405993 22.4868 1.31447 21.2492C1.93114 20.4439 2.71326 19.7792 3.60849 19.2995C5.41891 18.2995 7.35054 17.5349 9.3561 17.0246C9.40305 17.0183 9.45028 17.0145 9.49762 17.0132Z" fill="#121212"/>
<path d="M35.0012 16.9518C35.0497 18.0878 34.843 19.2202 34.3963 20.2664C34.2702 20.5555 34.1092 20.8283 33.917 21.0786C33.6875 21.4021 33.3611 21.6448 32.9847 21.7719C32.6082 21.899 32.201 21.904 31.8215 21.7861C30.9855 21.5467 30.2187 21.1123 29.5846 20.5189C27.1522 18.4624 25.3107 15.7996 24.2478 12.8022C24.1153 12.4101 24.0287 12.004 23.9899 11.592C23.8849 10.5682 24.3232 9.81748 25.2819 9.42846C25.6999 9.25922 26.142 9.15635 26.5921 9.12362C28.3195 9.02564 30.0464 9.32533 31.6389 9.99948C32.7255 10.4385 33.4216 11.2348 33.9421 12.2494C34.6741 13.7075 35.0377 15.3218 35.0012 16.9518Z" fill="#121212"/>
<path d="M24.0287 15.316C24.0854 15.3936 24.138 15.4741 24.1862 15.5572C25.0542 17.1289 26.0847 18.6058 27.2609 19.9638C27.3217 20.028 27.3667 20.1054 27.3925 20.1898C27.4182 20.2743 27.424 20.3636 27.4093 20.4506C27.1993 21.9954 27.003 23.5401 26.7998 25.0848C26.7838 25.2053 26.777 25.335 26.5944 25.3464C25.7133 25.4124 24.8345 25.4852 23.9511 25.5534V15.3342L24.0287 15.316Z" fill="#121212"/>
<path d="M27.9571 25.1485L28.457 21.1355L29.071 21.5768C29.8402 22.1342 30.6277 22.6552 31.5636 22.9077C31.5964 22.9287 31.6233 22.9577 31.6417 22.9919C31.66 23.0261 31.6693 23.0645 31.6686 23.1033C31.5202 23.5583 31.3627 24.0133 31.1847 24.4479C31.1624 24.5016 31.1286 24.5498 31.0856 24.5891C31.0426 24.6284 30.9915 24.6578 30.9359 24.6754C30.0229 24.8528 29.0915 25.0143 28.1671 25.1781C28.0963 25.1751 28.026 25.1652 27.9571 25.1485Z" fill="#121212"/>
<path d="M22.8828 19.427H21.0294V15.7142H22.8828V19.427Z" fill="#121212"/>
<path d="M36.4324 32.7037C36.4781 33.227 36.5214 33.6911 36.5579 34.1574C36.5945 34.6602 36.631 35.163 36.6538 35.668C36.6455 35.7727 36.6109 35.8736 36.5534 35.9615C35.8686 37.1354 34.8072 37.8611 33.602 38.4094C31.9542 39.1291 30.2228 39.6411 28.4478 39.9336C25.3709 40.4955 22.262 40.5228 19.1508 40.4386C16.5362 40.3633 13.9452 39.9222 11.4538 39.1283C10.1927 38.7674 9.00194 38.1967 7.93175 37.4402C7.78566 37.331 7.65099 37.2127 7.51631 37.0922C7.19018 36.8309 6.93329 36.494 6.76814 36.1109C6.60299 35.7278 6.53462 35.3101 6.56903 34.8945C6.61697 34.2848 6.6649 33.6751 6.72881 33.0746C6.76305 32.7447 6.82925 32.7083 7.15338 32.7993C9.22068 33.4183 11.3331 33.8762 13.4716 34.1688C15.1585 34.3736 16.8522 34.5465 18.5482 34.6124C20.534 34.6898 22.5267 34.6875 24.5126 34.6329C28.2301 34.5424 31.9203 33.9743 35.492 32.9426C35.7841 32.8562 36.0832 32.7902 36.4324 32.7037Z" fill="#121212"/>
</g>
<defs>
<clipPath id="clip0_585_617">
<rect width="42" height="53" fill="white" transform="translate(0.595459 0.726685)"/>
</clipPath>
</defs>
</svg>
