<svg width="47" height="62" viewBox="0 0 47 62" fill="none" xmlns="http://www.w3.org/2000/svg">
<g clip-path="url(#clip0_327_7744)">
<path d="M40.6088 49.4554C32.101 54.9651 15.0321 55.018 6.38533 49.4554L10.7338 45.9115C4.47565 41.6036 0.774539 35.7619 0.0975787 28.2098C-0.411155 22.9526 0.956557 17.685 3.96128 13.3291C6.76313 9.13094 10.8606 5.95059 15.6373 4.26646C20.414 2.58233 25.6116 2.48549 30.4485 3.99049C30.1529 4.31961 29.8779 4.63697 29.5794 4.91319C28.1617 6.19648 26.4348 7.09426 24.5657 7.51966C23.5872 7.75768 22.523 7.61663 21.5061 7.71948C18.0096 8.09082 14.6882 9.43065 11.9201 11.5864C9.1521 13.7422 7.04865 16.6273 5.8493 19.9131C4.64995 23.199 4.40289 26.7536 5.13627 30.1722C5.86964 33.5908 7.55398 36.736 9.99747 39.2497C12.441 41.7634 15.5454 43.5445 18.9574 44.3903C22.3693 45.236 25.9516 45.1125 29.2964 44.0336C32.6412 42.9548 35.6139 40.964 37.8763 38.2881C40.1386 35.6121 41.5996 32.3584 42.0928 28.8974C42.7326 24.7483 41.8962 20.5073 39.7279 16.9053C39.4323 16.4087 39.4589 16.0708 39.8993 15.7887C40.8778 15.1569 41.877 14.5604 42.8732 13.958C43.2427 13.7346 43.4645 13.9227 43.6477 14.2518C46.2876 18.6596 47.4228 23.4553 46.8788 28.5625C46.1014 35.8206 42.5835 41.492 36.5825 45.6706C36.5027 45.7264 36.4288 45.794 36.2869 45.9145L40.6088 49.4554Z" fill="#121212"/>
<path d="M5.45117 51.9355C17.5507 57.4012 29.5025 57.3865 41.5577 51.9355C41.8829 53.014 42.282 54.2158 42.6042 55.4353C42.7029 55.8025 42.6914 56.1904 42.5711 56.5512C42.4509 56.912 42.227 57.2299 41.9272 57.4659C41.1013 58.1802 40.1946 58.7965 39.2253 59.3024C36.5914 60.5866 33.7328 61.1331 30.8505 61.5122C25.3814 62.2479 19.8316 62.1547 14.3906 61.236C11.869 60.807 9.38286 60.2193 7.11844 58.988C6.37802 58.5759 5.69439 58.0701 5.0846 57.4835C4.73779 57.1717 4.49629 56.761 4.39311 56.3077C4.28993 55.8543 4.33011 55.3803 4.50815 54.9505C4.86289 53.9161 5.16146 52.8641 5.45117 51.9355Z" fill="#121212"/>
<path d="M45.8471 10.6581C38.5188 11.9451 35.27 15.2128 34.7438 21.7128C34.3417 20.4257 34.0727 19.0152 33.4608 17.7693C32.85 16.4684 32.0269 15.277 31.0249 14.2431C29.9793 13.2482 28.7732 12.4347 27.4568 11.8364C26.168 11.2311 24.7106 10.9725 23.4365 10.5934C24.0573 10.423 24.8584 10.232 25.6418 9.98808C28.2402 9.17705 30.5874 7.93111 32.37 5.83006C33.6076 4.37844 34.3988 2.60347 34.6492 0.717026C34.6728 0.552469 34.729 0.39085 34.8206 0.0117798C35.8553 6.40014 39.6599 9.69717 45.8471 10.6581Z" fill="#121212"/>
<path d="M23.3537 30.8927C26.3779 30.0553 28.8078 28.6506 29.405 25.2214C29.5924 25.9039 29.8275 26.5725 30.1085 27.2225C30.4276 27.8687 30.8432 28.4631 31.3412 28.9856C31.846 29.4632 32.4224 29.8598 33.0499 30.161C33.7479 30.4683 34.4635 30.7343 35.1931 30.9574C31.7285 31.4246 29.9046 33.3964 29.3547 36.6816C28.6127 33.4228 26.635 31.5186 23.3537 30.8927Z" fill="#121212"/>
<path d="M10.4825 17.7987C12.5992 17.1816 14.3522 16.2118 14.9168 13.8199C15.44 16.0679 16.8856 17.3461 19.2623 17.8133C16.5397 18.2835 15.4193 19.4178 14.8606 22.2006C14.3196 19.7087 12.9066 18.2629 10.4825 17.7987Z" fill="#121212"/>
</g>
<defs>
<clipPath id="clip0_327_7744">
<rect width="47" height="62" fill="white"/>
</clipPath>
</defs>
</svg>
