<svg width="43" height="57" viewBox="0 0 43 57" fill="none" xmlns="http://www.w3.org/2000/svg">
<g clip-path="url(#clip0_585_372)">
<path d="M33.3966 16.2755C32.2886 15.5873 31.4022 14.5931 30.844 13.4122C30.2858 12.2313 30.0795 10.914 30.2499 9.61835C30.477 6.88612 29.6659 6.53917 27.2761 7.92697L27.168 8.00286C26.3312 8.79052 25.266 9.29073 24.1268 9.43108C22.9876 9.57142 21.8333 9.34462 20.8312 8.7835C20.7535 8.7454 20.6689 8.72329 20.5825 8.71845L18.0521 8.52329C17.9652 9.38485 17.9652 10.253 18.0521 11.1146C18.5387 13.283 18.8307 15.3647 16.9708 17.0778C16.5527 17.5281 16.1897 18.0267 15.8894 18.5632C15.1541 19.7016 15.3704 20.2871 16.6788 20.5907C17.4574 20.7641 18.2468 20.8726 19.1876 21.0352C15.1433 28.0826 11.1855 34.9566 7.29261 41.8414C5.27046 45.3651 3.2267 48.8671 1.23699 52.4125C0.447602 53.8112 0.696315 55.0906 1.76686 55.7194C2.04059 55.8668 2.34181 55.9557 2.65151 55.9805C2.96122 56.0053 3.27269 55.9656 3.5663 55.8637C3.85992 55.7618 4.1293 55.6001 4.35746 55.3886C4.58562 55.1772 4.76763 54.9207 4.89199 54.6352C6.70867 51.5488 8.51094 48.4515 10.2988 45.3434C12.4615 41.6029 14.5702 37.8406 16.7221 34.1109C18.874 30.3812 20.8961 26.955 23.0696 23.2687C23.5238 23.8542 23.859 24.2987 24.2159 24.7215C25.6865 26.4671 26.2272 26.3696 27.0815 24.2662C27.9358 22.1628 28.9198 19.745 31.8719 19.5281C32.2053 19.451 32.5283 19.3346 32.8343 19.1812C34.7916 18.4439 35.0727 17.5006 33.3966 16.2755Z" fill="#121212"/>
<path d="M11.3802 15.8961C13.132 15.7334 14.8946 15.6033 16.6464 15.3865C16.9708 15.3865 17.2627 14.9528 17.5655 14.7251C17.2303 14.5516 16.8735 14.2264 16.4842 14.2372C14.7648 14.2914 13.0454 14.3782 11.3369 14.5733C10.6994 14.7415 10.0854 14.9892 9.5094 15.3106L11.1855 16.178L11.3802 15.8961Z" fill="#121212"/>
<path d="M30.2715 21.8918C30.185 21.7075 29.6767 21.6424 29.3956 21.6858C29.3008 21.7769 29.2288 21.8893 29.1856 22.0136C29.1424 22.138 29.1291 22.2709 29.1469 22.4014C30.1093 24.4614 31.115 26.5214 32.1422 28.5489C32.2165 28.6423 32.3126 28.7159 32.422 28.7632C32.5314 28.8104 32.6507 28.8299 32.7694 28.8199C32.9533 28.7657 33.0722 28.473 33.1912 28.3429C33.1829 28.265 33.1647 28.1885 33.1371 28.1152C32.1963 26.0335 31.2663 23.941 30.2715 21.8918Z" fill="#121212"/>
<path d="M31.6989 12.882C31.6989 13.0121 32.0666 13.2181 32.218 13.3373C32.5748 13.2181 32.7803 13.153 32.9749 13.0663C34.7267 12.329 36.4353 11.6134 38.2087 10.8545C38.5115 10.7244 38.6737 10.2798 38.9008 9.9871C38.4898 9.9112 38.0249 9.68352 37.6788 9.79194C36.5975 10.1389 35.581 10.5943 34.5429 11.0388C33.7418 11.3577 32.9585 11.7196 32.1963 12.123C31.942 12.3051 31.7647 12.5757 31.6989 12.882Z" fill="#121212"/>
<path d="M23.8699 8.5233L24.4538 7.7535C24.1294 5.44411 23.8699 3.41662 23.5454 1.3566C23.5454 1.12891 23.1237 0.966278 22.8966 0.771118C22.7128 1.05302 22.3343 1.3566 22.3668 1.60597C22.6047 3.65515 22.8966 5.70432 23.2319 7.73182C23.2859 8.02456 23.6536 8.26308 23.8699 8.5233Z" fill="#121212"/>
<path d="M16.8843 7.1572C16.8086 6.74519 16.8843 6.23561 16.6356 5.95371C15.5542 4.68517 14.4728 3.44916 13.3915 2.2782C13.1211 1.99631 12.5264 2.02883 12.0722 1.92041L11.8884 2.45168C13.1752 3.89369 14.4404 5.35739 15.7597 6.78856C15.9759 7.01625 16.495 7.02709 16.8843 7.1572Z" fill="#121212"/>
<path d="M42.1448 18.9427C40.3498 18.509 38.5439 18.1078 36.738 17.7717C36.5001 17.7717 36.1865 18.0536 35.9162 18.2054C36.1108 18.4548 36.2622 18.8776 36.5001 18.9318C38.2952 19.3655 40.1119 19.7233 42.1016 20.1353L42.7612 19.6366C42.5557 19.3981 42.3935 18.9969 42.1448 18.9427Z" fill="#121212"/>
<path d="M31.2664 5.53089C32.1206 4.18646 32.8884 2.79865 33.6778 1.42169C33.8132 1.12115 33.9323 0.813504 34.0347 0.500106C33.8833 0.337473 33.6886 0.012207 33.5805 0.012207C33.2665 0.0729623 32.9835 0.241682 32.7803 0.489264C31.8936 1.9638 31.0285 3.44919 30.2283 4.97794C30.0985 5.23815 30.2283 5.65015 30.2283 5.99711C30.6067 5.84531 31.1042 5.7911 31.2664 5.53089Z" fill="#121212"/>
</g>
<defs>
<clipPath id="clip0_585_372">
<rect width="42" height="56" fill="white" transform="translate(0.750397 0.012207)"/>
</clipPath>
</defs>
</svg>
