<svg width="61" height="47" viewBox="0 0 61 47" fill="none" xmlns="http://www.w3.org/2000/svg">
<g clip-path="url(#clip0_585_171)">
<path d="M59.8783 6.00141C59.4577 4.41163 58.5095 3.01145 57.1887 2.02993C55.8679 1.0484 54.2527 0.54363 52.6073 0.598185C47.4013 0.547348 42.1953 0.547348 36.9893 0.547348C32.7503 0.547348 28.4968 0.489249 24.2796 0.649022C19.1172 0.837844 15.5544 4.23664 15.0964 9.19686C14.8128 12.1018 15.9762 14.0699 18.6228 14.9269C18.5646 13.8012 18.441 12.7482 18.4556 11.6806C18.5646 5.71091 21.9529 4.0333 26.0683 4.17855C31.3906 4.38189 36.7202 4.21486 42.0644 4.23664C43.2132 4.23664 44.3547 4.33832 45.8889 4.4182C43.8821 7.86058 43.8894 11.2376 44.202 14.5856C44.4347 17.1056 44.8492 19.6039 45.2854 22.0949C46.0561 26.4959 47.1032 30.8533 46.4124 35.3705C45.6853 40.3743 42.2098 43.243 37.7309 42.5676C34.9388 42.1463 33.5428 40.2 34.0227 37.404C34.3426 35.5811 34.9243 35.356 37.6582 36.2638C37.0329 36.5543 36.6693 36.7359 36.2985 36.8956C35.0624 37.4258 34.6116 38.457 35.346 39.4738C35.6435 39.8006 36.0078 40.0599 36.4142 40.234C36.8206 40.4082 37.2597 40.4932 37.7018 40.4832C39.3014 40.3816 40.2757 39.285 40.6102 37.6872C40.7805 37.007 40.7968 36.2973 40.6577 35.61C40.5186 34.9227 40.2278 34.275 39.8063 33.7142C39.3849 33.1534 38.8434 32.6935 38.2215 32.3682C37.5996 32.0429 36.9128 31.8603 36.2113 31.8337C33.9354 31.6449 31.6306 31.7684 29.3329 31.7539L21.8947 31.7756C21.3349 28.1444 21.5239 24.8473 20.1497 21.8697C16.3106 22.8574 16.1216 23.1624 16.7614 26.5177C17.0741 28.1299 17.2849 29.764 17.6267 31.9281C15.3129 31.8245 12.9952 31.839 10.6829 31.9717C9.62471 32.0597 8.59894 32.3795 7.67853 32.9084C6.75812 33.4372 5.96568 34.1622 5.35759 35.0316C4.7495 35.9011 4.3407 36.8937 4.16024 37.9389C3.97979 38.9841 4.03213 40.0561 4.31354 41.0788C5.11334 44.3832 7.94902 46.4965 11.9408 46.5183C21.0222 46.5691 30.1182 46.5183 39.1778 46.5183C43.4531 46.5183 46.5869 44.4921 48.521 40.7084C50.8114 36.2493 51.124 31.4706 50.3969 26.5903C49.6698 21.71 48.8555 16.8369 48.0629 11.9566C47.846 10.8874 47.8461 9.78557 48.0634 8.71645C48.2808 7.64734 48.7108 6.6327 49.3281 5.7327C50.5932 3.95341 52.9636 3.69196 54.8104 5.00646C56.6572 6.32095 56.8172 7.27232 55.5375 9.42926C55.3484 8.79743 55.3484 8.0494 54.9776 7.75164C54.2578 7.14886 53.218 6.35726 52.5927 6.54609C52.1211 6.72773 51.6926 7.00562 51.3345 7.362C50.9765 7.71838 50.6968 8.14543 50.5132 8.61587C49.9897 10.141 50.7241 11.4264 52.171 12.2471C53.1381 12.7813 54.2468 13.0039 55.3454 12.8843C56.444 12.7646 57.4786 12.3087 58.3077 11.5789C59.102 10.9158 59.6771 10.0284 59.9574 9.03298C60.2376 8.03761 60.2101 6.98085 59.8783 6.00141Z" fill="#121212"/>
<path d="M12.7842 28.1445C13.0896 22.6251 16.0925 19.938 21.1749 18.8631C15.7726 18.1006 13.3732 14.7817 12.6606 9.65442C11.3809 12.051 10.6829 14.375 9.17783 15.9001C7.67274 17.4252 5.38966 18.0788 3.75369 19.0011C5.56416 19.9307 7.81816 20.5407 9.25054 21.9714C10.6829 23.4021 11.4827 25.7769 12.7842 28.1445Z" fill="#121212"/>
<path d="M6.12402 14.6074C6.32761 10.9762 8.30531 9.16784 11.6863 8.45612C8.13808 7.92597 6.51665 5.73272 6.04404 2.33392C5.22969 3.92439 4.73526 5.45675 3.7755 6.47349C2.81573 7.49022 1.22339 7.94049 0.140015 8.53601C1.33972 9.15331 2.83754 9.55274 3.7755 10.5041C4.71345 11.4555 5.22969 13.0169 6.12402 14.6074Z" fill="#121212"/>
<path d="M35.6296 14.1498C31.5579 11.804 31.5579 11.804 29.8128 8.16559C28.1405 11.2957 28.1405 11.2957 24.1996 14.3604C27.4207 14.4911 28.4677 17.0257 29.9728 20.3882C30.7435 16.5246 32.5976 14.7889 35.6296 14.1498Z" fill="#121212"/>
</g>
<defs>
<clipPath id="clip0_585_171">
<rect width="60" height="46" fill="white" transform="translate(0.140015 0.547363)"/>
</clipPath>
</defs>
</svg>
