<svg width="150" height="150" viewBox="0 0 150 150" fill="none" xmlns="http://www.w3.org/2000/svg">
<path d="M27.551 0H24.4898V3.06122H27.551V0Z" fill="#1E3138"/>
<path d="M39.7959 0H36.7347V3.06122H39.7959V0Z" fill="#1E3138"/>
<path d="M45.9183 0H42.8571V3.06122H45.9183V0Z" fill="#1E3138"/>
<path d="M48.9796 0H45.9183V3.06122H48.9796V0Z" fill="#1E3138"/>
<path d="M55.1021 0H52.0408V3.06122H55.1021V0Z" fill="#1E3138"/>
<path d="M58.1633 0H55.1021V3.06122H58.1633V0Z" fill="#1E3138"/>
<path d="M85.7143 0H82.6531V3.06122H85.7143V0Z" fill="#1E3138"/>
<path d="M97.9592 0H94.8979V3.06122H97.9592V0Z" fill="#1E3138"/>
<path d="M104.082 0H101.02V3.06122H104.082V0Z" fill="#1E3138"/>
<path d="M107.143 0H104.082V3.06122H107.143V0Z" fill="#1E3138"/>
<path d="M110.204 0H107.143V3.06122H110.204V0Z" fill="#1E3138"/>
<path d="M116.327 0H113.265V3.06122H116.327V0Z" fill="#1E3138"/>
<path d="M125.51 0H122.449V3.06122H125.51V0Z" fill="#1E3138"/>
<path d="M27.551 3.06122H24.4898V6.12244H27.551V3.06122Z" fill="#1E3138"/>
<path d="M33.6735 3.06122H30.6122V6.12244H33.6735V3.06122Z" fill="#1E3138"/>
<path d="M39.7959 3.06122H36.7347V6.12244H39.7959V3.06122Z" fill="#1E3138"/>
<path d="M42.8571 3.06122H39.7959V6.12244H42.8571V3.06122Z" fill="#1E3138"/>
<path d="M45.9183 3.06122H42.8571V6.12244H45.9183V3.06122Z" fill="#1E3138"/>
<path d="M48.9796 3.06122H45.9183V6.12244H48.9796V3.06122Z" fill="#1E3138"/>
<path d="M52.0408 3.06122H48.9796V6.12244H52.0408V3.06122Z" fill="#1E3138"/>
<path d="M64.2857 3.06122H61.2245V6.12244H64.2857V3.06122Z" fill="#1E3138"/>
<path d="M67.3469 3.06122H64.2857V6.12244H67.3469V3.06122Z" fill="#1E3138"/>
<path d="M70.4081 3.06122H67.3469V6.12244H70.4081V3.06122Z" fill="#1E3138"/>
<path d="M76.5306 3.06122H73.4694V6.12244H76.5306V3.06122Z" fill="#1E3138"/>
<path d="M79.5919 3.06122H76.5306V6.12244H79.5919V3.06122Z" fill="#1E3138"/>
<path d="M85.7143 3.06122H82.6531V6.12244H85.7143V3.06122Z" fill="#1E3138"/>
<path d="M97.9592 3.06122H94.8979V6.12244H97.9592V3.06122Z" fill="#1E3138"/>
<path d="M104.082 3.06122H101.02V6.12244H104.082V3.06122Z" fill="#1E3138"/>
<path d="M113.265 3.06122H110.204V6.12244H113.265V3.06122Z" fill="#1E3138"/>
<path d="M116.327 3.06122H113.265V6.12244H116.327V3.06122Z" fill="#1E3138"/>
<path d="M119.388 3.06122H116.327V6.12244H119.388V3.06122Z" fill="#1E3138"/>
<path d="M122.449 3.06122H119.388V6.12244H122.449V3.06122Z" fill="#1E3138"/>
<path d="M125.51 3.06122H122.449V6.12244H125.51V3.06122Z" fill="#1E3138"/>
<path d="M42.8571 6.12244H39.7959V9.18366H42.8571V6.12244Z" fill="#1E3138"/>
<path d="M45.9183 6.12244H42.8571V9.18366H45.9183V6.12244Z" fill="#1E3138"/>
<path d="M48.9796 6.12244H45.9183V9.18366H48.9796V6.12244Z" fill="#1E3138"/>
<path d="M52.0408 6.12244H48.9796V9.18366H52.0408V6.12244Z" fill="#1E3138"/>
<path d="M55.1021 6.12244H52.0408V9.18366H55.1021V6.12244Z" fill="#1E3138"/>
<path d="M61.2245 6.12244H58.1633V9.18366H61.2245V6.12244Z" fill="#1E3138"/>
<path d="M67.3469 6.12244H64.2857V9.18366H67.3469V6.12244Z" fill="#1E3138"/>
<path d="M85.7143 6.12244H82.6531V9.18366H85.7143V6.12244Z" fill="#1E3138"/>
<path d="M91.8367 6.12244H88.7755V9.18366H91.8367V6.12244Z" fill="#1E3138"/>
<path d="M94.898 6.12244H91.8367V9.18366H94.898V6.12244Z" fill="#1E3138"/>
<path d="M101.02 6.12244H97.9592V9.18366H101.02V6.12244Z" fill="#1E3138"/>
<path d="M104.082 6.12244H101.02V9.18366H104.082V6.12244Z" fill="#1E3138"/>
<path d="M122.449 6.12244H119.388V9.18366H122.449V6.12244Z" fill="#1E3138"/>
<path d="M125.51 6.12244H122.449V9.18366H125.51V6.12244Z" fill="#1E3138"/>
<path d="M27.551 9.18365H24.4898V12.2449H27.551V9.18365Z" fill="#1E3138"/>
<path d="M30.6122 9.18365H27.551V12.2449H30.6122V9.18365Z" fill="#1E3138"/>
<path d="M39.7959 9.18365H36.7347V12.2449H39.7959V9.18365Z" fill="#1E3138"/>
<path d="M55.1021 9.18365H52.0408V12.2449H55.1021V9.18365Z" fill="#1E3138"/>
<path d="M61.2245 9.18365H58.1633V12.2449H61.2245V9.18365Z" fill="#1E3138"/>
<path d="M64.2857 9.18365H61.2245V12.2449H64.2857V9.18365Z" fill="#1E3138"/>
<path d="M70.4081 9.18365H67.3469V12.2449H70.4081V9.18365Z" fill="#1E3138"/>
<path d="M73.4694 9.18365H70.4081V12.2449H73.4694V9.18365Z" fill="#1E3138"/>
<path d="M85.7143 9.18365H82.6531V12.2449H85.7143V9.18365Z" fill="#1E3138"/>
<path d="M91.8367 9.18365H88.7755V12.2449H91.8367V9.18365Z" fill="#1E3138"/>
<path d="M101.02 9.18365H97.9592V12.2449H101.02V9.18365Z" fill="#1E3138"/>
<path d="M107.143 9.18365H104.082V12.2449H107.143V9.18365Z" fill="#1E3138"/>
<path d="M122.449 9.18365H119.388V12.2449H122.449V9.18365Z" fill="#1E3138"/>
<path d="M27.551 12.2449H24.4898V15.3061H27.551V12.2449Z" fill="#1E3138"/>
<path d="M33.6735 12.2449H30.6122V15.3061H33.6735V12.2449Z" fill="#1E3138"/>
<path d="M39.7959 12.2449H36.7347V15.3061H39.7959V12.2449Z" fill="#1E3138"/>
<path d="M42.8571 12.2449H39.7959V15.3061H42.8571V12.2449Z" fill="#1E3138"/>
<path d="M45.9183 12.2449H42.8571V15.3061H45.9183V12.2449Z" fill="#1E3138"/>
<path d="M48.9796 12.2449H45.9183V15.3061H48.9796V12.2449Z" fill="#1E3138"/>
<path d="M55.1021 12.2449H52.0408V15.3061H55.1021V12.2449Z" fill="#1E3138"/>
<path d="M61.2245 12.2449H58.1633V15.3061H61.2245V12.2449Z" fill="#1E3138"/>
<path d="M64.2857 12.2449H61.2245V15.3061H64.2857V12.2449Z" fill="#1E3138"/>
<path d="M67.3469 12.2449H64.2857V15.3061H67.3469V12.2449Z" fill="#1E3138"/>
<path d="M70.4081 12.2449H67.3469V15.3061H70.4081V12.2449Z" fill="#1E3138"/>
<path d="M73.4694 12.2449H70.4081V15.3061H73.4694V12.2449Z" fill="#1E3138"/>
<path d="M76.5306 12.2449H73.4694V15.3061H76.5306V12.2449Z" fill="#1E3138"/>
<path d="M79.5919 12.2449H76.5306V15.3061H79.5919V12.2449Z" fill="#1E3138"/>
<path d="M82.6531 12.2449H79.5919V15.3061H82.6531V12.2449Z" fill="#1E3138"/>
<path d="M97.9592 12.2449H94.8979V15.3061H97.9592V12.2449Z" fill="#1E3138"/>
<path d="M110.204 12.2449H107.143V15.3061H110.204V12.2449Z" fill="#1E3138"/>
<path d="M116.327 12.2449H113.265V15.3061H116.327V12.2449Z" fill="#1E3138"/>
<path d="M27.551 15.3062H24.4898V18.3674H27.551V15.3062Z" fill="#1E3138"/>
<path d="M36.7347 15.3062H33.6735V18.3674H36.7347V15.3062Z" fill="#1E3138"/>
<path d="M39.7959 15.3062H36.7347V18.3674H39.7959V15.3062Z" fill="#1E3138"/>
<path d="M48.9796 15.3062H45.9183V18.3674H48.9796V15.3062Z" fill="#1E3138"/>
<path d="M58.1633 15.3062H55.1021V18.3674H58.1633V15.3062Z" fill="#1E3138"/>
<path d="M64.2857 15.3062H61.2245V18.3674H64.2857V15.3062Z" fill="#1E3138"/>
<path d="M70.4081 15.3062H67.3469V18.3674H70.4081V15.3062Z" fill="#1E3138"/>
<path d="M82.6531 15.3062H79.5919V18.3674H82.6531V15.3062Z" fill="#1E3138"/>
<path d="M85.7143 15.3062H82.6531V18.3674H85.7143V15.3062Z" fill="#1E3138"/>
<path d="M88.7755 15.3062H85.7143V18.3674H88.7755V15.3062Z" fill="#1E3138"/>
<path d="M91.8367 15.3062H88.7755V18.3674H91.8367V15.3062Z" fill="#1E3138"/>
<path d="M94.898 15.3062H91.8367V18.3674H94.898V15.3062Z" fill="#1E3138"/>
<path d="M97.9592 15.3062H94.8979V18.3674H97.9592V15.3062Z" fill="#1E3138"/>
<path d="M107.143 15.3062H104.082V18.3674H107.143V15.3062Z" fill="#1E3138"/>
<path d="M110.204 15.3062H107.143V18.3674H110.204V15.3062Z" fill="#1E3138"/>
<path d="M119.388 15.3062H116.327V18.3674H119.388V15.3062Z" fill="#1E3138"/>
<path d="M27.551 18.3674H24.4898V21.4286H27.551V18.3674Z" fill="#1E3138"/>
<path d="M33.6735 18.3674H30.6122V21.4286H33.6735V18.3674Z" fill="#1E3138"/>
<path d="M39.7959 18.3674H36.7347V21.4286H39.7959V18.3674Z" fill="#1E3138"/>
<path d="M45.9183 18.3674H42.8571V21.4286H45.9183V18.3674Z" fill="#1E3138"/>
<path d="M52.0408 18.3674H48.9796V21.4286H52.0408V18.3674Z" fill="#1E3138"/>
<path d="M58.1633 18.3674H55.1021V21.4286H58.1633V18.3674Z" fill="#1E3138"/>
<path d="M64.2857 18.3674H61.2245V21.4286H64.2857V18.3674Z" fill="#1E3138"/>
<path d="M70.4081 18.3674H67.3469V21.4286H70.4081V18.3674Z" fill="#1E3138"/>
<path d="M76.5306 18.3674H73.4694V21.4286H76.5306V18.3674Z" fill="#1E3138"/>
<path d="M82.6531 18.3674H79.5919V21.4286H82.6531V18.3674Z" fill="#1E3138"/>
<path d="M88.7755 18.3674H85.7143V21.4286H88.7755V18.3674Z" fill="#1E3138"/>
<path d="M94.898 18.3674H91.8367V21.4286H94.898V18.3674Z" fill="#1E3138"/>
<path d="M101.02 18.3674H97.9592V21.4286H101.02V18.3674Z" fill="#1E3138"/>
<path d="M107.143 18.3674H104.082V21.4286H107.143V18.3674Z" fill="#1E3138"/>
<path d="M113.265 18.3674H110.204V21.4286H113.265V18.3674Z" fill="#1E3138"/>
<path d="M119.388 18.3674H116.327V21.4286H119.388V18.3674Z" fill="#1E3138"/>
<path d="M125.51 18.3674H122.449V21.4286H125.51V18.3674Z" fill="#1E3138"/>
<path d="M33.6735 21.4286H30.6122V24.4898H33.6735V21.4286Z" fill="#1E3138"/>
<path d="M36.7347 21.4286H33.6735V24.4898H36.7347V21.4286Z" fill="#1E3138"/>
<path d="M39.7959 21.4286H36.7347V24.4898H39.7959V21.4286Z" fill="#1E3138"/>
<path d="M45.9183 21.4286H42.8571V24.4898H45.9183V21.4286Z" fill="#1E3138"/>
<path d="M55.1021 21.4286H52.0408V24.4898H55.1021V21.4286Z" fill="#1E3138"/>
<path d="M67.3469 21.4286H64.2857V24.4898H67.3469V21.4286Z" fill="#1E3138"/>
<path d="M70.4081 21.4286H67.3469V24.4898H70.4081V21.4286Z" fill="#1E3138"/>
<path d="M82.6531 21.4286H79.5919V24.4898H82.6531V21.4286Z" fill="#1E3138"/>
<path d="M85.7143 21.4286H82.6531V24.4898H85.7143V21.4286Z" fill="#1E3138"/>
<path d="M88.7755 21.4286H85.7143V24.4898H88.7755V21.4286Z" fill="#1E3138"/>
<path d="M91.8367 21.4286H88.7755V24.4898H91.8367V21.4286Z" fill="#1E3138"/>
<path d="M97.9592 21.4286H94.8979V24.4898H97.9592V21.4286Z" fill="#1E3138"/>
<path d="M101.02 21.4286H97.9592V24.4898H101.02V21.4286Z" fill="#1E3138"/>
<path d="M104.082 21.4286H101.02V24.4898H104.082V21.4286Z" fill="#1E3138"/>
<path d="M107.143 21.4286H104.082V24.4898H107.143V21.4286Z" fill="#1E3138"/>
<path d="M122.449 21.4286H119.388V24.4898H122.449V21.4286Z" fill="#1E3138"/>
<path d="M125.51 21.4286H122.449V24.4898H125.51V21.4286Z" fill="#1E3138"/>
<path d="M12.2449 24.4898H9.18365V27.551H12.2449V24.4898Z" fill="#1E3138"/>
<path d="M21.4286 24.4898H18.3674V27.551H21.4286V24.4898Z" fill="#1E3138"/>
<path d="M30.6122 24.4898H27.551V27.551H30.6122V24.4898Z" fill="#1E3138"/>
<path d="M33.6735 24.4898H30.6122V27.551H33.6735V24.4898Z" fill="#1E3138"/>
<path d="M36.7347 24.4898H33.6735V27.551H36.7347V24.4898Z" fill="#1E3138"/>
<path d="M39.7959 24.4898H36.7347V27.551H39.7959V24.4898Z" fill="#1E3138"/>
<path d="M45.9183 24.4898H42.8571V27.551H45.9183V24.4898Z" fill="#1E3138"/>
<path d="M55.1021 24.4898H52.0408V27.551H55.1021V24.4898Z" fill="#1E3138"/>
<path d="M61.2245 24.4898H58.1633V27.551H61.2245V24.4898Z" fill="#1E3138"/>
<path d="M64.2857 24.4898H61.2245V27.551H64.2857V24.4898Z" fill="#1E3138"/>
<path d="M70.4081 24.4898H67.3469V27.551H70.4081V24.4898Z" fill="#1E3138"/>
<path d="M73.4694 24.4898H70.4081V27.551H73.4694V24.4898Z" fill="#1E3138"/>
<path d="M76.5306 24.4898H73.4694V27.551H76.5306V24.4898Z" fill="#1E3138"/>
<path d="M79.5919 24.4898H76.5306V27.551H79.5919V24.4898Z" fill="#1E3138"/>
<path d="M82.6531 24.4898H79.5919V27.551H82.6531V24.4898Z" fill="#1E3138"/>
<path d="M91.8367 24.4898H88.7755V27.551H91.8367V24.4898Z" fill="#1E3138"/>
<path d="M107.143 24.4898H104.082V27.551H107.143V24.4898Z" fill="#1E3138"/>
<path d="M110.204 24.4898H107.143V27.551H110.204V24.4898Z" fill="#1E3138"/>
<path d="M113.265 24.4898H110.204V27.551H113.265V24.4898Z" fill="#1E3138"/>
<path d="M119.388 24.4898H116.327V27.551H119.388V24.4898Z" fill="#1E3138"/>
<path d="M134.694 24.4898H131.633V27.551H134.694V24.4898Z" fill="#1E3138"/>
<path d="M137.755 24.4898H134.694V27.551H137.755V24.4898Z" fill="#1E3138"/>
<path d="M140.816 24.4898H137.755V27.551H140.816V24.4898Z" fill="#1E3138"/>
<path d="M146.939 24.4898H143.878V27.551H146.939V24.4898Z" fill="#1E3138"/>
<path d="M150 24.4898H146.939V27.551H150V24.4898Z" fill="#1E3138"/>
<path d="M6.12244 27.551H3.06122V30.6122H6.12244V27.551Z" fill="#1E3138"/>
<path d="M15.3061 27.551H12.2449V30.6122H15.3061V27.551Z" fill="#1E3138"/>
<path d="M18.3674 27.551H15.3062V30.6122H18.3674V27.551Z" fill="#1E3138"/>
<path d="M33.6735 27.551H30.6122V30.6122H33.6735V27.551Z" fill="#1E3138"/>
<path d="M36.7347 27.551H33.6735V30.6122H36.7347V27.551Z" fill="#1E3138"/>
<path d="M39.7959 27.551H36.7347V30.6122H39.7959V27.551Z" fill="#1E3138"/>
<path d="M52.0408 27.551H48.9796V30.6122H52.0408V27.551Z" fill="#1E3138"/>
<path d="M55.1021 27.551H52.0408V30.6122H55.1021V27.551Z" fill="#1E3138"/>
<path d="M64.2857 27.551H61.2245V30.6122H64.2857V27.551Z" fill="#1E3138"/>
<path d="M73.4694 27.551H70.4081V30.6122H73.4694V27.551Z" fill="#1E3138"/>
<path d="M76.5306 27.551H73.4694V30.6122H76.5306V27.551Z" fill="#1E3138"/>
<path d="M85.7143 27.551H82.6531V30.6122H85.7143V27.551Z" fill="#1E3138"/>
<path d="M91.8367 27.551H88.7755V30.6122H91.8367V27.551Z" fill="#1E3138"/>
<path d="M94.898 27.551H91.8367V30.6122H94.898V27.551Z" fill="#1E3138"/>
<path d="M101.02 27.551H97.9592V30.6122H101.02V27.551Z" fill="#1E3138"/>
<path d="M128.571 27.551H125.51V30.6122H128.571V27.551Z" fill="#1E3138"/>
<path d="M134.694 27.551H131.633V30.6122H134.694V27.551Z" fill="#1E3138"/>
<path d="M140.816 27.551H137.755V30.6122H140.816V27.551Z" fill="#1E3138"/>
<path d="M150 27.551H146.939V30.6122H150V27.551Z" fill="#1E3138"/>
<path d="M9.18366 30.6122H6.12244V33.6735H9.18366V30.6122Z" fill="#1E3138"/>
<path d="M12.2449 30.6122H9.18365V33.6735H12.2449V30.6122Z" fill="#1E3138"/>
<path d="M15.3061 30.6122H12.2449V33.6735H15.3061V30.6122Z" fill="#1E3138"/>
<path d="M18.3674 30.6122H15.3062V33.6735H18.3674V30.6122Z" fill="#1E3138"/>
<path d="M21.4286 30.6122H18.3674V33.6735H21.4286V30.6122Z" fill="#1E3138"/>
<path d="M33.6735 30.6122H30.6122V33.6735H33.6735V30.6122Z" fill="#1E3138"/>
<path d="M36.7347 30.6122H33.6735V33.6735H36.7347V30.6122Z" fill="#1E3138"/>
<path d="M45.9183 30.6122H42.8571V33.6735H45.9183V30.6122Z" fill="#1E3138"/>
<path d="M55.1021 30.6122H52.0408V33.6735H55.1021V30.6122Z" fill="#1E3138"/>
<path d="M70.4081 30.6122H67.3469V33.6735H70.4081V30.6122Z" fill="#1E3138"/>
<path d="M76.5306 30.6122H73.4694V33.6735H76.5306V30.6122Z" fill="#1E3138"/>
<path d="M82.6531 30.6122H79.5919V33.6735H82.6531V30.6122Z" fill="#1E3138"/>
<path d="M94.898 30.6122H91.8367V33.6735H94.898V30.6122Z" fill="#1E3138"/>
<path d="M101.02 30.6122H97.9592V33.6735H101.02V30.6122Z" fill="#1E3138"/>
<path d="M107.143 30.6122H104.082V33.6735H107.143V30.6122Z" fill="#1E3138"/>
<path d="M113.265 30.6122H110.204V33.6735H113.265V30.6122Z" fill="#1E3138"/>
<path d="M116.327 30.6122H113.265V33.6735H116.327V30.6122Z" fill="#1E3138"/>
<path d="M119.388 30.6122H116.327V33.6735H119.388V30.6122Z" fill="#1E3138"/>
<path d="M125.51 30.6122H122.449V33.6735H125.51V30.6122Z" fill="#1E3138"/>
<path d="M128.571 30.6122H125.51V33.6735H128.571V30.6122Z" fill="#1E3138"/>
<path d="M134.694 30.6122H131.633V33.6735H134.694V30.6122Z" fill="#1E3138"/>
<path d="M140.816 30.6122H137.755V33.6735H140.816V30.6122Z" fill="#1E3138"/>
<path d="M146.939 30.6122H143.878V33.6735H146.939V30.6122Z" fill="#1E3138"/>
<path d="M150 30.6122H146.939V33.6735H150V30.6122Z" fill="#1E3138"/>
<path d="M3.06122 33.6735H0V36.7347H3.06122V33.6735Z" fill="#1E3138"/>
<path d="M12.2449 33.6735H9.18365V36.7347H12.2449V33.6735Z" fill="#1E3138"/>
<path d="M24.4898 33.6735H21.4286V36.7347H24.4898V33.6735Z" fill="#1E3138"/>
<path d="M27.551 33.6735H24.4898V36.7347H27.551V33.6735Z" fill="#1E3138"/>
<path d="M33.6735 33.6735H30.6122V36.7347H33.6735V33.6735Z" fill="#1E3138"/>
<path d="M45.9183 33.6735H42.8571V36.7347H45.9183V33.6735Z" fill="#1E3138"/>
<path d="M48.9796 33.6735H45.9183V36.7347H48.9796V33.6735Z" fill="#1E3138"/>
<path d="M55.1021 33.6735H52.0408V36.7347H55.1021V33.6735Z" fill="#1E3138"/>
<path d="M61.2245 33.6735H58.1633V36.7347H61.2245V33.6735Z" fill="#1E3138"/>
<path d="M64.2857 33.6735H61.2245V36.7347H64.2857V33.6735Z" fill="#1E3138"/>
<path d="M67.3469 33.6735H64.2857V36.7347H67.3469V33.6735Z" fill="#1E3138"/>
<path d="M70.0612 34H67V37.0612H70.0612V34Z" fill="#1E3138"/>
<path d="M76.5306 33.6735H73.4694V36.7347H76.5306V33.6735Z" fill="#1E3138"/>
<path d="M82.6531 33.6735H79.5919V36.7347H82.6531V33.6735Z" fill="#1E3138"/>
<path d="M85.7143 33.6735H82.6531V36.7347H85.7143V33.6735Z" fill="#1E3138"/>
<path d="M97.9592 33.6735H94.8979V36.7347H97.9592V33.6735Z" fill="#1E3138"/>
<path d="M110.204 33.6735H107.143V36.7347H110.204V33.6735Z" fill="#1E3138"/>
<path d="M113.265 33.6735H110.204V36.7347H113.265V33.6735Z" fill="#1E3138"/>
<path d="M119.388 33.6735H116.327V36.7347H119.388V33.6735Z" fill="#1E3138"/>
<path d="M125.51 33.6735H122.449V36.7347H125.51V33.6735Z" fill="#1E3138"/>
<path d="M134.694 33.6735H131.633V36.7347H134.694V33.6735Z" fill="#1E3138"/>
<path d="M140.816 33.6735H137.755V36.7347H140.816V33.6735Z" fill="#1E3138"/>
<path d="M146.939 33.6735H143.878V36.7347H146.939V33.6735Z" fill="#1E3138"/>
<path d="M150 33.6735H146.939V36.7347H150V33.6735Z" fill="#1E3138"/>
<path d="M3.06122 36.7347H0V39.7959H3.06122V36.7347Z" fill="#1E3138"/>
<path d="M18.3674 36.7347H15.3062V39.7959H18.3674V36.7347Z" fill="#1E3138"/>
<path d="M21.4286 36.7347H18.3674V39.7959H21.4286V36.7347Z" fill="#1E3138"/>
<path d="M33.6735 36.7347H30.6122V39.7959H33.6735V36.7347Z" fill="#1E3138"/>
<path d="M42.8571 36.7347H39.7959V39.7959H42.8571V36.7347Z" fill="#1E3138"/>
<path d="M48.9796 36.7347H45.9183V39.7959H48.9796V36.7347Z" fill="#1E3138"/>
<path d="M58.1633 36.7347H55.1021V39.7959H58.1633V36.7347Z" fill="#1E3138"/>
<path d="M73.4694 36.7347H70.4081V39.7959H73.4694V36.7347Z" fill="#1E3138"/>
<path d="M79.5919 36.7347H76.5306V39.7959H79.5919V36.7347Z" fill="#1E3138"/>
<path d="M82.6531 36.7347H79.5919V39.7959H82.6531V36.7347Z" fill="#1E3138"/>
<path d="M91.8367 36.7347H88.7755V39.7959H91.8367V36.7347Z" fill="#1E3138"/>
<path d="M94.898 36.7347H91.8367V39.7959H94.898V36.7347Z" fill="#1E3138"/>
<path d="M107.143 36.7347H104.082V39.7959H107.143V36.7347Z" fill="#1E3138"/>
<path d="M110.204 36.7347H107.143V39.7959H110.204V36.7347Z" fill="#1E3138"/>
<path d="M113.265 36.7347H110.204V39.7959H113.265V36.7347Z" fill="#1E3138"/>
<path d="M119.388 36.7347H116.327V39.7959H119.388V36.7347Z" fill="#1E3138"/>
<path d="M131.633 36.7347H128.571V39.7959H131.633V36.7347Z" fill="#1E3138"/>
<path d="M137.755 36.7347H134.694V39.7959H137.755V36.7347Z" fill="#1E3138"/>
<path d="M140.816 36.7347H137.755V39.7959H140.816V36.7347Z" fill="#1E3138"/>
<path d="M150 36.7347H146.939V39.7959H150V36.7347Z" fill="#1E3138"/>
<path d="M3.06122 39.7959H0V42.8571H3.06122V39.7959Z" fill="#1E3138"/>
<path d="M6.12244 39.7959H3.06122V42.8571H6.12244V39.7959Z" fill="#1E3138"/>
<path d="M18.3674 39.7959H15.3062V42.8571H18.3674V39.7959Z" fill="#1E3138"/>
<path d="M27.551 39.7959H24.4898V42.8571H27.551V39.7959Z" fill="#1E3138"/>
<path d="M30.6122 39.7959H27.551V42.8571H30.6122V39.7959Z" fill="#1E3138"/>
<path d="M48.9796 39.7959H45.9183V42.8571H48.9796V39.7959Z" fill="#1E3138"/>
<path d="M58.1633 39.7959H55.1021V42.8571H58.1633V39.7959Z" fill="#1E3138"/>
<path d="M61.2245 39.7959H58.1633V42.8571H61.2245V39.7959Z" fill="#1E3138"/>
<path d="M64.2857 39.7959H61.2245V42.8571H64.2857V39.7959Z" fill="#1E3138"/>
<path d="M70.4081 39.7959H67.3469V42.8571H70.4081V39.7959Z" fill="#1E3138"/>
<path d="M79.5919 39.7959H76.5306V42.8571H79.5919V39.7959Z" fill="#1E3138"/>
<path d="M88.7755 39.7959H85.7143V42.8571H88.7755V39.7959Z" fill="#1E3138"/>
<path d="M94.898 39.7959H91.8367V42.8571H94.898V39.7959Z" fill="#1E3138"/>
<path d="M97.9592 39.7959H94.8979V42.8571H97.9592V39.7959Z" fill="#1E3138"/>
<path d="M101.02 39.7959H97.9592V42.8571H101.02V39.7959Z" fill="#1E3138"/>
<path d="M107.143 39.7959H104.082V42.8571H107.143V39.7959Z" fill="#1E3138"/>
<path d="M113.265 39.7959H110.204V42.8571H113.265V39.7959Z" fill="#1E3138"/>
<path d="M116.327 39.7959H113.265V42.8571H116.327V39.7959Z" fill="#1E3138"/>
<path d="M122.449 39.7959H119.388V42.8571H122.449V39.7959Z" fill="#1E3138"/>
<path d="M125.51 39.7959H122.449V42.8571H125.51V39.7959Z" fill="#1E3138"/>
<path d="M146.939 39.7959H143.878V42.8571H146.939V39.7959Z" fill="#1E3138"/>
<path d="M150 39.7959H146.939V42.8571H150V39.7959Z" fill="#1E3138"/>
<path d="M6.12244 42.8571H3.06122V45.9183H6.12244V42.8571Z" fill="#1E3138"/>
<path d="M9.18366 42.8571H6.12244V45.9183H9.18366V42.8571Z" fill="#1E3138"/>
<path d="M21.4286 42.8571H18.3674V45.9183H21.4286V42.8571Z" fill="#1E3138"/>
<path d="M27.551 42.8571H24.4898V45.9183H27.551V42.8571Z" fill="#1E3138"/>
<path d="M30.6122 42.8571H27.551V45.9183H30.6122V42.8571Z" fill="#1E3138"/>
<path d="M33.6735 42.8571H30.6122V45.9183H33.6735V42.8571Z" fill="#1E3138"/>
<path d="M36.7347 42.8571H33.6735V45.9183H36.7347V42.8571Z" fill="#1E3138"/>
<path d="M42.8571 42.8571H39.7959V45.9183H42.8571V42.8571Z" fill="#1E3138"/>
<path d="M52.0408 42.8571H48.9796V45.9183H52.0408V42.8571Z" fill="#1E3138"/>
<path d="M55.1021 42.8571H52.0408V45.9183H55.1021V42.8571Z" fill="#1E3138"/>
<path d="M61.2245 42.8571H58.1633V45.9183H61.2245V42.8571Z" fill="#1E3138"/>
<path d="M64.2857 42.8571H61.2245V45.9183H64.2857V42.8571Z" fill="#1E3138"/>
<path d="M70.4081 42.8571H67.3469V45.9183H70.4081V42.8571Z" fill="#1E3138"/>
<path d="M73.4694 42.8571H70.4081V45.9183H73.4694V42.8571Z" fill="#1E3138"/>
<path d="M79.5919 42.8571H76.5306V45.9183H79.5919V42.8571Z" fill="#1E3138"/>
<path d="M85.7143 42.8571H82.6531V45.9183H85.7143V42.8571Z" fill="#1E3138"/>
<path d="M88.7755 42.8571H85.7143V45.9183H88.7755V42.8571Z" fill="#1E3138"/>
<path d="M91.8367 42.8571H88.7755V45.9183H91.8367V42.8571Z" fill="#1E3138"/>
<path d="M94.898 42.8571H91.8367V45.9183H94.898V42.8571Z" fill="#1E3138"/>
<path d="M97.9592 42.8571H94.8979V45.9183H97.9592V42.8571Z" fill="#1E3138"/>
<path d="M110.204 42.8571H107.143V45.9183H110.204V42.8571Z" fill="#1E3138"/>
<path d="M119.388 42.8571H116.327V45.9183H119.388V42.8571Z" fill="#1E3138"/>
<path d="M134.694 42.8571H131.633V45.9183H134.694V42.8571Z" fill="#1E3138"/>
<path d="M137.755 42.8571H134.694V45.9183H137.755V42.8571Z" fill="#1E3138"/>
<path d="M150 42.8571H146.939V45.9183H150V42.8571Z" fill="#1E3138"/>
<path d="M3.06122 45.9183H0V48.9796H3.06122V45.9183Z" fill="#1E3138"/>
<path d="M6.12244 45.9183H3.06122V48.9796H6.12244V45.9183Z" fill="#1E3138"/>
<path d="M15.3061 45.9183H12.2449V48.9796H15.3061V45.9183Z" fill="#1E3138"/>
<path d="M24.4898 45.9183H21.4286V48.9796H24.4898V45.9183Z" fill="#1E3138"/>
<path d="M30.6122 45.9183H27.551V48.9796H30.6122V45.9183Z" fill="#1E3138"/>
<path d="M33.6735 45.9183H30.6122V48.9796H33.6735V45.9183Z" fill="#1E3138"/>
<path d="M39.7959 45.9183H36.7347V48.9796H39.7959V45.9183Z" fill="#1E3138"/>
<path d="M42.8571 45.9183H39.7959V48.9796H42.8571V45.9183Z" fill="#1E3138"/>
<path d="M45.9183 45.9183H42.8571V48.9796H45.9183V45.9183Z" fill="#1E3138"/>
<path d="M48.9796 45.9183H45.9183V48.9796H48.9796V45.9183Z" fill="#1E3138"/>
<path d="M52.0408 45.9183H48.9796V48.9796H52.0408V45.9183Z" fill="#1E3138"/>
<path d="M58.1633 45.9183H55.1021V48.9796H58.1633V45.9183Z" fill="#1E3138"/>
<path d="M64.2857 45.9183H61.2245V48.9796H64.2857V45.9183Z" fill="#1E3138"/>
<path d="M67.3469 45.9183H64.2857V48.9796H67.3469V45.9183Z" fill="#1E3138"/>
<path d="M73.4694 45.9183H70.4081V48.9796H73.4694V45.9183Z" fill="#1E3138"/>
<path d="M76.5306 45.9183H73.4694V48.9796H76.5306V45.9183Z" fill="#1E3138"/>
<path d="M79.5919 45.9183H76.5306V48.9796H79.5919V45.9183Z" fill="#1E3138"/>
<path d="M88.7755 45.9183H85.7143V48.9796H88.7755V45.9183Z" fill="#1E3138"/>
<path d="M101.02 45.9183H97.9592V48.9796H101.02V45.9183Z" fill="#1E3138"/>
<path d="M107.143 45.9183H104.082V48.9796H107.143V45.9183Z" fill="#1E3138"/>
<path d="M119.388 45.9183H116.327V48.9796H119.388V45.9183Z" fill="#1E3138"/>
<path d="M122.449 45.9183H119.388V48.9796H122.449V45.9183Z" fill="#1E3138"/>
<path d="M125.51 45.9183H122.449V48.9796H125.51V45.9183Z" fill="#1E3138"/>
<path d="M128.571 45.9183H125.51V48.9796H128.571V45.9183Z" fill="#1E3138"/>
<path d="M134.694 45.9183H131.633V48.9796H134.694V45.9183Z" fill="#1E3138"/>
<path d="M137.755 45.9183H134.694V48.9796H137.755V45.9183Z" fill="#1E3138"/>
<path d="M143.878 45.9183H140.816V48.9796H143.878V45.9183Z" fill="#1E3138"/>
<path d="M146.939 45.9183H143.878V48.9796H146.939V45.9183Z" fill="#1E3138"/>
<path d="M150 45.9183H146.939V48.9796H150V45.9183Z" fill="#1E3138"/>
<path d="M12.2449 48.9796H9.18365V52.0408H12.2449V48.9796Z" fill="#1E3138"/>
<path d="M15.3061 48.9796H12.2449V52.0408H15.3061V48.9796Z" fill="#1E3138"/>
<path d="M21.4286 48.9796H18.3674V52.0408H21.4286V48.9796Z" fill="#1E3138"/>
<path d="M30.6122 48.9796H27.551V52.0408H30.6122V48.9796Z" fill="#1E3138"/>
<path d="M33.6735 48.9796H30.6122V52.0408H33.6735V48.9796Z" fill="#1E3138"/>
<path d="M39.7959 48.9796H36.7347V52.0408H39.7959V48.9796Z" fill="#1E3138"/>
<path d="M42.8571 48.9796H39.7959V52.0408H42.8571V48.9796Z" fill="#1E3138"/>
<path d="M45.9183 48.9796H42.8571V52.0408H45.9183V48.9796Z" fill="#1E3138"/>
<path d="M55.1021 48.9796H52.0408V52.0408H55.1021V48.9796Z" fill="#1E3138"/>
<path d="M61.2245 48.9796H58.1633V52.0408H61.2245V48.9796Z" fill="#1E3138"/>
<path d="M70.4081 48.9796H67.3469V52.0408H70.4081V48.9796Z" fill="#1E3138"/>
<path d="M73.4694 48.9796H70.4081V52.0408H73.4694V48.9796Z" fill="#1E3138"/>
<path d="M79.5919 48.9796H76.5306V52.0408H79.5919V48.9796Z" fill="#1E3138"/>
<path d="M82.6531 48.9796H79.5919V52.0408H82.6531V48.9796Z" fill="#1E3138"/>
<path d="M85.7143 48.9796H82.6531V52.0408H85.7143V48.9796Z" fill="#1E3138"/>
<path d="M94.898 48.9796H91.8367V52.0408H94.898V48.9796Z" fill="#1E3138"/>
<path d="M97.9592 48.9796H94.8979V52.0408H97.9592V48.9796Z" fill="#1E3138"/>
<path d="M107.143 48.9796H104.082V52.0408H107.143V48.9796Z" fill="#1E3138"/>
<path d="M110.204 48.9796H107.143V52.0408H110.204V48.9796Z" fill="#1E3138"/>
<path d="M113.265 48.9796H110.204V52.0408H113.265V48.9796Z" fill="#1E3138"/>
<path d="M116.327 48.9796H113.265V52.0408H116.327V48.9796Z" fill="#1E3138"/>
<path d="M122.449 48.9796H119.388V52.0408H122.449V48.9796Z" fill="#1E3138"/>
<path d="M128.571 48.9796H125.51V52.0408H128.571V48.9796Z" fill="#1E3138"/>
<path d="M131.633 48.9796H128.571V52.0408H131.633V48.9796Z" fill="#1E3138"/>
<path d="M137.755 48.9796H134.694V52.0408H137.755V48.9796Z" fill="#1E3138"/>
<path d="M146.939 48.9796H143.878V52.0408H146.939V48.9796Z" fill="#1E3138"/>
<path d="M9.18366 52.0408H6.12244V55.1021H9.18366V52.0408Z" fill="#1E3138"/>
<path d="M12.2449 52.0408H9.18365V55.1021H12.2449V52.0408Z" fill="#1E3138"/>
<path d="M18.3674 52.0408H15.3062V55.1021H18.3674V52.0408Z" fill="#1E3138"/>
<path d="M24.4898 52.0408H21.4286V55.1021H24.4898V52.0408Z" fill="#1E3138"/>
<path d="M36.7347 52.0408H33.6735V55.1021H36.7347V52.0408Z" fill="#1E3138"/>
<path d="M45.9183 52.0408H42.8571V55.1021H45.9183V52.0408Z" fill="#1E3138"/>
<path d="M58.1633 52.0408H55.1021V55.1021H58.1633V52.0408Z" fill="#1E3138"/>
<path d="M67.3469 52.0408H64.2857V55.1021H67.3469V52.0408Z" fill="#1E3138"/>
<path d="M73.4694 52.0408H70.4081V55.1021H73.4694V52.0408Z" fill="#1E3138"/>
<path d="M76.5306 52.0408H73.4694V55.1021H76.5306V52.0408Z" fill="#1E3138"/>
<path d="M82.6531 52.0408H79.5919V55.1021H82.6531V52.0408Z" fill="#1E3138"/>
<path d="M88.7755 52.0408H85.7143V55.1021H88.7755V52.0408Z" fill="#1E3138"/>
<path d="M94.898 52.0408H91.8367V55.1021H94.898V52.0408Z" fill="#1E3138"/>
<path d="M97.9592 52.0408H94.8979V55.1021H97.9592V52.0408Z" fill="#1E3138"/>
<path d="M101.02 52.0408H97.9592V55.1021H101.02V52.0408Z" fill="#1E3138"/>
<path d="M107.143 52.0408H104.082V55.1021H107.143V52.0408Z" fill="#1E3138"/>
<path d="M110.204 52.0408H107.143V55.1021H110.204V52.0408Z" fill="#1E3138"/>
<path d="M113.265 52.0408H110.204V55.1021H113.265V52.0408Z" fill="#1E3138"/>
<path d="M122.449 52.0408H119.388V55.1021H122.449V52.0408Z" fill="#1E3138"/>
<path d="M137.755 52.0408H134.694V55.1021H137.755V52.0408Z" fill="#1E3138"/>
<path d="M140.816 52.0408H137.755V55.1021H140.816V52.0408Z" fill="#1E3138"/>
<path d="M143.878 52.0408H140.816V55.1021H143.878V52.0408Z" fill="#1E3138"/>
<path d="M146.939 52.0408H143.878V55.1021H146.939V52.0408Z" fill="#1E3138"/>
<path d="M150 52.0408H146.939V55.1021H150V52.0408Z" fill="#1E3138"/>
<path d="M3.06122 55.1021H0V58.1633H3.06122V55.1021Z" fill="#1E3138"/>
<path d="M9.18366 55.1021H6.12244V58.1633H9.18366V55.1021Z" fill="#1E3138"/>
<path d="M12.2449 55.1021H9.18365V58.1633H12.2449V55.1021Z" fill="#1E3138"/>
<path d="M15.3061 55.1021H12.2449V58.1633H15.3061V55.1021Z" fill="#1E3138"/>
<path d="M18.3674 55.1021H15.3062V58.1633H18.3674V55.1021Z" fill="#1E3138"/>
<path d="M21.4286 55.1021H18.3674V58.1633H21.4286V55.1021Z" fill="#1E3138"/>
<path d="M24.4898 55.1021H21.4286V58.1633H24.4898V55.1021Z" fill="#1E3138"/>
<path d="M27.551 55.1021H24.4898V58.1633H27.551V55.1021Z" fill="#1E3138"/>
<path d="M36.7347 55.1021H33.6735V58.1633H36.7347V55.1021Z" fill="#1E3138"/>
<path d="M39.7959 55.1021H36.7347V58.1633H39.7959V55.1021Z" fill="#1E3138"/>
<path d="M42.8571 55.1021H39.7959V58.1633H42.8571V55.1021Z" fill="#1E3138"/>
<path d="M52.0408 55.1021H48.9796V58.1633H52.0408V55.1021Z" fill="#1E3138"/>
<path d="M55.1021 55.1021H52.0408V58.1633H55.1021V55.1021Z" fill="#1E3138"/>
<path d="M58.1633 55.1021H55.1021V58.1633H58.1633V55.1021Z" fill="#1E3138"/>
<path d="M64.2857 55.1021H61.2245V58.1633H64.2857V55.1021Z" fill="#1E3138"/>
<path d="M70.4081 55.1021H67.3469V58.1633H70.4081V55.1021Z" fill="#1E3138"/>
<path d="M73.4694 55.1021H70.4081V58.1633H73.4694V55.1021Z" fill="#1E3138"/>
<path d="M76.5306 55.1021H73.4694V58.1633H76.5306V55.1021Z" fill="#1E3138"/>
<path d="M79.5919 55.1021H76.5306V58.1633H79.5919V55.1021Z" fill="#1E3138"/>
<path d="M82.6531 55.1021H79.5919V58.1633H82.6531V55.1021Z" fill="#1E3138"/>
<path d="M91.8367 55.1021H88.7755V58.1633H91.8367V55.1021Z" fill="#1E3138"/>
<path d="M94.898 55.1021H91.8367V58.1633H94.898V55.1021Z" fill="#1E3138"/>
<path d="M97.9592 55.1021H94.8979V58.1633H97.9592V55.1021Z" fill="#1E3138"/>
<path d="M101.02 55.1021H97.9592V58.1633H101.02V55.1021Z" fill="#1E3138"/>
<path d="M107.143 55.1021H104.082V58.1633H107.143V55.1021Z" fill="#1E3138"/>
<path d="M110.204 55.1021H107.143V58.1633H110.204V55.1021Z" fill="#1E3138"/>
<path d="M113.265 55.1021H110.204V58.1633H113.265V55.1021Z" fill="#1E3138"/>
<path d="M119.388 55.1021H116.327V58.1633H119.388V55.1021Z" fill="#1E3138"/>
<path d="M122.449 55.1021H119.388V58.1633H122.449V55.1021Z" fill="#1E3138"/>
<path d="M125.51 55.1021H122.449V58.1633H125.51V55.1021Z" fill="#1E3138"/>
<path d="M128.571 55.1021H125.51V58.1633H128.571V55.1021Z" fill="#1E3138"/>
<path d="M131.633 55.1021H128.571V58.1633H131.633V55.1021Z" fill="#1E3138"/>
<path d="M134.694 55.1021H131.633V58.1633H134.694V55.1021Z" fill="#1E3138"/>
<path d="M137.755 55.1021H134.694V58.1633H137.755V55.1021Z" fill="#1E3138"/>
<path d="M143.878 55.1021H140.816V58.1633H143.878V55.1021Z" fill="#1E3138"/>
<path d="M146.939 55.1021H143.878V58.1633H146.939V55.1021Z" fill="#1E3138"/>
<path d="M150 55.1021H146.939V58.1633H150V55.1021Z" fill="#1E3138"/>
<path d="M9.18366 58.1633H6.12244V61.2245H9.18366V58.1633Z" fill="#1E3138"/>
<path d="M12.2449 58.1633H9.18365V61.2245H12.2449V58.1633Z" fill="#1E3138"/>
<path d="M15.3061 58.1633H12.2449V61.2245H15.3061V58.1633Z" fill="#1E3138"/>
<path d="M18.3674 58.1633H15.3062V61.2245H18.3674V58.1633Z" fill="#1E3138"/>
<path d="M36.7347 58.1633H33.6735V61.2245H36.7347V58.1633Z" fill="#1E3138"/>
<path d="M39.7959 58.1633H36.7347V61.2245H39.7959V58.1633Z" fill="#1E3138"/>
<path d="M42.8571 58.1633H39.7959V61.2245H42.8571V58.1633Z" fill="#1E3138"/>
<path d="M48.9796 58.1633H45.9183V61.2245H48.9796V58.1633Z" fill="#1E3138"/>
<path d="M52.0408 58.1633H48.9796V61.2245H52.0408V58.1633Z" fill="#1E3138"/>
<path d="M67.3469 58.1633H64.2857V61.2245H67.3469V58.1633Z" fill="#1E3138"/>
<path d="M76.5306 58.1633H73.4694V61.2245H76.5306V58.1633Z" fill="#1E3138"/>
<path d="M79.5919 58.1633H76.5306V61.2245H79.5919V58.1633Z" fill="#1E3138"/>
<path d="M82.6531 58.1633H79.5919V61.2245H82.6531V58.1633Z" fill="#1E3138"/>
<path d="M88.7755 58.1633H85.7143V61.2245H88.7755V58.1633Z" fill="#1E3138"/>
<path d="M91.8367 58.1633H88.7755V61.2245H91.8367V58.1633Z" fill="#1E3138"/>
<path d="M94.898 58.1633H91.8367V61.2245H94.898V58.1633Z" fill="#1E3138"/>
<path d="M107.143 58.1633H104.082V61.2245H107.143V58.1633Z" fill="#1E3138"/>
<path d="M110.204 58.1633H107.143V61.2245H110.204V58.1633Z" fill="#1E3138"/>
<path d="M113.265 58.1633H110.204V61.2245H113.265V58.1633Z" fill="#1E3138"/>
<path d="M116.327 58.1633H113.265V61.2245H116.327V58.1633Z" fill="#1E3138"/>
<path d="M119.388 58.1633H116.327V61.2245H119.388V58.1633Z" fill="#1E3138"/>
<path d="M122.449 58.1633H119.388V61.2245H122.449V58.1633Z" fill="#1E3138"/>
<path d="M125.51 58.1633H122.449V61.2245H125.51V58.1633Z" fill="#1E3138"/>
<path d="M128.571 58.1633H125.51V61.2245H128.571V58.1633Z" fill="#1E3138"/>
<path d="M134.694 58.1633H131.633V61.2245H134.694V58.1633Z" fill="#1E3138"/>
<path d="M137.755 58.1633H134.694V61.2245H137.755V58.1633Z" fill="#1E3138"/>
<path d="M143.878 58.1633H140.816V61.2245H143.878V58.1633Z" fill="#1E3138"/>
<path d="M150 58.1633H146.939V61.2245H150V58.1633Z" fill="#1E3138"/>
<path d="M3.06122 61.2245H0V64.2857H3.06122V61.2245Z" fill="#1E3138"/>
<path d="M9.18366 61.2245H6.12244V64.2857H9.18366V61.2245Z" fill="#1E3138"/>
<path d="M12.2449 61.2245H9.18365V64.2857H12.2449V61.2245Z" fill="#1E3138"/>
<path d="M18.3674 61.2245H15.3062V64.2857H18.3674V61.2245Z" fill="#1E3138"/>
<path d="M21.4286 61.2245H18.3674V64.2857H21.4286V61.2245Z" fill="#1E3138"/>
<path d="M30.6122 61.2245H27.551V64.2857H30.6122V61.2245Z" fill="#1E3138"/>
<path d="M33.6735 61.2245H30.6122V64.2857H33.6735V61.2245Z" fill="#1E3138"/>
<path d="M39.7959 61.2245H36.7347V64.2857H39.7959V61.2245Z" fill="#1E3138"/>
<path d="M45.9183 61.2245H42.8571V64.2857H45.9183V61.2245Z" fill="#1E3138"/>
<path d="M48.9796 61.2245H45.9183V64.2857H48.9796V61.2245Z" fill="#1E3138"/>
<path d="M58.1633 61.2245H55.1021V64.2857H58.1633V61.2245Z" fill="#1E3138"/>
<path d="M61.2245 61.2245H58.1633V64.2857H61.2245V61.2245Z" fill="#1E3138"/>
<path d="M64.2857 61.2245H61.2245V64.2857H64.2857V61.2245Z" fill="#1E3138"/>
<path d="M73.4694 61.2245H70.4081V64.2857H73.4694V61.2245Z" fill="#1E3138"/>
<path d="M101.02 61.2245H97.9592V64.2857H101.02V61.2245Z" fill="#1E3138"/>
<path d="M104.082 61.2245H101.02V64.2857H104.082V61.2245Z" fill="#1E3138"/>
<path d="M113.265 61.2245H110.204V64.2857H113.265V61.2245Z" fill="#1E3138"/>
<path d="M116.327 61.2245H113.265V64.2857H116.327V61.2245Z" fill="#1E3138"/>
<path d="M119.388 61.2245H116.327V64.2857H119.388V61.2245Z" fill="#1E3138"/>
<path d="M128.571 61.2245H125.51V64.2857H128.571V61.2245Z" fill="#1E3138"/>
<path d="M131.633 61.2245H128.571V64.2857H131.633V61.2245Z" fill="#1E3138"/>
<path d="M134.694 61.2245H131.633V64.2857H134.694V61.2245Z" fill="#1E3138"/>
<path d="M140.816 61.2245H137.755V64.2857H140.816V61.2245Z" fill="#1E3138"/>
<path d="M18.3674 64.2857H15.3062V67.3469H18.3674V64.2857Z" fill="#1E3138"/>
<path d="M27.551 64.2857H24.4898V67.3469H27.551V64.2857Z" fill="#1E3138"/>
<path d="M30.6122 64.2857H27.551V67.3469H30.6122V64.2857Z" fill="#1E3138"/>
<path d="M33.6735 64.2857H30.6122V67.3469H33.6735V64.2857Z" fill="#1E3138"/>
<path d="M36.7347 64.2857H33.6735V67.3469H36.7347V64.2857Z" fill="#1E3138"/>
<path d="M39.7959 64.2857H36.7347V67.3469H39.7959V64.2857Z" fill="#1E3138"/>
<path d="M45.9183 64.2857H42.8571V67.3469H45.9183V64.2857Z" fill="#1E3138"/>
<path d="M55.1021 64.2857H52.0408V67.3469H55.1021V64.2857Z" fill="#1E3138"/>
<path d="M58.1633 64.2857H55.1021V67.3469H58.1633V64.2857Z" fill="#1E3138"/>
<path d="M67.3469 64.2857H64.2857V67.3469H67.3469V64.2857Z" fill="#1E3138"/>
<path d="M70.4081 64.2857H67.3469V67.3469H70.4081V64.2857Z" fill="#1E3138"/>
<path d="M76.5306 64.2857H73.4694V67.3469H76.5306V64.2857Z" fill="#1E3138"/>
<path d="M79.5919 64.2857H76.5306V67.3469H79.5919V64.2857Z" fill="#1E3138"/>
<path d="M82.6531 64.2857H79.5919V67.3469H82.6531V64.2857Z" fill="#1E3138"/>
<path d="M88.7755 64.2857H85.7143V67.3469H88.7755V64.2857Z" fill="#1E3138"/>
<path d="M91.8367 64.2857H88.7755V67.3469H91.8367V64.2857Z" fill="#1E3138"/>
<path d="M94.898 64.2857H91.8367V67.3469H94.898V64.2857Z" fill="#1E3138"/>
<path d="M101.02 64.2857H97.9592V67.3469H101.02V64.2857Z" fill="#1E3138"/>
<path d="M104.061 64H101V67.0612H104.061V64Z" fill="#1E3138"/>
<path d="M110.204 64.2857H107.143V67.3469H110.204V64.2857Z" fill="#1E3138"/>
<path d="M113.265 64.2857H110.204V67.3469H113.265V64.2857Z" fill="#1E3138"/>
<path d="M116.327 64.2857H113.265V67.3469H116.327V64.2857Z" fill="#1E3138"/>
<path d="M134.694 64.2857H131.633V67.3469H134.694V64.2857Z" fill="#1E3138"/>
<path d="M146.939 64.2857H143.878V67.3469H146.939V64.2857Z" fill="#1E3138"/>
<path d="M150 64.2857H146.939V67.3469H150V64.2857Z" fill="#1E3138"/>
<path d="M3.06122 67.3469H0V70.4081H3.06122V67.3469Z" fill="#1E3138"/>
<path d="M6.12244 67.3469H3.06122V70.4081H6.12244V67.3469Z" fill="#1E3138"/>
<path d="M9.18366 67.3469H6.12244V70.4081H9.18366V67.3469Z" fill="#1E3138"/>
<path d="M12.2449 67.3469H9.18365V70.4081H12.2449V67.3469Z" fill="#1E3138"/>
<path d="M15.3061 67.3469H12.2449V70.4081H15.3061V67.3469Z" fill="#1E3138"/>
<path d="M18.3674 67.3469H15.3062V70.4081H18.3674V67.3469Z" fill="#1E3138"/>
<path d="M21.4286 67.3469H18.3674V70.4081H21.4286V67.3469Z" fill="#1E3138"/>
<path d="M24.4898 67.3469H21.4286V70.4081H24.4898V67.3469Z" fill="#1E3138"/>
<path d="M27.551 67.3469H24.4898V70.4081H27.551V67.3469Z" fill="#1E3138"/>
<path d="M33.6735 67.3469H30.6122V70.4081H33.6735V67.3469Z" fill="#1E3138"/>
<path d="M42.8571 67.3469H39.7959V70.4081H42.8571V67.3469Z" fill="#1E3138"/>
<path d="M55.1021 67.3469H52.0408V70.4081H55.1021V67.3469Z" fill="#1E3138"/>
<path d="M64.2857 67.3469H61.2245V70.4081H64.2857V67.3469Z" fill="#1E3138"/>
<path d="M67.3469 67.3469H64.2857V70.4081H67.3469V67.3469Z" fill="#1E3138"/>
<path d="M70.4081 67.3469H67.3469V70.4081H70.4081V67.3469Z" fill="#1E3138"/>
<path d="M73.4694 67.3469H70.4081V70.4081H73.4694V67.3469Z" fill="#1E3138"/>
<path d="M76.5306 67.3469H73.4694V70.4081H76.5306V67.3469Z" fill="#1E3138"/>
<path d="M79.5919 67.3469H76.5306V70.4081H79.5919V67.3469Z" fill="#1E3138"/>
<path d="M82.6531 67.3469H79.5919V70.4081H82.6531V67.3469Z" fill="#1E3138"/>
<path d="M85.7143 67.3469H82.6531V70.4081H85.7143V67.3469Z" fill="#1E3138"/>
<path d="M94.898 67.3469H91.8367V70.4081H94.898V67.3469Z" fill="#1E3138"/>
<path d="M107.143 67.3469H104.082V70.4081H107.143V67.3469Z" fill="#1E3138"/>
<path d="M110.204 67.3469H107.143V70.4081H110.204V67.3469Z" fill="#1E3138"/>
<path d="M113.265 67.3469H110.204V70.4081H113.265V67.3469Z" fill="#1E3138"/>
<path d="M116.327 67.3469H113.265V70.4081H116.327V67.3469Z" fill="#1E3138"/>
<path d="M122.449 67.3469H119.388V70.4081H122.449V67.3469Z" fill="#1E3138"/>
<path d="M125.51 67.3469H122.449V70.4081H125.51V67.3469Z" fill="#1E3138"/>
<path d="M128.571 67.3469H125.51V70.4081H128.571V67.3469Z" fill="#1E3138"/>
<path d="M131.633 67.3469H128.571V70.4081H131.633V67.3469Z" fill="#1E3138"/>
<path d="M134.694 67.3469H131.633V70.4081H134.694V67.3469Z" fill="#1E3138"/>
<path d="M137.755 67.3469H134.694V70.4081H137.755V67.3469Z" fill="#1E3138"/>
<path d="M140.816 67.3469H137.755V70.4081H140.816V67.3469Z" fill="#1E3138"/>
<path d="M146.939 67.3469H143.878V70.4081H146.939V67.3469Z" fill="#1E3138"/>
<path d="M150 67.3469H146.939V70.4081H150V67.3469Z" fill="#1E3138"/>
<path d="M9.18366 70.4081H6.12244V73.4694H9.18366V70.4081Z" fill="#1E3138"/>
<path d="M15.3061 70.4081H12.2449V73.4694H15.3061V70.4081Z" fill="#1E3138"/>
<path d="M27.551 70.4081H24.4898V73.4694H27.551V70.4081Z" fill="#1E3138"/>
<path d="M30.6122 70.4081H27.551V73.4694H30.6122V70.4081Z" fill="#1E3138"/>
<path d="M36.7347 70.4081H33.6735V73.4694H36.7347V70.4081Z" fill="#1E3138"/>
<path d="M39.7959 70.4081H36.7347V73.4694H39.7959V70.4081Z" fill="#1E3138"/>
<path d="M55.1021 70.4081H52.0408V73.4694H55.1021V70.4081Z" fill="#1E3138"/>
<path d="M58.1633 70.4081H55.1021V73.4694H58.1633V70.4081Z" fill="#1E3138"/>
<path d="M70.4081 70.4081H67.3469V73.4694H70.4081V70.4081Z" fill="#1E3138"/>
<path d="M82.6531 70.4081H79.5919V73.4694H82.6531V70.4081Z" fill="#1E3138"/>
<path d="M94.898 70.4081H91.8367V73.4694H94.898V70.4081Z" fill="#1E3138"/>
<path d="M101.02 70.4081H97.9592V73.4694H101.02V70.4081Z" fill="#1E3138"/>
<path d="M104.082 70.4081H101.02V73.4694H104.082V70.4081Z" fill="#1E3138"/>
<path d="M113.265 70.4081H110.204V73.4694H113.265V70.4081Z" fill="#1E3138"/>
<path d="M116.327 70.4081H113.265V73.4694H116.327V70.4081Z" fill="#1E3138"/>
<path d="M119.388 70.4081H116.327V73.4694H119.388V70.4081Z" fill="#1E3138"/>
<path d="M122.449 70.4081H119.388V73.4694H122.449V70.4081Z" fill="#1E3138"/>
<path d="M125.51 70.4081H122.449V73.4694H125.51V70.4081Z" fill="#1E3138"/>
<path d="M137.755 70.4081H134.694V73.4694H137.755V70.4081Z" fill="#1E3138"/>
<path d="M3.06122 73.4694H0V76.5306H3.06122V73.4694Z" fill="#1E3138"/>
<path d="M6.12244 73.4694H3.06122V76.5306H6.12244V73.4694Z" fill="#1E3138"/>
<path d="M9.18366 73.4694H6.12244V76.5306H9.18366V73.4694Z" fill="#1E3138"/>
<path d="M12.2449 73.4694H9.18365V76.5306H12.2449V73.4694Z" fill="#1E3138"/>
<path d="M15.3061 73.4694H12.2449V76.5306H15.3061V73.4694Z" fill="#1E3138"/>
<path d="M21.4286 73.4694H18.3674V76.5306H21.4286V73.4694Z" fill="#1E3138"/>
<path d="M27.551 73.4694H24.4898V76.5306H27.551V73.4694Z" fill="#1E3138"/>
<path d="M39.7959 73.4694H36.7347V76.5306H39.7959V73.4694Z" fill="#1E3138"/>
<path d="M42.8571 73.4694H39.7959V76.5306H42.8571V73.4694Z" fill="#1E3138"/>
<path d="M52.0408 73.4694H48.9796V76.5306H52.0408V73.4694Z" fill="#1E3138"/>
<path d="M58.1633 73.4694H55.1021V76.5306H58.1633V73.4694Z" fill="#1E3138"/>
<path d="M61.2245 73.4694H58.1633V76.5306H61.2245V73.4694Z" fill="#1E3138"/>
<path d="M67.3469 73.4694H64.2857V76.5306H67.3469V73.4694Z" fill="#1E3138"/>
<path d="M70.4081 73.4694H67.3469V76.5306H70.4081V73.4694Z" fill="#1E3138"/>
<path d="M76.5306 73.4694H73.4694V76.5306H76.5306V73.4694Z" fill="#1E3138"/>
<path d="M82.6531 73.4694H79.5919V76.5306H82.6531V73.4694Z" fill="#1E3138"/>
<path d="M85.7143 73.4694H82.6531V76.5306H85.7143V73.4694Z" fill="#1E3138"/>
<path d="M88.7755 73.4694H85.7143V76.5306H88.7755V73.4694Z" fill="#1E3138"/>
<path d="M91.8367 73.4694H88.7755V76.5306H91.8367V73.4694Z" fill="#1E3138"/>
<path d="M101.02 73.4694H97.9592V76.5306H101.02V73.4694Z" fill="#1E3138"/>
<path d="M104.082 73.4694H101.02V76.5306H104.082V73.4694Z" fill="#1E3138"/>
<path d="M113.265 73.4694H110.204V76.5306H113.265V73.4694Z" fill="#1E3138"/>
<path d="M116.327 73.4694H113.265V76.5306H116.327V73.4694Z" fill="#1E3138"/>
<path d="M122.449 73.4694H119.388V76.5306H122.449V73.4694Z" fill="#1E3138"/>
<path d="M125.51 73.4694H122.449V76.5306H125.51V73.4694Z" fill="#1E3138"/>
<path d="M131.633 73.4694H128.571V76.5306H131.633V73.4694Z" fill="#1E3138"/>
<path d="M137.755 73.4694H134.694V76.5306H137.755V73.4694Z" fill="#1E3138"/>
<path d="M140.816 73.4694H137.755V76.5306H140.816V73.4694Z" fill="#1E3138"/>
<path d="M146.939 73.4694H143.878V76.5306H146.939V73.4694Z" fill="#1E3138"/>
<path d="M150 73.4694H146.939V76.5306H150V73.4694Z" fill="#1E3138"/>
<path d="M3.06122 76.5306H0V79.5919H3.06122V76.5306Z" fill="#1E3138"/>
<path d="M6.12244 76.5306H3.06122V79.5919H6.12244V76.5306Z" fill="#1E3138"/>
<path d="M9.18366 76.5306H6.12244V79.5919H9.18366V76.5306Z" fill="#1E3138"/>
<path d="M12.2449 76.5306H9.18365V79.5919H12.2449V76.5306Z" fill="#1E3138"/>
<path d="M15.3061 76.5306H12.2449V79.5919H15.3061V76.5306Z" fill="#1E3138"/>
<path d="M27.551 76.5306H24.4898V79.5919H27.551V76.5306Z" fill="#1E3138"/>
<path d="M30.6122 76.5306H27.551V79.5919H30.6122V76.5306Z" fill="#1E3138"/>
<path d="M36.7347 76.5306H33.6735V79.5919H36.7347V76.5306Z" fill="#1E3138"/>
<path d="M39.7959 76.5306H36.7347V79.5919H39.7959V76.5306Z" fill="#1E3138"/>
<path d="M48.9796 76.5306H45.9183V79.5919H48.9796V76.5306Z" fill="#1E3138"/>
<path d="M52.0408 76.5306H48.9796V79.5919H52.0408V76.5306Z" fill="#1E3138"/>
<path d="M55.1021 76.5306H52.0408V79.5919H55.1021V76.5306Z" fill="#1E3138"/>
<path d="M58.1633 76.5306H55.1021V79.5919H58.1633V76.5306Z" fill="#1E3138"/>
<path d="M61.2245 76.5306H58.1633V79.5919H61.2245V76.5306Z" fill="#1E3138"/>
<path d="M64.2857 76.5306H61.2245V79.5919H64.2857V76.5306Z" fill="#1E3138"/>
<path d="M70.4081 76.5306H67.3469V79.5919H70.4081V76.5306Z" fill="#1E3138"/>
<path d="M82.6531 76.5306H79.5919V79.5919H82.6531V76.5306Z" fill="#1E3138"/>
<path d="M88.7755 76.5306H85.7143V79.5919H88.7755V76.5306Z" fill="#1E3138"/>
<path d="M91.8367 76.5306H88.7755V79.5919H91.8367V76.5306Z" fill="#1E3138"/>
<path d="M97.9592 76.5306H94.8979V79.5919H97.9592V76.5306Z" fill="#1E3138"/>
<path d="M107.143 76.5306H104.082V79.5919H107.143V76.5306Z" fill="#1E3138"/>
<path d="M116.327 76.5306H113.265V79.5919H116.327V76.5306Z" fill="#1E3138"/>
<path d="M125.51 76.5306H122.449V79.5919H125.51V76.5306Z" fill="#1E3138"/>
<path d="M137.755 76.5306H134.694V79.5919H137.755V76.5306Z" fill="#1E3138"/>
<path d="M3.06122 79.5919H0V82.6531H3.06122V79.5919Z" fill="#1E3138"/>
<path d="M12.2449 79.5919H9.18365V82.6531H12.2449V79.5919Z" fill="#1E3138"/>
<path d="M15.3061 79.5919H12.2449V82.6531H15.3061V79.5919Z" fill="#1E3138"/>
<path d="M18.3674 79.5919H15.3062V82.6531H18.3674V79.5919Z" fill="#1E3138"/>
<path d="M21.4286 79.5919H18.3674V82.6531H21.4286V79.5919Z" fill="#1E3138"/>
<path d="M24.4898 79.5919H21.4286V82.6531H24.4898V79.5919Z" fill="#1E3138"/>
<path d="M27.551 79.5919H24.4898V82.6531H27.551V79.5919Z" fill="#1E3138"/>
<path d="M33.6735 79.5919H30.6122V82.6531H33.6735V79.5919Z" fill="#1E3138"/>
<path d="M36.7347 79.5919H33.6735V82.6531H36.7347V79.5919Z" fill="#1E3138"/>
<path d="M39.7959 79.5919H36.7347V82.6531H39.7959V79.5919Z" fill="#1E3138"/>
<path d="M42.8571 79.5919H39.7959V82.6531H42.8571V79.5919Z" fill="#1E3138"/>
<path d="M48.9796 79.5919H45.9183V82.6531H48.9796V79.5919Z" fill="#1E3138"/>
<path d="M52.0408 79.5919H48.9796V82.6531H52.0408V79.5919Z" fill="#1E3138"/>
<path d="M55.1021 79.5919H52.0408V82.6531H55.1021V79.5919Z" fill="#1E3138"/>
<path d="M64.2857 79.5919H61.2245V82.6531H64.2857V79.5919Z" fill="#1E3138"/>
<path d="M70.4081 79.5919H67.3469V82.6531H70.4081V79.5919Z" fill="#1E3138"/>
<path d="M73.4694 79.5919H70.4081V82.6531H73.4694V79.5919Z" fill="#1E3138"/>
<path d="M76.5306 79.5919H73.4694V82.6531H76.5306V79.5919Z" fill="#1E3138"/>
<path d="M79.5919 79.5919H76.5306V82.6531H79.5919V79.5919Z" fill="#1E3138"/>
<path d="M82.6531 79.5919H79.5919V82.6531H82.6531V79.5919Z" fill="#1E3138"/>
<path d="M85.7143 79.5919H82.6531V82.6531H85.7143V79.5919Z" fill="#1E3138"/>
<path d="M91.8367 79.5919H88.7755V82.6531H91.8367V79.5919Z" fill="#1E3138"/>
<path d="M94.898 79.5919H91.8367V82.6531H94.898V79.5919Z" fill="#1E3138"/>
<path d="M119.388 79.5919H116.327V82.6531H119.388V79.5919Z" fill="#1E3138"/>
<path d="M122.449 79.5919H119.388V82.6531H122.449V79.5919Z" fill="#1E3138"/>
<path d="M125.51 79.5919H122.449V82.6531H125.51V79.5919Z" fill="#1E3138"/>
<path d="M128.571 79.5919H125.51V82.6531H128.571V79.5919Z" fill="#1E3138"/>
<path d="M131.633 79.5919H128.571V82.6531H131.633V79.5919Z" fill="#1E3138"/>
<path d="M134.694 79.5919H131.633V82.6531H134.694V79.5919Z" fill="#1E3138"/>
<path d="M137.755 79.5919H134.694V82.6531H137.755V79.5919Z" fill="#1E3138"/>
<path d="M146.939 79.5919H143.878V82.6531H146.939V79.5919Z" fill="#1E3138"/>
<path d="M150 79.5919H146.939V82.6531H150V79.5919Z" fill="#1E3138"/>
<path d="M3.06122 82.6531H0V85.7143H3.06122V82.6531Z" fill="#1E3138"/>
<path d="M6.12244 82.6531H3.06122V85.7143H6.12244V82.6531Z" fill="#1E3138"/>
<path d="M18.3674 82.6531H15.3062V85.7143H18.3674V82.6531Z" fill="#1E3138"/>
<path d="M27.551 82.6531H24.4898V85.7143H27.551V82.6531Z" fill="#1E3138"/>
<path d="M30.6122 82.6531H27.551V85.7143H30.6122V82.6531Z" fill="#1E3138"/>
<path d="M36.7347 82.6531H33.6735V85.7143H36.7347V82.6531Z" fill="#1E3138"/>
<path d="M39.7959 82.6531H36.7347V85.7143H39.7959V82.6531Z" fill="#1E3138"/>
<path d="M42.8571 82.6531H39.7959V85.7143H42.8571V82.6531Z" fill="#1E3138"/>
<path d="M55.1021 82.6531H52.0408V85.7143H55.1021V82.6531Z" fill="#1E3138"/>
<path d="M58.1633 82.6531H55.1021V85.7143H58.1633V82.6531Z" fill="#1E3138"/>
<path d="M61.2245 82.6531H58.1633V85.7143H61.2245V82.6531Z" fill="#1E3138"/>
<path d="M64.2857 82.6531H61.2245V85.7143H64.2857V82.6531Z" fill="#1E3138"/>
<path d="M70.4081 82.6531H67.3469V85.7143H70.4081V82.6531Z" fill="#1E3138"/>
<path d="M82.6531 82.6531H79.5919V85.7143H82.6531V82.6531Z" fill="#1E3138"/>
<path d="M88.7755 82.6531H85.7143V85.7143H88.7755V82.6531Z" fill="#1E3138"/>
<path d="M91.8367 82.6531H88.7755V85.7143H91.8367V82.6531Z" fill="#1E3138"/>
<path d="M94.898 82.6531H91.8367V85.7143H94.898V82.6531Z" fill="#1E3138"/>
<path d="M97.9592 82.6531H94.8979V85.7143H97.9592V82.6531Z" fill="#1E3138"/>
<path d="M104.082 82.6531H101.02V85.7143H104.082V82.6531Z" fill="#1E3138"/>
<path d="M107.143 82.6531H104.082V85.7143H107.143V82.6531Z" fill="#1E3138"/>
<path d="M113.265 82.6531H110.204V85.7143H113.265V82.6531Z" fill="#1E3138"/>
<path d="M131.633 82.6531H128.571V85.7143H131.633V82.6531Z" fill="#1E3138"/>
<path d="M3.06122 85.7143H0V88.7755H3.06122V85.7143Z" fill="#1E3138"/>
<path d="M6.12244 85.7143H3.06122V88.7755H6.12244V85.7143Z" fill="#1E3138"/>
<path d="M9.18366 85.7143H6.12244V88.7755H9.18366V85.7143Z" fill="#1E3138"/>
<path d="M15.3061 85.7143H12.2449V88.7755H15.3061V85.7143Z" fill="#1E3138"/>
<path d="M21.4286 85.7143H18.3674V88.7755H21.4286V85.7143Z" fill="#1E3138"/>
<path d="M33.6735 85.7143H30.6122V88.7755H33.6735V85.7143Z" fill="#1E3138"/>
<path d="M39.7959 85.7143H36.7347V88.7755H39.7959V85.7143Z" fill="#1E3138"/>
<path d="M48.9796 85.7143H45.9183V88.7755H48.9796V85.7143Z" fill="#1E3138"/>
<path d="M52.0408 85.7143H48.9796V88.7755H52.0408V85.7143Z" fill="#1E3138"/>
<path d="M55.1021 85.7143H52.0408V88.7755H55.1021V85.7143Z" fill="#1E3138"/>
<path d="M64.2857 85.7143H61.2245V88.7755H64.2857V85.7143Z" fill="#1E3138"/>
<path d="M67.3469 85.7143H64.2857V88.7755H67.3469V85.7143Z" fill="#1E3138"/>
<path d="M73.4694 85.7143H70.4081V88.7755H73.4694V85.7143Z" fill="#1E3138"/>
<path d="M79.5919 85.7143H76.5306V88.7755H79.5919V85.7143Z" fill="#1E3138"/>
<path d="M88.7755 85.7143H85.7143V88.7755H88.7755V85.7143Z" fill="#1E3138"/>
<path d="M104.082 85.7143H101.02V88.7755H104.082V85.7143Z" fill="#1E3138"/>
<path d="M110.204 85.7143H107.143V88.7755H110.204V85.7143Z" fill="#1E3138"/>
<path d="M113.265 85.7143H110.204V88.7755H113.265V85.7143Z" fill="#1E3138"/>
<path d="M119.388 85.7143H116.327V88.7755H119.388V85.7143Z" fill="#1E3138"/>
<path d="M131.633 85.7143H128.571V88.7755H131.633V85.7143Z" fill="#1E3138"/>
<path d="M134.694 85.7143H131.633V88.7755H134.694V85.7143Z" fill="#1E3138"/>
<path d="M137.755 85.7143H134.694V88.7755H137.755V85.7143Z" fill="#1E3138"/>
<path d="M143.878 85.7143H140.816V88.7755H143.878V85.7143Z" fill="#1E3138"/>
<path d="M150 85.7143H146.939V88.7755H150V85.7143Z" fill="#1E3138"/>
<path d="M3.06122 88.7755H0V91.8367H3.06122V88.7755Z" fill="#1E3138"/>
<path d="M12.2449 88.7755H9.18365V91.8367H12.2449V88.7755Z" fill="#1E3138"/>
<path d="M24.4898 88.7755H21.4286V91.8367H24.4898V88.7755Z" fill="#1E3138"/>
<path d="M33.6735 88.7755H30.6122V91.8367H33.6735V88.7755Z" fill="#1E3138"/>
<path d="M36.7347 88.7755H33.6735V91.8367H36.7347V88.7755Z" fill="#1E3138"/>
<path d="M48.9796 88.7755H45.9183V91.8367H48.9796V88.7755Z" fill="#1E3138"/>
<path d="M52.0408 88.7755H48.9796V91.8367H52.0408V88.7755Z" fill="#1E3138"/>
<path d="M55.1021 88.7755H52.0408V91.8367H55.1021V88.7755Z" fill="#1E3138"/>
<path d="M58.1633 88.7755H55.1021V91.8367H58.1633V88.7755Z" fill="#1E3138"/>
<path d="M70.4081 88.7755H67.3469V91.8367H70.4081V88.7755Z" fill="#1E3138"/>
<path d="M73.4694 88.7755H70.4081V91.8367H73.4694V88.7755Z" fill="#1E3138"/>
<path d="M85.7143 88.7755H82.6531V91.8367H85.7143V88.7755Z" fill="#1E3138"/>
<path d="M88.7755 88.7755H85.7143V91.8367H88.7755V88.7755Z" fill="#1E3138"/>
<path d="M91.8367 88.7755H88.7755V91.8367H91.8367V88.7755Z" fill="#1E3138"/>
<path d="M94.898 88.7755H91.8367V91.8367H94.898V88.7755Z" fill="#1E3138"/>
<path d="M97.9592 88.7755H94.8979V91.8367H97.9592V88.7755Z" fill="#1E3138"/>
<path d="M110.204 88.7755H107.143V91.8367H110.204V88.7755Z" fill="#1E3138"/>
<path d="M113.265 88.7755H110.204V91.8367H113.265V88.7755Z" fill="#1E3138"/>
<path d="M119.388 88.7755H116.327V91.8367H119.388V88.7755Z" fill="#1E3138"/>
<path d="M131.633 88.7755H128.571V91.8367H131.633V88.7755Z" fill="#1E3138"/>
<path d="M3.06122 91.8367H0V94.898H3.06122V91.8367Z" fill="#1E3138"/>
<path d="M6.12244 91.8367H3.06122V94.898H6.12244V91.8367Z" fill="#1E3138"/>
<path d="M12.2449 91.8367H9.18365V94.898H12.2449V91.8367Z" fill="#1E3138"/>
<path d="M15.3061 91.8367H12.2449V94.898H15.3061V91.8367Z" fill="#1E3138"/>
<path d="M21.4286 91.8367H18.3674V94.898H21.4286V91.8367Z" fill="#1E3138"/>
<path d="M24.4898 91.8367H21.4286V94.898H24.4898V91.8367Z" fill="#1E3138"/>
<path d="M27.551 91.8367H24.4898V94.898H27.551V91.8367Z" fill="#1E3138"/>
<path d="M30.6122 91.8367H27.551V94.898H30.6122V91.8367Z" fill="#1E3138"/>
<path d="M36.7347 91.8367H33.6735V94.898H36.7347V91.8367Z" fill="#1E3138"/>
<path d="M39.7959 91.8367H36.7347V94.898H39.7959V91.8367Z" fill="#1E3138"/>
<path d="M42.8571 91.8367H39.7959V94.898H42.8571V91.8367Z" fill="#1E3138"/>
<path d="M45.9183 91.8367H42.8571V94.898H45.9183V91.8367Z" fill="#1E3138"/>
<path d="M52.0408 91.8367H48.9796V94.898H52.0408V91.8367Z" fill="#1E3138"/>
<path d="M58.1633 91.8367H55.1021V94.898H58.1633V91.8367Z" fill="#1E3138"/>
<path d="M64.2857 91.8367H61.2245V94.898H64.2857V91.8367Z" fill="#1E3138"/>
<path d="M67.3469 91.8367H64.2857V94.898H67.3469V91.8367Z" fill="#1E3138"/>
<path d="M73.4694 91.8367H70.4081V94.898H73.4694V91.8367Z" fill="#1E3138"/>
<path d="M85.7143 91.8367H82.6531V94.898H85.7143V91.8367Z" fill="#1E3138"/>
<path d="M88.7755 91.8367H85.7143V94.898H88.7755V91.8367Z" fill="#1E3138"/>
<path d="M97.9592 91.8367H94.8979V94.898H97.9592V91.8367Z" fill="#1E3138"/>
<path d="M107.143 91.8367H104.082V94.898H107.143V91.8367Z" fill="#1E3138"/>
<path d="M110.204 91.8367H107.143V94.898H110.204V91.8367Z" fill="#1E3138"/>
<path d="M113.265 91.8367H110.204V94.898H113.265V91.8367Z" fill="#1E3138"/>
<path d="M122.449 91.8367H119.388V94.898H122.449V91.8367Z" fill="#1E3138"/>
<path d="M125.51 91.8367H122.449V94.898H125.51V91.8367Z" fill="#1E3138"/>
<path d="M128.571 91.8367H125.51V94.898H128.571V91.8367Z" fill="#1E3138"/>
<path d="M131.633 91.8367H128.571V94.898H131.633V91.8367Z" fill="#1E3138"/>
<path d="M140.816 91.8367H137.755V94.898H140.816V91.8367Z" fill="#1E3138"/>
<path d="M146.939 91.8367H143.878V94.898H146.939V91.8367Z" fill="#1E3138"/>
<path d="M150 91.8367H146.939V94.898H150V91.8367Z" fill="#1E3138"/>
<path d="M3.06122 94.8979H0V97.9592H3.06122V94.8979Z" fill="#1E3138"/>
<path d="M6.12244 94.8979H3.06122V97.9592H6.12244V94.8979Z" fill="#1E3138"/>
<path d="M12.2449 94.8979H9.18365V97.9592H12.2449V94.8979Z" fill="#1E3138"/>
<path d="M18.3674 94.8979H15.3062V97.9592H18.3674V94.8979Z" fill="#1E3138"/>
<path d="M27.551 94.8979H24.4898V97.9592H27.551V94.8979Z" fill="#1E3138"/>
<path d="M33.6735 94.8979H30.6122V97.9592H33.6735V94.8979Z" fill="#1E3138"/>
<path d="M39.7959 94.8979H36.7347V97.9592H39.7959V94.8979Z" fill="#1E3138"/>
<path d="M42.8571 94.8979H39.7959V97.9592H42.8571V94.8979Z" fill="#1E3138"/>
<path d="M52.0408 94.8979H48.9796V97.9592H52.0408V94.8979Z" fill="#1E3138"/>
<path d="M55.1021 94.8979H52.0408V97.9592H55.1021V94.8979Z" fill="#1E3138"/>
<path d="M61.2245 94.8979H58.1633V97.9592H61.2245V94.8979Z" fill="#1E3138"/>
<path d="M64.2857 94.8979H61.2245V97.9592H64.2857V94.8979Z" fill="#1E3138"/>
<path d="M67.3469 94.8979H64.2857V97.9592H67.3469V94.8979Z" fill="#1E3138"/>
<path d="M70.4081 94.8979H67.3469V97.9592H70.4081V94.8979Z" fill="#1E3138"/>
<path d="M76.5306 94.8979H73.4694V97.9592H76.5306V94.8979Z" fill="#1E3138"/>
<path d="M79.5919 94.8979H76.5306V97.9592H79.5919V94.8979Z" fill="#1E3138"/>
<path d="M104.082 94.8979H101.02V97.9592H104.082V94.8979Z" fill="#1E3138"/>
<path d="M110.204 94.8979H107.143V97.9592H110.204V94.8979Z" fill="#1E3138"/>
<path d="M122.449 94.8979H119.388V97.9592H122.449V94.8979Z" fill="#1E3138"/>
<path d="M128.571 94.8979H125.51V97.9592H128.571V94.8979Z" fill="#1E3138"/>
<path d="M131.633 94.8979H128.571V97.9592H131.633V94.8979Z" fill="#1E3138"/>
<path d="M134.694 94.8979H131.633V97.9592H134.694V94.8979Z" fill="#1E3138"/>
<path d="M137.755 94.8979H134.694V97.9592H137.755V94.8979Z" fill="#1E3138"/>
<path d="M143.878 94.8979H140.816V97.9592H143.878V94.8979Z" fill="#1E3138"/>
<path d="M150 94.8979H146.939V97.9592H150V94.8979Z" fill="#1E3138"/>
<path d="M9.18366 97.9592H6.12244V101.02H9.18366V97.9592Z" fill="#1E3138"/>
<path d="M12.2449 97.9592H9.18365V101.02H12.2449V97.9592Z" fill="#1E3138"/>
<path d="M15.3061 97.9592H12.2449V101.02H15.3061V97.9592Z" fill="#1E3138"/>
<path d="M21.4286 97.9592H18.3674V101.02H21.4286V97.9592Z" fill="#1E3138"/>
<path d="M30.6122 97.9592H27.551V101.02H30.6122V97.9592Z" fill="#1E3138"/>
<path d="M36.7347 97.9592H33.6735V101.02H36.7347V97.9592Z" fill="#1E3138"/>
<path d="M42.8571 97.9592H39.7959V101.02H42.8571V97.9592Z" fill="#1E3138"/>
<path d="M45.9183 97.9592H42.8571V101.02H45.9183V97.9592Z" fill="#1E3138"/>
<path d="M52.0408 97.9592H48.9796V101.02H52.0408V97.9592Z" fill="#1E3138"/>
<path d="M61.2245 97.9592H58.1633V101.02H61.2245V97.9592Z" fill="#1E3138"/>
<path d="M64.2857 97.9592H61.2245V101.02H64.2857V97.9592Z" fill="#1E3138"/>
<path d="M88.7755 97.9592H85.7143V101.02H88.7755V97.9592Z" fill="#1E3138"/>
<path d="M97.9592 97.9592H94.8979V101.02H97.9592V97.9592Z" fill="#1E3138"/>
<path d="M101.02 97.9592H97.9592V101.02H101.02V97.9592Z" fill="#1E3138"/>
<path d="M104.082 97.9592H101.02V101.02H104.082V97.9592Z" fill="#1E3138"/>
<path d="M116.327 97.9592H113.265V101.02H116.327V97.9592Z" fill="#1E3138"/>
<path d="M134.694 97.9592H131.633V101.02H134.694V97.9592Z" fill="#1E3138"/>
<path d="M137.755 97.9592H134.694V101.02H137.755V97.9592Z" fill="#1E3138"/>
<path d="M143.878 97.9592H140.816V101.02H143.878V97.9592Z" fill="#1E3138"/>
<path d="M150 97.9592H146.939V101.02H150V97.9592Z" fill="#1E3138"/>
<path d="M3.06122 101.02H0V104.082H3.06122V101.02Z" fill="#1E3138"/>
<path d="M9.18366 101.02H6.12244V104.082H9.18366V101.02Z" fill="#1E3138"/>
<path d="M12.2449 101.02H9.18365V104.082H12.2449V101.02Z" fill="#1E3138"/>
<path d="M18.3674 101.02H15.3062V104.082H18.3674V101.02Z" fill="#1E3138"/>
<path d="M27.551 101.02H24.4898V104.082H27.551V101.02Z" fill="#1E3138"/>
<path d="M33.6735 101.02H30.6122V104.082H33.6735V101.02Z" fill="#1E3138"/>
<path d="M42.8571 101.02H39.7959V104.082H42.8571V101.02Z" fill="#1E3138"/>
<path d="M45.9183 101.02H42.8571V104.082H45.9183V101.02Z" fill="#1E3138"/>
<path d="M48.9796 101.02H45.9183V104.082H48.9796V101.02Z" fill="#1E3138"/>
<path d="M52.0408 101.02H48.9796V104.082H52.0408V101.02Z" fill="#1E3138"/>
<path d="M55.1021 101.02H52.0408V104.082H55.1021V101.02Z" fill="#1E3138"/>
<path d="M67.3469 101.02H64.2857V104.082H67.3469V101.02Z" fill="#1E3138"/>
<path d="M76.5306 101.02H73.4694V104.082H76.5306V101.02Z" fill="#1E3138"/>
<path d="M79.5919 101.02H76.5306V104.082H79.5919V101.02Z" fill="#1E3138"/>
<path d="M82.6531 101.02H79.5919V104.082H82.6531V101.02Z" fill="#1E3138"/>
<path d="M85.7143 101.02H82.6531V104.082H85.7143V101.02Z" fill="#1E3138"/>
<path d="M91.8367 101.02H88.7755V104.082H91.8367V101.02Z" fill="#1E3138"/>
<path d="M97.9592 101.02H94.8979V104.082H97.9592V101.02Z" fill="#1E3138"/>
<path d="M101.02 101.02H97.9592V104.082H101.02V101.02Z" fill="#1E3138"/>
<path d="M110.204 101.02H107.143V104.082H110.204V101.02Z" fill="#1E3138"/>
<path d="M113.265 101.02H110.204V104.082H113.265V101.02Z" fill="#1E3138"/>
<path d="M122.449 101.02H119.388V104.082H122.449V101.02Z" fill="#1E3138"/>
<path d="M125.51 101.02H122.449V104.082H125.51V101.02Z" fill="#1E3138"/>
<path d="M131.633 101.02H128.571V104.082H131.633V101.02Z" fill="#1E3138"/>
<path d="M143.878 101.02H140.816V104.082H143.878V101.02Z" fill="#1E3138"/>
<path d="M146.939 101.02H143.878V104.082H146.939V101.02Z" fill="#1E3138"/>
<path d="M150 101.02H146.939V104.082H150V101.02Z" fill="#1E3138"/>
<path d="M6.12244 104.082H3.06122V107.143H6.12244V104.082Z" fill="#1E3138"/>
<path d="M9.18366 104.082H6.12244V107.143H9.18366V104.082Z" fill="#1E3138"/>
<path d="M15.3061 104.082H12.2449V107.143H15.3061V104.082Z" fill="#1E3138"/>
<path d="M18.3674 104.082H15.3062V107.143H18.3674V104.082Z" fill="#1E3138"/>
<path d="M21.4286 104.082H18.3674V107.143H21.4286V104.082Z" fill="#1E3138"/>
<path d="M27.551 104.082H24.4898V107.143H27.551V104.082Z" fill="#1E3138"/>
<path d="M30.6122 104.082H27.551V107.143H30.6122V104.082Z" fill="#1E3138"/>
<path d="M36.7347 104.082H33.6735V107.143H36.7347V104.082Z" fill="#1E3138"/>
<path d="M42.8571 104.082H39.7959V107.143H42.8571V104.082Z" fill="#1E3138"/>
<path d="M55.1021 104.082H52.0408V107.143H55.1021V104.082Z" fill="#1E3138"/>
<path d="M64.2857 104.082H61.2245V107.143H64.2857V104.082Z" fill="#1E3138"/>
<path d="M67.3469 104.082H64.2857V107.143H67.3469V104.082Z" fill="#1E3138"/>
<path d="M73.4694 104.082H70.4081V107.143H73.4694V104.082Z" fill="#1E3138"/>
<path d="M76.5306 104.082H73.4694V107.143H76.5306V104.082Z" fill="#1E3138"/>
<path d="M79.5919 104.082H76.5306V107.143H79.5919V104.082Z" fill="#1E3138"/>
<path d="M107.143 104.082H104.082V107.143H107.143V104.082Z" fill="#1E3138"/>
<path d="M110.204 104.082H107.143V107.143H110.204V104.082Z" fill="#1E3138"/>
<path d="M116.327 104.082H113.265V107.143H116.327V104.082Z" fill="#1E3138"/>
<path d="M128.571 104.082H125.51V107.143H128.571V104.082Z" fill="#1E3138"/>
<path d="M131.633 104.082H128.571V107.143H131.633V104.082Z" fill="#1E3138"/>
<path d="M137.755 104.082H134.694V107.143H137.755V104.082Z" fill="#1E3138"/>
<path d="M140.816 104.082H137.755V107.143H140.816V104.082Z" fill="#1E3138"/>
<path d="M143.878 104.082H140.816V107.143H143.878V104.082Z" fill="#1E3138"/>
<path d="M146.939 104.082H143.878V107.143H146.939V104.082Z" fill="#1E3138"/>
<path d="M150 104.082H146.939V107.143H150V104.082Z" fill="#1E3138"/>
<path d="M12.2449 107.143H9.18365V110.204H12.2449V107.143Z" fill="#1E3138"/>
<path d="M15.3061 107.143H12.2449V110.204H15.3061V107.143Z" fill="#1E3138"/>
<path d="M30.6122 107.143H27.551V110.204H30.6122V107.143Z" fill="#1E3138"/>
<path d="M55.1021 107.143H52.0408V110.204H55.1021V107.143Z" fill="#1E3138"/>
<path d="M67.3469 107.143H64.2857V110.204H67.3469V107.143Z" fill="#1E3138"/>
<path d="M73.4694 107.143H70.4081V110.204H73.4694V107.143Z" fill="#1E3138"/>
<path d="M82.6531 107.143H79.5919V110.204H82.6531V107.143Z" fill="#1E3138"/>
<path d="M85.7143 107.143H82.6531V110.204H85.7143V107.143Z" fill="#1E3138"/>
<path d="M91.8367 107.143H88.7755V110.204H91.8367V107.143Z" fill="#1E3138"/>
<path d="M97.9592 107.143H94.8979V110.204H97.9592V107.143Z" fill="#1E3138"/>
<path d="M101.02 107.143H97.9592V110.204H101.02V107.143Z" fill="#1E3138"/>
<path d="M107.143 107.143H104.082V110.204H107.143V107.143Z" fill="#1E3138"/>
<path d="M113.265 107.143H110.204V110.204H113.265V107.143Z" fill="#1E3138"/>
<path d="M119.388 107.143H116.327V110.204H119.388V107.143Z" fill="#1E3138"/>
<path d="M128.571 107.143H125.51V110.204H128.571V107.143Z" fill="#1E3138"/>
<path d="M134.694 107.143H131.633V110.204H134.694V107.143Z" fill="#1E3138"/>
<path d="M137.755 107.143H134.694V110.204H137.755V107.143Z" fill="#1E3138"/>
<path d="M146.939 107.143H143.878V110.204H146.939V107.143Z" fill="#1E3138"/>
<path d="M150 107.143H146.939V110.204H150V107.143Z" fill="#1E3138"/>
<path d="M6.12244 110.204H3.06122V113.265H6.12244V110.204Z" fill="#1E3138"/>
<path d="M12.2449 110.204H9.18365V113.265H12.2449V110.204Z" fill="#1E3138"/>
<path d="M15.3061 110.204H12.2449V113.265H15.3061V110.204Z" fill="#1E3138"/>
<path d="M18.3674 110.204H15.3062V113.265H18.3674V110.204Z" fill="#1E3138"/>
<path d="M21.4286 110.204H18.3674V113.265H21.4286V110.204Z" fill="#1E3138"/>
<path d="M30.6122 110.204H27.551V113.265H30.6122V110.204Z" fill="#1E3138"/>
<path d="M36.7347 110.204H33.6735V113.265H36.7347V110.204Z" fill="#1E3138"/>
<path d="M48.9796 110.204H45.9183V113.265H48.9796V110.204Z" fill="#1E3138"/>
<path d="M52.0408 110.204H48.9796V113.265H52.0408V110.204Z" fill="#1E3138"/>
<path d="M55.1021 110.204H52.0408V113.265H55.1021V110.204Z" fill="#1E3138"/>
<path d="M58.1633 110.204H55.1021V113.265H58.1633V110.204Z" fill="#1E3138"/>
<path d="M64.2857 110.204H61.2245V113.265H64.2857V110.204Z" fill="#1E3138"/>
<path d="M67.3469 110.204H64.2857V113.265H67.3469V110.204Z" fill="#1E3138"/>
<path d="M70.4081 110.204H67.3469V113.265H70.4081V110.204Z" fill="#1E3138"/>
<path d="M73.4694 110.204H70.4081V113.265H73.4694V110.204Z" fill="#1E3138"/>
<path d="M79.5919 110.204H76.5306V113.265H79.5919V110.204Z" fill="#1E3138"/>
<path d="M82.6531 110.204H79.5919V113.265H82.6531V110.204Z" fill="#1E3138"/>
<path d="M85.7143 110.204H82.6531V113.265H85.7143V110.204Z" fill="#1E3138"/>
<path d="M88.7755 110.204H85.7143V113.265H88.7755V110.204Z" fill="#1E3138"/>
<path d="M91.8367 110.204H88.7755V113.265H91.8367V110.204Z" fill="#1E3138"/>
<path d="M94.898 110.204H91.8367V113.265H94.898V110.204Z" fill="#1E3138"/>
<path d="M101.02 110.204H97.9592V113.265H101.02V110.204Z" fill="#1E3138"/>
<path d="M104.082 110.204H101.02V113.265H104.082V110.204Z" fill="#1E3138"/>
<path d="M110.204 110.204H107.143V113.265H110.204V110.204Z" fill="#1E3138"/>
<path d="M113.265 110.204H110.204V113.265H113.265V110.204Z" fill="#1E3138"/>
<path d="M116.327 110.204H113.265V113.265H116.327V110.204Z" fill="#1E3138"/>
<path d="M119.388 110.204H116.327V113.265H119.388V110.204Z" fill="#1E3138"/>
<path d="M137.755 110.204H134.694V113.265H137.755V110.204Z" fill="#1E3138"/>
<path d="M146.939 110.204H143.878V113.265H146.939V110.204Z" fill="#1E3138"/>
<path d="M150 110.204H146.939V113.265H150V110.204Z" fill="#1E3138"/>
<path d="M6.12244 113.265H3.06122V116.327H6.12244V113.265Z" fill="#1E3138"/>
<path d="M15.3061 113.265H12.2449V116.327H15.3061V113.265Z" fill="#1E3138"/>
<path d="M27.551 113.265H24.4898V116.327H27.551V113.265Z" fill="#1E3138"/>
<path d="M30.6122 113.265H27.551V116.327H30.6122V113.265Z" fill="#1E3138"/>
<path d="M33.6735 113.265H30.6122V116.327H33.6735V113.265Z" fill="#1E3138"/>
<path d="M36.7347 113.265H33.6735V116.327H36.7347V113.265Z" fill="#1E3138"/>
<path d="M39.7959 113.265H36.7347V116.327H39.7959V113.265Z" fill="#1E3138"/>
<path d="M45.9183 113.265H42.8571V116.327H45.9183V113.265Z" fill="#1E3138"/>
<path d="M48.9796 113.265H45.9183V116.327H48.9796V113.265Z" fill="#1E3138"/>
<path d="M73.4694 113.265H70.4081V116.327H73.4694V113.265Z" fill="#1E3138"/>
<path d="M76.5306 113.265H73.4694V116.327H76.5306V113.265Z" fill="#1E3138"/>
<path d="M88.7755 113.265H85.7143V116.327H88.7755V113.265Z" fill="#1E3138"/>
<path d="M91.8367 113.265H88.7755V116.327H91.8367V113.265Z" fill="#1E3138"/>
<path d="M107.143 113.265H104.082V116.327H107.143V113.265Z" fill="#1E3138"/>
<path d="M113.265 113.265H110.204V116.327H113.265V113.265Z" fill="#1E3138"/>
<path d="M116.327 113.265H113.265V116.327H116.327V113.265Z" fill="#1E3138"/>
<path d="M122.449 113.265H119.388V116.327H122.449V113.265Z" fill="#1E3138"/>
<path d="M134.694 113.265H131.633V116.327H134.694V113.265Z" fill="#1E3138"/>
<path d="M140.816 113.265H137.755V116.327H140.816V113.265Z" fill="#1E3138"/>
<path d="M143.878 113.265H140.816V116.327H143.878V113.265Z" fill="#1E3138"/>
<path d="M146.939 113.265H143.878V116.327H146.939V113.265Z" fill="#1E3138"/>
<path d="M150 113.265H146.939V116.327H150V113.265Z" fill="#1E3138"/>
<path d="M6.12244 116.327H3.06122V119.388H6.12244V116.327Z" fill="#1E3138"/>
<path d="M18.3674 116.327H15.3062V119.388H18.3674V116.327Z" fill="#1E3138"/>
<path d="M21.4286 116.327H18.3674V119.388H21.4286V116.327Z" fill="#1E3138"/>
<path d="M24.4898 116.327H21.4286V119.388H24.4898V116.327Z" fill="#1E3138"/>
<path d="M27.551 116.327H24.4898V119.388H27.551V116.327Z" fill="#1E3138"/>
<path d="M33.6735 116.327H30.6122V119.388H33.6735V116.327Z" fill="#1E3138"/>
<path d="M39.7959 116.327H36.7347V119.388H39.7959V116.327Z" fill="#1E3138"/>
<path d="M64.2857 116.327H61.2245V119.388H64.2857V116.327Z" fill="#1E3138"/>
<path d="M76.5306 116.327H73.4694V119.388H76.5306V116.327Z" fill="#1E3138"/>
<path d="M79.5919 116.327H76.5306V119.388H79.5919V116.327Z" fill="#1E3138"/>
<path d="M82.6531 116.327H79.5919V119.388H82.6531V116.327Z" fill="#1E3138"/>
<path d="M85.7143 116.327H82.6531V119.388H85.7143V116.327Z" fill="#1E3138"/>
<path d="M94.898 116.327H91.8367V119.388H94.898V116.327Z" fill="#1E3138"/>
<path d="M104.082 116.327H101.02V119.388H104.082V116.327Z" fill="#1E3138"/>
<path d="M110.204 116.327H107.143V119.388H110.204V116.327Z" fill="#1E3138"/>
<path d="M113.265 116.327H110.204V119.388H113.265V116.327Z" fill="#1E3138"/>
<path d="M116.327 116.327H113.265V119.388H116.327V116.327Z" fill="#1E3138"/>
<path d="M119.388 116.327H116.327V119.388H119.388V116.327Z" fill="#1E3138"/>
<path d="M131.633 116.327H128.571V119.388H131.633V116.327Z" fill="#1E3138"/>
<path d="M134.694 116.327H131.633V119.388H134.694V116.327Z" fill="#1E3138"/>
<path d="M137.755 116.327H134.694V119.388H137.755V116.327Z" fill="#1E3138"/>
<path d="M140.816 116.327H137.755V119.388H140.816V116.327Z" fill="#1E3138"/>
<path d="M143.878 116.327H140.816V119.388H143.878V116.327Z" fill="#1E3138"/>
<path d="M150 116.327H146.939V119.388H150V116.327Z" fill="#1E3138"/>
<path d="M6.12244 119.388H3.06122V122.449H6.12244V119.388Z" fill="#1E3138"/>
<path d="M9.18366 119.388H6.12244V122.449H9.18366V119.388Z" fill="#1E3138"/>
<path d="M12.2449 119.388H9.18365V122.449H12.2449V119.388Z" fill="#1E3138"/>
<path d="M27.551 119.388H24.4898V122.449H27.551V119.388Z" fill="#1E3138"/>
<path d="M30.6122 119.388H27.551V122.449H30.6122V119.388Z" fill="#1E3138"/>
<path d="M33.6735 119.388H30.6122V122.449H33.6735V119.388Z" fill="#1E3138"/>
<path d="M42.8571 119.388H39.7959V122.449H42.8571V119.388Z" fill="#1E3138"/>
<path d="M45.9183 119.388H42.8571V122.449H45.9183V119.388Z" fill="#1E3138"/>
<path d="M48.9796 119.388H45.9183V122.449H48.9796V119.388Z" fill="#1E3138"/>
<path d="M52.0408 119.388H48.9796V122.449H52.0408V119.388Z" fill="#1E3138"/>
<path d="M64.2857 119.388H61.2245V122.449H64.2857V119.388Z" fill="#1E3138"/>
<path d="M67.3469 119.388H64.2857V122.449H67.3469V119.388Z" fill="#1E3138"/>
<path d="M73.4694 119.388H70.4081V122.449H73.4694V119.388Z" fill="#1E3138"/>
<path d="M76.5306 119.388H73.4694V122.449H76.5306V119.388Z" fill="#1E3138"/>
<path d="M79.5919 119.388H76.5306V122.449H79.5919V119.388Z" fill="#1E3138"/>
<path d="M85.7143 119.388H82.6531V122.449H85.7143V119.388Z" fill="#1E3138"/>
<path d="M88.7755 119.388H85.7143V122.449H88.7755V119.388Z" fill="#1E3138"/>
<path d="M91.8367 119.388H88.7755V122.449H91.8367V119.388Z" fill="#1E3138"/>
<path d="M97.9592 119.388H94.8979V122.449H97.9592V119.388Z" fill="#1E3138"/>
<path d="M101.02 119.388H97.9592V122.449H101.02V119.388Z" fill="#1E3138"/>
<path d="M104.082 119.388H101.02V122.449H104.082V119.388Z" fill="#1E3138"/>
<path d="M110.204 119.388H107.143V122.449H110.204V119.388Z" fill="#1E3138"/>
<path d="M116.327 119.388H113.265V122.449H116.327V119.388Z" fill="#1E3138"/>
<path d="M128.571 119.388H125.51V122.449H128.571V119.388Z" fill="#1E3138"/>
<path d="M131.633 119.388H128.571V122.449H131.633V119.388Z" fill="#1E3138"/>
<path d="M134.694 119.388H131.633V122.449H134.694V119.388Z" fill="#1E3138"/>
<path d="M140.816 119.388H137.755V122.449H140.816V119.388Z" fill="#1E3138"/>
<path d="M3.06122 122.449H0V125.51H3.06122V122.449Z" fill="#1E3138"/>
<path d="M6.12244 122.449H3.06122V125.51H6.12244V122.449Z" fill="#1E3138"/>
<path d="M9.18366 122.449H6.12244V125.51H9.18366V122.449Z" fill="#1E3138"/>
<path d="M21.4286 122.449H18.3674V125.51H21.4286V122.449Z" fill="#1E3138"/>
<path d="M33.6735 122.449H30.6122V125.51H33.6735V122.449Z" fill="#1E3138"/>
<path d="M45.9183 122.449H42.8571V125.51H45.9183V122.449Z" fill="#1E3138"/>
<path d="M55.1021 122.449H52.0408V125.51H55.1021V122.449Z" fill="#1E3138"/>
<path d="M61.2245 122.449H58.1633V125.51H61.2245V122.449Z" fill="#1E3138"/>
<path d="M64.2857 122.449H61.2245V125.51H64.2857V122.449Z" fill="#1E3138"/>
<path d="M70.4081 122.449H67.3469V125.51H70.4081V122.449Z" fill="#1E3138"/>
<path d="M73.4694 122.449H70.4081V125.51H73.4694V122.449Z" fill="#1E3138"/>
<path d="M76.5306 122.449H73.4694V125.51H76.5306V122.449Z" fill="#1E3138"/>
<path d="M79.5919 122.449H76.5306V125.51H79.5919V122.449Z" fill="#1E3138"/>
<path d="M82.6531 122.449H79.5919V125.51H82.6531V122.449Z" fill="#1E3138"/>
<path d="M88.7755 122.449H85.7143V125.51H88.7755V122.449Z" fill="#1E3138"/>
<path d="M91.8367 122.449H88.7755V125.51H91.8367V122.449Z" fill="#1E3138"/>
<path d="M101.02 122.449H97.9592V125.51H101.02V122.449Z" fill="#1E3138"/>
<path d="M104.082 122.449H101.02V125.51H104.082V122.449Z" fill="#1E3138"/>
<path d="M110.204 122.449H107.143V125.51H110.204V122.449Z" fill="#1E3138"/>
<path d="M113.265 122.449H110.204V125.51H113.265V122.449Z" fill="#1E3138"/>
<path d="M119.388 122.449H116.327V125.51H119.388V122.449Z" fill="#1E3138"/>
<path d="M125.51 122.449H122.449V125.51H125.51V122.449Z" fill="#1E3138"/>
<path d="M128.571 122.449H125.51V125.51H128.571V122.449Z" fill="#1E3138"/>
<path d="M131.633 122.449H128.571V125.51H131.633V122.449Z" fill="#1E3138"/>
<path d="M134.694 122.449H131.633V125.51H134.694V122.449Z" fill="#1E3138"/>
<path d="M137.755 122.449H134.694V125.51H137.755V122.449Z" fill="#1E3138"/>
<path d="M140.816 122.449H137.755V125.51H140.816V122.449Z" fill="#1E3138"/>
<path d="M150 122.449H146.939V125.51H150V122.449Z" fill="#1E3138"/>
<path d="M27.551 125.51H24.4898V128.571H27.551V125.51Z" fill="#1E3138"/>
<path d="M36.7347 125.51H33.6735V128.571H36.7347V125.51Z" fill="#1E3138"/>
<path d="M42.8571 125.51H39.7959V128.571H42.8571V125.51Z" fill="#1E3138"/>
<path d="M45.9183 125.51H42.8571V128.571H45.9183V125.51Z" fill="#1E3138"/>
<path d="M61.2245 125.51H58.1633V128.571H61.2245V125.51Z" fill="#1E3138"/>
<path d="M64.2857 125.51H61.2245V128.571H64.2857V125.51Z" fill="#1E3138"/>
<path d="M70.4081 125.51H67.3469V128.571H70.4081V125.51Z" fill="#1E3138"/>
<path d="M82.6531 125.51H79.5919V128.571H82.6531V125.51Z" fill="#1E3138"/>
<path d="M85.7143 125.51H82.6531V128.571H85.7143V125.51Z" fill="#1E3138"/>
<path d="M88.7755 125.51H85.7143V128.571H88.7755V125.51Z" fill="#1E3138"/>
<path d="M94.898 125.51H91.8367V128.571H94.898V125.51Z" fill="#1E3138"/>
<path d="M97.9592 125.51H94.8979V128.571H97.9592V125.51Z" fill="#1E3138"/>
<path d="M101.02 125.51H97.9592V128.571H101.02V125.51Z" fill="#1E3138"/>
<path d="M104.082 125.51H101.02V128.571H104.082V125.51Z" fill="#1E3138"/>
<path d="M116.327 125.51H113.265V128.571H116.327V125.51Z" fill="#1E3138"/>
<path d="M119.388 125.51H116.327V128.571H119.388V125.51Z" fill="#1E3138"/>
<path d="M125.51 125.51H122.449V128.571H125.51V125.51Z" fill="#1E3138"/>
<path d="M137.755 125.51H134.694V128.571H137.755V125.51Z" fill="#1E3138"/>
<path d="M150 125.51H146.939V128.571H150V125.51Z" fill="#1E3138"/>
<path d="M33.6735 128.571H30.6122V131.633H33.6735V128.571Z" fill="#1E3138"/>
<path d="M36.7347 128.571H33.6735V131.633H36.7347V128.571Z" fill="#1E3138"/>
<path d="M48.9796 128.571H45.9183V131.633H48.9796V128.571Z" fill="#1E3138"/>
<path d="M52.0408 128.571H48.9796V131.633H52.0408V128.571Z" fill="#1E3138"/>
<path d="M55.1021 128.571H52.0408V131.633H55.1021V128.571Z" fill="#1E3138"/>
<path d="M58.1633 128.571H55.1021V131.633H58.1633V128.571Z" fill="#1E3138"/>
<path d="M64.2857 128.571H61.2245V131.633H64.2857V128.571Z" fill="#1E3138"/>
<path d="M70.4081 128.571H67.3469V131.633H70.4081V128.571Z" fill="#1E3138"/>
<path d="M76.5306 128.571H73.4694V131.633H76.5306V128.571Z" fill="#1E3138"/>
<path d="M82.6531 128.571H79.5919V131.633H82.6531V128.571Z" fill="#1E3138"/>
<path d="M88.7755 128.571H85.7143V131.633H88.7755V128.571Z" fill="#1E3138"/>
<path d="M91.8367 128.571H88.7755V131.633H91.8367V128.571Z" fill="#1E3138"/>
<path d="M97.9592 128.571H94.8979V131.633H97.9592V128.571Z" fill="#1E3138"/>
<path d="M101.02 128.571H97.9592V131.633H101.02V128.571Z" fill="#1E3138"/>
<path d="M104.082 128.571H101.02V131.633H104.082V128.571Z" fill="#1E3138"/>
<path d="M107.143 128.571H104.082V131.633H107.143V128.571Z" fill="#1E3138"/>
<path d="M110.204 128.571H107.143V131.633H110.204V128.571Z" fill="#1E3138"/>
<path d="M113.265 128.571H110.204V131.633H113.265V128.571Z" fill="#1E3138"/>
<path d="M116.327 128.571H113.265V131.633H116.327V128.571Z" fill="#1E3138"/>
<path d="M119.388 128.571H116.327V131.633H119.388V128.571Z" fill="#1E3138"/>
<path d="M122.449 128.571H119.388V131.633H122.449V128.571Z" fill="#1E3138"/>
<path d="M125.51 128.571H122.449V131.633H125.51V128.571Z" fill="#1E3138"/>
<path d="M131.633 128.571H128.571V131.633H131.633V128.571Z" fill="#1E3138"/>
<path d="M137.755 128.571H134.694V131.633H137.755V128.571Z" fill="#1E3138"/>
<path d="M143.878 128.571H140.816V131.633H143.878V128.571Z" fill="#1E3138"/>
<path d="M146.939 128.571H143.878V131.633H146.939V128.571Z" fill="#1E3138"/>
<path d="M150 128.571H146.939V131.633H150V128.571Z" fill="#1E3138"/>
<path d="M30.6122 131.633H27.551V134.694H30.6122V131.633Z" fill="#1E3138"/>
<path d="M36.7347 131.633H33.6735V134.694H36.7347V131.633Z" fill="#1E3138"/>
<path d="M55.1021 131.633H52.0408V134.694H55.1021V131.633Z" fill="#1E3138"/>
<path d="M64.2857 131.633H61.2245V134.694H64.2857V131.633Z" fill="#1E3138"/>
<path d="M67.3469 131.633H64.2857V134.694H67.3469V131.633Z" fill="#1E3138"/>
<path d="M70.4081 131.633H67.3469V134.694H70.4081V131.633Z" fill="#1E3138"/>
<path d="M82.6531 131.633H79.5919V134.694H82.6531V131.633Z" fill="#1E3138"/>
<path d="M85.7143 131.633H82.6531V134.694H85.7143V131.633Z" fill="#1E3138"/>
<path d="M88.7755 131.633H85.7143V134.694H88.7755V131.633Z" fill="#1E3138"/>
<path d="M94.898 131.633H91.8367V134.694H94.898V131.633Z" fill="#1E3138"/>
<path d="M97.9592 131.633H94.8979V134.694H97.9592V131.633Z" fill="#1E3138"/>
<path d="M101.02 131.633H97.9592V134.694H101.02V131.633Z" fill="#1E3138"/>
<path d="M113.265 131.633H110.204V134.694H113.265V131.633Z" fill="#1E3138"/>
<path d="M116.327 131.633H113.265V134.694H116.327V131.633Z" fill="#1E3138"/>
<path d="M119.388 131.633H116.327V134.694H119.388V131.633Z" fill="#1E3138"/>
<path d="M122.449 131.633H119.388V134.694H122.449V131.633Z" fill="#1E3138"/>
<path d="M125.51 131.633H122.449V134.694H125.51V131.633Z" fill="#1E3138"/>
<path d="M137.755 131.633H134.694V134.694H137.755V131.633Z" fill="#1E3138"/>
<path d="M143.878 131.633H140.816V134.694H143.878V131.633Z" fill="#1E3138"/>
<path d="M30.6122 134.694H27.551V137.755H30.6122V134.694Z" fill="#1E3138"/>
<path d="M33.6735 134.694H30.6122V137.755H33.6735V134.694Z" fill="#1E3138"/>
<path d="M36.7347 134.694H33.6735V137.755H36.7347V134.694Z" fill="#1E3138"/>
<path d="M45.9183 134.694H42.8571V137.755H45.9183V134.694Z" fill="#1E3138"/>
<path d="M58.1633 134.694H55.1021V137.755H58.1633V134.694Z" fill="#1E3138"/>
<path d="M61.2245 134.694H58.1633V137.755H61.2245V134.694Z" fill="#1E3138"/>
<path d="M70.4081 134.694H67.3469V137.755H70.4081V134.694Z" fill="#1E3138"/>
<path d="M73.4694 134.694H70.4081V137.755H73.4694V134.694Z" fill="#1E3138"/>
<path d="M76.5306 134.694H73.4694V137.755H76.5306V134.694Z" fill="#1E3138"/>
<path d="M79.5919 134.694H76.5306V137.755H79.5919V134.694Z" fill="#1E3138"/>
<path d="M82.6531 134.694H79.5919V137.755H82.6531V134.694Z" fill="#1E3138"/>
<path d="M91.8367 134.694H88.7755V137.755H91.8367V134.694Z" fill="#1E3138"/>
<path d="M110.204 134.694H107.143V137.755H110.204V134.694Z" fill="#1E3138"/>
<path d="M113.265 134.694H110.204V137.755H113.265V134.694Z" fill="#1E3138"/>
<path d="M116.327 134.694H113.265V137.755H116.327V134.694Z" fill="#1E3138"/>
<path d="M119.388 134.694H116.327V137.755H119.388V134.694Z" fill="#1E3138"/>
<path d="M125.51 134.694H122.449V137.755H125.51V134.694Z" fill="#1E3138"/>
<path d="M128.571 134.694H125.51V137.755H128.571V134.694Z" fill="#1E3138"/>
<path d="M131.633 134.694H128.571V137.755H131.633V134.694Z" fill="#1E3138"/>
<path d="M134.694 134.694H131.633V137.755H134.694V134.694Z" fill="#1E3138"/>
<path d="M137.755 134.694H134.694V137.755H137.755V134.694Z" fill="#1E3138"/>
<path d="M140.816 134.694H137.755V137.755H140.816V134.694Z" fill="#1E3138"/>
<path d="M146.939 134.694H143.878V137.755H146.939V134.694Z" fill="#1E3138"/>
<path d="M27.551 137.755H24.4898V140.816H27.551V137.755Z" fill="#1E3138"/>
<path d="M30.6122 137.755H27.551V140.816H30.6122V137.755Z" fill="#1E3138"/>
<path d="M33.6735 137.755H30.6122V140.816H33.6735V137.755Z" fill="#1E3138"/>
<path d="M36.7347 137.755H33.6735V140.816H36.7347V137.755Z" fill="#1E3138"/>
<path d="M42.8571 137.755H39.7959V140.816H42.8571V137.755Z" fill="#1E3138"/>
<path d="M45.9183 137.755H42.8571V140.816H45.9183V137.755Z" fill="#1E3138"/>
<path d="M48.9796 137.755H45.9183V140.816H48.9796V137.755Z" fill="#1E3138"/>
<path d="M55.1021 137.755H52.0408V140.816H55.1021V137.755Z" fill="#1E3138"/>
<path d="M64.2857 137.755H61.2245V140.816H64.2857V137.755Z" fill="#1E3138"/>
<path d="M70.4081 137.755H67.3469V140.816H70.4081V137.755Z" fill="#1E3138"/>
<path d="M76.5306 137.755H73.4694V140.816H76.5306V137.755Z" fill="#1E3138"/>
<path d="M85.7143 137.755H82.6531V140.816H85.7143V137.755Z" fill="#1E3138"/>
<path d="M91.8367 137.755H88.7755V140.816H91.8367V137.755Z" fill="#1E3138"/>
<path d="M110.204 137.755H107.143V140.816H110.204V137.755Z" fill="#1E3138"/>
<path d="M113.265 137.755H110.204V140.816H113.265V137.755Z" fill="#1E3138"/>
<path d="M122.449 137.755H119.388V140.816H122.449V137.755Z" fill="#1E3138"/>
<path d="M128.571 137.755H125.51V140.816H128.571V137.755Z" fill="#1E3138"/>
<path d="M134.694 137.755H131.633V140.816H134.694V137.755Z" fill="#1E3138"/>
<path d="M137.755 137.755H134.694V140.816H137.755V137.755Z" fill="#1E3138"/>
<path d="M146.939 137.755H143.878V140.816H146.939V137.755Z" fill="#1E3138"/>
<path d="M30.6122 140.816H27.551V143.878H30.6122V140.816Z" fill="#1E3138"/>
<path d="M33.6735 140.816H30.6122V143.878H33.6735V140.816Z" fill="#1E3138"/>
<path d="M39.7959 140.816H36.7347V143.878H39.7959V140.816Z" fill="#1E3138"/>
<path d="M55.1021 140.816H52.0408V143.878H55.1021V140.816Z" fill="#1E3138"/>
<path d="M58.1633 140.816H55.1021V143.878H58.1633V140.816Z" fill="#1E3138"/>
<path d="M61.2245 140.816H58.1633V143.878H61.2245V140.816Z" fill="#1E3138"/>
<path d="M67.3469 140.816H64.2857V143.878H67.3469V140.816Z" fill="#1E3138"/>
<path d="M79.5919 140.816H76.5306V143.878H79.5919V140.816Z" fill="#1E3138"/>
<path d="M82.6531 140.816H79.5919V143.878H82.6531V140.816Z" fill="#1E3138"/>
<path d="M88.7755 140.816H85.7143V143.878H88.7755V140.816Z" fill="#1E3138"/>
<path d="M91.8367 140.816H88.7755V143.878H91.8367V140.816Z" fill="#1E3138"/>
<path d="M97.9592 140.816H94.8979V143.878H97.9592V140.816Z" fill="#1E3138"/>
<path d="M101.02 140.816H97.9592V143.878H101.02V140.816Z" fill="#1E3138"/>
<path d="M104.082 140.816H101.02V143.878H104.082V140.816Z" fill="#1E3138"/>
<path d="M107.143 140.816H104.082V143.878H107.143V140.816Z" fill="#1E3138"/>
<path d="M110.204 140.816H107.143V143.878H110.204V140.816Z" fill="#1E3138"/>
<path d="M113.265 140.816H110.204V143.878H113.265V140.816Z" fill="#1E3138"/>
<path d="M122.449 140.816H119.388V143.878H122.449V140.816Z" fill="#1E3138"/>
<path d="M125.51 140.816H122.449V143.878H125.51V140.816Z" fill="#1E3138"/>
<path d="M131.633 140.816H128.571V143.878H131.633V140.816Z" fill="#1E3138"/>
<path d="M137.755 140.816H134.694V143.878H137.755V140.816Z" fill="#1E3138"/>
<path d="M146.939 140.816H143.878V143.878H146.939V140.816Z" fill="#1E3138"/>
<path d="M150 140.816H146.939V143.878H150V140.816Z" fill="#1E3138"/>
<path d="M30.6122 143.878H27.551V146.939H30.6122V143.878Z" fill="#1E3138"/>
<path d="M33.6735 143.878H30.6122V146.939H33.6735V143.878Z" fill="#1E3138"/>
<path d="M42.8571 143.878H39.7959V146.939H42.8571V143.878Z" fill="#1E3138"/>
<path d="M45.9183 143.878H42.8571V146.939H45.9183V143.878Z" fill="#1E3138"/>
<path d="M52.0408 143.878H48.9796V146.939H52.0408V143.878Z" fill="#1E3138"/>
<path d="M61.2245 143.878H58.1633V146.939H61.2245V143.878Z" fill="#1E3138"/>
<path d="M64.2857 143.878H61.2245V146.939H64.2857V143.878Z" fill="#1E3138"/>
<path d="M76.5306 143.878H73.4694V146.939H76.5306V143.878Z" fill="#1E3138"/>
<path d="M82.6531 143.878H79.5919V146.939H82.6531V143.878Z" fill="#1E3138"/>
<path d="M85.7143 143.878H82.6531V146.939H85.7143V143.878Z" fill="#1E3138"/>
<path d="M88.7755 143.878H85.7143V146.939H88.7755V143.878Z" fill="#1E3138"/>
<path d="M91.8367 143.878H88.7755V146.939H91.8367V143.878Z" fill="#1E3138"/>
<path d="M97.9592 143.878H94.8979V146.939H97.9592V143.878Z" fill="#1E3138"/>
<path d="M104.082 143.878H101.02V146.939H104.082V143.878Z" fill="#1E3138"/>
<path d="M107.143 143.878H104.082V146.939H107.143V143.878Z" fill="#1E3138"/>
<path d="M113.265 143.878H110.204V146.939H113.265V143.878Z" fill="#1E3138"/>
<path d="M122.449 143.878H119.388V146.939H122.449V143.878Z" fill="#1E3138"/>
<path d="M125.51 143.878H122.449V146.939H125.51V143.878Z" fill="#1E3138"/>
<path d="M137.755 143.878H134.694V146.939H137.755V143.878Z" fill="#1E3138"/>
<path d="M33.6735 146.939H30.6122V150H33.6735V146.939Z" fill="#1E3138"/>
<path d="M36.7347 146.939H33.6735V150H36.7347V146.939Z" fill="#1E3138"/>
<path d="M39.7959 146.939H36.7347V150H39.7959V146.939Z" fill="#1E3138"/>
<path d="M42.8571 146.939H39.7959V150H42.8571V146.939Z" fill="#1E3138"/>
<path d="M48.9796 146.939H45.9183V150H48.9796V146.939Z" fill="#1E3138"/>
<path d="M64.2857 146.939H61.2245V150H64.2857V146.939Z" fill="#1E3138"/>
<path d="M67.3469 146.939H64.2857V150H67.3469V146.939Z" fill="#1E3138"/>
<path d="M76.5306 146.939H73.4694V150H76.5306V146.939Z" fill="#1E3138"/>
<path d="M85.7143 146.939H82.6531V150H85.7143V146.939Z" fill="#1E3138"/>
<path d="M91.8367 146.939H88.7755V150H91.8367V146.939Z" fill="#1E3138"/>
<path d="M94.898 146.939H91.8367V150H94.898V146.939Z" fill="#1E3138"/>
<path d="M97.9592 146.939H94.8979V150H97.9592V146.939Z" fill="#1E3138"/>
<path d="M101.02 146.939H97.9592V150H101.02V146.939Z" fill="#1E3138"/>
<path d="M107.143 146.939H104.082V150H107.143V146.939Z" fill="#1E3138"/>
<path d="M110.204 146.939H107.143V150H110.204V146.939Z" fill="#1E3138"/>
<path d="M113.265 146.939H110.204V150H113.265V146.939Z" fill="#1E3138"/>
<path d="M116.327 146.939H113.265V150H116.327V146.939Z" fill="#1E3138"/>
<path d="M122.449 146.939H119.388V150H122.449V146.939Z" fill="#1E3138"/>
<path d="M128.571 146.939H125.51V150H128.571V146.939Z" fill="#1E3138"/>
<path d="M134.694 146.939H131.633V150H134.694V146.939Z" fill="#1E3138"/>
<path d="M137.755 146.939H134.694V150H137.755V146.939Z" fill="#1E3138"/>
<path d="M140.816 146.939H137.755V150H140.816V146.939Z" fill="#1E3138"/>
<path d="M146.939 146.939H143.878V150H146.939V146.939Z" fill="#1E3138"/>
<path d="M150 146.939H146.939V150H150V146.939Z" fill="#1E3138"/>
<path d="M18.2216 0H0V21.4286H21.4286V0H18.2216ZM18.2216 18.2216H3.21429V3.21429H18.2216V18.2216Z" fill="#1E3138"/>
<path d="M146.793 0H128.571V21.4286H150V0H146.793ZM146.793 18.2216H131.786V3.21429H146.793V18.2216Z" fill="#1E3138"/>
<path d="M18.2216 128.571H0V150H21.4286V128.571H18.2216ZM18.2216 146.793H3.21429V131.786H18.2216V146.793Z" fill="#1E3138"/>
<path d="M15.3061 6.12244H6.12244V15.3061H15.3061V6.12244Z" fill="#1E3138"/>
<path d="M143.878 6.12244H134.694V15.3061H143.878V6.12244Z" fill="#1E3138"/>
<path d="M15.3061 134.694H6.12244V143.878H15.3061V134.694Z" fill="#1E3138"/>
</svg>
