<?xml version="1.0" encoding="utf-8"?>
<!-- Generator: Adobe Illustrator 26.2.1, SVG Export Plug-In . SVG Version: 6.00 Build 0)  -->
<svg version="1.1" id="图层_1" xmlns="http://www.w3.org/2000/svg" xmlns:xlink="http://www.w3.org/1999/xlink" x="0px" y="0px"
	 viewBox="0 0 396 132" style="enable-background:new 0 0 396 132;" xml:space="preserve">
<style type="text/css">
	.st0{fill:none;stroke:#121212;stroke-width:1.5;}
</style>
<path class="st0" d="M393.4,72.4l-27.2,13.5l26.7,41.1v0l0,0c0.3,0.4,0.4,0.9,0.4,1.4c0,0.5-0.2,1-0.4,1.4l-0.1,0.2l-0.2,0.1
	c-0.5,0.2-1,0.2-1.6,0.1c-0.4,0.1-0.8,0.1-1.2-0.1l0,0l0,0c-8.4-4.2-21.1-10.1-34.1-15.2c-13-5.1-26.2-9.5-35.4-10.9
	c-0.6-0.1-1.2-0.4-1.6-0.9c-0.4-0.5-0.6-1.1-0.6-1.7l0.2-22.8c-42.1-9.2-85.2-13.9-128.3-14l0,0c-43.1-0.5-86.1,3.5-128.3,12
	l-0.2,22.8c0,0,0,0,0,0c0,0.6-0.2,1.3-0.7,1.7c-0.4,0.5-1,0.8-1.7,0.8c-18.5,2.6-36.3,8-53,16.1l0,0l0,0c-0.4,0.1-0.8,0.2-1.2,0.1
	c-0.5,0.1-1,0.1-1.5-0.1L3,118l-0.1-0.2c-0.3-0.4-0.5-1-0.5-1.5c0-0.5,0.2-1,0.5-1.4l14.3-32.8L2.3,59.5c-0.4-0.5-0.7-1.1-0.7-1.7
	c0-0.7,0.3-1.3,0.8-1.8L2.5,56l0.1,0c9.6-5.6,20-9.9,30.9-12.6l0.2-21.2l0,0c0-0.5,0.2-1.1,0.5-1.5c0.3-0.4,0.8-0.7,1.3-0.9l0,0l0,0
	C85.7,6.2,137.8,0.2,189.9,1.9l1.1,0C242.7,1.2,294.2,8,343.8,22.1c0.5,0.1,1,0.5,1.4,0.9c0.3,0.4,0.5,1,0.5,1.5l-0.2,21.3
	c5.7,1.6,15.1,5.7,24.3,10.1c9.5,4.6,18.9,9.6,23.7,12.5l0.1,0l0.1,0.1c0.5,0.5,0.7,1.1,0.7,1.8c0,0.7-0.3,1.3-0.8,1.8l-0.1,0.1
	L393.4,72.4z M341.8,84.6c-6-1.7-12.2-3.3-18.3-4.7l-0.2,19.4c8.3,1.5,20.2,5.6,31.9,10.2c10.8,4.3,21.5,8.9,29,12.4L361,86.4l0-0.1
	l0-0.1c-0.2-0.4-0.2-0.8-0.2-1.2c0-0.4,0.1-0.8,0.3-1.2l0.1-0.2l0.2-0.1l26.4-12.4c-4.6-2.6-12.5-6.8-20.6-10.7
	c-8.3-4.1-16.7-7.8-21.7-9.4l-0.2,30.9c0.1,0.4,0,0.9-0.1,1.3c-0.2,0.5-0.5,0.8-0.9,1.1l-0.1,0l-0.1,0c-0.4,0.1-0.7,0.2-1.1,0.2
	C342.5,84.8,342.2,84.7,341.8,84.6z M320.9,74L320.9,74L320.9,74l19,4.6l0.4-52.3c-48.6-13.5-99.1-20-149.7-19.3l0,0l0,0l-0.6,0l0,0
	l0,0C139.4,5.6,88.9,11.3,40.1,24l-0.4,52.3l18.6-4.5l0.1,0l0.1,0l0.5,0c43-8.8,86.9-13,130.9-12.6C234,59.3,278,64.3,320.9,74z
	 M23,83.3l-12.9,27.2c14.6-6.3,30-10.8,45.8-13.4l0.2-19.4c-6.3,1.4-12.4,2.9-18.3,4.4l-0.1,0l-0.1,0l-0.5,0
	c-0.2,0.1-0.4,0.1-0.7,0.1c-0.3,0-0.6-0.1-0.8-0.2l0,0l0,0c-0.3-0.2-0.6-0.5-0.8-0.8c-0.2-0.3-0.3-0.7-0.3-1.1l0,0l0,0l0.3-31.3
	c-9,2.4-17.7,6-25.8,10.5L23,80.9l0,0l0,0c0.2,0.4,0.3,0.8,0.3,1.2C23.3,82.5,23.2,83,23,83.3z"/>
</svg>
