<?xml version="1.0" encoding="utf-8"?>
<!-- Generator: Adobe Illustrator 26.2.1, SVG Export Plug-In . SVG Version: 6.00 Build 0)  -->
<svg version="1.1" id="图层_1" xmlns="http://www.w3.org/2000/svg" xmlns:xlink="http://www.w3.org/1999/xlink" x="0px" y="0px"
	 viewBox="0 0 396 132" style="enable-background:new 0 0 396 132;" xml:space="preserve">
<style type="text/css">
	.st0{fill:url(#SVGID_1_);}
	.st1{fill:url(#SVGID_00000155825896995796096580000001627839424298550404_);}
	.st2{fill:#FF6FCA;}
	.st3{fill:#FFECC6;}
</style>
<linearGradient id="SVGID_1_" gradientUnits="userSpaceOnUse" x1="336.5618" y1="62.2834" x2="402.5148" y2="21.4708" gradientTransform="matrix(1 0 0 -1 0 131.89)">
	<stop  offset="0" style="stop-color:#D62B97"/>
	<stop  offset="0.224" style="stop-color:#FF18B1"/>
	<stop  offset="0.6615" style="stop-color:#F6EDDE"/>
</linearGradient>
<path class="st0" d="M337.2,75.4c0.1,0.4,0,0.7-0.2,1.1c-0.2,0.3-0.4,0.6-0.7,0.8c-0.2,0.1-0.4,0.1-0.6,0.1c-0.2,0-0.4,0-0.6-0.1
	h-0.6c-6.4-1.8-13-3.6-19.7-5.2v22.6c17,2.8,61.9,21.2,77.5,28.6l-27.9-40.4c-0.1-0.3-0.2-0.9-0.2-0.9s0.1-0.6,0.2-0.9
	c0.2-0.3,29.3-14.6,29.3-14.6c-8.8-5.4-46.7-22.7-56.6-25.5L337.2,75.4z"/>
<linearGradient id="SVGID_00000124153943150114956830000000108235294118602396_" gradientUnits="userSpaceOnUse" x1="-6.2629" y1="45.9336" x2="55.1013" y2="68.1557" gradientTransform="matrix(1 0 0 -1 0 131.89)">
	<stop  offset="2.083330e-02" style="stop-color:#F81E9F"/>
	<stop  offset="0.2917" style="stop-color:#FF18B1"/>
</linearGradient>
<path style="fill:url(#SVGID_00000124153943150114956830000000108235294118602396_);" d="M31.6,78c-0.2-0.2-0.4-0.4-0.6-0.6
	c-0.1-0.3-0.2-0.5-0.2-0.8V41.8c-9.9,2.8-19.4,6.9-28.2,12.3l15.2,24c0.1,0.3,0.2,0.6,0.2,0.9c0,0.3-0.1,0.6-0.2,0.9l-13.7,31
	c15.6-7.4,32.1-12.5,49.1-15.4V72.9c-6.7,1.6-13.3,3.4-19.9,5.2c-0.3,0.1-0.6,0.2-0.9,0.2C32.2,78.2,31.9,78.2,31.6,78z"/>
<path class="st2" d="M339.9,45.2V21.6C289.6,7.4,237.6,0.7,185.3,1.9h-0.6C132.5,0.7,80.4,7.3,30.2,21.6v57.9l19.9-5.3
	c44.3-10,89.6-15,135-14.8c45.1,0,90.1,5.1,134.2,15h0.6l20,5.3V45.2z"/>
<path class="st3" d="M104.8,41.3c0,0,0.3,0.8,1.2,1c0.3,0.1,0.7,0,1,0c0.3-0.1,0.6-0.2,0.9-0.4c0.3-0.2,0.5-0.5,0.7-0.7
	c0.2-0.3,0.3-0.6,0.3-0.9c0-0.7-0.2-1.5-0.5-2.2c-0.4-1-1.2-1.9-2.2-2.4c-1.2-0.4-2.6-0.6-3.9-0.6c-1.3,0.1-2.6,0.4-3.8,1
	c-2.9,1.2-5.5,3-7.6,5.2c-4.5,5.6-9.7,10.7-15.5,15c-3,2.1-6.4,3.6-10,4.3c-1.8,0.4-3.7,0.5-5.5,0.2c-1.8-0.3-3.6-1-5.1-2
	c-1.4-1.1-2.6-2.5-3.3-4.1c-0.7-1.6-1.1-3.4-0.9-5.2c0.1-1.6,0.6-3.2,1.5-4.6c0.9-1.4,2.1-2.5,3.5-3.3c1.2-0.8,2.6-1.3,4.1-1.5
	c1.5-0.1,2.9,0.2,4.2,0.9c1,0.7,1.8,1.6,2.3,2.8c0.5,1.1,0.6,2.4,0.4,3.6c-0.1,0.9-0.4,1.7-1,2.4c-0.5,0.7-1.2,1.3-2.1,1.6
	c-0.6,0.2-1.3,0.3-2,0.2c-0.4,0-0.8-0.2-1.1-0.6c-0.3-0.3-0.4-0.7-0.4-1.2c0.1-0.4,0.3-0.8,0.6-1.1c0.3-0.3,0.8-0.4,1.2-0.4
	c0.2,0,0.4-0.1,0.6-0.2c0,0,0.9-0.3,1.1-1.5c0.1-0.7,0.1-1.4-0.1-2c-0.2-0.6-0.6-1.2-1.2-1.6c-0.9-0.4-1.9-0.6-2.9-0.6
	s-2,0.3-2.9,0.8c-1.1,0.6-2.1,1.4-2.8,2.4c-0.7,1-1.2,2.3-1.3,3.5c-0.2,1.5,0,3,0.6,4.4c0.6,1.4,1.6,2.6,2.8,3.5
	c1.3,0.9,2.9,1.5,4.5,1.8c1.6,0.3,3.2,0.3,4.8-0.1c3.5-0.6,6.7-2,9.6-4c5.6-4.1,10.7-8.9,15.1-14.4c2.2-2.5,5-4.5,8-5.8
	c1.4-0.8,2.9-1.2,4.4-1.3c1.5-0.1,3.1,0.1,4.6,0.6c1.3,0.7,2.3,1.8,3,3.1c0.6,1.2,0.9,2.5,0.9,3.8c-0.2,1.3-0.8,2.5-1.8,3.3
	l-0.9,0.5l-0.6,0.2c-0.5,0.3-1,0.5-1.5,0.6c-0.9,0-1.8-0.3-2.6-0.9s-1.3-1.4-1.5-2.3c-0.1-0.6,0-1.3,0.1-1.9l0,0
	c0.2-0.4,0.5-0.7,0.9-0.8c0.4-0.1,0.8-0.1,1.2,0c0.4,0.2,0.7,0.5,0.8,0.9c0.1,0.4,0.1,0.8-0.1,1.2L104.8,41.3z"/>
<path class="st3" d="M78.6,42l0.8-1.2l2.7-2c2.9-2.5,6.2-4.4,9.7-5.7c1.9-0.7,3.8-1,5.8-1.2c1.7-0.1,3.4,0,5,0.4
	c0.6,0.2,1.3,0.4,1.9,0.6c0.5,0.2,0.9,0.4,1.3,0.7l1.2,0.6l-1.2-0.4c-0.5-0.2-1-0.4-1.5-0.5c-0.6-0.2-1.2-0.3-1.9-0.3
	c-1.6-0.2-3.2-0.2-4.8,0.1c-1.8,0.4-3.5,1-5.1,1.8c-3,1.7-5.6,3.8-7.9,6.3l-2.1,2.5l-0.9,1.1c-0.2,0.3-0.4,0.5-0.6,0.7
	c-0.3,0.2-0.6,0.3-0.9,0.3c-0.3,0-0.6,0-0.9,0c-0.3-0.1-0.6-0.2-0.8-0.4c-0.2-0.2-0.4-0.4-0.6-0.7c-0.1-0.3-0.2-0.6-0.2-0.9
	s0-0.6,0.1-0.9c0.1-0.3,0.3-0.6,0.5-0.8L78.6,42z"/>
<path class="st3" d="M47.1,49.2c-0.1-0.4-0.2-0.7-0.4-1c0,0-0.2-0.6-0.4-1.1c-0.4-0.5-0.8-1.1-1.1-1.7c-0.1-0.6,0-1.2,0-1.8
	c0-0.8,0.1-1.5,0.4-2.2c0.3-0.8,0.7-1.6,1.1-2.3c0.5-0.7,1.1-1.4,1.7-2c1.2-1,2.6-1.7,4-2.1c1.5-0.4,3-0.5,4.5-0.2
	c1,0.2,1.9,0.5,2.7,1l1,0.6l-1,0.4c-0.9-0.1-1.8,0-2.6,0.1c-2.3,0.4-4.4,1.4-6.2,2.9L49.7,41c-0.4,0.4-0.7,0.9-1,1.4
	c-0.3,0.6-0.5,1.2-0.6,1.9c-0.2,0.5-0.4,1-0.4,1.6c-0.2,0.8-0.3,1.7-0.3,2.6C47.3,48.7,47.2,49,47.1,49.2L47.1,49.2z"/>
<path class="st3" d="M276,40.4c0.2,0.5,0.3,1.1,0.2,1.7c-0.2,0.9-0.7,1.7-1.4,2.3c-0.7,0.6-1.6,0.9-2.6,0.9
	c-0.6-0.1-1.1-0.3-1.6-0.6l-0.7-0.3l-0.9-0.3c-1-0.8-1.6-2-1.8-3.3c-0.1-1.3,0.2-2.7,0.9-3.8c0.7-1.3,1.7-2.4,3.1-3
	c1.5-0.5,3-0.7,4.5-0.6c1.5,0.1,3,0.6,4.4,1.3c3,1.4,5.8,3.4,8,5.9c4.4,5.5,9.5,10.4,15.1,14.5c2.8,2,6.1,3.4,9.5,3.9
	c1.6,0.4,3.3,0.4,4.9,0.1c1.6-0.3,3.2-1,4.6-1.9c1.2-0.9,2.1-2.1,2.7-3.4c0.6-1.4,0.8-2.8,0.6-4.3c-0.1-1.3-0.6-2.5-1.3-3.5
	c-0.7-1-1.7-1.9-2.8-2.4c-0.9-0.5-1.8-0.8-2.8-0.8s-2,0.2-2.9,0.6c-0.5,0.4-0.9,1-1.1,1.6c-0.2,0.6-0.3,1.3-0.2,2
	c0.3,1.1,0.9,1.5,1.2,1.5l0.6,0.2c0.4,0,0.8,0.1,1.2,0.4c0.3,0.3,0.5,0.6,0.6,1.1c0,0.4-0.1,0.8-0.4,1.2c-0.3,0.3-0.6,0.5-1.1,0.6
	c-0.6,0.1-1.2,0-1.8-0.2c-0.6-0.2-1.1-0.5-1.6-0.9c-0.5-0.4-0.9-0.9-1.1-1.4s-0.4-1.1-0.5-1.8c-0.2-1.2,0-2.5,0.5-3.6
	c0.5-1.1,1.3-2.1,2.3-2.8c1.2-0.8,2.7-1.2,4.2-1.1c1.5,0.2,2.8,0.7,4.1,1.5c1.4,0.8,2.6,1.9,3.5,3.3c0.9,1.4,1.4,2.9,1.5,4.6
	c0.2,1.8-0.2,3.6-0.9,5.2c-0.7,1.6-1.9,3.1-3.4,4.1c-1.6,1-3.3,1.7-5.1,2c-1.8,0.3-3.7,0.2-5.5-0.2c-3.6-0.7-7-2.2-10-4.3
	c-5.5-4.3-10.5-9.3-14.8-14.8c-2.1-2.4-4.7-4.3-7.6-5.6c-1.2-0.6-2.5-0.9-3.8-1c-1.3-0.1-2.6,0.1-3.9,0.6c-1,0.5-1.8,1.4-2.2,2.4
	c-0.4,0.9-0.6,2-0.5,3c0,0.3,0.2,0.7,0.3,0.9c0.2,0.3,0.4,0.5,0.7,0.7c0.3,0.2,0.6,0.3,0.9,0.4c0.3,0.1,0.7,0.1,1,0
	c1.1-0.2,1.4-1,1.3-1c-0.1-0.2-0.2-0.4-0.2-0.6c0-0.2,0-0.4,0-0.7c0.1-0.2,0.2-0.4,0.3-0.6c0.1-0.2,0.3-0.3,0.5-0.4
	c0.2-0.1,0.4-0.2,0.6-0.2c0.2,0,0.4,0,0.7,0.1c0.2,0.1,0.4,0.2,0.6,0.3c0.2,0.1,0.3,0.3,0.4,0.5L276,40.4z"/>
<path class="st3" d="M296.1,45l-0.8-1.1l-2.1-2.5c-2.3-2.5-4.9-4.7-7.9-6.3c-1.6-0.8-3.3-1.4-5.1-1.8c-1.6-0.2-3.2-0.3-4.8-0.1
	c-0.6,0.1-1.3,0.2-1.9,0.3l-1.4,0.5l-1.2,0.4l1.2-0.6c0.4-0.3,0.9-0.5,1.4-0.7c0.6-0.3,1.3-0.6,1.9-0.8c1.7-0.5,3.4-0.7,5.1-0.6
	c2,0.1,3.9,0.5,5.8,1.2c3.5,1.3,6.7,3.2,9.5,5.6c1.2,0.9,2.2,1.8,2.8,2.3l1,1c0.2,0.2,0.4,0.4,0.5,0.7c0.1,0.3,0.2,0.5,0.2,0.8
	c0,0.3,0,0.6-0.2,0.8c-0.1,0.3-0.3,0.5-0.5,0.7c-0.4,0.4-0.9,0.7-1.5,0.7c-0.6,0-1.1-0.2-1.6-0.6c0,0-0.1,0-0.1,0
	C296.2,45,296.1,45,296.1,45L296.1,45z"/>
<path class="st3" d="M330.8,49.2c-0.1-0.4-0.1-0.7-0.1-1.1c0-0.9-0.2-1.7-0.3-2.6l-0.6-1.2l-0.6-1.9c-0.3-0.5-0.6-1-1-1.4l-1.3-1.2
	c-2.6-1.9-5.7-3-8.9-3.2l-1-0.4l0.9-0.6c0.8-0.5,1.8-0.9,2.7-1c1.5-0.2,3.1-0.1,4.6,0.3c1.5,0.4,2.9,1.2,4,2.2
	c0.7,0.6,1.2,1.2,1.7,2c0.5,0.7,0.8,1.5,1.1,2.3c0.3,0.7,0.4,1.5,0.4,2.3c0.1,0.6,0.1,1.2,0,1.8c-0.2,0.5-0.4,1.1-0.6,1.6
	c-0.1,0.4-0.2,0.8-0.4,1.1C331,48.8,330.8,49.2,330.8,49.2z"/>
</svg>
