<svg width="119" height="113" viewBox="0 0 119 113" fill="none" xmlns="http://www.w3.org/2000/svg">
<path d="M50.7094 47.2292C48.6768 45.2222 46.9062 42.9749 45.3704 40.5905C43.8257 38.2061 42.5158 35.6672 41.5582 32.9826C39.634 27.6562 39.3991 21.5064 41.8021 16.1113C42.9494 13.4181 44.6477 10.9565 46.6803 8.82077C48.7039 6.67649 51.0436 4.77236 53.6905 3.28852C58.9572 0.286521 65.6513 -0.682696 71.6407 1.04989C74.6399 1.88187 77.4042 3.4086 79.7349 5.38992C82.0115 7.41412 83.8995 9.90149 84.9203 12.7319C85.9953 15.5367 86.2573 18.5901 85.8056 21.4978C85.6069 22.9645 85.1823 24.3797 84.6854 25.7263C84.1705 27.193 83.3484 28.4796 82.3999 29.6632C80.4667 32.0048 77.7023 33.7803 74.676 34.475C73.1764 34.8781 71.6316 34.9725 70.114 34.9896C69.3461 34.9896 68.5692 34.8695 67.8013 34.8009L66.6631 34.5093C66.2836 34.4235 65.9042 34.3206 65.5609 34.1319C62.6069 32.9654 60.6646 30.1779 60.2581 27.3645C60.0142 25.9579 60.0232 24.5084 60.3755 23.1274C60.7369 21.7723 61.3602 20.3913 62.5527 19.5422C61.4596 20.4943 60.9989 21.8752 60.7821 23.2046C60.5472 24.5512 60.6375 25.9322 60.9718 27.2359C61.568 29.8691 63.4832 32.142 66.0668 32.9654C66.374 33.1027 66.6992 33.1798 67.0425 33.2399L68.0362 33.4457C68.7318 33.4629 69.4093 33.5401 70.0959 33.5144C71.4871 33.4286 72.8873 33.2828 74.1882 32.8539C76.817 32.1077 79.1116 30.5295 80.7016 28.4538C81.4785 27.4074 82.147 26.2581 82.5083 25.0659C82.9329 23.7793 83.2942 22.5099 83.4298 21.2147C83.773 18.6244 83.4749 15.9913 82.4902 13.5897C81.5688 11.1709 79.9337 9.01805 77.9372 7.27689C75.8956 5.57861 73.4745 4.25774 70.8547 3.54583C65.6332 1.99337 59.7703 2.79105 54.9824 5.42423C52.5613 6.7108 50.3751 8.40907 48.451 10.3647C46.5358 12.3117 44.9007 14.5074 43.7534 16.9262C41.4046 21.7551 41.2781 27.4074 42.8229 32.6395C44.2954 37.9144 47.1501 42.8549 50.7004 47.2549L50.7094 47.2292Z" fill="#EDE1B7"/>
<path d="M79.7982 7.19963C81.876 10.0644 84.6674 12.5346 87.9648 13.9241C89.6089 14.6103 91.3524 15.0563 93.1321 15.0906C93.5747 15.1249 94.0174 15.0563 94.46 15.0391L95.1195 15.0048C95.3363 14.9705 95.5531 14.9191 95.7699 14.8847L97.0708 14.636L98.3355 14.2329C99.9887 13.6496 101.579 12.8777 102.834 11.7627C104.09 10.6648 105.057 9.2753 105.481 7.73999C105.707 6.97662 105.806 6.18753 105.779 5.41558C105.734 4.66079 105.554 3.8717 105.219 3.36565C105.138 3.24557 105.057 3.12549 104.984 3.09976C104.957 3.03972 104.777 2.9711 104.632 2.90248C104.334 2.80813 104.027 2.74809 103.711 2.76525C103.069 2.80813 102.401 3.09118 101.823 3.55434C100.621 4.44637 99.8623 5.91306 99.5461 7.40548C99.2389 8.91506 99.4106 10.5104 100.016 12.0028C100.63 13.4867 101.633 14.859 102.88 16.0341C104.09 17.2263 105.544 18.1612 107.18 18.6587C110.45 19.6965 114.325 18.4786 116.575 15.8625C117.713 14.576 118.418 12.9206 118.427 11.2223C118.463 9.50688 117.614 7.84291 116.367 6.56492C117.704 7.75714 118.707 9.39538 118.815 11.2137C118.96 13.0149 118.282 14.8419 117.144 16.2914C114.903 19.2248 110.703 20.8716 106.818 19.8938C104.903 19.4306 103.16 18.4271 101.741 17.1748C100.305 15.9569 99.0582 14.4645 98.2271 12.7233C96.5017 9.30103 97.0527 4.5836 100.495 1.96757C101.344 1.33286 102.437 0.869699 103.647 0.835391C104.253 0.826814 104.858 0.946893 105.418 1.1699C105.897 1.34144 106.638 1.90753 106.872 2.39643C107.966 4.40348 107.713 6.39338 107.162 8.22031C106.574 10.0558 105.364 11.6683 103.873 12.8777C102.383 14.1214 100.567 14.8847 98.7511 15.4251L97.378 15.7939L95.9506 15.9998C95.7157 16.0341 95.4809 16.077 95.2369 16.0941H94.5143C94.0355 16.0941 93.5567 16.1456 93.0779 16.0941C91.1627 15.9655 89.3108 15.3994 87.6395 14.5845C84.297 12.9034 81.6772 10.2102 79.8072 7.21678L79.7982 7.19963Z" fill="#EDE1B7"/>
<path d="M60.4839 23.7193C60.4839 23.7193 60.7369 16.9347 68.0362 17.801C75.3265 18.6673 69.861 26.4554 66.2114 22.1325C62.5617 17.801 60.4839 23.7278 60.4839 23.7278V23.7193Z" fill="#EDE1B7"/>
<path d="M118.634 11.3083C118.634 11.3083 119.447 7.44855 115.265 5.58731C111.082 3.72607 111.218 9.6443 114.696 8.48638C118.174 7.32847 118.634 11.3083 118.634 11.3083V11.3083Z" fill="#EDE1B7"/>
<path d="M41.0523 38.2489C36.7251 35.0925 32.949 31.2071 30.1214 26.6869C27.348 22.1668 25.7581 16.7374 26.4898 11.3253C26.8241 8.64919 27.7546 5.87878 29.7601 3.62299C31.7475 1.38435 35.081 0.0120129 38.288 0.595258C39.8689 0.886881 41.4227 1.60736 42.5248 2.84247C43.6179 4.07758 44.0877 5.82731 43.7173 7.31116C43.654 7.67997 43.5276 8.04879 43.392 8.40045C43.2385 8.83789 43.0307 9.08662 42.8139 9.3954C42.3803 9.97865 41.8653 10.519 41.233 10.9479C40.6006 11.3681 39.8147 11.6512 39.0378 11.6426C38.2518 11.6426 37.5562 11.3596 36.969 10.9993L37.0955 10.7677C39.7966 11.797 41.7298 9.02659 41.8111 7.07957C41.9737 4.90956 40.0857 3.36567 37.8634 3.1684C35.6682 2.93682 33.3645 3.74307 31.7565 5.36415C30.1033 6.95092 29.0825 9.24101 28.6489 11.6512C27.7365 16.4887 28.8838 21.6007 31.3229 26.0779C33.7259 30.5895 37.1678 34.6722 41.2149 38.0516L41.0523 38.2575V38.2489Z" fill="#EDE1B7"/>
<path d="M26.9054 25.6833C25.0896 24.0794 23.4997 22.261 22.0362 20.3398C20.6179 18.3928 19.3622 16.2914 18.4498 14.0098C17.5464 11.754 16.7785 9.21522 17.2844 6.65065C17.7632 4.11182 19.2628 1.75311 21.4309 0.406494L21.6387 0.56946C21.187 1.71022 20.7624 2.75663 20.4733 3.81162C20.2204 4.87518 20.0397 5.91302 19.9945 6.95943C19.9403 9.02652 19.9132 11.2051 20.5275 13.3751C21.1147 15.528 22.0542 17.638 23.2015 19.6536C24.3127 21.695 25.6407 23.642 27.1041 25.5032L26.9054 25.6833V25.6833Z" fill="#EDE1B7"/>
<path d="M49.797 48.0955C45.1627 44.7246 39.9682 42.0143 34.4125 40.6162C28.9018 39.1495 22.9486 39.2696 17.8626 41.4996C15.315 42.5889 13.0024 44.1328 10.9517 45.9597C8.90105 47.7867 7.11236 49.8709 5.74826 52.161C2.97489 56.7069 2.12572 62.2735 3.76986 67.2311C4.51967 69.727 5.91087 72.0257 7.69956 73.9555C9.53342 75.8511 11.8009 77.395 14.3484 78.2784C16.8779 79.2133 19.6513 79.4964 22.3795 79.1704C23.7436 79.0418 25.0806 78.6987 26.4356 78.2956C27.6913 77.9525 28.9018 77.3178 30.004 76.5801C32.1901 75.0706 33.8524 72.892 34.6383 70.396C35.081 69.1609 35.2436 67.84 35.3339 66.5106C35.361 65.8501 35.2797 65.2068 35.2616 64.555L35.0448 63.6115C34.9816 63.2941 34.9093 62.9768 34.7557 62.6852C33.8975 60.2407 31.4945 58.4138 28.7212 57.8477C27.348 57.5303 25.8936 57.4531 24.4753 57.6675C23.0751 57.8734 21.6206 58.3108 20.6179 59.3487C21.5122 58.2165 22.9667 57.6247 24.394 57.2816C25.8484 56.9471 27.3751 56.9385 28.8567 57.1701C31.8288 57.556 34.7648 59.4001 35.9843 62.2048C36.1831 62.5394 36.2824 62.891 36.3818 63.2513L36.689 64.332C36.7612 65.061 36.8787 65.7987 36.8877 66.5277C36.8696 67.9687 36.7703 69.4354 36.3457 70.8592C35.6139 73.7325 33.744 76.3486 31.2777 78.1926C30.0311 79.1018 28.676 79.8738 27.1312 80.3627C25.7129 80.8344 24.2223 81.2375 22.6776 81.4262C19.6151 81.8551 16.3991 81.6063 13.445 80.5857C10.4639 79.6164 7.83507 77.8238 5.71213 75.6624C3.62532 73.4495 2.02634 70.8249 1.14103 67.9773C-0.683792 62.2906 0.337026 55.935 3.49885 50.9345C5.06169 48.4214 7.06719 46.1999 9.32564 44.2786C11.5751 42.3488 14.1677 40.7363 17.0044 39.6384C22.6866 37.3569 29.1638 37.5799 34.7738 39.4068C37.6014 40.316 40.2754 41.5597 42.7868 43.0264C45.2982 44.4845 47.665 46.1656 49.7789 48.0955H49.797Z" fill="#EDE1B7"/>
<path d="M7.63631 75.7139C10.7981 77.4979 13.6257 79.9767 15.3963 83.1503C16.2545 84.737 16.8508 86.4954 16.9863 88.3137C17.0405 88.7683 16.9863 89.2229 17.0043 89.6775V90.3636C16.9682 90.5867 16.923 90.8097 16.8959 91.0412L16.6791 92.3964L16.2907 93.7002C15.7215 95.4242 14.9175 97.1396 13.6076 98.5634C12.3248 99.9872 10.6355 101.137 8.7023 101.685C6.7781 102.209 4.68227 102.449 2.56836 101.411C2.05344 101.188 1.45721 100.485 1.27653 100.03C1.04165 99.4983 0.906145 98.9236 0.924213 98.349C0.960348 97.1996 1.44817 96.1704 2.11667 95.3555C4.87198 92.0877 9.83152 91.5645 13.445 93.2027C15.2789 93.9918 16.8417 95.1754 18.1336 96.5392C19.4525 97.8858 20.5095 99.5412 20.9973 101.36C22.0362 105.048 20.2926 109.036 17.2031 111.163C15.6764 112.244 13.7522 112.879 11.8551 112.75C9.93993 112.656 8.21448 111.695 6.95878 110.426C8.30481 111.609 10.0574 112.415 11.8641 112.381C13.6528 112.381 15.3963 111.704 16.7514 110.623C19.5067 108.487 20.7805 104.808 19.6964 101.703C19.1725 100.15 18.1968 98.7692 16.9321 97.6199C15.6944 96.4448 14.249 95.4842 12.6862 94.901C11.1234 94.3263 9.43404 94.1633 7.84409 94.4549C6.28125 94.7551 4.73647 95.4756 3.78792 96.6164C3.3001 97.1653 3.00198 97.8 2.95681 98.409C2.93875 98.7092 3.00198 99.0008 3.10135 99.2839C3.17362 99.4125 3.24589 99.5926 3.30913 99.6184C3.33623 99.687 3.46271 99.7642 3.58918 99.8414C4.12217 100.167 4.95328 100.33 5.74825 100.373C6.56129 100.399 7.3924 100.305 8.19641 100.09C9.81345 99.687 11.2769 98.7778 12.4333 97.577C13.6076 96.3848 14.4207 94.8752 15.035 93.3056L15.4596 92.1048L15.7215 90.8697C15.7667 90.6639 15.8209 90.458 15.848 90.2521L15.8842 89.626C15.8932 89.2057 15.9655 88.7855 15.9384 88.3652C15.9022 86.6755 15.4325 85.0201 14.7098 83.4591C13.2463 80.3284 10.6446 77.6781 7.62728 75.7053L7.63631 75.7139Z" fill="#EDE1B7"/>
<path d="M25.0354 57.376C25.0354 57.376 17.8896 57.6161 18.802 64.5465C19.7145 71.4682 27.9171 66.2791 23.3641 62.8139C18.802 59.3487 25.0444 57.376 25.0444 57.376H25.0354Z" fill="#EDE1B7"/>
<path d="M11.9635 112.587C11.9635 112.587 7.89832 113.359 5.93799 109.388C3.97765 105.417 10.211 105.545 8.9914 108.847C7.77184 112.15 11.9635 112.587 11.9635 112.587V112.587Z" fill="#EDE1B7"/>
<path d="M40.1218 39.0894C36.5534 35.2383 32.2534 31.979 27.5106 29.6974C22.795 27.3816 17.4109 26.2923 12.3158 27.1586C9.78634 27.5703 7.37432 28.5309 5.69404 30.1091C3.98666 31.6273 3.12845 33.8145 3.38139 35.9073C3.5982 38.0173 5.21525 39.8099 7.5008 39.6555C9.5605 39.5783 12.4694 37.7428 11.3853 35.1782L11.6292 35.0581C12.0087 35.6157 12.3158 36.2761 12.3068 37.0223C12.3158 37.7599 12.0177 38.5062 11.575 39.1066C11.1233 39.707 10.5542 40.1958 9.93992 40.6075C9.6147 40.8134 9.35272 41.0021 8.892 41.1565C8.51258 41.2851 8.13316 41.4052 7.74471 41.4653C6.1909 41.8169 4.33897 41.3709 3.03811 40.3331C1.72821 39.2867 0.978406 37.8114 0.671257 36.3104C0.0569599 33.2655 1.50237 30.1006 3.86018 28.2136C6.23607 26.3095 9.16301 25.426 11.9725 25.1087C17.6728 24.4139 23.3912 25.9235 28.152 28.5567C32.9219 31.2499 37.0142 34.8266 40.3296 38.935L40.1128 39.0894H40.1218Z" fill="#EDE1B7"/>
<path d="M26.9144 25.6833C24.9631 24.2853 22.9034 23.033 20.7534 21.978C18.6304 20.8887 16.4081 19.9967 14.1406 19.4392C11.8551 18.8559 9.56955 18.8902 7.38338 18.9331C6.28126 18.976 5.18817 19.1476 4.06798 19.3877C2.95682 19.6622 1.8547 20.0567 0.653209 20.4942L0.481567 20.2969C1.89987 18.2384 4.38416 16.8146 7.05816 16.36C9.75926 15.8711 12.4333 16.6087 14.8091 17.4664C17.2121 18.3327 19.4164 19.5249 21.4761 20.8716C23.4996 22.2611 25.4148 23.7706 27.1041 25.4946L26.9144 25.6833V25.6833Z" fill="#EDE1B7"/>
<path d="M33.3917 31.6531C33.3917 31.6531 35.2165 35.1182 35.2165 36.8508L45.244 42.9063L39.7695 33.3857C39.7695 33.3857 35.2075 33.3857 33.3917 31.6531Z" fill="#EDE1B7"/>
<path d="M13.7883 3.5201C9.22624 5.25268 2.84839 2.65381 2.84839 2.65381C2.84839 2.65381 5.58562 8.70927 3.7608 13.0407C3.7608 13.0407 11.9635 12.1744 17.4379 16.5059C12.8759 11.3081 13.7883 3.5201 13.7883 3.5201V3.5201Z" fill="#EDE1B7"/>
</svg>
