<svg width="378" height="517" viewBox="0 0 378 517" fill="none" xmlns="http://www.w3.org/2000/svg">
<path d="M369.437 219.662C368.44 225.86 359.875 229.125 354.084 227.477C343.057 224.018 355.798 220.302 358.693 216.487C361.588 212.673 359.218 204.086 353.389 208.489C350.643 210.525 352.406 213.248 351.128 215.623C349.465 219.362 346.433 222.324 342.655 223.901C342.911 217.095 344.447 210.397 347.183 204.158C349.118 200.256 352.963 188.822 343.548 190.433C336.266 191.689 340.877 200.857 341.16 205.147C341.745 212.161 340.322 219.197 337.058 225.434C334.065 219.064 328.413 213.771 326.804 206.764C325.952 203.041 327.412 192.703 319.739 194.907C307.859 198.372 338.679 221.49 333.71 229.414C330.134 235.129 300.47 200.861 298.875 215.544C298.144 222.198 306.357 221.505 310.153 222.267C318.277 223.902 324.156 228.829 329.871 234.572C324.013 235.212 306.047 226.968 305.622 235.703C305.406 240.572 310.186 241.047 313.473 240.522C318.387 239.331 323.466 238.978 328.497 239.478C324.279 247.917 318.617 243.961 313.246 248.331C312.454 248.912 311.822 249.684 311.408 250.574C310.994 251.464 310.812 252.444 310.878 253.423C310.943 254.402 311.255 255.349 311.785 256.176C312.314 257.002 313.043 257.682 313.906 258.151C319.55 261.244 322.242 252.383 325.378 249.165C327.58 246.754 333.989 239.645 337.249 244.068C339.836 247.785 329.262 262.483 337.097 263.469C342.587 264.204 341.787 239.473 343.185 234.994C345.261 238.56 349.038 241.664 350.007 245.787C350.975 249.91 347.971 255.525 354.081 256.78C366.402 259.294 351.09 239.998 349.741 237.32C364.317 240.579 376.17 258.548 383.919 270.005C387.122 275.146 390.244 280.242 393.065 285.561C393.632 295.408 403.324 306.198 406.492 315.687C410.396 326.776 413.69 338.071 416.36 349.521C417.042 352.659 419.344 376.585 421.379 375.891C426.891 373.95 420.715 354.492 419.62 349.705C414.329 326.141 405.94 303.382 394.671 282.022C385.036 263.872 369.753 240.896 350.827 231.197C355.637 232.23 359.899 230.353 364.514 229.575C368.148 228.982 374.958 231.034 377.901 229.675C389.498 224.324 370.805 210.953 369.437 219.662Z" fill="#121212"/>
<path d="M108.589 471.716C116.937 463.24 122.255 461.322 133.753 458.836C145.251 456.351 155.085 450.68 166.434 446.769C160.643 444.319 150.384 447.845 145.671 444.28C138.018 438.536 143.714 431.501 151.286 430.327C161.53 428.808 166.599 439.779 175.527 441.647C185.269 443.679 200.338 437.749 209.479 435.083C204.348 427.568 188.321 431.241 183.364 423.175C177.066 413.03 189.913 414.256 196.184 416.866C205.427 420.846 211.827 431.227 220.003 434.183C228.178 437.139 252.087 428.43 260.397 426.808C254.989 422.578 236.444 419.676 241.388 409.49C245.439 401.167 256.524 407.345 261.157 411.434C267.722 417.229 269.142 424.157 278.688 425.745C288.235 427.333 305.589 423.974 315.685 422.064C311.23 419.726 298.469 415.704 298.306 409.077C298.008 403.59 302.973 401.375 307.309 402.046C313.109 402.924 314.825 410.067 317.708 413.998C322.432 420.463 324.846 421.528 332.105 423.516C345.005 427.097 360.065 425.374 373.47 427.94C378.547 428.862 404.192 432.63 391.405 436.993C387.581 438.309 377.21 434.124 373.639 433.33C365.538 431.534 357.342 430.191 349.09 429.309C337.331 428.267 320.05 424.663 309.161 429.807C300.679 433.816 298.575 447.212 290.27 449.768C272.5 455.251 292.272 435.334 292.709 432.369C293.593 426.238 285.974 429.428 281.634 429.892C274.562 430.72 265.554 430.176 258.951 432.269C245.846 436.458 252.143 447.17 241.874 453.069C231.606 458.967 236.742 446.923 235.513 442.709C233.997 437.511 236.075 438.106 228.353 437.622C218.133 436.931 210.621 444.495 205.857 452.092C203.852 455.18 203.748 462.152 198.171 461.81C192.594 461.467 192.474 457.964 192.353 454.228C192.078 446.299 203.033 440.234 187.436 444.582C174.302 448.212 169.462 455.664 161.436 465.815C157.993 470.156 152.742 478.83 146.051 473.639C140.564 469.366 146.703 463.737 148.875 459.733C139.615 461.532 134.431 468.718 127.006 473.72C123.571 476.024 118.101 480.055 113.762 478.918C110.335 478.048 105.243 475.128 108.589 471.716Z" fill="#121212"/>
<path d="M304.955 141.581C312.97 141.971 320.606 145.106 326.58 150.46C331.648 155.356 333.084 161.312 339.303 164.771C337.502 160.657 336.961 134.984 344.341 140.708C355.032 148.97 340.001 167.738 349.502 174.78C348.81 166.736 351.063 158.715 355.842 152.205C362.748 142.448 362.323 147.745 362.834 156.14C363.442 166.242 361.885 170.634 358.384 179.699C356.472 184.595 357.163 184.56 360.921 188.971C362.308 190.636 366.343 197.602 368.874 197.231C367.748 189.249 369.866 165.136 377.628 183.965C379.906 189.433 380.218 195.522 378.512 201.195C377.47 204.837 376.394 205.384 377.958 208.799C380.464 211.994 383.393 214.834 386.665 217.24C391.447 221.386 397.936 226.802 404.262 228.228C405.536 228.774 406.927 228.987 408.306 228.848C409.685 228.708 411.006 228.221 412.145 227.431C415.329 224.266 411.216 223.33 412.044 220.786C413.901 215.705 417.967 220.026 417.784 224.552C417.439 231.728 409.147 233.412 403.414 231.846C399.106 230.7 395.451 226.526 391.2 226.264C386.949 226.002 377.43 232.182 372.928 227.621C368.425 223.06 382.911 223.608 384.422 221.232C385.933 218.855 380.302 214.891 377.869 212.73C372.32 207.674 371.873 210.607 364.23 210.967C358.318 211.287 352.447 209.825 347.377 206.771C341.172 202.44 346.489 201.09 352.52 199.898C358.551 198.707 364.122 201.32 369.907 203.638C366.861 199.721 358.716 185.075 353.879 184.75C351.117 184.554 346.461 189.316 343.573 190.292C338.573 191.85 333.269 192.172 328.117 191.229C322.287 190.359 311.037 189.001 320.471 183.446C325.038 180.927 330.093 179.416 335.294 179.016C340.495 178.616 345.721 179.337 350.619 181.129C346.405 173.78 340.821 174.441 333.439 175.125C327.523 175.593 321.571 175.073 315.826 173.587C309.114 171.873 307.715 167.075 315.795 165.353C324.559 163.884 333.561 165.436 341.324 169.755C336.538 160.672 327.783 162.257 319.965 158.697C316.566 157.118 298.727 141.295 304.955 141.581Z" fill="#121212"/>
<path d="M341.698 30.3077C339.3 30.6734 343.84 43.033 339.931 44.1729C337.992 44.7384 338.134 39.1568 336.506 38.497C334.877 37.8372 337.659 48.4065 337.687 49.5331C337.369 54.3641 336.413 59.1319 334.843 63.7124C331.392 62.4159 325.959 42.6408 324.14 38.4654C322.073 34.3575 320.775 29.9065 320.31 25.3316C320.028 21.2752 321.045 17.7749 318.916 14.0238C318.181 17.5754 320.488 27.3156 315.27 25.8001C312.862 25.1007 310.24 13.0164 306.775 16.5966C304.927 18.5039 325.902 44.3928 325.76 49.9744C324.715 48.9108 308.753 35.7441 306.767 39.1267C305.423 41.3877 317.264 46.3781 318.866 47.7466C323.84 52.2479 327.785 57.7679 330.432 63.9309C332.667 68.6189 336.892 75.6635 337.647 80.8836C338.401 86.1036 338.43 85.8614 333.614 84.4625C325.349 82.0004 322.238 68.3564 318.351 62.014C317.903 61.2772 312.457 53.2535 313.451 58.0365C314.431 63.4577 321.025 66.3738 320.552 72.6527C315.435 67.7037 309.112 64.3416 303.684 59.8168C304.425 64.0731 317.365 70.3116 316.972 72.6289C316.197 76.7264 308.385 70.8948 306 70.3888C297.192 68.5856 301.044 71.834 306.589 73.5544C312.133 75.2749 319.112 75.8429 323.816 79.3771C327.052 81.7707 328.318 84.7388 332.047 86.9889C335.112 88.7981 339.458 89.4999 342.14 92.0551C343.499 93.3942 352.053 111.959 350.52 113.574C347.805 116.402 332.054 107.512 329.43 105.04C322.023 98.4227 317.702 91.5062 308.716 86.1169C312.528 94.1497 322.331 96.7308 325.324 105.503C322.987 104.016 303.854 93.3756 302.677 98.1576C301.789 100.953 319.77 105.354 321.557 108.504C326.577 118.388 313.055 111.184 310.395 114.43C316.486 119.628 323.757 113.87 330.377 114.242C333.214 114.349 343.935 114.927 344.895 118.218C346.27 124.993 328.954 124.135 326.886 125.173C320.513 128.399 329.568 127.728 332.868 127.133C337.939 126.087 346.207 118.937 350.433 119.573C355.951 120.401 360.593 132.997 363.345 137.167C367.996 144.701 373.878 151.402 380.748 156.989C384.218 159.615 397.483 167.194 391.401 157.22C389.837 154.606 383.796 151.295 381.603 148.93C378.897 145.76 376.395 142.421 374.112 138.933C370 133.191 359.868 122.496 358.646 115.443C355.489 97.4066 388.526 108.43 390.325 96.3916C391.099 91.2598 382.194 98.396 380.352 99.0666C375.222 100.83 365.456 104.212 368.161 97.9162C369.597 94.5939 384.658 88.8666 382.709 85.1629C381.78 83.4648 370.156 92.1612 368.587 92.619C368.952 89.1752 375.247 77.3267 374.712 75.9477C373.278 72.0607 367.244 81.8303 366.612 83.2158C364.674 88.0197 356.75 119.133 350.633 100.792C348.829 95.4108 350.787 91.7026 353.317 87.0935C357.184 80.5241 359.901 73.3433 361.351 65.8605C361.687 64.4942 365.728 52.7024 364.133 52.5001C361.322 52.2519 360.278 64.4713 358.156 66.3582C357.869 65.3739 357.349 54.5453 356.382 54.0931C352.506 52.2532 354.422 61.3398 354.645 62.6766C356.663 75.4377 352.02 80.1292 346.654 91.2726C341.716 80.064 335.826 69.8334 338.794 57.2203C339.306 54.9683 347.374 29.3867 341.698 30.3077Z" fill="#121212"/>
<path d="M174.198 253.173C177.012 258.598 180.704 263.52 185.125 267.741C181.081 268.186 175.86 264.369 177.609 271.168C178.919 276.46 186.087 279.742 190.325 281.677C196.467 284.29 201.622 288.78 205.053 294.503C205.705 295.481 216.701 307.993 216.523 308.412C215.409 311.006 194.613 298.782 195.229 309.483C195.748 318.476 218.422 320.307 224.07 319.861C229.26 319.449 229.711 319.051 234.604 321.629C239.497 324.207 244.47 327.061 249.688 329.378C262.331 334.392 275.391 338.289 288.717 341.024C283.591 345.088 275.083 343.398 269.013 345.602C265.075 346.984 256.09 351.674 257.188 356.927C260.096 370.563 284.396 344.987 288.824 344.597C289.184 351.901 281.338 356.258 282.851 364.194C283.399 367.105 284.536 370.545 288.338 369.269C291.581 368.022 291.898 359.72 291.939 357.339C292.027 353.976 289.959 348.604 292.083 345.582C294.561 342.056 300.578 343.105 304.371 343.4C312.899 344.017 323.893 343.581 331.962 346.4C328.617 348.444 317.926 354.265 325.42 358.321C330.441 360.995 342.075 356.801 346.666 354.794C350.471 353.184 354.209 348.823 357.99 347.82C361.283 346.86 365.997 348.823 369.094 349.822C377.795 352.614 385.698 357.45 392.142 363.926C398.761 370.706 401.401 378.614 405.72 386.666C407.112 389.263 408.148 391.898 408.752 388.017C409.238 384.872 404.961 378.109 403.569 375.512C399.002 367.065 392.214 360.968 385.528 354.074C378.077 346.501 372.482 337.854 362.87 332.948C361.308 332.402 353.914 327.316 349.875 325.49C347.681 324.495 341.925 321.134 339.342 323.155C333.253 328.269 357.606 340.891 360.1 344.635C333.493 342.717 306.733 342.11 280.58 336.255C277.644 335.576 270.063 335.117 267.783 332.911C265.504 330.706 265.153 324.467 263.573 321.223C261.778 317.475 248.087 299.04 243.383 306.386C241.518 309.266 245.191 314.302 246.625 316.587C247.535 317.991 255.448 326.229 255.251 327.155C254.424 330.733 237.928 320.659 235.299 319.089C231.235 316.604 225.68 313.017 224.671 307.838C223.172 300.065 229.314 303.147 232.11 298.994C232.486 298.305 232.678 297.531 232.667 296.747C232.656 295.963 232.442 295.195 232.046 294.518C231.65 293.841 231.086 293.277 230.408 292.883C229.73 292.488 228.962 292.275 228.177 292.264C223.392 292.458 224.889 296.561 222.557 299.444C221.311 293.799 232.938 285.803 222.161 282.171C209.822 277.993 217.673 294.493 217.867 294.47C213.302 295.535 213.345 286.177 206.166 291.909C201.753 285.019 203.699 283.45 205.731 276.216C207.163 271.393 208.729 261.992 206.4 257.098C203.817 251.677 199.35 253.079 196.593 257.822C193.835 262.564 194.038 269.447 194.922 274.996C192.039 273.468 191.348 272.701 190.908 270.393C191.458 269.313 191.818 268.147 191.973 266.945C191.499 264.555 190.573 262.276 189.247 260.231C187.307 255.823 184.069 252.111 179.965 249.588C176.207 247.581 171.906 247.834 174.198 253.173ZM260.174 357.892C261.386 350.596 269.065 346.354 281.558 346.249C276.076 352.591 268.477 356.729 260.174 357.892ZM289.163 352.975C289.531 354.236 289.943 367.099 286.336 366.182C281.975 365.084 288.064 354.13 289.163 352.975ZM357.544 339.307C354.703 337.465 343.63 331.216 342.616 327.741C341.414 323.619 344.645 325.881 347.748 327.245C358.425 331.907 372.695 339.727 378.569 350.363C371.032 347.783 363.94 344.053 357.544 339.307ZM336.637 347.774C342.066 346.756 347.646 346.867 353.029 348.099C346.735 351.937 337.352 356.409 329.73 355.695C320.077 354.773 332.63 348.575 336.699 347.756L336.637 347.774ZM256.368 324.459C252.626 321.192 249.596 317.191 247.463 312.705C246.094 309.5 244.93 309.172 247.996 308.578C254.313 307.337 265.322 326.42 264.362 331.372C260.561 330.478 258.89 326.694 256.298 324.446L256.368 324.459ZM225.948 316.11C220.67 318.028 214.865 317.899 209.679 315.748C207.566 315.029 198.183 311.825 197.818 309.429C197.348 303.925 223.996 315.144 225.877 316.097L225.948 316.11ZM229.389 294.815C231.406 295.661 230.42 298.352 228.342 297.523C226.263 296.694 227.34 293.743 229.318 294.802L229.389 294.815ZM219.189 289.613C214.878 287.199 218.503 282.337 222.418 284.999C226.334 287.662 222.903 291.7 219.118 289.6L219.189 289.613ZM215.285 296.725C218.838 297.458 220.659 308.508 220.843 308.454C218.486 308.273 212.698 300.45 210.949 298.69C211.485 298.067 212.151 297.568 212.9 297.228C213.649 296.889 214.463 296.717 215.285 296.725ZM211.844 292.255C216.881 294.524 209.43 295.429 210.126 294.492C210.821 293.555 208.295 290.62 211.906 292.237L211.844 292.255ZM198.176 259.93C205.836 248.752 205.6 273.25 202.467 277.735C199.709 281.677 199.344 280.882 197.964 276.379C196.24 271.01 196.336 265.222 198.237 259.912L198.176 259.93ZM189.879 274.765C192.205 276.48 194.203 278.599 195.778 281.021C193.93 280.525 176.747 273.021 179.735 269.413C181.398 267.326 188.994 274.022 189.94 274.747L189.879 274.765ZM188.546 265.842C182.849 262.448 178.552 257.133 176.427 250.854C179.444 252.285 182.104 254.372 184.211 256.962C186.318 259.552 187.82 262.58 188.607 265.824L188.546 265.842Z" fill="#121212"/>
<path d="M290.612 233.472C287.235 241.132 278.376 247.053 284.287 255.642C285.72 257.694 288.631 257.712 290.161 259.636C292.866 263.186 292.412 267.356 292.554 271.62C287.169 268.385 274.401 258.959 272.217 253.188C270.916 249.529 273.901 246.022 272.353 242.202C270.005 236.212 242.649 229.438 240.598 232.94C239.38 235.064 244.033 247.123 245.369 249.871C248.076 255.489 253.198 261.372 260.175 259.303C269.839 256.485 264.339 250.68 273.604 258.057C276.93 260.758 287.91 269.437 288.153 272.904C280.731 271.731 272.135 272.602 265.522 270.193C259.918 268.156 258.001 262.841 251.273 267.139C249.057 268.587 239.589 284.33 239.698 286.535C240.066 291.233 242.091 290.276 248.18 289.968C252.652 289.732 262.865 289.023 266.544 286.181C270.977 282.485 268.141 276.771 271.092 274.408C274.946 271.249 288.529 274.997 292.198 276.697C298.537 279.654 302.853 285.638 309.066 288.732C301.985 300.409 287.155 286.545 278.517 290.132C273.31 292.318 270.149 299.915 268.825 305.107C266.317 314.716 268.974 313.407 279.001 313.32C284.756 313.243 293.921 314.208 298.12 308.912C301.686 304.534 297.039 300.283 299.889 296.314C303.369 291.528 315.297 292.922 319.976 294.194C322.767 294.948 341.548 301.519 341.762 303.626C341.923 304.981 329.317 312.596 327.239 312.801C320.365 313.505 318.78 306.124 311.158 311.25C306.099 314.628 303.135 324.504 303.609 330.139C304.273 338.256 305.176 336.657 313.996 334.953C318.967 334.938 323.832 333.519 328.031 330.86C334.37 326.374 332.059 323.944 332.33 318.692C332.433 316.526 329.98 316.474 330.61 314.054C331.029 312.397 335.357 310.634 336.723 309.935C341.694 307.363 347.329 306.36 352.882 307.058C357.288 307.509 385.145 312.567 385.539 317.125C386.011 319.657 377.081 324.765 375.397 326.09C368.321 331.257 369.552 327.461 361.315 329.563C353.743 331.538 347.112 355.065 352.887 358.72C355.582 360.404 370.033 354.988 372.887 353.555C377.894 351.027 381.394 348.371 379.936 342.455C378.953 338.169 373.692 336.733 374.215 332.342C374.738 327.951 382.731 323.184 386.308 321.707C398.443 316.599 411.7 328.619 422.239 323.876C408.936 317.31 380.238 319.672 374.965 302.854C370.795 289.586 379.334 299.511 383.858 292.351C387.443 286.666 381.158 280.689 377.999 277.072C374.84 273.454 370.392 267.476 365.497 266.267C358.997 264.591 360.69 267.302 359.382 274.725C357.525 285.079 356.149 287.916 363.735 294.348C368.158 298.064 368.011 293.435 371.774 299.012C373.345 302.563 374.436 306.308 375.022 310.146C364.114 309.389 308.488 293.506 326.577 277.551C329.82 274.702 333.609 276.701 336.779 271.538C339.206 267.493 340.617 256.302 337.012 252.414C332.569 247.602 317.128 257.979 314.637 264.78C310.903 274.879 325.491 276.232 321.078 286.864C317.382 295.718 300.05 280.147 297.049 273.179C290.624 258.934 300.717 265.602 304.728 257.256C307.932 250.148 292.935 228.156 290.612 233.472Z" fill="#121212"/>
</svg>
