<svg width="345" height="652" viewBox="0 0 345 652" fill="none" xmlns="http://www.w3.org/2000/svg">
<path d="M273.156 277.533C261.069 270.584 252.911 257.131 239.431 252.808C228.048 249.09 220.895 252.283 209.949 244.595C222.596 246.163 233.408 244.423 245.028 245.987C256.647 247.55 264.308 259.156 277.545 260.471C291.415 261.615 305.266 258.007 316.825 250.239C319.288 248.577 340.745 237.758 340.624 237.93C340.502 238.102 307.291 231.739 303.771 231.106C290.4 228.566 276.576 229.948 263.965 235.088C254.053 239.27 245.004 243.907 234.982 244.092C221.468 244.334 207.128 240.279 193.763 237.687C198.485 236.689 203.329 236.395 208.136 236.814C215.679 238.022 218.515 241.369 226.842 238.336C232.664 235.993 237.644 231.947 241.13 226.728C243.133 223.811 245.709 221.334 248.701 219.446C249.97 218.744 255.173 218.453 255.194 216.456C255.215 214.46 237.398 212.845 235.254 212.671C225.055 212.524 210.72 216.621 206.898 227.636C205.246 232.45 207.305 231.431 204.313 234.06C200.424 237.447 190.317 234.838 185.847 233.946C174.1 231.847 162.851 227.566 152.682 221.324C162.873 219.299 171.048 225.441 181.104 224.043C193.385 222.412 197.931 210.156 208.463 204.659C200.094 202.506 189.23 200.238 180.81 203.258C172.39 206.277 170.008 215.474 162.825 218.492C148.709 224.394 124.149 208.419 113.2 201.244C119.328 200.671 125.497 200.681 131.622 201.274C139.161 202.634 145.122 204.477 152.893 202.959C159.808 201.707 166.218 198.486 171.353 193.682C171.621 193.304 184.865 178.946 185.457 180.294C185.457 180.294 198.66 175.757 199.182 175.456C176.783 170.704 139.546 162.165 128.272 189.984C125.939 195.76 127.132 196.914 119.896 197.676C113.661 198.379 107.362 198.276 101.155 197.368C86.5198 195.115 72.6107 191.107 57.8024 189.609C68.2826 176.392 88.2131 188.422 101.67 179.373C109.347 174.126 113.528 165.737 120.73 160.36C123.163 158.522 139.898 154.163 139.659 153.117C139.42 152.071 132.705 151.294 131.949 151.636C112.332 145.5 86.1878 148.157 72.7443 165.055C70.856 167.173 69.371 169.619 68.3629 172.271C67.3838 175.55 69.179 178.985 67.3471 181.867C62.1719 189.914 41.4536 189.343 33.8789 187.596C35.639 186.515 37.6152 185.835 39.667 185.604C41.3606 189.329 56.1597 179.474 57.3483 178.303C62.1433 172.846 65.9177 166.571 68.4906 159.778C55.1997 165.387 46.321 166.432 39.2 179.343C33.0743 190.483 18.7635 187.48 7.2349 187.682C-6.96907 187.952 -21.2545 188.629 -35.345 190.269C-37.8629 190.551 -50.0082 190.679 -46.9492 195.678C-45.107 198.683 -34.5096 194.624 -31.4938 194.075C-18.0365 191.566 -4.39111 190.208 9.2944 190.015C17.5267 189.958 36.4065 190.725 41.7025 198.389C44.6897 202.616 42.282 208.133 42.9774 212.906C43.9334 218.333 46.4404 223.366 50.1955 227.396C52.4024 229.885 72.6872 244.693 75.2827 240.804C75.2827 240.804 70.4125 217.092 69.5377 214.978C66.9518 208.508 59.6928 200.487 52.4118 199.928C45.1562 198.459 41.202 194.58 34.3593 191.288C38.4302 188.081 60.6831 191.801 65.9829 193.486C72.0226 195.587 77.6539 198.714 82.6292 202.73C88.2319 207.775 86.7042 213.141 86.1496 219.608C85.6425 225.81 86.5158 232.045 88.7067 237.866C90.8976 243.686 94.3516 248.948 98.8202 253.271C103.486 258.098 108.713 262.348 114.39 265.931C116.794 267.631 128.517 275.096 131.124 274.979C131.266 271.573 127.593 265.984 126.863 262.426C125.62 256.389 125.511 250.278 124.639 244.298C124.11 240.912 123.405 237.556 122.527 234.244C121.845 231.493 116.124 222.754 116.145 221.995C115.163 216.608 105.354 211.683 100.904 209.671C91.8482 206.279 83.502 201.234 76.2902 194.792C86.5422 193.481 100.885 199.498 110.166 203.276C121.108 207.375 131.184 213.486 139.876 221.294C148.867 230.436 141.367 237.252 139.787 247.429C137.889 260.166 146.289 269.561 154.781 277.732C155.246 273.213 154.539 270.134 155.404 265.486C156.653 258.84 158.76 254.038 157.107 247.196C155.454 240.354 152.06 239.398 148.719 234.87C144.94 229.722 144.545 222.996 139.477 218.433C145.781 216.805 161.766 231.719 165.136 237.299C170.091 245.445 164.763 251.888 166.546 260.73C167.635 265.864 170.075 270.612 173.614 274.483C177.153 278.355 181.662 281.209 186.676 282.752C191.58 283.71 196.535 284.39 201.516 284.788C202.98 285.05 216.964 290.555 216.998 290.579C220.561 287.58 193.348 255.031 189.485 252.042C187.011 250.189 184.414 248.507 181.711 247.008C178.686 245.385 173.843 245.313 171.331 243.691C168.378 241.603 160.69 231.783 160.998 228.288C164.571 229.938 197.572 244.249 198.078 243.678C198.82 242.192 214.694 250.271 216.693 252.252C223.436 258.67 221.852 268.999 228.22 275.875C233.551 281.449 240.681 282.004 247.982 281.442C250.87 280.855 273.148 277.836 273.156 277.533Z" fill="#121212"/>
<path d="M90.0495 461.143C93.7151 452.389 88.2663 450.186 83.3975 445.196C78.5287 440.206 77.9565 431.034 76.0602 424.536C81.4285 426.509 86.6455 428.871 91.67 431.603C94.1739 432.524 96.3894 434.091 98.0924 436.145C99.7 439.19 97.7674 440.247 97.4136 443.297C96.1007 454.334 112.902 460.954 117.875 450.134C118.414 448.087 118.545 445.955 118.259 443.859C117.973 441.763 117.276 439.745 116.209 437.919C113.283 434.406 110.412 435.625 106.349 434.815C97.6193 433.025 92.13 424.76 83.4794 423.078C92.3751 421.427 105.309 419.382 112.966 425.312C116.778 428.007 116.935 431.574 122.432 432.47C127.009 433.282 130.116 432.385 131.859 428.099C135.176 420.131 127.907 408.699 119.07 411.578C114.167 413.268 113.418 417.896 108.287 418.96C102.421 419.97 93.5343 417.966 87.6583 417.679C92.9308 414.084 98.8489 411.616 104.299 408.353C109.749 405.09 110.229 404.192 116.03 406.334C120.758 408.027 124.18 410.035 128.324 405.487C129.774 403.835 130.653 401.759 130.828 399.569C131.003 397.378 130.465 395.19 129.294 393.332C123.62 384.162 114.684 388.931 111.217 396.02C106.537 405.552 93.7705 409.108 84.3651 413.957C85.8289 405.039 100.675 402.696 96.1099 391.01C92.1596 381.151 79.4656 387.956 79.5755 396.543C79.6554 400.364 82.0467 402.519 80.7918 406.48C79.2428 409.943 76.7432 412.897 73.5836 414.997C65.589 420.329 55.3004 414.188 46.8443 412.231C57.1492 406.109 73.1909 398.578 73.796 384.463C74.5687 366.031 53.9674 368.791 46.5485 380.666C42.7648 386.964 42.1338 396.162 37.613 401.681C31.9681 408.571 26.7327 402.496 21.2315 397.162C16.3706 392.087 11.7809 386.758 7.48176 381.199C4.70373 377.842 -0.727687 371.681 1.18206 380.2C2.14484 384.593 11.8276 393.194 14.8202 396.393C19.297 401.209 26.5888 404.303 30.5905 408.989C34.5922 413.675 31.3093 420.43 30.4414 426.83C28.7425 434.602 29.1245 442.682 31.5488 450.253C33.5963 455.518 37.4186 462.862 43.7739 463.127C50.1292 463.392 55.7196 456.361 57.3732 450.671C58.6139 445.433 58.1501 439.938 56.0493 434.985C53.8814 429.017 46.8547 422.707 46.8914 416.39C53.2871 418.128 64.6671 418.646 69.9921 422.772C73.7013 425.395 78.3844 440.774 77.782 445.196C76.9982 450.676 70.5063 452.789 73.9149 459.48C76.4945 464.502 87.1572 467.71 90.0495 461.143ZM112.928 444.161C116.232 452.53 102.487 453.899 101.95 445.989C101.412 438.08 109.742 439.122 112.825 444.088L112.928 444.161ZM119.99 416.252C126.643 415.077 132.595 425.165 125.044 427.974C117.494 430.783 111.852 417.562 119.887 416.179L119.99 416.252ZM119.404 393.403C128.091 392.12 129.388 403.764 121.246 404.349C114.317 404.968 111.749 394.539 119.404 393.403ZM83.429 398.598C82.0823 392.488 89.2237 385.522 92.601 392.912C95.4457 399.308 85.5047 407.028 83.429 398.598ZM54.6596 377.428C57.1255 375.253 63.1751 372.672 65.9775 375.994C68.7798 379.317 64.6075 382.813 62.727 385.763C56.9926 394.601 48.4474 400.42 40.2127 406.82C45.6751 397.274 45.9947 385.019 54.6596 377.428V377.428ZM69.4231 382.195C69.1973 392.35 61.3999 401.483 49.6749 404.95C57.2248 398.262 63.8644 390.612 69.4231 382.195V382.195ZM48.4216 456.409L43.2605 421.816C54.6763 431.9 57.3501 449.83 48.4216 456.409V456.409ZM39.3143 425.575C40.5873 433.902 42.3296 442.148 43.0303 450.482C43.3865 454.86 44.2821 459.567 39.4469 456.715C34.6116 453.863 33.0832 442.984 32.8972 438.366C33.174 430.666 34.0639 423.001 35.5585 415.441C37.914 418.348 39.2782 421.933 39.4517 425.672L39.3143 425.575ZM76.4494 457.353C74.8623 451.074 85.7399 446.182 87.2961 454.399C87.6417 455.139 87.8224 455.946 87.8258 456.762C87.8292 457.579 87.6551 458.387 87.3156 459.131C86.9762 459.874 86.4794 460.535 85.8598 461.068C85.2401 461.6 84.5123 461.992 83.7267 462.216C82.9411 462.44 82.1164 462.49 81.3098 462.364C80.5031 462.237 79.7336 461.937 79.0546 461.484C78.3757 461.031 77.8033 460.435 77.3772 459.739C76.9511 459.042 76.6814 458.262 76.5868 457.45L76.4494 457.353Z" fill="#121212"/>
<path d="M-60.655 513.982C-59.5402 515.028 -36.055 506.004 -33.2125 504.972C-27.5958 503.106 -22.318 500.342 -17.5846 496.787C-15.2102 494.959 -10.7214 487.664 -7.20169 488.296C-9.32806 505.874 -20.9655 510.383 -33.6645 519.453C-40.9996 524.581 -57.4376 536.68 -55.0864 547.78C-45.549 539.465 -33.6815 533.83 -25.1359 524.659C-23.3843 525.897 -40.0589 550.206 -41.6446 553.469C-43.2302 556.731 -53.9999 582.379 -49.3344 582.12C-47.569 582.027 -41.7215 573.321 -40.1925 571.669C-35.6586 566.933 -30.8458 562.24 -26.7441 557.095C-20.1368 548.771 -13.4036 530.944 -14.3054 520.198C-8.46566 523.451 -11.1787 559.489 -4.05934 559.985C1.51764 550.933 0.850131 534.319 -1.48216 524.212C-3.81445 514.105 -10.1048 501.508 -3.62794 492.422C-2.66864 498.457 -1.17836 504.395 0.82556 510.166C2.52791 513.977 4.74167 517.538 7.40576 520.75C9.73624 523.32 11.8873 526.047 13.8436 528.912C19.0088 529.986 14.7976 523.192 13.6592 520.066C10.7338 511.964 8.14021 503.683 4.73127 495.754C3.21511 492.362 -9.08358 467.935 1.15727 467.441C1.15727 467.441 11.1511 482.45 12.0456 483.444C17.3878 488.825 22.0389 494.851 25.8917 501.383C32.6001 496.122 17.3968 475.366 13.6957 471.202C6.00874 462.621 -1.90898 457.279 -0.579513 444.398C2.98768 445.838 8.99176 453.229 11.8454 455.969C17.9607 461.892 23.8814 468.09 30.2613 474.149C29.1087 461.937 21.6765 453.432 12.06 446.632C3.43957 440.536 -2.89794 437.55 0.128688 425.766C1.49053 420.489 -1.04479 420.14 3.97606 421.782C8.99691 423.425 13.3312 430.409 17.9662 433.326C21.2374 435.329 37.8142 446.639 38.6219 444.477C39.4295 442.315 33.7053 432.852 32.1609 430.883C28.2442 426.484 23.5281 422.869 18.2626 420.23C9.70122 415.362 0.416232 416.325 1.73026 404.413C1.94868 402.866 3.57141 394.524 5.48274 394.225C7.39408 393.927 8.01764 397.926 8.91638 398.768C19.0572 408.105 27.4353 417.021 39.9803 423.468C38.3921 408.884 19.7048 401.652 11.3209 392.526C1.54166 381.949 22.8207 363.733 29.2609 356.374C19.3157 355.066 16.3207 358.208 10.8838 366.844C8.05096 371.287 4.99151 387.999 0.418277 390.386C-2.03215 391.593 -6.02767 388.355 -8.1524 387.936C-12.6666 387.715 -17.1907 388.088 -21.6093 389.044C-24.5722 389.372 -43.4914 390.847 -40.5891 398.108C-30.131 396.942 -18.7278 393.711 -8.23888 395.198C-14.9558 400.762 -24.5009 402.677 -32.0837 407.062C-34.6213 408.465 -49.5281 417.16 -40.0463 418.759C-36.7569 419.28 -24.3523 411.136 -21.477 409.766C-16.9424 407.506 -4.34289 395.735 -0.0679638 395.664C1.0138 399.454 0.642096 403.513 -1.11031 407.046C-2.89433 411.973 -1.35385 410.742 -5.62107 412.624C-8.45778 413.867 -12.5884 413.37 -15.6227 414.164C-20.1033 415.327 -49.2576 431.275 -45.4589 436.54C-44.8291 437.398 -6.98215 420.377 -3.22855 418.493C-2.59033 428.227 -0.104449 435.348 -11.0245 437.167C-21.9445 438.986 -35.4365 442.183 -42.1924 451.227C-50.0767 461.794 -32.7824 452.054 -27.7353 450.672C-23.7582 449.565 -18.9871 448.865 -15.4951 447.569C-11.6035 445.364 -7.60413 443.356 -3.51192 441.551C-3.67595 447.83 -2.57695 453.197 -6.84187 457.917C-10.6592 462.077 -19.1153 464.71 -24.2612 465.867C-37.9434 469.188 -46.4308 472.52 -55.8671 483.898C-46.2244 483.017 -36.7818 480.607 -27.8932 476.759C-22.9403 475.017 -18.2319 472.644 -13.8845 469.698C-12.241 468.539 -7.36709 462.084 -5.51866 461.947C-0.99058 461.59 -6.11648 476.635 -6.28358 477.6C-7.44077 480.723 -9.33775 483.519 -11.8118 485.749C-14.2858 487.978 -17.263 489.575 -20.488 490.401C-27.7166 492.974 -35.4623 493.582 -42.582 496.438C-45.7722 497.38 -65.7341 508.998 -60.655 513.982Z" fill="#121212"/>
<path d="M17.0051 1.60979C23.7566 10.5021 27.2203 21.4612 26.8078 32.6256C26.1356 42.4646 20.9985 49.1463 23.0117 58.9761C25.7126 53.4081 52.5597 29.7944 53.1574 42.6459C53.9271 61.4466 20.5604 62.2968 21.5255 78.7085C29.4759 70.7561 40.0314 65.9471 51.2428 65.1697C67.7213 63.723 61.7623 68.0701 53.2707 76.1444C43.0985 85.8668 37.0573 88.1445 24.2552 92.5519C17.4172 94.9365 18.0412 95.584 16.6473 103.675C16.1217 106.604 12.2777 117.14 14.9782 119.513C22.4268 111.166 50.0063 91.8346 36.9059 116.918C33.116 124.243 26.9226 130.043 19.3661 133.343C14.4795 135.664 12.9055 134.757 10.8224 139.524C9.67199 145.061 9.27 150.726 9.62722 156.368C9.49829 165.147 9.51905 176.92 13.6133 184.973C15.2854 188.218 17.4985 192.155 21.506 192.462C27.7254 192.992 24.8853 187.683 28.4073 186.564C35.4156 183.938 34.6684 192.28 29.5434 196.031C21.6449 202.101 12.4031 194.844 8.91278 187.322C6.29143 181.703 7.4723 174.132 3.93986 169.365C0.407412 164.598 -14.688 160.009 -14.0412 151.08C-13.0941 141.436 -0.833598 158.047 3.05776 157.499C6.94911 156.95 6.08207 147.466 6.24378 142.939C6.55679 132.588 3.11227 134.691 -4.08229 126.87C-9.6635 120.908 -13.3325 113.41 -14.6175 105.341C-15.5277 94.8988 -9.31139 99.2946 -2.68987 104.647C3.93165 110 6.18755 118.248 8.92272 126.474C10.3614 119.704 18.7558 97.9976 14.6137 92.4899C12.3307 89.38 3.1268 88.6991 -0.502137 86.5456C-6.56909 82.5797 -11.6184 77.2426 -15.2432 70.9644C-19.5189 63.9699 -28.14 50.8083 -13.6598 55.6843C-6.91696 58.2529 -0.804353 62.2382 4.266 67.3715C9.33635 72.5049 13.2466 78.6671 15.7332 85.4427C19.8403 74.6804 14.0843 69.2693 6.89286 62.1727C1.13546 56.2472 -3.60394 49.4109 -7.13427 41.9392C-11.2316 33.1627 -7.63661 27.3502 1.45771 34.4516C10.8295 42.4775 17.1813 53.4637 19.4641 65.5957C24.8424 52.3802 15.3143 44.508 12.1346 32.9766C10.7296 28.1151 11.625 -5.13426 17.0051 1.60979Z" fill="#121212"/>
<path d="M226.581 153.728C219.973 149.376 212.021 147.541 204.17 148.556C194.354 148.886 185.681 146.363 175.967 145.528C179.902 142.586 188.817 143.166 191.829 139.417C196.739 133.348 191.012 128.988 184.67 129.506C176.275 130.377 174.418 139.997 167.706 143.296C160.994 146.595 147.365 145.106 139.61 144.779C142.163 137.817 155.457 137.523 157.881 130.16C160.943 120.876 150.955 124.437 146.532 127.705C139.998 132.573 136.997 142.209 131.144 146.115C125.29 150.022 104.625 147.992 97.7545 148.6C101.194 144.173 115.369 138.261 109.395 131.046C104.547 125.297 96.9083 132.53 94.1468 136.508C90.0139 142.353 90.3762 148.179 83.062 151.31C75.7477 154.441 61.4581 155.269 53.0472 155.871C56.2339 152.967 65.3572 147.351 64.3068 141.915C64.1169 141.026 63.7212 140.195 63.1514 139.487C62.5815 138.78 61.8535 138.216 61.0259 137.842C60.1983 137.467 59.2943 137.292 58.3864 137.331C57.4785 137.37 56.5922 137.621 55.7987 138.065C51.3068 140.046 51.4588 145.877 50.0507 149.472C49.3069 151.779 48.074 153.9 46.4363 155.687C44.7985 157.475 42.7944 158.889 40.5611 159.831C31.0701 165.239 18.8337 166.952 8.74723 171.527C4.91491 173.303 -14.5975 181.372 -3.63654 182.264C-0.328659 182.54 6.9663 177.178 9.72429 175.828C15.7936 172.819 22.0142 170.125 28.3611 167.759C37.4852 164.618 50.4555 158.37 60.0461 160.253C67.512 161.716 71.8501 171.901 78.915 172.255C93.8862 172.94 74.4951 161.239 73.5215 158.9C71.6673 154.237 78.2703 155.245 81.6723 154.659C87.7021 153.273 93.8448 152.438 100.025 152.165C111.224 152.865 108.189 162.476 117.651 165.196C127.113 167.916 120.536 159.295 120.717 155.761C120.957 151.341 119.391 152.245 125.365 150.281C133.293 147.739 140.733 152.226 146.184 157.267C148.379 159.335 149.763 164.955 154.183 163.439C158.604 161.924 157.908 159.265 157.279 156.293C155.829 150.111 146.053 147.324 159.247 147.681C170.318 147.98 175.622 152.865 183.965 159.28C187.553 162.075 193.369 167.838 197.689 162.384C201.177 157.888 195.22 154.656 192.704 151.948C200.363 151.536 205.92 156.136 212.749 158.645C215.904 159.793 221.03 161.87 224.231 160.111C226.433 159.038 229.887 155.756 226.581 153.728Z" fill="#121212"/>
<path d="M155.439 381.495C156.872 380.342 150.165 350.485 149.46 346.892C148.21 339.869 145.859 333.089 142.492 326.803C140.713 323.636 132.751 316.974 134.093 312.818C154.881 318.39 158.226 333.184 166.917 350.108C171.954 359.961 183.453 381.656 197.229 380.826C188.917 367.883 184.22 352.596 174.699 340.707C176.526 338.852 202.872 363.156 206.4 365.599C209.927 368.042 238.999 385.505 239.532 379.797C239.743 377.677 230.281 369.129 228.638 366.936C223.7 360.659 218.888 354.059 213.458 348.259C204.637 338.876 184.368 327.689 171.245 326.867C176.212 320.426 219.146 329.797 220.886 321.435C210.985 313.144 190.916 311.071 178.397 312.018C165.879 312.964 149.652 318.354 139.52 308.713C146.971 308.634 154.401 307.881 161.718 306.463C166.609 305.115 171.283 303.07 175.594 300.391C179.095 298.026 182.759 295.912 186.558 294.066C188.758 288.04 179.858 291.958 175.889 292.761C165.65 294.855 155.189 296.535 145.095 299.299C140.742 300.501 109.192 311.094 110.279 298.556C110.279 298.556 130.181 289.062 131.454 288.209C138.877 282.785 146.944 278.303 155.469 274.866C150.241 266.012 122.69 280.567 117.155 284.389C105.472 292.166 97.6433 300.761 82.478 296.999C84.8332 292.94 94.7375 286.948 98.5166 284.154C106.834 277.71 115.354 271.563 123.784 265.251C108.862 264.497 97.3741 272 87.4739 282.43C78.6693 291.676 74.0131 298.698 60.2637 293.152C54.1824 290.605 53.1976 293.674 56.186 287.845C59.1744 282.016 68.2996 278 72.5044 272.928C75.5221 269.389 91.974 251.369 89.5127 250.041C87.0515 248.713 74.6932 253.95 72.0827 255.456C66.152 259.502 61.0567 264.655 57.0764 270.631C49.7254 280.079 49.138 291.473 35.1274 287.755C33.3203 287.25 23.6104 283.788 23.5468 281.474C23.4831 279.159 28.3647 279.105 29.559 278.144C42.6381 267.589 54.8996 259.138 64.8086 245.052C46.9518 244.441 34.8373 265.58 22.5373 274.159C8.05157 284.08 -10.0914 255.315 -17.8 246.253C-21.0269 258.102 -17.8252 262.171 -8.44299 270.25C-3.563 274.423 16.0068 280.99 17.91 286.822C18.9897 289.958 14.3412 294.2 13.598 296.563C12.5448 301.948 12.2064 307.449 12.5915 312.921C12.4653 316.597 11.0315 339.461 20.1159 337.324C20.5898 324.559 18.5339 310.419 22.3929 297.676C27.964 306.773 28.5084 318.607 32.3271 328.579C33.5886 331.895 41.595 351.171 45.0311 340.192C46.2131 336.335 38.5868 320.164 37.4453 316.314C35.5564 310.388 23.5919 293.212 24.2498 288.056C29.0174 287.43 33.8455 288.602 37.7939 291.342C43.3731 294.307 42.2737 292.292 43.6417 297.643C43.9595 301.74 43.977 305.855 43.6941 309.954C44.3196 315.554 58.4022 353.412 65.3815 349.735C66.5431 349.113 52.699 300.644 51.108 295.754C62.9545 296.705 71.8988 294.985 72.1762 308.435C72.4536 321.885 73.9338 338.661 83.6899 348.396C95.0575 359.787 86.4062 337.27 85.6947 330.99C85.0865 326.022 85.0275 320.204 84.1134 315.742C83.1992 311.279 79.4661 305.338 78.9895 300.257C86.4597 301.568 93.1495 301.142 98.0372 307.125C102.384 312.416 103.945 322.958 104.57 329.433C106.193 346.517 108.67 357.294 120.672 370.628C121.277 358.879 119.998 347.11 116.884 335.769C115.587 329.402 113.476 323.23 110.603 317.403C109.474 315.212 102.571 308.217 102.728 305.955C103.116 300.453 120.288 309.245 121.264 309.832C129.34 314.511 132.186 320.031 134.055 329.191C135.923 338.351 135.264 347.735 137.46 356.869C138.367 360.759 148.823 386.77 155.439 381.495Z" fill="#121212"/>
</svg>
