<?xml version="1.0" encoding="utf-8"?>
<!-- Generator: Adobe Illustrator 26.2.1, SVG Export Plug-In . SVG Version: 6.00 Build 0)  -->
<svg version="1.1" id="图层_1" xmlns="http://www.w3.org/2000/svg" xmlns:xlink="http://www.w3.org/1999/xlink" x="0px" y="0px"
	 viewBox="0 0 152.4 141.9" style="enable-background:new 0 0 152.4 141.9;" xml:space="preserve">
<style type="text/css">
	.st0{fill:#E9D7B7;}
</style>
<path class="st0" d="M22.8,40.4c-2,2.9-3.8,5.4-5.7,8l0.6,0.6c2.8-1.9,5.6-3.8,8.8-5.9c0.8,6.6,1.5,12.7,2.3,18.8c0.4,0,0.8,0,1.1,0
	c0.4-5.7,0.8-11.3,1.3-17.3c1.3,0.9,2.2,1.7,3.3,2.3c0.5,0.3,1.2,0.3,1.8,0.5c0-0.6,0.1-1.2-0.1-1.7c-0.5-1.8-1.1-3.7-1.8-5.7
	c5-1.1,9.8-2.2,14.6-3.3c0-0.3,0-0.6,0-0.9c-4.9-0.5-9.8-1.1-15-1.7c0.8-2,1.4-3.8,2.1-5.5L35.7,28c-1.3,0.9-2.6,1.7-4.2,2.8
	c-0.6-5.5-1.2-10.8-1.8-16.2c-0.3,0-0.5-0.1-0.8-0.1c-1.1,5.9-2.3,11.9-3.5,18.4c-1.5-2-2.7-3.5-3.8-5c-0.8-1-1.6-1.4-2.5-0.2
	c1.1,2.5,2.2,4.9,3.2,7.3c-4.9,0.4-9.6,0.7-14.4,1.1c-1,0.1-2,0.6-3,0.9l0.2,0.8C11,38.7,16.8,39.5,22.8,40.4L22.8,40.4z M22.1,36.7
	c2.1,0,3.2-0.7,1.8-3.5c2,1.3,2.9,0.8,3.3-0.9c0.6-2.6,1.2-5.3,2-8.5c0.4,3.4,0.7,6.3,1.1,9.4c1-0.5,1.6-0.8,2.3-1.1
	c-0.3,3.1-0.2,3.2,2.9,3.6c1.7,0.2,3.4,0.5,5.1,1c-1.4,0.3-2.8,0.6-4.3,0.9c-1.5,0.3-2.9,0.5-4.6,0.7c0.8,2,1.4,3.6,2.3,5.7
	c-1.2-1-2-1.6-3.2-2.5c-0.7,2.2-1.2,4.1-1.7,5.9c-1.4-1.7,0.4-5.7-3.9-6c1-2.5-0.5-2.7-2.6-2.8c-1.7,0-3.3-0.6-5-1.4
	C19.1,36.9,20.6,36.7,22.1,36.7L22.1,36.7z"/>
<path class="st0" d="M60.6,49.2c-4.4-0.5-4.4-0.5-5.4-4.8c-0.2-1-0.4-2-0.7-2.9c-0.2-0.6-0.4-1.2-0.6-1.8L53,39.9
	c-0.3,1.6-0.9,3.3-0.8,4.9c0.2,4.6-2.8,5.9-6.4,6.8c-1.5,0.4-2.9,1.1-4.4,1.7c0,0.2,0.1,0.5,0.1,0.7c2.5,0.1,5,0.5,7.5,0.4
	c2.1-0.1,2.8,0.8,3.2,2.6c0.7,2.8,1.6,5.6,2.5,8.3c0.9-0.7,1.3-1.4,1.4-2.2c0.3-1.8,0.6-3.7,0.6-5.5c0-2,0.8-3,2.8-3.5
	c3-0.8,5.9-1.9,8.9-2.9c0-0.3,0-0.6,0-0.8C65.9,50,63.3,49.6,60.6,49.2L60.6,49.2z M59,53c-2.2,0.4-3.2,1.6-3.3,3.8
	c-0.1,1.2-0.4,2.4-0.7,3.9c-1.9-3.4-1.2-8.5-7-7.7l0.2-0.6c1.4-0.6,2.8-1.2,4.7-2c0.2-1.2,0.5-3,0.8-4.4c0.9,1.3,1.7,3.2,3.1,4.1
	c1.6,0.9,3.7,0.8,5.6,1.1c0,0.2,0.1,0.4,0.1,0.6C61.3,52.2,60.2,52.8,59,53L59,53z"/>
<path class="st0" d="M65.7,32.7c0-0.5-1.2-1.4-1.8-1.4c-1.6,0-2.6,1.1-2.6,2.7c0,0.6,0.8,1.2,1,1.5C64.6,35.2,65.8,34.5,65.7,32.7z"
	/>
<path class="st0" d="M37.5,61.9c0,0.6,1,1.2,1.6,1.8c0.6-0.6,1.4-1.2,1.6-1.9c0.1-0.7-0.6-1.4-1-2.2c-0.3,0-0.6,0-0.8,0
	C38.4,60.3,37.6,61.1,37.5,61.9L37.5,61.9z"/>
<path class="st0" d="M55.4,26.8c-1.2-0.8-1.8-1.6-2.5-1.6c-0.5,0-1.5,1-1.4,1.6c0,0.7,0.8,1.4,1.3,2.1
	C53.5,28.4,54.2,27.8,55.4,26.8z"/>
<path class="st0" d="M21.4,54.1c-0.4,0-1.2,0.8-1.2,1.4c-0.1,0.4,0.7,1.3,1,1.4c0.5,0,1.1-0.6,2.1-1.2
	C22.4,54.9,21.9,54.1,21.4,54.1L21.4,54.1z"/>
<path class="st0" d="M97.2,97.2c-2,2.9-3.8,5.4-5.7,8l0.6,0.6c2.8-1.9,5.6-3.8,8.8-5.9c0.8,6.6,1.5,12.7,2.3,18.8c0.4,0,0.8,0,1.1,0
	c0.4-5.7,0.8-11.3,1.3-17.3c1.3,0.9,2.2,1.7,3.3,2.3c0.5,0.3,1.2,0.3,1.8,0.5c0-0.6,0.1-1.2-0.1-1.7c-0.5-1.8-1.1-3.7-1.8-5.7
	c5-1.1,9.8-2.2,14.6-3.3l0-0.9c-4.9-0.5-9.8-1.1-15-1.7c0.8-2,1.4-3.8,2.1-5.5c-0.2-0.2-0.3-0.4-0.5-0.6c-1.3,0.9-2.6,1.7-4.2,2.8
	c-0.6-5.5-1.2-10.8-1.8-16.2c-0.3,0-0.5-0.1-0.8-0.1c-1.1,5.9-2.3,11.9-3.5,18.4c-1.5-2-2.7-3.5-3.8-5c-0.8-1-1.6-1.4-2.5-0.2
	c1.1,2.5,2.2,4.9,3.2,7.3c-4.9,0.4-9.6,0.7-14.4,1.1c-1,0.1-2,0.6-3,0.9c0.1,0.3,0.1,0.5,0.2,0.8C85.4,95.6,91.2,96.4,97.2,97.2
	L97.2,97.2z M96.5,93.5c2.1,0,3.2-0.7,1.8-3.5c2,1.3,2.9,0.8,3.3-0.9c0.6-2.6,1.2-5.3,2-8.5c0.4,3.4,0.7,6.3,1.1,9.4
	c1-0.5,1.6-0.8,2.3-1.1c-0.3,3.1-0.2,3.2,2.9,3.6c1.7,0.2,3.4,0.5,5.1,1c-1.4,0.3-2.8,0.6-4.3,0.9c-1.5,0.3-2.9,0.5-4.6,0.7
	c0.8,2,1.4,3.6,2.3,5.7c-1.2-1-2-1.6-3.2-2.5c-0.7,2.2-1.2,4.1-1.7,5.9c-1.4-1.7,0.4-5.7-3.9-6c1-2.5-0.5-2.7-2.6-2.8
	c-1.7,0-3.3-0.6-5-1.4C93.4,93.8,94.9,93.6,96.5,93.5L96.5,93.5z"/>
<path class="st0" d="M135,106.1c-4.4-0.5-4.4-0.5-5.4-4.8c-0.2-1-0.4-2-0.7-2.9c-0.2-0.6-0.4-1.2-0.6-1.8c-0.3,0-0.6,0-0.8,0.1
	c-0.3,1.6-0.9,3.3-0.8,4.9c0.2,4.6-2.8,5.9-6.4,6.8c-1.5,0.4-2.9,1.1-4.4,1.7c0.1,0.2,0.1,0.5,0.1,0.7c2.5,0.1,5,0.5,7.5,0.4
	c2.1-0.1,2.8,0.8,3.2,2.6c0.7,2.8,1.6,5.6,2.5,8.3c0.9-0.7,1.3-1.4,1.4-2.2c0.3-1.8,0.6-3.7,0.6-5.5c0-2,0.8-3,2.8-3.5
	c3-0.8,5.9-1.9,8.9-2.9c0-0.3,0-0.6,0-0.8C140.2,106.9,137.6,106.4,135,106.1L135,106.1z M133.3,109.9c-2.2,0.4-3.2,1.6-3.3,3.8
	c-0.1,1.2-0.4,2.4-0.7,3.9c-1.9-3.4-1.2-8.5-7-7.7l0.2-0.6c1.4-0.6,2.8-1.2,4.7-2c0.2-1.2,0.5-3,0.8-4.4c0.9,1.3,1.7,3.2,3.1,4.1
	c1.6,0.9,3.7,0.8,5.6,1.1c0,0.2,0.1,0.4,0.1,0.6C135.6,109.1,134.5,109.7,133.3,109.9L133.3,109.9z"/>
<path class="st0" d="M140.1,89.6c0-0.5-1.2-1.4-1.8-1.4c-1.6,0-2.6,1.1-2.6,2.7c0,0.6,0.8,1.2,1,1.5
	C138.9,92.1,140.2,91.4,140.1,89.6z"/>
<path class="st0" d="M111.9,118.7c0,0.6,1.1,1.2,1.6,1.8c0.6-0.6,1.4-1.2,1.6-1.9c0.1-0.7-0.6-1.4-0.9-2.2c-0.3,0-0.6,0-0.8,0
	C112.8,117.2,111.9,118,111.9,118.7L111.9,118.7z"/>
<path class="st0" d="M129.7,83.7c-1.2-0.8-1.8-1.6-2.5-1.6c-0.5,0-1.5,1-1.4,1.6c0,0.7,0.8,1.4,1.3,2.1
	C127.8,85.2,128.5,84.7,129.7,83.7z"/>
<path class="st0" d="M95.7,111c-0.4,0-1.2,0.8-1.2,1.4c-0.1,0.4,0.7,1.3,1,1.4c0.5,0,1.1-0.6,2.1-1.2C96.8,111.8,96.3,111,95.7,111
	L95.7,111z"/>
</svg>
