<?xml version="1.0" encoding="utf-8"?>
<!-- Generator: Adobe Illustrator 26.2.1, SVG Export Plug-In . SVG Version: 6.00 Build 0)  -->
<svg version="1.1" id="图层_1" xmlns="http://www.w3.org/2000/svg" xmlns:xlink="http://www.w3.org/1999/xlink" x="0px" y="0px"
	 viewBox="0 0 103 279" style="enable-background:new 0 0 103 279;" xml:space="preserve">
<style type="text/css">
	.st0{clip-path:url(#SVGID_00000162319959353766495000000006542776364508759430_);}
	.st1{fill:#121212;}
</style>
<g>
	<defs>
		<rect id="SVGID_1_" y="0" width="103" height="278.3"/>
	</defs>
	<clipPath id="SVGID_00000096061319624795573270000013285991747540028860_">
		<use xlink:href="#SVGID_1_"  style="overflow:visible;"/>
	</clipPath>
	<g style="clip-path:url(#SVGID_00000096061319624795573270000013285991747540028860_);">
		<path class="st1" d="M0.1,18.7l0-13.4h102.9v13.4H0.1z"/>
		<path class="st1" d="M103,246.7v13.4H0.1l0-13.4H103z"/>
		<path class="st1" d="M103,64.8v13.4H0.1l0-13.4L103,64.8z"/>
		<path class="st1" d="M103,186.1v13.4H0.1l0-13.4L103,186.1z"/>
		<path class="st1" d="M0.1,138.8l0-13.4h102.9v13.4H0.1z"/>
		<path class="st1" d="M103,270.8v7.5H0.1v-7.5H103z"/>
		<path class="st1" d="M103,43.6v7.5H0.1l0-7.5L103,43.6z"/>
		<path class="st1" d="M0.1,233l0-7.5h102.9v7.5H0.1z"/>
		<path class="st1" d="M103,210.2v7.5H0.1l0-7.5L103,210.2z"/>
		<path class="st1" d="M0.1,96.4l0-7.5h102.9v7.5H0.1z"/>
		<path class="st1" d="M103,104.2v7.5H0.1l0-7.5L103,104.2z"/>
		<path class="st1" d="M0.1,172.3l0-7.5h102.9v7.5H0.1z"/>
		<path class="st1" d="M0.1,157l0-7.5h102.9v7.5H0.1z"/>
		<path class="st1" d="M103,35.3v5.7H0.1l0-5.7L103,35.3z"/>
		<path class="st1" d="M103,159.6v2.8H0.1l0-2.8L103,159.6z"/>
		<path class="st1" d="M0.1,145.8l0-2.8h102.9v2.8H0.1z"/>
		<path class="st1" d="M0.1,121.1l0-2.8H103v2.8H0.1z"/>
		<path class="st1" d="M0.1,181.8l0-2.8h102.9v2.8H0.1z"/>
		<path class="st1" d="M0.1,101.7l0-2.8h102.9v2.8H0.1z"/>
		<path class="st1" d="M0.1,206.5l0-2.8H103v2.8H0.1z"/>
		<path class="st1" d="M0.1,85.2l0-2.8H103v2.8H0.1z"/>
		<path class="st1" d="M103,220.2v2.8H0.1l0-2.8L103,220.2z"/>
		<path class="st1" d="M102.9,60.5H0.1l0-2.8h102.8V60.5z"/>
		<path class="st1" d="M0.1,242.4l0-2.8h102.9v2.8H0.1z"/>
		<path class="st1" d="M103,31.2V34H0.1l0-2.8L103,31.2z"/>
		<path class="st1" d="M103,21.2V24H0.1v-2.8L103,21.2z"/>
		<path class="st1" d="M103,264.4v2.8H0.1l0-2.8L103,264.4z"/>
		<path class="st1" d="M0.1,2.8l0-2.8L103,0v2.8L0.1,2.8z"/>
		<path class="st1" d="M0.1,176.5l0-1.6h102.9v1.6H0.1z"/>
		<path class="st1" d="M103,114.2v1.6H0.1L0,114.2H103z"/>
		<path class="st1" d="M0.1,55.2v-1.6H103v1.6H0.1z"/>
		<path class="st1" d="M103,235.5v1.6H0.1L0,235.5H103z"/>
		<path class="st1" d="M103,27.1v1.6H0.1L0,27.1H103z"/>
	</g>
</g>
</svg>
