<?xml version="1.0" encoding="utf-8"?>
<!-- Generator: Adobe Illustrator 26.2.1, SVG Export Plug-In . SVG Version: 6.00 Build 0)  -->
<svg version="1.1" id="图层_1" xmlns="http://www.w3.org/2000/svg" xmlns:xlink="http://www.w3.org/1999/xlink" x="0px" y="0px"
	 viewBox="0 0 234 158" style="enable-background:new 0 0 234 158;" xml:space="preserve">
<style type="text/css">
	.st0{fill:none;stroke:#FFE175;stroke-width:3;stroke-miterlimit:10;}
</style>
<path class="st0" d="M223.4,111c0,2.8-0.2,5.2,0,7.6c1.3,11.6-6.1,17.6-15.8,20c-12.2,3-24.8,1.8-37.2-0.3c-5.1-0.9-7.2-4.9-7.6-9.6
	c-0.5-5.3-0.5-10.7-0.6-16.1c-0.3-23.8-21-47.5-45.3-53.2c-1.5-0.4-3.1-0.5-4.7-0.6c-7.4-0.4-14.8-0.8-22.2-1.2
	c-0.9,0-1.9-0.2-2.5,0.1c-4.8,2.6-8.1-0.3-11.5-3c-5.2-4.1-9.2-9-11.7-15.2c-2.1-5.3-5.8-9.2-10.3-12.6c-2.8-2.1-5.1-4.8-7.7-7
	C45,18.8,43.5,18,42,17.1c-0.7,1.4-1.5,2.8-2.2,4.2c-0.2,0.4-0.3,0.9-0.9,2.3c-5.1-5-9.9-9.5-14.6-14.1L23.4,10
	c1.2,2.7,2.3,5.4,3.5,8.2c2.3,5.4,2.4,5.5-1.9,9.2c-4.3,3.8-7.9,7.9-8.5,14.1c-0.1,1.5-1.6,2.9-2.6,4.2c-0.5,0.7-1.4,1.1-1.8,1.8
	c-1.3,2.8,3,12.4,5.9,13.4c2.3,0.8,4.7,1.5,7,2.1c5.1,1.3,6.9,3.6,6.7,8.9c-0.1,3.3-0.5,6.6-0.6,9.9c0,6.8,2.5,12.3,8.4,16.2
	c5.8,3.9,11.3,7.9,15.2,14c5.1,8,3.7,15.8,1.1,23.9c-0.2,0.8-1.5,1.4-2.4,1.7c-1,0.3-2.2,0.2-3.3,0.3c-5,0.6-5.8,1.7-4.6,6.5
	c1.9,0.8,3.7,1.5,5.5,2.2c-1,6-1,6,4.6,5.9c2.9,0,5.9-0.1,8.8,0c3.2,0.1,5.1-1.5,6.5-4.4c3.3-6.8,6.9-13.3,10.7-20.5
	c3.2,2.9,5.8,5.2,9.1,8.1c-2,0.4-2.8,0.7-3.7,0.7c-3.3-0.1-4.2,1.9-4.3,4.7c-0.1,2.9,2.4,2.8,4.1,3.1c2.2,0.4,4.6,0.3,6.2,0.4
	c0,1.8-0.5,3.6,0.1,4.8c1.1,1.9,2.5,3.6,5.6,2.9c8.6-2,17.3-2.6,26.2-1.4c6,0.8,12.1,1,18.2,0.9c3.9,0,7.7-0.9,11.6-1.3
	c1.4-0.2,2.9-0.3,4.3-0.2c9.6,0.3,19.2,1,28.9,1c7.2,0,14.4-0.6,21.6-1.1c10.1-0.8,16.2-7.1,20-15.7c3.6-8,0.7-15.3-3.7-22.1
	c-0.2-0.3-0.5-0.5-0.8-0.7C224.7,111.5,224.4,111.5,223.4,111L223.4,111z"/>
</svg>
