<?xml version="1.0" encoding="utf-8"?>
<!-- Generator: Adobe Illustrator 26.2.1, SVG Export Plug-In . SVG Version: 6.00 Build 0)  -->
<svg version="1.1" id="图层_1" xmlns="http://www.w3.org/2000/svg" xmlns:xlink="http://www.w3.org/1999/xlink" x="0px" y="0px"
	 viewBox="0 0 645 600" style="enable-background:new 0 0 645 600;" xml:space="preserve">
<style type="text/css">
	.st0{fill:none;stroke:#FFE175;stroke-width:6;stroke-miterlimit:10;}
</style>
<path class="st0" d="M293.7,6.4h30c2.4,0.9,4.8,2,7.3,2.8c38.6,11.9,55.3,43.2,43,79.8c-1,4.6-1.2,9.2-0.5,13.8
	c2,34.2,6.1,68.9-31.1,94.2c12.1,2.3,21.2,4.6,30.6,5.5c19.8,2.4,30.2,14.2,35.7,31.1c1.2,4.2,2.1,8.5,2.6,12.9
	c5.9,34,11.1,68.1,18.2,101.9c2.2,9.4,7.5,17.9,15.3,24.2c30,22.9,60.8,44.3,92,65.5c5.3,2.3,11.1,3.3,16.9,2.9
	c7.5,0.4,15.2-1.2,22.5,0c11.7,1.7,23.4,4.8,37.7,7.8c1.1,5.5,0,15.7,5.1,20.7s16.6,5.5,25.2,8.1v2.2c-9.1,2.3-20.3,2.3-27,7.5
	c-13.5,10.4-26.8,7.9-40.2,3.2c-11.2-4.8-22-10.2-32.4-16.3c4.4,21.2-7,34.2-23.8,41.7c-23.8,10.6-49,18.5-73.6,27.7
	c-4,1.4-8.3,2.1-12.4,3.2v4.2c8.5,0.7,16.9,1.3,25.3,2.1c10.5,1,21.1,1.7,31.4,3.6c6.4,1.2,12.1,5.2,18.4,6.8
	c9.7,2.4,13.6,9,6.9,16.6c-7,6.7-14.7,12.7-22.8,18.1h-15.8c-21.9-11.8-45.9-12.6-70.2-12.9c-17.2,0-34.5-0.9-51.6-2.4
	c-33.8-2.9-66.7-13.8-101.5-6.7c-26.4,5.5-54.6-0.4-80.5,10.5c-2.3,0.2-4.6-0.1-6.8-1c-2.1-0.8-4-2.1-5.5-3.8
	c-9.5-12.3-16.4-25.8-11.7-41.5c-14-5.2-27.6-9.3-40.3-15.1c-20.4-9.5-38.2-21.7-38.5-48c-10.8,7.3-19.7,14.5-29.1,21.2
	c-9.7,7.3-22,10.8-34.4,9.6V482c4-5.5,7.6-11.5,12-16.6c13.2-15.8,27-30.7,51.2-31c6.3-0.2,12.5-2.3,17.6-5.9
	c27.5-19.8,54.1-40.5,81.6-60.3c8-5.2,13.5-13.2,15.3-22.2c6.1-28.5,12.6-56.8,18.8-85.3c0.5-2.2,0.4-4.4,0.7-7.4
	c-14.4,6.3-28.6,10.6-40.6,18.2c-10.5,6.9-19.6,15.7-26.8,25.8c-5.2,8.9-9.1,18.4-11.4,28.4c-9.6,29.9-30.7,43.8-63.6,42.5
	c-11.7-0.4-23.4,0-34.4,0c5.9-10.1,18.8-8,30.9-9.1l-6.6-7.7c25.9-0.8,43.7-17.5,43.5-41.1c0-16.6-2.2-33.2-3.2-49.9
	c-0.9-9,1-18,5.3-26c4.4-8,11-14.7,19.2-19.2c17-9.9,34.8-18.4,52.3-27.7c9.8-4.1,19.3-8.9,28.4-14.3c31.8-22.2,48.9-51.2,41.6-90.1
	c-2.7-14.4-0.2-29.3,7-42.2c7.3-12.9,18.9-23.2,33-29.2C284.6,9.7,288.9,8,293.7,6.4z M101.6,449.9c10.9,0,19.7-0.3,28.4,0
	c12.6,0.6,25.2,1.7,37.8,2.4c12.6,0.7,24.7,1.3,37.1,1.3c2,0,4.7-3.2,5.9-5.5c8.9-19.4,21.9-36.8,38.3-51.2c2.1-1.7,3.7-3.9,4.9-6.2
	c1.1-2.4,1.7-5,1.8-7.6c-4.2-22.6-9.9-45-15.1-67.4l-3-0.3c-6.5,15.7-14.1,31.1-19.2,47.3c-3.5,11.3-9.5,21.8-17.7,30.8
	c-8.2,8.9-18.3,16.1-29.7,21C147.9,425.1,125.8,437.4,101.6,449.9z M379.1,320.9l-3-0.6c-5.2,17.3-10.2,34.7-16.2,51.7
	c-3.7,10.6,0,18.4,6.4,27c9.8,12.4,17.9,25.9,26.8,38.8c1.2,2.2,2.8,4.3,4.5,6.2c7.8,7.7,18.6,12.3,29.9,12.6
	c20.5,1.6,39.9-2.9,59.8-2.4c3.9,0,7.7,0.9,11.7,1s9.4,0,14,0c-5.6-4.7-11.8-8.7-18.6-11.7c-19.5-10-38.8-20.7-58.5-29.9
	c-9.2-4.1-17.3-10.1-23.9-17.4s-11.5-15.9-14.3-25.1c-6.1-16.8-12.4-33.5-18.4-50.2H379.1z M607,456.2l-19,2.7l15.8,10.1L607,456.2z
	"/>
</svg>
