<?xml version="1.0" encoding="utf-8"?>
<!-- Generator: Adobe Illustrator 26.2.1, SVG Export Plug-In . SVG Version: 6.00 Build 0)  -->
<svg version="1.1" id="图层_1" xmlns="http://www.w3.org/2000/svg" xmlns:xlink="http://www.w3.org/1999/xlink" x="0px" y="0px"
	 viewBox="0 0 365 300" style="enable-background:new 0 0 365 300;" xml:space="preserve">
<style type="text/css">
	.st0{fill:none;stroke:#FFE175;stroke-width:3;stroke-miterlimit:10;}
</style>
<path class="st0" d="M0,252.2c6.6-4.2,14.3-6.9,22.9-3.8c13.8,5,26-2.2,32.2-14c-14,11.4-32.3,10.7-45.7-1.2
	c51.7,7.2,47.6-60.5,94.7-60.7c-10.6-6.7-25.9-29.4-36.3-10.5c1.1-28.6,45.8,4.5,56.5-14.1c5.3-8.8,13.8-14.1,22.5-18.9
	c8.7-15.8-0.3-45-0.1-63.5c-7.1-28.6-45.7,0.2-65.4-20.6c-10.9-8.5-21.7-17.1-33.6-26.4c22.6,2.3,44.7,12.6,65-2.2
	c44-31.3,86.7,4.1,121.9,30.7c13.8,10.2,27.7,18.8,46.3,15.2c20.8-4.1,41.8-6.7,62.6-10.6c14.2-2.7,18.6,0.6,16.9,14.8
	c-3.3,39.8-43.1,60.5-73.2,79.3c-17.1-2.4-19,17.8-9,25c-1.5,2.3-3.8,3.9-6.5,4.7c0,0.2,0.5,2.2,0.5,2.3c3.1,0.5,0,4.4-2.6,4.4
	c-0.1,0.3-1-0.3-1.1,0c3.6,2-1.3,4.2-3.6,4.5c-5.5,0.7-8.1,9.6-13.2,12.3c-8.3,4.3-15.8,2.5-24.3,1.1c-7-1.2-13.5,5.4-14.5,12.4
	c-1.7,11.4,6.1,20.7,11.7,29.7c6.1,9.8,10.7,21.2,9.7,32.9c-4.2,11.8-13.1,19.1-24.2,23.6c-8.6,1.1-17.3,1.3-26,0.6
	c-15.7-3-32.9-7.6-46-17c-17.6-12.8-34.9-33.2-55.9-8.7c4.5-5.2,11.1-9,9.3-18.3C76.3,270.8,53.2,279,32,274.1
	c11.9-1.4,23.8-2.7,33.4-11.1c-22.3,2.6-43.3-8.4-65.4-11V252.2z M172.4,204.9c14.8,1.4,8.4-28,6.1-34.8c1,2.9-3.2,12.4-3.8,15.7
	c-1,5.4-2.3,11.3-2.3,16.9C172.4,203.5,172.4,204.2,172.4,204.9z"/>
</svg>
