<?xml version="1.0" encoding="utf-8"?>
<!-- Generator: Adobe Illustrator 26.2.1, SVG Export Plug-In . SVG Version: 6.00 Build 0)  -->
<svg version="1.1" id="图层_1" xmlns="http://www.w3.org/2000/svg" xmlns:xlink="http://www.w3.org/1999/xlink" x="0px" y="0px"
	 viewBox="0 0 1382 808" style="enable-background:new 0 0 1382 808;" xml:space="preserve">
<style type="text/css">
	.st0{fill:#FFFFFF;}
	.st1{fill:#FCF0C7;}
</style>
<path class="st0" d="M50.9,495.7c1.7,0,3.4-0.7,4.6-1.9c1.2-1.2,1.9-2.9,1.9-4.6s-0.7-3.4-1.9-4.6s-2.9-1.9-4.6-1.9
	c-1.7,0-3.4,0.7-4.6,1.9c-1.2,1.2-1.9,2.9-1.9,4.6s0.7,3.4,1.9,4.6C47.6,495,49.2,495.7,50.9,495.7z"/>
<path class="st1" d="M454.1,372.4c1.7,0,3.4-0.7,4.6-1.9c1.2-1.2,1.9-2.9,1.9-4.6s-0.7-3.4-1.9-4.6c-1.2-1.2-2.9-1.9-4.6-1.9
	s-3.4,0.7-4.6,1.9c-1.2,1.2-1.9,2.9-1.9,4.6s0.7,3.4,1.9,4.6C450.7,371.7,452.4,372.4,454.1,372.4z"/>
<path class="st1" d="M304.6,132.7c1.7,0,3.4-0.7,4.6-1.9s1.9-2.9,1.9-4.6s-0.7-3.4-1.9-4.6c-1.2-1.2-2.9-1.9-4.6-1.9
	s-3.4,0.7-4.6,1.9c-1.2,1.2-1.9,2.9-1.9,4.6s0.7,3.4,1.9,4.6C301.2,132,302.9,132.7,304.6,132.7z"/>
<path class="st1" d="M992.8,598.2c1.7,0,3.4-0.7,4.6-1.9c1.2-1.2,1.9-2.9,1.9-4.6c0-1.7-0.7-3.4-1.9-4.6c-1.2-1.2-2.9-1.9-4.6-1.9
	c-1.7,0-3.4,0.7-4.6,1.9c-1.2,1.2-1.9,2.9-1.9,4.6c0,1.7,0.7,3.4,1.9,4.6C989.4,597.5,991,598.2,992.8,598.2z"/>
<path class="st1" d="M952.8,355c1.7,0,3.4-0.7,4.6-1.9c1.2-1.2,1.9-2.9,1.9-4.6s-0.7-3.4-1.9-4.6s-2.9-1.9-4.6-1.9
	c-1.7,0-3.4,0.7-4.6,1.9c-1.2,1.2-1.9,2.9-1.9,4.6s0.7,3.4,1.9,4.6C949.4,354.3,951.1,355,952.8,355z"/>
<path class="st0" d="M1314.3,266.4c1.7,0,3.4-0.7,4.6-1.9c1.2-1.2,1.9-2.9,1.9-4.6s-0.7-3.4-1.9-4.6c-1.2-1.2-2.9-1.9-4.6-1.9
	s-3.4,0.7-4.6,1.9c-1.2,1.2-1.9,2.9-1.9,4.6s0.7,3.4,1.9,4.6C1310.9,265.7,1312.5,266.4,1314.3,266.4z"/>
<path class="st1" d="M501,19.5c2.5-0.2,4.8-1.3,6.5-3.1c1.7-1.8,2.6-4.2,2.6-6.7s-0.9-4.9-2.6-6.7s-4-2.9-6.5-3.1
	c-2.5,0.2-4.8,1.3-6.5,3.1s-2.6,4.2-2.6,6.7s0.9,4.9,2.6,6.7C496.2,18.3,498.5,19.4,501,19.5z"/>
<path class="st1" d="M188.2,31.7c2.5-0.2,4.8-1.3,6.5-3.1c1.7-1.8,2.6-4.2,2.6-6.7s-0.9-4.9-2.6-6.7c-1.7-1.8-4-2.9-6.5-3.1
	c-2.5,0.2-4.8,1.3-6.5,3.1c-1.7,1.8-2.6,4.2-2.6,6.7s0.9,4.9,2.6,6.7C183.4,30.4,185.7,31.5,188.2,31.7z"/>
<path class="st1" d="M167.4,316.6c2.5-0.2,4.8-1.3,6.5-3.1c1.7-1.8,2.6-4.2,2.6-6.7s-0.9-4.9-2.6-6.7c-1.7-1.8-4-2.9-6.5-3.1
	c-2.5,0.2-4.8,1.3-6.5,3.1c-1.7,1.8-2.6,4.2-2.6,6.7s0.9,4.9,2.6,6.7C162.6,315.3,164.9,316.4,167.4,316.6z"/>
<path class="st1" d="M296,719.6c2.5-0.2,4.8-1.3,6.5-3.1s2.6-4.2,2.6-6.7s-0.9-4.9-2.6-6.7s-4-2.9-6.5-3.1c-2.5,0.2-4.8,1.3-6.5,3.1
	s-2.6,4.2-2.6,6.7s0.9,4.9,2.6,6.7S293.5,719.4,296,719.6z"/>
<path class="st0" d="M1053.6,532c2.5-0.2,4.8-1.3,6.5-3.1s2.6-4.2,2.6-6.7s-0.9-4.9-2.6-6.7s-4-2.9-6.5-3.1
	c-2.5,0.2-4.8,1.3-6.5,3.1s-2.6,4.2-2.6,6.7s0.9,4.9,2.6,6.7C1048.8,530.7,1051.1,531.8,1053.6,532z"/>
<path class="st0" d="M1276.1,719.6c2.5-0.2,4.8-1.3,6.5-3.1s2.6-4.2,2.6-6.7s-0.9-4.9-2.6-6.7s-4-2.9-6.5-3.1
	c-2.5,0.2-4.8,1.3-6.5,3.1s-2.6,4.2-2.6,6.7s0.9,4.9,2.6,6.7C1271.3,718.3,1273.6,719.4,1276.1,719.6z"/>
<path class="st0" d="M1244.8,302.7c2.5-0.2,4.8-1.3,6.5-3.1c1.7-1.8,2.6-4.2,2.6-6.7s-0.9-4.9-2.6-6.7c-1.7-1.8-4-2.9-6.5-3.1
	c-2.5,0.2-4.8,1.3-6.5,3.1c-1.7,1.8-2.6,4.2-2.6,6.7s0.9,4.9,2.6,6.7C1240,301.4,1242.3,302.5,1244.8,302.7z"/>
<path class="st0" d="M1286.5,139.4c2.5-0.2,4.8-1.3,6.5-3.1s2.6-4.2,2.6-6.7s-0.9-4.9-2.6-6.7c-1.7-1.8-4-2.9-6.5-3.1
	c-2.5,0.2-4.8,1.3-6.5,3.1c-1.7,1.8-2.6,4.2-2.6,6.7s0.9,4.9,2.6,6.7C1281.7,138.1,1284,139.2,1286.5,139.4z"/>
<path class="st1" d="M932,271.4c2.5-0.2,4.8-1.3,6.5-3.1c1.7-1.8,2.6-4.2,2.6-6.7s-0.9-4.9-2.6-6.7c-1.7-1.8-4-2.9-6.5-3.1
	c-2.5,0.2-4.8,1.3-6.5,3.1c-1.7,1.8-2.6,4.2-2.6,6.7s0.9,4.9,2.6,6.7C927.2,270.1,929.5,271.2,932,271.4z"/>
<path class="st1" d="M883.3,28.5c1.7,0,3.4-0.7,4.6-1.9c1.2-1.2,1.9-2.9,1.9-4.6s-0.7-3.4-1.9-4.6s-2.9-1.9-4.6-1.9
	c-1.7,0-3.4,0.7-4.6,1.9c-1.2,1.2-1.9,2.9-1.9,4.6s0.7,3.4,1.9,4.6C879.9,27.8,881.6,28.5,883.3,28.5z"/>
<path class="st1" d="M329.7,306.6c-0.3-2-0.4-4-0.3-6c0-0.7,0-2.7,1-3s1.3,1.4,1.6,2.1c0.3,0.7,0.6,2.1,0.9,3.1s0,2.6,0.7,2.9
	s2.6-0.8,3.2-1c1.1-0.3,2.3-0.5,3.4-0.6c2.3,0,5.2,1.3,1.9,3.1c-0.9,0.5-1.9,0.8-3,1c-0.6,0.1-1.1,0.2-1.7,0.3c-0.9,0-1.3,0-0.9,0.9
	c1,1.6,4.4,4.4,3.9,6.6c-0.6,2.2-2.9,0.4-3.9-0.6l-3.6-3.9c-0.3,1.2-1.3,10-4.2,7.8c-1-0.8-0.9-3.5-0.8-4.6c0.3-1.6,0.8-3.2,1.4-4.7
	c-1.6,0.8-3.4,1.2-5.2,1.1c-1.7,0-5-1.8-2.8-3.5s5.7,0,8.1-0.8"/>
<path class="st0" d="M12.7,348.8c-0.4-2-0.5-4-0.4-6c0-0.7,0-2.7,1-3s1.3,1.4,1.6,2.1c0.3,0.8,0.6,2.1,0.9,3.1c0.3,1,0,2.6,0.7,2.9
	c0.7,0.3,2.6-0.8,3.2-1c1.1-0.3,2.3-0.5,3.4-0.6c2.3,0,5.2,1.3,1.9,3.1c-0.9,0.5-1.9,0.8-3,1c-0.6,0.1-1.1,0.1-1.7,0
	c-0.9,0-1.3,0-0.9,0.8c1,1.6,4.4,4.4,3.9,6.6c-0.6,2.2-2.9,0.4-3.9-0.6l-3.6-3.8c-0.3,1.2-1.3,10-4.2,7.8c-1-0.8-0.9-3.5-0.8-4.6
	c0.3-1.6,0.8-3.2,1.4-4.7c-1.5,0.8-3.2,1.2-5,1.1c-1.7,0-5-1.8-2.8-3.5c2.2-1.8,5.7,0,8.1-0.8"/>
<path class="st0" d="M34.6,85.6c-0.4-2-0.5-4-0.4-6c0-0.8,0-2.7,1.1-3s1.3,1.4,1.6,2.1s0.6,2.1,0.9,3.2c0.3,1,0,2.6,0.8,2.9
	s2.6-0.8,3.2-1c1.1-0.2,2.3-0.3,3.4-0.4c2.3,0,5.2,1.3,1.9,3.1c-1,0.5-1.9,0.8-3,1.1h-1.8c-0.9,0-1.3,0-0.8,0.9s4.4,4.4,3.8,6.6
	c-0.6,2.2-2.8,0.4-3.8-0.6s-2.5-2.6-3.6-3.8c-0.3,1.2-1.3,10-4.2,7.8c-1-0.8-0.8-3.5-0.8-4.6c0.4-1.6,0.8-3.1,1.4-4.6
	c-1.6,0.8-3.4,1.2-5.2,1c-1.7,0-5-1.8-2.7-3.5c2.2-1.7,5.6,0,8.1-0.8"/>
<path class="st1" d="M324.7,33.9c-0.4-2-0.5-4-0.5-6c0-0.8,0.3-2.7,1.1-3c0.8-0.3,1.3,1.4,1.6,2.1c0.3,0.8,0.6,2.1,0.9,3.1
	s0,2.6,0.8,2.9c0.8,0.3,2.6-0.9,3.2-1c1.1-0.3,2.3-0.6,3.5-0.7c2.3,0,5.2,1.2,1.9,3c-0.9,0.5-1.9,0.9-3,1.1c-0.6,0.1-1.2,0.1-1.8,0
	c-0.9,0-1.3,0-0.8,0.8c1,1.6,4.4,4.4,3.8,6.6c-0.6,2.2-2.8,0.4-3.8-0.6s-2.5-2.5-3.6-3.8c-0.3,1.2-1.3,10-4.2,7.8
	c-1-0.8-0.8-3.5-0.8-4.6c0.3-1.4,0.7-2.8,1.3-4.2c-1.6,0.8-3.4,1.2-5.2,1.1c-1.7,0-5.2-1.8-2.8-3.5c2.5-1.8,5.6,0,8.1-0.8"/>
<path class="st1" d="M210.1,532.5c-0.4-2-0.6-4-0.6-6.1c0-0.7,0-2.7,1-3s1.3,1.4,1.6,2.1c0.3,0.7,0.6,2.1,0.9,3.1
	c0.3,1,0,2.6,0.7,2.9c0.7,0.3,2.6-0.8,3.2-1c1.1-0.3,2.3-0.5,3.4-0.6c2.3,0,5.2,1.3,1.9,3.1c-0.9,0.5-1.9,0.8-3,1
	c-0.6,0.2-1.1,0.2-1.7,0.3c-0.9,0-1.3,0-0.8,0.9c1,1.6,4.4,4.4,3.8,6.6c-0.6,2.2-2.8,0.4-3.8-0.6s-2.5-2.5-3.7-3.8
	c-0.3,1.3-1.3,10-4.2,7.8c-1-0.8-0.8-3.5-0.8-4.6c0.3-1.6,0.8-3.2,1.4-4.7c-1.5,0.8-3.2,1.2-5,1.1c-1.7,0-5.2-1.8-2.7-3.5
	s5.6,0,8.1-0.9"/>
<path class="st1" d="M462.1,622.3c-0.4-2-0.5-4-0.4-6c0-0.8,0-2.7,1.1-3s1.3,1.4,1.6,2.1c0.3,0.7,0.6,2.1,0.9,3.2
	c0.3,1,0,2.6,0.8,2.9c0.8,0.3,2.6-0.8,3.2-1c1.1-0.3,2.3-0.5,3.4-0.6c2.3,0,5.2,1.3,1.9,3.1c-1,0.5-1.9,0.8-3,1.1h-1.8
	c-0.9,0-1.3,0-0.8,0.9c1,1.6,4.4,4.4,3.8,6.6c-0.6,2.2-2.8,0.4-3.8-0.6s-2.5-2.6-3.6-3.8c-0.3,1.2-1.3,10-4.2,7.8
	c-1-0.8-0.8-3.5-0.8-4.6c0.4-1.6,0.8-3.1,1.4-4.6c-1.6,0.8-3.4,1.2-5.2,1c-1.7,0-5.2-1.8-2.7-3.5s5.6,0,8.1-0.8"/>
<path class="st1" d="M898.9,469.3c-0.3-2-0.5-4-0.4-6c0-0.8,0.3-2.7,1.1-3s1.3,1.4,1.6,2.1s0.6,2.1,0.9,3.2c0.3,1,0,2.6,0.8,2.9
	s2.6-0.8,3.2-1c1.1-0.3,2.3-0.5,3.4-0.6c2.3,0,5.2,1.3,1.9,3.1c-1,0.5-1.9,0.8-3,1.1h-1.8c-0.9,0-1.3,0-0.8,0.9s4.4,4.4,3.8,6.6
	c-0.6,2.2-2.8,0.4-3.8-0.6s-2.5-2.6-3.7-3.9c-0.3,1.2-1.3,10-4.2,7.8c-1-0.8-0.8-3.5-0.8-4.6c0.4-1.6,0.8-3.1,1.4-4.6
	c-1.6,0.8-3.4,1.2-5.2,1c-1.7,0-5-1.8-2.7-3.5c2.2-1.7,5.6,0,8.1-0.8"/>
<path class="st0" d="M1145,606.7c-0.4-2-0.5-4-0.4-6c0-0.8,0-2.7,1.1-3s1.3,1.4,1.6,2.1c0.3,0.7,0.6,2.1,0.9,3.2
	c0.3,1,0,2.6,0.8,2.9c0.8,0.3,2.6-0.8,3.2-1c1.1-0.3,2.3-0.5,3.4-0.6c2.3,0,5.2,1.3,1.9,3.1c-1,0.5-2,0.8-3,1.1h-1.8
	c-0.9,0-1.3,0-0.8,0.9c1,1.6,4.4,4.4,3.8,6.6c-0.6,2.2-2.8,0.4-3.8-0.6s-2.4-2.6-3.7-3.8c-0.3,1.2-1.3,10-4.2,7.8
	c-1-0.8-0.8-3.5-0.8-4.6c0.4-1.6,0.8-3.1,1.4-4.6c-1.6,0.8-3.4,1.2-5.2,1c-1.7,0-5.2-1.8-2.7-3.5s5.6,0,8.1-0.8"/>
<path class="st0" d="M1359.6,576.7c-0.3-2-0.5-4-0.4-6c0-0.7,0-2.7,1-3s1.3,1.4,1.6,2.1c0.3,0.7,0.6,2.1,0.9,3.1s0,2.6,0.7,2.9
	c0.7,0.3,2.6-0.8,3.2-1c1.1-0.3,2.3-0.5,3.4-0.6c2.3,0,5.2,1.3,1.9,3.1c-0.9,0.5-1.9,0.8-3,1c-0.6,0.2-1.1,0.2-1.7,0.3
	c-0.9,0-1.3,0-0.8,0.9c1,1.6,4.4,4.4,3.8,6.6c-0.6,2.2-2.8,0.4-3.8-0.6s-2.4-2.5-3.7-3.8c-0.3,1.2-1.3,10-4.2,7.8
	c-1-0.8-0.8-3.5-0.8-4.6c0.4-1.6,0.8-3.2,1.4-4.7c-1.5,0.8-3.2,1.2-5,1.1c-1.7,0-5.2-1.8-2.7-3.5s5.6,0,8.1-0.9"/>
<path class="st0" d="M1367.6,183.4c-0.3-2-0.5-4-0.4-6c0-0.7,0-2.7,1.1-3s1.3,1.4,1.6,2.1c0.3,0.7,0.6,2.1,0.9,3.1s0,2.6,0.7,2.9
	s2.6-0.8,3.2-1c1.1-0.3,2.3-0.5,3.4-0.6c2.3,0,5.2,1.2,1.9,3.1c-1,0.4-1.9,0.8-3,1c-0.6,0.1-1.2,0.1-1.8,0c-0.9,0-1.3,0-0.8,0.9
	s4.4,4.4,3.8,6.6c-0.6,2.2-2.8,0.4-3.8-0.6s-2.5-2.6-3.7-3.9c-0.3,1.3-1.3,10-4.2,7.8c-1-0.8-0.8-3.5-0.8-4.6
	c0.4-1.6,0.8-3.1,1.4-4.6c-1.6,0.8-3.4,1.2-5.2,1c-1.7,0-4.9-1.8-2.7-3.5s5.6,0,8.1-0.8"/>
<path class="st0" d="M1072.6,35.6c-0.3-2-0.5-4-0.4-6c0-0.7,0-2.7,1-3s1.3,1.4,1.6,2.1c0.3,0.7,0.6,2.1,0.9,3.1s0,2.6,0.7,2.9
	c0.7,0.3,2.6-0.8,3.2-1c1.1-0.3,2.3-0.5,3.4-0.6c2.3,0,5.2,1.3,1.9,3.1c-0.9,0.5-1.9,0.8-3,1c-0.6,0.1-1.2,0.1-1.7,0
	c-0.9,0-1.3,0-0.9,0.9s4.4,4.4,3.9,6.6c-0.6,2.2-2.9,0.4-3.9-0.6l-3.6-3.9c-0.3,1.3-1.3,10-4.2,7.8c-1.1-0.8-0.9-3.5-0.8-4.6
	c0.3-1.6,0.8-3.2,1.4-4.7c-1.5,0.8-3.2,1.2-4.9,1.1c-1.7,0-5.2-1.8-2.8-3.5c2.5-1.7,5.7,0,8.1-0.8"/>
<path class="st0" d="M1331.6,379.7c-0.8-4.2-1.1-8.5-0.8-12.8c0-1.6,0.5-5.7,2.3-6.3c1.8-0.6,2.7,2.9,3.4,4.5
	c0.7,1.6,1.3,4.5,1.9,6.7c0.3,1.1,0.5,5.5,1.6,6.1s5.5-1.8,6.8-2.1c2.4-0.7,4.8-1.1,7.3-1.3c4.9-0.4,10.9,2.6,4.1,6.5
	c-2,1-4.1,1.8-6.3,2.3c-1.2,0.3-2.5,0.5-3.7,0.5c-2,0-2.8,0-1.8,1.8c2.1,3.4,9.4,9.3,8.1,14s-6,0.8-8.1-1.3
	c-2.1-2.1-5.2-5.2-7.8-8.1c-0.7,2.6-2.8,21.2-9,16.5c-2.1-1.6-1.8-7.5-1.6-9.7c0.8-3.4,1.7-6.7,2.9-9.9c-3.2,1.6-6.8,2.4-10.4,2.3
	c-3.6-0.3-10.4-3.8-5.8-7.5s12-0.3,17.2-1.8"/>
<path class="st1" d="M75.2,598.5c-0.8-4.2-1.1-8.5-0.8-12.8c0-1.6,0.5-5.7,2.3-6.3s2.7,2.9,3.4,4.5c0.7,1.6,1.3,4.5,1.9,6.7
	c0.3,1.1,0.5,5.5,1.6,6.2c1.1,0.6,5.5-1.8,6.8-2.1c2.4-0.7,4.8-1.1,7.3-1.3c4.9-0.4,10.9,2.6,4.1,6.5c-2,1-4.1,1.8-6.3,2.3
	c-1.2,0.3-2.5,0.5-3.7,0.5c-2,0-2.8,0-1.8,1.8c2.1,3.4,9.4,9.3,8.1,14s-6,0.8-8.1-1.3s-5.2-5.2-7.8-8.1c-0.7,2.6-2.8,21.2-9,16.5
	c-2.1-1.6-1.8-7.5-1.6-9.7c0.8-3.4,1.7-6.7,2.9-9.9c-3.2,1.6-6.8,2.4-10.4,2.3c-3.6-0.3-10.4-3.8-5.8-7.5s12-0.3,17.2-1.8"/>
<path class="st1" d="M236.8,231.1c-0.8-4.2-1.1-8.5-0.8-12.8c0-1.6,0.5-5.7,2.3-6.3s2.7,2.9,3.4,4.5s1.3,4.5,1.9,6.7
	c0.3,1.1,0.5,5.5,1.6,6.1s5.5-1.8,6.8-2.1c2.4-0.7,4.8-1.1,7.3-1.3c4.9-0.4,10.9,2.6,4.1,6.5c-2,1-4.1,1.8-6.3,2.3
	c-1.2,0.3-2.5,0.5-3.7,0.5c-2,0-2.8,0-1.8,1.8c2.1,3.4,9.4,9.3,8.1,14s-6,0.8-8.1-1.3s-5.2-5.2-7.8-8.1c-0.7,2.6-2.8,21.2-9,16.5
	c-2.1-1.6-1.8-7.5-1.6-9.7c0.8-3.4,1.7-6.7,2.9-9.9c-3.2,1.6-6.8,2.4-10.4,2.3c-3.6-0.3-10.4-3.8-5.8-7.5c4.6-3.7,12-0.3,17.2-1.8"
	/>
<path class="st1" d="M802.6,623c-0.8-4.2-1-8.5-0.8-12.8c0-1.6,0.5-5.7,2.3-6.4s2.8,2.9,3.4,4.5c0.6,1.6,1.3,4.5,2,6.7
	c0.3,1.1,0.5,5.5,1.6,6.1s5.5-1.8,6.8-2.1c2.4-0.7,4.9-1.1,7.3-1.3c4.8-0.3,10.8,2.6,4,6.5c-2,1-4.1,1.8-6.3,2.3
	c-1.2,0.3-2.5,0.5-3.7,0.5c-1.9,0-2.8,0-1.8,1.8c2.1,3.4,9.4,9.3,8.1,14c-1.3,4.7-6,0.8-8.1-1.3s-5.2-5.2-7.8-8.1
	c-0.7,2.6-2.8,21.3-8.9,16.5c-2.1-1.6-1.8-7.5-1.6-9.7c0.7-3.4,1.7-6.7,2.9-9.9c-3.2,1.6-6.8,2.4-10.4,2.2
	c-3.5-0.3-10.4-3.7-5.8-7.5c4.6-3.8,12-0.3,17.2-1.8"/>
<path class="st1" d="M1034.5,316.5c-0.7-4.2-1-8.5-0.8-12.8c0-1.6,0.5-5.7,2.2-6.4c1.8-0.7,2.8,2.9,3.4,4.6c0.7,1.7,1.2,4.5,1.9,6.6
	c0.3,1.1,0.5,5.5,1.6,6.2s5.5-1.8,6.8-2.1c2.4-0.7,4.8-1.1,7.3-1.3c4.8-0.3,10.8,2.6,4.1,6.5c-2,1-4.2,1.7-6.4,2.2
	c-1.2,0.3-2.4,0.5-3.7,0.5c-1.9,0-2.8,0-1.8,1.9c2.1,3.4,9.4,9.3,8.1,14s-6,0.8-8.1-1.3c-2.1-2.1-5.2-5.2-7.8-8.1
	c-0.6,2.6-2.8,21.3-8.9,16.5c-2.1-1.6-1.8-7.5-1.6-9.7c0.7-3.4,1.7-6.7,2.9-9.9c-3.2,1.6-6.8,2.4-10.4,2.3
	c-3.6-0.4-10.4-3.8-5.8-7.5c4.6-3.8,12-0.3,17.1-1.8"/>
<path class="st0" d="M1309.5,42.2c-0.3-2-0.5-4-0.4-6c0-0.8,0-2.7,1-3s1.3,1.4,1.6,2.1c0.3,0.7,0.6,2.1,0.9,3.2c0.3,1,0,2.6,0.7,2.9
	c0.7,0.3,2.6-0.8,3.2-1c1.1-0.3,2.3-0.5,3.4-0.6c2.2,0,5.2,1.3,1.9,3.1c-0.9,0.5-1.9,0.8-3,1c-0.6,0.1-1.1,0.2-1.7,0.3
	c-0.9,0-1.3,0-0.9,0.9s4.4,4.4,3.9,6.6c-0.6,2.2-2.9,0.4-3.9-0.6l-3.6-3.9c-0.3,1.3-1.3,10-4.2,7.8c-1-0.8-0.8-3.5-0.7-4.6
	c0.3-1.6,0.8-3.1,1.4-4.6c-1.6,0.8-3.4,1.2-5.2,1c-1.7,0-5-1.8-2.8-3.5s5.7,0,8.1-0.8"/>
<path class="st1" d="M634.1,26.7c-0.4-1.9-0.5-3.9-0.4-5.8c0-0.8,0-2.7,1.1-3s1.3,1.4,1.6,2.1c0.3,0.8,0.6,2.1,0.9,3.1
	c0.3,1,0,2.6,0.8,2.9s2.6-0.9,3.2-1c1.1-0.3,2.3-0.5,3.4-0.6c2.3,0,5.2,1.2,1.9,3c-1,0.5-1.9,0.8-3,1.1c-0.6,0-1.2,0-1.8,0
	c-0.9,0-1.3,0-0.8,0.8c1,1.6,4.4,4.4,3.8,6.6c-0.6,2.2-2.8,0.4-3.8-0.6s-2.5-2.5-3.6-3.8c-0.3,1.2-1.3,10-4.2,7.8
	c-1-0.8-0.8-3.5-0.8-4.6c0.4-1.6,0.8-3.1,1.4-4.6c-1.5,0.7-3.2,1.1-5,1c-1.7,0-5.2-1.7-2.8-3.5c2.5-1.8,5.6,0,8.1-0.8"/>
</svg>
