<?xml version="1.0" encoding="utf-8"?>
<!-- Generator: Adobe Illustrator 26.2.1, SVG Export Plug-In . SVG Version: 6.00 Build 0)  -->
<svg version="1.1" id="图层_1" xmlns="http://www.w3.org/2000/svg" xmlns:xlink="http://www.w3.org/1999/xlink" x="0px" y="0px"
	 viewBox="0 0 792 314" style="enable-background:new 0 0 792 314;" xml:space="preserve">
<style type="text/css">
	.st0{fill:#FC32B9;}
	.st1{fill:#FFFFFF;}
	.st2{fill:#769052;}
	.st3{fill:#653711;}
</style>
<path class="st0" d="M16.3,137.6L372.1,239c0,0,8.7,51.9,42.7,52.5c43.2,0.7,49.9-51,49.9-51l314.9-75.1l4.4,34.1l-305.4,57.4
	c0,0-16.2,56.7-60.9,56.7s-61-53.9-61-53.9L5,174.4L16.3,137.6L16.3,137.6z"/>
<path class="st1" d="M775.3,146.1l-236.5,49.6l234.9-60.4l-1.5-10.6c-130.7,11.4-287.9,78.8-287.9,78.8
	c160.6-82.4,258.4-95.4,285.2-97.5l-2.6-17.6c-111.2,12.1-255,97.4-255,97.4C638.5,96.5,743.4,76.3,764.6,72.9l-1.5-10.3
	c-96.3,16.8-215.8,84.2-215.8,84.2c97.5-72.6,188.2-94.5,213.5-99.4l-2.2-15.2c-193.2,37.1-341,186.9-341,186.9
	C308.7,125.3,224.3,48,58.1,14.3l-6.6,21.6c23.8,6.1,134.9,36.9,218.7,97.4c0,0-124.2-57-224-80l-5,16.5
	c35.7,9.6,213.9,59.6,287.9,116c0,0-135.9-66.3-293.1-99l-2.6,8.4c202.9,52,316.3,114,316.3,114s-214.1-71.4-321-98.5l-3.7,12
	l355.2,112l78,0.4l319-77.3L775.3,146.1z"/>
<path class="st2" d="M757.6,25l-1.1-7.6c0,0-200.5,5.3-338.8,150.6C316.9,72.4,210.6,12.1,62.4,0l-1.9,6.2
	c21,1.9,175.3,20.9,352.5,186.6C413.1,192.8,523.1,58.3,757.6,25z"/>
<path class="st3" d="M757.6,25C523.1,58.3,413.1,192.8,413.1,192.8C235.9,27.2,81.6,8.1,60.5,6.2L58,14.3
	c166.3,33.7,250.6,111,359.6,204.8c0,0,147.7-149.8,341-186.9L757.6,25z"/>
<ellipse class="st1" cx="417.7" cy="232.3" rx="41.2" ry="8.7"/>
</svg>
