<svg width="662" height="220" viewBox="0 0 662 220" fill="none" xmlns="http://www.w3.org/2000/svg">
<path d="M560.051 108.966C560.051 108.966 545.836 121.69 521.679 193.528" stroke="#3C3F01" stroke-width="3" stroke-miterlimit="10"/>
<path d="M494.916 38.49C482.544 89.8916 518.451 136.34 537.126 151.811C537.126 151.811 527.008 42.1288 494.916 38.49Z" fill="#3C3F01"/>
<path d="M576.661 12.243C564.958 12.0318 534.438 96.9224 560.039 108.966C585.64 121.009 665.894 62.8347 661.563 50.9087C657.232 38.9827 624.388 56.4022 624.388 56.4022C624.388 56.4022 653.851 29.1813 646.245 21.2932C638.638 13.4051 611.922 41.7646 612.004 37.9145C612.075 34.0644 626.818 7.41865 617.51 1.06829C608.201 -5.28208 577.424 39.1822 577.424 39.1822C577.424 39.1822 584.408 12.3957 576.661 12.2548V12.243Z" fill="#FF5EC2"/>
<path d="M546.13 62.6353L599.938 108.778C599.938 108.778 569.524 124.214 553.947 115.575C538.371 106.935 546.13 62.6353 546.13 62.6353Z" fill="#919C3D"/>
<path d="M47.5729 71.8264C47.5729 71.8264 67.6452 99.329 78.7965 132.466" stroke="#3C3F01" stroke-width="1.38" stroke-miterlimit="10"/>
<path d="M77.6226 39.3113C83.3274 63.0224 66.7648 84.4564 58.1489 91.5932C58.1489 91.5932 62.8207 40.9898 77.6226 39.3113Z" fill="#3C3F01"/>
<path d="M39.9077 27.2094C45.3073 27.1037 59.3814 66.2741 47.5728 71.8263C35.7641 77.3785 -1.25818 50.5449 0.737319 45.0397C2.73281 39.5345 17.8868 47.5752 17.8868 47.5752C17.8868 47.5752 4.294 35.0153 7.80372 31.3764C11.3134 27.7376 23.6386 40.8257 23.6033 39.0415C23.5681 37.2573 16.7717 24.9791 21.0679 22.0446C25.3641 19.11 39.5556 39.6284 39.5556 39.6284C39.5556 39.6284 36.3276 27.2681 39.9077 27.2094Z" fill="#FF5EC2"/>
<path d="M53.9935 50.4512L29.1672 71.7443C29.1672 71.7443 43.1944 78.8694 50.3782 74.8784C57.5619 70.8874 53.9818 50.4512 53.9818 50.4512H53.9935Z" fill="#919C3D"/>
<path d="M291.833 113.097C285.459 107.451 235.478 122.23 237.861 135.024C240.244 147.819 298.207 118.743 291.833 113.097Z" fill="#5C6C00"/>
<path d="M223.047 68.1047C223.047 68.1047 238.976 116.548 241.523 173.256" stroke="#3C3F01" stroke-width="3" stroke-miterlimit="10"/>
<path d="M228.787 90.0789C228.787 90.0789 264.46 123.204 275.282 114.283C286.105 105.362 261.267 79.8901 261.267 79.8901C261.267 79.8901 313.49 69.7013 314.136 62.6936C314.77 55.6859 261.267 65.2408 261.267 65.2408C261.267 65.2408 283.558 34.0289 275.282 28.3007C267.007 22.5725 238.976 54.4182 238.976 54.4182C238.976 54.4182 240.255 7.28931 228.787 7.28931C217.319 7.28931 217.965 54.4182 217.965 54.4182C217.965 54.4182 176.564 36.5879 170.19 48.0443C163.816 59.5126 205.863 69.0675 205.863 69.0675C205.863 69.0675 154.273 85.6301 163.194 93.2716C172.115 100.913 207.142 83.0829 207.142 83.0829C207.142 83.0829 194.406 117.464 206.508 118.744C218.61 120.023 228.799 90.0906 228.799 90.0906L228.787 90.0789Z" fill="#FF5EC2"/>
<path d="M235.161 73.446C235.161 77.3196 232.015 80.4654 228.142 80.4654C224.268 80.4654 221.122 77.3196 221.122 73.446C221.122 69.5723 224.268 66.4265 228.142 66.4265C232.015 66.4265 235.161 69.5723 235.161 73.446Z" fill="#3C3F01"/>
<path d="M335.452 145.037C337.366 146.141 318.948 158.337 289.462 218.906" stroke="#5C6C00" stroke-width="2.36" stroke-miterlimit="10"/>
<path d="M329.325 133.241C329.325 133.241 320.498 100.385 309.335 106.63C298.172 112.875 325.627 147.139 325.627 147.139C325.627 147.139 299.369 138.769 295.354 148.395C291.34 158.02 324.888 158.349 324.888 158.349C324.888 158.349 320.498 181.344 326.519 183.433C332.541 185.522 337.929 157.046 337.929 157.046C337.929 157.046 348.388 180.346 356.522 174.747C364.657 169.136 348.129 147.103 348.129 147.103C348.129 147.103 385.868 137.161 382.288 128.052C378.707 118.943 348.024 137.102 348.024 137.102C348.024 137.102 358.166 98.1316 350.465 94.3519C342.777 90.5722 329.325 133.276 329.325 133.276V133.241Z" fill="#FF5EC2"/>
<path d="M340.969 142.361C342.448 145.401 341.169 149.075 338.128 150.543C335.088 152.022 331.414 150.742 329.947 147.702C328.468 144.662 329.747 140.988 332.788 139.521C335.828 138.042 339.502 139.321 340.969 142.361Z" fill="#3C3F01"/>
</svg>
