<svg width="677" height="277" viewBox="0 0 677 277" fill="none" xmlns="http://www.w3.org/2000/svg">
<path d="M399.308 115.643C392.558 115.068 393.826 143.146 397.653 144.719C401.479 146.292 406.057 116.207 399.308 115.643Z" fill="#5C6C00"/>
<path d="M372.028 143.275C374.998 150.928 397.864 149.215 397.653 144.719C397.441 140.223 371.019 140.669 372.028 143.275Z" fill="#919C3D"/>
<path d="M381.759 159.403C382.44 165.965 406.41 161.904 406.316 156.891C406.222 151.867 381.078 152.842 381.759 159.403Z" fill="#5C6C00"/>
<path d="M417.561 125.104C412.889 122.663 400.129 156.563 406.316 156.891C412.502 157.22 422.233 127.558 417.561 125.104Z" fill="#919C3D"/>
<path d="M391.009 173.959C389.847 178.971 415.929 174.276 415.389 169.686C414.849 165.097 392.171 168.947 391.009 173.959Z" fill="#919C3D"/>
<path d="M425.308 144.332C421.152 141.42 409.825 170.073 415.389 169.674C420.953 169.275 429.463 147.231 425.308 144.332Z" fill="#5C6C00"/>
<path d="M401.773 183.15C401.151 188.772 422.855 187.704 423.958 183.091C425.061 178.478 402.254 178.818 401.773 183.15Z" fill="#5C6C00"/>
<path d="M430.919 162.49C428.688 158.828 419.943 184.582 423.946 183.091C427.949 181.6 432.985 165.871 430.919 162.49Z" fill="#919C3D"/>
<path d="M386.865 129.635C386.865 129.635 421.927 178.525 432.726 194.595" stroke="#3C3F01" stroke-width="1.83" stroke-miterlimit="10"/>
<path d="M375.89 116.348C373.695 119.306 385.433 141.115 390.95 136.033C396.479 130.962 379.153 111.922 375.89 116.348Z" fill="#5C6C00"/>
<path d="M0.731689 147.995C0.731689 147.995 1.68249 138.299 9.62925 134.062C17.576 129.824 21.8135 137.771 21.8135 137.771C21.8135 137.771 17.13 105.057 27.9408 102.357C38.7517 99.6571 43.2827 126.338 43.2827 126.338C43.2827 126.338 59.5049 99.3167 69.858 102.474C80.2111 105.632 70.9379 136.093 70.9379 136.093C70.9379 136.093 103.758 150.742 102.385 174.958L31.2745 167.95L0.731689 147.995Z" fill="#5C6C00"/>
<path d="M164.609 195.523C164.609 195.523 200.293 181.085 218.816 188.058C237.339 195.03 228.195 207.555 228.195 207.555C228.195 207.555 276.31 182.917 292.649 199.209C308.989 215.502 276.251 242.147 276.251 242.147C276.251 242.147 308.836 240.082 307.932 251.796C307.028 263.511 291.663 276.81 291.663 276.81L164.609 195.523Z" fill="#3C3F01"/>
<path d="M427.85 81.8796C427.85 81.8796 430.784 129.713 466.151 171.876C481.481 190.141 497.387 203.311 497.387 203.311" stroke="#5C6C00" stroke-width="1.38" stroke-miterlimit="10"/>
<path d="M429.575 64.6714C435.151 63.4741 435.327 91.8336 429.528 92.667C423.741 93.5122 424 65.8687 429.575 64.6714Z" fill="#5C6C00"/>
<path d="M407.988 95.4607C410.43 90.7771 434.693 102.269 433.061 107.164C431.43 112.059 405.535 100.132 407.988 95.4607Z" fill="#5C6C00"/>
<path d="M443.133 83.4525C449.178 84.2742 434.669 110.591 433.061 107.175C431.453 103.76 437.087 82.6309 443.133 83.4525Z" fill="#3C3F01"/>
<path d="M414.492 118.362C416.405 113.103 439.846 119.794 438.743 123.961C437.639 128.128 412.578 123.621 414.492 118.362Z" fill="#3C3F01"/>
<path d="M448.368 106.753C451.725 107.352 442.71 125.158 438.743 123.961C434.787 122.764 445.011 106.154 448.368 106.753Z" fill="#5C6C00"/>
<path d="M456.397 123.269C459.918 124.513 449.753 147.461 448.344 144.785C446.936 142.109 452.875 122.025 456.397 123.269Z" fill="#3C3F01"/>
<path d="M425.866 145.759C428.93 140.571 449.495 140.242 448.345 144.785C447.194 149.327 424.986 147.25 425.866 145.759Z" fill="#5C6C00"/>
<path d="M462.935 138.376C467.513 136.744 461.339 161.441 457.535 160.103C453.732 158.765 458.85 139.819 462.935 138.376Z" fill="#5C6C00"/>
<path d="M432.967 158.166C433.636 154.046 457.911 155.467 457.547 160.103C457.183 164.74 432.298 162.287 432.967 158.166Z" fill="#3C3F01"/>
<path d="M410.477 269.779C410.477 269.779 402.765 239.318 410.559 231.113C418.365 222.908 426.641 239.706 426.641 239.706C426.641 239.706 426.394 211.863 437.146 206.181C447.898 200.512 454.096 216.335 454.096 216.335C454.096 216.335 457.289 198.716 467.255 196.485C477.221 194.244 476.469 206.592 476.469 206.592C476.469 206.592 481.716 198.54 489.428 198.458C497.14 198.387 491.905 215.255 491.905 215.255L410.465 269.779H410.477Z" fill="#5C6C00"/>
<path d="M508.186 211.041C508.186 211.041 499.746 188.609 512.107 182.259C524.467 175.909 530.559 186.719 530.559 186.719C530.559 186.719 550.62 147.784 559.74 144.685C568.861 141.586 564.553 168.443 564.553 168.443C564.553 168.443 578.838 136.304 586.456 135.412C594.075 134.52 591.375 159.698 591.375 159.698C591.375 159.698 608.36 124.847 620.192 125.516C632.024 126.186 633.01 140.659 633.01 140.659C633.01 140.659 654.362 88.8463 671.511 93.3303C688.661 97.8143 659.996 174.453 659.996 174.453L508.186 211.029V211.041Z" fill="#121212"/>
<path d="M38.9277 13.7573C38.9277 13.7573 96.5623 58.7968 119.017 139.72C128.748 174.782 131.554 206.182 131.554 206.182" stroke="#5C6C00" stroke-width="2.11" stroke-miterlimit="10"/>
<path d="M15.7801 1.05642C9.45322 7.03116 44.973 31.7518 51.0299 25.2019C57.0868 18.652 22.107 -4.91833 15.7801 1.05642Z" fill="#5C6C00"/>
<path d="M73.1681 0.528141C65.1627 -0.434391 58.648 40.0037 66.2191 42.187C73.7903 44.3703 81.1736 1.49067 73.1681 0.528141Z" fill="#5C6C00"/>
<path d="M27.6826 34.346C23.4921 42.6684 69.1185 47.1524 66.2191 42.1871C63.3198 37.2101 31.8614 26.0354 27.6826 34.346Z" fill="#3C3F01"/>
<path d="M96.3395 28.5002C88.064 26.3638 76.2319 61.6371 82.4297 63.8439C88.6275 66.0507 104.627 30.6365 96.3395 28.5002Z" fill="#3C3F01"/>
<path d="M52.4737 61.074C50.3373 65.8162 80.5163 69.8659 82.4296 63.8442C84.3429 57.8225 54.6101 56.3318 52.4737 61.074Z" fill="#5C6C00"/>
<path d="M66.3013 85.4423C64.8223 90.9475 102.467 98.0022 100.319 93.9056C98.1705 89.8207 67.7685 79.9371 66.3013 85.4423Z" fill="#3C3F01"/>
<path d="M120.966 66.4735C111.799 65.8396 93.6161 91.4289 100.33 93.9057C107.045 96.3824 123.607 66.6613 120.966 66.4735Z" fill="#5C6C00"/>
<path d="M79.6478 106.724C73.6378 111.079 110.038 124.636 111.646 118.72C113.254 112.793 84.9887 102.85 79.6478 106.724Z" fill="#5C6C00"/>
<path d="M130.451 86.1231C124.687 83.3999 105.495 115.163 111.646 118.72C117.797 122.277 136.214 88.8464 130.451 86.1231Z" fill="#3C3F01"/>
</svg>
