<?xml version="1.0" encoding="utf-8"?>
<!-- Generator: Adobe Illustrator 26.2.1, SVG Export Plug-In . SVG Version: 6.00 Build 0)  -->
<svg version="1.1" id="图层_1" xmlns="http://www.w3.org/2000/svg" xmlns:xlink="http://www.w3.org/1999/xlink" x="0px" y="0px"
	 viewBox="0 0 374 392" style="enable-background:new 0 0 374 392;" xml:space="preserve">
<style type="text/css">
	.st0{fill:url(#SVGID_1_);}
</style>
<linearGradient id="SVGID_1_" gradientUnits="userSpaceOnUse" x1="157.339" y1="54.2553" x2="316.339" y2="371.2553">
	<stop  offset="6.237890e-02" style="stop-color:#FF52CD"/>
	<stop  offset="1" style="stop-color:#E9EFDB"/>
</linearGradient>
<path class="st0" d="M261.8,6.4c-37.9,16.1-43.1,75.3-43.1,75.3s-23.1-24-42.1-16.6c-18.9,7.4-6.9,37.4-6.9,37.4
	C147.5,70.2,99,40.2,80.5,67.9s29.6,59.6,29.6,59.6s-14.3-11.1-23.6-2.8c-9.2,8.3-3.7,23-3.7,23s-29.1-47.2-55.5-40.1
	c-60.9,16.5,0.2,93,0.2,93s107.1,34.4,158.3,62.1c89.9,48.5,136.8,128.4,136.8,128.4s58.9-208.7,49.6-300.2
	C364.8,17.6,312-14.9,261.8,6.4L261.8,6.4z"/>
</svg>
