<?xml version="1.0" encoding="utf-8"?>
<!-- Generator: Adobe Illustrator 26.2.1, SVG Export Plug-In . SVG Version: 6.00 Build 0)  -->
<svg version="1.1" id="图层_1" xmlns="http://www.w3.org/2000/svg" xmlns:xlink="http://www.w3.org/1999/xlink" x="0px" y="0px"
	 viewBox="0 0 923.2 635" style="enable-background:new 0 0 923.2 635;" xml:space="preserve">
<style type="text/css">
	.st0{fill:url(#SVGID_1_);}
	.st1{fill:url(#SVGID_00000005235265029939081660000004938915823856834464_);}
	.st2{fill:url(#SVGID_00000135665395123025774540000013484558927421935008_);}
	.st3{fill:url(#SVGID_00000182520790872916612400000006729297967755145859_);}
	.st4{fill:url(#SVGID_00000081648006231432503710000003330983715961355964_);}
</style>
<linearGradient id="SVGID_1_" gradientUnits="userSpaceOnUse" x1="640.8713" y1="85.1588" x2="633.6747" y2="476.4732">
	<stop  offset="2.611410e-02" style="stop-color:#FF00B9"/>
	<stop  offset="1" style="stop-color:#E9EFDB"/>
</linearGradient>
<path class="st0" d="M855.3,516c-1.3-25-7-49.8-16.6-73c-6.8-16.2-16.6-25.4-27.9-38c-7.9-8.7-10.8-25.9-22.1-30.7
	c-10.7-4.5-21.7,23.1-31.8,7.5c-6.5-10.6-10.9-35.6-16.5-52.8c-6.5-19-12.7-13.2-19.4-26.2c-5-9.8-8.5-31.1-12.9-44.6
	c-6.8-18.3-14.5-33.1-22.7-44c-10.6-16.8-21.5-35.7-29.5-71.7c-2.9-13.2-5.6-29-9.5-34.5c-9-12.7-16.2,33.9-24.1,56.5
	c-10.9,30.6-25.4,15.9-37.6,34.7c-14.6,22.5-24.6,90.7-39.7,104.9c-7.3,7-15,0-22.4,6.6c-15.8,14.4-25.9,85.4-40.1,119.4
	c-9.7,23.4-21.1,28.3-32,36.9c-14.1,11.4-27.7,29.2-40.3,52.8c29.8,25.4,62.7,10.6,93,10.6c4.7,0,9.3,0,14,0c50.4,0,100.9,0,151.3,0
	c32.6,0,65.2,0,97.8,0c14.3,0,28.4-3.3,42.6-2.2c15.8,1.2,31,3.8,47,3.7C855.6,526.6,855.5,521.3,855.3,516z"/>
<linearGradient id="SVGID_00000092429650560244965960000017391969879485090696_" gradientUnits="userSpaceOnUse" x1="536.2277" y1="457.7775" x2="536.2277" y2="554.9891">
	<stop  offset="0" style="stop-color:#FF5ECC"/>
	<stop  offset="1" style="stop-color:#E9EFDB"/>
</linearGradient>
<path style="fill:url(#SVGID_00000092429650560244965960000017391969879485090696_);" d="M658.6,525.4c-3.6-1.3-7.2-1.6-10.9-2.7
	c-7-2.4-13.4-7.7-18.6-15.3c-4.4-6.4-8.4-14.5-13.5-17.5c-4.6-2.7-9.4-1.6-14.1-3.9c-4.7-2.3-9.4-3.7-13.8-7.8
	c-0.7-0.7-1.5-1.2-2.3-1.6c0-0.8,0-1.6-0.1-2.4c-3.6,0.2-7-1.8-10.5-2.5c-2.6-0.5-5-0.1-7.5-1.2c-0.5-0.5-0.9-1-1.4-1.6
	c-2.5-2.9-4.9-2.6-7.6-4.4c-4-2.8-8.2-9.3-12.2-12.3c-4-4.8-8.5-9.9-12.8-8.8c-5.1,1.4-10.2,10.2-15.2,13.5
	c-2.7,1.8-5.2,1.5-7.8,4.4c-2.2,2.7-4.8,4.8-7.6,6.1c-5.1,1.7-10-1.1-14.9,3.2c-4.6,4.1-9.5,5.5-14.3,7.8c-4.8,2.3-9.8,1.2-14.6,3.9
	c-5.3,3-9.4,11.1-14,17.5c-5.3,7.6-11.9,12.9-19.2,15.3c-3.7,1.2-7.5,1.4-11.2,2.7c-8.1,2.8-15.6,10.4-23.5,14
	c7.6,5.4,15.9,3,23.8,1.8c26-4.1,51.9,3.9,77.9,9.5c0,2.4,0,4.1-0.2,4.3l28.1,4.9c6.8,1.2,13.5,2.4,20.3,2.8
	c39.1,2.5,78.1-20.3,117.2-14c7.7,1.2,15.7,3.6,23.1-1.8C673.6,535.8,666.4,528.2,658.6,525.4z"/>
<linearGradient id="SVGID_00000151505208112407136980000005377429014465219466_" gradientUnits="userSpaceOnUse" x1="678.6565" y1="263.0412" x2="678.6565" y2="566.8157">
	<stop  offset="2.611410e-02" style="stop-color:#FF00B9"/>
	<stop  offset="1" style="stop-color:#E9EFDB"/>
</linearGradient>
<path style="fill:url(#SVGID_00000151505208112407136980000005377429014465219466_);" d="M835.8,421.3c-3-7.2-5.8-14.8-8.6-22.2
	c-1.4-3.3-2.6-7.7-3.5-12.9c-5,1.4-9.6-10.6-13.7-22l-21.2-59.4c-2.3-7.7-5.1-13-8.1-15.7c-4.6-2.6-9.1,8-13,18.5
	c-5.6,14.8-11.5,36.1-17.6,46.7c-16.7,28.8-35.7,29.7-53.5,45.1c-5.8,4.9-10.5,23.7-16,33.4c-6.9,12-14.1,21.3-21.4,27.8
	c-4.2,4.5-8.7,5.8-13,3.7c-1.9-2.1-3.9-3.1-5.9-2.9c-3.1,1.4-6,11.4-9.1,8.7c-1.4-1.2-2.6-5.1-4.1-5.9c-4-3.1-7.6,16.1-11.6,11.9
	c-0.9-1.3-1.8-2.8-2.6-4.6c-2.2-2.8-4.5-3.5-6.8-2.1c-5.9,1.8-12.2,1.1-18,5.9c-4.2,3.3-7.8,10.9-12.4,10.9
	c-5.5,2.3-11.1,3.2-16.7,4.1c0,0-7.1,1.1-7.1,1.1c-16,2.5-31.6,1.2-46.6,10.8c-15.5,9.9-29.7,24.5-45.3,33.9
	c-6.3,3.8-13.3,6.6-17.9,14.8c42,0.4,86,4.4,129.7,4.9c66.2,0.6,132.3,1.3,198.5,1.9c46.2,0.4,92.4,0.9,138.7,1.3
	c1.9,0,3.9,0,5.8,0.1c0,0-62-102.8-62.9-104.1C846.5,445.7,841,434.4,835.8,421.3z"/>
<linearGradient id="SVGID_00000085235693247107726060000005683683041566346626_" gradientUnits="userSpaceOnUse" x1="767.5781" y1="194.5076" x2="777.3369" y2="565.3394" gradientTransform="matrix(-1.2174 0 0 1 1210.6996 0)">
	<stop  offset="2.611410e-02" style="stop-color:#FF00B9"/>
	<stop  offset="1" style="stop-color:#E9EFDB"/>
</linearGradient>
<path style="fill:url(#SVGID_00000085235693247107726060000005683683041566346626_);" d="M43.9,509.2c6.5-4.4,13.1-5.3,19.6-9.2
	c12.7-8.1,24.3-26,33.6-51.7c7.9-21.6,15.2-49,24.4-59.2c8.3-9.2,17-5.3,25.5-13.1c8.4-7.8,17-12.6,25-26.4c1.4-2.3,2.7-4.1,4.1-5.3
	c0-2.7,0.1-5.4,0.1-8.1c6.6,0.5,12.6-6.2,19-8.4c4.6-1.5,9-0.2,13.6-4.1c0.9-1.7,1.7-3.5,2.5-5.4c4.6-9.9,8.9-8.9,13.7-15
	c7.3-9.3,14.8-31.5,22.1-41.5c7.3-16.3,15.4-33.6,23.1-29.7c9.1,4.7,18.4,34.7,27.5,45.9c5,6.1,9.4,5.2,14.1,15
	c4.1,9.3,8.7,16.3,13.8,20.6c9.2,5.8,18.1-3.8,26.8,10.8c8.3,13.8,17.2,18.6,25.9,26.4c8.7,7.8,17.7,3.9,26.3,13.1
	c9.5,10.2,17,37.6,25.2,59.2c9.6,25.7,21.6,43.5,34.7,51.7c6.7,3.9,13.6,4.7,20.3,9.2c14.6,9.5,28.1,35.3,42.6,47.5
	c-13.8,18.2-28.7,10.3-43.1,6.1c-47-13.7-93.9,13.3-140.8,32.1c0,8.2,0.1,13.9,0.4,14.5l-50.9,16.7c-12.2,4.1-24.4,8-36.7,9.5
	c-70.7,8.3-141.2-68.8-211.8-47.5c-14,4.2-28.4,12.1-41.7-6.1C16.7,544.5,29.8,518.7,43.9,509.2z"/>
<linearGradient id="SVGID_00000067922753620448658440000018278115855318661287_" gradientUnits="userSpaceOnUse" x1="551.0294" y1="434.7694" x2="551.0294" y2="629.7072" gradientTransform="matrix(-1.2174 0 0 1 1210.6996 0)">
	<stop  offset="0" style="stop-color:#FF5ECC"/>
	<stop  offset="1" style="stop-color:#E9EFDB"/>
</linearGradient>
<path style="fill:url(#SVGID_00000067922753620448658440000018278115855318661287_);" d="M318.1,570.3c6.5-2.6,13.1-3.1,19.7-5.4
	c12.7-4.8,24.4-15.4,33.7-30.6c8-12.8,15.3-29,24.5-35c8.3-5.4,17.1-3.1,25.5-7.7c8.4-4.6,17.1-7.4,25.1-15.6
	c1.4-1.4,2.7-2.4,4.1-3.1c0-1.6,0.1-3.2,0.1-4.8c6.6,0.3,12.6-3.7,19.1-5c4.6-0.9,9-0.1,13.6-2.5c0.9-1,1.7-2.1,2.5-3.2
	c4.6-5.8,8.9-5.3,13.7-8.9c7.3-5.5,14.8-18.7,22.2-24.6c7.3-9.6,15.5-19.9,23.1-17.6c9.2,2.8,18.5,20.5,27.6,27.2
	c5,3.6,9.4,3.1,14.2,8.9c4.1,5.5,8.8,9.6,13.8,12.2c9.2,3.4,18.2-2.3,26.9,6.4c8.3,8.2,17.2,11,25.9,15.6c8.7,4.6,17.8,2.3,26.4,7.7
	c9.6,6,17.1,22.3,25.3,35c9.6,15.2,21.7,25.8,34.8,30.6c6.8,2.3,13.6,2.8,20.4,5.4c14.6,5.6,28.2,20.9,42.7,28.1
	c-13.8,10.8-28.8,6.1-43.2,3.6c-47.1-8.1-94.2,7.9-141.3,19c0,4.8,0.1,8.2,0.4,8.6l-51,9.9c-12.3,2.4-24.5,4.8-36.8,5.6
	c-70.9,4.9-141.6-40.7-212.5-28.1c-14,2.5-28.5,7.2-41.8-3.6C290.8,591.3,303.9,575.9,318.1,570.3z"/>
</svg>
