<?xml version="1.0" encoding="utf-8"?>
<!-- Generator: Adobe Illustrator 26.3.1, SVG Export Plug-In . SVG Version: 6.00 Build 0)  -->
<svg version="1.1" id="圖層_1" xmlns="http://www.w3.org/2000/svg" xmlns:xlink="http://www.w3.org/1999/xlink" x="0px" y="0px"
	 viewBox="0 0 400 400" style="enable-background:new 0 0 400 400;" xml:space="preserve">
<style type="text/css">
	.st0{fill:#FFECC6;}
</style>
<path class="st0" d="M174.9,8.9c-1.6,1.9-2.5,4.2-2.5,6.7s0.9,4.8,2.5,6.7c5.9,7,11.1,16.5,8.7,25.9c-0.2,0.8-0.6,1.5-1.1,2.1
	c-0.5-0.2-1-0.4-1.5-0.5l-70.9-38.4c-2.7-1.5-6.1-0.1-10.5,4.3c-3.5,3.5-4.9,6.7-4.3,9.7l13.2,50.5L58,62.7
	c-2.9-0.6-6.2,0.8-9.8,4.4c-4.1,4.1-5.5,7.5-4,10.2l38.6,71.4c0.4,1.4,1.2,2.7,2.2,3.8c1,1.1,2.2,1.9,3.6,2.5
	c1.4,0.5,2.9,0.8,4.3,0.7c1.5-0.1,2.9-0.5,4.2-1.3c1.3-0.7,2.4-1.7,3.2-3c0.8-1.2,1.4-2.6,1.7-4.1c0.2-1.5,0.1-3-0.3-4.4
	c-0.4-1.4-1.1-2.7-2.1-3.8C99.6,139,70,84.4,70,84.4l44.3,11.5c3,0.7,6.3-0.8,10-4.3c3.6-3.6,5.1-6.9,4.3-10l-11.5-44.3
	c0,0,54.7,29.6,55.1,29.7c3.9,3.3,11.1,1.8,13.4-0.5c0.2-0.2,0.4-0.4,0.6-0.6c0.9-0.7,1.8-1.5,2.7-2.3c1.2-1.2,2.4-2.5,3.3-3.9
	l0.6-1c10.4-17.4,11-33.7-2.4-49.7c-1-1.1-2.2-2.1-3.5-2.7c-1.4-0.6-2.8-1-4.3-0.9c-1.5,0-3,0.3-4.3,1
	C177.1,6.9,175.9,7.8,174.9,8.9L174.9,8.9z"/>
<path class="st0" d="M127.4,125.5c4.7-4.7,4.7-12.4,0-17.1c-4.7-4.7-12.4-4.7-17.1,0s-4.7,12.4,0,17.1
	C115,130.3,122.7,130.3,127.4,125.5z"/>
<path class="st0" d="M160.3,92.2c3.5-5.7,1.8-13.1-3.9-16.7c-5.7-3.5-13.1-1.8-16.7,3.9c-3.5,5.7-1.8,13.1,3.9,16.7
	S156.8,97.9,160.3,92.2z"/>
<path class="st0" d="M11.2,103.1c9.4,11.4,10.5,20.7,5.6,29.6c8.4-6.1,18.1-3.6,29.5,5.1c-9-11.2-10.6-20.8-5.6-29.6
	C32.1,114.2,22.3,110.9,11.2,103.1z"/>
</svg>
