<?xml version="1.0" encoding="utf-8"?>
<!-- Generator: Adobe Illustrator 26.2.1, SVG Export Plug-In . SVG Version: 6.00 Build 0)  -->
<svg version="1.1" id="图层_1" xmlns="http://www.w3.org/2000/svg" xmlns:xlink="http://www.w3.org/1999/xlink" x="0px" y="0px"
	 viewBox="0 0 513 462" style="enable-background:new 0 0 513 462;" xml:space="preserve">
<style type="text/css">
	.st0{fill:#FF5EC2;}
</style>
<path class="st0" d="M256.7,62.3c-0.4-0.4-0.7-0.8-1-1.2l-0.8,0.6l0.8-0.6C233,31.3,203.3,12.9,166.4,6.6v0
	c-19.4-3.3-38.7-2.5-57.7,2.6C70,19.7,40.8,42.6,21.2,77.6h0c-11.8,21-17.3,43.8-17.1,67.9l0.9,0l-0.9,0c0.1,19.3,4.3,37.9,9.4,56.2
	l0,0c8.8,31.6,23.6,60.4,41.7,87.5c32.3,48.4,72.4,89.5,119.1,124c24.8,18.3,51.1,34.2,80.1,45.2h0c1.4,0.5,3.3,0.5,4.7,0
	c23.4-8.8,45-20.9,65.6-35c49-33.5,90.9-74.3,125.6-122.6c15.7-21.9,29.1-45.1,39.5-70c7.6-18.1,12.6-36.9,16.4-56.2
	c4-20.5,4.5-40.9-0.3-61.2c-8.7-36.9-29-65.8-60.6-86.5c-20-13.2-42.1-20.3-66-22c-18.3-1.3-36.1,0.9-53.5,6.7
	c-27.9,9.3-50.6,26-68.3,49.5l0,0C257.3,61.7,257.1,62,256.7,62.3z"/>
</svg>
