<?xml version="1.0" encoding="utf-8"?>
<!-- Generator: Adobe Illustrator 26.2.1, SVG Export Plug-In . SVG Version: 6.00 Build 0)  -->
<svg version="1.1" id="图层_1" xmlns="http://www.w3.org/2000/svg" xmlns:xlink="http://www.w3.org/1999/xlink" x="0px" y="0px"
	 viewBox="0 0 1920 140.1" style="enable-background:new 0 0 1920 140.1;" xml:space="preserve">
<style type="text/css">
	.st0{fill:#121212;}
</style>
<path class="st0" d="M1921.2,0L-0.7,0v129.4H26l4.5,0.6c0-0.2,0.1-0.4,0.1-0.6H42v-0.5c2.2,0.4,4.4,1,6.4,1.6
	c3.6,1.2,6.5,1.6,10.6,0.6c2.7-0.6,6.8-0.4,8.5-1.2c3.5-1.6,6.9-1.5,11.2-1.2c4.1,0.3,8,1,12.1,1.2c3.3,0.2,7.9,0.3,9.9-0.5
	c4.5-1.9,9.1-3.3,15.4-3.5c0.2,0,0.4,0,0.6-0.1c0.2,0,0.4-0.1,0.5-0.2c1.8-2.6,5.8-1.4,8.8-0.9c17.9,2.9,35.8,6,53.8,8.9
	c2.6,0.5,5.8,0.8,8.4,0.5c8.2-0.9,16.1-2.3,22.5-4.9c3.5-1.3,7.7-2.4,12.2-1.8c9,1.1,17.8,2.4,26.4,4c3.9,0.7,7.7,1.4,11.3,0.4
	c5.5-1.4,11-3,15.6-4.9c4.6-1.9,8.8-2.2,14.9-1.5c13.5,1.6,27.2,4.1,41.5,1.2c0.5-0.1,0.9-0.1,1.4-0.1c2.9-0.2,4.9,0.2,6.2,1.5
	c2,2,5,2.4,8.4,0.8c5.3-2.6,11.6-3.6,18.9-4.2c19.6-1.5,39.1-3.5,58.8-4.6c16.4-0.9,32.6-1.6,47.8-4.7c4.3-0.9,8.9-1.6,6.1-4.4
	c-0.1-0.1,0.2-0.2,1-0.8c4.4,1.1,9.4,1.9,13.1,3.4c6,2.4,12.8,3,20.1,2.8c12.7-0.3,24.7-1.7,35.3-5.1c4.2-1.3,8.4-2,13.8-1.4
	c5.7,0.7,11.6,1.1,17.5,1.3c12.8,0.4,25.7,0.3,38.5,0.8c8.9,0.3,18.2,0.1,26.3,2.4c1,0.3,3,0.1,4.3-0.1c6-1,12.3-1.8,17.8-3.2
	c11.5-3,24.2-4.2,37-5.3c11.8-1,24.7,1.9,27.5,6.3c0.4,0.7,1.2,1.4,2.2,2s2.4,1.1,3.9,1.4c7.6,1.7,15.2,3.3,22.9,4.8
	c2.7,0.5,5.7,0.8,8.7,0.8s6-0.3,8.7-0.9c4.2-0.8,8.7-1.3,13-2.1c3.8-0.7,8.1-0.8,12-0.2c12.6,1.5,25.3,2.7,38.5,2.5
	c8.3-0.2,15.4-1.4,19.4-4.9c1.4-1.3,2.5-2.6,3.3-4c1.7-2.3,3.6-2.9,8.4-1.6c5.8,1.6,11.4,3.3,16.7,5.1c3.8,1.3,7.2,1.5,11.2,0.2
	c6.5-2.1,11.3-1.8,14.8,1.4c2.2,2,4.5,3.3,9.1,4.1c3.1,0.5,9.2-0.1,9-1.5c-0.3-2.2,3-2.5,6-3c5.1-0.8,9.5-2.3,12.3-4.4
	c1.1-0.8,4.2-1.4,6.7-1.5s5.2,0.3,7.6,0.7c11.3,2,22.5,4.1,33.7,6.2c0.9,0.1,1.6,0.6,2.5,0.8c1.2,0.3,3.1,0.7,4,0.5
	c10.5-2.7,21-5.3,31.1-8.3c2.9-0.8,5.1-2.5,6.6-4c2.6-2.7,5.8-3.5,11.3-1.9c4.8,1.5,8.9,3.4,13.4,5c3,1.1,5.9,2.5,9.5,3.1
	c17.1,2.8,34.3,4.6,52.4,1.4c7.2-1.3,15-1.8,22.4-0.3c5.8,1.3,11.4,2.7,16.7,4.3c7,2.1,13.3,4.7,20.5,6.6c6.3,1.7,11.2,4.3,14.2,7.3
	c2.1,1.9,3.9,4,9,4.9c1.1,0.2,1.7,1,2.5,1.6h9.2c8.8-0.9,17.5-1.9,26.3-2.7c1.4-0.1,3,0.3,4.5,0.3c3.4,0.1,7.1,0.5,10.1,0
	c6-1,11.9-2.2,17.4-3.7c7.9-2.1,15.4-4.5,23.2-6.7c0.8-0.2,1.6-0.4,2.4-0.4s1.7,0,2.5,0.1c16,3,32.2,5.3,49.7,5.6
	c4.7,0.1,9.2,1,12.5,2.5c2.5,1.2,3.9,1.3,6.7,0.9c10.7-1.8,21.3-3.6,32-5.2c4.2-0.7,8.7-1,12.9-1.5c3.9-0.5,7.8-1.1,11.5-1.7
	c3.2-0.6,6.3-1.8,9.5-1.9c13.7-0.4,26.6,0.4,36.3,5.6c2.5,1.2,5.8,2.1,9.5,2.5c10.7,0.9,21.5,0.7,32.3-0.2c3.6-0.3,7.7,0.1,11.4,0.5
	c3.2,0.3,6,1.5,9.2,1.7c10.5,0.8,21.3,1.2,31.8,2.1c12.1,1,21.3-1.2,29-4.9c3.4-1.7,6.8-2.5,11.6-2.2c13.7,1,27.4,2.2,39.2,5.5
	c6,1.7,11.3,1.8,17.2,0.8c5-0.9,9.7-2.1,14.6-3c2.8-0.5,5.7-0.9,8.6-1.2c4.9-0.6,9.8-0.9,14.6-1.6c4.8-0.7,9.2-1.9,14-2.6
	c2.7-0.3,5.6-0.2,8.1,0.3c5.7,1.4,11.3,1.6,16.7,0.2c5.6-1.5,11.1-3.1,16.4-4.9c5.7-1.9,11.1-3.9,16.4-6c3.1-1.2,5.9-2.5,8.3-4
	c4.4-3,6.6-3.3,12.2-0.7c5.8,2.8,11.1,5.7,16.5,8.6c9.5,5.1,20.2,5.8,32.9,2.3c4-1.1,8.9-1.6,13.5-2.3c2.9-0.4,6.1-0.5,8.9-1
	c3.6-0.6,6.2-0.3,8.8,0.8c5.5,2.4-9,5.5-0.4,5.9c0.3,0,0.6,0.1,0.8,0.2c1.7,0.6,3.6,1.7,5.8,0.7h30V0L1921.2,0z"/>
</svg>
