<svg width="68" height="79" viewBox="0 0 68 79" fill="none" xmlns="http://www.w3.org/2000/svg">
<path d="M67.0335 39.1428C67.0335 34.9146 66.4459 30.7976 64.0392 29.4624C61.2407 19.9767 58.4422 10.491 56.1754 0.92182C56.1131 0.634899 55.9444 0.381802 55.7029 0.212874C55.4614 0.0439465 55.1648 -0.0284337 54.8721 0.0101306C54.5793 0.048695 54.3119 0.195378 54.123 0.421003C53.9341 0.646628 53.8376 0.934662 53.8526 1.22781C54.1661 7.47063 54.0164 13.7279 53.4049 19.9489C51.9243 18.7417 50.7212 17.2332 49.8764 15.525C49.0316 13.8168 48.5649 11.9485 48.5075 10.0459C48.5091 9.82404 48.4514 9.60575 48.3402 9.41337C48.229 9.22099 48.0684 9.06145 47.8747 8.95107C47.6811 8.84069 47.4615 8.78344 47.2383 8.78519C47.0151 8.78694 46.7964 8.84762 46.6045 8.96103C39.7762 12.4382 32.9199 15.9154 26.0916 19.4482C23.6113 20.4615 21.4269 22.0781 19.739 24.1493C17.78 26.931 16.2409 29.7128 14.5618 32.4945C8.09725 43.2598 1.77265 54.7205 2.41631 67.4887H2.19243C0.513331 67.4887 0.513331 69.9922 2.19243 70.1035C8.75119 70.6551 15.3562 70.2143 21.7819 68.7961C24.2166 68.2398 26.2035 67.2383 28.7501 68.4345C29.8887 69.1278 30.9571 69.929 31.9404 70.8268C35.1307 73.2561 38.3303 75.667 41.5393 78.0593C41.7696 78.1971 42.0363 78.2631 42.3048 78.2487C42.5733 78.2342 42.8313 78.14 43.0453 77.9782C43.2594 77.8164 43.4196 77.5944 43.5054 77.3411C43.5911 77.0877 43.5983 76.8146 43.5262 76.5571C41.6512 71.8004 39.7762 67.0714 37.9292 62.3147C39.789 61.2819 41.3281 59.7617 42.3788 57.9195C43.1875 56.3559 44.2145 54.9137 45.4292 53.6357C48.4795 50.8539 52.2295 53.6357 54.7202 55.8054C54.8959 55.9717 55.1162 56.084 55.3547 56.1288C55.5931 56.1736 55.8394 56.1489 56.0641 56.0578C56.2888 55.9667 56.4822 55.8131 56.6211 55.6153C56.76 55.4175 56.8384 55.1841 56.847 54.9431C57.5466 48.7676 58.1063 42.5644 58.9739 36.4445C58.666 34.5808 59.4776 33.6628 61.4086 33.8297C61.7853 33.5142 62.2105 33.2606 62.6679 33.0786C63.0037 34.247 63.3115 35.4153 63.6194 36.5836C63.9272 37.752 64.1511 38.4474 64.4309 39.3654C64.526 42.5115 64.1391 45.6537 63.2836 48.6842C63.2276 48.9425 63.2554 49.2119 63.3629 49.4536C63.4704 49.6953 63.6521 49.897 63.882 50.0298C64.1119 50.1626 64.3781 50.2196 64.6426 50.1928C64.9071 50.1659 65.1563 50.0565 65.3544 49.8803C68.097 47.0986 68.097 43.1485 67.0335 39.1428Z" fill="#0F1B33"/>
</svg>
