<svg width="67" height="45" viewBox="0 0 67 45" fill="none" xmlns="http://www.w3.org/2000/svg">
<path d="M0.586508 10.7487C0.738877 11.7878 1.05075 12.797 1.51109 13.7405C1.88856 14.5862 2.36612 15.3834 2.93351 16.115C8.26761 31.5966 30.8131 33.5199 42.7852 41.5931C42.8969 41.6754 43.026 41.7308 43.1626 41.7549C43.2991 41.7791 43.4394 41.7713 43.5725 41.7322C43.7055 41.6932 43.8278 41.6239 43.9297 41.5297C44.0317 41.4356 44.1105 41.3191 44.1602 41.1895C44.8222 39.2628 44.9781 37.1979 44.6127 35.1935C44.2473 33.1891 43.373 31.3125 42.074 29.7445C48.3326 32.9738 52.837 38.91 56.8909 44.6799C57.4599 45.4873 58.6215 44.5137 58.0763 43.7064C55.4922 39.836 52.8607 35.8944 54.5202 31.1454C56.0375 26.8714 60.1625 25.1143 64.2401 23.8795L65.4729 23.5234L65.9944 23.3809H66.1841C67.1324 23.0722 66.5871 21.79 65.71 21.8612V21.6475C60.6942 23.3009 55.4379 24.1034 50.1581 24.022C47.3369 24.022 44.5395 24.5207 47.9296 21.2676C49.7123 19.6447 51.8466 18.458 54.1646 17.8009C55.0418 17.516 54.6624 16.2337 53.8801 16.1388C46.2938 15.284 42.8563 9.01534 37.2851 4.81252C33.8951 2.27659 29.8616 0.74621 25.6449 0.395998C16.7311 -0.411323 7.98313 3.34035 0.989529 8.68291C0.953223 8.69322 0.919583 8.7113 0.890932 8.73589C0.862281 8.76049 0.839301 8.79102 0.823579 8.82538L0.302022 9.22904C0.18596 9.33248 0.0985775 9.46422 0.0483607 9.61147C-0.0018561 9.75872 -0.0132002 9.91647 0.0154301 10.0694C0.0440604 10.2223 0.111692 10.3653 0.211757 10.4843C0.311821 10.6033 0.440917 10.6944 0.586508 10.7487Z" fill="#0F1B33"/>
</svg>
