<svg width="94" height="47" viewBox="0 0 94 47" fill="none" xmlns="http://www.w3.org/2000/svg">
<path d="M93.7999 25.0293L93.2824 24.2548C93.3051 24.2156 93.317 24.171 93.317 24.1257C93.317 24.0804 93.3051 24.0359 93.2824 23.9966C86.5537 13.6413 76.892 4.49078 64.7861 1.22068C59.0922 -0.406893 53.0545 -0.406893 47.3606 1.22068C37.9864 4.14656 30.4814 10.6581 20.1296 8.13378C19.0656 7.87562 17.9442 9.33856 18.9794 10.1417C21.6801 12.1321 23.8761 14.7256 25.3917 17.7146C28.2672 23.595 24.8454 21.4723 21.1072 20.2102C14.1352 17.8247 7.60613 14.3064 1.78387 9.79752C0.66242 9.30987 -0.689067 10.7441 0.403625 11.5186L0.633665 11.6907L1.23752 12.121L2.67527 13.1824C7.41985 16.768 11.9919 21.0708 11.9056 27.5249C11.9056 34.4954 6.38467 38.4826 1.09375 42.2977C-0.0277008 43.1009 1.09375 44.9367 2.15768 44.1622C10.3241 38.5687 19.1231 32.9751 28.8999 31.7703C26.4368 33.1976 24.3821 35.2315 22.9322 37.6773C21.4822 40.1232 20.6856 42.8992 20.6184 45.7399C20.621 45.9311 20.6671 46.1192 20.7533 46.2899C20.8394 46.4607 20.9633 46.6097 21.1156 46.7258C21.2679 46.8418 21.4447 46.9218 21.6325 46.9597C21.8204 46.9976 22.0144 46.9925 22.1999 46.9447C41.9259 42.1543 72.4062 50.5016 86.9275 32.9464C88.053 32.234 89.0864 31.3862 90.0043 30.4221C91.0605 29.3906 91.9613 28.2118 92.6785 26.9225C92.9028 26.9271 93.1242 26.8721 93.3202 26.7632C93.5161 26.6543 93.6795 26.4954 93.7937 26.3027C93.9078 26.1101 93.9685 25.8906 93.9696 25.6669C93.9707 25.4431 93.9122 25.2231 93.7999 25.0293Z" fill="#0F1B33"/>
</svg>
