<svg width="141" height="50" viewBox="0 0 141 50" fill="none" xmlns="http://www.w3.org/2000/svg">
<path fill-rule="evenodd" clip-rule="evenodd" d="M65.3697 4.99933V4.43269C65.5225 3.93813 65.7317 3.4628 65.9933 3.01608C66.3577 2.33352 66.883 1.75004 67.5238 1.31615C68.2653 0.816958 69.1261 0.523631 70.0181 0.46619C70.8965 0.436218 71.7698 0.610807 72.5691 0.976168C73.2544 1.30962 73.8552 1.79395 74.3264 2.39278L74.3463 2.4172C73.2742 1.48736 71.8916 0.992911 70.4716 1.03283C69.7513 1.08063 69.0495 1.28242 68.4138 1.62456C67.7782 1.9667 67.2234 2.44123 66.7869 3.01608C66.4556 3.37627 66.17 3.77594 65.9366 4.20603L65.3697 4.99933ZM74.386 2.46699C74.3729 2.45032 74.3596 2.43372 74.3463 2.4172L74.3831 2.44944L74.386 2.46699ZM74.386 2.46699C74.5517 2.67686 74.7022 2.89822 74.8366 3.12941V3.75272V4.31936L74.4965 3.80938C74.4958 3.35967 74.4588 2.91075 74.386 2.46699ZM84.587 43.8144V44.6644C84.587 44.6644 84.7571 43.4177 85.0972 40.6979C85.6157 38.1057 86.3596 35.5655 87.3198 33.106C88.8837 32.8625 90.4201 32.445 91.8998 31.8582C94.8588 30.8071 97.5086 29.0348 99.6094 26.7018C100.222 26.0423 100.693 25.2651 100.995 24.4175C101.297 23.57 101.424 22.6699 101.367 21.772C101.188 20.7619 100.645 19.8523 99.8408 19.2153C99.0364 18.5784 98.0264 18.2582 97.0018 18.3155C95.3865 18.5727 93.907 19.3721 92.8068 20.582C91.8075 21.5413 90.9143 22.6051 90.1425 23.7552C88.806 25.809 87.7212 28.0159 86.9112 30.3283C86.783 30.6648 86.6598 31.003 86.5415 31.3428C85.4314 31.5378 84.3032 31.6349 83.1698 31.6316C80.402 31.5711 77.7239 30.6391 75.5169 28.9683C73.8588 27.7297 72.4566 26.1877 71.3825 24.4282C72.5568 22.2795 73.4147 19.9725 73.9296 17.5788C74.9537 13.986 74.9537 10.1787 73.9296 6.58592C73.5846 5.40883 72.8177 4.40014 71.7755 3.75271C71.5199 3.62247 71.2485 3.52857 70.9691 3.47288C70.9534 3.45405 70.9369 3.43589 70.9194 3.41845C70.7706 3.26968 70.5687 3.1861 70.3583 3.1861C69.8656 3.18592 69.38 3.30243 68.9411 3.52608C67.8835 4.15657 67.1115 5.17201 66.7869 6.3593C65.7611 9.97111 65.7611 13.797 66.7869 17.4088C67.3094 20.0287 68.3088 22.5061 69.7144 24.7276C68.667 26.4803 67.2664 28.0027 65.5965 29.195C63.3492 30.766 60.6854 31.6338 57.9435 31.6882C56.4718 31.6885 55.0101 31.5132 53.5889 31.1691C53.5482 31.0586 53.5069 30.9483 53.4652 30.8382C52.6774 28.5344 51.5911 26.3436 50.2339 24.3218C49.4962 23.1627 48.6206 22.0972 47.6263 21.1486C46.5305 19.9523 45.0803 19.1381 43.488 18.8254C42.461 18.7352 41.4367 19.0262 40.6106 19.6428C39.7846 20.2595 39.2147 21.1586 39.0096 22.1686C38.927 23.0734 39.0468 23.9852 39.3606 24.8379C39.6744 25.6906 40.1742 26.4628 40.8237 27.0984C42.9288 29.4142 45.6076 31.1342 48.59 32.0849C50.177 32.6732 51.8247 33.0656 53.4967 33.2569C54.4367 35.6679 55.1662 38.1575 55.676 40.6978C55.706 40.8079 55.7347 40.9159 55.7622 41.022C55.7718 41.1405 55.7809 41.2591 55.7894 41.3778C55.8706 42.3583 55.8706 43.3438 55.7894 44.3243L56.3563 44.6643C56.3563 44.6643 56.3563 43.3182 55.7622 41.022C55.5501 38.4135 55.0636 35.8368 54.3121 33.3342C55.3672 33.4134 56.4295 33.4129 57.49 33.3315C60.4347 33.1416 63.2739 32.1629 65.7098 30.4983C67.5543 29.2259 69.1613 27.6469 70.4631 25.8337C71.6849 27.5236 73.1545 29.0406 74.8366 30.3283C77.2349 32.0106 80.0272 33.0451 82.9431 33.3315C83.9406 33.3829 84.938 33.364 85.9279 33.276C85.2219 35.7319 84.772 38.257 84.587 40.8112V43.8144ZM52.483 30.8647L52.4448 30.7816C51.4498 28.7889 50.2732 26.8921 48.9301 25.1151C48.2243 24.1354 47.4062 23.2415 46.4925 22.4519C45.7456 21.669 44.7758 21.1349 43.7148 20.922C43.3439 20.9019 42.9784 21.0173 42.6864 21.2467C42.3944 21.476 42.1957 21.8037 42.1275 22.1686C42.1336 23.2333 42.5617 24.2521 43.318 25.0018C45.0997 27.0783 47.3284 28.7249 49.8371 29.8183C50.6933 30.2358 51.5781 30.5852 52.483 30.8647ZM70.607 22.987C71.4518 21.0835 72.0358 19.0737 72.3424 17.0121C72.9726 13.6876 72.8759 10.2662 72.0589 6.98257C71.868 6.21795 71.4536 5.52751 70.8685 4.99932C70.7019 4.95052 70.5249 4.95052 70.3583 4.99932C70.1494 4.99932 69.949 4.91701 69.8005 4.77037L69.7914 4.7727C69.25 5.3481 68.8603 6.04914 68.6576 6.81261C67.9306 10.0803 67.95 13.4697 68.7143 16.7289C69.0528 18.8929 69.69 20.999 70.607 22.987ZM88.2169 30.9707C89.2025 30.7049 90.168 30.3601 91.1036 29.9383C93.597 28.8143 95.8208 27.1698 97.6253 25.1152C98.0238 24.7028 98.3347 24.2141 98.5393 23.6785C98.7439 23.143 98.8379 22.5715 98.8158 21.9986C98.71 21.629 98.4735 21.3103 98.1502 21.1018C97.827 20.8934 97.439 20.8093 97.0585 20.8654C96.0017 21.0555 95.0307 21.5705 94.2807 22.3386C93.3809 23.1631 92.5644 24.0741 91.8431 25.0585C90.5172 26.8472 89.3416 28.7424 88.3285 30.7249C88.291 30.8067 88.2538 30.8887 88.2169 30.9707ZM61.855 36.448C61.8824 36.7686 61.8824 37.0908 61.855 37.4113C61.8833 37.8831 61.8833 38.3562 61.855 38.8279V40.7494C64.7269 40.3432 67.6278 40.1743 70.5283 40.2446C73.3954 40.1469 76.2648 40.3061 79.1022 40.7197C78.9171 39.319 78.9385 37.898 79.1662 36.502C76.2445 35.26 73.406 33.8304 70.6686 32.2224C70.4564 32.3475 70.2467 32.4716 70.0386 32.5948L70.0385 32.5949L70.0384 32.5949C68.799 33.3284 67.6182 34.0272 66.3334 34.6914C64.8786 35.3695 63.3829 35.9562 61.855 36.448ZM61.0047 35.4281C62.75 35.2785 64.4469 34.7773 65.9933 33.9548C67.5784 33.1961 68.9878 32.1154 70.1315 30.7816C70.2522 30.6851 70.4021 30.6324 70.5567 30.6324C70.7112 30.6324 70.8612 30.6851 70.9818 30.7816C72.1937 31.9648 73.5917 32.9411 75.1201 33.6715C76.6436 34.4368 78.2648 34.9897 79.9386 35.3148C80.0939 35.3425 80.2329 35.4282 80.3276 35.5543C80.4223 35.6805 80.4656 35.8379 80.4488 35.9947C80.1688 37.7592 80.1688 39.5567 80.4488 41.3212C80.465 41.4106 80.4631 41.5024 80.4432 41.5911C80.4233 41.6797 80.3858 41.7635 80.333 41.8375C80.2801 41.9114 80.213 41.9741 80.1355 42.0216C80.058 42.0692 79.9718 42.1008 79.8819 42.1145C76.8429 41.427 73.7524 40.991 70.6417 40.8112C67.5522 41.015 64.4824 41.4507 61.4582 42.1145C61.2856 42.1485 61.1065 42.1144 60.9586 42.0194C60.8106 41.9243 60.7052 41.7756 60.6646 41.6045V38.9413V37.468C60.698 37.0721 60.698 36.674 60.6646 36.2781C60.6455 36.1291 60.681 35.9783 60.7643 35.8534C60.8476 35.7285 60.9732 35.6378 61.1181 35.5981L61.0047 35.4281ZM51.7078 43.8144V44.6643C51.9415 44.484 52.151 44.2745 52.3314 44.041C52.4414 43.2136 52.4414 42.3752 52.3314 41.5478C52.0647 40.2595 51.5652 39.0305 50.8575 37.9213C49.7955 36.4693 48.3106 35.3808 46.6059 34.8047C45.6035 34.3983 44.5223 34.223 43.4427 34.2916C42.3632 34.3603 41.313 34.6713 40.3702 35.2014C39.4004 35.8755 38.634 36.8024 38.1543 37.8813C38.0747 38.0603 38.0035 38.2423 37.9408 38.4268C37.0057 38.2505 36.0477 38.2133 35.0982 38.3179C33.8699 38.445 32.6668 38.7504 31.5268 39.2246C30.3881 39.6655 29.3039 40.2359 28.2956 40.9245C27.299 41.5506 26.3311 42.2053 25.3846 42.8455L25.3844 42.8457C24.4465 43.4801 23.5296 44.1003 22.6267 44.6643C19.4192 46.9453 15.6631 48.3337 11.7426 48.6875C8.94135 48.6626 6.18475 47.9835 3.69283 46.7042C2.73197 46.239 1.80392 45.7089 0.9151 45.1176C0.9151 45.1176 1.82211 45.8543 3.57945 46.9876C6.03877 48.5187 8.84865 49.3964 11.7426 49.5375C13.6613 49.5582 15.5722 49.2908 17.4114 48.7442C19.4756 48.0474 21.4687 47.1556 23.3637 46.0809C24.0044 45.6807 24.6522 45.2592 25.3095 44.8315C26.5133 44.0482 27.7492 43.2441 29.0325 42.5111C30.9487 41.3141 33.0904 40.5233 35.3249 40.1879C36.0784 40.0277 36.8497 39.9808 37.6136 40.0472C37.5835 40.4702 37.5951 40.8969 37.6491 41.3211C37.6988 41.9606 37.8926 42.5805 38.216 43.1344C38.3963 43.458 38.6591 43.7282 38.9778 43.9173C39.2964 44.1064 39.6595 44.2077 40.03 44.211C40.3949 44.2045 40.7533 44.1142 41.0777 43.9472C41.402 43.7801 41.6836 43.5408 41.9008 43.2477C42.0906 42.931 42.1908 42.5687 42.1908 42.1994C42.1908 41.8302 42.0906 41.4679 41.9008 41.1511C41.6018 40.549 41.18 40.0161 40.6625 39.5867C40.21 39.2112 39.6931 38.9221 39.1377 38.7331C39.5473 37.917 40.1686 37.2256 40.9371 36.7313C41.6833 36.3861 42.4957 36.2073 43.318 36.2073C44.1402 36.2073 44.9527 36.3861 45.6989 36.7313C47.0954 37.1352 48.3518 37.9201 49.3269 38.9979C50.0372 39.7644 50.6123 40.6457 51.0276 41.6045C51.3553 42.3062 51.5843 43.0499 51.7078 43.8144ZM38.6614 40.2059C38.596 40.6101 38.5792 41.0226 38.6128 41.4345C38.6128 42.3978 39.123 43.4744 39.86 43.4177C40.0678 43.4293 40.2753 43.3887 40.4634 43.2997C40.6515 43.2106 40.8144 43.0758 40.9371 42.9077C41.0366 42.7355 41.089 42.54 41.089 42.3411C41.089 42.1422 41.0366 41.9467 40.9371 41.7745C40.6793 41.353 40.3328 40.9927 39.9216 40.7187C39.5401 40.4644 39.1114 40.2901 38.6614 40.2059ZM56.3563 28.1184H56.8665L58.1136 27.6651C59.2811 27.3481 60.4191 26.931 61.5149 26.4184C62.5961 25.889 63.638 25.283 64.6328 24.6052L65.6531 23.8685L66.1067 23.5286C65.9857 24.1675 65.7556 24.7809 65.4264 25.3418C64.6499 26.5317 63.5481 27.4738 62.2519 28.0564C60.9556 28.6389 59.5194 28.8374 58.1136 28.6284C57.5041 28.5546 56.9105 28.3824 56.3563 28.1184ZM64.0092 43.8711C63.0325 44.0855 62.0675 44.3502 61.1181 44.6644L64.0659 44.891H67.0704C68.2034 44.8343 69.3386 44.8343 70.4717 44.891C71.6047 44.8334 72.7399 44.8334 73.873 44.891H76.8775H79.8252C79.8252 44.891 78.6915 44.4944 76.9908 44.0977C74.8507 43.6177 72.665 43.3707 70.4717 43.3611C69.3198 43.3011 68.1656 43.3011 67.0137 43.3611C66.0042 43.4798 65.0014 43.65 64.0092 43.8711ZM37.3089 22.9619V22.4519C37.129 21.9419 37.0333 21.4061 37.0255 20.8653C37.0657 20.0802 37.2582 19.3104 37.5924 18.5988C38.0132 17.8082 38.6154 17.1285 39.3497 16.6155C40.0924 16.1002 40.9476 15.7699 41.844 15.6522C42.6119 15.5066 43.4003 15.5066 44.1682 15.6522C44.6887 15.783 45.1858 15.9932 45.6421 16.2755H45.5288C44.5936 15.9376 43.5911 15.8281 42.6049 15.9563C41.6188 16.0844 40.6776 16.4465 39.8599 17.0122C39.2413 17.4216 38.715 17.9557 38.3148 18.5801C37.9145 19.2046 37.6492 19.9058 37.5357 20.6387C37.4532 21.1263 37.4532 21.6243 37.5357 22.112L37.3089 22.9619ZM89.0654 43.8144C89.0304 44.0966 89.0304 44.3821 89.0654 44.6644L89.4055 44.2677C89.5291 43.5032 89.7581 42.7595 90.0858 42.0578C90.4994 40.9702 91.1149 39.9705 91.8998 39.1113C92.875 38.0334 94.1313 37.2486 95.5279 36.8447C96.2664 36.508 97.0687 36.3337 97.8805 36.3337C98.6922 36.3337 99.4945 36.508 100.233 36.8447C101.025 37.3329 101.667 38.0306 102.087 38.8606C102.108 38.9018 102.128 38.9433 102.148 38.9849L102.104 38.9979C100.944 39.3162 99.9498 40.0664 99.326 41.0945C99.1473 41.415 99.0535 41.7759 99.0535 42.1428C99.0535 42.5097 99.1473 42.8706 99.326 43.1911C99.5575 43.4825 99.85 43.7197 100.183 43.8862C100.516 44.0526 100.881 44.1441 101.253 44.1544C101.624 44.1511 101.987 44.0498 102.306 43.8606C102.624 43.6715 102.887 43.4014 103.067 43.0778C103.391 42.5238 103.585 41.9039 103.634 41.2645C103.695 40.8953 103.723 40.5231 103.719 40.1521C104.448 40.0987 105.183 40.1484 105.902 40.3012C108.101 40.6689 110.203 41.4785 112.081 42.6811C112.925 43.1925 113.769 43.7385 114.619 44.2879L114.619 44.2882L114.619 44.2883C115.652 44.9562 116.692 45.6292 117.75 46.251C119.639 47.336 121.634 48.2283 123.702 48.9142C125.541 49.4609 127.452 49.7283 129.371 49.7075C132.265 49.5665 135.075 48.6887 137.534 47.1576C139.291 46.0243 140.198 45.2877 140.198 45.2877C139.309 45.8789 138.381 46.409 137.421 46.8743C134.929 48.1535 132.172 48.8326 129.371 48.8575C125.427 48.5739 121.631 47.2438 118.373 45.0044C117.37 44.3965 116.383 43.7233 115.377 43.0375C114.508 42.4447 113.624 41.8424 112.704 41.2645C111.696 40.5759 110.612 40.0055 109.473 39.5646C108.333 39.0904 107.13 38.785 105.902 38.6579C105.113 38.5709 104.318 38.582 103.535 38.6894C103.457 38.3695 103.354 38.0549 103.227 37.7484C102.766 36.6371 102.004 35.6765 101.027 34.9748C100.084 34.4446 99.0336 34.1337 97.9541 34.065C96.8745 33.9963 95.7934 34.1717 94.7909 34.5781C93.0863 35.1542 91.6013 36.2427 90.5393 37.6947C89.8316 38.8039 89.3321 40.0328 89.0654 41.3212C88.9554 42.1486 88.9554 42.987 89.0654 43.8144ZM102.564 40.3195C102.114 40.4039 101.686 40.5781 101.305 40.8321C100.894 41.1061 100.547 41.4663 100.29 41.8878C100.19 42.0601 100.138 42.2555 100.138 42.4545C100.138 42.6534 100.19 42.8488 100.29 43.0211C100.412 43.1892 100.575 43.3239 100.763 43.413C100.951 43.5021 101.159 43.5427 101.367 43.5311C102.104 43.5311 102.557 42.5111 102.614 41.5478C102.648 41.136 102.63 40.7235 102.564 40.3195ZM84.6437 28.1184C84.0789 28.4277 83.4654 28.6384 82.8297 28.7417C81.443 28.9544 80.0244 28.7574 78.7481 28.1751C77.4477 27.5966 76.3444 26.6513 75.5736 25.4552C75.2444 24.8942 75.0143 24.2809 74.8933 23.6419L75.3468 23.9819L76.3672 24.7185C77.362 25.3964 78.4039 26.0023 79.4851 26.5318C80.5772 27.0531 81.716 27.4705 82.8864 27.7784L84.1335 28.0617L84.6437 28.1184ZM103.691 22.3953V22.9619L103.918 22.5653C104.098 22.0553 104.193 21.5194 104.201 20.9787C104.161 20.1936 103.968 19.4238 103.634 18.7121C103.214 17.9215 102.611 17.2419 101.877 16.7289C101.134 16.2135 100.279 15.8833 99.3827 15.7656C98.6148 15.62 97.8264 15.62 97.0585 15.7656C96.4801 15.972 95.9428 16.2789 95.4712 16.6722H95.5279C96.0253 16.5075 96.5381 16.3936 97.0585 16.3322C98.5636 16.1278 100.092 16.4696 101.367 17.2955C101.985 17.7049 102.512 18.239 102.912 18.8635C103.312 19.488 103.578 20.1891 103.691 20.922C103.773 21.4097 103.773 21.9077 103.691 22.3953ZM20.019 43.0778C19.0802 43.6841 18.0944 44.2146 17.0712 44.6644C18.156 44.2299 19.1995 43.6989 20.1891 43.0778C22.3181 41.8463 24.3807 40.5034 26.3681 39.0546C28.3039 37.5542 30.5205 36.456 32.8873 35.8247C33.657 35.6999 34.4418 35.6999 35.2115 35.8247H36.1752L35.2682 35.5414C34.4435 35.3916 33.5986 35.3916 32.7739 35.5414C32.2169 35.6059 31.6668 35.7196 31.1299 35.8814L29.4293 36.618C28.2579 37.2746 27.1225 37.9934 26.028 38.7713C25.2774 39.3099 24.54 39.855 23.8266 40.3824C22.4388 41.4083 21.1423 42.3666 20.019 43.0778ZM124.779 44.6644C123.719 44.3073 122.694 43.852 121.718 43.3044C119.562 42.0875 117.48 40.7441 115.482 39.2813C113.56 37.7926 111.364 36.6953 109.02 36.0514C108.231 35.9282 107.428 35.9282 106.639 36.0514H105.675L106.582 35.7681C107.407 35.6182 108.252 35.6182 109.076 35.7681C109.633 35.8325 110.184 35.9463 110.72 36.1081L112.421 36.8447C113.592 37.5013 114.728 38.2201 115.822 38.998C116.573 39.5366 117.31 40.0817 118.024 40.609L118.024 40.6092C119.412 41.6351 120.708 42.5933 121.831 43.3044C122.777 43.833 123.763 44.2877 124.779 44.6644ZM59.3607 22.7919C60.0977 22.4519 60.3244 21.2053 59.8142 20.072C59.304 18.8821 58.2836 18.1455 57.49 18.4854C56.6964 18.8254 56.5263 20.072 57.0365 21.262C57.5467 22.4519 58.6238 23.1319 59.3607 22.7919ZM80.9023 20.072C80.3354 21.2053 80.5622 22.4519 81.3558 22.7919C82.1494 23.1319 83.1131 22.4519 83.6233 21.262C84.1335 20.072 83.9635 18.8254 83.1698 18.4854C82.3762 18.1455 81.4125 18.8821 80.9023 20.072ZM65.9933 37.5813C65.9933 38.0508 65.6126 38.4313 65.1429 38.4313C64.6733 38.4313 64.2926 38.0508 64.2926 37.5813C64.2926 37.1119 64.6733 36.7314 65.1429 36.7314C65.6126 36.7314 65.9933 37.1119 65.9933 37.5813ZM71.8889 37.0147C71.8889 37.3904 71.7395 37.7507 71.4738 38.0164C71.208 38.2821 70.8475 38.4313 70.4716 38.4313C70.0958 38.4313 69.7353 38.2821 69.4695 38.0164C69.2038 37.7507 69.0544 37.3904 69.0544 37.0147C69.0544 36.639 69.2038 36.2787 69.4695 36.013C69.7353 35.7473 70.0958 35.5981 70.4716 35.5981C70.8475 35.5981 71.208 35.7473 71.4738 36.013C71.7395 36.2787 71.8889 36.639 71.8889 37.0147ZM76.6507 37.5813C76.6507 38.0508 76.27 38.4313 75.8003 38.4313C75.3307 38.4313 74.95 38.0508 74.95 37.5813C74.95 37.1119 75.3307 36.7314 75.8003 36.7314C76.27 36.7314 76.6507 37.1119 76.6507 37.5813Z" fill="#453D3A"/>
</svg>
