<svg width="253" height="478" viewBox="0 0 253 478" fill="none" xmlns="http://www.w3.org/2000/svg">
<path d="M126.245 0H125.791C48.9748 0.670115 47.4209 49.5495 2.03169 50.9664C0.927663 51.0009 0 51.8933 0 52.9979V424.172C0 425.277 0.927523 426.169 2.03155 426.204C47.1943 427.622 48.7535 476.332 125.565 477.17H126.018C202.828 476.5 204.388 427.629 249.495 426.204C250.599 426.169 251.526 425.277 251.526 424.172V52.9979C251.526 51.8933 250.599 51.001 249.495 50.9658C204.612 49.534 202.938 0.670009 126.245 0Z" fill="url(#paint0_linear_592_897)"/>
<path d="M56.6883 415.916C56.6883 415.916 56.6883 416.539 57.3118 416.993C57.5342 417.123 57.7805 417.207 58.0361 417.24C58.2916 417.274 58.5513 417.256 58.7997 417.187C59.0481 417.118 59.2802 417.001 59.4823 416.841C59.6844 416.681 59.8523 416.482 59.9762 416.256C60.3428 415.56 60.5003 414.773 60.4297 413.989C60.4095 413.105 60.0668 412.259 59.466 411.61C58.6847 410.959 57.7796 410.472 56.8054 410.18C55.8312 409.888 54.8079 409.796 53.7972 409.91C51.3755 410.104 49.0207 410.799 46.8812 411.949C42.2157 414.816 37.2063 417.082 31.9721 418.693C28.9591 419.594 25.7818 419.807 22.6753 419.316C19.8249 418.936 17.2386 417.45 15.4758 415.179C14.7181 414.035 14.2634 412.718 14.1543 411.35C14.0452 409.982 14.2854 408.609 14.8523 407.36C15.3543 406.209 16.1358 405.203 17.1257 404.431C18.1157 403.659 19.2828 403.147 20.5211 402.94C21.6051 402.71 22.7251 402.71 23.809 402.94C24.897 403.218 25.8692 403.833 26.5868 404.696C27.1556 405.455 27.4908 406.363 27.5512 407.309C27.6116 408.255 27.3947 409.198 26.9269 410.023C26.6396 410.64 26.1841 411.165 25.6126 411.535C25.0412 411.906 24.3769 412.109 23.6957 412.12C23.3595 412.193 23.0114 412.193 22.6753 412.12C22.5264 412.053 22.3927 411.957 22.2826 411.837C22.1725 411.716 22.0883 411.575 22.0351 411.421C21.982 411.267 21.961 411.103 21.9736 410.941C21.9862 410.778 22.0321 410.62 22.1084 410.476C22.2547 410.186 22.5083 409.965 22.8153 409.859C23.1223 409.753 23.4584 409.771 23.7523 409.91H24.2058C24.2058 409.91 24.9428 409.91 25.3963 409.06C25.6729 408.618 25.8196 408.107 25.8196 407.586C25.8196 407.065 25.6729 406.555 25.3963 406.113C24.8586 405.565 24.1963 405.155 23.4658 404.918C22.7354 404.682 21.9585 404.625 21.2014 404.753C20.2213 404.847 19.2825 405.194 18.4773 405.76C17.6722 406.326 17.0285 407.092 16.6096 407.983C16.0977 409.028 15.8653 410.188 15.9348 411.35C16.0044 412.512 16.3735 413.636 17.0064 414.613C18.5383 416.629 20.795 417.97 23.2988 418.353C25.9425 418.785 28.6479 418.65 31.2352 417.956C36.3791 416.422 41.3113 414.252 45.9175 411.496C48.1702 410.257 50.6654 409.523 53.2303 409.343C54.4141 409.163 55.6228 409.236 56.7761 409.559C57.9293 409.881 59.0008 410.445 59.9195 411.213C60.7044 412.028 61.1847 413.089 61.28 414.216C61.4304 415.211 61.313 416.228 60.9399 417.163C60.723 417.618 60.4148 418.024 60.0345 418.355C59.6542 418.687 59.2099 418.936 58.729 419.089H58.0488H57.2551C56.8444 419.18 56.4188 419.18 56.008 419.089C55.3261 418.859 54.7448 418.401 54.3625 417.792C53.9802 417.182 53.8205 416.46 53.9105 415.746C54.0311 415.309 54.2437 414.904 54.5341 414.556V414.556C54.7677 414.324 55.0836 414.194 55.4128 414.194C55.742 414.194 56.0578 414.324 56.2914 414.556C56.4121 414.662 56.5087 414.793 56.5749 414.94C56.6411 415.086 56.6753 415.245 56.6753 415.406C56.6753 415.567 56.6411 415.726 56.5749 415.872C56.5087 416.019 56.4121 416.15 56.2914 416.256C56.2914 416.256 56.6883 415.916 56.6883 415.916Z" fill="url(#paint1_linear_592_897)"/>
<path d="M199.033 414.216C199.323 414.556 199.518 414.966 199.599 415.406C199.704 416.114 199.557 416.836 199.184 417.447C198.811 418.057 198.236 418.518 197.559 418.749C197.147 418.835 196.723 418.835 196.312 418.749H195.688H195.008C194.522 418.606 194.073 418.36 193.692 418.027C193.31 417.695 193.005 417.284 192.797 416.823C192.562 415.972 192.543 415.076 192.74 414.216C192.855 413.082 193.356 412.023 194.157 411.213C195.066 410.446 196.127 409.883 197.271 409.56C198.415 409.238 199.615 409.164 200.79 409.343C203.356 409.515 205.853 410.25 208.103 411.496C212.729 414.252 217.68 416.422 222.842 417.956C225.429 418.651 228.134 418.786 230.778 418.352C232.013 418.171 233.199 417.747 234.269 417.105C235.34 416.463 236.272 415.616 237.014 414.613C237.627 413.622 237.967 412.486 237.997 411.321C238.026 410.156 237.746 409.004 237.184 407.983C236.77 407.1 236.135 406.339 235.34 405.773C234.546 405.207 233.619 404.856 232.649 404.753C231.892 404.615 231.112 404.667 230.38 404.904C229.647 405.141 228.986 405.557 228.454 406.113C228.177 406.555 228.031 407.065 228.031 407.586C228.031 408.107 228.177 408.618 228.454 409.06C228.907 409.853 229.417 409.909 229.644 409.909H230.098C230.245 409.804 230.414 409.732 230.592 409.698C230.771 409.665 230.954 409.67 231.13 409.715C231.306 409.759 231.47 409.842 231.61 409.956C231.751 410.071 231.865 410.214 231.945 410.377C232.024 410.54 232.067 410.719 232.07 410.9C232.074 411.081 232.038 411.261 231.964 411.427C231.891 411.593 231.782 411.741 231.646 411.86C231.51 411.98 231.349 412.068 231.175 412.119C230.728 412.376 230.215 412.494 229.701 412.459C229.013 412.446 228.342 412.243 227.762 411.873C227.182 411.503 226.715 410.981 226.413 410.363C225.972 409.53 225.77 408.592 225.83 407.652C225.89 406.711 226.21 405.806 226.753 405.036C227.471 404.173 228.443 403.558 229.531 403.28C230.634 403.051 231.772 403.051 232.876 403.28C234.117 403.476 235.289 403.985 236.281 404.758C237.272 405.531 238.051 406.543 238.544 407.7C239.132 408.906 239.399 410.244 239.319 411.584C239.24 412.924 238.817 414.22 238.091 415.349C237.231 416.474 236.157 417.419 234.932 418.129C233.706 418.838 232.352 419.3 230.948 419.486C228.127 419.885 225.254 419.711 222.502 418.976C217.285 417.365 212.295 415.099 207.649 412.233C205.489 411.082 203.116 410.388 200.677 410.193C199.666 410.079 198.642 410.171 197.668 410.464C196.694 410.756 195.789 411.242 195.008 411.893C194.431 412.557 194.092 413.394 194.044 414.273C194.002 415.054 194.158 415.834 194.498 416.539C194.627 416.767 194.8 416.967 195.007 417.128C195.214 417.288 195.451 417.406 195.704 417.475C195.957 417.543 196.221 417.561 196.481 417.527C196.741 417.493 196.992 417.407 197.219 417.276C197.899 416.823 197.955 416.199 197.842 416.199C197.615 415.976 197.482 415.674 197.47 415.356C197.458 415.037 197.569 414.726 197.779 414.487C197.99 414.248 198.284 414.098 198.601 414.069C198.919 414.039 199.235 414.133 199.486 414.329L199.033 414.216Z" fill="url(#paint2_linear_592_897)"/>
<path d="M37.3575 409.513L38.3212 409.116C39.1615 408.675 40.033 408.296 40.9289 407.983C43.5999 407.005 46.4177 406.488 49.2621 406.453C50.7795 406.468 52.2872 406.697 53.7405 407.133C54.9961 407.533 56.1819 408.125 57.2552 408.89C57.674 409.183 58.0718 409.504 58.4456 409.853L59.2959 410.703L59.9762 411.44L59.1826 410.816C58.8911 410.55 58.5674 410.322 58.2189 410.136C57.8425 409.815 57.4226 409.548 56.9717 409.343C55.8773 408.794 54.7143 408.394 53.5137 408.153C52.1394 407.985 50.7497 407.985 49.3755 408.153C46.8048 408.567 44.3169 409.39 42.006 410.59L39.6818 411.95L38.8314 412.516C38.4354 412.736 37.9716 412.8 37.531 412.695C37.0904 412.59 36.705 412.324 36.4505 411.95C36.2199 411.566 36.1501 411.106 36.2562 410.671C36.3623 410.236 36.6359 409.861 37.0174 409.626L37.3575 409.513Z" fill="url(#paint3_linear_592_897)"/>
<path d="M12.7548 406.453V405.66C12.7178 405.34 12.7178 405.016 12.7548 404.696C12.7278 404.262 12.7278 403.827 12.7548 403.393C12.833 402.864 12.9857 402.349 13.2083 401.863C13.3891 401.29 13.6994 400.767 14.1153 400.333C14.495 399.812 14.9541 399.353 15.4759 398.973C15.9459 398.592 16.4597 398.269 17.0064 398.01C18.1334 397.595 19.3385 397.436 20.5346 397.544C21.7306 397.652 22.8878 398.024 23.9224 398.633C24.5821 399.006 25.1604 399.507 25.6231 400.107C25.792 400.321 25.9436 400.548 26.0766 400.787H25.2829L23.3555 400.39C21.5704 400.068 19.7317 400.224 18.0268 400.843C17.5848 400.994 17.1653 401.203 16.7797 401.467C16.3991 401.679 16.0386 401.926 15.7026 402.203C15.3574 402.481 15.0522 402.805 14.7956 403.166C14.5122 403.166 14.3421 403.846 14.0586 404.13C13.7238 404.698 13.421 405.284 13.1516 405.886C13.0346 406.085 12.9019 406.275 12.7548 406.453V406.453Z" fill="url(#paint4_linear_592_897)"/>
<path d="M214.792 412.516L213.885 411.949L211.674 410.703C209.367 409.495 206.878 408.672 204.305 408.266C202.931 408.098 201.541 408.098 200.167 408.266C198.966 408.507 197.803 408.907 196.709 409.456C196.258 409.661 195.838 409.928 195.461 410.25L194.498 410.93L193.761 411.553L194.441 410.816C194.673 410.504 194.939 410.219 195.235 409.966C195.608 409.618 196.006 409.296 196.425 409.003C197.498 408.239 198.684 407.646 199.94 407.246C201.394 406.814 202.901 406.585 204.418 406.566C207.263 406.601 210.08 407.118 212.751 408.096C213.659 408.384 214.548 408.725 215.416 409.116L216.323 409.513C216.734 409.688 217.06 410.018 217.23 410.432C217.4 410.845 217.4 411.309 217.23 411.723C217.043 412.138 216.702 412.465 216.279 412.634C215.856 412.803 215.384 412.802 214.962 412.629L214.792 412.516Z" fill="url(#paint5_linear_592_897)"/>
<path d="M240.925 406.453C240.786 406.201 240.672 405.935 240.585 405.66C240.316 405.058 240.013 404.471 239.678 403.903C239.468 403.557 239.221 403.234 238.941 402.94C238.685 402.579 238.379 402.255 238.034 401.977C237.325 401.42 236.543 400.962 235.71 400.617C234.006 399.995 232.166 399.838 230.381 400.163L228.454 400.56H227.66C227.793 400.322 227.945 400.094 228.114 399.88C228.592 399.295 229.167 398.797 229.814 398.407C230.849 397.797 232.006 397.425 233.202 397.317C234.398 397.21 235.603 397.369 236.73 397.783C237.356 398.026 237.947 398.349 238.488 398.747C239.014 399.141 239.49 399.597 239.905 400.107C240.284 400.557 240.573 401.077 240.755 401.637C240.978 402.123 241.13 402.638 241.209 403.167C241.236 403.601 241.236 404.036 241.209 404.47C241.209 404.866 241.209 405.15 241.209 405.433C241.09 405.766 240.995 406.107 240.925 406.453V406.453Z" fill="url(#paint6_linear_592_897)"/>
<path d="M225.415 67H25.5855C25.4302 67 25.2813 66.8946 25.1715 66.7071C25.0617 66.5196 25 66.2652 25 66C25 65.7348 25.0617 65.4804 25.1715 65.2929C25.2813 65.1054 25.4302 65 25.5855 65H225.415C225.57 65 225.719 65.1054 225.829 65.2929C225.938 65.4804 226 65.7348 226 66C226 66.2652 225.938 66.5196 225.829 66.7071C225.719 66.8946 225.57 67 225.415 67V67Z" fill="#806643"/>
<path d="M56.6885 442.321C75.393 461.706 101.008 472.909 127.946 473.487V473.487C154.883 472.909 180.498 461.706 199.203 442.321H56.6885Z" fill="#A78B66"/>
<path d="M130.363 455.23L130.474 455.559L130.82 455.57L136.307 455.75L131.899 459.033L131.62 459.24L131.717 459.573L133.244 464.825L128.745 461.633L128.461 461.431L128.174 461.627L123.644 464.721L125.305 459.471L125.411 459.136L125.131 458.923L120.778 455.604L126.253 455.514L126.597 455.508L126.715 455.186L128.606 450.008L130.363 455.23Z" stroke="#EBE6DB"/>
<path d="M108.934 454.095L109.045 454.427L109.394 454.437L113.677 454.564L110.245 457.105L109.966 457.312L110.062 457.646L111.248 461.754L107.773 459.255L107.488 459.049L107.198 459.248L103.684 461.66L104.954 457.6L105.058 457.268L104.783 457.055L101.385 454.423L105.672 454.381L106.02 454.377L106.138 454.049L107.578 450.028L108.934 454.095Z" stroke="#EBE6DB"/>
<path d="M90.4538 452.566L90.5646 452.898L90.9144 452.907L93.6122 452.981L91.4229 454.613L91.1422 454.822L91.2429 455.158L92.0196 457.746L89.7976 456.191L89.5178 455.995L89.2337 456.184L87.0195 457.66L87.8331 455.109L87.9393 454.776L87.6632 454.562L85.5294 452.907H88.2071H88.5577L88.6772 452.578L89.6046 450.019L90.4538 452.566Z" stroke="#EBE6DB"/>
<path d="M168.4 452.566L168.511 452.898L168.861 452.907L171.578 452.982L169.423 454.616L169.15 454.822L169.244 455.151L169.986 457.746L167.804 456.193L167.523 455.994L167.237 456.184L164.998 457.676L165.782 455.103L165.881 454.776L165.613 454.565L163.513 452.907H166.154H166.504L166.624 452.578L167.551 450.019L168.4 452.566Z" stroke="#EBE6DB"/>
<path d="M151.11 454.095L151.221 454.427L151.57 454.437L155.853 454.564L152.421 457.105L152.142 457.312L152.238 457.646L153.424 461.754L149.949 459.255L149.666 459.051L149.377 459.247L145.8 461.673L147.073 457.6L147.176 457.27L146.905 457.057L143.547 454.423L147.848 454.381L148.197 454.377L148.314 454.049L149.754 450.028L151.11 454.095Z" stroke="#EBE6DB"/>
<path fill-rule="evenodd" clip-rule="evenodd" d="M121.37 16.9993V16.4327C121.522 15.9381 121.732 15.4628 121.993 15.0161C122.358 14.3335 122.883 13.75 123.524 13.3162C124.265 12.817 125.126 12.5236 126.018 12.4662C126.896 12.4362 127.77 12.6108 128.569 12.9762C129.254 13.3096 129.855 13.7939 130.326 14.3928L130.346 14.4172C129.274 13.4874 127.892 12.9929 126.472 13.0328C125.751 13.0806 125.049 13.2824 124.414 13.6246C123.778 13.9667 123.223 14.4412 122.787 15.0161C122.456 15.3763 122.17 15.7759 121.937 16.206L121.37 16.9993ZM130.386 14.467C130.373 14.4503 130.36 14.4337 130.346 14.4172L130.383 14.4494L130.386 14.467ZM130.386 14.467C130.552 14.6769 130.702 14.8982 130.837 15.1294V15.7527V16.3194L130.496 15.8094C130.496 15.3597 130.459 14.9108 130.386 14.467ZM140.587 55.8144V56.6644C140.587 56.6644 140.757 55.4177 141.097 52.6979C141.616 50.1057 142.36 47.5655 143.32 45.106C144.884 44.8625 146.42 44.445 147.9 43.8582C150.859 42.8071 153.509 41.0348 155.609 38.7018C156.222 38.0423 156.693 37.2651 156.995 36.4175C157.297 35.57 157.424 34.6699 157.367 33.772C157.188 32.7619 156.645 31.8523 155.841 31.2153C155.036 30.5784 154.026 30.2582 153.002 30.3155C151.386 30.5727 149.907 31.3721 148.807 32.582C147.807 33.5413 146.914 34.6051 146.142 35.7552C144.806 37.809 143.721 40.0159 142.911 42.3283C142.783 42.6648 142.66 43.003 142.541 43.3428C141.431 43.5378 140.303 43.6349 139.17 43.6316C136.402 43.5711 133.724 42.6391 131.517 40.9683C129.859 39.7297 128.457 38.1877 127.382 36.4282C128.557 34.2795 129.415 31.9725 129.93 29.5788C130.954 25.986 130.954 22.1787 129.93 18.5859C129.585 17.4088 128.818 16.4001 127.775 15.7527C127.52 15.6225 127.248 15.5286 126.969 15.4729C126.953 15.4541 126.937 15.4359 126.919 15.4184C126.771 15.2697 126.569 15.1861 126.358 15.1861C125.866 15.1859 125.38 15.3024 124.941 15.5261C123.883 16.1566 123.111 17.172 122.787 18.3593C121.761 21.9711 121.761 25.797 122.787 29.4088C123.309 32.0287 124.309 34.5061 125.714 36.7276C124.667 38.4803 123.266 40.0027 121.596 41.195C119.349 42.766 116.685 43.6338 113.943 43.6882C112.472 43.6885 111.01 43.5132 109.589 43.1691C109.548 43.0586 109.507 42.9483 109.465 42.8382C108.677 40.5344 107.591 38.3436 106.234 36.3218C105.496 35.1627 104.621 34.0972 103.626 33.1486C102.53 31.9523 101.08 31.1381 99.488 30.8254C98.4609 30.7352 97.4366 31.0262 96.6106 31.6428C95.7845 32.2595 95.2146 33.1586 95.0096 34.1686C94.9269 35.0734 95.0468 35.9852 95.3605 36.8379C95.6743 37.6906 96.1741 38.4628 96.8236 39.0984C98.9287 41.4142 101.608 43.1342 104.59 44.0849C106.177 44.6732 107.825 45.0656 109.497 45.2569C110.437 47.6679 111.166 50.1575 111.676 52.6978C111.706 52.8079 111.735 52.9159 111.762 53.022C111.772 53.1405 111.781 53.2591 111.789 53.3778C111.871 54.3583 111.871 55.3438 111.789 56.3243L112.356 56.6643C112.356 56.6643 112.356 55.3182 111.762 53.022C111.55 50.4135 111.064 47.8367 110.312 45.3342C111.367 45.4134 112.429 45.4129 113.49 45.3315C116.435 45.1416 119.274 44.1629 121.71 42.4983C123.554 41.2259 125.161 39.6469 126.463 37.8337C127.685 39.5236 129.154 41.0406 130.837 42.3283C133.235 44.0106 136.027 45.0451 138.943 45.3315C139.941 45.3829 140.938 45.364 141.928 45.276C141.222 47.7319 140.772 50.257 140.587 52.8112V55.8144ZM108.483 42.8647L108.445 42.7816C107.45 40.7889 106.273 38.8921 104.93 37.1151C104.224 36.1354 103.406 35.2415 102.492 34.4519C101.746 33.669 100.776 33.1349 99.7147 32.922C99.3439 32.9019 98.9784 33.0173 98.6863 33.2467C98.3943 33.476 98.1957 33.8037 98.1274 34.1686C98.1336 35.2333 98.5617 36.2521 99.3179 37.0018C101.1 39.0783 103.328 40.7249 105.837 41.8183C106.693 42.2358 107.578 42.5852 108.483 42.8647ZM126.607 34.987C127.452 33.0835 128.036 31.0737 128.342 29.0121C128.973 25.6876 128.876 22.2662 128.059 18.9826C127.868 18.218 127.454 17.5275 126.868 16.9993C126.702 16.9505 126.525 16.9505 126.358 16.9993C126.149 16.9993 125.949 16.917 125.8 16.7704L125.791 16.7727C125.25 17.3481 124.86 18.0491 124.658 18.8126C123.931 22.0803 123.95 25.4697 124.714 28.7289C125.053 30.8929 125.69 32.999 126.607 34.987ZM144.217 42.9707C145.202 42.7049 146.168 42.3601 147.104 41.9383C149.597 40.8143 151.821 39.1698 153.625 37.1152C154.024 36.7028 154.335 36.2141 154.539 35.6785C154.744 35.143 154.838 34.5715 154.816 33.9986C154.71 33.629 154.473 33.3103 154.15 33.1018C153.827 32.8934 153.439 32.8093 153.058 32.8654C152.002 33.0555 151.031 33.5705 150.281 34.3386C149.381 35.1631 148.564 36.0741 147.843 37.0585C146.517 38.8472 145.342 40.7424 144.328 42.7249C144.291 42.8067 144.254 42.8887 144.217 42.9707ZM117.855 48.448C117.882 48.7686 117.882 49.0908 117.855 49.4113C117.883 49.8831 117.883 50.3562 117.855 50.8279V52.7494C120.727 52.3432 123.628 52.1743 126.528 52.2446C129.395 52.1469 132.265 52.3061 135.102 52.7197C134.917 51.319 134.938 49.898 135.166 48.502C132.244 47.26 129.406 45.8304 126.669 44.2224C126.456 44.3475 126.247 44.4716 126.038 44.5948L126.038 44.5949L126.038 44.5949C124.799 45.3284 123.618 46.0272 122.333 46.6914C120.879 47.3695 119.383 47.9561 117.855 48.448ZM117.005 47.4281C118.75 47.2784 120.447 46.7773 121.993 45.9548C123.578 45.1961 124.988 44.1154 126.131 42.7816C126.252 42.6851 126.402 42.6324 126.557 42.6324C126.711 42.6324 126.861 42.6851 126.982 42.7816C128.194 43.9648 129.592 44.9411 131.12 45.6715C132.643 46.4368 134.265 46.9897 135.939 47.3148C136.094 47.3425 136.233 47.4282 136.328 47.5543C136.422 47.6805 136.466 47.8379 136.449 47.9947C136.169 49.7592 136.169 51.5567 136.449 53.3212C136.465 53.4106 136.463 53.5024 136.443 53.5911C136.423 53.6797 136.386 53.7635 136.333 53.8375C136.28 53.9114 136.213 53.9741 136.135 54.0216C136.058 54.0692 135.972 54.1008 135.882 54.1145C132.843 53.427 129.752 52.991 126.642 52.8112C123.552 53.015 120.482 53.4507 117.458 54.1145C117.286 54.1485 117.106 54.1144 116.959 54.0194C116.811 53.9243 116.705 53.7756 116.665 53.6045V50.9413V49.468C116.698 49.0721 116.698 48.674 116.665 48.2781C116.645 48.1291 116.681 47.9783 116.764 47.8534C116.848 47.7285 116.973 47.6378 117.118 47.5981L117.005 47.4281ZM107.708 55.8144V56.6643C107.941 56.484 108.151 56.2745 108.331 56.041C108.441 55.2136 108.441 54.3752 108.331 53.5478C108.065 52.2595 107.565 51.0305 106.857 49.9213C105.795 48.4693 104.31 47.3808 102.606 46.8047C101.603 46.3983 100.522 46.223 99.4427 46.2916C98.3631 46.3603 97.3129 46.6713 96.3701 47.2014C95.4004 47.8755 94.634 48.8024 94.1543 49.8813C94.0747 50.0603 94.0035 50.2423 93.9408 50.4268C93.0056 50.2505 92.0476 50.2133 91.0981 50.3179C89.8699 50.445 88.6668 50.7504 87.5267 51.2246C86.388 51.6655 85.3038 52.2359 84.2955 52.9245C83.299 53.5506 82.3311 54.2053 81.3846 54.8455L81.3844 54.8457C80.4464 55.4801 79.5295 56.1003 78.6267 56.6643C75.4191 58.9453 71.663 60.3337 67.7425 60.6875C64.9413 60.6626 62.1847 59.9835 59.6928 58.7042C58.7319 58.239 57.8039 57.7089 56.915 57.1176C56.915 57.1176 57.8221 57.8543 59.5794 58.9876C62.0387 60.5187 64.8486 61.3964 67.7425 61.5375C69.6612 61.5582 71.5721 61.2908 73.4113 60.7442C75.4756 60.0474 77.4687 59.1556 79.3636 58.0809C80.0043 57.6807 80.6521 57.2592 81.3094 56.8315C82.5132 56.0482 83.7491 55.2441 85.0324 54.5111C86.9486 53.3141 89.0903 52.5233 91.3249 52.1879C92.0783 52.0277 92.8496 51.9808 93.6135 52.0472C93.5835 52.4702 93.595 52.8969 93.6491 53.3211C93.6987 53.9606 93.8925 54.5805 94.216 55.1344C94.3962 55.458 94.6591 55.7282 94.9777 55.9173C95.2963 56.1064 95.6594 56.2077 96.03 56.211C96.3948 56.2045 96.7532 56.1142 97.0776 55.9472C97.402 55.7801 97.6836 55.5408 97.9007 55.2477C98.0905 54.931 98.1908 54.5687 98.1908 54.1994C98.1908 53.8302 98.0905 53.4679 97.9007 53.1511C97.6017 52.549 97.1799 52.0161 96.6624 51.5867C96.2099 51.2112 95.693 50.9221 95.1376 50.7331C95.5472 49.917 96.1686 49.2256 96.937 48.7313C97.6832 48.3861 98.4956 48.2073 99.3179 48.2073C100.14 48.2073 100.953 48.3861 101.699 48.7313C103.095 49.1352 104.352 49.9201 105.327 50.9979C106.037 51.7644 106.612 52.6457 107.028 53.6045C107.355 54.3062 107.584 55.0499 107.708 55.8144ZM94.6613 52.2059C94.5959 52.6101 94.5792 53.0226 94.6128 53.4345C94.6128 54.3978 95.123 55.4744 95.8599 55.4177C96.0678 55.4293 96.2752 55.3887 96.4633 55.2997C96.6515 55.2106 96.8143 55.0758 96.937 54.9077C97.0365 54.7355 97.0889 54.54 97.0889 54.3411C97.0889 54.1422 97.0365 53.9467 96.937 53.7745C96.6793 53.353 96.3328 52.9927 95.9216 52.7187C95.54 52.4644 95.1113 52.2901 94.6613 52.2059ZM112.356 40.1184H112.866L114.114 39.6651C115.281 39.3481 116.419 38.931 117.515 38.4184C118.596 37.889 119.638 37.283 120.633 36.6052L121.653 35.8685L122.107 35.5286C121.986 36.1675 121.756 36.7809 121.426 37.3418C120.65 38.5317 119.548 39.4738 118.252 40.0564C116.956 40.6389 115.519 40.8374 114.114 40.6284C113.504 40.5546 112.91 40.3824 112.356 40.1184ZM120.009 55.8711C119.032 56.0855 118.067 56.3502 117.118 56.6644L120.066 56.891H123.07C124.203 56.8343 125.339 56.8343 126.472 56.891C127.605 56.8334 128.74 56.8334 129.873 56.891H132.877H135.825C135.825 56.891 134.691 56.4944 132.991 56.0977C130.851 55.6177 128.665 55.3707 126.472 55.3611C125.32 55.3011 124.166 55.3011 123.014 55.3611C122.004 55.4798 121.001 55.65 120.009 55.8711ZM93.3089 34.9619V34.4519C93.129 33.9419 93.0332 33.4061 93.0255 32.8653C93.0656 32.0802 93.2582 31.3104 93.5923 30.5988C94.0131 29.8082 94.6153 29.1285 95.3497 28.6155C96.0924 28.1002 96.9476 27.7699 97.844 27.6522C98.6119 27.5066 99.4003 27.5066 100.168 27.6522C100.689 27.783 101.186 27.9932 101.642 28.2755H101.529C100.593 27.9376 99.591 27.8281 98.6049 27.9563C97.6187 28.0844 96.6775 28.4465 95.8599 29.0122C95.2412 29.4216 94.7149 29.9557 94.3147 30.5801C93.9145 31.2046 93.6491 31.9058 93.5356 32.6387C93.4532 33.1263 93.4532 33.6243 93.5356 34.112L93.3089 34.9619ZM145.065 55.8144C145.03 56.0966 145.03 56.3821 145.065 56.6644L145.405 56.2677C145.529 55.5032 145.758 54.7595 146.086 54.0578C146.499 52.9702 147.115 51.9705 147.9 51.1113C148.875 50.0334 150.131 49.2486 151.528 48.8447C152.266 48.508 153.069 48.3337 153.88 48.3337C154.692 48.3337 155.494 48.508 156.233 48.8447C157.025 49.3329 157.667 50.0306 158.087 50.8606C158.108 50.9018 158.128 50.9433 158.148 50.9849L158.104 50.9979C156.944 51.3162 155.95 52.0664 155.326 53.0945C155.147 53.415 155.053 53.7759 155.053 54.1428C155.053 54.5097 155.147 54.8706 155.326 55.1911C155.557 55.4825 155.85 55.7197 156.183 55.8862C156.516 56.0526 156.881 56.1441 157.253 56.1544C157.624 56.1511 157.987 56.0498 158.306 55.8606C158.624 55.6715 158.887 55.4014 159.067 55.0778C159.391 54.5238 159.585 53.9039 159.634 53.2645C159.695 52.8953 159.723 52.5231 159.719 52.1521C160.448 52.0987 161.183 52.1484 161.902 52.3012C164.101 52.6689 166.203 53.4785 168.081 54.6811C168.925 55.1925 169.769 55.7385 170.618 56.2879L170.619 56.2882L170.619 56.2883C171.652 56.9562 172.692 57.6292 173.75 58.251C175.639 59.336 177.633 60.2283 179.702 60.9142C181.541 61.4609 183.452 61.7283 185.371 61.7075C188.265 61.5665 191.075 60.6887 193.534 59.1576C195.291 58.0243 196.198 57.2877 196.198 57.2877C195.309 57.8789 194.381 58.409 193.42 58.8743C190.929 60.1535 188.172 60.8326 185.371 60.8575C181.427 60.5739 177.631 59.2438 174.373 57.0044C173.37 56.3964 172.383 55.7233 171.377 55.0375C170.507 54.4447 169.624 53.8424 168.704 53.2645C167.696 52.5759 166.612 52.0055 165.473 51.5646C164.333 51.0904 163.13 50.785 161.902 50.6579C161.113 50.5709 160.318 50.582 159.535 50.6894C159.457 50.3695 159.354 50.0549 159.227 49.7484C158.766 48.6371 158.004 47.6765 157.027 46.9748C156.084 46.4446 155.034 46.1337 153.954 46.065C152.874 45.9963 151.793 46.1717 150.791 46.5781C149.086 47.1542 147.601 48.2427 146.539 49.6947C145.832 50.8039 145.332 52.0328 145.065 53.3212C144.955 54.1486 144.955 54.987 145.065 55.8144ZM158.564 52.3195C158.114 52.4039 157.686 52.5781 157.305 52.8321C156.894 53.1061 156.547 53.4663 156.29 53.8878C156.19 54.0601 156.138 54.2555 156.138 54.4545C156.138 54.6534 156.19 54.8488 156.29 55.0211C156.412 55.1892 156.575 55.3239 156.763 55.413C156.951 55.5021 157.159 55.5427 157.367 55.5311C158.104 55.5311 158.557 54.5111 158.614 53.5478C158.647 53.136 158.63 52.7235 158.564 52.3195ZM140.644 40.1184C140.079 40.4277 139.465 40.6384 138.83 40.7417C137.443 40.9544 136.024 40.7574 134.748 40.1751C133.448 39.5966 132.344 38.6513 131.574 37.4552C131.244 36.8942 131.014 36.2809 130.893 35.6419L131.347 35.9819L132.367 36.7185C133.362 37.3964 134.404 38.0023 135.485 38.5318C136.577 39.0531 137.716 39.4705 138.886 39.7784L140.133 40.0617L140.644 40.1184ZM159.691 34.3953V34.9619L159.918 34.5653C160.098 34.0553 160.193 33.5194 160.201 32.9787C160.161 32.1936 159.968 31.4238 159.634 30.7121C159.213 29.9215 158.611 29.2419 157.877 28.7289C157.134 28.2135 156.279 27.8833 155.383 27.7656C154.615 27.62 153.826 27.62 153.058 27.7656C152.48 27.972 151.943 28.2789 151.471 28.6722H151.528C152.025 28.5075 152.538 28.3936 153.058 28.3322C154.564 28.1278 156.092 28.4696 157.367 29.2955C157.985 29.7049 158.512 30.239 158.912 30.8635C159.312 31.488 159.577 32.1891 159.691 32.922C159.773 33.4097 159.773 33.9077 159.691 34.3953ZM76.019 55.0778C75.0801 55.6841 74.0944 56.2146 73.0712 56.6644C74.1559 56.2299 75.1994 55.6989 76.189 55.0778C78.3181 53.8463 80.3806 52.5034 82.368 51.0546C84.3039 49.5542 86.5204 48.456 88.8872 47.8247C89.6569 47.6999 90.4417 47.6999 91.2114 47.8247H92.1751L91.2681 47.5414C90.4435 47.3916 89.5985 47.3916 88.7738 47.5414C88.2169 47.6058 87.6667 47.7196 87.1299 47.8814L85.4292 48.618C84.2578 49.2746 83.1224 49.9934 82.0279 50.7713C81.2774 51.3099 80.5399 51.855 79.8266 52.3824C78.4387 53.4083 77.1423 54.3666 76.019 55.0778ZM180.779 56.6644C179.718 56.3073 178.694 55.852 177.718 55.3044C175.562 54.0875 173.479 52.7441 171.482 51.2813C169.56 49.7926 167.364 48.6953 165.02 48.0514C164.231 47.9282 163.428 47.9282 162.639 48.0514H161.675L162.582 47.7681C163.407 47.6182 164.252 47.6182 165.076 47.7681C165.633 47.8325 166.183 47.9463 166.72 48.1081L168.421 48.8447C169.592 49.5013 170.728 50.2201 171.822 50.998C172.573 51.5366 173.31 52.0817 174.024 52.609L174.024 52.6092C175.412 53.6351 176.708 54.5933 177.831 55.3044C178.777 55.833 179.763 56.2877 180.779 56.6644ZM115.361 34.7919C116.098 34.4519 116.324 33.2053 115.814 32.072C115.304 30.8821 114.284 30.1455 113.49 30.4854C112.696 30.8254 112.526 32.072 113.036 33.262C113.547 34.4519 114.624 35.1319 115.361 34.7919ZM136.902 32.072C136.335 33.2053 136.562 34.4519 137.356 34.7919C138.149 35.1319 139.113 34.4519 139.623 33.262C140.133 32.072 139.963 30.8254 139.17 30.4854C138.376 30.1455 137.412 30.8821 136.902 32.072ZM121.993 49.5813C121.993 50.0508 121.612 50.4313 121.143 50.4313C120.673 50.4313 120.293 50.0508 120.293 49.5813C120.293 49.1119 120.673 48.7314 121.143 48.7314C121.612 48.7314 121.993 49.1119 121.993 49.5813ZM127.889 49.0147C127.889 49.3904 127.739 49.7507 127.474 50.0164C127.208 50.2821 126.847 50.4313 126.472 50.4313C126.096 50.4313 125.735 50.2821 125.469 50.0164C125.204 49.7507 125.054 49.3904 125.054 49.0147C125.054 48.639 125.204 48.2787 125.469 48.013C125.735 47.7473 126.096 47.5981 126.472 47.5981C126.847 47.5981 127.208 47.7473 127.474 48.013C127.739 48.2787 127.889 48.639 127.889 49.0147ZM132.651 49.5813C132.651 50.0508 132.27 50.4313 131.8 50.4313C131.331 50.4313 130.95 50.0508 130.95 49.5813C130.95 49.1119 131.331 48.7314 131.8 48.7314C132.27 48.7314 132.651 49.1119 132.651 49.5813Z" fill="#453D3A"/>
<defs>
<linearGradient id="paint0_linear_592_897" x1="126.018" y1="3.39986" x2="126.018" y2="470.54" gradientUnits="userSpaceOnUse">
<stop stop-color="#FFF9ED"/>
<stop offset="0.35" stop-color="#FAF4E8"/>
<stop offset="0.78" stop-color="#EBE6DA"/>
<stop offset="0.99" stop-color="#E1DCD1"/>
</linearGradient>
<linearGradient id="paint1_linear_592_897" x1="37.7544" y1="360.668" x2="37.7544" y2="451.728" gradientUnits="userSpaceOnUse">
<stop stop-color="#806643"/>
<stop offset="0.09" stop-color="#8A7350"/>
<stop offset="0.25" stop-color="#978461"/>
<stop offset="0.37" stop-color="#9C8A67"/>
<stop offset="0.51" stop-color="#87704D"/>
<stop offset="0.62" stop-color="#7B613E"/>
<stop offset="0.85" stop-color="#927D5A"/>
<stop offset="1" stop-color="#9C8A67"/>
</linearGradient>
<linearGradient id="paint2_linear_592_897" x1="215.926" y1="360.668" x2="215.926" y2="451.728" gradientUnits="userSpaceOnUse">
<stop stop-color="#806643"/>
<stop offset="0.09" stop-color="#8A7350"/>
<stop offset="0.25" stop-color="#978461"/>
<stop offset="0.37" stop-color="#9C8A67"/>
<stop offset="0.51" stop-color="#87704D"/>
<stop offset="0.62" stop-color="#7B613E"/>
<stop offset="0.85" stop-color="#927D5A"/>
<stop offset="1" stop-color="#9C8A67"/>
</linearGradient>
<linearGradient id="paint3_linear_592_897" x1="48.1283" y1="360.668" x2="48.1283" y2="451.728" gradientUnits="userSpaceOnUse">
<stop stop-color="#806643"/>
<stop offset="0.09" stop-color="#8A7350"/>
<stop offset="0.25" stop-color="#978461"/>
<stop offset="0.37" stop-color="#9C8A67"/>
<stop offset="0.51" stop-color="#87704D"/>
<stop offset="0.62" stop-color="#7B613E"/>
<stop offset="0.85" stop-color="#927D5A"/>
<stop offset="1" stop-color="#9C8A67"/>
</linearGradient>
<linearGradient id="paint4_linear_592_897" x1="19.2173" y1="360.668" x2="19.2173" y2="451.728" gradientUnits="userSpaceOnUse">
<stop stop-color="#806643"/>
<stop offset="0.09" stop-color="#8A7350"/>
<stop offset="0.25" stop-color="#978461"/>
<stop offset="0.37" stop-color="#9C8A67"/>
<stop offset="0.51" stop-color="#87704D"/>
<stop offset="0.62" stop-color="#7B613E"/>
<stop offset="0.85" stop-color="#927D5A"/>
<stop offset="1" stop-color="#9C8A67"/>
</linearGradient>
<linearGradient id="paint5_linear_592_897" x1="205.552" y1="360.668" x2="205.552" y2="451.728" gradientUnits="userSpaceOnUse">
<stop stop-color="#806643"/>
<stop offset="0.09" stop-color="#8A7350"/>
<stop offset="0.25" stop-color="#978461"/>
<stop offset="0.37" stop-color="#9C8A67"/>
<stop offset="0.51" stop-color="#87704D"/>
<stop offset="0.62" stop-color="#7B613E"/>
<stop offset="0.85" stop-color="#927D5A"/>
<stop offset="1" stop-color="#9C8A67"/>
</linearGradient>
<linearGradient id="paint6_linear_592_897" x1="234.463" y1="360.668" x2="234.463" y2="451.728" gradientUnits="userSpaceOnUse">
<stop stop-color="#806643"/>
<stop offset="0.09" stop-color="#8A7350"/>
<stop offset="0.25" stop-color="#978461"/>
<stop offset="0.37" stop-color="#9C8A67"/>
<stop offset="0.51" stop-color="#87704D"/>
<stop offset="0.62" stop-color="#7B613E"/>
<stop offset="0.85" stop-color="#927D5A"/>
<stop offset="1" stop-color="#9C8A67"/>
</linearGradient>
</defs>
</svg>
