<svg width="230" height="23" viewBox="0 0 230 23" fill="none" xmlns="http://www.w3.org/2000/svg">
<path d="M44.6883 18.916C44.6883 18.916 44.6883 19.5393 45.3119 19.9926C45.5343 20.1228 45.7806 20.2071 46.0361 20.2405C46.2917 20.2739 46.5514 20.2557 46.7998 20.1871C47.0482 20.1184 47.2803 20.0006 47.4824 19.8406C47.6845 19.6807 47.8524 19.4819 47.9762 19.256C48.3428 18.56 48.5003 17.7728 48.4297 16.9894C48.4096 16.1052 48.0669 15.2588 47.466 14.6095C46.6847 13.9586 45.7797 13.4724 44.8055 13.1803C43.8313 12.8881 42.808 12.7961 41.7972 12.9096C39.3756 13.1044 37.0207 13.799 34.8812 14.9495C30.2158 17.8163 25.2064 20.082 19.9722 21.6926C16.9592 22.5944 13.7818 22.8075 10.6753 22.3159C7.82494 21.9363 5.23864 20.4503 3.47591 18.1793C2.71815 17.0353 2.26342 15.7177 2.15436 14.35C2.04529 12.9823 2.28545 11.6093 2.85233 10.3597C3.35438 9.20945 4.13583 8.20272 5.12578 7.43089C6.11573 6.65906 7.28283 6.14656 8.52117 5.93988C9.60512 5.71047 10.7251 5.71047 11.8091 5.93988C12.897 6.21821 13.8692 6.83298 14.5868 7.69646C15.1557 8.455 15.4909 9.36295 15.5513 10.309C15.6117 11.2551 15.3947 12.1982 14.9269 13.0229C14.6396 13.6404 14.1842 14.1645 13.6127 14.5353C13.0413 14.9061 12.3769 15.1086 11.6957 15.1195C11.3596 15.1932 11.0115 15.1932 10.6753 15.1195C10.5264 15.0531 10.3928 14.9567 10.2827 14.8366C10.1726 14.7164 10.0883 14.5749 10.0352 14.4208C9.98203 14.2667 9.9611 14.1034 9.97371 13.9409C9.98631 13.7785 10.0322 13.6203 10.1084 13.4762C10.2547 13.1864 10.5083 12.9651 10.8153 12.8593C11.1223 12.7535 11.4585 12.7715 11.7524 12.9096H12.2059C12.2059 12.9096 12.9429 12.9096 13.3964 12.0596C13.673 11.618 13.8196 11.1074 13.8196 10.5864C13.8196 10.0653 13.673 9.55473 13.3964 9.11307C12.8587 8.56509 12.1963 8.15521 11.4659 7.91841C10.7354 7.68161 9.95854 7.62492 9.20143 7.75314C8.22136 7.8466 7.28255 8.19357 6.47741 8.75991C5.67227 9.32625 5.02856 10.0924 4.60967 10.983C4.09781 12.0283 3.86534 13.1883 3.93488 14.3501C4.00441 15.5118 4.37359 16.6358 5.00649 17.6127C6.53839 19.629 8.79509 20.9702 11.2989 21.3526C13.9425 21.7847 16.6479 21.6495 19.2353 20.9559C24.3792 19.4217 29.3114 17.2517 33.9175 14.4962C36.1703 13.2573 38.6654 12.5226 41.2303 12.3429C42.4142 12.1628 43.6229 12.2364 44.7761 12.5588C45.9294 12.8812 47.0009 13.445 47.9196 14.2129C48.7044 15.0282 49.1848 16.0886 49.2801 17.2161C49.4304 18.211 49.313 19.2281 48.9399 20.1626C48.723 20.6179 48.4149 21.0239 48.0346 21.3553C47.6543 21.6867 47.2099 21.9365 46.7291 22.0892H46.0488H45.2552C44.8444 22.1799 44.4188 22.1799 44.0081 22.0892C43.3262 21.8595 42.7448 21.401 42.3625 20.7917C41.9802 20.1824 41.8206 19.4596 41.9106 18.746C42.0311 18.3094 42.2437 17.9037 42.5342 17.5561C42.7678 17.3242 43.0836 17.1941 43.4128 17.1941C43.742 17.1941 44.0579 17.3242 44.2915 17.5561C44.4121 17.6624 44.5088 17.7932 44.5749 17.9398C44.6411 18.0863 44.6754 18.2452 44.6754 18.406C44.6754 18.5668 44.6411 18.7258 44.5749 18.8723C44.5088 19.0189 44.4121 19.1496 44.2915 19.256L44.6883 18.916Z" fill="url(#paint0_linear_764_105)"/>
<path d="M187.033 17.216C187.323 17.5561 187.518 17.9664 187.6 18.4059C187.704 19.1137 187.557 19.8359 187.184 20.4466C186.812 21.0574 186.236 21.5183 185.559 21.7491C185.147 21.8347 184.723 21.8347 184.312 21.7491H183.688H183.008C182.522 21.6061 182.073 21.3599 181.692 21.0274C181.31 20.6949 181.005 20.2838 180.797 19.8225C180.562 18.9718 180.543 18.0761 180.74 17.216C180.856 16.0824 181.356 15.0226 182.157 14.2128C183.066 13.4463 184.127 12.8829 185.271 12.5604C186.415 12.2378 187.615 12.1637 188.79 12.3428C191.356 12.5152 193.853 13.2504 196.103 14.4961C200.729 17.2516 205.68 19.4215 210.842 20.9558C213.429 21.6511 216.135 21.7864 218.778 21.3525C220.013 21.1707 221.199 20.7467 222.27 20.1049C223.34 19.4631 224.272 18.6161 225.014 17.6126C225.628 16.6218 225.967 15.4857 225.997 14.3208C226.027 13.1558 225.746 12.0038 225.184 10.9829C224.77 10.1 224.135 9.33881 223.34 8.77299C222.546 8.20717 221.619 7.85587 220.649 7.75303C219.892 7.61482 219.112 7.66672 218.38 7.90408C217.648 8.14145 216.986 8.55684 216.454 9.11296C216.177 9.55462 216.031 10.0652 216.031 10.5862C216.031 11.1073 216.177 11.6179 216.454 12.0595C216.907 12.8528 217.418 12.9095 217.644 12.9095H218.098C218.245 12.8039 218.414 12.7319 218.592 12.6982C218.771 12.6646 218.954 12.6703 219.13 12.7148C219.306 12.7594 219.47 12.8417 219.611 12.9561C219.751 13.0705 219.865 13.2143 219.945 13.3773C220.024 13.5403 220.067 13.7186 220.071 13.8999C220.074 14.0812 220.038 14.2611 219.964 14.427C219.891 14.5928 219.783 14.7407 219.646 14.8603C219.51 14.9799 219.349 15.0683 219.175 15.1194C218.728 15.3758 218.215 15.4941 217.701 15.4594C217.013 15.4459 216.342 15.243 215.762 14.8732C215.182 14.5033 214.715 13.9807 214.413 13.3628C213.972 12.5302 213.77 11.5917 213.83 10.6515C213.89 9.71133 214.21 8.80617 214.753 8.03637C215.471 7.17289 216.443 6.55807 217.531 6.27975C218.634 6.05063 219.773 6.05063 220.876 6.27975C222.118 6.47645 223.289 6.98521 224.281 7.75826C225.272 8.53132 226.051 9.54336 226.544 10.6996C227.132 11.9064 227.399 13.244 227.319 14.5838C227.24 15.9235 226.817 17.2203 226.091 18.3493C225.231 19.4744 224.157 20.4189 222.932 21.1287C221.706 21.8385 220.352 22.2996 218.948 22.4857C216.127 22.8848 213.254 22.7114 210.502 21.9758C205.286 20.3648 200.295 18.099 195.649 15.2327C193.489 14.0823 191.116 13.388 188.677 13.1928C187.666 13.0793 186.643 13.1714 185.668 13.4635C184.694 13.7557 183.789 14.2418 183.008 14.8927C182.432 15.5573 182.092 16.3945 182.044 17.2726C182.002 18.0543 182.158 18.8339 182.498 19.5392C182.627 19.7671 182.8 19.967 183.007 20.1276C183.215 20.2881 183.451 20.4061 183.704 20.4746C183.957 20.5431 184.222 20.5608 184.481 20.5267C184.741 20.4926 184.992 20.4073 185.219 20.2758C185.899 19.8225 185.956 19.1992 185.842 19.1992C185.615 18.9759 185.482 18.6741 185.47 18.3557C185.458 18.0373 185.569 17.7265 185.78 17.4871C185.99 17.2478 186.284 17.0981 186.601 17.0688C186.919 17.0394 187.235 17.1326 187.486 17.3293L187.033 17.216Z" fill="url(#paint1_linear_764_105)"/>
<path d="M25.3576 12.513L26.3213 12.1163C27.1615 11.6751 28.0331 11.2963 28.929 10.983C31.6 10.005 34.4178 9.48767 37.2622 9.45312C38.7795 9.46768 40.2873 9.69658 41.7405 10.1331C42.9962 10.5328 44.1819 11.1254 45.2552 11.8897C45.6741 12.1826 46.0718 12.5045 46.4457 12.853L47.296 13.7029L47.9762 14.4396L47.1826 13.8163C46.8912 13.5501 46.5674 13.3216 46.2189 13.1363C45.8425 12.8146 45.4227 12.5475 44.9718 12.343C43.8774 11.7938 42.7144 11.3936 41.5138 11.153C40.1395 10.9846 38.7498 10.9846 37.3755 11.153C34.8048 11.5675 32.317 12.3901 30.0061 13.5896L27.6818 14.9495L26.8315 15.5162C26.4355 15.7359 25.9716 15.7996 25.531 15.6947C25.0905 15.5898 24.7051 15.324 24.4506 14.9495C24.22 14.5657 24.1501 14.1064 24.2563 13.6714C24.3624 13.2364 24.6359 12.8609 25.0175 12.6263L25.3576 12.513Z" fill="url(#paint2_linear_764_105)"/>
<path d="M0.754878 9.45301V8.65967C0.717857 8.33964 0.717857 8.01642 0.754878 7.69639C0.727835 7.26239 0.727835 6.82714 0.754878 6.39314C0.833094 5.86433 0.985776 5.34922 1.20838 4.86318C1.38914 4.29033 1.6995 3.76683 2.1154 3.33326C2.49508 2.81172 2.95415 2.35285 3.47592 1.97333C3.94591 1.59245 4.45975 1.26902 5.0065 1.01C6.13349 0.595351 7.33858 0.436173 8.53464 0.543969C9.7307 0.651765 10.8879 1.02385 11.9225 1.63331C12.5822 2.00586 13.1604 2.50684 13.6231 3.1066C13.7921 3.32091 13.9437 3.54829 14.0766 3.78659H13.283L11.3556 3.38994C9.5705 3.06755 7.73181 3.22393 6.02689 3.84322C5.58487 3.99361 5.16533 4.2033 4.77975 4.46653C4.39915 4.67897 4.03865 4.92556 3.70267 5.20319C3.35745 5.48106 3.05223 5.80521 2.79566 6.16648C2.51222 6.16648 2.34215 6.84644 2.05871 7.12976C1.72383 7.69792 1.42102 8.28436 1.1517 8.88634C1.03463 9.08542 0.901943 9.27493 0.754878 9.45301Z" fill="url(#paint3_linear_764_105)"/>
<path d="M202.792 15.5162L201.885 14.9495L199.674 13.7029C197.367 12.4951 194.878 11.6721 192.305 11.2664C190.93 11.098 189.541 11.098 188.166 11.2664C186.966 11.507 185.803 11.9072 184.708 12.4563C184.258 12.6609 183.838 12.9279 183.461 13.2496L182.498 13.9295L181.761 14.5528L182.441 13.8162C182.673 13.5042 182.939 13.2191 183.235 12.9663C183.608 12.6178 184.006 12.2959 184.425 12.003C185.498 11.2387 186.684 10.6461 187.94 10.2464C189.394 9.81426 190.901 9.58542 192.418 9.56641C195.262 9.60095 198.08 10.1183 200.751 11.0963C201.658 11.3843 202.548 11.7248 203.416 12.1163L204.323 12.5129C204.734 12.6881 205.06 13.0182 205.23 13.4318C205.4 13.8454 205.4 14.3093 205.23 14.7229C205.043 15.1383 204.702 15.4651 204.279 15.6342C203.856 15.8034 203.384 15.8017 202.962 15.6295L202.792 15.5162Z" fill="url(#paint4_linear_764_105)"/>
<path d="M228.925 9.45311C228.786 9.20057 228.672 8.93479 228.585 8.65977C228.316 8.05779 228.013 7.47136 227.678 6.9032C227.468 6.55667 227.221 6.23374 226.941 5.93991C226.685 5.57864 226.38 5.2545 226.034 4.97663C225.325 4.41982 224.543 3.96226 223.71 3.61666C222.006 2.99469 220.166 2.83824 218.381 3.16337L216.454 3.56002H215.66C215.793 3.32173 215.945 3.09434 216.114 2.88004C216.592 2.29491 217.167 1.79651 217.814 1.40675C218.849 0.797283 220.006 0.425203 221.202 0.317407C222.398 0.209611 223.603 0.368789 224.73 0.783442C225.356 1.02555 225.947 1.3495 226.488 1.74677C227.014 2.14054 227.49 2.59725 227.905 3.1067C228.284 3.55744 228.573 4.07684 228.755 4.63661C228.978 5.12266 229.131 5.63777 229.209 6.16658C229.236 6.60058 229.236 7.03582 229.209 7.46983C229.209 7.86648 229.209 8.14983 229.209 8.43316C229.09 8.76597 228.995 9.10682 228.925 9.45311Z" fill="url(#paint5_linear_764_105)"/>
<defs>
<linearGradient id="paint0_linear_764_105" x1="25.7544" y1="-36.3317" x2="25.7544" y2="54.7278" gradientUnits="userSpaceOnUse">
<stop stop-color="#806643"/>
<stop offset="0.09" stop-color="#8A7350"/>
<stop offset="0.25" stop-color="#978461"/>
<stop offset="0.37" stop-color="#9C8A67"/>
<stop offset="0.51" stop-color="#87704D"/>
<stop offset="0.62" stop-color="#7B613E"/>
<stop offset="0.85" stop-color="#927D5A"/>
<stop offset="1" stop-color="#9C8A67"/>
</linearGradient>
<linearGradient id="paint1_linear_764_105" x1="203.926" y1="-36.3318" x2="203.926" y2="54.7277" gradientUnits="userSpaceOnUse">
<stop stop-color="#806643"/>
<stop offset="0.09" stop-color="#8A7350"/>
<stop offset="0.25" stop-color="#978461"/>
<stop offset="0.37" stop-color="#9C8A67"/>
<stop offset="0.51" stop-color="#87704D"/>
<stop offset="0.62" stop-color="#7B613E"/>
<stop offset="0.85" stop-color="#927D5A"/>
<stop offset="1" stop-color="#9C8A67"/>
</linearGradient>
<linearGradient id="paint2_linear_764_105" x1="36.1284" y1="-36.3316" x2="36.1284" y2="54.7279" gradientUnits="userSpaceOnUse">
<stop stop-color="#806643"/>
<stop offset="0.09" stop-color="#8A7350"/>
<stop offset="0.25" stop-color="#978461"/>
<stop offset="0.37" stop-color="#9C8A67"/>
<stop offset="0.51" stop-color="#87704D"/>
<stop offset="0.62" stop-color="#7B613E"/>
<stop offset="0.85" stop-color="#927D5A"/>
<stop offset="1" stop-color="#9C8A67"/>
</linearGradient>
<linearGradient id="paint3_linear_764_105" x1="7.21735" y1="-36.3319" x2="7.21735" y2="54.7279" gradientUnits="userSpaceOnUse">
<stop stop-color="#806643"/>
<stop offset="0.09" stop-color="#8A7350"/>
<stop offset="0.25" stop-color="#978461"/>
<stop offset="0.37" stop-color="#9C8A67"/>
<stop offset="0.51" stop-color="#87704D"/>
<stop offset="0.62" stop-color="#7B613E"/>
<stop offset="0.85" stop-color="#927D5A"/>
<stop offset="1" stop-color="#9C8A67"/>
</linearGradient>
<linearGradient id="paint4_linear_764_105" x1="193.552" y1="-36.3317" x2="193.552" y2="54.7279" gradientUnits="userSpaceOnUse">
<stop stop-color="#806643"/>
<stop offset="0.09" stop-color="#8A7350"/>
<stop offset="0.25" stop-color="#978461"/>
<stop offset="0.37" stop-color="#9C8A67"/>
<stop offset="0.51" stop-color="#87704D"/>
<stop offset="0.62" stop-color="#7B613E"/>
<stop offset="0.85" stop-color="#927D5A"/>
<stop offset="1" stop-color="#9C8A67"/>
</linearGradient>
<linearGradient id="paint5_linear_764_105" x1="222.463" y1="-36.3318" x2="222.463" y2="54.728" gradientUnits="userSpaceOnUse">
<stop stop-color="#806643"/>
<stop offset="0.09" stop-color="#8A7350"/>
<stop offset="0.25" stop-color="#978461"/>
<stop offset="0.37" stop-color="#9C8A67"/>
<stop offset="0.51" stop-color="#87704D"/>
<stop offset="0.62" stop-color="#7B613E"/>
<stop offset="0.85" stop-color="#927D5A"/>
<stop offset="1" stop-color="#9C8A67"/>
</linearGradient>
</defs>
</svg>
