<svg width="175" height="85" viewBox="0 0 175 85" fill="none" xmlns="http://www.w3.org/2000/svg">
<path d="M174.614 29.4269C173.624 26.6877 172.346 24.0624 170.8 21.5958C169.523 19.559 168.246 18.0841 165.71 18.0841C159.238 17.9612 152.748 18.8918 146.276 18.8215C143.723 18.9924 141.179 18.38 138.981 17.0657C136.305 15.0991 137.004 12.0615 136.515 9.18189C136.344 8.18886 135.921 7.25681 135.286 6.47563C134.652 5.69444 133.828 5.09049 132.894 4.72202C130.072 3.52734 127.143 2.6043 124.147 1.96534C112.735 -0.491293 100.95 -0.646474 89.4768 1.50881C77.3538 3.58495 65.5248 7.12224 54.2464 12.0439C41.3221 17.6087 29.1878 24.8647 18.159 33.6234C18.0919 33.6781 18.0405 33.7497 18.0099 33.8309C17.9793 33.9121 17.9707 34 17.9849 34.0856C17.9991 34.1712 18.0357 34.2515 18.0908 34.3184C18.146 34.3852 18.2178 34.4362 18.2989 34.4662C21.2377 35.2212 24.1765 35.9938 27.0453 36.6961C26.8684 37.0478 26.7164 37.4116 26.5905 37.7847C26.4855 37.6794 26.2406 37.7847 26.2406 37.9076C26.2406 42.4729 22.1998 45.651 19.0511 48.4428C15.5526 51.4102 12.054 54.2195 8.90534 57.4854C3.84994 62.753 0.0365328 69.3901 0.66627 76.7998C0.683295 76.8867 0.732411 76.9639 0.803778 77.016C0.875145 77.0681 0.96349 77.0912 1.05111 77.0807C4.94102 76.4326 8.68828 75.1075 12.124 73.1652C15.3514 70.93 18.3775 68.4154 21.1677 65.6501C23.1444 63.8943 25.0861 62.0331 27.0453 60.207C27.7393 61.5181 28.5043 62.7901 29.3368 64.0172C30.4237 65.6532 31.6343 67.2029 32.9578 68.6526C33.6836 69.643 34.7607 70.3156 35.9666 70.5314C39.0628 70.6719 40.8295 65.9662 42.089 63.8767L49.0861 52.1476C50.3456 50.0581 51.64 47.9511 52.8645 45.8265C65.4418 47.4419 78.3164 45.0188 90.9112 44.8608C100.007 44.7555 109.663 45.1066 118.76 43.3508C116.293 46.5816 113.512 49.6016 111.273 52.9904C108.159 57.5732 105.64 62.6301 102.929 67.4762L94.1823 83.1911C93.9899 83.5247 94.1823 84.1393 94.6896 83.9988C108.089 80.3291 119.302 71.7078 128.73 61.8048C133.611 56.6602 138.107 51.1292 142.55 45.5983C144.421 43.2454 146.643 40.8926 147.255 37.8725C147.255 37.6443 147.255 37.4336 147.343 37.2053C156.903 38.031 166.457 35.553 174.421 30.1819C174.533 30.0957 174.612 29.9745 174.647 29.8377C174.682 29.7008 174.67 29.5562 174.614 29.4269Z" fill="#0F1B33"/>
</svg>
