<svg width="257" height="239" viewBox="0 0 257 239" fill="none" xmlns="http://www.w3.org/2000/svg">
<path d="M115.468 0H127.578C128.547 0.380431 129.517 0.827996 130.51 1.14129C146.121 5.93024 152.861 18.5963 147.894 33.3884C147.479 35.2272 147.407 37.1206 147.682 38.983C148.509 52.7904 150.165 66.7991 135.099 77.026C139.995 77.9659 143.684 78.8834 147.445 79.2638C155.463 80.2485 159.649 85.0151 161.873 91.8181C162.348 93.5246 162.703 95.259 162.937 97.0098C165.302 110.75 167.407 124.535 170.293 138.186C171.175 141.986 173.342 145.412 176.466 147.943C188.575 157.185 201.04 165.823 213.646 174.394C215.773 175.333 218.118 175.741 220.458 175.58C223.485 175.737 226.584 175.11 229.54 175.58C234.271 176.251 239.001 177.504 244.772 178.713C245.221 180.951 244.772 185.068 246.83 187.082C248.887 189.096 253.523 189.32 257 190.372V191.245C253.31 192.185 248.816 192.185 246.097 194.266C240.633 198.451 235.264 197.444 229.871 195.541C225.356 193.614 220.979 191.408 216.768 188.94C218.542 197.511 213.954 202.77 207.166 205.791C197.539 210.065 187.369 213.265 177.435 216.98C175.827 217.539 174.101 217.83 172.445 218.255V219.934C175.874 220.202 179.28 220.448 182.686 220.784C186.92 221.187 191.201 221.455 195.364 222.239C197.942 222.709 200.236 224.32 202.79 224.969C206.716 225.953 208.277 228.616 205.581 231.682C202.746 234.38 199.659 236.829 196.357 239H189.971C181.125 234.233 171.428 233.898 161.589 233.808C154.635 233.808 147.658 233.428 140.728 232.846C127.081 231.682 113.789 227.274 99.7158 230.138C89.0489 232.376 77.6487 229.959 67.171 234.368C66.2404 234.45 65.3027 234.317 64.4379 233.982C63.573 233.647 62.8066 233.119 62.2041 232.443C58.3489 227.475 55.558 222.037 57.4738 215.682C51.7973 213.601 46.3101 211.945 41.1777 209.573C32.9232 205.723 25.7568 200.8 25.6385 190.193C21.2866 193.147 17.6915 196.056 13.8836 198.764C9.96881 201.722 4.98486 203.112 0 202.635L0 192.073C1.60832 189.835 3.07473 187.418 4.84861 185.359C10.1939 178.959 15.7757 172.962 25.5439 172.827C28.1077 172.732 30.5811 171.905 32.6394 170.455C43.7321 162.444 54.5173 154.074 65.61 146.085C68.8257 143.976 71.048 140.766 71.8067 137.134C74.2902 125.632 76.8919 114.174 79.4226 102.672C79.6118 101.799 79.5882 100.881 79.7064 99.6728C73.8881 102.202 68.1407 103.969 63.3158 107.035C59.0569 109.841 55.3841 113.37 52.4832 117.441C50.3689 121.03 48.8154 124.889 47.8712 128.899C43.9923 140.983 35.4776 146.578 22.1617 146.085C17.4313 145.906 12.701 146.085 8.25446 146.085C10.6196 141.99 15.8703 142.863 20.7426 142.415L18.0936 139.305C28.5713 138.969 35.7378 132.256 35.6669 122.7C35.6669 115.987 34.7681 109.273 34.3897 102.56C34.0425 98.9376 34.7924 95.2969 36.5515 92.0633C38.3106 88.8296 41.0063 86.1365 44.3234 84.299C51.1824 80.3156 58.3725 76.847 65.4681 73.1098C69.4271 71.4363 73.2598 69.5072 76.9392 67.3362C89.7821 58.3849 96.712 46.6363 93.7556 30.9268C92.671 25.0977 93.6734 19.0928 96.6039 13.8637C99.5343 8.63453 104.225 4.48016 109.933 2.0588C111.755 1.3427 113.528 0.671348 115.468 0ZM37.8428 179.183C42.242 179.183 45.7898 179.049 49.3139 179.183C54.399 179.407 59.4842 179.877 64.5693 180.145C69.6544 180.414 74.5503 180.682 79.5409 180.682C80.345 180.682 81.4567 179.407 81.906 178.444C85.5076 170.614 90.7728 163.568 97.3743 157.744C98.2066 157.044 98.8744 156.186 99.3348 155.226C99.7951 154.267 100.038 153.226 100.047 152.172C98.344 143.042 96.0498 134.001 93.9448 124.938L92.7149 124.804C90.0895 131.159 87.0148 137.38 84.9571 143.892C83.5423 148.476 81.0981 152.716 77.7917 156.323C74.4853 159.931 70.3945 162.82 65.7992 164.794C56.5277 169.135 47.5873 174.125 37.8428 179.183ZM149.952 127.041L148.722 126.795C146.641 133.777 144.583 140.826 142.171 147.697C140.681 151.993 142.171 155.149 144.772 158.617C148.722 163.608 152.01 169.068 155.605 174.282C156.106 175.182 156.717 176.024 157.426 176.788C160.596 179.914 164.936 181.738 169.512 181.868C177.79 182.495 185.619 180.705 193.661 180.884C195.222 180.884 196.759 181.242 198.391 181.286C200.023 181.331 202.175 181.286 204.067 181.286C201.819 179.371 199.285 177.78 196.546 176.565C188.646 172.514 180.865 168.217 172.894 164.503C169.184 162.828 165.888 160.432 163.223 157.47C160.557 154.509 158.582 151.049 157.426 147.316C154.943 140.536 152.436 133.8 149.999 127.041H149.952ZM242.052 181.734L234.389 182.808L240.775 186.881L242.052 181.734Z" fill="#121212"/>
</svg>
