<?xml version="1.0" encoding="utf-8"?>
<!-- Generator: Adobe Illustrator 26.2.1, SVG Export Plug-In . SVG Version: 6.00 Build 0)  -->
<svg version="1.1" id="图层_1" xmlns="http://www.w3.org/2000/svg" xmlns:xlink="http://www.w3.org/1999/xlink" x="0px" y="0px"
	 viewBox="0 0 334 526" style="enable-background:new 0 0 334 526;" xml:space="preserve">
<style type="text/css">
	.st0{fill-rule:evenodd;clip-rule:evenodd;fill:#FF61BB;}
	.st1{fill-rule:evenodd;clip-rule:evenodd;fill:#980E64;}
	.st2{fill-rule:evenodd;clip-rule:evenodd;fill:#641847;filter:url(#Adobe_OpacityMaskFilter);}
	.st3{mask:url(#mask0_571_864_00000116222986821680913540000004580878694798674367_);}
	.st4{fill:#801252;}
</style>
<path class="st0" d="M5.4,526c-2.9,0-5.3-2.3-4.9-5.2C13.4,403,137,77.7,162.4,11.8c1.6-4.2,7.5-4.2,9.1,0
	c25.4,66,149,391.3,161.9,509c0.3,2.9-2,5.2-4.9,5.2H5.4z"/>
<path class="st1" d="M33.5,496.3c-2.9,0-5.3-2.3-4.9-5.3C39.7,393.8,139.4,130.7,162,71.9c1.6-4.2,7.5-4.2,9.1,0
	c22.6,58.8,122.3,321.9,133.4,419.1c0.3,2.9-2,5.3-4.9,5.3H33.5z"/>
<defs>
	<filter id="Adobe_OpacityMaskFilter" filterUnits="userSpaceOnUse" x="11" y="26" width="155.8" height="473.2">
		<feColorMatrix  type="matrix" values="1 0 0 0 0  0 1 0 0 0  0 0 1 0 0  0 0 0 1 0"/>
	</filter>
</defs>
<mask maskUnits="userSpaceOnUse" x="11" y="26" width="155.8" height="473.2" id="mask0_571_864_00000116222986821680913540000004580878694798674367_">
	<path class="st2" d="M33.5,496.3c-2.9,0-5.3-2.3-4.9-5.3C39.7,393.8,139.4,130.7,162,71.9c1.6-4.2,7.5-4.2,9.1,0
		c22.6,58.8,122.3,321.9,133.4,419.1c0.3,2.9-2,5.3-4.9,5.3H33.5z"/>
</mask>
<g class="st3">
	<rect x="11" y="26" class="st4" width="155.8" height="473.2"/>
</g>
</svg>
