<svg width="335" height="71" viewBox="0 0 335 71" fill="none" xmlns="http://www.w3.org/2000/svg">
<path d="M161.3 40.4794H154.243C152.541 37.5038 150.62 34.6599 148.497 31.9716C150.002 31.8473 151.517 32.025 152.954 32.4945C154.39 32.964 155.72 33.7158 156.864 34.7062C158.692 36.3324 160.197 38.2912 161.3 40.4794Z" fill="#121212"/>
<path d="M179.648 44.9358H155.856C155.671 44.9358 155.487 44.8991 155.316 44.8278C155.145 44.7566 154.989 44.6521 154.858 44.5204C154.727 44.3888 154.623 44.2325 154.552 44.0604C154.481 43.8884 154.445 43.704 154.445 43.5178C154.444 43.1318 154.589 42.76 154.852 42.4778C155.114 42.1956 155.473 42.0243 155.856 41.9985H179.648C179.87 41.9529 180.1 41.9581 180.32 42.0137C180.54 42.0694 180.745 42.174 180.919 42.3199C181.093 42.4658 181.232 42.6492 181.327 42.8566C181.421 43.064 181.467 43.2899 181.463 43.5178C181.452 43.7371 181.395 43.9515 181.295 44.1464C181.194 44.3413 181.053 44.512 180.88 44.6468C180.708 44.7815 180.508 44.8771 180.296 44.927C180.083 44.9769 179.862 44.9799 179.648 44.9358Z" fill="#121212"/>
<path d="M167.651 66.2055C166.183 66.1899 164.776 65.6101 163.719 64.585C162.705 63.5607 162.127 62.1807 162.106 60.7362C162.122 59.2608 162.699 57.8473 163.719 56.7861C164.787 55.7779 166.187 55.2009 167.651 55.1656C168.39 55.1579 169.123 55.3073 169.8 55.604C170.478 55.9008 171.085 56.3381 171.583 56.8874C172.116 57.3923 172.536 58.0059 172.815 58.6872C173.093 59.3684 173.223 60.1016 173.196 60.8375C173.175 62.282 172.597 63.662 171.583 64.6863C171.071 65.204 170.457 65.6071 169.779 65.869C169.101 66.1309 168.376 66.2455 167.651 66.2055ZM167.651 56.7861C166.635 56.79 165.659 57.1893 164.929 57.9002C164.193 58.6233 163.761 59.6016 163.719 60.6349C163.715 61.1659 163.821 61.6919 164.029 62.18C164.237 62.6681 164.544 63.1076 164.929 63.4708C165.659 64.1818 166.635 64.5811 167.651 64.585C168.699 64.5863 169.707 64.1881 170.474 63.4708C171.108 62.7067 171.432 61.73 171.381 60.7362C171.377 59.7149 170.98 58.7348 170.272 58.0015C169.506 57.2842 168.497 56.886 167.45 56.8874L167.651 56.7861Z" fill="#121212"/>
<path d="M109.785 14.8546C109.785 14.8546 108.777 14.3482 108.172 14.8546C107.567 15.361 107.668 17.488 109.281 18.2982C110.29 18.7577 111.428 18.8472 112.496 18.5511C113.565 18.2551 114.496 17.5922 115.128 16.6777C115.665 15.5723 115.807 14.3153 115.532 13.117C115.257 11.9186 114.58 10.8515 113.616 10.0942C112.137 9.36788 110.478 9.09577 108.846 9.31195C107.215 9.52814 105.682 10.223 104.442 11.3097C103.16 12.6245 102.331 14.3176 102.077 16.1405C101.823 17.9633 102.157 19.82 103.03 21.438C104.674 24.9139 107.399 27.758 110.793 29.5408C117.547 33.3895 125.209 35.8203 131.863 39.0614C135.131 40.5859 138.267 42.3814 141.238 44.4295C143.86 46.3145 146.322 48.4149 148.598 50.7091C152.194 54.1515 154.954 58.3795 156.663 63.0657C157.23 65.1201 157.23 67.2909 156.663 69.3453C156.457 69.6405 156.159 69.8583 155.816 69.9643C155.473 70.0703 155.105 70.0584 154.77 69.9306C154.434 69.8028 154.151 69.5663 153.964 69.2585C153.778 68.9508 153.698 68.5892 153.739 68.2312C154.189 66.7801 154.189 65.2258 153.739 63.7747C152.606 59.2797 150.27 55.1817 146.985 51.9245C144.919 49.5715 142.622 47.4338 140.129 45.5436C137.281 43.4411 134.243 41.6101 131.056 40.0743C124.503 36.7319 116.943 34.4024 109.986 29.9459C106.331 28.0784 103.39 25.0526 101.619 21.3368C100.79 19.4766 100.539 17.4084 100.899 15.4027C101.259 13.3969 102.212 11.5468 103.635 10.0942C105.08 8.83295 106.852 8.01077 108.744 7.7238C110.636 7.43684 112.571 7.69694 114.321 8.4737C115.891 9.42135 117.025 10.9524 117.478 12.7347C117.931 14.517 117.666 16.4069 116.741 17.9944C116.337 18.7216 115.788 19.3576 115.129 19.8628C114.47 20.3681 113.715 20.7319 112.91 20.9316C111.474 21.4333 109.911 21.4333 108.474 20.9316C107.836 20.6598 107.264 20.2506 106.801 19.7327C106.337 19.2148 105.992 18.601 105.79 17.9345C105.588 17.268 105.534 16.5651 105.632 15.8754C105.73 15.1858 105.978 14.5261 106.357 13.943C106.672 13.5242 107.069 13.1745 107.523 12.9153C107.977 12.6562 108.48 12.4932 108.999 12.4363C109.518 12.3793 110.044 12.4297 110.543 12.5844C111.042 12.739 111.505 12.9945 111.902 13.3353C112.187 13.6629 112.383 14.0586 112.471 14.4844C112.559 14.9102 112.537 15.3516 112.406 15.7661C112.35 15.9348 112.26 16.0902 112.142 16.223C112.025 16.3559 111.882 16.4634 111.721 16.5391C111.561 16.6148 111.387 16.6572 111.211 16.6636C111.034 16.67 110.857 16.6403 110.692 16.5764C110.361 16.4215 110.098 16.1516 109.949 15.8165C109.801 15.4814 109.778 15.1038 109.886 14.7533L109.785 14.8546Z" fill="#121212"/>
<path d="M133.274 28.6292C133.466 29.628 133.735 30.6101 134.081 31.5664C134.852 33.6507 135.762 35.6809 136.803 37.6434C137.851 39.5307 139.102 41.2968 140.533 42.9102C141.121 43.6348 141.798 44.2815 142.549 44.8346C142.714 45.0379 142.809 45.2895 142.82 45.5517C142.831 45.8138 142.757 46.0726 142.61 46.2891C142.462 46.5057 142.249 46.6685 142.002 46.7532C141.755 46.8379 141.487 46.8399 141.238 46.759C140.316 46.154 139.499 45.4013 138.819 44.5307C137.358 42.6668 136.201 40.5813 135.391 38.3524C134.542 36.2253 133.901 34.0205 133.476 31.769C133.398 30.7238 133.398 29.6743 133.476 28.6292H133.274Z" fill="#121212"/>
<path d="M48.4907 41.2897H47.5834C47.5834 41.2897 46.9785 41.2897 46.3737 42.3025C46.0994 42.7798 45.955 43.3213 45.955 43.8724C45.955 44.4236 46.0994 44.965 46.3737 45.4423C46.5464 46.1576 46.8927 46.8187 47.3818 47.3667L47.9867 47.9744L48.894 48.4808C49.875 48.7182 50.8937 48.7531 51.8885 48.5835C52.8834 48.414 53.8336 48.0434 54.6818 47.4942C55.5299 46.9451 56.2584 46.2288 56.8231 45.3886C57.3878 44.5485 57.777 43.602 57.9671 42.6064C58.3989 40.1938 58.0553 37.7058 56.9859 35.5025C55.9166 33.2992 54.1771 31.495 52.0192 30.351C49.2767 29.0867 46.2049 28.732 43.2485 29.3382C40.2147 30.0464 37.4701 31.6726 35.3851 33.9972C33.1136 36.4831 31.6242 39.5881 31.104 42.922C30.5839 46.2558 31.0562 49.6698 32.4615 52.7348C34.0489 56.0688 36.6286 58.8248 39.8435 60.6212C43.0583 62.4176 46.7495 63.1657 50.4062 62.7619C57.9022 62.3727 65.1963 60.1847 71.6776 56.381C78.162 52.5493 84.8984 49.1654 91.8401 46.2526C97.9614 43.6321 104.351 41.6961 110.894 40.4794C117.111 39.5649 123.428 39.5649 129.645 40.4794C135.058 41.2583 140.17 43.4594 144.464 46.8603C147.793 49.6675 150.534 53.11 152.529 56.9887C153.876 59.3829 154.926 61.934 155.654 64.585C155.991 65.5367 156.227 66.5211 156.36 67.5222C156.388 67.7885 156.363 68.0576 156.287 68.3141C156.21 68.5706 156.084 68.8094 155.915 69.0166C155.747 69.2238 155.539 69.3953 155.304 69.5213C155.068 69.6473 154.811 69.7251 154.546 69.7505C154.278 69.7936 154.005 69.7794 153.743 69.7086C153.482 69.6378 153.238 69.5121 153.029 69.3398C152.819 69.1676 152.648 68.9526 152.527 68.7091C152.407 68.4656 152.338 68.1992 152.328 67.9273C152.328 67.9273 152.328 67.2184 152.328 65.4965C151.774 63.0994 150.997 60.7596 150.009 58.5079C148.4 54.982 146.064 51.8402 143.154 49.2911C139.342 45.9842 134.707 43.7788 129.746 42.9102C123.702 41.9373 117.542 41.9373 111.499 42.9102C104.565 43.821 97.7838 45.6604 91.3361 48.3796C84.5822 51.3464 78.0169 54.7289 71.6776 58.5079C65.2012 62.3839 57.9219 64.7062 50.4062 65.294C46.3423 65.5223 42.2865 64.7213 38.6111 62.9644C36.7316 62.0544 35.0256 60.8203 33.5705 59.3182C32.2081 57.8504 31.0854 56.1754 30.2437 54.3553C28.3631 50.7161 27.6262 46.5892 28.1302 42.5202C28.6342 38.4511 30.3555 34.6316 33.0664 31.5664C35.7106 28.5503 39.2413 26.4575 43.1477 25.5907C46.8823 24.8815 50.7425 25.3046 54.237 26.8061C57.6411 28.3618 60.3396 31.1452 61.798 34.6049C62.4133 36.2696 62.8197 38.0048 63.0077 39.7704C63.0585 40.5799 63.0585 41.3918 63.0077 42.2012C63.1062 43.0424 63.1062 43.8922 63.0077 44.7333C62.7065 46.3271 62.0772 47.8401 61.1602 49.1754C60.2432 50.5107 59.0587 51.6388 57.6825 52.4874C56.3063 53.336 54.7689 53.8865 53.1687 54.1035C51.5685 54.3205 49.9408 54.1993 48.3899 53.7476C47.6539 53.4375 46.9457 53.0647 46.2729 52.6335L45.2647 51.8232V51.2155C44.2697 50.2748 43.5394 49.0869 43.1477 47.7718C42.5091 46.6733 42.1476 45.4345 42.0949 44.1634C42.0422 42.8923 42.2998 41.6275 42.8452 40.4794C43.5118 39.4218 44.4972 38.6057 45.6579 38.1502C46.8185 37.6947 48.0936 37.6236 49.2972 37.9473C50.3782 38.3184 51.275 39.0942 51.8008 40.113C52.3266 41.1319 52.441 42.3152 52.12 43.4166C51.8508 44.261 51.3068 44.9898 50.5753 45.4859C49.8439 45.9819 48.9676 46.2163 48.0875 46.1513H47.281C46.7024 45.9238 46.2331 45.4813 45.9704 44.9157C45.7076 44.35 45.6715 43.7045 45.8696 43.1128C46.0961 42.5315 46.5365 42.06 47.0995 41.796C47.6625 41.5321 48.3051 41.4958 48.894 41.6948L48.4907 41.2897Z" fill="#121212"/>
<path d="M75.4077 38.3524C78.3651 36.7683 81.2264 35.0097 83.9768 33.0857C86.8792 31.2086 90.1423 29.9663 93.554 29.4395C96.9238 29.0445 100.337 29.2503 103.635 30.0472C105.345 30.371 107.005 30.9157 108.575 31.6677C110.262 32.4715 111.77 33.6082 113.011 35.0101C113.099 35.0952 113.17 35.1974 113.218 35.3105C113.266 35.4236 113.291 35.5454 113.291 35.6684C113.291 35.7914 113.266 35.9132 113.218 36.0263C113.17 36.1395 113.099 36.2417 113.011 36.3268C112.361 36.9276 111.61 37.4077 110.793 37.7447L108.575 38.7576C107.033 39.4302 105.45 40.0053 103.837 40.4794C100.723 41.185 97.5504 41.592 94.3605 41.6948C91.1779 42.0502 87.9659 42.0502 84.7833 41.6948C81.5573 41.6948 78.6337 40.1755 75.5085 39.6691L75.4077 38.3524ZM76.6175 38.3524C79.4402 38.3524 82.1622 39.4666 84.8841 39.8717C88.0042 40.1247 91.1395 40.1247 94.2597 39.8717C97.3479 39.5711 100.413 39.0636 103.434 38.3524C104.913 37.9528 106.362 37.445 107.769 36.8332C108.467 36.5913 109.142 36.2862 109.785 35.9216C110.435 35.5888 111.044 35.1809 111.599 34.7062V36.1242C110.652 34.9228 109.446 33.9532 108.071 33.2882C106.626 32.5494 105.105 31.972 103.534 31.5664C100.249 30.6932 96.8348 30.4187 93.4532 30.7561C90.1985 31.0937 87.0621 32.1671 84.2792 33.8959C81.8597 35.4152 79.4402 37.2383 76.6175 38.4537V38.3524Z" fill="#121212"/>
<path d="M110.894 36.428C109.918 36.0243 108.905 35.7189 107.869 35.5165C105.492 34.9245 103.059 34.585 100.611 34.5036C97.2185 34.4756 93.8347 34.8495 90.5295 35.6178C93.8488 34.3998 97.3008 33.5838 100.812 33.1869C103.344 33.0745 105.879 33.2443 108.373 33.6934C109.569 33.9143 110.748 34.2189 111.902 34.6049C112.029 34.6501 112.145 34.7202 112.244 34.8113C112.344 34.9023 112.424 35.0125 112.48 35.1352C112.537 35.2579 112.568 35.3907 112.573 35.5257C112.577 35.6608 112.555 35.7954 112.507 35.9216C112.462 36.049 112.392 36.1661 112.301 36.2659C112.211 36.3657 112.101 36.4464 111.979 36.503C111.857 36.5596 111.725 36.5911 111.59 36.5957C111.456 36.6002 111.322 36.5776 111.196 36.5293L110.894 36.428Z" fill="#121212"/>
<path d="M116.943 50.6077C110.053 52.4694 103.538 55.5195 97.6873 59.6219C92.3242 62.8248 86.1828 64.4726 79.9443 64.3823C79.9443 64.3823 85.0858 62.4579 90.0256 60.0271C96.0724 56.3007 102.451 53.1473 109.079 50.6077C111.654 49.9062 114.368 49.9062 116.943 50.6077Z" fill="#121212"/>
<path d="M36.0909 61.8502C23.2877 54.3552 25.2032 40.4793 15.626 32.8831C18.3142 33.1043 20.8936 34.0486 23.0932 35.6169C25.2928 37.1852 27.0315 39.3197 28.1267 41.796C28.5426 45.2355 29.2853 48.6271 30.3446 51.9244C31.825 55.4687 33.7565 58.8051 36.0909 61.8502Z" fill="#121212"/>
<path d="M0 69.7504H43.7526C40.7243 68.6013 37.7625 67.2826 34.8811 65.8003C31.8194 64.1263 28.4385 63.1251 24.9624 62.8632C21.4864 62.6012 17.9947 63.0845 14.7186 64.2811C10.0615 66.7202 5.11605 68.5578 0 69.7504Z" fill="#121212"/>
<path d="M126.11 47.6734C126.112 47.6387 126.114 47.604 126.116 47.5693H126.203H126.923C126.613 47.9103 126.337 48.2761 126.094 48.6618C125.387 49.7884 124.974 51.0853 124.907 52.431C124.771 54.2915 125.046 56.1591 125.713 57.9003C125.805 58.0256 125.866 58.1703 125.893 58.3234C125.92 58.4764 125.912 58.6337 125.869 58.783C125.826 58.9322 125.749 59.0695 125.644 59.1841C125.54 59.2987 125.41 59.3877 125.266 59.444C125.122 59.5003 124.967 59.5226 124.813 59.509C124.658 59.4954 124.51 59.4464 124.377 59.3657C124.245 59.285 124.133 59.1747 124.05 59.0436C123.967 58.9124 123.915 58.7638 123.898 58.6093C123.445 56.5409 123.445 54.398 123.898 52.3297C124.186 50.5919 124.956 48.9796 126.11 47.6734Z" fill="#121212"/>
<path d="M82.8679 68.7376C86.0167 68.6065 89.1348 68.0617 92.1427 67.117C94.8646 66.3068 97.9898 65.1926 101.317 63.876C104.643 62.5593 108.071 60.8374 111.398 59.622C115.023 58.3517 118.852 57.7679 122.689 57.9002C126.267 58.0289 129.747 59.1126 132.77 61.04C134.819 62.2947 136.628 63.9068 138.113 65.8003C139.222 67.2183 139.726 68.0286 139.726 68.0286C139.89 68.2282 139.98 68.4788 139.98 68.7376C139.98 68.9963 139.89 69.247 139.726 69.4466C139.538 69.6321 139.284 69.7361 139.02 69.7361C138.757 69.7361 138.503 69.6321 138.315 69.4466L136.903 67.3196C135.555 65.5681 133.918 64.061 132.064 62.8631C129.496 61.0904 126.503 60.0412 123.395 59.8246C119.608 59.3699 115.769 59.6799 112.104 60.7362C108.474 61.8503 105.047 63.4708 102.022 64.6862C98.9979 65.9016 95.4695 67.0158 92.7475 67.7247C89.6602 68.6083 86.4789 69.1183 83.2712 69.244V68.6363L82.8679 68.7376Z" fill="#121212"/>
<path d="M104.139 69.1428C107.466 69.1428 111.196 64.4838 120.37 64.585C122.211 64.5395 124.032 64.9725 125.657 65.842C127.282 66.7115 128.656 67.9881 129.645 69.5479L104.139 69.1428Z" fill="#121212"/>
<path d="M78.1298 45.0371C79.1379 45.7461 79.642 47.0628 79.0371 47.7718C78.6602 48.143 78.1535 48.3509 77.6257 48.3509C77.098 48.3509 76.5912 48.143 76.2143 47.7718C75.7311 47.5308 75.3577 47.1136 75.1704 46.6054C74.983 46.0971 74.9958 45.5362 75.2062 45.0371C75.6 44.6595 76.1236 44.4487 76.668 44.4487C77.2124 44.4487 77.7359 44.6595 78.1298 45.0371Z" fill="#121212"/>
<path d="M72.2827 49.0885C72.5663 49.3894 72.7243 49.7881 72.7243 50.2026C72.7243 50.617 72.5663 51.0157 72.2827 51.3167C71.9687 51.5776 71.5766 51.7247 71.1693 51.7344C70.762 51.7442 70.3633 51.6159 70.0374 51.3703C69.7115 51.1248 69.4773 50.7761 69.3725 50.3806C69.2678 49.985 69.2986 49.5656 69.4599 49.1897C69.6092 48.9541 69.8132 48.7584 70.0545 48.6197C70.2957 48.4809 70.567 48.4032 70.8448 48.3932C71.1226 48.3832 71.3987 48.4413 71.6492 48.5624C71.8997 48.6836 72.1171 48.8641 72.2827 49.0885Z" fill="#121212"/>
<path d="M65.8307 52.9374C65.9405 53.0415 66.028 53.1671 66.0878 53.3065C66.1476 53.4458 66.1785 53.5959 66.1785 53.7477C66.1785 53.8994 66.1476 54.0495 66.0878 54.1889C66.028 54.3282 65.9405 54.4538 65.8307 54.5579C65.6254 54.7502 65.3552 54.8571 65.0746 54.8571C64.7939 54.8571 64.5238 54.7502 64.3185 54.5579C64.1271 54.3517 64.0208 54.0803 64.0208 53.7983C64.0208 53.5164 64.1271 53.2449 64.3185 53.0387C64.5107 52.8322 64.7739 52.7068 65.0547 52.688C65.3355 52.6692 65.6129 52.7584 65.8307 52.9374Z" fill="#121212"/>
<path d="M59.1769 56.0772C59.2822 56.1626 59.3671 56.2706 59.4254 56.3933C59.4837 56.516 59.514 56.6502 59.514 56.7861C59.514 56.9221 59.4837 57.0563 59.4254 57.179C59.3671 57.3017 59.2822 57.4097 59.1769 57.4951C59.0165 57.71 58.7777 57.8521 58.513 57.8901C58.2483 57.9281 57.9795 57.8589 57.7656 57.6977C57.5517 57.5365 57.4103 57.2966 57.3724 57.0307C57.3346 56.7647 57.4035 56.4946 57.5639 56.2797C57.6531 56.1553 57.7668 56.0507 57.898 55.9725C58.0292 55.8942 58.1751 55.844 58.3265 55.825C58.4779 55.806 58.6315 55.8186 58.7779 55.862C58.9242 55.9053 59.0601 55.9786 59.1769 56.0772Z" fill="#121212"/>
<path d="M91.3361 22.6535C90.1577 20.6598 88.7353 18.8224 87.102 17.1842C85.256 15.6997 83.2628 14.41 81.1541 13.3354C80.1793 12.8466 79.3461 12.1141 78.7346 11.2084C79.4336 12.037 80.3377 12.6659 81.3557 13.0315C83.5894 13.9059 85.7196 15.0269 87.7069 16.3739C89.6711 17.8707 91.3745 19.6847 92.7475 21.7419L93.554 22.8561C92.6416 18.6108 90.2897 14.8158 86.9004 12.12C81.1541 7.46092 77.1216 8.87889 72.6858 3.8147C71.8671 7.24505 72.1363 10.8468 73.4559 14.1158C74.7755 17.3848 77.0794 20.1574 80.0451 22.0458C83.7309 24.0842 87.9869 24.8324 92.1426 24.1728L91.3361 22.6535Z" fill="#121212"/>
<path d="M147.489 59.3181C144.785 55.5366 141.357 52.3344 137.407 49.8987C139.121 52.6333 137.407 61.5463 140.331 69.0413H145.271C145.366 67.794 145.366 66.5412 145.271 65.2938C144.999 63.885 144.629 62.4974 144.162 61.1412L143.557 59.2168L144.464 60.9386C145.108 62.2569 145.68 63.6093 146.178 64.99C146.65 66.2964 146.955 67.6577 147.085 69.0413H150.009C150.071 65.6296 149.199 62.2662 147.489 59.3181Z" fill="#121212"/>
<path d="M167.651 23.9702C164.854 26.1489 162.952 29.2853 162.308 32.7819C162.299 35.2923 162.814 37.7767 163.82 40.0744H171.381C172.403 37.7815 172.919 35.2938 172.894 32.7819C172.276 29.3002 170.411 26.1659 167.651 23.9702Z" fill="#121212"/>
<path d="M173.902 40.4795H180.858C182.608 37.5106 184.562 34.6678 186.705 31.9716C185.062 31.641 183.362 31.7271 181.76 32.2223C180.159 32.7175 178.705 33.606 177.531 34.8076C176.119 36.56 174.902 38.4619 173.902 40.4795Z" fill="#121212"/>
<path d="M185.092 31.5665C186.998 29.1427 189.161 26.9351 191.544 24.9831C194.158 22.8788 197.13 21.2661 200.315 20.2227V22.3497C198.438 22.1478 196.546 22.1478 194.669 22.3497C192.724 22.4898 190.799 22.8292 188.923 23.3625C185.187 24.4825 181.744 26.4194 178.842 29.0344C178.729 29.1477 178.596 29.2376 178.449 29.299C178.301 29.3603 178.144 29.3919 177.985 29.3919C177.825 29.3919 177.668 29.3603 177.521 29.299C177.374 29.2376 177.24 29.1477 177.128 29.0344C177.059 28.8378 177.059 28.6233 177.128 28.4267C176.578 24.8621 175.382 21.4291 173.599 18.2983C171.979 15.4108 169.564 13.0544 166.643 11.5123H168.659C165.695 12.9817 163.237 15.3101 161.603 18.197C159.821 21.3477 158.561 24.7685 157.873 28.3254C157.861 28.4687 157.82 28.6079 157.751 28.7337C157.682 28.8596 157.587 28.9693 157.472 29.0555C157.358 29.1417 157.227 29.2025 157.087 29.2338C156.947 29.2651 156.803 29.2662 156.663 29.237H156.058C153.297 26.5341 149.943 24.5209 146.266 23.3598C142.588 22.1986 138.691 21.922 134.887 22.5522V20.2227C137.918 21.3821 140.743 23.0236 143.255 25.0843C145.726 27.077 147.989 29.3167 150.009 31.7691C150.009 31.7691 150.009 32.3768 150.009 32.6806C149.882 32.7878 149.721 32.8465 149.555 32.8465C149.39 32.8465 149.229 32.7878 149.102 32.6806C147.059 30.3649 144.759 28.292 142.247 26.5023C139.893 24.6087 137.233 23.1355 134.383 22.1471C134.129 22.2277 133.854 22.2036 133.617 22.0801C133.381 21.9567 133.203 21.7439 133.123 21.4888C133.043 21.2336 133.067 20.9568 133.19 20.7194C133.313 20.482 133.524 20.3033 133.778 20.2227C134.006 20.1373 134.256 20.1373 134.484 20.2227C136.594 19.9737 138.725 19.9737 140.835 20.2227C142.884 20.3866 144.911 20.7599 146.884 21.3368C150.92 22.4986 154.62 24.6174 157.671 27.5151L155.856 28.2241C156.221 24.4079 157.209 20.6781 158.78 17.1842C160.489 13.4544 163.261 10.3174 166.744 8.16993C167.035 8.00103 167.366 7.91211 167.702 7.91211C168.038 7.91211 168.368 8.00103 168.659 8.16993C172.126 10.3089 174.867 13.4513 176.523 17.1842C178.138 20.662 179.128 24.3996 179.446 28.2241L177.531 27.5151C180.521 24.2372 184.257 21.7352 188.419 20.2227C190.421 19.6397 192.486 19.2996 194.568 19.2099C196.678 18.9609 198.81 18.9609 200.919 19.2099C201.064 19.232 201.203 19.2855 201.325 19.3668C201.447 19.448 201.55 19.5551 201.627 19.6804C201.703 19.8057 201.752 19.9463 201.769 20.0925C201.786 20.2386 201.772 20.3867 201.726 20.5266C201.728 20.725 201.657 20.9171 201.526 21.0665C201.396 21.2158 201.216 21.312 201.02 21.3368C198.156 22.2706 195.465 23.6737 193.056 25.4895C190.576 27.3213 188.25 29.3537 186.1 31.5665C186.053 31.6294 185.992 31.6804 185.922 31.7156C185.852 31.7508 185.775 31.7691 185.697 31.7691C185.619 31.7691 185.541 31.7508 185.471 31.7156C185.401 31.6804 185.34 31.6294 185.294 31.5665C185.227 31.5778 185.159 31.5778 185.092 31.5665Z" fill="#121212"/>
<path d="M179.346 50.6078H155.554C155.34 50.6078 155.135 50.5225 154.984 50.3705C154.832 50.2186 154.747 50.0125 154.747 49.7976C154.769 49.5902 154.861 49.3967 155.008 49.2492C155.155 49.1018 155.347 49.0093 155.554 48.9873H179.346C179.552 49.0093 179.745 49.1018 179.891 49.2492C180.038 49.3967 180.13 49.5902 180.152 49.7976C180.152 50.0125 180.067 50.2186 179.916 50.3705C179.765 50.5225 179.559 50.6078 179.346 50.6078Z" fill="#121212"/>
<path d="M325.12 70.8644L10.0813 69.7503C9.95999 69.7818 9.83305 69.7845 9.71053 69.7582C9.588 69.7319 9.47328 69.6772 9.37544 69.5986C9.2776 69.5199 9.19934 69.4195 9.14688 69.3052C9.09441 69.1909 9.06917 69.0658 9.07316 68.94C9.08569 68.82 9.1218 68.7037 9.1794 68.5979C9.23701 68.492 9.31496 68.3987 9.40873 68.3233C9.50251 68.2479 9.61025 68.192 9.7257 68.1588C9.84115 68.1255 9.96202 68.1157 10.0813 68.1297L325.322 69.2439C325.437 69.243 325.551 69.2668 325.656 69.3137C325.761 69.3606 325.855 69.4295 325.931 69.5158C326.008 69.6021 326.065 69.7039 326.099 69.8142C326.133 69.9245 326.143 70.0408 326.129 70.1554C326.118 70.2726 326.082 70.386 326.023 70.4877C325.964 70.5895 325.884 70.6771 325.788 70.7446C325.692 70.812 325.583 70.8577 325.467 70.8784C325.352 70.8991 325.234 70.8943 325.12 70.8644Z" fill="#121212"/>
<path d="M170.071 2.7006C170.101 3.33989 169.889 3.96687 169.477 4.45543C169.066 4.944 168.485 5.25789 167.853 5.33398C167.228 5.2576 166.658 4.93995 166.263 4.44836C165.868 3.95678 165.679 3.3299 165.736 2.7006C165.666 2.37544 165.669 2.03862 165.745 1.71485C165.821 1.39108 165.969 1.08858 166.177 0.829576C166.385 0.570567 166.648 0.361617 166.946 0.218064C167.245 0.0745114 167.572 0 167.903 0C168.234 0 168.561 0.0745114 168.86 0.218064C169.159 0.361617 169.422 0.570567 169.63 0.829576C169.838 1.08858 169.985 1.39108 170.061 1.71485C170.138 2.03862 170.141 2.37544 170.071 2.7006Z" fill="#121212"/>
<path d="M153.033 14.5507C153.84 15.9687 153.739 17.4879 153.033 17.9943C152.328 18.5007 150.816 17.9943 150.009 16.3738C149.203 14.7532 149.303 13.5378 150.009 13.0314C150.715 12.525 152.227 13.234 153.033 14.5507Z" fill="#121212"/>
<path d="M182.37 14.652C181.664 16.07 181.664 17.5892 182.37 18.0956C183.076 18.6021 184.588 18.0956 185.394 16.5764C186.201 15.0571 186.201 13.6392 185.394 13.1327C184.588 12.6263 183.176 13.3353 182.37 14.652Z" fill="#121212"/>
<path d="M223.199 16.2726C223.091 15.8488 223.09 15.4047 223.195 14.9803C223.301 14.5559 223.51 14.1646 223.804 13.8418C224.193 13.5034 224.647 13.2495 225.138 13.096C225.629 12.9424 226.147 12.8927 226.658 12.9497C227.169 13.0068 227.663 13.1695 228.109 13.4276C228.555 13.6857 228.942 14.0336 229.248 14.4495C229.627 15.0326 229.875 15.6922 229.973 16.3819C230.071 17.0716 230.017 17.7745 229.815 18.441C229.613 19.1074 229.268 19.7213 228.804 20.2392C228.34 20.757 227.769 21.1663 227.131 21.4381C225.694 21.9398 224.131 21.9398 222.695 21.4381C221.892 21.2329 221.139 20.8669 220.481 20.3622C219.823 19.8575 219.273 19.2244 218.864 18.5009C217.939 16.9134 217.674 15.0235 218.127 13.2412C218.58 11.4589 219.714 9.92781 221.283 8.98017C223.021 8.22417 224.936 7.97522 226.808 8.26183C228.68 8.54843 230.434 9.35901 231.869 10.6007C233.225 12.098 234.104 13.9694 234.392 15.9734C234.679 17.9774 234.362 20.022 233.482 21.8432C231.637 25.5156 228.669 28.4974 225.014 30.3511C218.057 34.1999 210.497 36.5294 203.843 39.8718C200.659 41.3737 197.621 43.1709 194.77 45.2398C192.27 47.1214 189.942 49.223 187.814 51.5194C184.714 54.8528 182.526 58.9352 181.463 63.3696C181.068 64.8287 181.068 66.367 181.463 67.8261C181.603 68.0282 181.697 68.26 181.735 68.5037C181.773 68.7475 181.755 68.9968 181.683 69.2327C181.611 69.4685 181.486 69.6847 181.318 69.8646C181.15 70.0446 180.943 70.1837 180.714 70.2712C180.484 70.3587 180.237 70.3924 179.993 70.3696C179.748 70.3469 179.512 70.2683 179.302 70.1399C179.093 70.0116 178.915 69.8367 178.782 69.6288C178.65 69.4209 178.567 69.1854 178.539 68.9402C178.005 66.8814 178.005 64.7195 178.539 62.6606C180.243 58.0598 183.006 53.9295 186.604 50.6078C188.856 48.3181 191.32 46.2493 193.963 44.4295C196.935 42.3815 200.071 40.5859 203.339 39.0615C210.093 35.9217 217.755 33.5922 224.509 29.7434C227.926 28.0043 230.686 25.1958 232.373 21.7419C233.246 20.1239 233.58 18.2672 233.326 16.4444C233.072 14.6215 232.244 12.9284 230.961 11.6136C229.76 10.4652 228.243 9.70626 226.607 9.43533C224.971 9.1644 223.292 9.39399 221.788 10.0943C220.632 10.8623 219.811 12.0443 219.492 13.3993C219.174 14.7544 219.382 16.1804 220.074 17.3867C220.716 18.2892 221.642 18.9491 222.702 19.2613C223.761 19.5734 224.895 19.5196 225.921 19.1086C227.534 18.2983 227.735 16.1713 227.03 15.5636C226.324 14.9559 225.215 15.5636 225.417 15.5636C225.502 15.722 225.554 15.8963 225.57 16.0758C225.585 16.2552 225.564 16.436 225.508 16.6069C225.451 16.7778 225.36 16.9351 225.24 17.0693C225.121 17.2034 224.975 17.3115 224.812 17.3867C224.477 17.5253 224.101 17.5289 223.763 17.3969C223.426 17.2649 223.151 17.0074 222.997 16.6777L223.199 16.2726Z" fill="#121212"/>
<path d="M288.324 46.5563H287.114C286.244 46.646 285.369 46.4337 284.635 45.9546C283.902 45.4755 283.353 44.7585 283.082 43.9229C282.761 42.8215 282.875 41.6381 283.401 40.6193C283.927 39.6004 284.823 38.8247 285.904 38.4536C287.108 38.1299 288.383 38.201 289.544 38.6565C290.704 39.1119 291.69 39.928 292.356 40.9857C293.118 42.0392 293.608 43.2655 293.784 44.5554C293.96 45.8453 293.816 47.159 293.365 48.3794C292.897 49.6587 292.177 50.83 291.247 51.8231L290.643 52.4308L289.634 53.241C289.005 53.6589 288.328 53.999 287.618 54.2539C286.068 54.6896 284.444 54.7989 282.849 54.575C281.255 54.351 279.723 53.7986 278.351 52.9523C276.979 52.1061 275.795 50.9842 274.874 49.6571C273.954 48.3299 273.316 46.826 273 45.2396C272.907 44.3982 272.907 43.5489 273 42.7075C272.95 41.898 272.95 41.0862 273 40.2767C273.174 38.4981 273.616 36.7563 274.311 35.1112C275.769 31.6515 278.468 28.8681 281.872 27.3124C285.464 25.7486 289.461 25.3869 293.273 26.2806C297.085 27.1743 300.51 29.2759 303.043 32.2753C305.737 35.3514 307.44 39.1763 307.926 43.245C308.412 47.3137 307.658 51.4348 305.764 55.0641C304.939 57.1085 303.818 59.0196 302.438 60.736C300.961 62.1856 299.258 63.383 297.397 64.281C293.696 66.0639 289.593 66.8326 285.501 66.5092C277.693 65.8421 270.157 63.3068 263.524 59.1155C257.227 55.322 250.695 51.9389 243.966 48.9871C237.519 46.268 230.738 44.4285 223.804 43.5178C217.794 42.5487 211.668 42.5487 205.658 43.5178C200.672 44.4072 196.011 46.609 192.149 49.8987C189.216 52.4103 186.846 55.5168 185.193 59.0142C184.159 61.248 183.381 63.5925 182.874 66.0028C182.874 67.7246 182.37 68.5349 182.37 68.5349C182.346 68.7979 182.268 69.0532 182.141 69.2847C182.015 69.5162 181.842 69.719 181.634 69.8805C181.426 70.0421 181.187 70.1588 180.932 70.2235C180.677 70.2883 180.412 70.2995 180.152 70.2567C179.887 70.2314 179.629 70.1535 179.394 70.0276C179.159 69.9016 178.951 69.73 178.782 69.5228C178.613 69.3156 178.487 69.0769 178.411 68.8204C178.335 68.5639 178.31 68.2947 178.337 68.0285C178.337 68.0285 178.337 66.9143 179.043 65.0912C179.841 62.4491 180.923 59.9021 182.269 57.4949C184.301 53.6117 187.076 50.1697 190.435 47.3666C194.738 43.9979 199.85 41.8315 205.254 41.087C211.502 40.1231 217.859 40.1231 224.106 41.087C231.025 42.2283 237.791 44.1654 244.269 46.8601C251.2 49.7954 257.935 53.1786 264.431 56.9885C270.875 60.8087 278.133 63.0308 285.602 63.4707C289.207 63.794 292.823 62.9956 295.961 61.1838C299.099 59.3719 301.607 56.6344 303.143 53.3423C304.602 50.3026 305.122 46.8941 304.637 43.555C304.152 40.2159 302.684 37.0989 300.421 34.6048C298.248 32.3657 295.425 30.8764 292.356 30.3509C289.408 29.7664 286.353 30.0839 283.586 31.2624C281.218 32.4488 279.32 34.407 278.203 36.8169C277.086 39.2269 276.816 41.9462 277.436 44.5306C277.6 45.5291 277.969 46.4824 278.52 47.3298C279.071 48.1772 279.791 48.9002 280.635 49.4528C281.479 50.0053 282.428 50.3753 283.422 50.5393C284.416 50.7032 285.433 50.6575 286.408 50.4051C286.408 50.4051 287.215 50.4051 287.417 49.8987L287.921 49.291C288.422 48.7361 288.8 48.08 289.03 47.3666C289.304 46.8892 289.448 46.3478 289.448 45.7967C289.448 45.2455 289.304 44.7041 289.03 44.2268C288.425 43.3152 287.316 43.2139 287.82 43.2139C287.82 43.2139 287.013 42.5049 286.812 42.7075C287.103 42.5953 287.413 42.5431 287.724 42.554C288.035 42.565 288.341 42.6388 288.624 42.7711C288.906 42.9035 289.159 43.0916 289.367 43.3243C289.575 43.557 289.735 43.8295 289.836 44.1255C290.03 44.7032 289.991 45.3345 289.727 45.8837C289.464 46.4328 288.996 46.8561 288.425 47.0627L288.324 46.5563Z" fill="#121212"/>
<path d="M258.584 39.1626C255.862 37.8459 253.342 36.0228 250.821 34.6048C248.129 32.9003 245.104 31.7951 241.95 31.3638C238.569 30.9712 235.144 31.2464 231.869 32.174C230.302 32.5457 228.781 33.0891 227.332 33.7946C225.921 34.4464 224.679 35.417 223.703 36.6305V35.2125C224.214 35.6968 224.791 36.1059 225.417 36.4279L227.433 37.4408C228.876 38.0195 230.358 38.4934 231.869 38.8588C234.875 39.6608 237.944 40.2029 241.043 40.4793C244.127 40.7834 247.233 40.7834 250.317 40.4793L258.584 39.1626ZM259.693 39.1626C256.669 39.669 253.644 40.5806 250.418 41.087C247.267 41.3902 244.093 41.3902 240.942 41.087C237.907 41.106 234.874 40.9029 231.869 40.4793C230.3 40.0856 228.752 39.6123 227.231 39.0613L225.013 38.0485C224.222 37.6634 223.478 37.1876 222.796 36.6305C222.707 36.5454 222.637 36.4432 222.589 36.3301C222.541 36.2169 222.516 36.0952 222.516 35.9722C222.516 35.8491 222.541 35.7274 222.589 35.6143C222.637 35.5011 222.707 35.3989 222.796 35.3138C224.01 33.9092 225.527 32.8008 227.231 32.0727C228.701 31.3099 230.259 30.7316 231.869 30.3509C235.207 29.8046 238.612 29.8046 241.95 30.3509C245.374 30.8935 248.64 32.1717 251.527 34.0984C254.243 36.0216 257.071 37.7803 259.995 39.3652C259.995 39.3652 259.794 39.669 259.693 39.669V39.1626Z" fill="#121212"/>
<path d="M223.199 35.01C224.32 34.6311 225.465 34.3266 226.627 34.0985C229.173 33.8269 231.742 33.8269 234.288 34.0985C237.948 34.2304 241.574 34.8434 245.075 35.9216C241.606 35.1127 238.051 34.7385 234.49 34.8075C232.046 34.86 229.613 35.1655 227.231 35.719C226.199 35.9787 225.188 36.3173 224.207 36.7319C224.076 36.7971 223.933 36.833 223.787 36.8371C223.641 36.8412 223.496 36.8134 223.362 36.7556C223.227 36.6978 223.107 36.6114 223.01 36.5024C222.912 36.3934 222.839 36.2643 222.796 36.1242C222.693 35.8819 222.688 35.609 222.782 35.3631C222.876 35.1173 223.062 34.918 223.3 34.8075L223.199 35.01Z" fill="#121212"/>
<path d="M298.909 62.8632C311.914 55.4695 309.999 41.8975 319.677 33.9973C316.987 34.2125 314.403 35.1418 312.189 36.6901C309.975 38.2385 308.21 40.3501 307.075 42.809C306.665 46.2587 305.887 49.6542 304.756 52.9374C303.258 56.494 301.292 59.8324 298.909 62.8632Z" fill="#121212"/>
<path d="M335 70.8646H291.248C294.275 69.7515 297.237 68.4665 300.119 67.0158C303.188 65.3582 306.573 64.3746 310.049 64.1302C313.525 63.8857 317.013 64.386 320.282 65.5978C324.949 67.966 329.894 69.7354 335 70.8646Z" fill="#121212"/>
<path d="M194.064 68.3325C194.477 67.2461 195.093 66.2491 195.879 65.3953C196.567 64.5394 197.308 63.7276 198.097 62.9644C199.71 61.4452 201.423 60.1285 202.835 58.7105C204.274 57.2391 205.497 55.5678 206.464 53.7476C207.514 52.0485 208.041 50.0749 207.976 48.0757C207.974 47.9307 208.024 47.7896 208.116 47.6782C208.209 47.5667 208.338 47.4922 208.48 47.468C210.082 48.917 211.119 50.8918 211.404 53.0386C211.691 55.1102 211.519 57.2201 210.9 59.2169C210.866 59.3534 210.803 59.4812 210.717 59.5922C210.631 59.7032 210.523 59.795 210.4 59.8617C210.277 59.9284 210.141 59.9685 210.001 59.9796C209.862 59.9907 209.721 59.9724 209.589 59.9259C209.338 59.8547 209.124 59.6882 208.992 59.4614C208.86 59.2347 208.821 58.9655 208.883 58.7105C209.534 56.9631 209.842 55.106 209.791 53.2412C209.619 51.4353 208.877 49.7319 207.674 48.3796H208.581C208.729 50.6308 208.24 52.8782 207.17 54.8617C206.173 56.8119 204.918 58.6176 203.44 60.2298C201.927 61.9516 200.314 63.167 198.903 64.6863C197.492 66.2055 197.492 66.2055 196.887 67.0158C196.29 67.7449 195.813 68.5656 195.475 69.4466C195.43 69.574 195.361 69.6911 195.27 69.7909C195.179 69.8908 195.07 69.9714 194.948 70.028C194.825 70.0846 194.693 70.1161 194.559 70.1207C194.424 70.1252 194.29 70.1026 194.165 70.0543C194.042 70.0206 193.927 69.9611 193.828 69.8798C193.73 69.7985 193.649 69.6972 193.592 69.5825C193.535 69.4678 193.502 69.3423 193.497 69.2141C193.491 69.086 193.513 68.9581 193.56 68.8389L194.064 68.3325Z" fill="#121212"/>
<path d="M252.031 69.9529C248.816 69.8233 245.632 69.2787 242.555 68.3323C239.833 67.6233 236.607 66.5092 233.28 65.2938C229.953 64.0784 226.425 62.3566 223.199 61.2425C219.726 60.084 216.065 59.6027 212.412 59.8245C209.294 60.0734 206.284 61.0816 203.641 62.7617C201.785 63.9603 200.176 65.5079 198.903 67.3195C198.364 67.9434 197.891 68.6223 197.492 69.3452C197.293 69.5098 197.044 69.5999 196.786 69.5999C196.529 69.5999 196.279 69.5098 196.08 69.3452C195.896 69.1558 195.792 68.9013 195.792 68.6362C195.792 68.3711 195.896 68.1165 196.08 67.9272L197.693 65.699C199.237 63.8242 201.076 62.2161 203.137 60.9386C205.761 59.4262 208.69 58.5261 211.706 58.3052C215.544 58.1729 219.372 58.7567 222.997 60.0271C226.627 61.3437 230.054 63.0656 233.079 64.3823C236.103 65.699 239.531 66.8131 242.152 67.6233C245.157 68.6133 248.272 69.2257 251.427 69.4465L252.031 69.9529Z" fill="#121212"/>
<path d="M230.861 69.6492C227.534 69.6492 223.804 64.8889 214.731 64.8889C212.88 64.7793 211.035 65.1847 209.399 66.0602C207.762 66.9358 206.398 68.2477 205.456 69.8518L230.861 69.6492Z" fill="#121212"/>
<path d="M257.072 45.6448C255.963 46.455 255.56 47.6704 256.064 48.3794C256.252 48.5786 256.479 48.7372 256.73 48.8456C256.981 48.954 257.252 49.0099 257.525 49.0099C257.799 49.0099 258.07 48.954 258.321 48.8456C258.572 48.7372 258.799 48.5786 258.987 48.3794C259.47 48.1384 259.844 47.7212 260.031 47.213C260.219 46.7047 260.206 46.1438 259.995 45.6448C259.591 45.2886 259.071 45.0923 258.534 45.0923C257.996 45.0923 257.476 45.2886 257.072 45.6448Z" fill="#121212"/>
<path d="M262.919 49.7974C262.561 50.0275 262.301 50.3829 262.19 50.7946C262.078 51.2063 262.122 51.645 262.314 52.0257C262.63 52.3175 263.044 52.4794 263.473 52.4794C263.903 52.4794 264.317 52.3175 264.633 52.0257C264.983 51.8141 265.24 51.4768 265.353 51.082C265.465 50.6872 265.424 50.2643 265.238 49.8987C265.094 49.7357 264.919 49.6035 264.724 49.5098C264.528 49.4162 264.316 49.363 264.1 49.3536C263.883 49.3441 263.667 49.3786 263.464 49.4548C263.262 49.5311 263.076 49.6476 262.919 49.7974Z" fill="#121212"/>
<path d="M269.27 53.7475C269.163 53.8425 269.077 53.9594 269.018 54.0904C268.959 54.2213 268.929 54.3634 268.929 54.5071C268.929 54.6508 268.959 54.7928 269.018 54.9238C269.077 55.0548 269.163 55.1717 269.27 55.2667C269.476 55.4589 269.746 55.5658 270.026 55.5658C270.307 55.5658 270.577 55.4589 270.782 55.2667C270.89 55.1717 270.976 55.0548 271.034 54.9238C271.093 54.7928 271.124 54.6508 271.124 54.5071C271.124 54.3634 271.093 54.2213 271.034 54.0904C270.976 53.9594 270.89 53.8425 270.782 53.7475C270.688 53.6397 270.572 53.5534 270.441 53.4942C270.311 53.4351 270.169 53.4045 270.026 53.4045C269.883 53.4045 269.742 53.4351 269.612 53.4942C269.481 53.5534 269.365 53.6397 269.27 53.7475Z" fill="#121212"/>
<path d="M275.924 56.8873C275.781 57.0281 275.683 57.2085 275.642 57.4055C275.602 57.6026 275.62 57.8072 275.696 57.9935C275.772 58.1797 275.901 58.3391 276.067 58.4513C276.234 58.5635 276.429 58.6234 276.629 58.6234C276.83 58.6234 277.025 58.5635 277.192 58.4513C277.358 58.3391 277.487 58.1797 277.563 57.9935C277.638 57.8072 277.657 57.6026 277.617 57.4055C277.576 57.2085 277.478 57.0281 277.335 56.8873C277.137 56.7226 276.887 56.6326 276.629 56.6326C276.372 56.6326 276.122 56.7226 275.924 56.8873Z" fill="#121212"/>
<path d="M244.067 23.2612C245.211 21.2443 246.637 19.4025 248.301 17.7919C250.147 16.3074 252.14 15.0177 254.249 13.9431C255.25 13.495 256.094 12.7537 256.669 11.8161C256.017 12.6745 255.146 13.3396 254.148 13.7405C251.856 14.5096 249.684 15.6008 247.696 16.9816C245.734 18.4734 244.001 20.2481 242.555 22.2484L241.95 23.3625C242.897 19.1062 245.284 15.3117 248.704 12.6264C254.451 8.06862 258.786 9.48659 262.919 4.52368C263.705 7.94978 263.409 11.5369 262.072 14.7862C260.735 18.0355 258.424 20.7854 255.459 22.6535C251.737 24.6923 247.449 25.4399 243.261 24.7805L244.067 23.2612Z" fill="#121212"/>
<path d="M187.612 59.5207C190.346 55.7651 193.767 52.5681 197.693 50.1013C196.08 52.836 197.693 61.749 194.669 69.244H189.83C189.639 68.0022 189.639 66.7382 189.83 65.4965C190.299 64.0716 190.871 62.6836 191.544 61.3438V59.5207L190.637 61.2425C189.915 62.5372 189.308 63.8928 188.822 65.2939C188.398 66.5795 188.095 67.9019 187.915 69.244H184.991C184.97 65.8239 185.876 62.4627 187.612 59.5207Z" fill="#121212"/>
<path d="M202.23 28.9331C202.343 29.9766 202.343 31.0294 202.23 32.0729C201.766 34.3264 201.091 36.5307 200.214 38.6564C199.411 40.8788 198.216 42.9375 196.685 44.7334C196.005 45.6039 195.188 46.3567 194.266 46.9616C194.162 47.072 194.037 47.1599 193.898 47.22C193.76 47.2801 193.61 47.3111 193.459 47.3111C193.308 47.3111 193.159 47.2801 193.02 47.22C192.881 47.1599 192.756 47.072 192.653 46.9616C192.461 46.7554 192.355 46.4839 192.355 46.202C192.355 45.9201 192.461 45.6486 192.653 45.4424C193.376 44.8572 194.05 44.2136 194.669 43.518C196.091 41.8974 197.341 40.1322 198.399 38.2512C199.697 36.2452 200.778 34.1062 201.625 31.8703C202.026 30.9249 202.33 29.9407 202.532 28.9331H202.23Z" fill="#121212"/>
<path d="M44.055 69.953C43.8411 69.953 43.636 69.8676 43.4848 69.7156C43.3335 69.5637 43.2485 69.3576 43.2485 69.1427C43.2485 68.9278 43.3335 68.7217 43.4848 68.5697C43.636 68.4178 43.8411 68.3324 44.055 68.3324C55.1647 69.16 66.2235 66.1591 75.4077 59.8246C78.9362 57.9002 82.767 55.5707 88.0093 53.0386C108.777 42.9102 127.729 39.7704 140.029 45.1384C140.229 45.2324 140.384 45.4026 140.46 45.6116C140.535 45.8205 140.525 46.0511 140.432 46.2525C140.338 46.454 140.169 46.6099 139.961 46.6858C139.753 46.7618 139.523 46.7517 139.323 46.6577C127.528 41.3909 109.079 44.3281 88.9166 54.4565C83.7752 57.0899 79.8435 59.3182 76.4159 61.2426C66.8994 67.6945 55.5074 70.7608 44.055 69.953Z" fill="#121212"/>
<path d="M216.848 50.6079C223.693 52.6013 230.165 55.7153 236.002 59.8247C241.355 63.0631 247.497 64.746 253.745 64.6863C253.745 64.6863 248.604 62.7619 243.664 60.3311C237.652 56.5769 231.307 53.3898 224.711 50.8104C222.149 50.0792 219.444 50.0095 216.848 50.6079Z" fill="#121212"/>
<path d="M289.533 70.8645C278.125 71.5751 266.807 68.4382 257.374 61.9515C253.947 59.9259 250.116 57.6976 244.974 55.0642C224.812 44.9358 206.363 41.6948 194.568 46.8602C194.469 46.9068 194.361 46.9332 194.252 46.9381C194.142 46.9429 194.033 46.926 193.93 46.8884C193.827 46.8508 193.733 46.7932 193.652 46.7188C193.571 46.6445 193.505 46.5549 193.459 46.4551C193.413 46.3553 193.386 46.2474 193.382 46.1374C193.377 46.0274 193.394 45.9176 193.431 45.8141C193.469 45.7107 193.526 45.6156 193.6 45.5345C193.674 45.4533 193.763 45.3875 193.862 45.341C206.262 40.0742 225.114 43.0115 245.781 53.545C251.023 56.2796 254.854 58.5079 258.382 60.5336C267.53 66.8806 278.539 69.9489 289.634 69.244C289.858 69.2426 290.075 69.3246 290.243 69.4742C290.41 69.6238 290.517 69.8304 290.542 70.0542C290.546 70.1801 290.52 70.3051 290.468 70.4194C290.415 70.5337 290.337 70.6342 290.239 70.7128C290.141 70.7914 290.027 70.8461 289.904 70.8724C289.782 70.8988 289.655 70.8961 289.533 70.8645Z" fill="#121212"/>
<path d="M167.651 18.6021C164.803 21.1769 162.682 24.461 161.502 28.1228C160.925 31.9904 161.825 35.9341 164.022 39.1627H163.518H171.381H170.877C171.931 37.5328 172.746 35.7591 173.297 33.896C173.297 32.8831 173.297 31.9716 173.801 31.06C173.905 30.0837 173.905 29.0991 173.801 28.1228C172.656 24.4438 170.529 21.1507 167.651 18.6021ZM167.651 17.9944C170.758 20.7082 173.089 24.2041 174.406 28.1228C174.553 29.1641 174.553 30.2212 174.406 31.2626C174.504 32.273 174.504 33.2907 174.406 34.3011C173.915 36.3125 173.097 38.2288 171.986 39.973H163.719C162.699 38.1943 161.919 36.2869 161.401 34.3011C160.847 32.2792 160.847 30.1447 161.401 28.1228C162.728 24.1837 165.098 20.6822 168.256 17.9944H167.853H167.651Z" fill="#121212"/>
<path d="M143.557 26.0972C144.755 26.1428 145.941 26.3471 147.086 26.7049C149.596 27.4105 151.955 28.5781 154.042 30.1485C156.13 31.7407 157.878 33.7384 159.183 36.023C159.678 36.7118 160.084 37.4605 160.393 38.2512L160.897 39.1628C160.989 39.2575 161.041 39.3847 161.041 39.5173C161.041 39.6498 160.989 39.7771 160.897 39.8718H160.191V39.0615C159.926 38.2708 159.553 37.5209 159.082 36.8333C157.86 34.6386 156.215 32.7105 154.243 31.1614C152.289 29.6174 150.067 28.4499 147.69 27.7177C146.607 27.3737 145.493 27.1362 144.364 27.0087V26.401L143.557 26.0972Z" fill="#121212"/>
<path d="M191.544 26.9072C190.412 26.9537 189.292 27.1582 188.217 27.5149C185.82 28.274 183.57 29.4386 181.563 30.9586C179.614 32.5315 177.973 34.4548 176.724 36.6305C176.272 37.3101 175.868 38.0208 175.514 38.7574V39.669C175.42 39.7618 175.294 39.8138 175.162 39.8138C175.03 39.8138 174.903 39.7618 174.809 39.669C174.71 39.5576 174.655 39.4133 174.655 39.2639C174.655 39.1144 174.71 38.9701 174.809 38.8587V38.0485C175.194 37.2438 175.632 36.4656 176.119 35.7189C177.564 33.6207 179.374 31.8021 181.462 30.3509C183.546 28.7975 185.907 27.6627 188.418 27.0085C189.433 26.6425 190.479 26.3713 191.544 26.1982C191.544 26.1982 192.048 26.9072 191.544 26.9072Z" fill="#121212"/>
</svg>
